#N canvas 0 98 613 500 10;
#X obj 50 238 vsl 30 128 0 100 0 0 empty CAdecay Rad 0 -9 0 14 -162280
-1 -4034 5000 1;
#X obj 449 75 bng 15 250 50 0 empty empty empty 0 -6 0 8 -24198 -1
-1;
#X obj 506 75 bng 15 250 50 0 empty empty empty 0 -6 0 8 -258699 -1
-1;
#X obj 449 57 loadbang;
#X text 445 40 UDP connection;
#X text 528 216 AUDIO ON;
#X obj 530 233 loadbang;
#X msg 530 249 \; pd dsp 1;
#X obj 447 278 adc~ 1 2;
#X obj 461 310 +~;
#X obj 461 327 env~;
#X obj 50 468 s message;
#X msg 50 451 send /pen_radius \$1;
#X obj 91 238 vsl 30 128 0 1 0 0 empty CAdecay Color 0 -9 0 14 -162280
-1 -4034 4700 1;
#X obj 91 426 s message;
#X obj 132 238 vsl 30 128 0 1 0 0 empty CAdecay Damp 0 -9 0 14 -162280
-1 -4034 6900 1;
#X obj 132 386 s message;
#X msg 132 369 send /damp \$1;
#X obj 94 58 tgl 30 0 empty empty empty 17 7 0 10 -262144 -1 -1 0 1
;
#X obj 134 59 tgl 30 0 empty empty empty 17 7 0 10 -262144 -1 -1 0
1;
#X text 50 37 Brush;
#X text 95 38 Color;
#X text 140 38 Dyn;
#X obj 53 193 s message;
#X obj 94 151 s message;
#X obj 134 111 s message;
#X msg 53 175 send /pen_brush_plus;
#X msg 134 94 send /dyn_onOff;
#X msg 94 134 send /pen_BW;
#X msg 91 409 send /pen_color \$1;
#X obj 272 308 hsl 128 30 0 1 0 0 empty empty DECAY -2 -8 0 14 -262144
-1 -1 5500 1;
#X obj 269 368 s message;
#X msg 269 344 send /trkDecay \$1;
#X obj 269 210 tgl 30 0 empty empty empty 17 7 0 10 -262144 -1 -1 0
1;
#X obj 269 262 s message;
#X text 275 189 PEN;
#X msg 269 245 send /pen_onOff;
#X msg 506 93 disconnect;
#X obj 502 146 r message;
#X floatatom 449 241 5 0 0 0 - - -;
#X msg 449 120 connect 127.0.0.1 9000;
#X obj 449 219 udpsend 1;
#X obj 502 186 packOSC;
#X obj 53 58 bng 30 250 50 0 empty empty empty 17 7 0 10 -262144 -1
-1;
#X obj 485 361 > 0;
#X obj 461 378 spigot;
#X floatatom 406 428 5 0 0 0 - - -;
#X msg 461 412 send /accxyz \$1 \$1;
#X obj 461 429 s message;
#X obj 461 395 - 10;
#X obj 461 344 - 50;
#X connect 0 0 12 0;
#X connect 1 0 40 0;
#X connect 2 0 37 0;
#X connect 3 0 1 0;
#X connect 6 0 7 0;
#X connect 8 0 9 0;
#X connect 8 1 9 1;
#X connect 9 0 10 0;
#X connect 10 0 50 0;
#X connect 12 0 11 0;
#X connect 13 0 29 0;
#X connect 15 0 17 0;
#X connect 17 0 16 0;
#X connect 18 0 28 0;
#X connect 19 0 27 0;
#X connect 26 0 23 0;
#X connect 27 0 25 0;
#X connect 28 0 24 0;
#X connect 29 0 14 0;
#X connect 30 0 32 0;
#X connect 32 0 31 0;
#X connect 33 0 36 0;
#X connect 36 0 34 0;
#X connect 37 0 41 0;
#X connect 38 0 42 0;
#X connect 40 0 41 0;
#X connect 41 0 39 0;
#X connect 42 0 41 0;
#X connect 43 0 26 0;
#X connect 44 0 45 1;
#X connect 45 0 46 0;
#X connect 45 0 49 0;
#X connect 47 0 48 0;
#X connect 49 0 47 0;
#X connect 50 0 44 0;
#X connect 50 0 45 0;
