#N canvas 0 3 328 646 10;
#X obj -954 -22509 cnv 15 310 660 empty empty empty 20 12 0 14 -1 -66577
0;
#X obj -946 -22501 cnv 15 80 25 empty time_can 1:46 0 12 1 24 -24198
-33289 0;
#X obj -689 -22407 vsl 30 60 0 10 0 0 empty soundvolume empty 0 -12
1 20 -162280 -1 -262144 2222 1;
#X obj -948 -22281 cnv 15 60 25 empty empty TEXT: 0 12 1 18 -1 -4034
0;
#X obj -883 -22280 cnv 15 130 25 empty texture_can High_noise 0 12
1 14 -1 -262144 0;
#X obj -946 -22249 cnv 15 60 25 empty empty PART: 0 12 1 18 -1 -4034
0;
#X obj -890 -22248 cnv 15 130 25 empty particles_can X 0 12 1 18 -1
-262144 0;
#X obj -947 -22353 cnv 15 70 25 empty empty STROKE: 0 12 1 18 -1 -4034
0;
#X obj -856 -22352 cnv 15 130 25 empty drawing_can X 0 12 1 18 -1 -262144
0;
#X obj -948 -22317 cnv 15 60 25 empty empty RADIUS: 0 12 1 18 -1 -4034
0;
#X obj -894 -22180 cnv 15 20 50 empty palette1_can empty 0 12 1 14
-245189 -262144 0;
#X obj -873 -22180 cnv 15 20 50 empty palette2_can empty 0 12 1 14
-251075 -262144 0;
#X obj -945 -22389 cnv 15 60 25 empty empty SCENE: 0 12 1 18 -1 -4034
0;
#X obj -861 -22390 cnv 15 130 25 empty setup_can letsgo 0 12 1 18 -1
-262144 0;
#X obj -946 -22424 cnv 18 140 25 empty message_can CURRENT_BG_CAPTURE
0 12 1 18 -1 -262144 0;
#X obj -756 -22501 cnv 15 100 60 empty empty empty 20 12 0 14 -233017
-66577 0;
#X obj -733 -22498 ctlin;
#X floatatom -753 -22477 5 0 0 0 - - -;
#X floatatom -722 -22477 5 0 0 0 - - -;
#X floatatom -690 -22477 5 0 0 0 - - -;
#N canvas 355 8 324 309 initial_board 0;
#N canvas 223 408 447 279 connect 0;
#X msg 26 -14 disconnect;
#X text -110 -70 OPEN UDP CONNECTION;
#X text 19 -69 CLOSE UDP CONNECTION;
#X msg -50 42 connect 127.0.0.1 1978;
#X obj 3 68 r message;
#X obj -50 -54 inlet;
#X obj 26 -52 inlet;
#X obj 150 68 r message_SC;
#X floatatom 115 145 5 0 0 0 - - -;
#X floatatom -50 153 5 0 0 0 - - -;
#X text 197 15 SUPERCOLLIDER / sclang;
#X obj 65 -37 r disconnect;
#X obj -41 14 r connect;
#X msg 115 42 connect 192.168.0.3 57120;
#X obj 130 16 r connect;
#X obj 150 96 spigot;
#X obj 3 97 spigot;
#X text 20 13 Porphyrograph;
#X obj -50 131 netsend 1;
#X obj 115 122 netsend 1;
#X obj 43 175 print;
#X connect 0 0 18 0;
#X connect 0 0 19 0;
#X connect 3 0 18 0;
#X connect 4 0 16 0;
#X connect 5 0 3 0;
#X connect 6 0 0 0;
#X connect 7 0 15 0;
#X connect 11 0 0 0;
#X connect 12 0 3 0;
#X connect 13 0 19 0;
#X connect 15 0 19 0;
#X connect 16 0 18 0;
#X connect 18 0 9 0;
#X connect 18 0 16 1;
#X connect 19 0 8 0;
#X connect 19 0 15 1;
#X coords 0 0 10 10 0 0 0;
#X restore -731 -214 pd connect;
#N canvas 85 45 1030 526 LYM_spectrum_v4 0;
#X obj 202 -254 bonk~;
#X obj 202 -224 unpack f f f f f f f f f f f;
#X floatatom 502 -25 5 0 0 0 - - -;
#X floatatom 537 -25 5 0 0 0 - - -;
#X floatatom 603 -25 5 0 0 0 - - -;
#X floatatom 639 -25 5 0 0 0 - - -;
#X floatatom 675 -25 5 0 0 0 - - -;
#X obj 559 -335 inlet;
#X obj 430 -335 inlet;
#X obj 338 -173 +;
#X obj 372 -172 +;
#X obj 372 -150 +;
#X obj 405 -151 +;
#X obj 405 -130 +;
#X obj 405 -108 +;
#X text 338 -192 Sum over 3 spectrum bands;
#X obj 338 -42 /;
#X obj 371 -42 /;
#X obj 405 -42 /;
#X obj 202 -175 +;
#X obj 202 -154 +;
#X obj 202 -133 +;
#X obj 202 -91 +;
#X obj 247 -174 +;
#X obj 247 -153 +;
#X obj 247 -111 +;
#X obj 247 -131 +;
#X obj 304 -74 +;
#X obj 247 -91 +;
#X obj 202 -42 /;
#X obj 247 -42 /;
#X obj 247 -19 * 768;
#X obj 609 -333 inlet;
#X obj 656 -333 inlet;
#X obj 247 -1 - 384;
#X obj 283 -334 loadbang;
#X msg 309 -294 minvel 0.1;
#X obj 191 -334 r startclock;
#X msg 224 -295 thresh 6 50;
#X obj 162 -294 metro 20;
#X obj 11 -333 adc~ 1 2;
#X obj 755 -115 s soundvolume;
#X obj 338 -152 +;
#X obj 202 -112 +;
#X obj 202 -20 * 768;
#X obj 202 -2 - 384;
#X text 753 -133 LOUDNESS OUTPUT;
#X text 552 -42 SPECTRUM OUTPUT;
#X obj 323 -19 s band1;
#X obj 376 -19 s band2;
#X obj 431 -20 s band3;
#X text 179 -191 Sum over 2 spectrum bands;
#X floatatom 703 -129 5 0 0 0 - - -;
#X obj 56 -288 *~ 1;
#X obj 77 -334 r input_volume;
#N canvas 209 50 1051 933 paletteInterpoaltion 0;
#X obj 378 834 / 765;
#X obj 533 823 / 765;
#X obj 696 830 / 765;
#X obj 482 859 pack f f f;
#X obj 17 124 bang;
#X msg 13 687 \; palette1_can color \$1;
#X msg 416 689 \; palette2_can color \$1;
#X msg 814 689 \; palette3_can color \$1;
#X obj 290 763 +;
#N canvas 4 105 288 291 colorRGB 0;
#X obj 16 27 inlet;
#X obj 93 28 inlet;
#X text 21 9 red;
#X text 93 11 green;
#X obj 159 107 t b f;
#X obj 93 144 +;
#X obj 93 169 t b f;
#X obj 93 200 +;
#X obj 16 84 * -65536;
#X obj 93 85 * -256;
#X obj 159 85 * -1;
#X obj 93 231 - 1;
#X obj 159 28 inlet;
#X obj 93 258 outlet;
#X text 161 11 blue;
#X obj 16 56 int;
#X obj 93 56 int;
#X obj 159 55 int;
#X connect 0 0 15 0;
#X connect 1 0 16 0;
#X connect 4 0 5 0;
#X connect 4 1 5 1;
#X connect 5 0 6 0;
#X connect 6 0 7 0;
#X connect 6 1 7 1;
#X connect 7 0 11 0;
#X connect 8 0 7 0;
#X connect 9 0 5 0;
#X connect 10 0 4 0;
#X connect 11 0 13 0;
#X connect 12 0 17 0;
#X connect 15 0 8 0;
#X connect 16 0 9 0;
#X connect 17 0 10 0;
#X restore 815 668 pd colorRGB;
#N canvas 177 329 288 291 colorRGB 0;
#X obj 16 27 inlet;
#X obj 93 28 inlet;
#X text 21 9 red;
#X text 93 11 green;
#X obj 159 107 t b f;
#X obj 93 144 +;
#X obj 93 169 t b f;
#X obj 93 200 +;
#X obj 16 84 * -65536;
#X obj 93 85 * -256;
#X obj 159 85 * -1;
#X obj 93 231 - 1;
#X obj 159 28 inlet;
#X obj 93 258 outlet;
#X text 161 11 blue;
#X obj 16 56 int;
#X obj 93 56 int;
#X obj 159 55 int;
#X connect 0 0 15 0;
#X connect 1 0 16 0;
#X connect 4 0 5 0;
#X connect 4 1 5 1;
#X connect 5 0 6 0;
#X connect 6 0 7 0;
#X connect 6 1 7 1;
#X connect 7 0 11 0;
#X connect 8 0 7 0;
#X connect 9 0 5 0;
#X connect 10 0 4 0;
#X connect 11 0 13 0;
#X connect 12 0 17 0;
#X connect 15 0 8 0;
#X connect 16 0 9 0;
#X connect 17 0 10 0;
#X restore 13 667 pd colorRGB;
#N canvas 4 105 288 291 colorRGB 0;
#X obj 16 27 inlet;
#X obj 93 28 inlet;
#X text 21 9 red;
#X text 93 11 green;
#X obj 159 107 t b f;
#X obj 93 144 +;
#X obj 93 169 t b f;
#X obj 93 200 +;
#X obj 16 84 * -65536;
#X obj 93 85 * -256;
#X obj 159 85 * -1;
#X obj 93 231 - 1;
#X obj 159 28 inlet;
#X obj 93 258 outlet;
#X text 161 11 blue;
#X obj 16 56 int;
#X obj 93 56 int;
#X obj 159 55 int;
#X connect 0 0 15 0;
#X connect 1 0 16 0;
#X connect 4 0 5 0;
#X connect 4 1 5 1;
#X connect 5 0 6 0;
#X connect 6 0 7 0;
#X connect 6 1 7 1;
#X connect 7 0 11 0;
#X connect 8 0 7 0;
#X connect 9 0 5 0;
#X connect 10 0 4 0;
#X connect 11 0 13 0;
#X connect 12 0 17 0;
#X connect 15 0 8 0;
#X connect 16 0 9 0;
#X connect 17 0 10 0;
#X restore 417 665 pd colorRGB;
#X obj 17 157 bang;
#X obj 19 190 bang;
#X obj 18 222 bang;
#X obj 16 253 bang;
#X obj 20 280 bang;
#X obj 17 307 bang;
#X obj 41 460 expr if ($f1 < 1 \, (1 - $f1) * $f2 + $f1 * $f3 \, if($f1
< 2 \, (2- $f1) * $f3 + ($f1 - 1) * $f4 \, if($f1 < 3 \, (3 - $f1)
* $f4 + ($f1 - 2) * $f5 \, if($f1 < 4 \, (4 - $f1) * $f5 + ($f1 - 3)
* $f6 \, if($f1 < 5 \, (5 - $f1) * $f6 + ($f1 - 4) * $f7 \, if($f1
< 6 \, (6 - $f1) * $f7 + ($f1 - 5) * $f8 \, (7 - $f1) * $f8 + ($f1
- 6) * $f2))))));
#X obj 13 354 expr if ($f1 < 1 \, (1 - $f1) * $f2 + $f1 * $f3 \, if($f1
< 2 \, (2- $f1) * $f3 + ($f1 - 1) * $f4 \, if($f1 < 3 \, (3 - $f1)
* $f4 + ($f1 - 2) * $f5 \, if($f1 < 4 \, (4 - $f1) * $f5 + ($f1 - 3)
* $f6 \, if($f1 < 5 \, (5 - $f1) * $f6 + ($f1 - 4) * $f7 \, if($f1
< 6 \, (6 - $f1) * $f7 + ($f1 - 5) * $f8 \, (7 - $f1) * $f8 + ($f1
- 6) * $f2))))));
#X obj 54 570 expr if ($f1 < 1 \, (1 - $f1) * $f2 + $f1 * $f3 \, if($f1
< 2 \, (2- $f1) * $f3 + ($f1 - 1) * $f4 \, if($f1 < 3 \, (3 - $f1)
* $f4 + ($f1 - 2) * $f5 \, if($f1 < 4 \, (4 - $f1) * $f5 + ($f1 - 3)
* $f6 \, if($f1 < 5 \, (5 - $f1) * $f6 + ($f1 - 4) * $f7 \, if($f1
< 6 \, (6 - $f1) * $f7 + ($f1 - 5) * $f8 \, (7 - $f1) * $f8 + ($f1
- 6) * $f2))))));
#X obj 417 353 expr if ($f1 < 1 \, (1 - $f1) * $f2 + $f1 * $f3 \, if($f1
< 2 \, (2- $f1) * $f3 + ($f1 - 1) * $f4 \, if($f1 < 3 \, (3 - $f1)
* $f4 + ($f1 - 2) * $f5 \, if($f1 < 4 \, (4 - $f1) * $f5 + ($f1 - 3)
* $f6 \, if($f1 < 5 \, (5 - $f1) * $f6 + ($f1 - 4) * $f7 \, if($f1
< 6 \, (6 - $f1) * $f7 + ($f1 - 5) * $f8 \, (7 - $f1) * $f8 + ($f1
- 6) * $f2))))));
#X obj 448 457 expr if ($f1 < 1 \, (1 - $f1) * $f2 + $f1 * $f3 \, if($f1
< 2 \, (2- $f1) * $f3 + ($f1 - 1) * $f4 \, if($f1 < 3 \, (3 - $f1)
* $f4 + ($f1 - 2) * $f5 \, if($f1 < 4 \, (4 - $f1) * $f5 + ($f1 - 3)
* $f6 \, if($f1 < 5 \, (5 - $f1) * $f6 + ($f1 - 4) * $f7 \, if($f1
< 6 \, (6 - $f1) * $f7 + ($f1 - 5) * $f8 \, (7 - $f1) * $f8 + ($f1
- 6) * $f2))))));
#X obj 457 567 expr if ($f1 < 1 \, (1 - $f1) * $f2 + $f1 * $f3 \, if($f1
< 2 \, (2- $f1) * $f3 + ($f1 - 1) * $f4 \, if($f1 < 3 \, (3 - $f1)
* $f4 + ($f1 - 2) * $f5 \, if($f1 < 4 \, (4 - $f1) * $f5 + ($f1 - 3)
* $f6 \, if($f1 < 5 \, (5 - $f1) * $f6 + ($f1 - 4) * $f7 \, if($f1
< 6 \, (6 - $f1) * $f7 + ($f1 - 5) * $f8 \, (7 - $f1) * $f8 + ($f1
- 6) * $f2))))));
#X obj 815 355 expr if ($f1 < 1 \, (1 - $f1) * $f2 + $f1 * $f3 \, if($f1
< 2 \, (2- $f1) * $f3 + ($f1 - 1) * $f4 \, if($f1 < 3 \, (3 - $f1)
* $f4 + ($f1 - 2) * $f5 \, if($f1 < 4 \, (4 - $f1) * $f5 + ($f1 - 3)
* $f6 \, if($f1 < 5 \, (5 - $f1) * $f6 + ($f1 - 4) * $f7 \, if($f1
< 6 \, (6 - $f1) * $f7 + ($f1 - 5) * $f8 \, (7 - $f1) * $f8 + ($f1
- 6) * $f2))))));
#X obj 846 460 expr if ($f1 < 1 \, (1 - $f1) * $f2 + $f1 * $f3 \, if($f1
< 2 \, (2- $f1) * $f3 + ($f1 - 1) * $f4 \, if($f1 < 3 \, (3 - $f1)
* $f4 + ($f1 - 2) * $f5 \, if($f1 < 4 \, (4 - $f1) * $f5 + ($f1 - 3)
* $f6 \, if($f1 < 5 \, (5 - $f1) * $f6 + ($f1 - 4) * $f7 \, if($f1
< 6 \, (6 - $f1) * $f7 + ($f1 - 5) * $f8 \, (7 - $f1) * $f8 + ($f1
- 6) * $f2))))));
#X obj 881 566 expr if ($f1 < 1 \, (1 - $f1) * $f2 + $f1 * $f3 \, if($f1
< 2 \, (2- $f1) * $f3 + ($f1 - 1) * $f4 \, if($f1 < 3 \, (3 - $f1)
* $f4 + ($f1 - 2) * $f5 \, if($f1 < 4 \, (4 - $f1) * $f5 + ($f1 - 3)
* $f6 \, if($f1 < 5 \, (5 - $f1) * $f6 + ($f1 - 4) * $f7 \, if($f1
< 6 \, (6 - $f1) * $f7 + ($f1 - 5) * $f8 \, (7 - $f1) * $f8 + ($f1
- 6) * $f2))))));
#X obj 586 884 spigot;
#X obj 618 99 inlet;
#X obj 586 906 outlet;
#X obj 266 739 *;
#X obj 240 716 r band1;
#X obj 327 742 *;
#X obj 398 745 *;
#X obj 321 720 r band2;
#X obj 379 721 r band3;
#X obj 346 795 +;
#X obj 592 774 +;
#X obj 568 750 *;
#X obj 636 753 *;
#X obj 700 756 *;
#X obj 648 806 +;
#X obj 801 775 +;
#X obj 777 751 *;
#X obj 845 754 *;
#X obj 909 757 *;
#X obj 857 813 +;
#X obj 545 727 r band1;
#X obj 626 731 r band2;
#X obj 684 732 r band3;
#X obj 755 729 r band1;
#X obj 836 733 r band2;
#X obj 894 734 r band3;
#X msg 95 141 247;
#X msg 128 141 93;
#X msg 163 141 57;
#X msg 395 141 205;
#X msg 429 141 42;
#X msg 460 141 23;
#X msg 786 141 232;
#X msg 822 141 91;
#X msg 855 141 107;
#X text 918 139 red grenade fruit;
#X msg 96 207 81;
#X msg 130 207 200;
#X msg 165 207 12;
#X msg 398 207 161;
#X msg 430 207 217;
#X msg 463 207 45;
#X msg 789 207 249;
#X msg 825 207 160;
#X msg 859 207 32;
#X text 916 208 green leaves;
#X msg 786 324 4;
#X msg 821 324 134;
#X msg 855 324 132;
#X text 920 323 blue abyss;
#X text 914 173 sun;
#X msg 788 174 222;
#X msg 823 174 80;
#X msg 857 174 103;
#X msg 394 324 87;
#X msg 428 324 66;
#X msg 459 324 167;
#X msg 162 324 159;
#X msg 127 324 37;
#X msg 94 324 21;
#X msg 94 174 237;
#X msg 128 174 222;
#X msg 164 174 16;
#X msg 397 174 247;
#X msg 430 174 78;
#X msg 462 174 9;
#X text 915 238 purples;
#X msg 96 239 200;
#X msg 132 239 51;
#X msg 163 239 255;
#X msg 396 239 98;
#X msg 429 239 17;
#X msg 461 239 209;
#X msg 787 239 183;
#X msg 821 239 47;
#X msg 858 239 66;
#X text 917 270 oranges;
#X msg 93 270 255;
#X msg 127 270 85;
#X msg 161 270 33;
#X msg 394 270 255;
#X msg 427 270 52;
#X msg 459 270 19;
#X msg 785 270 218;
#X msg 820 270 0;
#X msg 855 270 77;
#X text 918 297 greens;
#X msg 91 297 11;
#X msg 127 297 255;
#X msg 165 297 123;
#X msg 392 297 0;
#X msg 425 297 176;
#X msg 456 297 119;
#X msg 783 297 64;
#X msg 818 297 218;
#X msg 853 297 255;
#X obj 85 49 + 0;
#X obj 85 99 +;
#X obj 85 74 expr if($f1 >= 8 \, $f1 - 8 \, $f1 );
#X obj 85 20 r RGBpalette;
#X floatatom 236 49 5 0 0 0 - - -;
#X obj 184 20 r RGBpalette_hue_vol;
#X connect 0 0 3 0;
#X connect 1 0 3 1;
#X connect 2 0 3 2;
#X connect 3 0 27 0;
#X connect 4 0 54 0;
#X connect 4 0 55 0;
#X connect 4 0 56 0;
#X connect 4 0 57 0;
#X connect 4 0 58 0;
#X connect 4 0 59 0;
#X connect 4 0 60 0;
#X connect 4 0 61 0;
#X connect 4 0 53 0;
#X connect 8 0 36 0;
#X connect 9 0 7 0;
#X connect 10 0 5 0;
#X connect 11 0 6 0;
#X connect 12 0 90 0;
#X connect 12 0 92 0;
#X connect 12 0 78 0;
#X connect 12 0 79 0;
#X connect 12 0 80 0;
#X connect 12 0 87 0;
#X connect 12 0 89 0;
#X connect 12 0 88 0;
#X connect 12 0 91 0;
#X connect 13 0 64 0;
#X connect 13 0 65 0;
#X connect 13 0 66 0;
#X connect 13 0 67 0;
#X connect 13 0 68 0;
#X connect 13 0 69 0;
#X connect 13 0 70 0;
#X connect 13 0 71 0;
#X connect 13 0 63 0;
#X connect 14 0 95 0;
#X connect 14 0 96 0;
#X connect 14 0 97 0;
#X connect 14 0 98 0;
#X connect 14 0 99 0;
#X connect 14 0 100 0;
#X connect 14 0 101 0;
#X connect 14 0 102 0;
#X connect 14 0 94 0;
#X connect 15 0 105 0;
#X connect 15 0 106 0;
#X connect 15 0 107 0;
#X connect 15 0 108 0;
#X connect 15 0 109 0;
#X connect 15 0 110 0;
#X connect 15 0 111 0;
#X connect 15 0 112 0;
#X connect 15 0 104 0;
#X connect 16 0 115 0;
#X connect 16 0 117 0;
#X connect 16 0 118 0;
#X connect 16 0 119 0;
#X connect 16 0 120 0;
#X connect 16 0 121 0;
#X connect 16 0 122 0;
#X connect 16 0 114 0;
#X connect 16 0 116 0;
#X connect 17 0 85 0;
#X connect 17 0 84 0;
#X connect 17 0 81 0;
#X connect 17 0 82 0;
#X connect 17 0 83 0;
#X connect 17 0 73 0;
#X connect 17 0 74 0;
#X connect 17 0 86 0;
#X connect 17 0 75 0;
#X connect 18 0 10 1;
#X connect 18 0 38 1;
#X connect 19 0 10 0;
#X connect 19 0 30 1;
#X connect 20 0 10 2;
#X connect 20 0 43 1;
#X connect 21 0 11 0;
#X connect 21 0 32 1;
#X connect 22 0 11 1;
#X connect 22 0 39 1;
#X connect 23 0 11 2;
#X connect 23 0 44 1;
#X connect 24 0 9 0;
#X connect 24 0 33 1;
#X connect 25 0 9 1;
#X connect 25 0 40 1;
#X connect 26 0 9 2;
#X connect 26 0 45 1;
#X connect 27 0 29 0;
#X connect 28 0 27 1;
#X connect 30 0 8 0;
#X connect 31 0 30 0;
#X connect 32 0 8 1;
#X connect 33 0 36 1;
#X connect 34 0 32 0;
#X connect 35 0 33 0;
#X connect 36 0 0 0;
#X connect 37 0 41 0;
#X connect 38 0 37 0;
#X connect 39 0 37 1;
#X connect 40 0 41 1;
#X connect 41 0 1 0;
#X connect 42 0 46 0;
#X connect 43 0 42 0;
#X connect 44 0 42 1;
#X connect 45 0 46 1;
#X connect 46 0 2 0;
#X connect 47 0 38 0;
#X connect 48 0 39 0;
#X connect 49 0 40 0;
#X connect 50 0 43 0;
#X connect 51 0 44 0;
#X connect 52 0 45 0;
#X connect 53 0 19 1;
#X connect 54 0 18 1;
#X connect 55 0 20 1;
#X connect 56 0 21 1;
#X connect 57 0 22 1;
#X connect 58 0 23 1;
#X connect 59 0 24 1;
#X connect 60 0 25 1;
#X connect 61 0 26 1;
#X connect 63 0 19 3;
#X connect 64 0 18 3;
#X connect 65 0 20 3;
#X connect 66 0 21 3;
#X connect 67 0 22 3;
#X connect 68 0 23 3;
#X connect 69 0 24 3;
#X connect 70 0 25 3;
#X connect 71 0 26 3;
#X connect 73 0 24 7;
#X connect 74 0 25 7;
#X connect 75 0 26 7;
#X connect 78 0 24 2;
#X connect 79 0 25 2;
#X connect 80 0 26 2;
#X connect 81 0 21 7;
#X connect 82 0 22 7;
#X connect 83 0 23 7;
#X connect 84 0 20 7;
#X connect 85 0 18 7;
#X connect 86 0 19 7;
#X connect 87 0 19 2;
#X connect 88 0 18 2;
#X connect 89 0 20 2;
#X connect 90 0 21 2;
#X connect 91 0 22 2;
#X connect 92 0 23 2;
#X connect 94 0 19 4;
#X connect 95 0 18 4;
#X connect 96 0 20 4;
#X connect 97 0 21 4;
#X connect 98 0 22 4;
#X connect 99 0 23 4;
#X connect 100 0 24 4;
#X connect 101 0 25 4;
#X connect 102 0 26 4;
#X connect 104 0 19 5;
#X connect 105 0 18 5;
#X connect 106 0 20 5;
#X connect 107 0 21 5;
#X connect 108 0 22 5;
#X connect 109 0 23 5;
#X connect 110 0 24 5;
#X connect 111 0 25 5;
#X connect 112 0 26 5;
#X connect 114 0 19 6;
#X connect 115 0 18 6;
#X connect 116 0 20 6;
#X connect 117 0 21 6;
#X connect 118 0 22 6;
#X connect 119 0 23 6;
#X connect 120 0 24 6;
#X connect 121 0 25 6;
#X connect 122 0 26 6;
#X connect 123 0 125 0;
#X connect 124 0 18 0;
#X connect 124 0 19 0;
#X connect 124 0 20 0;
#X connect 124 0 21 0;
#X connect 124 0 22 0;
#X connect 124 0 23 0;
#X connect 124 0 24 0;
#X connect 124 0 25 0;
#X connect 124 0 26 0;
#X connect 124 0 4 0;
#X connect 124 0 12 0;
#X connect 124 0 13 0;
#X connect 124 0 14 0;
#X connect 124 0 15 0;
#X connect 124 0 16 0;
#X connect 124 0 17 0;
#X connect 125 0 124 0;
#X connect 126 0 123 0;
#X connect 128 0 123 1;
#X connect 128 0 127 0;
#X restore 559 23 pd paletteInterpoaltion;
#X obj 559 61 s message;
#X obj 405 -172 +;
#X floatatom 100 -206 5 0 0 0 - - -;
#X obj 703 -207 + 0;
#X obj 781 -333 inlet;
#X obj 748 79 spigot;
#X obj 748 99 * 0;
#X msg 560 44 send /RGBspectrum \$1 \$2 \$3;
#X obj 764 10 r RGBpalette_hue_coef;
#X obj 748 121 s RGBpalette_hue_vol;
#X connect 0 0 1 0;
#X connect 1 0 9 0;
#X connect 1 0 19 0;
#X connect 1 1 9 1;
#X connect 1 1 19 1;
#X connect 1 2 20 1;
#X connect 1 2 42 1;
#X connect 1 3 21 1;
#X connect 1 3 10 0;
#X connect 1 4 43 1;
#X connect 1 4 10 1;
#X connect 1 5 23 0;
#X connect 1 5 22 1;
#X connect 1 5 11 1;
#X connect 1 5 59 0;
#X connect 1 6 23 1;
#X connect 1 6 57 0;
#X connect 1 7 24 1;
#X connect 1 7 57 1;
#X connect 1 8 26 1;
#X connect 1 8 12 1;
#X connect 1 9 13 1;
#X connect 1 9 25 1;
#X connect 1 10 14 1;
#X connect 1 10 28 1;
#X connect 7 0 55 0;
#X connect 9 0 42 0;
#X connect 10 0 11 0;
#X connect 11 0 17 0;
#X connect 12 0 13 0;
#X connect 13 0 14 0;
#X connect 14 0 18 0;
#X connect 16 0 4 0;
#X connect 16 0 48 0;
#X connect 17 0 5 0;
#X connect 17 0 49 0;
#X connect 18 0 6 0;
#X connect 18 0 50 0;
#X connect 19 0 20 0;
#X connect 20 0 21 0;
#X connect 21 0 43 0;
#X connect 22 0 29 0;
#X connect 22 0 27 0;
#X connect 23 0 24 0;
#X connect 24 0 26 0;
#X connect 25 0 28 0;
#X connect 26 0 25 0;
#X connect 27 0 30 1;
#X connect 27 0 29 1;
#X connect 27 0 16 1;
#X connect 27 0 17 1;
#X connect 27 0 18 1;
#X connect 28 0 30 0;
#X connect 28 0 27 1;
#X connect 29 0 44 0;
#X connect 29 0 2 0;
#X connect 30 0 31 0;
#X connect 30 0 3 0;
#X connect 31 0 34 0;
#X connect 35 0 38 0;
#X connect 35 0 39 0;
#X connect 35 0 36 0;
#X connect 36 0 0 0;
#X connect 37 0 38 0;
#X connect 37 0 39 0;
#X connect 37 0 36 0;
#X connect 38 0 0 0;
#X connect 39 0 0 0;
#X connect 40 0 53 0;
#X connect 40 1 53 0;
#X connect 42 0 16 0;
#X connect 43 0 22 0;
#X connect 44 0 45 0;
#X connect 53 0 0 0;
#X connect 54 0 53 1;
#X connect 54 0 58 0;
#X connect 55 0 63 0;
#X connect 57 0 12 0;
#X connect 59 0 41 0;
#X connect 59 0 52 0;
#X connect 59 0 61 0;
#X connect 60 0 61 1;
#X connect 61 0 62 0;
#X connect 62 0 65 0;
#X connect 63 0 56 0;
#X connect 64 0 62 1;
#X restore -730 22 pd LYM_spectrum_v4;
#X obj -730 -55 tgl 15 0 empty empty empty 17 7 0 10 -262144 -1 -1
0 1;
#X obj -730 -40 tgl 15 0 empty empty empty 17 7 0 10 -262144 -1 -1
1 1;
#X obj -729 -25 tgl 15 0 empty empty empty 17 7 0 10 -262144 -1 -1
0 1;
#X obj -730 -10 tgl 15 0 empty empty empty 17 7 0 10 -262144 -1 -1
0 1;
#X text -728 -122 music control;
#X obj -731 -231 bng 15 250 50 0 empty empty empty 0 -6 0 8 -24198
-1 -1;
#X obj -674 -231 bng 15 250 50 0 empty empty empty 0 -6 0 8 -258699
-1 -1;
#X obj -731 -249 loadbang;
#X text -735 -266 UDP connection;
#X text -710 -55 1: xy-spectrum;
#X obj -730 -88 bng 15 250 50 0 empty empty empty 17 7 0 10 -262144
-1 -1;
#X obj -730 -105 loadbang;
#X msg -700 -73 1;
#X text -630 -265 AUDIO ON;
#X obj -628 -248 loadbang;
#X msg -628 -232 \; pd dsp 1;
#X text -561 -37 USB Controller;
#X obj -560 -247 bng 15 250 50 0 empty empty empty 17 7 0 10 -4034
-1 -1;
#X obj -561 -212 bng 15 250 50 0 empty empty empty 17 7 0 10 -258113
-1 -1;
#X obj -546 -212 s stopsoundtrack;
#X text -554 -230 STOP SOUNDTRACK;
#X text -559 -265 START SOUNDTRACK;
#X obj -545 -247 s startsoundtrack;
#X text -711 -24 3: brush radius;
#X text -711 -9 4: particle accel.;
#X obj -651 -147 s connect;
#X obj -729 -146 s disconnect;
#X obj -729 -188 bng 15 250 50 0 empty empty empty 0 -6 0 8 -24198
-1 -1;
#X text -707 -189 Manual connection;
#X text -562 -85 OSC input messages;
#X obj -729 -166 delay 3000;
#X obj -651 -166 delay 3050;
#X msg -730 -73 0;
#N canvas 341 83 853 544 dumpMessages 0;
#X text -614 -5195 OSC message processing;
#X obj -613 -4896 s startclock;
#X obj -600 -4851 s restart;
#X obj -574 -4744 s message;
#X obj -574 -4777 pack s;
#X msg -574 -4761 send /return_message \$1;
#N canvas 261 45 831 484 environmentMessageDisplay 0;
#X obj 57 -94 inlet;
#X obj 216 -92 inlet;
#X msg 216 -7 \; drawing_can label X;
#X msg 217 31 \; drawing_can label Line;
#X obj 216 -33 route 0 1 2 3;
#X obj 246 169 route 0 1 2;
#X msg 223 197 \; particles_can label X;
#X obj 271 -91 inlet;
#X msg 331 -56 \; radius_can label \$1;
#X msg 350 10 \; message_can label \$1;
#X obj 352 -8 pack s;
#X obj 331 -94 inlet;
#X obj 384 -94 inlet;
#X msg 221 73 \; drawing_can label Dots;
#X msg 223 117 \; drawing_can label Bezier;
#X obj 459 -97 inlet;
#X obj 459 -75 s echo;
#X obj 505 -98 inlet;
#X obj 505 -75 s echoNeg;
#X obj 555 -96 inlet;
#X obj 636 -98 inlet;
#X obj 474 -51 pack s;
#X msg 484 138 \; time_can color 13 12;
#X obj 484 110 route 0 1 2 3;
#X msg 483 260 \; time_can color 16 12;
#X msg 485 178 \; time_can color 14 12;
#X msg 483 218 \; time_can color 15 12;
#X msg 474 -30 \; time_can label \$1;
#X obj 680 -95 inlet;
#X obj 734 -95 inlet;
#X obj 639 1 s input_volume;
#X obj 776 -100 inlet;
#X obj 636 39 route 1 0;
#X msg 636 68 \; invert_can color 13 12;
#X msg 637 103 \; invert_can color 16 12;
#X msg 30 -18 \; texture_can label Circle;
#X msg 29 23 \; texture_can label Band;
#X msg 28 66 \; texture_can label Low_noise;
#X msg 30 106 \; texture_can label Med_noise;
#X msg 32 144 \; texture_can label High_noise;
#X msg 33 178 \; texture_can label Worms;
#X msg 32 214 \; texture_can label RandNoise;
#X obj 53 -60 route 0 1 2 3 4 5 6 7;
#X msg 31 249 \; texture_can label Circle;
#X obj 71 323 expr if ($f1 < 0.5 \, 0 \, if($f1 < 1.5 \, 1 \, if($f1
< 2.5 \, 2 \, if($f1 < 3.5 \, 3 \, if($f1 < 4.5 \, 4 \, if($f1 < 5.5
\, 5 \, if($f1 < 6.5 \, 6 \, 7)))))));
#X msg 639 -41 \; tabletPressure_can label \$1;
#X obj 640 -67 makefilename %.0f;
#X obj 331 -73 makefilename %.0f;
#X msg 224 235 \; particles_can label P;
#X msg 223 280 \; particles_can label F;
#X obj 464 29 pack s;
#X obj 599 -96 inlet;
#X msg 464 50 \; cumulated_time_can label \$1;
#X connect 0 0 44 0;
#X connect 1 0 4 0;
#X connect 4 0 2 0;
#X connect 4 1 3 0;
#X connect 4 2 13 0;
#X connect 4 3 14 0;
#X connect 5 0 6 0;
#X connect 5 1 48 0;
#X connect 5 2 49 0;
#X connect 7 0 5 0;
#X connect 10 0 9 0;
#X connect 11 0 47 0;
#X connect 12 0 10 0;
#X connect 15 0 16 0;
#X connect 17 0 18 0;
#X connect 19 0 21 0;
#X connect 20 0 23 0;
#X connect 21 0 27 0;
#X connect 23 0 22 0;
#X connect 23 1 25 0;
#X connect 23 2 26 0;
#X connect 23 3 24 0;
#X connect 28 0 46 0;
#X connect 29 0 30 0;
#X connect 31 0 32 0;
#X connect 32 0 33 0;
#X connect 32 1 34 0;
#X connect 42 0 35 0;
#X connect 42 1 36 0;
#X connect 42 2 37 0;
#X connect 42 3 38 0;
#X connect 42 4 39 0;
#X connect 42 5 40 0;
#X connect 42 6 41 0;
#X connect 42 7 43 0;
#X connect 44 0 42 0;
#X connect 46 0 45 0;
#X connect 47 0 8 0;
#X connect 50 0 52 0;
#X connect 51 0 50 0;
#X restore -57 -4961 pd environmentMessageDisplay;
#X msg -590 -4811 \; setup_can label \$1;
#X obj -590 -4829 pack s;
#X obj -329 -4977 s connect;
#X obj -613 -5178 netreceive 1979 1;
#X text -452 -5194 and processing messages from Porphyrograph;
#X obj -307 -5067 print dump;
#N canvas 177 98 1101 483 flashAndLoopMessageDisplay 0;
#X obj -1002 -5808 makefilename %.0f;
#X obj -566 -5797 makefilename %.0f;
#X obj -1002 -5835 inlet;
#X obj -566 -5841 inlet;
#X obj -567 -5565 makefilename %.0f;
#X msg -567 -5548 \; loop_beat_can label \$1;
#X obj -325 -5791 makefilename %.0f;
#X obj -324 -5732 makefilename %.0f;
#X msg -324 -5715 \; flashPart_duration_can label \$1;
#X msg -325 -5774 \; flashTrack0_number_can label \$1;
#X obj -410 -5849 inlet;
#X obj -325 -5853 inlet;
#X obj -273 -5853 inlet;
#X msg -563 -5780 \; flashBack_freq_can label \$1;
#X obj -180 -5854 inlet;
#X msg -317 -5643 \; auto_beat_can label \$1;
#X obj -317 -5660 makefilename %d;
#X obj -793 -5844 inlet;
#X obj -804 -5754 makefilename %d;
#X obj -806 -5698 makefilename %d;
#X obj -793 -5797 route 1 2;
#X msg -804 -5736 \; flashTrack0_freq_1_can label \$1;
#X msg -806 -5681 \; flashTrack0_freq_2_can label \$1;
#X msg -876 -5565 \; flashTrack0_freq_1_can color 17 12;
#X msg -876 -5529 \; flashTrack0_freq_1_can color 13 12;
#X msg -877 -5466 \; flashTrack0_freq_2_can color 17 12;
#X msg -878 -5430 \; flashTrack0_freq_2_can color 13 12;
#X msg -1016 -5711 \; flashPart_freq_can color 17 12;
#X msg -1016 -5669 \; flashPart_freq_can color 13 12;
#X msg -564 -5695 \; flashBack_freq_can color 17 12;
#X msg -563 -5660 \; flashBack_freq_can color 13 12;
#X msg -1003 -5791 \; flashPart_freq_can label \$1;
#X obj -566 -5726 route 0;
#X obj -875 -5589 route 0;
#X obj -877 -5491 route 0;
#X obj -1002 -5739 route 0;
#X obj -103 -5852 inlet;
#X obj -317 -5597 makefilename %.2f;
#X msg -317 -5580 \; beat_duration_can label \$1;
#X connect 0 0 31 0;
#X connect 1 0 13 0;
#X connect 2 0 0 0;
#X connect 2 0 35 0;
#X connect 3 0 1 0;
#X connect 3 0 32 0;
#X connect 4 0 5 0;
#X connect 6 0 9 0;
#X connect 7 0 8 0;
#X connect 10 0 4 0;
#X connect 11 0 6 0;
#X connect 12 0 7 0;
#X connect 14 0 16 0;
#X connect 16 0 15 0;
#X connect 17 0 20 0;
#X connect 18 0 21 0;
#X connect 19 0 22 0;
#X connect 20 0 18 0;
#X connect 20 0 33 0;
#X connect 20 1 19 0;
#X connect 20 1 34 0;
#X connect 32 0 29 0;
#X connect 32 1 30 0;
#X connect 33 0 23 0;
#X connect 33 1 24 0;
#X connect 34 0 25 0;
#X connect 34 1 26 0;
#X connect 35 0 27 0;
#X connect 35 1 28 0;
#X connect 36 0 37 0;
#X connect 37 0 38 0;
#X restore -65 -5097 pd flashAndLoopMessageDisplay;
#X msg -511 -4883 \; part_acc_factor_can label \$1;
#N canvas 371 65 1278 911 trackMessageDisplay 0;
#X obj 393 -318 inlet;
#X obj 184 -312 inlet;
#X obj 47 -310 inlet;
#X obj 394 -261 route 0 1;
#X obj 583 -267 route 0 1;
#X obj 392 -146 route 0 1;
#X obj 193 123 route 0 1;
#X obj 199 236 route 0 1;
#X obj 201 353 route 0 1;
#X obj 172 -224 route 1 0;
#X obj 234 -223 route 1 0;
#X obj 295 -223 route 1 0;
#X msg 9 76 \; track1decay color 13 16;
#X msg 5 -34 \; track2decay color 13 16;
#X msg 5 -72 \; track1decay color 11 16;
#X msg 9 114 \; track2decay color 11 16;
#X msg 10 -223 \; track1decay color 11 16;
#X msg 11 -185 \; track2decay color 11 16;
#X msg 5 226 \; track1decay color 11 16;
#X msg 5 264 \; track2decay color 11 16;
#X msg 10 41 \; track0decay color 11 16;
#X msg 12 -258 \; track0decay color 13 16;
#X msg 6 -107 \; track0decay color 11 16;
#X msg 6 191 \; track0decay color 11 16;
#X obj 229 89 route 0 1 2;
#X obj 184 -265 route 0 1 2;
#X obj 47 -289 route 0 1 2;
#X obj 391 -291 route 0 1 2;
#N canvas 4 135 288 272 colorRGB 0;
#X obj 16 27 inlet;
#X obj 93 28 inlet;
#X text 21 9 red;
#X text 93 11 green;
#X obj 159 75 t b f;
#X obj 93 112 +;
#X obj 93 137 t b f;
#X obj 93 168 +;
#X obj 16 52 * -65536;
#X obj 93 53 * -256;
#X obj 159 53 * -1;
#X obj 93 199 - 1;
#X obj 159 28 inlet;
#X obj 93 226 outlet;
#X text 161 11 blue;
#X connect 0 0 8 0;
#X connect 1 0 9 0;
#X connect 4 0 5 0;
#X connect 4 1 5 1;
#X connect 5 0 6 0;
#X connect 6 0 7 0;
#X connect 6 1 7 1;
#X connect 7 0 11 0;
#X connect 8 0 7 0;
#X connect 9 0 5 0;
#X connect 10 0 4 0;
#X connect 11 0 13 0;
#X connect 12 0 10 0;
#X restore 783 -157 pd colorRGB;
#X msg 783 -140 \; color_can color \$1;
#X obj 783 -224 * 255;
#X obj 783 -192 int;
#X obj 783 -309 inlet;
#X msg 783 -262 \; gray_can label \$1;
#X obj 783 -279 makefilename G_%.2f;
#X obj 408 -16 route 0 1;
#X obj 597 -22 route 0 1;
#X obj 596 -147 route 0 1;
#X msg 388 -233 \; track0replay_can color 17 12;
#X msg 395 -187 \; track0replay_can color 13 12;
#X msg 386 -118 \; track2replay_can color 17 12;
#X msg 393 -72 \; track2replay_can color 13 12;
#X msg 598 52 \; track1replay_can label Ps;
#X msg 591 6 \; track1replay_can label _;
#X msg 597 -72 \; track2replay_can label Ps;
#X msg 590 -120 \; track2replay_can label _;
#X msg 584 -193 \; track1replay_can color 13 12;
#X msg 577 -239 \; track1replay_can color 17 12;
#X msg 187 151 \; source_track_record_0_can color 17 12;
#X msg 200 310 \; source_track_record_1_can color 13 12;
#X msg 193 264 \; source_track_record_1_can color 17 12;
#X msg 195 381 \; source_track_record_2_can color 17 12;
#X msg 202 427 \; source_track_record_2_can color 13 12;
#X msg 167 -169 \; source_track_record_0_can label s;
#X msg 171 -131 \; source_track_record_1_can label s;
#X msg 174 -89 \; source_track_record_2_can label s;
#X msg 175 -43 \; source_track_record_0_can label _;
#X msg 177 -3 \; source_track_record_1_can label _;
#X msg 179 40 \; source_track_record_2_can label _;
#X msg 195 197 \; source_track_record_0_can color 13 12;
#X obj 681 -310 inlet;
#X msg 401 12 \; track1replay_can label _;
#X msg 405 52 \; track1replay_can label Ps;
#X obj 495 104 route 0 1 2;
#X msg 451 218 \; track0video_can color 17 12;
#X msg 457 264 \; track0video_can color 13 12;
#X msg 646 216 \; track1video_can color 17 12;
#X msg 653 262 \; track1video_can color 13 12;
#X obj 735 -309 inlet;
#X obj 462 350 route 0 1;
#X msg 456 378 \; is_VideoOn_can color 17 12;
#X msg 638 376 \; is_VideoOn_can color 13 12;
#X msg 640 410 \; is_VideoOn_can label +;
#X msg 457 413 \; is_VideoOn_can label -;
#X obj 904 -313 inlet;
#X msg 761 88 \; initialBGSubtr_can color 17 12;
#X msg 770 132 \; initialBGSubtr_can color 13 12;
#X msg 1000 84 \; currentBGSubtr_can color 17 12;
#X msg 1005 130 \; currentBGSubtr_can color 13 12;
#X obj 911 -249 makefilename %.1f;
#X msg 910 -231 \; repopulatingBG_can label \$1;
#X msg 908 -199 \; repopulatingBG_can color 17 12;
#X msg 906 -170 \; repopulatingBG_can color 13 12;
#X obj 964 -273 route 0;
#X obj 1004 -316 inlet;
#X obj 849 -28 route 0 1 2;
#X obj 920 -125 makefilename %.1f;
#X obj 1054 -318 inlet;
#X msg 919 -107 \; radiusParticle_can label \$1;
#X connect 0 0 27 0;
#X connect 1 0 24 0;
#X connect 1 0 25 0;
#X connect 2 0 26 0;
#X connect 3 0 38 0;
#X connect 3 1 39 0;
#X connect 4 0 47 0;
#X connect 4 1 46 0;
#X connect 5 0 40 0;
#X connect 5 1 41 0;
#X connect 6 0 48 0;
#X connect 6 1 59 0;
#X connect 7 0 50 0;
#X connect 7 1 49 0;
#X connect 8 0 51 0;
#X connect 8 1 52 0;
#X connect 9 0 53 0;
#X connect 9 1 56 0;
#X connect 10 0 54 0;
#X connect 10 1 57 0;
#X connect 11 0 55 0;
#X connect 11 1 58 0;
#X connect 24 0 6 0;
#X connect 24 1 7 0;
#X connect 24 2 8 0;
#X connect 25 0 9 0;
#X connect 25 1 10 0;
#X connect 25 2 11 0;
#X connect 26 0 21 0;
#X connect 26 0 16 0;
#X connect 26 1 12 0;
#X connect 26 1 20 0;
#X connect 26 2 22 0;
#X connect 26 2 14 0;
#X connect 26 3 23 0;
#X connect 26 3 18 0;
#X connect 27 0 3 0;
#X connect 27 0 35 0;
#X connect 27 1 4 0;
#X connect 27 1 36 0;
#X connect 27 2 5 0;
#X connect 27 2 37 0;
#X connect 28 0 29 0;
#X connect 30 0 31 0;
#X connect 31 0 28 0;
#X connect 31 0 28 1;
#X connect 31 0 28 2;
#X connect 32 0 34 0;
#X connect 32 0 30 0;
#X connect 34 0 33 0;
#X connect 35 0 61 0;
#X connect 35 1 62 0;
#X connect 36 0 43 0;
#X connect 36 1 42 0;
#X connect 37 0 45 0;
#X connect 37 1 44 0;
#X connect 60 0 63 0;
#X connect 63 0 65 0;
#X connect 63 0 66 0;
#X connect 63 1 64 0;
#X connect 63 1 67 0;
#X connect 63 2 64 0;
#X connect 63 2 66 0;
#X connect 68 0 69 0;
#X connect 69 0 70 0;
#X connect 69 0 73 0;
#X connect 69 1 71 0;
#X connect 69 1 72 0;
#X connect 74 0 85 0;
#X connect 79 0 80 0;
#X connect 83 0 81 0;
#X connect 83 1 82 0;
#X connect 84 0 79 0;
#X connect 84 0 83 0;
#X connect 85 0 75 0;
#X connect 85 0 77 0;
#X connect 85 1 76 0;
#X connect 85 1 77 0;
#X connect 85 2 75 0;
#X connect 85 2 78 0;
#X connect 86 0 88 0;
#X connect 87 0 86 0;
#X restore -31 -4855 pd trackMessageDisplay;
#X obj -421 -4783 makefilename %.2f;
#X msg -421 -4766 \; videoThreshold label \$1;
#N canvas 127 29 812 532 trackDecayAndWeightMessages 0;
#X msg -851 188 \; track2decay_sign_can label +;
#X msg -845 232 \; track2decay_sign_can label -;
#X msg -657 187 \; track2decay_sign_can color 13 12;
#X msg -650 233 \; track2decay_sign_can color 17 12;
#X msg -852 68 \; track1decay_sign_can label +;
#X msg -846 110 \; track1decay_sign_can label -;
#X msg -658 65 \; track1decay_sign_can color 13 12;
#X msg -651 111 \; track1decay_sign_can color 17 12;
#X obj -438 -137 pack f;
#X obj -440 -96 pack f;
#X obj -439 -53 pack f;
#X obj -439 -75 s track1decay;
#X obj -438 -32 s track2decay;
#X obj -438 -251 inlet;
#X msg -855 -139 \; track0decay_sign_can label +;
#X msg -849 -95 \; track0decay_sign_can label -;
#X msg -816 -48 \; track0decay_sign_can color 13 12;
#X msg -801 1 \; track0decay_sign_can color 17 12;
#X obj -438 -119 s track0decay;
#X obj -702 -245 inlet;
#X obj -444 35 pack f;
#X obj -446 76 pack f;
#X obj -445 119 pack f;
#X obj -342 -250 inlet;
#X obj -701 -220 route 0 1 2;
#X obj -439 -220 route 0 1 2;
#X obj -341 -221 route 0 1 2;
#X obj -832 -181 route -1 1;
#X obj -827 48 route -1 1;
#X obj -827 157 route -1 1;
#X obj -247 -178 pack f;
#X obj -249 -137 pack f;
#X obj -248 -94 pack f;
#X obj -248 -253 inlet;
#X obj -247 -224 route 0 1 2;
#X obj -444 53 s trackCompositionWeight_0;
#X obj -445 97 s trackCompositionWeight_1;
#X obj -446 140 s trackCompositionWeight_2;
#X obj -247 -160 s trackFinalWeight_0;
#X obj -248 -116 s trackFinalWeight_1;
#X obj -249 -73 s trackFinalWeight_2;
#X obj -247 -46 makefilename %.2f;
#X obj -191 -254 inlet;
#X msg -247 -29 \; images_weights_rand label \$1;
#X obj -248 16 makefilename %.2f;
#X obj -145 -254 inlet;
#X msg -248 33 \; sample_swap_freq label \$1;
#X obj -245 73 makefilename %.2f;
#X msg -245 90 \; maskJitterAmpl_can label \$1;
#X obj -100 -254 inlet;
#X connect 8 0 18 0;
#X connect 9 0 11 0;
#X connect 10 0 12 0;
#X connect 13 0 25 0;
#X connect 19 0 24 0;
#X connect 20 0 35 0;
#X connect 21 0 36 0;
#X connect 22 0 37 0;
#X connect 23 0 26 0;
#X connect 24 0 27 0;
#X connect 24 1 28 0;
#X connect 24 2 29 0;
#X connect 25 0 8 0;
#X connect 25 1 9 0;
#X connect 25 2 10 0;
#X connect 26 0 20 0;
#X connect 26 1 21 0;
#X connect 26 2 22 0;
#X connect 27 0 14 0;
#X connect 27 0 16 0;
#X connect 27 1 15 0;
#X connect 27 1 17 0;
#X connect 28 0 4 0;
#X connect 28 0 6 0;
#X connect 28 1 5 0;
#X connect 28 1 7 0;
#X connect 29 0 0 0;
#X connect 29 0 2 0;
#X connect 29 1 1 0;
#X connect 29 1 3 0;
#X connect 30 0 38 0;
#X connect 31 0 39 0;
#X connect 32 0 40 0;
#X connect 33 0 34 0;
#X connect 34 0 30 0;
#X connect 34 1 31 0;
#X connect 34 2 32 0;
#X connect 41 0 43 0;
#X connect 42 0 41 0;
#X connect 44 0 46 0;
#X connect 45 0 44 0;
#X connect 47 0 48 0;
#X connect 49 0 47 0;
#X restore -58 -4715 pd trackDecayAndWeightMessages;
#X obj -607 -4874 s RGBpalette;
#X msg -448 -4819 \; RGBpalette_val_coef_can label \$1;
#X obj -449 -4836 makefilename %.1f;
#X obj -511 -4900 makefilename %.2f;
#X obj -163 -5170 route /flashPart_freq_can /flashTrack0_freq_can /flashBack_freq_can
/loop_beat_can /flashTrack0_number_can /flashPart_duration_can /auto_beat_can
/beat_duration_can;
#X obj -316 -4878 makefilename %.2f;
#X msg -315 -4861 \; videoGamma label \$1;
#X obj -138 -4943 route /currentDrawingTrack_can /source_track_record_can
/track_replay_can /currentVideoTrack_can /is_videoOn_can /local_color_r_can
/BGSubtr_can /repopulatingBG_can /radiusParticle_can;
#X obj -149 -5070 route /particle_texture_ID_can /drawing_can /particleMode_can
/brushRadius_can /message_can /echo_can /echoNeg_can /time_can /cumulated_time_can
/time_color_can /brush_radius_pressure_coef_can /input_volume_can /invertAllLayers_can
;
#X obj -114 -4829 route /trackdecay_sign_can /trackdecay_can /trackCompositionWeight_can
/trackFinalWeight_can /images_weights_rand_can /sample_swap_freq_can
/maskJitterAmpl_can;
#X obj -608 -5155 route /launch /RGBpalette_can /restart /setup_can
/return_message /part_acc_factor_can /RGBpalette_val_coef_can /videoThreshold_can
/videoGamma_can /RGBpalette_hue_coef_can;
#X msg -392 -4925 \; RGBpalette_hue_coef_can label \$1;
#X obj -392 -4944 makefilename %.2f;
#X connect 4 0 5 0;
#X connect 5 0 3 0;
#X connect 8 0 7 0;
#X connect 10 0 29 0;
#X connect 16 0 17 0;
#X connect 21 0 20 0;
#X connect 22 0 14 0;
#X connect 23 0 13 0;
#X connect 23 1 13 1;
#X connect 23 2 13 2;
#X connect 23 3 13 3;
#X connect 23 4 13 4;
#X connect 23 5 13 5;
#X connect 23 6 13 6;
#X connect 23 7 13 7;
#X connect 23 8 27 0;
#X connect 24 0 25 0;
#X connect 26 0 15 0;
#X connect 26 1 15 1;
#X connect 26 2 15 2;
#X connect 26 3 15 3;
#X connect 26 4 15 4;
#X connect 26 5 15 5;
#X connect 26 6 15 6;
#X connect 26 7 15 7;
#X connect 26 8 15 8;
#X connect 26 9 28 0;
#X connect 27 0 6 0;
#X connect 27 1 6 1;
#X connect 27 2 6 2;
#X connect 27 3 6 3;
#X connect 27 4 6 4;
#X connect 27 5 6 5;
#X connect 27 6 6 6;
#X connect 27 7 6 7;
#X connect 27 8 6 8;
#X connect 27 9 6 9;
#X connect 27 10 6 10;
#X connect 27 11 6 11;
#X connect 27 12 6 12;
#X connect 27 13 26 0;
#X connect 28 0 18 0;
#X connect 28 1 18 1;
#X connect 28 2 18 2;
#X connect 28 3 18 3;
#X connect 28 4 18 4;
#X connect 28 5 18 5;
#X connect 28 6 18 6;
#X connect 29 0 1 0;
#X connect 29 1 19 0;
#X connect 29 2 2 0;
#X connect 29 3 8 0;
#X connect 29 4 4 0;
#X connect 29 5 22 0;
#X connect 29 6 21 0;
#X connect 29 7 16 0;
#X connect 29 8 24 0;
#X connect 29 9 31 0;
#X connect 29 10 23 0;
#X connect 31 0 30 0;
#X restore -560 -69 pd dumpMessages;
#X obj -730 5 tgl 15 0 empty empty empty 17 7 0 10 -262144 -1 -1 1
1;
#X text -710 -39 2: color-value;
#X text -712 6 5: color_hue;
#N canvas 552 80 685 588 controls 0;
#X obj 44 -379 vsl 15 50 0 1 0 0 empty empty empty 0 -9 0 10 -262144
-1 -1 0 1;
#X obj 44 -398 / 127;
#X obj 45 -234 vsl 15 50 0 1 0 0 empty empty empty 0 -9 0 10 -262144
-1 -1 0 1;
#X obj 45 -253 / 127;
#X obj 45 -118 / 127;
#X obj 43 51 vsl 15 50 0 1 0 0 empty empty empty 0 -9 0 10 -262144
-1 -1 0 1;
#X obj 43 32 / 127;
#X obj 124 -379 vsl 15 50 0 1 0 0 empty empty empty 0 -9 0 10 -262144
-1 -1 0 1;
#X obj 124 -398 / 127;
#X obj 125 -234 vsl 15 50 0 1 0 0 empty empty empty 0 -9 0 10 -262144
-1 -1 0 1;
#X obj 125 -253 / 127;
#X obj 125 -118 / 127;
#X obj 123 51 vsl 15 50 0 1 0 0 empty empty empty 0 -9 0 10 -262144
-1 -1 0 1;
#X obj 123 32 / 127;
#X obj 205 -380 vsl 15 50 0 1 0 0 empty empty empty 0 -9 0 10 -262144
-1 -1 0 1;
#X obj 205 -399 / 127;
#X obj 206 -235 vsl 15 50 0 1 0 0 empty empty empty 0 -9 0 10 -262144
-1 -1 0 1;
#X obj 206 -254 / 127;
#X obj 206 -100 vsl 15 50 0 1 0 0 empty empty empty 0 -9 0 10 -262144
-1 -1 0 1;
#X obj 206 -119 / 127;
#X obj 204 50 vsl 15 50 0 1 0 0 empty empty empty 0 -9 0 10 -262144
-1 -1 0 1;
#X obj 204 31 / 127;
#X obj 281 -380 vsl 15 50 0 1 0 0 empty empty empty 0 -9 0 10 -262144
-1 -1 0 1;
#X obj 281 -399 / 127;
#X obj 282 -235 vsl 15 50 0 1 0 0 empty empty empty 0 -9 0 10 -262144
-1 -1 0 1;
#X obj 282 -254 / 127;
#X obj 282 -100 vsl 15 50 0 1 0 0 empty empty empty 0 -9 0 10 -262144
-1 -1 0 1;
#X obj 282 -119 / 127;
#X obj 280 48 vsl 15 50 0 1 0 0 empty empty empty 0 -9 0 10 -262144
-1 -1 0 1;
#X obj 280 29 / 127;
#X obj 356 -380 vsl 15 50 0 1 0 0 empty empty empty 0 -9 0 10 -262144
-1 -1 0 1;
#X obj 356 -399 / 127;
#X obj 357 -235 vsl 15 50 0 1 0 0 empty empty empty 0 -9 0 10 -262144
-1 -1 0 1;
#X obj 357 -254 / 127;
#X obj 357 -100 vsl 15 50 0 1 0 0 empty empty empty 0 -9 0 10 -262144
-1 -1 0 1;
#X obj 357 -119 / 127;
#X obj 355 48 vsl 15 50 0 1 0 0 empty empty empty 0 -9 0 10 -262144
-1 -1 0 1;
#X obj 355 29 / 127;
#X obj 435 -381 vsl 15 50 0 1 0 0 empty empty empty 0 -9 0 10 -262144
-1 -1 0 1;
#X obj 435 -400 / 127;
#X obj 436 -236 vsl 15 50 0 1 0 0 empty empty empty 0 -9 0 10 -262144
-1 -1 0 1;
#X obj 436 -255 / 127;
#X obj 436 -101 vsl 15 50 0 1 0 0 empty empty empty 0 -9 0 10 -262144
-1 -1 0 1;
#X obj 436 -120 / 127;
#X obj 434 47 vsl 15 50 0 1 0 0 empty empty empty 0 -9 0 10 -262144
-1 -1 0 1;
#X obj 434 28 / 127;
#X obj 521 -381 vsl 15 50 0 1 0 0 empty empty empty 0 -9 0 10 -262144
-1 -1 0 1;
#X obj 521 -400 / 127;
#X obj 522 -236 vsl 15 50 0 1 0 0 empty empty empty 0 -9 0 10 -262144
-1 -1 0 1;
#X obj 522 -255 / 127;
#X obj 522 -101 vsl 15 50 0 1 0 0 empty empty empty 0 -9 0 10 -262144
-1 -1 0 1;
#X obj 522 -120 / 127;
#X obj 520 47 vsl 15 50 0 1 0 0 empty empty empty 0 -9 0 10 -262144
-1 -1 0 1;
#X obj 520 28 / 127;
#X obj 597 -382 vsl 15 50 0 1 0 0 empty empty empty 0 -9 0 10 -262144
-1 -1 0 1;
#X obj 597 -401 / 127;
#X obj 598 -237 vsl 15 50 0 1 0 0 empty empty empty 0 -9 0 10 -262144
-1 -1 0 1;
#X obj 598 -256 / 127;
#X obj 598 -102 vsl 15 50 0 1 0 0 empty empty empty 0 -9 0 10 -262144
-1 -1 0 1;
#X obj 598 -121 / 127;
#X obj 596 46 vsl 15 50 0 1 0 0 empty empty empty 0 -9 0 10 -262144
-1 -1 0 1;
#X obj 596 27 / 127;
#X obj 675 45 vsl 15 50 0 1 0 0 empty empty empty 0 -9 0 10 -262144
-1 -1 0 1;
#X obj 675 26 / 127;
#X obj 44 -415 ctlin 13 1;
#X obj 45 -135 ctlin 10 1;
#X obj 43 15 ctlin 7 1;
#X obj 675 9 ctlin 28 1;
#X obj 124 -415 ctlin 13 2;
#X obj 125 -135 ctlin 10 2;
#X obj 123 15 ctlin 7 2;
#X obj 205 -416 ctlin 13 3;
#X obj 281 -416 ctlin 13 4;
#X obj 357 -416 ctlin 13 5;
#X obj 521 -417 ctlin 13 7;
#X obj 597 -418 ctlin 13 8;
#X obj 206 -271 ctlin 12 3;
#X obj 206 -136 ctlin 10 3;
#X obj 204 14 ctlin 7 3;
#X obj 282 -271 ctlin 12 4;
#X obj 282 -136 ctlin 10 4;
#X obj 280 12 ctlin 7 4;
#X obj 357 -271 ctlin 12 5;
#X obj 357 -136 ctlin 10 5;
#X obj 354 12 ctlin 7 5;
#X obj 435 -417 ctlin 13 6;
#X obj 436 -272 ctlin 12 6;
#X obj 436 -137 ctlin 10 6;
#X obj 434 11 ctlin 7 6;
#X obj 522 -272 ctlin 12 7;
#X obj 522 -136 ctlin 10 7;
#X obj 525 13 ctlin 7 7;
#X obj 598 -273 ctlin 12 8;
#X obj 598 -138 ctlin 10 8;
#X obj 596 10 ctlin 7 8;
#X obj 693 -415 ctlin 19 1;
#X obj 693 -364 s message;
#X obj 881 -347 s message;
#X obj 1073 -344 s message;
#X obj 694 -242 s message;
#X obj 882 -242 s message;
#X obj 1074 -242 s message;
#X obj 693 -152 s message;
#X obj 881 -152 s message;
#X obj 1073 -157 s message;
#X obj 884 -47 s message;
#X obj 755 70 s message;
#X obj 874 70 s message;
#X obj 984 70 s message;
#X obj 1097 70 s message;
#X obj 125 -270 ctlin 12 2;
#X obj 45 -270 ctlin 12 1;
#N canvas 221 0 450 300 particleMode 0;
#X obj 67 -341 int;
#X obj 67 -307 s message;
#X msg 67 -324 send /particleMode \$1;
#X obj 67 -382 inlet;
#X obj 67 -358 * 2.99;
#X connect 0 0 2 0;
#X connect 2 0 1 0;
#X connect 3 0 4 0;
#X connect 4 0 0 0;
#X restore 44 -325 pd particleMode;
#N canvas 269 0 450 300 part_acc_factor 0;
#X obj 42 68 s message;
#X msg 42 51 send /part_acc_factor \$1;
#X obj 42 18 inlet;
#X floatatom 232 161 5 0 0 0 - - -;
#X connect 1 0 0 0;
#X connect 2 0 1 0;
#X connect 2 0 3 0;
#X restore 125 -305 pd part_acc_factor;
#N canvas 469 0 450 300 partAccCenter 0;
#X obj -3732 -73 s message;
#X obj -3629 -262 route 0 1 2 3 4;
#X msg -3629 -233 0.5;
#X msg -3546 -237 0.5;
#X msg -3615 -208 0.5;
#X msg -3532 -212 0.1;
#X msg -3606 -182 0.5;
#X msg -3528 -183 0.9;
#X msg -3518 -156 0.5;
#X msg -3508 -128 0.5;
#X msg -3595 -156 0.1;
#X msg -3585 -128 0.9;
#X msg -3732 -90 send /partAccCenter_0 \$1;
#X obj -3570 -74 s message;
#X msg -3570 -91 send /partAccCenter_1 \$1;
#X obj -3629 -335 inlet;
#X obj -3629 -288 int;
#X obj -3629 -313 * 4.99;
#X floatatom -3509 -280 5 0 0 0 - - -;
#X connect 1 0 2 0;
#X connect 1 0 3 0;
#X connect 1 1 5 0;
#X connect 1 1 4 0;
#X connect 1 2 6 0;
#X connect 1 2 7 0;
#X connect 1 3 10 0;
#X connect 1 3 8 0;
#X connect 1 4 11 0;
#X connect 1 4 9 0;
#X connect 2 0 12 0;
#X connect 3 0 14 0;
#X connect 4 0 12 0;
#X connect 5 0 14 0;
#X connect 6 0 12 0;
#X connect 7 0 14 0;
#X connect 8 0 14 0;
#X connect 9 0 14 0;
#X connect 10 0 12 0;
#X connect 11 0 12 0;
#X connect 12 0 0 0;
#X connect 14 0 13 0;
#X connect 15 0 17 0;
#X connect 16 0 1 0;
#X connect 16 0 18 0;
#X connect 17 0 16 0;
#X restore 205 -326 pd partAccCenter;
#N canvas 490 0 450 300 texture 0;
#X obj 41 -296 s message;
#X msg 41 -313 send /particle_texture_ID \$1;
#X obj 41 -372 inlet;
#X obj 41 -341 * 6.99;
#X connect 1 0 0 0;
#X connect 2 0 3 0;
#X connect 3 0 1 0;
#X restore 281 -306 pd texture;
#N canvas 532 0 450 300 flashPartFrequency 0;
#X obj 109 -318 inlet;
#X msg 109 -253 send /flashPart_freq \$1;
#X obj 109 -236 s message;
#X obj 109 -270 int;
#X obj 109 -287 * 9.99;
#X connect 0 0 4 0;
#X connect 1 0 2 0;
#X connect 3 0 1 0;
#X connect 4 0 3 0;
#X restore 356 -327 pd flashPartFrequency;
#N canvas 532 0 450 300 flashTrack0_freq 0;
#X obj 86 -306 inlet;
#X obj 86 -224 s message;
#X obj 86 -258 int;
#X msg 86 -241 send /flashTrack0_freq \$1;
#X obj 86 -275 * 9.99;
#X connect 0 0 4 0;
#X connect 2 0 3 0;
#X connect 3 0 1 0;
#X connect 4 0 2 0;
#X restore 357 -44 pd flashTrack0_freq;
#X obj 125 -99 vsl 15 50 0 1 0 0 empty empty empty 0 -9 0 10 -262144
-1 -1 0 1;
#X obj 44 -99 vsl 15 50 0 1 0 0 empty empty empty 0 -9 0 10 -262144
-1 -1 0 1;
#N canvas 684 0 450 300 input_volume 0;
#X obj 61 48 s input_volume;
#X obj 61 0 inlet;
#X obj 61 31 * 10;
#X connect 1 0 2 0;
#X connect 2 0 0 0;
#X restore 435 -306 pd input_volume;
#N canvas 684 0 450 300 RGBpalette_val_coef 0;
#X obj 61 -83 inlet;
#X msg 61 -35 send /RGBpalette_val_coef \$1;
#X obj 61 -19 s message;
#X obj 61 -52 * 4;
#X floatatom 253 76 5 0 0 0 - - -;
#X connect 0 0 3 0;
#X connect 1 0 2 0;
#X connect 3 0 1 0;
#X connect 3 0 4 0;
#X restore 436 -161 pd RGBpalette_val_coef;
#N canvas 532 0 450 300 flashPart_duration 0;
#X obj 86 -306 inlet;
#X obj 86 -224 s message;
#X obj 86 -258 int;
#X msg 86 -241 send /flashPart_duration \$1;
#X obj 86 -275 * 70.99;
#X floatatom 234 -135 5 0 0 0 - - -;
#X connect 0 0 4 0;
#X connect 2 0 3 0;
#X connect 2 0 5 0;
#X connect 3 0 1 0;
#X connect 4 0 2 0;
#X restore 357 -180 pd flashPart_duration;
#N canvas 221 0 450 300 RGBpalette 0;
#X obj 67 -295 s message;
#X obj 67 -382 inlet;
#X msg 67 -312 send /RGBpalette \$1;
#X obj 67 -358 * 7;
#X floatatom 193 -246 5 0 0 0 - - -;
#X connect 1 0 3 0;
#X connect 2 0 0 0;
#X connect 3 0 2 0;
#X connect 3 0 4 0;
#X restore 598 -162 pd RGBpalette;
#N canvas 1412 365 450 300 videoThreshold 0;
#X obj 67 -295 s message;
#X obj 67 -382 inlet;
#X msg 67 -312 send /videoThreshold \$1;
#X obj 67 -358 + 0.01;
#X floatatom 229 -324 5 0 0 0 - - -;
#X connect 1 0 3 0;
#X connect 2 0 0 0;
#X connect 3 0 2 0;
#X connect 3 0 4 0;
#X restore 43 105 pd videoThreshold;
#N canvas 299 142 450 300 gray 0;
#X obj 91 20 s message;
#X msg 85 -56 send /local_color_r \$1;
#X msg 74 -33 send /local_color_g \$1;
#X msg 62 -10 send /local_color_b \$1;
#X obj 62 -178 inlet;
#X obj 62 -119 + 1;
#X obj 62 -149 * -1;
#X connect 1 0 0 0;
#X connect 2 0 0 0;
#X connect 3 0 0 0;
#X connect 4 0 6 0;
#X connect 5 0 3 0;
#X connect 5 0 2 0;
#X connect 5 0 1 0;
#X connect 6 0 5 0;
#X restore 123 128 pd gray;
#N canvas 221 0 450 300 brushRadius 0;
#X obj 67 -295 s message;
#X obj 67 -382 inlet;
#X msg 67 -312 send /brushRadius \$1;
#X obj 67 -336 + 1;
#X obj 67 -358 * 20;
#X connect 1 0 4 0;
#X connect 2 0 0 0;
#X connect 3 0 2 0;
#X connect 4 0 3 0;
#X restore 204 102 pd brushRadius;
#N canvas 299 142 450 300 radiusParticle 0;
#X obj 63 -141 s message;
#X obj 63 -190 inlet;
#X msg 63 -165 send /radiusParticle \$1;
#X floatatom 137 -90 5 0 0 0 - - -;
#X connect 1 0 2 0;
#X connect 1 0 3 0;
#X connect 2 0 0 0;
#X restore 520 103 pd radiusParticle;
#N canvas 221 0 450 300 echoNeg 0;
#X obj 67 -295 s message;
#X obj 67 -382 inlet;
#X obj 67 -336 + 1;
#X msg 67 -312 send /echoNeg \$1;
#X obj 67 -358 * -1;
#X floatatom 220 -265 5 0 0 0 - - -;
#X connect 1 0 4 0;
#X connect 2 0 3 0;
#X connect 2 0 5 0;
#X connect 3 0 0 0;
#X connect 4 0 2 0;
#X restore 280 123 pd echoNeg;
#N canvas 299 142 450 300 echo 0;
#X obj 77 -285 s message;
#X obj 77 -372 inlet;
#X obj 77 -326 + 1;
#X obj 77 -348 * -1;
#X msg 77 -302 send /echo \$1;
#X floatatom 156 -254 5 0 0 0 - - -;
#X connect 1 0 3 0;
#X connect 2 0 4 0;
#X connect 2 0 5 0;
#X connect 3 0 2 0;
#X connect 4 0 0 0;
#X restore 355 102 pd echo;
#N canvas 221 0 450 300 trackdecay 0;
#X obj 67 -295 s message;
#X obj 67 -382 inlet;
#X msg 67 -312 send /trackdecay \$1;
#X obj 67 -358 * 0.01;
#X floatatom 249 -311 5 0 0 0 - - -;
#X obj 261 -337 print;
#X connect 1 0 3 0;
#X connect 2 0 0 0;
#X connect 3 0 2 0;
#X connect 3 0 4 0;
#X connect 3 0 5 0;
#X restore 596 121 pd trackdecay;
#N canvas 299 142 450 300 beat_duration 0;
#X obj 63 -141 s message;
#X obj 63 -190 inlet;
#X msg 63 -165 send /beat_duration \$1;
#X connect 1 0 2 0;
#X connect 2 0 0 0;
#X restore 522 -180 pd beat_duration;
#N canvas 221 0 450 300 blendTransp 0;
#X obj 79 -124 s message;
#X obj 79 -223 inlet;
#X obj 79 -167 + 1;
#X obj 79 -191 * -1;
#X msg 79 -141 send /blendTransp \$1;
#X connect 1 0 3 0;
#X connect 2 0 4 0;
#X connect 3 0 2 0;
#X connect 4 0 0 0;
#X restore 675 101 pd blendTransp;
#X msg 693 -385 send /currentDrawingTrack_plus;
#X msg 694 -263 send /currentVideoTrack_plus;
#X msg 1073 -367 send /trackdecay_sign;
#X msg 881 -394 send /trackSwapCompositionFinalWeights;
#X msg 874 36 send /is_videoOn;
#X msg 884 -69 send /BGSubtr_plus;
#X msg 755 36 send /drawingOnOff;
#X msg 984 23 send /currentBGCapture;
#X msg 1120 -122 send /clearLayer;
#X msg 1097 47 send /initialBGCapture;
#X obj 694 -293 ctlin 22 1;
#X obj 693 -203 ctlin 25 1;
#X obj 881 -415 ctlin 20 1;
#X obj 1073 -415 ctlin 21 1;
#X obj 882 -293 ctlin 23 1;
#X obj 1074 -293 ctlin 24 1;
#X obj 881 -203 ctlin 26 1;
#X obj 1073 -203 ctlin 27 1;
#X obj 884 -98 ctlin 18 1;
#X obj 755 2 ctlin 14 1;
#X obj 874 2 ctlin 15 1;
#X obj 984 2 ctlin 16 1;
#X obj 1097 2 ctlin 17 1;
#X obj 1120 -92 ctlin;
#X floatatom 1095 -60 5 0 0 0 - - -;
#X floatatom 1134 -59 5 0 0 0 - - -;
#X floatatom 1174 -58 5 0 0 0 - - -;
#X msg 881 -175 send /track_replay;
#X msg 693 -176 send /source_track_record;
#N canvas 1152 42 450 300 trackCompositionWeight 0;
#X obj 87 -275 s message;
#X obj 87 -362 inlet;
#X obj 87 -316 + 1;
#X obj 87 -338 * -1;
#X msg 86 -292 send /trackCompositionWeight \$1;
#X connect 1 0 3 0;
#X connect 2 0 4 0;
#X connect 3 0 2 0;
#X connect 4 0 0 0;
#X restore 597 -306 pd trackCompositionWeight;
#N canvas 1152 42 450 300 trackFinalWeight 0;
#X obj 87 -275 s message;
#X obj 87 -362 inlet;
#X obj 87 -316 + 1;
#X obj 87 -338 * -1;
#X msg 87 -292 send /trackFinalWeight \$1;
#X connect 1 0 3 0;
#X connect 2 0 4 0;
#X connect 3 0 2 0;
#X connect 4 0 0 0;
#X restore 521 -327 pd trackFinalWeight;
#N canvas 299 142 450 300 repopulatingBG 0;
#X obj 63 -141 s message;
#X obj 63 -190 inlet;
#X msg 63 -165 send /repopulatingBG \$1;
#X floatatom 154 -104 5 0 0 0 - - -;
#X connect 1 0 2 0;
#X connect 1 0 3 0;
#X connect 2 0 0 0;
#X restore 45 -178 pd repopulatingBG;
#N canvas 1427 728 450 300 videoGamma 0;
#X obj 67 -295 s message;
#X obj 67 -382 inlet;
#X obj 67 -358 + 0.01;
#X msg 67 -312 send /videoGamma \$1;
#X floatatom 199 -343 5 0 0 0 - - -;
#X obj 261 -343 vsl 15 128 0 5 0 0 empty empty empty 0 -9 0 10 -262144
-1 -1 0 1;
#X connect 1 0 2 0;
#X connect 2 0 3 0;
#X connect 2 0 4 0;
#X connect 3 0 0 0;
#X connect 5 0 3 0;
#X connect 5 0 4 0;
#X restore 45 -43 pd videoGamma;
#X msg 1163 -95 send /setup_plus;
#N canvas 299 142 450 300 RGBpalette_hue_coef 0;
#X obj 75 -178 inlet;
#X obj 60 -95 s message;
#X obj 75 -150 * 0.3;
#X msg 60 -112 send /RGBpalette_hue_coef \$1;
#X obj 164 -92 s RGBpalette_hue_coef;
#X connect 0 0 2 0;
#X connect 2 0 3 0;
#X connect 2 0 4 0;
#X connect 3 0 1 0;
#X restore 434 122 pd RGBpalette_hue_coef;
#X msg 1074 -265 send /clearAllLayers;
#X msg 1073 -180 send /auto_beat;
#N canvas 532 0 450 300 maskJitterAmpl 0;
#X obj 86 -306 inlet;
#X obj 86 -224 s message;
#X msg 86 -241 send /maskJitterAmpl \$1;
#X obj 86 -275 * 100;
#X connect 0 0 3 0;
#X connect 2 0 1 0;
#X connect 3 0 2 0;
#X restore 282 -159 pd maskJitterAmpl;
#N canvas 624 31 450 300 images_weights_rand 0;
#X obj 86 -306 inlet;
#X obj 86 -224 s message;
#X floatatom 159 -268 5 0 0 0 - - -;
#X msg 86 -241 send /images_weights_rand \$1;
#X connect 0 0 3 0;
#X connect 0 0 2 0;
#X connect 3 0 1 0;
#X restore 125 -159 pd images_weights_rand;
#N canvas 532 0 450 300 images_weights_scale 0;
#X obj 86 -306 inlet;
#X obj 86 -210 s message;
#X obj 86 -275 * -1;
#X obj 86 -253 + 1;
#X msg 86 -228 send /images_weights_scale \$1;
#X connect 0 0 2 0;
#X connect 2 0 3 0;
#X connect 3 0 4 0;
#X connect 4 0 1 0;
#X restore 207 -179 pd images_weights_scale;
#X connect 0 0 112 0;
#X connect 1 0 0 0;
#X connect 2 0 164 0;
#X connect 3 0 2 0;
#X connect 4 0 119 0;
#X connect 5 0 124 0;
#X connect 6 0 5 0;
#X connect 7 0 113 0;
#X connect 8 0 7 0;
#X connect 9 0 171 0;
#X connect 10 0 9 0;
#X connect 11 0 118 0;
#X connect 12 0 125 0;
#X connect 13 0 12 0;
#X connect 14 0 114 0;
#X connect 15 0 14 0;
#X connect 16 0 172 0;
#X connect 17 0 16 0;
#X connect 19 0 18 0;
#X connect 20 0 126 0;
#X connect 21 0 20 0;
#X connect 22 0 115 0;
#X connect 23 0 22 0;
#X connect 24 0 170 0;
#X connect 25 0 24 0;
#X connect 27 0 26 0;
#X connect 28 0 128 0;
#X connect 29 0 28 0;
#X connect 30 0 116 0;
#X connect 31 0 30 0;
#X connect 32 0 122 0;
#X connect 33 0 32 0;
#X connect 34 0 117 0;
#X connect 35 0 34 0;
#X connect 36 0 129 0;
#X connect 37 0 36 0;
#X connect 38 0 120 0;
#X connect 39 0 38 0;
#X connect 40 0 121 0;
#X connect 41 0 40 0;
#X connect 43 0 42 0;
#X connect 44 0 167 0;
#X connect 45 0 44 0;
#X connect 46 0 163 0;
#X connect 47 0 46 0;
#X connect 48 0 131 0;
#X connect 49 0 48 0;
#X connect 51 0 50 0;
#X connect 52 0 127 0;
#X connect 53 0 52 0;
#X connect 54 0 162 0;
#X connect 55 0 54 0;
#X connect 56 0 123 0;
#X connect 57 0 56 0;
#X connect 59 0 58 0;
#X connect 60 0 130 0;
#X connect 61 0 60 0;
#X connect 62 0 132 0;
#X connect 63 0 62 0;
#X connect 64 0 1 0;
#X connect 65 0 4 0;
#X connect 66 0 6 0;
#X connect 67 0 63 0;
#X connect 68 0 8 0;
#X connect 69 0 11 0;
#X connect 70 0 13 0;
#X connect 71 0 15 0;
#X connect 72 0 23 0;
#X connect 73 0 31 0;
#X connect 74 0 47 0;
#X connect 75 0 55 0;
#X connect 76 0 17 0;
#X connect 77 0 19 0;
#X connect 78 0 21 0;
#X connect 79 0 25 0;
#X connect 80 0 27 0;
#X connect 81 0 29 0;
#X connect 82 0 33 0;
#X connect 83 0 35 0;
#X connect 84 0 37 0;
#X connect 85 0 39 0;
#X connect 86 0 41 0;
#X connect 87 0 43 0;
#X connect 88 0 45 0;
#X connect 89 0 49 0;
#X connect 90 0 51 0;
#X connect 91 0 53 0;
#X connect 92 0 57 0;
#X connect 93 0 59 0;
#X connect 94 0 61 0;
#X connect 95 0 133 0;
#X connect 110 0 10 0;
#X connect 111 0 3 0;
#X connect 119 0 165 0;
#X connect 133 0 96 0;
#X connect 134 0 99 0;
#X connect 135 0 98 0;
#X connect 136 0 97 0;
#X connect 137 0 107 0;
#X connect 138 0 105 0;
#X connect 139 0 106 0;
#X connect 140 0 108 0;
#X connect 142 0 109 0;
#X connect 143 0 134 0;
#X connect 144 0 161 0;
#X connect 145 0 136 0;
#X connect 146 0 135 0;
#X connect 148 0 168 0;
#X connect 149 0 160 0;
#X connect 150 0 169 0;
#X connect 151 0 138 0;
#X connect 152 0 139 0;
#X connect 153 0 137 0;
#X connect 154 0 140 0;
#X connect 155 0 142 0;
#X connect 156 0 157 0;
#X connect 156 1 158 0;
#X connect 156 2 159 0;
#X connect 160 0 103 0;
#X connect 161 0 102 0;
#X connect 168 0 101 0;
#X connect 169 0 104 0;
#X restore -558 -16 pd controls;
#X obj -564 -154 s message;
#X msg -564 -171 send /launch;
#X obj -564 -186 bng 15 250 50 0 empty empty empty 0 -6 0 8 -24198
-1 -1;
#X text -542 -187 Manual launch;
#X connect 2 0 1 0;
#X connect 3 0 1 1;
#X connect 4 0 1 2;
#X connect 5 0 1 3;
#X connect 7 0 0 0;
#X connect 8 0 0 1;
#X connect 9 0 7 0;
#X connect 12 0 14 0;
#X connect 12 0 34 0;
#X connect 13 0 12 0;
#X connect 14 0 3 0;
#X connect 14 0 36 0;
#X connect 16 0 17 0;
#X connect 19 0 24 0;
#X connect 20 0 21 0;
#X connect 29 0 32 0;
#X connect 29 0 33 0;
#X connect 32 0 28 0;
#X connect 33 0 27 0;
#X connect 34 0 2 0;
#X connect 34 0 4 0;
#X connect 34 0 5 0;
#X connect 36 0 1 4;
#X connect 41 0 40 0;
#X connect 42 0 41 0;
#X restore -756 -22459 pd initial_board;
#X obj -693 -22030 cnv 15 35 25 empty track1video_can V 5 12 1 24 -258699
-33289 0;
#X obj -737 -22199 vsl 15 128 0 0.01 0 0 empty track0decay BG 0 -9
0 14 -258699 -1 -24198 0 1;
#X obj -688 -22198 vsl 15 128 0 0.01 0 0 empty track1decay 1 0 -9 0
14 -128992 -1 -24198 0 1;
#X obj -693 -21999 cnv 15 35 25 empty track1replay_can _ 5 12 1 24
-44926 -33289 0;
#X obj -796 -22060 cnv 15 60 25 empty empty DECAY 0 12 1 14 -1 -4034
0;
#X obj -747 -22028 cnv 15 35 25 empty track0video_can V 5 12 1 24 -44926
-33289 0;
#X obj -722 -22199 vsl 8 128 0 1 0 0 empty trackCompositionWeight_0
empty 0 -9 0 10 -4032 -1 -1 0 1;
#X obj -674 -22198 vsl 8 128 0 1 0 0 empty trackCompositionWeight_1
empty 0 -9 0 10 -4032 -1 -1 0 1;
#X obj -852 -22180 cnv 15 20 50 empty palette3_can empty 0 12 1 14
-226586 -262144 0;
#X obj -945 -22155 cnv 15 50 25 empty color_can empty 20 12 0 14 -262144
-262144 0;
#X obj -866 -22316 cnv 15 130 25 empty radius_can 3 0 12 1 18 -1 -262144
0;
#X obj -709 -22406 vsl 15 60 0 10 0 0 empty input_volume VOLUME 0 -9
0 14 -162280 -1 -4034 0 1;
#X obj -945 -22180 cnv 15 50 25 empty gray_can G_1.00 0 12 1 14 -262144
-66577 0;
#X obj -946 -22216 cnv 15 60 25 empty empty MUSIC 0 12 1 18 -1 -4034
0;
#X obj -843 -22212 cnv 15 60 25 empty RGBpalette_val_coef_can 1.9 0
12 1 14 -1 -262144 0;
#X obj -883 -22213 cnv 15 20 25 empty empty Color 0 12 1 14 -1 -4034
0;
#X obj -782 -22308 cnv 20 50 20 empty tabletPressure_can 0 5 12 1 12
-24198 -33289 0;
#X obj -782 -22285 cnv 20 30 25 empty invert_can Inv 5 12 1 12 -24198
-33289 0;
#X obj -861 -22246 cnv 15 40 25 empty part_acc_factor_can 0.01 0 12
1 14 -1 -262144 0;
#X obj -785 -22334 cnv 15 60 25 empty empty Tabl_Press 0 12 1 14 -1
-4034 0;
#X obj -945 -22120 cnv 15 60 25 empty empty BEAT: 0 12 1 18 -1 -4034
0;
#X obj -890 -22119 cnv 15 20 25 empty loop_beat_can 1 0 12 1 18 -1
-262144 0;
#X obj -694 -21969 cnv 15 35 25 empty source_track_record_1_can _ 5
12 1 24 -44926 -33289 0;
#X obj -779 -21970 cnv 15 60 25 empty empty REC 0 12 1 14 -1 -4034
0;
#X obj -747 -21968 cnv 15 35 25 empty source_track_record_0_can _ 5
12 1 24 -44926 -33289 0;
#X obj -950 -21920 cnv 15 60 25 empty empty FLASHES 0 12 1 18 -1 -4034
0;
#X obj -948 -21895 cnv 15 60 25 empty empty Freq_Particle: 0 12 1 12
-1 -4034 0;
#X obj -829 -21893 cnv 15 15 25 empty empty X 0 12 1 12 -1 -4034 0
;
#X obj -814 -21891 cnv 15 20 25 empty flashPart_duration_can 0 0 12
1 18 -1 -262144 0;
#X obj -693 -21939 cnv 15 35 25 empty flashTrack0_freq_1_can 0 5 12
1 24 -44926 -33289 0;
#X obj -755 -21938 cnv 15 60 25 empty empty Freq_Bgd: 0 12 1 12 -1
-4034 0;
#X obj -869 -21901 cnv 15 35 25 empty flashPart_freq_can 0 5 12 1 24
-44926 -33289 0;
#X obj -947 -22002 cnv 15 45 25 empty empty thrshld 0 12 1 14 -1 -4034
0;
#X obj -893 -22002 cnv 15 40 25 empty videoThreshold 0.19 0 12 1 14
-1 -262144 0;
#X obj -680 -22314 vsl 15 80 0 1 0 0 empty echoNeg empty 0 -9 0 14
-162280 -1 -4034 0 1;
#X obj -704 -22313 vsl 15 80 0 1.01 0 0 empty echo ECHO+- 0 -9 0 14
-162280 -1 -4034 0 1;
#X obj -687 -22062 cnv 15 20 25 empty track1decay_sign_can - 5 12 1
24 -44926 -33289 0;
#X obj -738 -22059 cnv 15 20 25 empty track0decay_sign_can - 5 12 1
24 -44926 -33289 0;
#X obj -784 -21995 cnv 15 60 25 empty empty PLAY 0 12 1 14 -1 -4034
0;
#X obj -747 -21997 cnv 15 35 25 empty track0replay_can _ 5 12 1 24
-44926 -33289 0;
#X obj -820 -22030 cnv 15 45 25 empty empty VIDEO 0 12 1 14 -1 -4034
0;
#X obj -773 -22029 cnv 15 15 25 empty is_VideoOn_can + 5 12 1 24 -258699
-33289 0;
#X obj -951 -21950 cnv 15 60 25 empty empty BG_sub 0 12 1 18 -1 -4034
0;
#X obj -878 -21951 cnv 15 35 25 empty initialBGSubtr_can Init 5 12
1 18 -44926 -33289 0;
#X obj -842 -21951 cnv 15 35 25 empty currentBGSubtr_can Cur 5 12 1
18 -258699 -33289 0;
#X obj -793 -21901 cnv 15 60 25 empty empty REPOP 0 12 1 12 -1 -4034
0;
#X obj -748 -21900 cnv 15 35 25 empty repopulatingBG_can 0 5 12 1 18
-44926 -33289 0;
#X obj -714 -22199 vsl 8 128 0 1 0 0 empty trackFinalWeight_0 empty
0 -9 0 10 -4032 -1 -1 0 1;
#X obj -666 -22198 vsl 8 128 0 1 0 0 empty trackFinalWeight_1 empty
0 -9 0 10 -4032 -1 -1 0 1;
#X obj -873 -22118 cnv 15 30 25 empty empty dur: 0 12 1 12 -1 -4034
0;
#X obj -851 -22120 cnv 15 30 25 empty beat_duration_can 1 0 12 1 18
-1 -262144 0;
#X obj -801 -22119 cnv 15 30 25 empty empty auto: 0 12 1 12 -1 -4034
0;
#X obj -767 -22120 cnv 15 7 25 empty auto_beat_can 1 0 12 1 18 -1 -262144
0;
#X obj -770 -22245 cnv 15 40 25 empty radiusParticle_can 0.5 0 12 1
14 -1 -262144 0;
#X obj -947 -22023 cnv 15 45 25 empty empty VIDEO 0 12 1 18 -1 -4034
0;
#X obj -948 -21982 cnv 15 45 25 empty empty gamma 0 12 1 14 -1 -4034
0;
#X obj -892 -21982 cnv 15 40 25 empty videoGamma 1 0 12 1 14 -1 -262144
0;
#X obj -946 -22073 cnv 15 20 25 empty empty shuffle 0 12 1 14 -1 -4034
0;
#X obj -890 -22072 cnv 15 40 25 empty images_weights_rand 0 0 12 1
14 -1 -262144 0;
#X obj -945 -22092 cnv 15 45 25 empty empty IMAGE 0 12 1 18 -1 -4034
0;
#X obj -945 -22463 cnv 15 80 25 empty cumulated_time_can 2:13 0 12
1 18 -162280 -33289 0;
#X obj -823 -22246 cnv 15 20 25 empty empty radius 0 12 1 14 -1 -4034
0;
#X obj -948 -22052 cnv 15 20 25 empty empty mask_jitter 0 12 1 14 -1
-4034 0;
#X obj -872 -22050 cnv 15 40 25 empty maskJitterAmpl_can 0 0 12 1 14
-1 -262144 0;
#X obj -777 -22212 cnv 15 35 25 empty RGBpalette_hue_coef_can 0 0 12
1 14 -1 -262144 0;
#X obj -809 -22209 cnv 15 30 25 empty empty Hue 0 12 1 12 -1 -4034
0;
#X connect 16 0 17 0;
#X connect 16 1 18 0;
#X connect 16 2 19 0;
