#N canvas 549 64 471 607 10;
#N canvas 1289 216 556 536 connect 0;
#X msg 65 12 disconnect;
#X text -71 -44 OPEN UDP CONNECTION;
#X text 58 -43 CLOSE UDP CONNECTION;
#X msg -11 68 connect 127.0.0.1 1978;
#X obj 42 94 r message;
#X obj -11 -28 inlet;
#X obj 65 -26 inlet;
#X text -71 71 VIRCHOR;
#X obj 42 145 packOSC;
#X obj 104 -11 r disconnect;
#X obj -2 40 r connect;
#X obj -13 203 sendOSC;
#X floatatom -10 241 5 0 0 0 - - -;
#X connect 0 0 11 0;
#X connect 3 0 11 0;
#X connect 4 0 11 0;
#X connect 5 0 3 0;
#X connect 6 0 0 0;
#X connect 9 0 0 0;
#X connect 10 0 3 0;
#X connect 11 0 12 0;
#X coords 0 0 10 10 0 0 0;
#X restore -307 -289 pd connect;
#N canvas 588 387 699 537 LYM_spectrum_v4 0;
#X obj 525 -31 bonk~;
#X obj 525 5 unpack f f f f f f f f f f f;
#X floatatom 1205 21 5 0 0 0 - - -;
#X floatatom 1238 21 5 0 0 0 - - -;
#X floatatom 1270 21 5 0 0 0 - - -;
#X floatatom 1302 21 5 0 0 0 - - -;
#X floatatom 1334 21 5 0 0 0 - - -;
#X floatatom 1366 21 5 0 0 0 - - -;
#X floatatom 1398 21 5 0 0 0 - - -;
#X floatatom 1430 21 5 0 0 0 - - -;
#X floatatom 1462 21 5 0 0 0 - - -;
#X floatatom 1494 21 5 0 0 0 - - -;
#X obj 953 310 s message;
#X obj 952 268 spigot;
#X obj 985 -134 inlet;
#X msg 952 292 send /color_spectrum \$1 \$2 \$3;
#X obj 1488 309 s message;
#X obj 768 310 s message;
#X floatatom 1526 21 5 0 0 0 - - -;
#X obj 1488 268 spigot;
#X obj 1521 -134 inlet;
#X obj 768 269 spigot;
#X obj 801 -133 inlet;
#X obj 661 49 +;
#X obj 661 70 +;
#X obj 694 50 +;
#X obj 694 71 +;
#X obj 728 50 +;
#X obj 728 71 +;
#X obj 694 93 +;
#X obj 728 93 +;
#X floatatom 1411 1 5 0 0 0 - - -;
#X text 1409 -15 ATTACK OUTPUT;
#X text 1202 5 SPECTRUM OUTPUT;
#X text 1013 31 Sum over 3 spectrum bands;
#X obj 661 180 /;
#X obj 694 181 /;
#X obj 728 181 /;
#X obj 661 232 pack f f f;
#X obj 525 48 +;
#X obj 525 69 +;
#X obj 525 90 +;
#X obj 525 111 +;
#X obj 570 49 +;
#X obj 570 70 +;
#X obj 570 112 +;
#X obj 570 92 +;
#X obj 621 148 +;
#X text 485 31 Sum over 2 spectrum bands;
#X obj 570 132 +;
#X obj 525 181 /;
#X obj 570 182 /;
#X obj 525 203 * 1024;
#X obj 1529 -15 unpack f f f;
#X floatatom 1443 1 5 0 0 0 - - -;
#X floatatom 1475 1 5 0 0 0 - - -;
#X text 1085 130 for normalization;
#X text 1085 120 Sum over spectrum;
#X obj 1148 310 s message;
#X obj 1147 268 spigot;
#X obj 1180 -134 inlet;
#X text 1085 109 Signal loudness;
#X obj 1323 311 s message;
#X obj 1322 269 spigot;
#X obj 1355 -134 inlet;
#X obj 1322 178 / 30;
#X obj 1147 179 / 100;
#X obj 525 221 - 512;
#X obj 1334 45 s soundvolume;
#X obj 622 -139 loadbang;
#X msg 576 -72 minvel 0.1;
#X msg 1148 292 send /global_radius_vol \$1;
#X msg 1322 291 send /local_radius_vol \$1;
#X obj 1563 212 * 2;
#X msg 1488 291 send /noise_vol \$1;
#X obj 525 243 pack f f f;
#X msg 768 292 send /xyz_spectrum \$1 \$2 \$3;
#X obj 854 343 print \$1 \$2 \$3;
#X obj 1598 29 - 1500;
#X obj 1598 11 * 400;
#X msg 648 -71 thresh 0.5 50;
#X msg 745 -71 spew 1;
#X obj 526 -140 r startclock;
#X obj 796 344 print;
#X obj 569 203 * 1024;
#X obj 518 -72 metro 50;
#X msg 66 -46 start;
#X msg 66 -20 stop;
#X obj 66 34 writesf~ 2;
#X msg 66 5 open G:/3D/LYM/LoopImpro1.wav;
#X obj 308 -142 adc~ 0 1 2;
#X obj 357 -75 *~;
#X obj 401 -140 r input_volume;
#X obj 570 222 - 400;
#X connect 0 0 1 0;
#X connect 0 1 53 0;
#X connect 1 0 2 0;
#X connect 1 0 23 0;
#X connect 1 0 39 0;
#X connect 1 1 3 0;
#X connect 1 1 23 1;
#X connect 1 1 39 1;
#X connect 1 2 4 0;
#X connect 1 2 24 1;
#X connect 1 2 40 1;
#X connect 1 3 5 0;
#X connect 1 3 25 0;
#X connect 1 3 41 1;
#X connect 1 4 6 0;
#X connect 1 4 25 1;
#X connect 1 4 42 1;
#X connect 1 5 7 0;
#X connect 1 5 26 1;
#X connect 1 5 43 0;
#X connect 1 6 8 0;
#X connect 1 6 29 1;
#X connect 1 6 43 1;
#X connect 1 7 9 0;
#X connect 1 7 27 0;
#X connect 1 7 44 1;
#X connect 1 8 10 0;
#X connect 1 8 27 1;
#X connect 1 8 46 1;
#X connect 1 9 11 0;
#X connect 1 9 28 1;
#X connect 1 9 45 1;
#X connect 1 10 18 0;
#X connect 1 10 30 1;
#X connect 1 10 49 1;
#X connect 6 0 68 0;
#X connect 13 0 15 0;
#X connect 14 0 13 1;
#X connect 15 0 12 0;
#X connect 19 0 74 0;
#X connect 20 0 19 1;
#X connect 21 0 76 0;
#X connect 22 0 21 1;
#X connect 23 0 24 0;
#X connect 24 0 35 0;
#X connect 25 0 26 0;
#X connect 26 0 29 0;
#X connect 27 0 28 0;
#X connect 28 0 30 0;
#X connect 29 0 36 0;
#X connect 30 0 37 0;
#X connect 35 0 38 2;
#X connect 36 0 38 0;
#X connect 37 0 38 1;
#X connect 38 0 13 0;
#X connect 39 0 40 0;
#X connect 40 0 41 0;
#X connect 41 0 42 0;
#X connect 42 0 50 0;
#X connect 42 0 47 0;
#X connect 43 0 44 0;
#X connect 44 0 46 0;
#X connect 45 0 49 0;
#X connect 46 0 45 0;
#X connect 47 0 51 1;
#X connect 47 0 50 1;
#X connect 47 0 35 1;
#X connect 47 0 36 1;
#X connect 47 0 37 1;
#X connect 47 0 65 0;
#X connect 47 0 66 0;
#X connect 49 0 51 0;
#X connect 49 0 47 1;
#X connect 50 0 52 0;
#X connect 51 0 84 0;
#X connect 52 0 67 0;
#X connect 53 0 31 0;
#X connect 53 1 54 0;
#X connect 53 1 73 0;
#X connect 53 2 55 0;
#X connect 53 2 79 0;
#X connect 59 0 71 0;
#X connect 60 0 59 1;
#X connect 63 0 72 0;
#X connect 64 0 63 1;
#X connect 65 0 63 0;
#X connect 66 0 59 0;
#X connect 67 0 75 0;
#X connect 69 0 70 0;
#X connect 69 0 80 0;
#X connect 69 0 81 0;
#X connect 69 0 85 0;
#X connect 70 0 0 0;
#X connect 71 0 58 0;
#X connect 72 0 62 0;
#X connect 73 0 19 0;
#X connect 74 0 16 0;
#X connect 75 0 21 0;
#X connect 76 0 17 0;
#X connect 78 0 75 2;
#X connect 79 0 78 0;
#X connect 80 0 0 0;
#X connect 81 0 0 0;
#X connect 82 0 70 0;
#X connect 82 0 80 0;
#X connect 82 0 81 0;
#X connect 82 0 85 0;
#X connect 84 0 93 0;
#X connect 85 0 0 0;
#X connect 86 0 88 0;
#X connect 87 0 88 0;
#X connect 89 0 88 0;
#X connect 90 0 91 0;
#X connect 90 1 91 0;
#X connect 90 2 91 0;
#X connect 91 0 0 0;
#X connect 92 0 91 1;
#X connect 93 0 75 1;
#X restore -257 -22 pd LYM_spectrum_v4;
#X obj -257 -172 tgl 15 0 empty empty empty 17 7 0 10 -262144 -1 -1
1 1;
#X obj -257 -151 tgl 15 0 empty empty empty 17 7 0 10 -262144 -1 -1
1 1;
#X obj -257 -129 tgl 15 0 empty empty empty 17 7 0 10 -262144 -1 -1
1 1;
#X obj -257 -108 tgl 15 0 empty empty empty 17 7 0 10 -262144 -1 -1
1 1;
#X obj -307 -306 bng 15 250 50 0 empty empty empty 0 -6 0 8 -24198
-1 -1;
#X obj -250 -306 bng 15 250 50 0 empty empty empty 0 -6 0 8 -258699
-1 -1;
#X obj -307 -324 loadbang;
#X text -311 -341 UDP connection;
#X obj -257 -85 tgl 15 0 empty empty empty 17 7 0 10 -262144 -1 -1
1 1;
#X text -233 -172 1: xy-spectrum;
#X text -233 -150 2: color-spectrum;
#X text -233 -107 4: brush-radius;
#X obj -309 -159 bng 15 250 50 0 empty empty empty 17 7 0 10 -262144
-1 -1;
#X obj -309 -184 loadbang;
#X msg -309 -132 1;
#N canvas 142 206 1069 663 MIDIControl_Faders 0;
#X obj 429 199 vsl 15 128 0 1 0 0 empty empty empty 0 -8 0 8 -162280
-1 -1 12700 1;
#X obj 429 166 bng 15 250 50 0 empty empty empty 17 7 0 10 -262144
-1 -1;
#X obj 429 150 loadbang;
#X msg 429 181 1;
#X obj 18 -113 vsl 15 128 0 1 0 0 empty empty empty 0 -8 0 8 -258113
-1 -1 12700 1;
#X obj 33 -113 vsl 15 128 0 1 0 0 empty empty empty 0 -8 0 8 -4034
-1 -1 12700 1;
#X obj 63 -113 vsl 15 128 0 1 0 0 empty empty empty 0 -8 0 8 -162280
-1 -1 12700 1;
#X obj 48 -113 vsl 15 128 0 1 0 0 empty empty empty 0 -8 0 8 -4160
-1 -1 12700 1;
#X obj 18 -157 bng 15 250 50 0 empty empty empty 17 7 0 10 -262144
-1 -1;
#X obj 18 -173 loadbang;
#X obj 19 52 pack f f f f;
#X msg 19 68 send /local_color \$1 \$2 \$3 \$4;
#X obj 15 525 bng 15 250 50 0 empty empty empty 17 7 0 10 -262144 -1
-1;
#X obj 15 506 loadbang;
#X obj 15 569 vsl 15 128 -2000 2000 0 0 empty empty empty 0 -8 0 8
-262144 -1 -1 6350 1;
#X obj 15 747 s message;
#X obj 19 84 s message;
#X obj 429 352 s message;
#X obj 121 -147 ctlin 13 1;
#X obj 121 -131 / 127;
#X obj 118 -89 / 127;
#X obj 119 -46 / 127;
#X obj 118 -105 ctlin 12 1;
#X obj 119 -62 ctlin 10 1;
#X obj 669 -145 bng 15 250 50 0 empty empty empty 0 -6 0 8 -262144
-1 -1;
#X obj 684 -98 vsl 15 128 0 8 0 0 0 empty empty 0 -8 0 8 -262144 -1
-1 0 1;
#X obj 727 -98 vsl 15 128 0 40 0 0 0 empty empty 0 -8 0 8 -262144 -1
-1 0 1;
#X obj 699 -98 vsl 15 128 0 8 0 0 0 empty empty 0 -8 0 8 -262144 -1
-1 0 1;
#X obj 712 -98 vsl 15 128 0 40 0 0 0 empty empty 0 -8 0 8 -262144 -1
-1 0 1;
#X obj 773 112 s message;
#X msg 700 -116 0;
#X msg 720 -115 0;
#X msg 738 -115 0;
#X obj 670 -161 loadbang;
#X msg 684 -116 0;
#X text 665 -178 MUSIC CONTROL;
#X msg 16 545 0;
#X obj 600 558 vsl 15 128 0 100 0 0 empty empty empty 0 -8 0 8 -262144
-1 -1 0 1;
#X obj 601 525 bng 15 250 50 0 empty empty empty 17 7 0 10 -262144
-1 -1;
#X obj 601 509 loadbang;
#X obj 603 712 s message;
#X obj 254 -67 / 127;
#X obj 230 -94 vsl 15 128 0 1 0 0 empty empty empty 0 -8 0 8 -162280
-1 -1 0 1;
#X obj 230 -127 bng 15 250 50 0 empty empty empty 17 7 0 10 -262144
-1 -1;
#X obj 230 -143 loadbang;
#X msg 230 -112 0;
#X obj 230 53 s message;
#X obj 254 -83 ctlin 7 2;
#X obj 498 181 / 127;
#X obj 155 -131 * -1;
#X obj 183 -131 + 1;
#X obj 152 -89 * -1;
#X obj 180 -89 + 1;
#X obj 153 -46 * -1;
#X obj 181 -46 + 1;
#X obj 288 -67 * -1;
#X obj 316 -67 + 1;
#X obj 625 586 / 1.27;
#X obj 366 -97 vsl 15 128 0 400 0 0 empty empty empty 0 -8 0 8 -262144
-1 -1 0 1;
#X obj 367 -130 bng 15 250 50 0 empty empty empty 17 7 0 10 -262144
-1 -1;
#X obj 367 -146 loadbang;
#X msg 367 -115 0;
#X obj 368 55 s message;
#X obj 411 -102 ctlin 7 3;
#X obj 119 -20 ctlin 7 1;
#X text 18 -191 LOCAL COLOR;
#X text 597 486 DOT FREQ / RADIUS;
#X text 226 -164 LOCAL GRAY;
#X text 426 132 BLEND COLOR/MASK;
#X obj 532 181 * -1;
#X obj 560 181 + 1;
#X obj 412 -86 / 12.7;
#X obj 451 -86 + 1;
#X obj 507 -97 vsl 15 128 1 40 0 0 empty empty empty 0 -8 0 8 -262144
-1 -1 0 1;
#X obj 508 -130 bng 15 250 50 0 empty empty empty 17 7 0 10 -262144
-1 -1;
#X obj 508 -146 loadbang;
#X obj 569 -74 + 1;
#X text 520 -170 WIDE RANGE RADIUS;
#X msg 230 37 send /local_gray \$1;
#X obj 529 -90 ctlin 7 4;
#X obj 530 -74 / 3.2;
#X obj 402 -24 *;
#X obj 477 -62 bng 15 250 50 0 empty empty empty 17 7 0 10 -262144
-1 -1;
#X msg 18 -131 1;
#X msg 34 -132 1;
#X msg 53 -130 1;
#X msg 69 -129 1;
#X obj 214 529 bng 15 250 50 0 empty empty empty 17 7 0 10 -262144
-1 -1;
#X obj 214 510 loadbang;
#X obj 214 573 vsl 15 128 0 90 0 0 empty empty empty 0 -8 0 8 -262144
-1 -1 0 1;
#X obj 214 736 s message;
#X text 17 487 PRE TRANSLATION;
#X obj 414 526 bng 15 250 50 0 empty empty empty 17 7 0 10 -262144
-1 -1;
#X obj 414 507 loadbang;
#X obj 414 570 vsl 15 128 -2000 2000 0 0 empty empty empty 0 -8 0 8
-262144 -1 -1 6350 1;
#X obj 429 570 vsl 15 128 0 1000 0 0 empty empty empty 0 -8 0 8 -262144
-1 -1 0 1;
#X obj 444 570 vsl 15 128 0 10000 0 0 empty empty empty 0 -8 0 8 -262144
-1 -1 0 1;
#X obj 414 745 pack f f f;
#X obj 414 777 s message;
#X msg 414 552 0;
#X msg 429 552 0;
#X msg 443 552 0;
#X text 412 490 POST TRANSLATION;
#X msg 414 761 send /post_translation \$1 \$2 \$3;
#X obj 503 55 ctlin;
#X floatatom 480 86 5 0 0 0 - - -;
#X floatatom 517 88 5 0 0 0 - - -;
#X floatatom 556 88 5 0 0 0 - - -;
#X obj 117 -3 / 127;
#X obj 151 -3 * -1.1;
#X obj 193 -3 + 1.1;
#X text 212 493 EURLER ANGLES;
#X msg 366 38 send /local_radius \$1;
#X obj 249 609 ctlin 13 7;
#X obj 623 565 ctlin 13 3;
#X obj 138 202 vsl 15 128 0 2 0 0 empty empty empty 0 -8 0 8 -262144
-1 -1 0 1;
#X obj 138 169 bng 15 250 50 0 empty empty empty 17 7 0 10 -262144
-1 -1;
#X obj 138 153 loadbang;
#X msg 138 184 0;
#X obj 138 349 s message;
#X obj 498 165 ctlin 28 1;
#X obj 214 704 pack f;
#X msg 214 720 send /Euler_rotation_x \$1;
#X obj 283 625 * 90;
#X msg 214 555 0;
#X obj 249 625 / 127;
#X obj 480 608 ctlin 12 7;
#X obj 482 655 ctlin 10 7;
#X msg 15 732 send /pre_translation \$1;
#X obj 29 569 vsl 15 128 -2000 2000 0 0 empty empty empty 0 -8 0 8
-262144 -1 -1 6350 1;
#X obj 44 569 vsl 15 128 -2000 2000 0 0 empty empty empty 0 -8 0 8
-262144 -1 -1 6350 1;
#X obj 15 716 pack f f f;
#X text 70 612 No interactive;
#X text 69 623 control for;
#X text 68 635 pre translation;
#X text 68 648 because it is used;
#X text 66 659 for automated animation;
#X obj 482 623 / 0.0127;
#X obj 481 671 / 0.127;
#X obj 182 205 ctlin 7 7;
#X msg 138 333 send /linear_speed \$1;
#X obj 669 -98 vsl 15 128 0 8 0 0 0 empty empty 0 -8 0 8 -262144 -1
-1 0 1;
#X msg 669 -116 0;
#X obj 785 -175 ctlin 13 5;
#X msg 600 694 send /global_radius \$1;
#X msg 602 540 0;
#X obj 19 197 vsl 15 128 0.009999 0.9999 1 0 empty empty empty 0 -8
0 8 -262144 -1 -1 0 1;
#X obj 19 164 bng 15 250 50 0 empty empty empty 17 7 0 10 -262144 -1
-1;
#X obj 19 148 loadbang;
#X obj 18 422 s message;
#X msg 18 406 send /echo \$1;
#X msg 19 179 0;
#X obj 19 341 -;
#X msg 91 304 1;
#X obj 75 278 bng 15 250 50 0 empty empty empty 17 7 0 10 -262144 -1
-1;
#X obj 51 228 / 127;
#X obj 18 385 + 0.0001;
#X obj 19 364 pow 10;
#X obj 920 -123 bng 15 250 50 0 empty empty empty 17 7 0 10 -262144
-1 -1;
#X obj 920 -142 loadbang;
#X obj 920 -79 vsl 15 128 0 1 0 0 empty empty empty 0 -8 0 8 -262144
-1 -1 0 1;
#X obj 920 68 s message;
#X msg 920 -97 0;
#X msg 935 -97 0;
#X obj 987 -24 / 127;
#X obj 51 213 ctlin 7 5;
#X obj 781 18 / 4;
#X obj 642 151 bng 15 250 50 0 empty empty empty 17 7 0 10 -262144
-1 -1;
#X obj 642 132 loadbang;
#X obj 642 195 vsl 15 128 0 1 0 0 empty empty empty 0 -8 0 8 -262144
-1 -1 0 1;
#X obj 657 195 vsl 15 128 0 1 0 0 empty empty empty 0 -8 0 8 -262144
-1 -1 0 1;
#X obj 672 195 vsl 15 128 0 1 0 0 empty empty empty 0 -8 0 8 -262144
-1 -1 0 1;
#X obj 642 407 s message;
#X msg 642 177 0;
#X msg 657 177 0;
#X msg 671 177 0;
#X text 640 115 POST EFFECTS;
#X obj 725 165 / 127;
#X obj 722 207 / 127;
#X obj 723 250 / 127;
#X obj 723 276 ctlin 7 1;
#X obj 721 293 / 127;
#X obj 642 375 pack f f f f;
#X obj 687 195 vsl 15 128 0 1 0 0 empty empty empty 0 -8 0 8 -262144
-1 -1 0 1;
#X msg 686 177 0;
#X msg 642 391 send /post_effects \$1 \$2 \$3 \$4;
#X obj 725 149 ctlin 13 8;
#X obj 722 191 ctlin 12 8;
#X obj 723 234 ctlin 10 8;
#X obj 684 48 t b f;
#X obj 726 49 t b f;
#X obj 767 49 t b f;
#X obj 809 50 t b f;
#X obj 37 28 t b f;
#X obj 78 27 t b f;
#X obj 124 29 t b f;
#X obj 657 338 t b f;
#X obj 698 337 t b f;
#X obj 744 339 t b f;
#X obj 419 712 t b f;
#X obj 465 714 t b f;
#X text 16 130 ECHO;
#X text 364 -170 SMALL RANGE LOCAL RADIUS;
#X text 918 -159 NOISE;
#X text 140 128 ROTATION SPEED;
#X msg 920 52 send /noise \$1;
#X obj 785 -131 ctlin 12 5;
#X obj 784 -87 ctlin 10 5;
#X obj 987 -40 ctlin 13 6;
#X obj 742 -98 vsl 15 128 0 40 0 0 0 empty empty 0 -8 0 8 -262144 -1
-1 0 1;
#X msg 753 -115 0;
#X obj 850 50 t b f;
#X obj 669 80 pack f f f f f f;
#X msg 669 96 send /music_control \$1 \$2 \$3 \$4 \$5 \$6;
#X obj 854 2 ctlin 7 6;
#X obj 854 18 / 4;
#X obj 781 2 ctlin 10 6;
#X obj 782 -41 ctlin 12 6;
#X obj 182 220 / 1024;
#X obj 782 -26 / 64;
#X obj 845 203 vsl 15 128 0 1 0 0 empty empty empty 0 -8 0 8 -262144
-1 -1 0 1;
#X obj 845 170 bng 15 250 50 0 empty empty empty 17 7 0 10 -262144
-1 -1;
#X obj 845 151 loadbang;
#X msg 845 185 0;
#X obj 845 351 s message;
#X msg 845 334 send /decay \$1;
#X text 841 131 DECAY;
#X obj 884 205 ctlin 7 8;
#X obj 884 221 / 127;
#X obj 304 194 vsl 15 128 1 10 0 0 empty empty empty 0 -8 0 8 -262144
-1 -1 0 1;
#X obj 305 161 bng 15 250 50 0 empty empty empty 17 7 0 10 -262144
-1 -1;
#X obj 305 145 loadbang;
#X obj 366 217 + 1;
#X obj 199 267 *;
#X obj 274 229 bng 15 250 50 0 empty empty empty 17 7 0 10 -262144
-1 -1;
#X obj 326 201 ctlin 7 8;
#X msg 305 175 1;
#X msg 508 -115 1;
#X msg 429 336 send /blend_alpha \$1;
#X obj 327 217 / 12.7;
#X obj 785 -159 / 16;
#X obj 785 -115 / 16;
#X obj 784 -71 / 16;
#X connect 0 0 238 0;
#X connect 1 0 3 0;
#X connect 2 0 1 0;
#X connect 3 0 0 0;
#X connect 4 0 10 0;
#X connect 5 0 193 0;
#X connect 6 0 195 0;
#X connect 7 0 194 0;
#X connect 8 0 83 0;
#X connect 8 0 84 0;
#X connect 8 0 85 0;
#X connect 8 0 86 0;
#X connect 9 0 8 0;
#X connect 10 0 11 0;
#X connect 11 0 16 0;
#X connect 12 0 36 0;
#X connect 13 0 12 0;
#X connect 18 0 19 0;
#X connect 19 0 49 0;
#X connect 20 0 51 0;
#X connect 21 0 53 0;
#X connect 22 0 20 0;
#X connect 23 0 21 0;
#X connect 24 0 32 0;
#X connect 24 0 31 0;
#X connect 24 0 30 0;
#X connect 24 0 34 0;
#X connect 24 0 142 0;
#X connect 24 0 210 0;
#X connect 25 0 189 0;
#X connect 26 0 192 0;
#X connect 27 0 190 0;
#X connect 28 0 191 0;
#X connect 30 0 27 0;
#X connect 31 0 28 0;
#X connect 32 0 26 0;
#X connect 33 0 24 0;
#X connect 34 0 25 0;
#X connect 36 0 14 0;
#X connect 36 0 129 0;
#X connect 36 0 130 0;
#X connect 37 0 144 0;
#X connect 38 0 145 0;
#X connect 39 0 38 0;
#X connect 41 0 55 0;
#X connect 42 0 78 0;
#X connect 43 0 45 0;
#X connect 44 0 43 0;
#X connect 45 0 42 0;
#X connect 47 0 41 0;
#X connect 48 0 69 0;
#X connect 49 0 50 0;
#X connect 50 0 4 0;
#X connect 51 0 52 0;
#X connect 52 0 5 0;
#X connect 53 0 54 0;
#X connect 54 0 7 0;
#X connect 55 0 56 0;
#X connect 56 0 42 0;
#X connect 58 0 112 0;
#X connect 59 0 61 0;
#X connect 60 0 59 0;
#X connect 61 0 58 0;
#X connect 63 0 71 0;
#X connect 64 0 108 0;
#X connect 69 0 70 0;
#X connect 70 0 0 0;
#X connect 71 0 72 0;
#X connect 72 0 81 0;
#X connect 73 0 81 1;
#X connect 74 0 237 0;
#X connect 75 0 74 0;
#X connect 76 0 73 0;
#X connect 76 0 82 0;
#X connect 78 0 46 0;
#X connect 79 0 80 0;
#X connect 80 0 76 0;
#X connect 81 0 58 0;
#X connect 82 0 81 0;
#X connect 83 0 4 0;
#X connect 84 0 5 0;
#X connect 85 0 7 0;
#X connect 86 0 6 0;
#X connect 87 0 124 0;
#X connect 88 0 87 0;
#X connect 89 0 121 0;
#X connect 92 0 99 0;
#X connect 92 0 100 0;
#X connect 92 0 101 0;
#X connect 93 0 92 0;
#X connect 94 0 97 0;
#X connect 95 0 199 0;
#X connect 96 0 200 0;
#X connect 97 0 103 0;
#X connect 99 0 94 0;
#X connect 100 0 95 0;
#X connect 101 0 96 0;
#X connect 103 0 98 0;
#X connect 104 0 105 0;
#X connect 104 1 106 0;
#X connect 104 2 107 0;
#X connect 108 0 109 0;
#X connect 109 0 110 0;
#X connect 110 0 6 0;
#X connect 112 0 62 0;
#X connect 113 0 125 0;
#X connect 114 0 57 0;
#X connect 115 0 140 0;
#X connect 116 0 118 0;
#X connect 117 0 116 0;
#X connect 118 0 115 0;
#X connect 120 0 48 0;
#X connect 121 0 122 0;
#X connect 122 0 90 0;
#X connect 124 0 89 0;
#X connect 125 0 123 0;
#X connect 126 0 137 0;
#X connect 127 0 138 0;
#X connect 128 0 15 0;
#X connect 131 0 128 0;
#X connect 139 0 218 0;
#X connect 140 0 119 0;
#X connect 141 0 212 0;
#X connect 142 0 141 0;
#X connect 143 0 240 0;
#X connect 144 0 40 0;
#X connect 145 0 37 0;
#X connect 146 0 154 0;
#X connect 146 0 152 1;
#X connect 147 0 151 0;
#X connect 148 0 147 0;
#X connect 150 0 149 0;
#X connect 151 0 146 0;
#X connect 152 0 157 0;
#X connect 153 0 152 0;
#X connect 154 0 153 0;
#X connect 155 0 146 0;
#X connect 156 0 150 0;
#X connect 157 0 156 0;
#X connect 158 0 162 0;
#X connect 158 0 163 0;
#X connect 159 0 158 0;
#X connect 160 0 205 0;
#X connect 162 0 160 0;
#X connect 164 0 160 0;
#X connect 165 0 155 0;
#X connect 166 0 26 0;
#X connect 167 0 173 0;
#X connect 167 0 174 0;
#X connect 167 0 175 0;
#X connect 167 0 184 0;
#X connect 168 0 167 0;
#X connect 169 0 182 0;
#X connect 170 0 196 0;
#X connect 171 0 197 0;
#X connect 173 0 169 0;
#X connect 174 0 170 0;
#X connect 175 0 171 0;
#X connect 177 0 169 0;
#X connect 178 0 171 0;
#X connect 180 0 181 0;
#X connect 182 0 185 0;
#X connect 183 0 198 0;
#X connect 184 0 183 0;
#X connect 185 0 172 0;
#X connect 186 0 177 0;
#X connect 187 0 178 0;
#X connect 188 0 179 0;
#X connect 189 0 212 0;
#X connect 189 1 212 1;
#X connect 190 0 212 0;
#X connect 190 1 212 2;
#X connect 191 0 212 0;
#X connect 191 1 212 3;
#X connect 192 0 212 0;
#X connect 192 1 212 4;
#X connect 193 0 10 0;
#X connect 193 1 10 1;
#X connect 194 0 10 0;
#X connect 194 1 10 2;
#X connect 195 0 10 0;
#X connect 195 1 10 3;
#X connect 196 0 182 0;
#X connect 196 1 182 1;
#X connect 197 0 182 0;
#X connect 197 1 182 2;
#X connect 198 0 182 0;
#X connect 198 1 182 3;
#X connect 199 0 97 0;
#X connect 199 1 97 1;
#X connect 200 0 97 0;
#X connect 200 1 97 2;
#X connect 205 0 161 0;
#X connect 206 0 241 0;
#X connect 207 0 242 0;
#X connect 208 0 164 0;
#X connect 209 0 211 0;
#X connect 210 0 209 0;
#X connect 211 0 212 0;
#X connect 211 1 212 5;
#X connect 212 0 213 0;
#X connect 213 0 29 0;
#X connect 214 0 215 0;
#X connect 215 0 209 0;
#X connect 216 0 166 0;
#X connect 217 0 219 0;
#X connect 218 0 233 0;
#X connect 219 0 28 0;
#X connect 220 0 225 0;
#X connect 221 0 223 0;
#X connect 222 0 221 0;
#X connect 223 0 220 0;
#X connect 225 0 224 0;
#X connect 227 0 228 0;
#X connect 229 0 233 1;
#X connect 230 0 236 0;
#X connect 231 0 230 0;
#X connect 232 0 229 0;
#X connect 232 0 234 0;
#X connect 233 0 115 0;
#X connect 234 0 233 0;
#X connect 235 0 239 0;
#X connect 236 0 229 0;
#X connect 237 0 73 0;
#X connect 238 0 17 0;
#X connect 239 0 232 0;
#X connect 240 0 141 0;
#X connect 241 0 25 0;
#X connect 242 0 27 0;
#X coords 0 0 10 10 0 0 0;
#X restore -157 72 pd MIDIControl_Faders;
#N canvas 570 122 828 761 MIDIControl_Buttons 0;
#X obj 465 -16 vsl 15 128 0 1 0 0 empty empty empty 0 -8 0 8 -262144
-1 -1 0 1;
#X obj 466 -49 bng 15 250 50 0 empty empty empty 17 7 0 10 -262144
-1 -1;
#X obj 466 -68 loadbang;
#X msg 466 -34 0;
#X obj 465 132 s message;
#X obj 490 31 / 127;
#X obj 597 -18 vsl 15 128 0 1 0 0 empty empty empty 0 -8 0 8 -262144
-1 -1 0 1;
#X obj 598 -51 bng 15 250 50 0 empty empty empty 17 7 0 10 -262144
-1 -1;
#X obj 598 -70 loadbang;
#X msg 598 -36 0;
#X obj 597 130 s message;
#X obj 622 29 / 127;
#X obj 485 227 vsl 15 128 0 1 0 0 empty empty empty 0 -8 0 8 -262144
-1 -1 0 1;
#X obj 486 194 bng 15 250 50 0 empty empty empty 17 7 0 10 -262144
-1 -1;
#X obj 486 175 loadbang;
#X msg 486 209 0;
#X obj 510 274 / 127;
#X obj 485 374 s message;
#X obj 12 228 vsl 15 128 0 1 0 0 empty empty empty 0 -8 0 8 -262144
-1 -1 0 1;
#X obj 12 195 bng 15 250 50 0 empty empty empty 17 7 0 10 -262144 -1
-1;
#X obj 12 176 loadbang;
#X msg 12 210 0;
#X obj 12 376 s message;
#X obj 36 275 / 127;
#X obj 126 229 vsl 15 128 0 1 0 0 empty empty empty 0 -8 0 8 -262144
-1 -1 0 1;
#X obj 126 196 bng 15 250 50 0 empty empty empty 17 7 0 10 -262144
-1 -1;
#X obj 126 177 loadbang;
#X msg 126 211 0;
#X obj 126 377 s message;
#X obj 150 276 / 127;
#X obj 8 482 vsl 15 128 0 1 0 0 empty empty empty 0 -8 0 8 -262144
-1 -1 0 1;
#X obj 8 449 bng 15 250 50 0 empty empty empty 17 7 0 10 -262144 -1
-1;
#X obj 8 430 loadbang;
#X msg 8 464 0;
#X obj 8 630 s message;
#X obj 31 521 / 127;
#X obj 510 258 ctlin 18 1;
#X obj 11 -17 vsl 15 128 0 1 0 0 empty empty empty 0 -8 0 8 -262144
-1 -1 0 1;
#X obj 11 -50 bng 15 250 50 0 empty empty empty 17 7 0 10 -262144 -1
-1;
#X obj 11 -69 loadbang;
#X msg 11 -35 0;
#X obj 11 130 s message;
#X obj 35 30 / 127;
#X obj 34 14 ctlin 19 1;
#X obj 128 -20 vsl 15 128 0 1 0 0 empty empty empty 0 -8 0 8 -262144
-1 -1 0 1;
#X obj 128 -53 bng 15 250 50 0 empty empty empty 17 7 0 10 -262144
-1 -1;
#X obj 128 -72 loadbang;
#X msg 128 -38 0;
#X obj 128 126 s message;
#X obj 152 27 / 127;
#X obj 151 11 ctlin 20 1;
#X obj 137 483 vsl 15 128 0 1 0 0 empty empty empty 0 -8 0 8 -262144
-1 -1 0 1;
#X obj 137 450 bng 15 250 50 0 empty empty empty 17 7 0 10 -262144
-1 -1;
#X obj 137 431 loadbang;
#X msg 137 465 0;
#X obj 137 631 s message;
#X obj 160 522 / 127;
#X obj 456 479 vsl 15 128 0 1 0 0 empty empty empty 0 -8 0 8 -262144
-1 -1 0 1;
#X obj 456 446 bng 15 250 50 0 empty empty empty 17 7 0 10 -262144
-1 -1;
#X obj 456 427 loadbang;
#X msg 456 461 0;
#X obj 456 647 s message;
#X obj 479 518 / 127;
#X obj 284 480 vsl 15 128 0 1 0 0 empty empty empty 0 -8 0 8 -262144
-1 -1 0 1;
#X obj 284 447 bng 15 250 50 0 empty empty empty 17 7 0 10 -262144
-1 -1;
#X obj 284 428 loadbang;
#X msg 284 462 0;
#X obj 284 628 s message;
#X obj 307 519 / 127;
#X obj 30 505 ctlin 14 1;
#X obj 159 506 ctlin 15 1;
#X msg 12 360 send /brush_minus;
#X msg 126 361 send /brush_plus;
#X obj 243 -19 vsl 15 128 0 1 0 0 empty empty empty 0 -8 0 8 -262144
-1 -1 0 1;
#X obj 243 -52 bng 15 250 50 0 empty empty empty 17 7 0 10 -262144
-1 -1;
#X obj 243 -71 loadbang;
#X msg 243 -37 0;
#X obj 242 374 s message;
#X obj 267 28 / 127;
#X obj 266 12 ctlin 21 1;
#X obj 243 226 vsl 15 128 0 1 0 0 empty empty empty 0 -8 0 8 -262144
-1 -1 0 1;
#X obj 244 193 bng 15 250 50 0 empty empty empty 17 7 0 10 -262144
-1 -1;
#X obj 244 174 loadbang;
#X msg 244 208 0;
#X obj 268 273 / 127;
#X obj 267 257 ctlin 24 1;
#X obj 724 -18 vsl 15 128 0 1 0 0 empty empty empty 0 -8 0 8 -262144
-1 -1 0 1;
#X obj 724 -51 bng 15 250 50 0 empty empty empty 17 7 0 10 -262144
-1 -1;
#X obj 724 -70 loadbang;
#X msg 724 -36 0;
#X obj 724 129 s message;
#X obj 748 29 / 127;
#X obj 747 13 ctlin 27 1;
#X text 11 -87 DRAING MODE;
#X text 11 160 BRUSH;
#X text 485 157 BLACK/WHITE;
#X text 8 409 SPREADING MODE;
#X msg 243 358 send /clear_CLEAR;
#X obj 306 503 ctlin 16 1;
#X obj 479 502 ctlin 17 1;
#X msg 485 357 send /black_white \$1;
#X obj 35 259 ctlin 22 1;
#X obj 149 260 ctlin 23 1;
#X obj 489 15 ctlin 25 1;
#X obj 621 13 ctlin 26 1;
#X msg 724 113 send /snapshot;
#X msg 11 114 send /mode_minus;
#X msg 128 110 send /mode_plus;
#X msg 136 615 send /ramp_scene_post_Z;
#X msg 284 612 send /ramp_linear_speed;
#X msg 8 614 send /ramp_angle_X;
#X msg 456 631 send /on_off_linear_speed;
#X obj 243 127 s message;
#X msg 243 111 send /init_linear_speed;
#X text 467 -87 GRANULAR;
#X msg 465 116 send /granular_minus;
#X msg 597 114 send /granular_plus;
#X connect 0 0 115 0;
#X connect 1 0 3 0;
#X connect 2 0 1 0;
#X connect 3 0 0 0;
#X connect 5 0 0 0;
#X connect 6 0 116 0;
#X connect 7 0 9 0;
#X connect 8 0 7 0;
#X connect 9 0 6 0;
#X connect 11 0 6 0;
#X connect 12 0 100 0;
#X connect 13 0 15 0;
#X connect 14 0 13 0;
#X connect 15 0 12 0;
#X connect 16 0 12 0;
#X connect 18 0 71 0;
#X connect 19 0 21 0;
#X connect 20 0 19 0;
#X connect 21 0 18 0;
#X connect 23 0 18 0;
#X connect 24 0 72 0;
#X connect 25 0 27 0;
#X connect 26 0 25 0;
#X connect 27 0 24 0;
#X connect 29 0 24 0;
#X connect 30 0 110 0;
#X connect 31 0 33 0;
#X connect 32 0 31 0;
#X connect 33 0 30 0;
#X connect 35 0 30 0;
#X connect 36 0 16 0;
#X connect 37 0 106 0;
#X connect 38 0 40 0;
#X connect 39 0 38 0;
#X connect 40 0 37 0;
#X connect 42 0 37 0;
#X connect 43 0 42 0;
#X connect 44 0 107 0;
#X connect 45 0 47 0;
#X connect 46 0 45 0;
#X connect 47 0 44 0;
#X connect 49 0 44 0;
#X connect 50 0 49 0;
#X connect 51 0 108 0;
#X connect 52 0 54 0;
#X connect 53 0 52 0;
#X connect 54 0 51 0;
#X connect 56 0 51 0;
#X connect 58 0 60 0;
#X connect 59 0 58 0;
#X connect 60 0 57 0;
#X connect 62 0 57 0;
#X connect 63 0 109 0;
#X connect 64 0 66 0;
#X connect 65 0 64 0;
#X connect 66 0 63 0;
#X connect 68 0 63 0;
#X connect 69 0 35 0;
#X connect 70 0 56 0;
#X connect 71 0 22 0;
#X connect 72 0 28 0;
#X connect 73 0 113 0;
#X connect 74 0 76 0;
#X connect 75 0 74 0;
#X connect 76 0 73 0;
#X connect 78 0 73 0;
#X connect 79 0 78 0;
#X connect 80 0 97 0;
#X connect 81 0 83 0;
#X connect 82 0 81 0;
#X connect 83 0 80 0;
#X connect 84 0 80 0;
#X connect 85 0 84 0;
#X connect 86 0 105 0;
#X connect 87 0 89 0;
#X connect 88 0 87 0;
#X connect 89 0 86 0;
#X connect 91 0 86 0;
#X connect 92 0 91 0;
#X connect 97 0 77 0;
#X connect 98 0 68 0;
#X connect 99 0 62 0;
#X connect 100 0 17 0;
#X connect 101 0 23 0;
#X connect 102 0 29 0;
#X connect 103 0 5 0;
#X connect 104 0 11 0;
#X connect 105 0 90 0;
#X connect 106 0 41 0;
#X connect 107 0 48 0;
#X connect 108 0 55 0;
#X connect 109 0 67 0;
#X connect 110 0 34 0;
#X connect 111 0 61 0;
#X connect 113 0 112 0;
#X connect 115 0 4 0;
#X connect 116 0 10 0;
#X coords 0 0 10 10 0 0 0;
#X restore -157 92 pd MIDIControl_Buttons;
#N canvas 890 75 505 260 playsoundtrack 0;
#X msg 53 61 1;
#X obj 33 168 dac~ 1 2;
#X obj 33 149 readsf~ 2;
#X obj 101 152 env~ 16384;
#X floatatom 101 171 0 0 0 0 - - -;
#X obj 195 151 env~ 16384;
#X floatatom 195 170 0 0 0 0 - - -;
#X msg 281 54 0;
#X obj 281 34 r stopsoundtrack;
#X obj 33 34 r startsoundtrack;
#X obj 163 28 r startclock;
#X msg 33 99 open /home/christian/3D/LYM/sounds/citywalk9.wav;
#X connect 0 0 2 0;
#X connect 2 0 1 0;
#X connect 2 1 1 1;
#X connect 3 0 4 0;
#X connect 5 0 6 0;
#X connect 7 0 11 0;
#X connect 8 0 7 0;
#X connect 9 0 11 0;
#X connect 9 0 0 0;
#X connect 11 0 2 0;
#X restore -156 142 pd playsoundtrack;
#N canvas 512 225 565 684 myclock 0;
#X obj -30 73 / 60;
#X obj -30 101 int;
#X obj 57 149 -;
#X obj 72 117 * 60;
#X obj -30 -26 timer;
#X obj -30 -2 / 1000;
#X obj -3 -53 metro 1000;
#X obj -30 -68 bng 15 250 50 0 empty empty empty 17 7 0 10 -262144
-1 -1;
#X obj -30 30 int;
#X obj -30 -93 inlet;
#X obj -30 180 outlet;
#X obj 57 179 outlet;
#X text -32 -116 launch msg reception;
#X text -5 -70 start of the elapsed time count;
#X text -23 211 DISPLAY IN LIVE SCORE;
#X text -23 199 MN/SEC ELAPSED TIME;
#X text 208 502 for parameter and scene name display;
#X text 209 489 sends scene number;
#X text 52 488 sends scene duration;
#X text 52 501 for countdown display;
#X text 52 514 in livescore;
#X text 209 515 in livescore;
#X floatatom 73 67 5 0 0 0 - - -;
#X msg 281 -110 0;
#X msg 281 -89 280;
#X msg 281 -47 724;
#X msg 281 -26 811;
#X obj 89 14 +;
#X obj 104 -94 inlet;
#X text 104 -117 offset;
#X floatatom 203 -4 5 0 0 0 - - -;
#X text 315 -107 0: FACE;
#X text 317 -89 280: WALL;
#X text 314 -47 724: CITY;
#X text 313 -26 811: DANCE;
#X msg 332 103 15 0;
#X msg 358 129 275 1;
#X msg 384 160 454 2;
#X msg 410 193 144 3;
#X msg 436 225 47 4;
#X obj 332 53 route 0 15 290 744 888 920;
#X obj 332 469 s startcountdown;
#X msg 151 96 15 0;
#X msg 177 122 275 1;
#X obj 151 321 s startcountdown;
#X obj 151 46 route 0 15 290 450 750 920;
#X msg 230 185 300 3;
#X msg 256 218 170 4;
#X msg 203 153 160 2;
#X connect 0 0 1 0;
#X connect 1 0 3 0;
#X connect 1 0 10 0;
#X connect 2 0 11 0;
#X connect 3 0 2 1;
#X connect 4 0 5 0;
#X connect 5 0 27 0;
#X connect 6 0 4 1;
#X connect 7 0 4 0;
#X connect 7 0 6 0;
#X connect 8 0 0 0;
#X connect 8 0 2 0;
#X connect 8 0 22 0;
#X connect 8 0 45 0;
#X connect 9 0 7 0;
#X connect 23 0 24 0;
#X connect 25 0 26 0;
#X connect 27 0 8 0;
#X connect 28 0 27 1;
#X connect 28 0 30 0;
#X connect 35 0 41 0;
#X connect 36 0 41 0;
#X connect 37 0 41 0;
#X connect 38 0 41 0;
#X connect 39 0 41 0;
#X connect 40 0 35 0;
#X connect 40 1 36 0;
#X connect 40 2 37 0;
#X connect 40 3 38 0;
#X connect 40 4 39 0;
#X connect 42 0 44 0;
#X connect 43 0 44 0;
#X connect 45 0 42 0;
#X connect 45 1 43 0;
#X connect 45 2 48 0;
#X connect 45 3 46 0;
#X connect 45 4 47 0;
#X connect 46 0 44 0;
#X connect 47 0 44 0;
#X connect 48 0 44 0;
#X restore -108 -162 pd myclock;
#X obj -108 -247 r startclock;
#N canvas 1049 233 541 601 mycountdown 0;
#X obj -268 258 / 60;
#X obj -268 286 int;
#X obj -178 334 -;
#X obj -163 302 * 60;
#X obj -253 120 timer;
#X obj -253 144 / 1000;
#X obj -226 93 metro 1000;
#X obj -253 78 bng 15 250 50 0 empty empty empty 17 7 0 10 -262144
-1 -1;
#X obj -253 172 int;
#X obj -252 52 inlet;
#X obj -268 546 outlet;
#X obj -178 546 outlet;
#X floatatom -314 165 5 0 0 0 - - -;
#X obj -268 219 -;
#X obj -268 195 bng 15 250 50 0 empty empty empty 17 7 0 10 -262144
-1 -1;
#X obj -51 235 route 20 10 0;
#X msg -26 289 \; nextscene color 13 12;
#X msg -1 322 \; nextscene color 10 12;
#X msg -51 257 \; nextscene color 14 12;
#X text -291 14 receives scene durations;
#X text -290 27 and makes count down to be displayed in live score
;
#X text -43 214 WARNING COLOR DISPLAY IN LIVE SCORE;
#X text -295 573 MN/SEC COUNTDOWN DISPLAY IN LIVE SCORE;
#X floatatom -159 263 5 0 0 0 - - -;
#X floatatom -181 204 5 0 0 0 - - -;
#X text -131 74 INITIAL WGREY DISPLAY;
#X msg -120 93 \; nextscene color 10 12;
#X obj -51 441 s message;
#X obj -26 483 s message;
#X obj -1 524 s message;
#X msg -51 425 send /timer 1;
#X msg -26 467 send /timer 2;
#X msg -1 508 send /timer 0;
#X floatatom -51 190 5 0 0 0 - - -;
#X obj -251 496 s message;
#X msg -251 480 send /countdown \$2 \$1;
#X obj -251 381 pack f f;
#X obj -251 464 pack f f;
#X obj -251 397 route 50 40 30 20 10 0;
#X obj -159 365 - 1;
#X connect 0 0 1 0;
#X connect 1 0 3 0;
#X connect 1 0 10 0;
#X connect 1 0 37 1;
#X connect 2 0 11 0;
#X connect 2 0 36 0;
#X connect 2 0 39 0;
#X connect 3 0 2 1;
#X connect 4 0 5 0;
#X connect 5 0 8 0;
#X connect 6 0 4 1;
#X connect 7 0 4 0;
#X connect 7 0 6 0;
#X connect 7 0 26 0;
#X connect 8 0 13 1;
#X connect 8 0 14 0;
#X connect 8 0 24 0;
#X connect 9 0 7 0;
#X connect 9 0 12 0;
#X connect 12 0 13 0;
#X connect 13 0 0 0;
#X connect 13 0 2 0;
#X connect 13 0 15 0;
#X connect 13 0 23 0;
#X connect 14 0 13 0;
#X connect 15 0 18 0;
#X connect 15 0 30 0;
#X connect 15 1 16 0;
#X connect 15 1 31 0;
#X connect 15 2 17 0;
#X connect 15 2 32 0;
#X connect 30 0 27 0;
#X connect 31 0 28 0;
#X connect 32 0 29 0;
#X connect 33 0 15 0;
#X connect 35 0 34 0;
#X connect 36 0 38 0;
#X connect 37 0 35 0;
#X connect 38 0 37 0;
#X connect 38 1 37 0;
#X connect 38 2 37 0;
#X connect 38 3 37 0;
#X connect 38 4 37 0;
#X connect 38 5 37 0;
#X connect 39 0 36 1;
#X restore -108 -17 pd mycountdown;
#X obj -107 -95 r startcountdown;
#X obj -108 -77 unpack f f;
#N canvas 294 149 320 296 nextparams 0;
#X obj -292 16 inlet;
#X msg -246 222 \; nextscene label END;
#X msg -259 179 \; nextscene label DANCE;
#X msg -274 144 \; nextscene label CITY;
#X msg -289 107 \; nextscene label WALL;
#X msg -299 73 \; nextscene label FACE;
#X obj -301 45 route 0 1 2 3 4;
#X connect 0 0 6 0;
#X connect 6 0 5 0;
#X connect 6 1 4 0;
#X connect 6 2 3 0;
#X connect 6 3 2 0;
#X connect 6 4 1 0;
#X restore -51 -59 pd nextparams;
#N canvas 410 66 698 323 curparams 0;
#X obj -301 20 inlet;
#X text -87 25 COMMENTS ON CURRENT SCENE TO HELP FOR TRANSITION;
#X text -81 40 TO THE NEXT ONE;
#X msg -361 88 \; currentscene label PRELUDE;
#X msg -350 122 \; currentscene label FACE;
#X msg -336 159 \; currentscene label WALL;
#X msg -320 193 \; currentscene label CITY;
#X msg -307 237 \; currentscene label DANCE;
#X msg -288 283 \; currentscene label END;
#X msg -33 223 \; currentcomment label FINISH_WITH_DECAY;
#X msg -48 193 \; currentcomment label FINISH_WITH8ROT_X_AND_BLUR;
#X msg -63 159 \; currentcomment label FINISH_WITH_PLUS_Z_AND_DEBLUR
;
#X msg -78 122 \; currentcomment label FINISH_WITH_MUSIC_X;
#X msg -90 88 \; currentcomment label START;
#X obj -362 60 route 0 1 2 3 4 5;
#X obj -90 60 route 0 1 2 3 4 5;
#X msg -20 266 \; currentcomment label END;
#X connect 0 0 14 0;
#X connect 0 0 15 0;
#X connect 14 0 3 0;
#X connect 14 1 4 0;
#X connect 14 2 5 0;
#X connect 14 3 6 0;
#X connect 14 4 7 0;
#X connect 14 5 8 0;
#X connect 15 0 13 0;
#X connect 15 1 12 0;
#X connect 15 2 11 0;
#X connect 15 3 10 0;
#X connect 15 4 9 0;
#X connect 15 5 16 0;
#X restore -51 -40 pd curparams;
#X obj -108 -139 s elapsedmn;
#X obj -51 -117 s elapsedsec;
#X obj -108 4 s remainingmn;
#X obj -27 22 s remainingsec;
#X text -111 -267 launch msg reception;
#X text -111 -284 start of the elapsed time count;
#X text -196 -340 AUDIO ON;
#X obj -194 -323 loadbang;
#X msg -194 -307 \; pd dsp 1;
#X text -205 -278 compute audio;
#X text -159 53 USB Controller;
#X text -12 49 OSC message processing;
#X obj -84 -219 loadbang;
#X msg -84 -194 0;
#X obj -51 -194 r retake;
#N canvas 675 167 569 497 SC 0;
#X text 324 92 VOLUME;
#X text 325 149 DISTO;
#X obj 138 240 bng 15 250 50 0 empty empty empty 0 -6 0 8 -262144 -1
-1;
#X obj 270 406 bng 15 250 50 0 empty empty empty 0 -6 0 8 -262144 -1
-1;
#X obj 138 273 vsl 15 128 0 1 0 0 0 empty empty 0 -8 0 8 -262144 -1
-1 12700 1;
#X obj 153 273 vsl 15 128 0 1 0 0 0 empty empty 0 -8 0 8 -262144 -1
-1 2540 1;
#X obj 168 274 vsl 15 128 0 1 0 0 0 empty empty 0 -8 0 8 -262144 -1
-1 10160 1;
#X obj 139 224 loadbang;
#X text 134 207 MUSIC CONTROL;
#X obj 327 124 / 127;
#X obj 326 180 / 127;
#X obj 359 239 / 127;
#X obj 327 108 ctlin 13 7;
#X obj 327 164 ctlin 12 7;
#X obj 324 224 ctlin 10 7;
#X obj 240 274 vsl 15 128 0 1 0 0 0 empty empty 0 -8 0 8 -262144 -1
-1 3810 1;
#X obj 255 274 vsl 15 128 0 20 0 0 0 empty empty 0 -8 0 8 -262144 -1
-1 635 1;
#X obj 270 274 vsl 15 128 0 10 0 0 0 empty empty 0 -8 0 8 -262144 -1
-1 6350 1;
#X obj 452 259 / 127;
#X obj 452 243 ctlin 13 8;
#X obj 452 304 ctlin 12 8;
#X obj 453 398 ctlin 10 8;
#X obj 137 437 s messageSC;
#X msg 138 421 send /LolaMachine \$1 \$2 \$3 \$4 \$5 \$6;
#X obj 138 404 pack f f f f f f;
#X msg 99 255 1;
#X msg 139 255 0.2;
#X msg 174 256 0.8;
#X msg 211 256 0.3;
#X msg 244 256 1;
#X text 322 212 ROOM;
#X text 453 226 DELAY;
#X text 451 291 DELAY1;
#X text 449 384 DTIM;
#X msg 276 257 5;
#X obj 451 320 / 127;
#X obj 451 335 * 20;
#X obj 453 429 * 10;
#X obj 453 413 / 127;
#X connect 2 0 27 0;
#X connect 2 0 26 0;
#X connect 2 0 25 0;
#X connect 2 0 28 0;
#X connect 2 0 29 0;
#X connect 2 0 34 0;
#X connect 3 0 24 0;
#X connect 4 0 24 0;
#X connect 5 0 3 0;
#X connect 5 0 24 1;
#X connect 6 0 3 0;
#X connect 6 0 24 2;
#X connect 7 0 2 0;
#X connect 9 0 4 0;
#X connect 10 0 5 0;
#X connect 11 0 6 0;
#X connect 12 0 9 0;
#X connect 13 0 10 0;
#X connect 14 0 11 0;
#X connect 15 0 3 0;
#X connect 15 0 24 3;
#X connect 16 0 3 0;
#X connect 16 0 24 4;
#X connect 17 0 3 0;
#X connect 17 0 24 5;
#X connect 18 0 15 0;
#X connect 19 0 18 0;
#X connect 20 0 35 0;
#X connect 21 0 38 0;
#X connect 23 0 22 0;
#X connect 24 0 23 0;
#X connect 25 0 4 0;
#X connect 26 0 5 0;
#X connect 27 0 6 0;
#X connect 28 0 15 0;
#X connect 29 0 16 0;
#X connect 34 0 17 0;
#X connect 35 0 36 0;
#X connect 36 0 16 0;
#X connect 37 0 17 0;
#X connect 38 0 37 0;
#X restore 24 -166 pd SC;
#X text -234 -128 3: global-radius;
#X obj -125 -323 bng 15 250 50 0 empty empty empty 17 7 0 10 -4034
-1 -1;
#X obj -1 -324 bng 15 250 50 0 empty empty empty 17 7 0 10 -258113
-1 -1;
#X obj 15 -324 s stopsoundtrack;
#X text 1 -342 STOP SOUNDTRACK;
#X text -125 -342 START SOUNDTRACK;
#X text -233 -85 5: xy-attack;
#X obj -12 -241 bng 15 250 50 0 empty empty Manual_Start_Clock 17 7
0 10 -4034 -1 -1;
#X obj -111 -324 s startsoundtrack;
#X obj -309 103 vsl 60 60 0 20 0 0 empty empty empty 0 -12 1 20 -162280
-1 -262144 2110 1;
#X obj -310 78 r soundvolume;
#X obj -7 147 s startclock;
#X obj -7 127 route /launch;
#X text -156 126 soundtrack;
#X text -11 63 for launch signal;
#X obj -290 188 ctlin;
#X floatatom -315 220 5 0 0 0 - - -;
#X floatatom -276 221 5 0 0 0 - - -;
#X floatatom -236 222 5 0 0 0 - - -;
#X obj -311 7 loadbang;
#X obj -308 41 hsl 128 15 0 1 0 0 empty empty empty -2 -8 0 10 -262144
-1 -1 3000 1;
#X obj -311 56 s input_volume;
#X floatatom -209 56 5 0 0 0 - - -;
#X obj 35 104 routeOSC;
#X text -310 -201 music control;
#X obj -221 -224 s connect;
#X obj -307 -223 s disconnect;
#X obj -307 -265 bng 15 250 50 0 empty empty empty 0 -6 0 8 -24198
-1 -1;
#X text -285 -266 Manual connection;
#X obj -307 -243 delay 30000;
#X obj -221 -243 delay 30050;
#X obj -7 82 dumpOSC 1979;
#X msg -311 24 0.188;
#X obj -251 7 ctlin 13 2;
#X obj -250 24 / 127;
#X connect 2 0 1 0;
#X connect 3 0 1 1;
#X connect 4 0 1 2;
#X connect 5 0 1 3;
#X connect 6 0 0 0;
#X connect 7 0 0 1;
#X connect 8 0 6 0;
#X connect 10 0 1 4;
#X connect 14 0 16 0;
#X connect 15 0 14 0;
#X connect 16 0 2 0;
#X connect 16 0 3 0;
#X connect 16 0 4 0;
#X connect 16 0 5 0;
#X connect 16 0 10 0;
#X connect 20 0 27 0;
#X connect 20 1 28 0;
#X connect 21 0 20 0;
#X connect 22 0 29 0;
#X connect 22 1 30 0;
#X connect 23 0 24 0;
#X connect 24 0 22 0;
#X connect 24 1 25 0;
#X connect 24 1 26 0;
#X connect 34 0 35 0;
#X connect 39 0 40 0;
#X connect 40 0 20 1;
#X connect 41 0 20 1;
#X connect 41 0 20 0;
#X connect 44 0 51 0;
#X connect 45 0 46 0;
#X connect 50 0 20 0;
#X connect 53 0 52 0;
#X connect 55 0 54 0;
#X connect 58 0 59 0;
#X connect 58 1 60 0;
#X connect 58 2 61 0;
#X connect 62 0 75 0;
#X connect 63 0 64 0;
#X connect 63 0 65 0;
#X connect 70 0 72 0;
#X connect 70 0 73 0;
#X connect 72 0 69 0;
#X connect 73 0 68 0;
#X connect 74 0 55 0;
#X connect 75 0 63 0;
#X connect 76 0 77 0;
#X connect 77 0 63 0;
