#N canvas 8 243 469 625 10;
#N canvas 552 200 369 353 connect 0;
#X msg 65 12 disconnect;
#X text -71 -44 OPEN UDP CONNECTION;
#X text 58 -43 CLOSE UDP CONNECTION;
#X msg -11 68 connect 127.0.0.1 1978;
#X obj 42 94 r message;
#X obj -11 -28 inlet;
#X obj 65 -26 inlet;
#X text -71 71 VIRCHOR;
#X obj 42 145 packOSC;
#X obj 104 -11 r disconnect;
#X obj -2 40 r connect;
#X obj -13 203 sendOSC;
#X floatatom -10 228 5 0 0 0 - - -;
#X connect 0 0 11 0;
#X connect 3 0 11 0;
#X connect 4 0 11 0;
#X connect 5 0 3 0;
#X connect 6 0 0 0;
#X connect 9 0 0 0;
#X connect 10 0 3 0;
#X connect 11 0 12 0;
#X coords 0 0 10 10 0 0 0;
#X restore -308 -286 pd connect;
#N canvas 94 484 1355 536 LYM_spectrum_v4 0;
#X obj 159 -170 bonk~;
#X obj 159 -134 unpack f f f f f f f f f f f;
#X floatatom 781 -118 5 0 0 0 - - -;
#X floatatom 814 -118 5 0 0 0 - - -;
#X floatatom 846 -118 5 0 0 0 - - -;
#X floatatom 878 -118 5 0 0 0 - - -;
#X floatatom 910 -118 5 0 0 0 - - -;
#X floatatom 942 -118 5 0 0 0 - - -;
#X floatatom 974 -118 5 0 0 0 - - -;
#X floatatom 1006 -118 5 0 0 0 - - -;
#X floatatom 1038 -118 5 0 0 0 - - -;
#X floatatom 1070 -118 5 0 0 0 - - -;
#X obj 529 171 s message;
#X obj 528 129 spigot;
#X obj 561 -295 inlet;
#X msg 528 153 send /color_spectrum \$1 \$2 \$3;
#X obj 1064 170 s message;
#X msg 1064 152 send /x_loc \$1;
#X obj 1168 170 s message;
#X obj 370 170 s message;
#X floatatom 1102 -118 5 0 0 0 - - -;
#X obj 1064 129 spigot;
#X obj 1097 -295 inlet;
#X obj 1168 129 spigot;
#X obj 1201 -295 inlet;
#X obj 370 129 spigot;
#X obj 403 -295 inlet;
#X msg 1168 152 send /y_loc \$1;
#X obj 295 -90 +;
#X obj 295 -69 +;
#X obj 328 -89 +;
#X obj 328 -68 +;
#X obj 362 -89 +;
#X obj 362 -68 +;
#X obj 328 -46 +;
#X obj 362 -46 +;
#X floatatom 987 -138 5 0 0 0 - - -;
#X text 985 -154 ATTACK OUTPUT;
#X text 778 -134 SPECTRUM OUTPUT;
#X text 295 -108 Sum over 3 spectrum bands;
#X obj 295 41 /;
#X obj 328 42 /;
#X obj 362 42 /;
#X obj 295 93 pack f f f;
#X obj 159 -91 +;
#X obj 159 -70 +;
#X obj 159 -49 +;
#X obj 159 -28 +;
#X obj 204 -90 +;
#X obj 204 -69 +;
#X obj 204 -27 +;
#X obj 204 -47 +;
#X obj 261 9 +;
#X obj 159 101 pack f f;
#X text 113 -109 Sum over 2 spectrum bands;
#X obj 204 -7 +;
#X obj 159 42 /;
#X obj 204 43 /;
#X obj 159 64 * 1024;
#X obj 204 65 * 768;
#X obj -35 -299 adc~ 0 1 2;
#X msg 370 152 send /xy_spectrum \$1 \$2;
#X obj 1105 -154 unpack f f f;
#X floatatom 1019 -138 5 0 0 0 - - -;
#X floatatom 1051 -138 5 0 0 0 - - -;
#X text 661 -9 for normalization;
#X text 661 -19 Sum over spectrum;
#X obj 1064 30 * 1024;
#X obj 1168 31 * 768;
#X obj 1139 -24 - 70;
#X obj 1139 1 / 180;
#X obj 724 171 s message;
#X obj 723 129 spigot;
#X obj 756 -295 inlet;
#X text 661 -30 Signal loudness;
#X obj 899 172 s message;
#X obj 898 130 spigot;
#X obj 931 -295 inlet;
#X msg 723 152 send /spread_radius_vol \$1;
#X msg 898 152 send /brush_radius_vol \$1;
#X obj 898 39 / 30;
#X obj 723 40 / 100;
#X obj 1064 52 - 512;
#X obj 1168 52 - 384;
#X obj 159 82 - 512;
#X obj 204 83 - 384;
#X obj 910 -94 s soundvolume;
#X obj 262 -293 loadbang;
#X msg 279 -239 minvel 0.1;
#X msg 361 -239 spew 1;
#X obj 171 -294 r startclock;
#X msg 181 -238 thresh 6 50;
#X obj 119 -237 metro 20;
#X obj 14 -232 *~;
#X obj 58 -297 r input_volume;
#X connect 0 0 1 0;
#X connect 0 1 62 0;
#X connect 1 0 2 0;
#X connect 1 0 28 0;
#X connect 1 0 44 0;
#X connect 1 1 3 0;
#X connect 1 1 28 1;
#X connect 1 1 44 1;
#X connect 1 2 4 0;
#X connect 1 2 29 1;
#X connect 1 2 45 1;
#X connect 1 3 5 0;
#X connect 1 3 30 0;
#X connect 1 3 46 1;
#X connect 1 4 6 0;
#X connect 1 4 30 1;
#X connect 1 4 47 1;
#X connect 1 5 7 0;
#X connect 1 5 31 1;
#X connect 1 5 48 0;
#X connect 1 6 8 0;
#X connect 1 6 34 1;
#X connect 1 6 48 1;
#X connect 1 7 9 0;
#X connect 1 7 32 0;
#X connect 1 7 49 1;
#X connect 1 8 10 0;
#X connect 1 8 32 1;
#X connect 1 8 51 1;
#X connect 1 9 11 0;
#X connect 1 9 33 1;
#X connect 1 9 50 1;
#X connect 1 10 20 0;
#X connect 1 10 35 1;
#X connect 1 10 55 1;
#X connect 6 0 86 0;
#X connect 13 0 15 0;
#X connect 14 0 13 1;
#X connect 15 0 12 0;
#X connect 17 0 16 0;
#X connect 21 0 17 0;
#X connect 22 0 21 1;
#X connect 23 0 27 0;
#X connect 24 0 23 1;
#X connect 25 0 61 0;
#X connect 26 0 25 1;
#X connect 27 0 18 0;
#X connect 28 0 29 0;
#X connect 29 0 40 0;
#X connect 30 0 31 0;
#X connect 31 0 34 0;
#X connect 32 0 33 0;
#X connect 33 0 35 0;
#X connect 34 0 41 0;
#X connect 35 0 42 0;
#X connect 40 0 43 2;
#X connect 41 0 43 0;
#X connect 42 0 43 1;
#X connect 43 0 13 0;
#X connect 44 0 45 0;
#X connect 45 0 46 0;
#X connect 46 0 47 0;
#X connect 47 0 56 0;
#X connect 47 0 52 0;
#X connect 48 0 49 0;
#X connect 49 0 51 0;
#X connect 50 0 55 0;
#X connect 51 0 50 0;
#X connect 52 0 57 1;
#X connect 52 0 56 1;
#X connect 52 0 40 1;
#X connect 52 0 41 1;
#X connect 52 0 42 1;
#X connect 52 0 80 0;
#X connect 52 0 81 0;
#X connect 53 0 25 0;
#X connect 55 0 57 0;
#X connect 55 0 52 1;
#X connect 56 0 58 0;
#X connect 57 0 59 0;
#X connect 58 0 84 0;
#X connect 59 0 85 0;
#X connect 60 0 93 0;
#X connect 60 1 93 0;
#X connect 60 2 93 0;
#X connect 61 0 19 0;
#X connect 62 0 36 0;
#X connect 62 1 63 0;
#X connect 62 1 69 0;
#X connect 62 2 64 0;
#X connect 67 0 82 0;
#X connect 68 0 83 0;
#X connect 69 0 70 0;
#X connect 70 0 67 0;
#X connect 70 0 68 0;
#X connect 72 0 78 0;
#X connect 73 0 72 1;
#X connect 76 0 79 0;
#X connect 77 0 76 1;
#X connect 78 0 71 0;
#X connect 79 0 75 0;
#X connect 80 0 76 0;
#X connect 81 0 72 0;
#X connect 82 0 21 0;
#X connect 83 0 23 0;
#X connect 84 0 53 0;
#X connect 85 0 53 1;
#X connect 87 0 91 0;
#X connect 87 0 92 0;
#X connect 87 0 88 0;
#X connect 88 0 0 0;
#X connect 90 0 91 0;
#X connect 90 0 92 0;
#X connect 90 0 88 0;
#X connect 91 0 0 0;
#X connect 92 0 0 0;
#X connect 93 0 0 0;
#X connect 94 0 93 1;
#X restore -256 2 pd LYM_spectrum_v4;
#X obj -256 -148 tgl 15 0 empty empty empty 17 7 0 10 -262144 -1 -1
1 1;
#X obj -256 -127 tgl 15 0 empty empty empty 17 7 0 10 -262144 -1 -1
1 1;
#X obj -256 -105 tgl 15 0 empty empty empty 17 7 0 10 -262144 -1 -1
1 1;
#X obj -256 -84 tgl 15 0 empty empty empty 17 7 0 10 -262144 -1 -1
1 1;
#X text -306 -177 music control;
#X obj -307 -304 bng 15 250 50 0 empty empty empty 0 -6 0 8 -24198
-1 -1;
#X obj -250 -306 bng 15 250 50 0 empty empty empty 0 -6 0 8 -258699
-1 -1;
#X obj -307 -324 loadbang;
#X text -311 -341 UDP connection;
#X obj -256 -61 tgl 15 0 empty empty empty 17 7 0 10 -262144 -1 -1
0 1;
#X obj -256 -40 tgl 15 0 empty empty empty 17 7 0 10 -262144 -1 -1
0 1;
#X text -232 -148 1: xy-spectrum;
#X text -232 -126 2: color-spectrum;
#X text -233 -104 3: spread-radius;
#X text -232 -83 4: brush-radius;
#X text -232 -41 6: y-attack;
#X text -232 -61 5: x-attack;
#X obj -308 -135 bng 15 250 50 0 empty empty empty 17 7 0 10 -262144
-1 -1;
#X obj -308 -160 loadbang;
#X msg -308 -108 1;
#N canvas 279 50 1122 979 MIDIControl_Faders 0;
#X obj 566 669 vsl 15 128 0 1 0 0 empty empty empty 0 -8 0 8 -258113
-1 -1 12700 1;
#X obj 581 669 vsl 15 128 0 1 0 0 empty empty empty 0 -8 0 8 -4034
-1 -1 12700 1;
#X obj 612 669 vsl 15 128 0 1 0 0 empty empty empty 0 -8 0 8 -162280
-1 -1 12700 1;
#X obj 596 669 vsl 15 128 0 1 0 0 empty empty empty 0 -8 0 8 -4160
-1 -1 12700 1;
#X obj 566 625 bng 15 250 50 0 empty empty empty 17 7 0 10 -262144
-1 -1;
#X obj 566 600 loadbang;
#X msg 600 651 1;
#X msg 615 651 1;
#X msg 566 651 1;
#X msg 582 651 1;
#X obj 566 858 pack f f f f;
#X obj 17 -4 vsl 15 128 0 1 0 0 empty empty empty 0 -8 0 8 -258113
-1 -1 12700 1;
#X obj 32 -4 vsl 15 128 0 1 0 0 empty empty empty 0 -8 0 8 -4034 -1
-1 12700 1;
#X obj 62 -4 vsl 15 128 0 1 0 0 empty empty empty 0 -8 0 8 -162280
-1 -1 12700 1;
#X obj 47 -4 vsl 15 128 0 1 0 0 empty empty empty 0 -8 0 8 -4160 -1
-1 12700 1;
#X obj 17 -48 bng 15 250 50 0 empty empty empty 17 7 0 10 -262144 -1
-1;
#X obj 17 -64 loadbang;
#X obj 17 169 pack f f f f;
#X msg 17 185 send /local_color \$1 \$2 \$3 \$4;
#X msg 566 874 send /blend_color \$1 \$2 \$3 \$4;
#X obj 13 279 bng 15 250 50 0 empty empty empty 17 7 0 10 -262144 -1
-1;
#X obj 13 260 loadbang;
#X obj 13 323 vsl 15 128 0 100 0 0 empty empty empty 0 -8 0 8 -262144
-1 -1 0 1;
#X obj 28 323 vsl 15 128 0 100 0 0 empty empty empty 0 -8 0 8 -262144
-1 -1 0 1;
#X obj 43 323 vsl 15 128 0 30 0 0 empty empty empty 0 -8 0 8 -262144
-1 -1 0 1;
#X msg 13 514 send /spread_radius \$1 \$2 \$3;
#X obj 13 498 pack f f f;
#X obj 13 530 s message;
#X obj 17 201 s message;
#X obj 566 890 s message;
#X obj 120 -38 ctlin 13 1;
#X obj 120 -22 / 127;
#X obj 117 20 / 127;
#X obj 118 63 / 127;
#X obj 116 106 / 127;
#X obj 117 4 ctlin 12 1;
#X obj 118 47 ctlin 10 1;
#X obj 429 299 bng 15 250 50 0 empty empty empty 0 -6 0 8 -262144 -1
-1;
#X obj 429 346 vsl 15 128 0 4 0 0 0 empty empty 0 -8 0 8 -262144 -1
-1 0 1;
#X obj 472 346 vsl 15 128 0 10 0 0 0 empty empty 0 -8 0 8 -262144 -1
-1 12700 1;
#X obj 444 346 vsl 15 128 0 4 0 0 0 empty empty 0 -8 0 8 -262144 -1
-1 0 1;
#X obj 457 346 vsl 15 128 0 5 0 0 0 empty empty 0 -8 0 8 -262144 -1
-1 1377 1;
#X obj 429 552 s message;
#X obj 430 519 pack f f f f;
#X msg 445 328 0;
#X msg 465 329 0;
#X msg 483 329 0;
#X obj 430 283 loadbang;
#X msg 429 328 0;
#X msg 430 536 send /music_control \$1 \$2 \$3 \$4;
#X text 425 266 MUSIC CONTROL;
#X msg 13 305 0;
#X msg 28 305 0;
#X msg 42 305 0;
#X obj 192 343 vsl 15 128 0 3 0 0 empty empty empty 0 -8 0 8 -262144
-1 -1 0 1;
#X obj 192 310 bng 15 250 50 0 empty empty empty 17 7 0 10 -262144
-1 -1;
#X obj 192 294 loadbang;
#X msg 192 325 0;
#X obj 192 490 s message;
#X msg 192 474 send /spread_radius \$1 \$1 \$1;
#X obj 672 0 vsl 15 128 0 400 0 0 empty empty empty 0 -8 0 8 -262144
-1 -1 32 1;
#X obj 673 -33 bng 15 250 50 0 empty empty empty 17 7 0 10 -262144
-1 -1;
#X obj 673 -49 loadbang;
#X msg 673 -18 0;
#X obj 674 152 s message;
#X obj 530 0 vsl 15 128 0 100 0 0 empty empty empty 0 -8 0 8 -262144
-1 -1 0 1;
#X obj 530 -33 bng 15 250 50 0 empty empty empty 17 7 0 10 -262144
-1 -1;
#X obj 530 -49 loadbang;
#X msg 530 -18 0;
#X obj 532 154 s message;
#X obj 276 671 vsl 15 128 0 100 0 0 empty empty empty 0 -8 0 8 -262144
-1 -1 520 1;
#X obj 276 638 bng 15 250 50 0 empty empty empty 17 7 0 10 -262144
-1 -1;
#X obj 276 619 loadbang;
#X msg 276 653 0;
#X obj 276 819 s message;
#X obj 552 7 ctlin 13 3;
#X msg 276 802 send /decay \$1;
#X msg 530 136 send /dot_frequency \$1;
#X obj 359 30 / 127;
#X obj 335 3 vsl 15 128 0 1 0 0 empty empty empty 0 -8 0 8 -162280
-1 -1 0 1;
#X obj 335 -30 bng 15 250 50 0 empty empty empty 17 7 0 10 -262144
-1 -1;
#X obj 335 -46 loadbang;
#X msg 335 -15 0;
#X obj 335 150 s message;
#X obj 524 418 / 12.7;
#X obj 526 373 / 32;
#X obj 527 329 / 32;
#X obj 694 23 / 0.32;
#X obj 81 380 / 1.27;
#X obj 83 336 / 1.27;
#X obj 359 14 ctlin 7 2;
#X obj 779 647 / 127;
#X obj 779 702 / 127;
#X obj 782 756 / 127;
#X obj 651 631 / 127;
#X obj 779 631 ctlin 13 8;
#X obj 779 686 ctlin 12 8;
#X obj 782 740 ctlin 10 8;
#X obj 154 -22 * -1;
#X obj 182 -22 + 1;
#X obj 151 20 * -1;
#X obj 179 20 + 1;
#X obj 152 63 * -1;
#X obj 180 63 + 1;
#X obj 150 106 * -1;
#X obj 178 106 + 1;
#X obj 393 30 * -1;
#X obj 421 30 + 1;
#X obj 552 23 / 1.27;
#X obj 778 -1 vsl 15 128 0 400 0 0 empty empty empty 0 -8 0 8 -262144
-1 -1 0 1;
#X obj 779 -34 bng 15 250 50 0 empty empty empty 17 7 0 10 -262144
-1 -1;
#X obj 779 -50 loadbang;
#X msg 779 -19 0;
#X obj 780 151 s message;
#X obj 800 22 / 0.32;
#X obj 882 1 vsl 15 128 0 400 0 0 empty empty empty 0 -8 0 8 -262144
-1 -1 32 1;
#X obj 883 -32 bng 15 250 50 0 empty empty empty 17 7 0 10 -262144
-1 -1;
#X obj 883 -48 loadbang;
#X msg 883 -17 0;
#X obj 884 153 s message;
#X obj 927 -4 ctlin 7 3;
#X msg 672 135 send /radiusX \$1;
#X msg 778 134 send /radiusY \$1;
#X msg 882 136 send /radiusXY \$1;
#X obj 694 7 ctlin 12 3;
#X obj 800 6 ctlin 10 3;
#X obj 118 89 ctlin 7 1;
#X text 17 -82 LOCAL COLOR;
#X text 556 -70 DOT FREQ / RADIUS;
#X text 331 -67 LOCAL GRAY;
#X text 568 575 BLEND COLOR/MASK;
#X obj 813 647 * -1;
#X obj 841 647 + 1;
#X obj 813 702 * -1;
#X obj 841 702 + 1;
#X obj 816 756 * -1;
#X obj 844 756 + 1;
#X obj 685 631 * -1;
#X obj 713 631 + 1;
#X text 272 599 DECAY;
#X obj 35 615 bng 15 250 50 0 empty empty empty 0 -6 0 8 -262144 -1
-1;
#X obj 95 797 bng 15 250 50 0 empty empty empty 0 -6 0 8 -262144 -1
-1;
#X obj 20 667 vsl 15 128 0 1 0 0 0 empty empty 0 -8 0 8 -262144 -1
-1 200 1;
#X obj 63 666 vsl 15 128 0 1 0 0 0 empty empty 0 -8 0 8 -262144 -1
-1 0 1;
#X obj 35 667 vsl 15 128 0 1 0 0 0 empty empty 0 -8 0 8 -262144 -1
-1 0 1;
#X obj 48 667 vsl 15 128 0 1 0 0 0 empty empty 0 -8 0 8 -262144 -1
-1 0 1;
#X obj 20 846 s message;
#X obj 20 798 pack f f f f;
#X msg 37 649 0;
#X msg 57 649 0;
#X msg 75 649 0;
#X obj 36 599 loadbang;
#X msg 21 649 0;
#X obj 122 603 ctlin 13 7;
#X obj 121 660 ctlin 12 7;
#X obj 116 715 ctlin 10 7;
#X msg 20 830 send /BG_opacity \$1 \$2 \$3 \$4;
#X obj 122 619 / 127;
#X obj 121 676 / 127;
#X obj 116 730 / 127;
#X text 11 243 SPREAD RADIUS (V/H/Radial);
#X obj 752 296 bng 15 250 50 0 empty empty empty 0 -6 0 8 -262144 -1
-1;
#X obj 812 478 bng 15 250 50 0 empty empty empty 0 -6 0 8 -262144 -1
-1;
#X obj 737 348 vsl 15 128 0 300 0 0 0 empty empty 0 -8 0 8 -262144
-1 -1 0 1;
#X obj 752 348 vsl 15 128 50 100 0 0 0 empty empty 0 -8 0 8 -262144
-1 -1 0 1;
#X obj 765 348 vsl 15 128 0 0.1 0 0 0 empty empty 0 -8 0 8 -262144
-1 -1 0 1;
#X obj 737 529 s message;
#X msg 754 330 0;
#X msg 774 330 0;
#X obj 753 280 loadbang;
#X msg 738 330 0;
#X msg 737 513 send /wave_phase_amp_length \$1 \$2 \$3;
#X obj 737 479 pack f f f;
#X obj 734 23 + 1;
#X obj 840 22 + 1;
#X text 757 250 WAVES;
#X obj 928 12 / 12.7;
#X obj 236 361 / 42.3;
#X obj 967 12 + 1;
#X obj 315 689 / 12.7;
#X obj 418 673 vsl 15 128 1 10 0 0 empty empty empty 0 -8 0 8 -262144
-1 -1 0 1;
#X obj 418 640 bng 15 250 50 0 empty empty empty 17 7 0 10 -262144
-1 -1;
#X obj 418 621 loadbang;
#X text 414 601 WIDE RANGE DECAY;
#X obj 1023 1 vsl 15 128 1 40 0 0 empty empty empty 0 -8 0 8 -262144
-1 -1 0 1;
#X obj 1024 -32 bng 15 250 50 0 empty empty empty 17 7 0 10 -262144
-1 -1;
#X obj 1024 -48 loadbang;
#X msg 1024 -17 0;
#X obj 1085 24 + 1;
#X text 1021 -71 WIDE RANGE RADIUS;
#X text 23 570 BACKGROUND OPACITY;
#X text 39 582 NOT USED;
#X text 748 262 NOT USED;
#X msg 335 134 send /local_gray \$1;
#X obj 1045 8 ctlin 7 4;
#X obj 83 320 ctlin 13 5;
#X obj 82 365 ctlin 12 5;
#X obj 81 408 ctlin 10 5;
#X obj 236 346 ctlin 7 5;
#X obj 527 313 ctlin 13 6;
#X obj 526 357 ctlin 12 6;
#X obj 524 403 ctlin 10 6;
#X obj 524 446 ctlin 7 6;
#X obj 651 615 ctlin 28 1;
#X obj 314 673 ctlin 7 7;
#X obj 457 675 ctlin 7 8;
#X obj 496 691 + 1;
#X msg 418 655 1;
#X obj 457 691 / 12.7;
#X obj 1046 24 / 3.2;
#X obj 315 722 *;
#X obj 390 684 bng 15 250 50 0 empty empty empty 17 7 0 10 -262144
-1 -1;
#X obj 918 74 *;
#X obj 993 36 bng 15 250 50 0 empty empty empty 17 7 0 10 -262144 -1
-1;
#X msg 17 -22 1;
#X msg 33 -23 1;
#X msg 52 -21 1;
#X msg 68 -20 1;
#X obj 558 462 - 0.2;
#X obj 80 422 / 4.2;
#X obj 523 462 / 25.6;
#X obj 448 489 t b f;
#X obj 498 490 t b f;
#X obj 546 492 t b f;
#X obj 33 136 t b f;
#X obj 83 137 t b f;
#X obj 131 139 t b f;
#X obj 28 468 t b f;
#X obj 76 470 t b f;
#X obj 585 819 t b f;
#X obj 635 820 t b f;
#X obj 683 822 t b f;
#X connect 0 0 10 0;
#X connect 1 0 229 0;
#X connect 2 0 231 0;
#X connect 3 0 230 0;
#X connect 4 0 8 0;
#X connect 4 0 9 0;
#X connect 4 0 6 0;
#X connect 4 0 7 0;
#X connect 5 0 4 0;
#X connect 6 0 3 0;
#X connect 7 0 2 0;
#X connect 8 0 0 0;
#X connect 9 0 1 0;
#X connect 10 0 19 0;
#X connect 11 0 17 0;
#X connect 12 0 224 0;
#X connect 13 0 226 0;
#X connect 14 0 225 0;
#X connect 15 0 214 0;
#X connect 15 0 215 0;
#X connect 15 0 216 0;
#X connect 15 0 217 0;
#X connect 16 0 15 0;
#X connect 17 0 18 0;
#X connect 18 0 28 0;
#X connect 19 0 29 0;
#X connect 20 0 51 0;
#X connect 20 0 52 0;
#X connect 20 0 53 0;
#X connect 21 0 20 0;
#X connect 22 0 26 0;
#X connect 23 0 227 0;
#X connect 24 0 228 0;
#X connect 25 0 27 0;
#X connect 26 0 25 0;
#X connect 30 0 31 0;
#X connect 31 0 98 0;
#X connect 32 0 100 0;
#X connect 33 0 102 0;
#X connect 34 0 104 0;
#X connect 35 0 32 0;
#X connect 36 0 33 0;
#X connect 37 0 46 0;
#X connect 37 0 45 0;
#X connect 37 0 44 0;
#X connect 37 0 48 0;
#X connect 38 0 43 0;
#X connect 39 0 223 0;
#X connect 40 0 221 0;
#X connect 41 0 222 0;
#X connect 43 0 49 0;
#X connect 44 0 40 0;
#X connect 45 0 41 0;
#X connect 46 0 39 0;
#X connect 47 0 37 0;
#X connect 48 0 38 0;
#X connect 49 0 42 0;
#X connect 51 0 22 0;
#X connect 52 0 23 0;
#X connect 53 0 24 0;
#X connect 54 0 59 0;
#X connect 55 0 57 0;
#X connect 56 0 55 0;
#X connect 57 0 54 0;
#X connect 59 0 58 0;
#X connect 60 0 121 0;
#X connect 61 0 63 0;
#X connect 62 0 61 0;
#X connect 63 0 60 0;
#X connect 65 0 77 0;
#X connect 66 0 68 0;
#X connect 67 0 66 0;
#X connect 68 0 65 0;
#X connect 70 0 76 0;
#X connect 71 0 73 0;
#X connect 72 0 71 0;
#X connect 73 0 70 0;
#X connect 75 0 108 0;
#X connect 76 0 74 0;
#X connect 77 0 69 0;
#X connect 78 0 106 0;
#X connect 79 0 193 0;
#X connect 80 0 82 0;
#X connect 81 0 80 0;
#X connect 82 0 79 0;
#X connect 84 0 39 0;
#X connect 85 0 40 0;
#X connect 86 0 38 0;
#X connect 87 0 173 0;
#X connect 88 0 23 0;
#X connect 89 0 22 0;
#X connect 90 0 78 0;
#X connect 91 0 131 0;
#X connect 92 0 133 0;
#X connect 93 0 135 0;
#X connect 94 0 137 0;
#X connect 95 0 91 0;
#X connect 96 0 92 0;
#X connect 97 0 93 0;
#X connect 98 0 99 0;
#X connect 99 0 11 0;
#X connect 100 0 101 0;
#X connect 101 0 12 0;
#X connect 102 0 103 0;
#X connect 103 0 14 0;
#X connect 104 0 105 0;
#X connect 105 0 13 0;
#X connect 106 0 107 0;
#X connect 107 0 79 0;
#X connect 108 0 65 0;
#X connect 109 0 122 0;
#X connect 110 0 112 0;
#X connect 111 0 110 0;
#X connect 112 0 109 0;
#X connect 114 0 174 0;
#X connect 115 0 123 0;
#X connect 116 0 118 0;
#X connect 117 0 116 0;
#X connect 118 0 115 0;
#X connect 120 0 176 0;
#X connect 121 0 64 0;
#X connect 122 0 113 0;
#X connect 123 0 119 0;
#X connect 124 0 87 0;
#X connect 125 0 114 0;
#X connect 126 0 34 0;
#X connect 131 0 132 0;
#X connect 133 0 134 0;
#X connect 135 0 136 0;
#X connect 137 0 138 0;
#X connect 138 0 2 0;
#X connect 140 0 150 0;
#X connect 140 0 149 0;
#X connect 140 0 148 0;
#X connect 140 0 152 0;
#X connect 141 0 147 0;
#X connect 142 0 147 0;
#X connect 143 0 141 0;
#X connect 143 0 147 3;
#X connect 144 0 141 0;
#X connect 144 0 147 1;
#X connect 145 0 141 0;
#X connect 145 0 147 2;
#X connect 148 0 144 0;
#X connect 149 0 145 0;
#X connect 150 0 143 0;
#X connect 151 0 140 0;
#X connect 152 0 142 0;
#X connect 153 0 157 0;
#X connect 154 0 158 0;
#X connect 155 0 159 0;
#X connect 156 0 146 0;
#X connect 157 0 142 0;
#X connect 158 0 144 0;
#X connect 159 0 145 0;
#X connect 161 0 168 0;
#X connect 161 0 167 0;
#X connect 161 0 170 0;
#X connect 162 0 172 0;
#X connect 163 0 172 0;
#X connect 164 0 162 0;
#X connect 164 0 172 1;
#X connect 165 0 162 0;
#X connect 165 0 172 2;
#X connect 167 0 164 0;
#X connect 168 0 165 0;
#X connect 169 0 161 0;
#X connect 170 0 163 0;
#X connect 171 0 166 0;
#X connect 173 0 60 0;
#X connect 174 0 109 0;
#X connect 176 0 178 0;
#X connect 177 0 54 0;
#X connect 178 0 212 0;
#X connect 179 0 210 0;
#X connect 180 0 210 1;
#X connect 181 0 207 0;
#X connect 182 0 181 0;
#X connect 184 0 212 1;
#X connect 185 0 187 0;
#X connect 186 0 185 0;
#X connect 187 0 184 0;
#X connect 188 0 184 0;
#X connect 188 0 213 0;
#X connect 193 0 83 0;
#X connect 194 0 209 0;
#X connect 195 0 89 0;
#X connect 196 0 88 0;
#X connect 197 0 219 0;
#X connect 198 0 177 0;
#X connect 199 0 86 0;
#X connect 200 0 85 0;
#X connect 201 0 84 0;
#X connect 202 0 220 0;
#X connect 203 0 94 0;
#X connect 204 0 179 0;
#X connect 205 0 208 0;
#X connect 206 0 180 0;
#X connect 206 0 211 0;
#X connect 207 0 180 0;
#X connect 208 0 206 0;
#X connect 209 0 188 0;
#X connect 210 0 70 0;
#X connect 211 0 210 0;
#X connect 212 0 115 0;
#X connect 213 0 212 0;
#X connect 214 0 11 0;
#X connect 215 0 12 0;
#X connect 216 0 14 0;
#X connect 217 0 13 0;
#X connect 218 0 41 0;
#X connect 219 0 24 0;
#X connect 220 0 218 0;
#X connect 221 0 43 0;
#X connect 221 1 43 1;
#X connect 222 0 43 0;
#X connect 222 1 43 2;
#X connect 223 0 43 0;
#X connect 223 1 43 3;
#X connect 224 0 17 0;
#X connect 224 1 17 1;
#X connect 225 0 17 0;
#X connect 225 1 17 2;
#X connect 226 0 17 0;
#X connect 226 1 17 3;
#X connect 227 0 26 0;
#X connect 227 1 26 1;
#X connect 228 0 26 0;
#X connect 228 1 26 2;
#X connect 229 0 10 0;
#X connect 229 1 10 1;
#X connect 230 0 10 0;
#X connect 230 1 10 2;
#X connect 231 0 10 0;
#X connect 231 1 10 3;
#X coords 0 0 10 10 0 0 0;
#X restore -156 124 pd MIDIControl_Faders;
#N canvas 574 196 828 761 MIDIControl_Buttons 0;
#X obj 465 -16 vsl 15 128 0 1 0 0 empty empty empty 0 -8 0 8 -262144
-1 -1 12700 1;
#X obj 466 -49 bng 15 250 50 0 empty empty empty 17 7 0 10 -262144
-1 -1;
#X obj 466 -68 loadbang;
#X msg 466 -34 0;
#X obj 465 132 s message;
#X obj 490 31 / 127;
#X obj 586 -18 vsl 15 128 0 1 0 0 empty empty empty 0 -8 0 8 -262144
-1 -1 12700 1;
#X obj 587 -51 bng 15 250 50 0 empty empty empty 17 7 0 10 -262144
-1 -1;
#X obj 587 -70 loadbang;
#X msg 587 -36 0;
#X obj 586 130 s message;
#X obj 611 29 / 127;
#X obj 485 227 vsl 15 128 0 1 0 0 empty empty empty 0 -8 0 8 -262144
-1 -1 12700 1;
#X obj 486 194 bng 15 250 50 0 empty empty empty 17 7 0 10 -262144
-1 -1;
#X obj 486 175 loadbang;
#X msg 486 209 0;
#X obj 510 274 / 127;
#X obj 485 374 s message;
#X obj 12 228 vsl 15 128 0 1 0 0 empty empty empty 0 -8 0 8 -262144
-1 -1 12700 1;
#X obj 12 195 bng 15 250 50 0 empty empty empty 17 7 0 10 -262144 -1
-1;
#X obj 12 176 loadbang;
#X msg 12 210 0;
#X obj 12 376 s message;
#X obj 36 275 / 127;
#X obj 126 229 vsl 15 128 0 1 0 0 empty empty empty 0 -8 0 8 -262144
-1 -1 12700 1;
#X obj 126 196 bng 15 250 50 0 empty empty empty 17 7 0 10 -262144
-1 -1;
#X obj 126 177 loadbang;
#X msg 126 211 0;
#X obj 126 377 s message;
#X obj 150 276 / 127;
#X obj 8 482 vsl 15 128 0 1 0 0 empty empty empty 0 -8 0 8 -262144
-1 -1 12700 1;
#X obj 8 449 bng 15 250 50 0 empty empty empty 17 7 0 10 -262144 -1
-1;
#X obj 8 430 loadbang;
#X msg 8 464 0;
#X obj 8 630 s message;
#X obj 31 521 / 127;
#X obj 510 258 ctlin 18 1;
#X obj 11 -17 vsl 15 128 0 1 0 0 empty empty empty 0 -8 0 8 -262144
-1 -1 0 1;
#X obj 11 -50 bng 15 250 50 0 empty empty empty 17 7 0 10 -262144 -1
-1;
#X obj 11 -69 loadbang;
#X msg 11 -35 0;
#X obj 11 130 s message;
#X obj 35 30 / 127;
#X obj 34 14 ctlin 19 1;
#X obj 128 -20 vsl 15 128 0 1 0 0 empty empty empty 0 -8 0 8 -262144
-1 -1 0 1;
#X obj 128 -53 bng 15 250 50 0 empty empty empty 17 7 0 10 -262144
-1 -1;
#X obj 128 -72 loadbang;
#X msg 128 -38 0;
#X obj 128 126 s message;
#X obj 152 27 / 127;
#X obj 151 11 ctlin 20 1;
#X obj 137 483 vsl 15 128 0 1 0 0 empty empty empty 0 -8 0 8 -262144
-1 -1 0 1;
#X obj 137 450 bng 15 250 50 0 empty empty empty 17 7 0 10 -262144
-1 -1;
#X obj 137 431 loadbang;
#X msg 137 465 0;
#X obj 137 631 s message;
#X obj 160 522 / 127;
#X obj 358 481 vsl 15 128 0 1 0 0 empty empty empty 0 -8 0 8 -262144
-1 -1 0 1;
#X obj 358 448 bng 15 250 50 0 empty empty empty 17 7 0 10 -262144
-1 -1;
#X obj 358 429 loadbang;
#X msg 358 463 0;
#X obj 358 629 s message;
#X obj 381 520 / 127;
#X obj 244 480 vsl 15 128 0 1 0 0 empty empty empty 0 -8 0 8 -262144
-1 -1 12700 1;
#X obj 244 447 bng 15 250 50 0 empty empty empty 17 7 0 10 -262144
-1 -1;
#X obj 244 428 loadbang;
#X msg 244 462 0;
#X obj 244 628 s message;
#X obj 267 519 / 127;
#X obj 30 505 ctlin 14 1;
#X obj 159 506 ctlin 15 1;
#X msg 465 116 send /kaleid_minus;
#X msg 586 114 send /kaleid_plus;
#X msg 12 360 send /brush_minus;
#X msg 126 361 send /brush_plus;
#X obj 243 -19 vsl 15 128 0 1 0 0 empty empty empty 0 -8 0 8 -262144
-1 -1 0 1;
#X obj 243 -52 bng 15 250 50 0 empty empty empty 17 7 0 10 -262144
-1 -1;
#X obj 243 -71 loadbang;
#X msg 243 -37 0;
#X obj 242 374 s message;
#X obj 267 28 / 127;
#X obj 266 12 ctlin 21 1;
#X obj 243 226 vsl 15 128 0 1 0 0 empty empty empty 0 -8 0 8 -262144
-1 -1 0 1;
#X obj 244 193 bng 15 250 50 0 empty empty empty 17 7 0 10 -262144
-1 -1;
#X obj 244 174 loadbang;
#X msg 244 208 0;
#X obj 243 405 s message;
#X obj 268 273 / 127;
#X obj 267 257 ctlin 24 1;
#X obj 708 -18 vsl 15 128 0 1 0 0 empty empty empty 0 -8 0 8 -262144
-1 -1 0 1;
#X obj 708 -51 bng 15 250 50 0 empty empty empty 17 7 0 10 -262144
-1 -1;
#X obj 708 -70 loadbang;
#X msg 708 -36 0;
#X obj 708 129 s message;
#X obj 732 29 / 127;
#X obj 731 13 ctlin 27 1;
#X text 11 -87 DRAING MODE;
#X text 11 160 BRUSH;
#X text 467 -87 KALEIDOSCOPE;
#X text 485 157 BLACK/WHITE;
#X text 8 409 SPREADING MODE;
#X msg 243 358 send /clear_CLEAR;
#X msg 243 389 send /waves \$1;
#X obj 266 503 ctlin 16 1;
#X obj 381 504 ctlin 17 1;
#X msg 485 357 send /black_white \$1;
#X obj 35 259 ctlin 22 1;
#X obj 149 260 ctlin 23 1;
#X obj 489 15 ctlin 25 1;
#X obj 610 13 ctlin 26 1;
#X msg 708 113 send /snapshot;
#X msg 30 81 send /void_line \$1;
#X msg 147 81 send /point_fill \$1;
#X msg 11 114 send /mode_minus;
#X msg 128 110 send /mode_plus;
#X msg 8 614 send /normal_bidir;
#X msg 136 615 send /ST;
#X msg 244 612 send /HV;
#X msg 358 613 send /oO;
#X connect 0 0 71 0;
#X connect 1 0 3 0;
#X connect 2 0 1 0;
#X connect 3 0 0 0;
#X connect 5 0 0 0;
#X connect 6 0 72 0;
#X connect 7 0 9 0;
#X connect 8 0 7 0;
#X connect 9 0 6 0;
#X connect 11 0 6 0;
#X connect 12 0 105 0;
#X connect 13 0 15 0;
#X connect 14 0 13 0;
#X connect 15 0 12 0;
#X connect 16 0 12 0;
#X connect 18 0 73 0;
#X connect 19 0 21 0;
#X connect 20 0 19 0;
#X connect 21 0 18 0;
#X connect 23 0 18 0;
#X connect 24 0 74 0;
#X connect 25 0 27 0;
#X connect 26 0 25 0;
#X connect 27 0 24 0;
#X connect 29 0 24 0;
#X connect 30 0 115 0;
#X connect 31 0 33 0;
#X connect 32 0 31 0;
#X connect 33 0 30 0;
#X connect 35 0 30 0;
#X connect 36 0 16 0;
#X connect 37 0 113 0;
#X connect 38 0 40 0;
#X connect 39 0 38 0;
#X connect 40 0 37 0;
#X connect 42 0 37 0;
#X connect 43 0 42 0;
#X connect 44 0 114 0;
#X connect 45 0 47 0;
#X connect 46 0 45 0;
#X connect 47 0 44 0;
#X connect 49 0 44 0;
#X connect 50 0 49 0;
#X connect 51 0 116 0;
#X connect 52 0 54 0;
#X connect 53 0 52 0;
#X connect 54 0 51 0;
#X connect 56 0 51 0;
#X connect 57 0 118 0;
#X connect 58 0 60 0;
#X connect 59 0 58 0;
#X connect 60 0 57 0;
#X connect 62 0 57 0;
#X connect 63 0 117 0;
#X connect 64 0 66 0;
#X connect 65 0 64 0;
#X connect 66 0 63 0;
#X connect 68 0 63 0;
#X connect 69 0 35 0;
#X connect 70 0 56 0;
#X connect 71 0 4 0;
#X connect 72 0 10 0;
#X connect 73 0 22 0;
#X connect 74 0 28 0;
#X connect 76 0 78 0;
#X connect 77 0 76 0;
#X connect 78 0 75 0;
#X connect 80 0 75 0;
#X connect 81 0 80 0;
#X connect 82 0 101 0;
#X connect 83 0 85 0;
#X connect 84 0 83 0;
#X connect 85 0 82 0;
#X connect 87 0 82 0;
#X connect 88 0 87 0;
#X connect 89 0 110 0;
#X connect 90 0 92 0;
#X connect 91 0 90 0;
#X connect 92 0 89 0;
#X connect 94 0 89 0;
#X connect 95 0 94 0;
#X connect 101 0 79 0;
#X connect 102 0 86 0;
#X connect 103 0 68 0;
#X connect 104 0 62 0;
#X connect 105 0 17 0;
#X connect 106 0 23 0;
#X connect 107 0 29 0;
#X connect 108 0 5 0;
#X connect 109 0 11 0;
#X connect 110 0 93 0;
#X connect 113 0 41 0;
#X connect 114 0 48 0;
#X connect 115 0 34 0;
#X connect 116 0 55 0;
#X connect 117 0 67 0;
#X connect 118 0 61 0;
#X coords 0 0 10 10 0 0 0;
#X restore -156 144 pd MIDIControl_Buttons;
#N canvas 781 50 960 758 myclock 0;
#X obj -30 73 / 60;
#X obj -30 101 int;
#X obj 57 149 -;
#X obj 72 117 * 60;
#X obj -30 -26 timer;
#X obj -30 -2 / 1000;
#X obj -3 -53 metro 1000;
#X obj -30 -68 bng 15 250 50 0 empty empty empty 17 7 0 10 -262144
-1 -1;
#X obj -30 30 int;
#X obj -30 -93 inlet;
#X obj -30 180 outlet;
#X obj 57 179 outlet;
#X msg 147 97 280 0;
#X msg 173 123 142 1;
#X msg 199 154 301 2;
#X msg 225 187 87 3;
#X msg 251 219 77 4;
#X msg 277 257 168 5;
#X msg 303 288 193 6;
#X msg 329 318 42 7;
#X msg 355 352 180 8;
#X msg 381 386 30 9;
#X msg 407 415 210 10;
#X msg 433 447 60 11;
#X obj 147 46 route 0 280 422 724 811 888 1056 1249 1291 1471 1501
1711 1771;
#X obj 147 463 s startcountdown;
#X text -32 -116 launch msg reception;
#X text -5 -70 start of the elapsed time count;
#X text -23 211 DISPLAY IN LIVE SCORE;
#X text -23 199 MN/SEC ELAPSED TIME;
#X text 208 502 for parameter and scene name display;
#X text 209 489 sends scene number;
#X text 52 488 sends scene duration;
#X text 52 501 for countdown display;
#X text 52 514 in livescore;
#X text 209 515 in livescore;
#X text 600 -121 0: egg and sperm;
#X text 602 -103 280: cell;
#X text 599 -61 724: scaphander filling;
#X text 598 -40 811: scaph eyes closed;
#X text 602 43 1291: great flood drawing;
#X text 599 3 1056: lost twin stripes;
#X text 600 66 1471: great flood flame;
#X text 602 89 1501: great flood flood;
#X text 605 109 1711: great flood points;
#X obj 567 581 s startcountdown;
#X msg 567 215 30 0;
#X msg 590 241 30 1;
#X msg 614 272 30 2;
#X msg 638 305 30 3;
#X msg 661 337 30 4;
#X msg 685 375 30 5;
#X msg 709 406 30 6;
#X msg 733 436 30 7;
#X msg 756 470 30 8;
#X msg 780 504 30 9;
#X msg 804 533 30 10;
#X msg 828 565 30 11;
#X floatatom 73 67 5 0 0 0 - - -;
#X obj 567 166 route 0 30 60 90 120 150 180 210 240 270 300 330 360
;
#X text 596 139 Short scenes for transition rehearsal;
#X msg 566 -124 0;
#X msg 566 -103 280;
#X msg 566 -61 724;
#X msg 566 -40 811;
#X msg 566 2 1056;
#X msg 566 44 1291;
#X msg 566 65 1471;
#X msg 566 86 1501;
#X msg 566 107 1711;
#X obj 89 14 +;
#X obj 104 -94 inlet;
#X text 104 -117 offset;
#X connect 0 0 1 0;
#X connect 1 0 3 0;
#X connect 1 0 10 0;
#X connect 2 0 11 0;
#X connect 3 0 2 1;
#X connect 4 0 5 0;
#X connect 5 0 70 0;
#X connect 6 0 4 1;
#X connect 7 0 4 0;
#X connect 7 0 6 0;
#X connect 8 0 0 0;
#X connect 8 0 2 0;
#X connect 8 0 58 0;
#X connect 8 0 24 0;
#X connect 9 0 7 0;
#X connect 12 0 25 0;
#X connect 13 0 25 0;
#X connect 14 0 25 0;
#X connect 15 0 25 0;
#X connect 16 0 25 0;
#X connect 17 0 25 0;
#X connect 18 0 25 0;
#X connect 19 0 25 0;
#X connect 20 0 25 0;
#X connect 21 0 25 0;
#X connect 22 0 25 0;
#X connect 23 0 25 0;
#X connect 24 0 12 0;
#X connect 24 1 13 0;
#X connect 24 2 14 0;
#X connect 24 3 15 0;
#X connect 24 4 16 0;
#X connect 24 5 17 0;
#X connect 24 6 18 0;
#X connect 24 7 19 0;
#X connect 24 8 20 0;
#X connect 24 9 21 0;
#X connect 24 10 22 0;
#X connect 24 11 23 0;
#X connect 46 0 45 0;
#X connect 47 0 45 0;
#X connect 48 0 45 0;
#X connect 49 0 45 0;
#X connect 50 0 45 0;
#X connect 51 0 45 0;
#X connect 52 0 45 0;
#X connect 53 0 45 0;
#X connect 54 0 45 0;
#X connect 55 0 45 0;
#X connect 56 0 45 0;
#X connect 57 0 45 0;
#X connect 59 0 46 0;
#X connect 59 1 47 0;
#X connect 59 2 48 0;
#X connect 59 3 49 0;
#X connect 59 4 50 0;
#X connect 59 5 51 0;
#X connect 59 6 52 0;
#X connect 59 7 53 0;
#X connect 59 8 54 0;
#X connect 59 9 55 0;
#X connect 59 10 56 0;
#X connect 59 11 57 0;
#X connect 61 0 62 0;
#X connect 63 0 64 0;
#X connect 66 0 67 0;
#X connect 67 0 68 0;
#X connect 68 0 69 0;
#X connect 70 0 8 0;
#X connect 71 0 70 1;
#X restore -108 -162 pd myclock;
#X obj -108 -247 r startclock;
#N canvas 867 154 541 601 mycountdown 0;
#X obj -268 258 / 60;
#X obj -268 286 int;
#X obj -178 334 -;
#X obj -163 302 * 60;
#X obj -253 120 timer;
#X obj -253 144 / 1000;
#X obj -226 93 metro 1000;
#X obj -253 78 bng 15 250 50 0 empty empty empty 17 7 0 10 -262144
-1 -1;
#X obj -253 172 int;
#X obj -252 52 inlet;
#X obj -268 539 outlet;
#X obj -178 539 outlet;
#X floatatom -314 165 5 0 0 0 - - -;
#X obj -268 219 -;
#X obj -268 195 bng 15 250 50 0 empty empty empty 17 7 0 10 -262144
-1 -1;
#X obj -51 235 route 20 10 0;
#X msg -26 289 \; nextscene color 13 12;
#X msg -1 322 \; nextscene color 10 12;
#X msg -51 257 \; nextscene color 14 12;
#X text -291 14 receives scene durations;
#X text -290 27 and makes count down to be displayed in live score
;
#X text -43 214 WARNING COLOR DISPLAY IN LIVE SCORE;
#X text -295 566 MN/SEC COUNTDOWN DISPLAY IN LIVE SCORE;
#X floatatom -181 204 5 0 0 0 - - -;
#X text -131 74 INITIAL WGREY DISPLAY;
#X msg -120 93 \; nextscene color 10 12;
#X obj -51 441 s message;
#X obj -26 483 s message;
#X obj -1 524 s message;
#X msg -51 425 send /timer 1;
#X msg -26 467 send /timer 2;
#X msg -1 508 send /timer 0;
#X floatatom -51 190 5 0 0 0 - - -;
#X obj -251 496 s message;
#X msg -251 480 send /countdown \$2 \$1;
#X obj -251 381 pack f f;
#X obj -251 464 pack f f;
#X obj -251 397 route 50 40 30 20 10 0;
#X obj -159 365 - 1;
#X obj -141 505 print;
#X connect 0 0 1 0;
#X connect 1 0 3 0;
#X connect 1 0 10 0;
#X connect 1 0 36 1;
#X connect 2 0 11 0;
#X connect 2 0 35 0;
#X connect 2 0 38 0;
#X connect 3 0 2 1;
#X connect 4 0 5 0;
#X connect 5 0 8 0;
#X connect 6 0 4 1;
#X connect 7 0 4 0;
#X connect 7 0 6 0;
#X connect 7 0 25 0;
#X connect 8 0 13 1;
#X connect 8 0 14 0;
#X connect 8 0 23 0;
#X connect 9 0 7 0;
#X connect 9 0 12 0;
#X connect 12 0 13 0;
#X connect 13 0 0 0;
#X connect 13 0 2 0;
#X connect 13 0 15 0;
#X connect 14 0 13 0;
#X connect 15 0 18 0;
#X connect 15 0 29 0;
#X connect 15 1 16 0;
#X connect 15 1 30 0;
#X connect 15 2 17 0;
#X connect 15 2 31 0;
#X connect 29 0 26 0;
#X connect 30 0 27 0;
#X connect 31 0 28 0;
#X connect 32 0 15 0;
#X connect 34 0 33 0;
#X connect 34 0 39 0;
#X connect 35 0 37 0;
#X connect 36 0 34 0;
#X connect 37 0 36 0;
#X connect 37 1 36 0;
#X connect 37 2 36 0;
#X connect 37 3 36 0;
#X connect 37 4 36 0;
#X connect 37 5 36 0;
#X connect 38 0 35 1;
#X restore -108 -17 pd mycountdown;
#X obj -107 -95 r startcountdown;
#X obj -108 -77 unpack f f;
#N canvas 70 138 1355 888 nextparams 0;
#X obj -233 41 inlet;
#X msg -316 237 \; nextscene label SCAPHANDER_DRAW;
#X msg -302 274 \; nextscene label SCAPHANDER_FILL;
#X msg -286 308 \; nextscene label SCAPHANDER_CLOSED_EYES;
#X msg -273 352 \; nextscene label LOST_TWIN_DRAWING;
#X msg -254 398 \; nextscene label LOST_TWIN_STRIPES;
#X msg -233 436 \; nextscene label LOST_TWIN_PURPLE_RAIN;
#X msg -223 480 \; nextscene label GREAT_FLODD_DRAWING;
#X msg -208 520 \; nextscene label GREAT_FLOOD_FLAME;
#X msg -192 564 \; nextscene label GREAT_FLOOD_FLOOD;
#X msg -173 606 \; nextscene label GREAT_FLOOD_POINTS;
#X msg -157 644 \; nextscene label END;
#X obj -328 175 route 0 1 2 3 4 5 6 7 8 9 10 11;
#X obj -239 697 route 0 1 2 3 4 5 6 7 8 9 10 11;
#X msg -221 722 \; nextdrawing label MODE_LINE;
#X msg -227 759 \; nextdrawing label MODE_LINE;
#X msg -213 796 \; nextdrawing label MODE_FILL;
#X msg -197 830 \; nextdrawing label MODE_FILL;
#X msg -184 874 \; nextdrawing label MODE_LINE;
#X msg -165 920 \; nextdrawing label MODE_LINE;
#X msg -144 958 \; nextdrawing label MODE_POINT;
#X msg -134 1002 \; nextdrawing label MODE_LINE;
#X msg -119 1042 \; nextdrawing label MODE_FILL_AND_POINT;
#X msg -68 1166 \; nextdrawing label END;
#X msg -103 1086 \; nextdrawing label MODE_LINE;
#X msg -84 1128 \; nextdrawing label MODE_POINT;
#X obj -3 697 route 0 1 2 3 4 5 6 7 8 9 10 11;
#X msg 168 1166 \; nextrender label END;
#X msg 23 796 \; nextrender label SPREAD_NONE;
#X msg -2 725 \; nextrender label SPREAD_BIDIR;
#X msg 9 759 \; nextrender label SPREAD_NONE;
#X msg 39 830 \; nextrender label SPREAD_NONE;
#X msg 52 874 \; nextrender label SPREAD_NONE;
#X msg 71 920 \; nextrender label SPREAD_NONE;
#X msg 102 1002 \; nextrender label SPREAD_NONE;
#X msg 117 1042 \; nextrender label SPREAD_NONE;
#X msg 92 958 \; nextrender label SPREAD_X(00);
#X msg 133 1086 \; nextrender label SPREAD_S_T_B_H_V;
#X msg 152 1128 \; nextrender label SPREAD_O_o;
#X obj 220 695 route 0 1 2 3 4 5 6 7 8 9 10 11;
#X obj 426 690 route 0 1 2 3 4 5 6 7 8 9 10 11;
#X msg 215 725 \; nextcolor label GRAY_O-1_OR_BW;
#X msg 426 726 \; nextbrushID label ID_0;
#X msg 444 758 \; nextbrushID label ID_0;
#X msg 457 795 \; nextbrushID label ID_0;
#X msg 473 829 \; nextbrushID label ID_0;
#X msg 505 919 \; nextbrushID label ID_0;
#X msg 526 957 \; nextbrushID label ID_0;
#X msg 536 1001 \; nextbrushID label ID_0;
#X msg 551 1041 \; nextbrushID label ID_0;
#X msg 567 1085 \; nextbrushID label ID_0;
#X msg 486 873 \; nextbrushID label ID_0-1;
#X obj -237 1225 route 0 1 2 3 4 5 6 7 8 9 10 11;
#X msg 391 1164 \; nextcolor label 0_0_0_0;
#X msg 586 1127 \; nextbrushID label ID_0-7;
#X msg 602 1165 \; nextbrushID label ID_0;
#X msg -163 1448 \; nextbrushrad label x1_y1_xy1-11;
#X msg 232 757 \; nextcolor label R1_G1_B1_A1;
#X msg 262 828 \; nextcolor label R1_G1_B1_A1;
#X msg 325 1000 \; nextcolor label R1_G1_B1_A1;
#X msg 340 1040 \; nextcolor label R1_G1_B1_A1;
#X msg 275 872 \; nextcolor label R0-1_G0_B0_A1_BW;
#X msg 294 918 \; nextcolor label R0-1_G0_B0_A1_BW;
#X msg 315 956 \; nextcolor label R1_G0_B0_A1;
#X msg 356 1084 \; nextcolor label R0_G0_B1_A0-1;
#X msg 375 1126 \; nextcolor label R0_G0_B1_A1;
#X msg -236 1253 \; nextbrushrad label X;
#X msg -225 1287 \; nextbrushrad label xy1;
#X msg -211 1324 \; nextbrushrad label X;
#X msg -195 1358 \; nextbrushrad label X;
#X msg -182 1402 \; nextbrushrad label x1-400_y1-400_xy1-11;
#X msg -142 1486 \; nextbrushrad label x1_y1_xy1-3(26);
#X msg -132 1530 \; nextbrushrad label xy3(26);
#X msg -117 1570 \; nextbrushrad label x1-100(32)_y1-100(32)_xy1;
#X msg -101 1614 \; nextbrushrad label x1_y1_xy1-11;
#X msg -82 1656 \; nextbrushrad label x60(20)_y60(20)xy1;
#X msg -66 1694 \; nextbrushrad label x1_y1_xy1;
#X obj 13 1221 route 0 1 2 3 4 5 6 7 8 9 10 11;
#X msg 184 1690 \; nextbrushfreq label F_0;
#X msg 168 1652 \; nextbrushfreq label F_0;
#X msg 149 1610 \; nextbrushfreq label F_0;
#X msg 134 1565 \; nextbrushfreq label F_0;
#X msg 119 1525 \; nextbrushfreq label F_0;
#X msg 109 1482 \; nextbrushfreq label F_0;
#X msg 87 1444 \; nextbrushfreq label F_0;
#X msg 69 1397 \; nextbrushfreq label F_0;
#X msg 55 1354 \; nextbrushfreq label F_0;
#X msg 41 1319 \; nextbrushfreq label F_0;
#X msg 25 1282 \; nextbrushfreq label F_0;
#X msg 13 1245 \; nextbrushfreq label F_0;
#X obj 230 1220 route 0 1 2 3 4 5 6 7 8 9 10 11;
#X msg 231 1246 \; nextspreadrad label X;
#X msg 258 1318 \; nextspreadrad label X;
#X msg 272 1353 \; nextspreadrad label X;
#X msg 286 1396 \; nextspreadrad label X;
#X msg 304 1443 \; nextspreadrad label X;
#X msg 336 1524 \; nextspreadrad label X;
#X msg 351 1564 \; nextspreadrad label X;
#X msg 401 1689 \; nextspreadrad label X;
#X msg 246 794 \; nextcolor label GRAY_1-0;
#X msg 242 1281 \; nextspreadrad label R0-100;
#X msg 326 1481 \; nextspreadrad label V11(15);
#X msg 366 1609 \; nextspreadrad label HVR0-3(max);
#X msg 385 1651 \; nextspreadrad label 2.5(100);
#X obj 443 1217 route 0 1 2 3 4 5 6 7 8 9 10 11;
#X msg 442 1239 \; nextmusicxy label X;
#X msg 455 1278 \; nextmusicxy label X;
#X msg 471 1315 \; nextmusicxy label X;
#X msg 485 1350 \; nextmusicxy label X;
#X msg 549 1521 \; nextmusicxy label X;
#X msg 564 1561 \; nextmusicxy label X;
#X msg 614 1686 \; nextmusicxy label X;
#X msg 499 1393 \; nextmusicxy label 0-0.3(10);
#X msg 517 1440 \; nextmusicxy label 0-4;
#X msg 539 1478 \; nextmusicxy label 0.6(20);
#X msg 579 1606 \; nextmusicxy label 1.5(50);
#X msg 598 1648 \; nextmusicxy label 1.5(50)-0;
#X obj -40 179 route 0 1 2 3 4 5 6 7 8 9 10 11;
#X msg -39 207 \; nextmusiccolor label X;
#X msg -28 241 \; nextmusiccolor label X;
#X msg -14 278 \; nextmusiccolor label X;
#X msg 2 312 \; nextmusiccolor label X;
#X msg 15 356 \; nextmusiccolor label X;
#X msg 65 484 \; nextmusiccolor label X;
#X msg 80 524 \; nextmusiccolor label X;
#X msg 34 402 \; nextmusiccolor label 0-1.5(50);
#X msg 55 440 \; nextmusiccolor label 4(max);
#X msg 96 568 \; nextmusiccolor label 1.5(50);
#X msg 115 610 \; nextmusiccolor label 1.5(50);
#X msg 131 648 \; nextmusiccolor label X;
#X obj 189 174 route 0 1 2 3 4 5 6 7 8 9 10 11;
#X msg 190 202 \; nextmusicspread label X;
#X msg 201 236 \; nextmusicspread label X;
#X msg 215 273 \; nextmusicspread label X;
#X msg 231 307 \; nextmusicspread label X;
#X msg 244 351 \; nextmusicspread label X;
#X msg 263 397 \; nextmusicspread label X;
#X msg 284 435 \; nextmusicspread label X;
#X msg 294 479 \; nextmusicspread label X;
#X msg 309 519 \; nextmusicspread label X;
#X msg 325 563 \; nextmusicspread label X;
#X msg 360 643 \; nextmusicspread label X;
#X msg 344 605 \; nextmusicspread label 10(max);
#X obj 410 174 route 0 1 2 3 4 5 6 7 8 9 10 11;
#X msg 411 202 \; nextmusicradius label X;
#X msg 422 236 \; nextmusicradius label X;
#X msg 436 273 \; nextmusicradius label X;
#X msg 452 307 \; nextmusicradius label X;
#X msg 465 351 \; nextmusicradius label X;
#X msg 505 435 \; nextmusicradius label X;
#X msg 515 479 \; nextmusicradius label X;
#X msg 530 519 \; nextmusicradius label X;
#X msg 581 643 \; nextmusicradius label X;
#X msg 484 397 \; nextmusicradius label 0-100;
#X msg 546 563 \; nextmusicradius label 50(65);
#X msg 565 605 \; nextmusicradius label 5(7);
#X obj 630 176 route 0 1 2 3 4 5 6 7 8 9 10 11;
#X msg 656 275 \; nextdecay label D0;
#X msg 685 353 \; nextdecay label D0;
#X msg 706 399 \; nextdecay label D0;
#X msg 736 481 \; nextdecay label D0;
#X msg 750 521 \; nextdecay label D0;
#X msg 801 645 \; nextdecay label D0;
#X msg 631 204 \; nextdecay label D0-10;
#X msg 672 309 \; nextdecay label D0-10;
#X msg 642 238 \; nextdecay label D10-0;
#X msg 725 437 \; nextdecay label D3(35);
#X msg 766 565 \; nextdecay label D0-2.5(28);
#X msg 785 607 \; nextdecay label D4.5(60)-0;
#X msg -326 203 \; nextscene label SPERM_CELLS;
#X connect 0 0 12 0;
#X connect 0 0 13 0;
#X connect 0 0 26 0;
#X connect 0 0 39 0;
#X connect 0 0 40 0;
#X connect 0 0 52 0;
#X connect 0 0 77 0;
#X connect 0 0 90 0;
#X connect 0 0 104 0;
#X connect 0 0 117 0;
#X connect 0 0 130 0;
#X connect 0 0 143 0;
#X connect 0 0 156 0;
#X connect 12 0 169 0;
#X connect 12 1 1 0;
#X connect 12 2 2 0;
#X connect 12 3 3 0;
#X connect 12 4 4 0;
#X connect 12 5 5 0;
#X connect 12 6 6 0;
#X connect 12 7 7 0;
#X connect 12 8 8 0;
#X connect 12 9 9 0;
#X connect 12 10 10 0;
#X connect 12 11 11 0;
#X connect 13 0 14 0;
#X connect 13 1 15 0;
#X connect 13 2 16 0;
#X connect 13 3 17 0;
#X connect 13 4 18 0;
#X connect 13 5 19 0;
#X connect 13 6 20 0;
#X connect 13 7 21 0;
#X connect 13 8 22 0;
#X connect 13 9 24 0;
#X connect 13 10 25 0;
#X connect 13 11 23 0;
#X connect 26 0 29 0;
#X connect 26 1 30 0;
#X connect 26 2 28 0;
#X connect 26 3 31 0;
#X connect 26 4 32 0;
#X connect 26 5 33 0;
#X connect 26 6 36 0;
#X connect 26 7 34 0;
#X connect 26 8 35 0;
#X connect 26 9 37 0;
#X connect 26 10 38 0;
#X connect 26 11 27 0;
#X connect 39 0 41 0;
#X connect 39 1 57 0;
#X connect 39 2 99 0;
#X connect 39 3 58 0;
#X connect 39 4 61 0;
#X connect 39 5 62 0;
#X connect 39 6 63 0;
#X connect 39 7 59 0;
#X connect 39 8 60 0;
#X connect 39 9 64 0;
#X connect 39 10 65 0;
#X connect 39 11 53 0;
#X connect 40 0 42 0;
#X connect 40 1 43 0;
#X connect 40 2 44 0;
#X connect 40 3 45 0;
#X connect 40 4 51 0;
#X connect 40 5 46 0;
#X connect 40 6 47 0;
#X connect 40 7 48 0;
#X connect 40 8 49 0;
#X connect 40 9 50 0;
#X connect 40 10 54 0;
#X connect 40 11 55 0;
#X connect 52 0 66 0;
#X connect 52 1 67 0;
#X connect 52 2 68 0;
#X connect 52 3 69 0;
#X connect 52 4 70 0;
#X connect 52 5 56 0;
#X connect 52 6 71 0;
#X connect 52 7 72 0;
#X connect 52 8 73 0;
#X connect 52 9 74 0;
#X connect 52 10 75 0;
#X connect 52 11 76 0;
#X connect 77 0 89 0;
#X connect 77 1 88 0;
#X connect 77 2 87 0;
#X connect 77 3 86 0;
#X connect 77 4 85 0;
#X connect 77 5 84 0;
#X connect 77 6 83 0;
#X connect 77 7 82 0;
#X connect 77 8 81 0;
#X connect 77 9 80 0;
#X connect 77 10 79 0;
#X connect 77 11 78 0;
#X connect 90 0 91 0;
#X connect 90 1 100 0;
#X connect 90 2 92 0;
#X connect 90 3 93 0;
#X connect 90 4 94 0;
#X connect 90 5 95 0;
#X connect 90 6 101 0;
#X connect 90 7 96 0;
#X connect 90 8 97 0;
#X connect 90 9 102 0;
#X connect 90 10 103 0;
#X connect 90 11 98 0;
#X connect 104 0 105 0;
#X connect 104 1 106 0;
#X connect 104 2 107 0;
#X connect 104 3 108 0;
#X connect 104 4 112 0;
#X connect 104 5 113 0;
#X connect 104 6 114 0;
#X connect 104 7 109 0;
#X connect 104 8 110 0;
#X connect 104 9 115 0;
#X connect 104 10 116 0;
#X connect 104 11 111 0;
#X connect 117 0 118 0;
#X connect 117 1 119 0;
#X connect 117 2 120 0;
#X connect 117 3 121 0;
#X connect 117 4 122 0;
#X connect 117 5 125 0;
#X connect 117 6 126 0;
#X connect 117 7 123 0;
#X connect 117 8 124 0;
#X connect 117 9 127 0;
#X connect 117 10 128 0;
#X connect 117 11 129 0;
#X connect 130 0 131 0;
#X connect 130 1 132 0;
#X connect 130 2 133 0;
#X connect 130 3 134 0;
#X connect 130 4 135 0;
#X connect 130 5 136 0;
#X connect 130 6 137 0;
#X connect 130 7 138 0;
#X connect 130 8 139 0;
#X connect 130 9 140 0;
#X connect 130 10 142 0;
#X connect 130 11 141 0;
#X connect 143 0 144 0;
#X connect 143 1 145 0;
#X connect 143 2 146 0;
#X connect 143 3 147 0;
#X connect 143 4 148 0;
#X connect 143 5 153 0;
#X connect 143 6 149 0;
#X connect 143 7 150 0;
#X connect 143 8 151 0;
#X connect 143 9 154 0;
#X connect 143 10 155 0;
#X connect 143 11 152 0;
#X connect 156 0 163 0;
#X connect 156 1 165 0;
#X connect 156 2 157 0;
#X connect 156 3 164 0;
#X connect 156 4 158 0;
#X connect 156 5 159 0;
#X connect 156 6 166 0;
#X connect 156 7 160 0;
#X connect 156 8 161 0;
#X connect 156 9 167 0;
#X connect 156 10 168 0;
#X connect 156 11 162 0;
#X restore -51 -59 pd nextparams;
#N canvas 112 52 1617 977 curparams 0;
#X obj -329 56 inlet;
#X obj -373 149 route 0 1 2 3 4 5 6 7 8 9 10 11 12;
#X msg -347 248 \; currentscene label SCAPHANDER_DRAW;
#X msg -331 282 \; currentscene label SCAPHANDER_FILL;
#X msg -318 326 \; currentscene label SCAPHANDER_CLOSED_EYES;
#X msg -299 372 \; currentscene label LOST_TWIN_DRAWING;
#X msg -278 410 \; currentscene label LOST_TWIN_STRIPES;
#X msg -268 454 \; currentscene label LOST_TWIN_PURPLE_RAIN;
#X msg -253 494 \; currentscene label GREAT_FLODD_DRAWING;
#X msg -237 538 \; currentscene label GREAT_FLOOD_FLAME;
#X msg -218 580 \; currentscene label GREAT_FLOOD_FLOOD;
#X msg -202 618 \; currentscene label GREAT_FLOOD_POINTS;
#X obj -335 712 route 0 1 2 3 4 5 6 7 8 9 10 11;
#X obj -99 712 route 0 1 2 3 4 5 6 7 8 9 10 11;
#X obj 124 710 route 0 1 2 3 4 5 6 7 8 9 10 11;
#X obj 330 705 route 0 1 2 3 4 5 6 7 8 9 10 11;
#X obj -333 1240 route 0 1 2 3 4 5 6 7 8 9 10 11;
#X obj -83 1236 route 0 1 2 3 4 5 6 7 8 9 10 11;
#X obj 134 1235 route 0 1 2 3 4 5 6 7 8 9 10 11;
#X obj 347 1232 route 0 1 2 3 4 5 6 7 8 9 10 11;
#X obj 557 706 route 0 1 2 3 4 5 6 7 8 9 10 11;
#X obj 777 708 route 0 1 2 3 4 5 6 7 8 9 10 11;
#X obj 148 146 route 0 1 2 3 4 5 6 7 8 9 10 11;
#X obj -81 151 route 0 1 2 3 4 5 6 7 8 9 10 11;
#X msg -180 659 \; currentscene label END;
#X msg -80 179 \; curmusiccolor label X;
#X msg -69 213 \; curmusiccolor label X;
#X msg -55 250 \; curmusiccolor label X;
#X msg -39 284 \; curmusiccolor label X;
#X msg -26 328 \; curmusiccolor label X;
#X msg -7 374 \; curmusiccolor label X;
#X msg 14 412 \; curmusiccolor label 0-1.5(50);
#X msg 24 456 \; curmusiccolor label 4(max);
#X msg 39 496 \; curmusiccolor label X;
#X msg 55 540 \; curmusiccolor label X;
#X msg 74 582 \; curmusiccolor label 1.5(50);
#X msg 90 620 \; curmusiccolor label 1.5(50);
#X msg 149 174 \; curmusicspread label X;
#X msg 160 208 \; curmusicspread label X;
#X msg 174 245 \; curmusicspread label X;
#X msg 190 279 \; curmusicspread label X;
#X msg 203 323 \; curmusicspread label X;
#X msg 222 369 \; curmusicspread label X;
#X msg 243 407 \; curmusicspread label X;
#X msg 253 451 \; curmusicspread label X;
#X msg 268 491 \; curmusicspread label X;
#X msg 284 535 \; curmusicspread label X;
#X msg 303 577 \; curmusicspread label X;
#X msg 319 615 \; curmusicspread label 10(max);
#X msg 558 734 \; curmusicradius label X;
#X msg 569 768 \; curmusicradius label X;
#X msg 583 805 \; curmusicradius label X;
#X msg 599 839 \; curmusicradius label X;
#X msg 612 883 \; curmusicradius label X;
#X msg 631 929 \; curmusicradius label X;
#X msg 652 967 \; curmusicradius label 0-100;
#X msg 662 1011 \; curmusicradius label X;
#X msg 677 1051 \; curmusicradius label X;
#X msg 693 1095 \; curmusicradius label X;
#X msg 712 1137 \; curmusicradius label 50(65);
#X msg 728 1175 \; curmusicradius label 5(7);
#X msg 789 770 \; curdecay label D0-10;
#X msg 803 807 \; curdecay label D10-0;
#X msg 819 841 \; curdecay label D0;
#X msg 832 885 \; curdecay label D0-10;
#X msg 853 931 \; curdecay label D0;
#X msg 872 969 \; curdecay label D0;
#X msg 883 1013 \; curdecay label D3(35);
#X msg 897 1053 \; curdecay label D0;
#X msg 910 1094 \; curdecay label D0;
#X msg 932 1139 \; curdecay label D0-2.5(28);
#X msg 948 1177 \; curdecay label D4.5(60)-0;
#X msg -337 737 \; curdrawing label MODE_LINE;
#X msg -323 774 \; curdrawing label MODE_LINE;
#X msg -309 811 \; curdrawing label MODE_LINE;
#X msg -293 845 \; curdrawing label MODE_FILL;
#X msg -280 889 \; curdrawing label MODE_FILL;
#X msg -261 935 \; curdrawing label MODE_LINE;
#X msg -240 973 \; curdrawing label MODE_LINE;
#X msg -230 1017 \; curdrawing label MODE_POINT;
#X msg -215 1057 \; curdrawing label MODE_LINE;
#X msg -199 1101 \; curdrawing label MODE_FILL_AND_POINT;
#X msg -180 1143 \; curdrawing label MODE_LINE;
#X msg -164 1181 \; curdrawing label MODE_POINT;
#X msg 136 772 \; curcolor label GRAY_O-1_OR_BW;
#X msg 150 809 \; curcolor label R1_G1_B1_A1;
#X msg 166 843 \; curcolor label GRAY_1-0;
#X msg 179 887 \; curcolor label R1_G1_B1_A1;
#X msg 198 933 \; curcolor label R0-1_G0_B0_A1_BW;
#X msg 219 971 \; curcolor label R0-1_G0_B0_A1_BW;
#X msg 229 1015 \; curcolor label R1_G0_B0_A1;
#X msg 244 1055 \; curcolor label R1_G1_B1_A1;
#X msg 260 1099 \; curcolor label R1_G1_B1_A1;
#X msg 279 1141 \; curcolor label R0_G0_B1_A0-1;
#X msg 295 1179 \; curcolor label R0_G0_B1_A1;
#X msg 330 741 \; curbrushID label ID_0;
#X msg 348 773 \; curbrushID label ID_0;
#X msg 361 810 \; curbrushID label ID_0;
#X msg 377 844 \; curbrushID label ID_0;
#X msg 390 888 \; curbrushID label ID_0;
#X msg 409 934 \; curbrushID label ID_0-1;
#X msg 430 972 \; curbrushID label ID_0;
#X msg 440 1016 \; curbrushID label ID_0;
#X msg 455 1056 \; curbrushID label ID_0;
#X msg 471 1100 \; curbrushID label ID_0;
#X msg 490 1142 \; curbrushID label ID_0;
#X msg 506 1180 \; curbrushID label ID_0-7;
#X msg -87 774 \; currendering label SPREAD_BIDIR;
#X msg -73 811 \; currendering label SPREAD_NONE;
#X msg -57 845 \; currendering label SPREAD_NONE;
#X msg -44 889 \; currendering label SPREAD_NONE;
#X msg -25 935 \; currendering label SPREAD_NONE;
#X msg -4 973 \; currendering label SPREAD_NONE;
#X msg 6 1017 \; currendering label SPREAD_X(00);
#X msg 21 1057 \; currendering label SPREAD_NONE;
#X msg 37 1101 \; currendering label SPREAD_NONE;
#X msg 56 1143 \; currendering label SPREAD_S_T_B_H_V;
#X msg 72 1181 \; currendering label SPREAD_O_o;
#X msg -321 1302 \; curbrushrad label X;
#X msg -307 1339 \; curbrushrad label xy1;
#X msg -291 1373 \; curbrushrad label X;
#X msg -278 1417 \; curbrushrad label X;
#X msg -259 1463 \; curbrushrad label x1-400_y1-400_xy1-11;
#X msg -238 1501 \; curbrushrad label x1_y1_xy1-11;
#X msg -228 1545 \; curbrushrad label x1_y1_xy1-3(26);
#X msg -213 1585 \; curbrushrad label xy3(26);
#X msg -197 1629 \; curbrushrad label x1-100(32)_y1-100(32)_xy1;
#X msg -178 1671 \; curbrushrad label x1_y1_xy1-11;
#X msg -162 1709 \; curbrushrad label x60(20)_y60(20)xy1;
#X msg 135 1261 \; curspreadrad label X;
#X msg 176 1368 \; curspreadrad label X;
#X msg 190 1411 \; curspreadrad label X;
#X msg 208 1458 \; curspreadrad label X;
#X msg 255 1579 \; curspreadrad label X;
#X msg 305 1704 \; curspreadrad label 2.5(100);
#X msg 289 1666 \; curspreadrad label HVR0-3(max);
#X msg 270 1624 \; curspreadrad label X;
#X msg 240 1539 \; curspreadrad label V11(15);
#X msg 230 1496 \; curspreadrad label X;
#X msg 162 1333 \; curspreadrad label R0-100;
#X msg 146 1296 \; curspreadrad label X;
#X msg 346 1254 \; curmusicxy label X;
#X msg 359 1293 \; curmusicxy label X;
#X msg 375 1330 \; curmusicxy label X;
#X msg 392 1372 \; curmusicxy label X;
#X msg 468 1576 \; curmusicxy label X;
#X msg 518 1701 \; curmusicxy label 1.5(50)-0;
#X msg 502 1663 \; curmusicxy label 1.5(50);
#X msg 483 1621 \; curmusicxy label X;
#X msg 453 1536 \; curmusicxy label 0.6(20);
#X msg 443 1493 \; curmusicxy label 0-4;
#X msg 418 1451 \; curmusicxy label 0-0.3(10);
#X msg 403 1408 \; curmusicxy label X;
#X msg 778 736 \; curdecay label D0;
#X msg -98 740 \; currendering label SPREAD_NONE;
#X msg 119 740 \; curcolor label R1_G0_B0_A0-1;
#X msg -332 1268 \; curbrushrad label x0-30_Y0-30_XY1-11;
#X msg -372 177 \; currentscene label EGGS;
#X msg -361 211 \; currentscene label SPERM_CELLS;
#X obj 403 146 route 0 1 2 3 4 5 6 7 8 9 10 11 12;
#X msg 600 641 \; currentcomment label END;
#X text 406 111 COMMENTS ON CURRENT SCENE TO HELP FOR TRANSITION;
#X text 412 126 TO THE NEXT ONE;
#X msg 415 208 \; currentcomment label FINISH_WITH_CLEAR_THEN_DECAY+LINE
;
#X msg 430 245 \; currentcomment label FINISH_WITH_FILL;
#X msg 445 279 \; currentcomment label FINISH_WITH_DECAY;
#X msg 460 309 \; currentcomment label FINISH_WITH_CLEAR_THEN_RED+BRUSH1+LINE+MUSICXY
;
#X msg 501 393 \; currentcomment label FINISH_WITH_KALEID0+POINTS+DECAY
;
#X msg 480 354 \; currentcomment label FINISH_WITH_KALEIDX+BRUSH0;
#X msg 512 436 \; currentcomment label FINISH_WITH_CLEAR+KALEID1+LINE
;
#X msg 529 476 \; currentcomment label FINISH_WITH_K0+FILL;
#X msg 542 522 \; currentcomment label FINISH_WITH_BIDIR+MUSIC_COLOR
;
#X msg 403 174 \; currentcomment label FINISH_WITH_BIDIR;
#X msg 561 561 \; currentcomment label FINISH_WITH_POINTS+DECAY;
#X msg 577 600 \; currentcomment label FINISH_WITH_DECAY+FADE_OUT;
#X connect 0 0 1 0;
#X connect 0 0 12 0;
#X connect 0 0 13 0;
#X connect 0 0 14 0;
#X connect 0 0 15 0;
#X connect 0 0 16 0;
#X connect 0 0 17 0;
#X connect 0 0 18 0;
#X connect 0 0 19 0;
#X connect 0 0 20 0;
#X connect 0 0 22 0;
#X connect 0 0 23 0;
#X connect 0 0 21 0;
#X connect 0 0 171 0;
#X connect 1 0 169 0;
#X connect 1 1 170 0;
#X connect 1 2 2 0;
#X connect 1 3 3 0;
#X connect 1 4 4 0;
#X connect 1 5 5 0;
#X connect 1 6 6 0;
#X connect 1 7 7 0;
#X connect 1 8 8 0;
#X connect 1 9 9 0;
#X connect 1 10 10 0;
#X connect 1 11 11 0;
#X connect 1 12 24 0;
#X connect 12 0 72 0;
#X connect 12 1 73 0;
#X connect 12 2 74 0;
#X connect 12 3 75 0;
#X connect 12 4 76 0;
#X connect 12 5 77 0;
#X connect 12 6 78 0;
#X connect 12 7 79 0;
#X connect 12 8 80 0;
#X connect 12 9 81 0;
#X connect 12 10 82 0;
#X connect 12 11 83 0;
#X connect 13 0 166 0;
#X connect 13 1 107 0;
#X connect 13 2 108 0;
#X connect 13 3 109 0;
#X connect 13 4 110 0;
#X connect 13 5 111 0;
#X connect 13 6 112 0;
#X connect 13 7 113 0;
#X connect 13 8 114 0;
#X connect 13 9 115 0;
#X connect 13 10 116 0;
#X connect 13 11 117 0;
#X connect 14 0 167 0;
#X connect 14 1 84 0;
#X connect 14 2 85 0;
#X connect 14 3 86 0;
#X connect 14 4 87 0;
#X connect 14 5 88 0;
#X connect 14 6 89 0;
#X connect 14 7 90 0;
#X connect 14 8 91 0;
#X connect 14 9 92 0;
#X connect 14 10 93 0;
#X connect 14 11 94 0;
#X connect 15 0 95 0;
#X connect 15 1 96 0;
#X connect 15 2 97 0;
#X connect 15 3 98 0;
#X connect 15 4 99 0;
#X connect 15 5 100 0;
#X connect 15 6 101 0;
#X connect 15 7 102 0;
#X connect 15 8 103 0;
#X connect 15 9 104 0;
#X connect 15 10 105 0;
#X connect 15 11 106 0;
#X connect 16 0 168 0;
#X connect 16 1 118 0;
#X connect 16 2 119 0;
#X connect 16 3 120 0;
#X connect 16 4 121 0;
#X connect 16 5 122 0;
#X connect 16 6 123 0;
#X connect 16 7 124 0;
#X connect 16 8 125 0;
#X connect 16 9 126 0;
#X connect 16 10 127 0;
#X connect 16 11 128 0;
#X connect 17 0 129 0;
#X connect 17 1 130 0;
#X connect 17 2 131 0;
#X connect 17 3 132 0;
#X connect 17 4 133 0;
#X connect 17 5 134 0;
#X connect 17 6 135 0;
#X connect 17 7 136 0;
#X connect 17 8 137 0;
#X connect 17 9 138 0;
#X connect 17 10 139 0;
#X connect 17 11 140 0;
#X connect 18 0 141 0;
#X connect 18 1 152 0;
#X connect 18 2 151 0;
#X connect 18 3 142 0;
#X connect 18 4 143 0;
#X connect 18 5 144 0;
#X connect 18 6 150 0;
#X connect 18 7 149 0;
#X connect 18 8 145 0;
#X connect 18 9 148 0;
#X connect 18 10 147 0;
#X connect 18 11 146 0;
#X connect 19 0 153 0;
#X connect 19 1 154 0;
#X connect 19 2 155 0;
#X connect 19 3 156 0;
#X connect 19 4 164 0;
#X connect 19 5 163 0;
#X connect 19 8 157 0;
#X connect 19 9 160 0;
#X connect 19 10 159 0;
#X connect 19 11 158 0;
#X connect 20 0 49 0;
#X connect 20 1 50 0;
#X connect 20 2 51 0;
#X connect 20 3 52 0;
#X connect 20 4 53 0;
#X connect 20 5 54 0;
#X connect 20 6 55 0;
#X connect 20 7 56 0;
#X connect 20 8 57 0;
#X connect 20 9 58 0;
#X connect 20 10 59 0;
#X connect 20 11 60 0;
#X connect 21 0 165 0;
#X connect 21 1 61 0;
#X connect 21 2 62 0;
#X connect 21 3 63 0;
#X connect 21 4 64 0;
#X connect 21 5 65 0;
#X connect 21 6 66 0;
#X connect 21 7 67 0;
#X connect 21 8 68 0;
#X connect 21 9 69 0;
#X connect 21 10 70 0;
#X connect 21 11 71 0;
#X connect 22 0 37 0;
#X connect 22 1 38 0;
#X connect 22 2 39 0;
#X connect 22 3 40 0;
#X connect 22 4 41 0;
#X connect 22 5 42 0;
#X connect 22 6 43 0;
#X connect 22 7 44 0;
#X connect 22 8 45 0;
#X connect 22 9 46 0;
#X connect 22 10 47 0;
#X connect 22 11 48 0;
#X connect 23 0 25 0;
#X connect 23 1 26 0;
#X connect 23 2 27 0;
#X connect 23 3 28 0;
#X connect 23 4 29 0;
#X connect 23 5 30 0;
#X connect 23 6 31 0;
#X connect 23 7 32 0;
#X connect 23 8 33 0;
#X connect 23 9 34 0;
#X connect 23 10 35 0;
#X connect 23 11 36 0;
#X restore -51 -40 pd curparams;
#X obj -108 -139 s elapsedmn;
#X obj -51 -117 s elapsedsec;
#X obj -108 4 s remainingmn;
#X obj -27 22 s remainingsec;
#X text -111 -267 launch msg reception;
#X text -111 -284 start of the elapsed time count;
#X text -196 -340 AUDIO ON;
#X obj -194 -323 loadbang;
#X msg -194 -307 \; pd dsp 1;
#X text -136 -304 compute audio;
#X text -158 105 USB Controller;
#X text -12 54 OSC message processing;
#X obj -84 -219 loadbang;
#X msg -84 -194 0;
#X obj -51 -194 r retake;
#X obj -2 -239 bng 15 250 50 0 empty empty empty 17 7 0 10 -4034 -1
-1;
#X text 16 -238 Manual_start_clock;
#X obj -125 -323 bng 15 250 50 0 empty empty empty 17 7 0 10 -4034
-1 -1;
#X obj -1 -324 bng 15 250 50 0 empty empty empty 17 7 0 10 -258113
-1 -1;
#X obj 15 -324 s stopsoundtrack;
#X text 1 -342 STOP SOUNDTRACK;
#X text -125 -342 START SOUNDTRACK;
#X obj -111 -324 s startsoundtrack;
#N canvas 241 394 505 260 playsoundtrack 0;
#X obj 32 226 dac~ 1 2;
#X obj 32 178 readsf~ 2;
#X obj 101 145 env~ 16384;
#X floatatom 97 166 0 0 0 0 - - -;
#X obj 195 144 env~ 16384;
#X floatatom 195 163 0 0 0 0 - - -;
#X obj 178 32 r startclock;
#X msg 281 54 0;
#X obj 281 34 r stopsoundtrack;
#X obj 32 34 r startsoundtrack;
#X msg 32 66 1;
#X obj 70 67 delay 1;
#X msg 45 150 1;
#X msg 32 99 open /home/christian/3D/LYM/sounds/NineBacktrackOKT2012wav.wav
;
#X connect 1 0 0 0;
#X connect 1 1 0 1;
#X connect 2 0 3 0;
#X connect 4 0 5 0;
#X connect 7 0 13 0;
#X connect 8 0 7 0;
#X connect 9 0 10 0;
#X connect 10 0 13 0;
#X connect 10 0 11 0;
#X connect 11 0 12 0;
#X connect 12 0 1 0;
#X connect 13 0 1 0;
#X restore -158 197 pd playsoundtrack;
#X obj -300 139 vsl 60 60 0 20 0 0 empty empty empty 0 -12 1 20 -162280
-1 -262144 1806 1;
#X obj -299 118 r soundvolume;
#X text -155 180 Soundtrack playing;
#X obj -11 154 s startclock;
#X obj -11 134 route /launch;
#X text -12 68 for clock launching;
#X obj -275 220 ctlin;
#X floatatom -302 251 5 0 0 0 - - -;
#X floatatom -262 252 5 0 0 0 - - -;
#X floatatom -222 253 5 0 0 0 - - -;
#X obj -298 40 loadbang;
#X obj -295 74 hsl 128 15 0 5 0 0 empty empty empty -2 -8 0 10 -262144
-1 -1 2540 1;
#X msg -298 57 1;
#X obj -298 89 s input_volume;
#X floatatom -191 89 5 0 0 0 - - -;
#X obj 33 110 routeOSC;
#X obj -220 -202 s connect;
#X obj -306 -201 s disconnect;
#X obj -306 -251 bng 30 250 50 0 empty empty empty 0 -6 0 8 -24198
-1 -1;
#X text -284 -265 Manual connection;
#X obj -306 -221 delay 10000;
#X obj -220 -221 delay 10050;
#X obj 32 192 print;
#X obj -11 88 dumpOSC 1979;
#X connect 2 0 1 0;
#X connect 3 0 1 1;
#X connect 4 0 1 2;
#X connect 5 0 1 3;
#X connect 7 0 0 0;
#X connect 8 0 0 1;
#X connect 9 0 7 0;
#X connect 11 0 1 4;
#X connect 12 0 1 5;
#X connect 19 0 21 0;
#X connect 20 0 19 0;
#X connect 21 0 2 0;
#X connect 21 0 3 0;
#X connect 21 0 4 0;
#X connect 21 0 5 0;
#X connect 24 0 31 0;
#X connect 24 1 32 0;
#X connect 25 0 24 0;
#X connect 26 0 33 0;
#X connect 26 1 34 0;
#X connect 27 0 28 0;
#X connect 28 0 26 0;
#X connect 28 1 29 0;
#X connect 28 1 30 0;
#X connect 38 0 39 0;
#X connect 43 0 44 0;
#X connect 44 0 24 1;
#X connect 45 0 24 1;
#X connect 45 0 24 0;
#X connect 46 0 24 0;
#X connect 48 0 53 0;
#X connect 49 0 50 0;
#X connect 56 0 55 0;
#X connect 59 0 58 0;
#X connect 61 0 62 0;
#X connect 61 1 63 0;
#X connect 61 2 64 0;
#X connect 65 0 67 0;
#X connect 66 0 68 0;
#X connect 66 0 69 0;
#X connect 67 0 66 0;
#X connect 73 0 75 0;
#X connect 73 0 76 0;
#X connect 75 0 72 0;
#X connect 76 0 71 0;
#X connect 78 0 59 0;
