#N canvas 227 50 997 667 10;
#X obj 529 365 cnv 15 120 120 empty mn_can 0 10 50 1 96 -241291 -33289
0;
#X obj 658 365 cnv 15 120 120 empty sec_can 31 10 50 1 96 -4034 -33289
0;
#X obj 8 365 cnv 15 510 290 empty empty empty 20 12 0 14 -261682 -66577
0;
#X obj 13 374 ctlin 19 1;
#X obj 14 597 bng 15 250 50 0 empty empty empty 17 7 0 10 -262144 -1
-1;
#X obj 158 597 bng 15 250 50 0 empty empty empty 17 7 0 10 -262144
-1 -1;
#X obj 14 580 ctlin 14 1;
#X obj 15 444 ctlin 22 1;
#X msg 14 612 send /PDdelayroom_on;
#X obj 158 580 ctlin 15 1;
#X msg 158 612 send /testUDP_fromPD;
#X obj 14 628 send porphyrographOut;
#X obj 158 629 send porphyrographOut;
#N canvas 256 200 962 187 launch 0;
#X obj -689 -7 s startclock;
#X msg -782 -6 send /launch;
#X obj -650 78 send porphyrographOut;
#X msg -339 23 send /terrains_vagues1_onOff;
#X msg -600 -8 send /terrains_vagues1_level 0;
#X obj -455 24 s startclock;
#X msg -941 -9 send /TV_backtrack_onOff;
#X obj -391 -7 delay 52000;
#X obj -648 -62 inlet;
#X obj -679 31 s timeOffset;
#X msg -679 14 0;
#X obj -429 62 s timeOffset;
#X msg -429 45 0;
#X msg -155 20 send /scene_offset 0;
#X obj -776 75 print;
#X connect 1 0 2 0;
#X connect 3 0 2 0;
#X connect 4 0 2 0;
#X connect 6 0 2 0;
#X connect 7 0 3 0;
#X connect 7 0 5 0;
#X connect 7 0 12 0;
#X connect 7 0 13 0;
#X connect 8 0 6 0;
#X connect 8 0 1 0;
#X connect 8 0 0 0;
#X connect 8 0 4 0;
#X connect 8 0 7 0;
#X connect 8 0 10 0;
#X connect 10 0 9 0;
#X connect 12 0 11 0;
#X connect 13 0 2 0;
#X restore 15 481 pd launch;
#X obj 150 389 bng 20 250 50 0 empty empty 12 25 10 0 18 -260097 -1
-1;
#X obj 150 372 ctlin 20 1;
#X obj 317 371 ctlin 21 1;
#X obj 147 463 bng 20 250 50 0 empty empty empty 17 7 0 10 -204786
-1 -1;
#X obj 319 462 bng 20 250 50 0 empty empty empty 17 7 0 10 -232576
-1 -1;
#X obj 319 481 send porphyrographOut;
#X text 23 427 LAUCHING;
#X text 159 428 TERRAINS VAGUES SAMPLES;
#X obj 13 524 bng 15 250 50 0 empty empty empty 17 7 0 10 -262144 -1
-1;
#X obj 13 541 send porphyrographOut;
#X msg 34 525 send;
#X obj 148 522 bng 15 250 50 0 empty empty empty 17 7 0 10 -262144
-1 -1;
#X obj 148 539 send porphyrographOut;
#X msg 169 523 send;
#X obj 315 521 bng 15 250 50 0 empty empty empty 17 7 0 10 -262144
-1 -1;
#X obj 315 538 send porphyrographOut;
#X obj 13 507 ctlin 25 1;
#X obj 148 505 ctlin 26 1;
#X obj 315 504 ctlin 27 1;
#X obj 319 445 ctlin 24 1;
#X obj 147 446 ctlin 23 1;
#X text 15 561 DELAY;
#X text 157 561 TEST UDP;
#X obj 786 365 cnv 15 200 290 empty empty empty 20 12 0 14 -261682
-66577 0;
#X msg 908 554 disconnect;
#X obj 863 525 bng 30 250 50 0 empty empty empty 0 -6 0 8 -24198 -1
-1;
#X obj 908 524 bng 30 250 50 0 empty empty empty 0 -6 0 8 -258699 -1
-1;
#X obj 790 561 send reset;
#X obj 918 438 ctlin;
#X floatatom 870 471 5 0 0 0 - - -, f 5;
#X floatatom 914 471 5 0 0 0 - - -, f 5;
#X floatatom 949 467 5 0 0 0 - - -, f 5;
#X obj 790 528 loadbang;
#N canvas 332 180 1083 451 connect 0;
#X obj -202 -9 inlet;
#X obj -194 162 print;
#X obj -111 36 receive reset;
#X text -155 15 messages for the SC OSC server;
#X floatatom -112 197 5 0 0 0 - - -, f 5;
#X obj -224 108 receive porphyrographOut;
#X obj -151 43 bng 15 250 50 0 empty empty empty 17 7 0 10 -262144
-1 -1;
#X msg -111 60 connect 127.0.0.1 1978;
#X obj -112 173 netsend 1;
#X obj 202 -12 netreceive 1979 1;
#X obj 104 13 print receive;
#X obj 45 117 makefilename %d;
#X msg 45 134 \; beat_can label \$1;
#X obj 169 135 route 0;
#X msg 169 170 \; terrains_vagues1_onOff_can label OFF;
#X msg 167 213 \; terrains_vagues1_onOff_can color 17 12;
#X msg 167 262 \; terrains_vagues1_onOff_can label ON;
#X msg 167 305 \; terrains_vagues1_onOff_can color 13 12;
#X obj 237 116 makefilename %.2f;
#X msg 237 133 \; terrains_vagues1_can label \$1;
#X obj 442 138 route 0;
#X msg 442 173 \; TV_backtrack_onOff_can label OFF;
#X msg 440 216 \; TV_backtrack_onOff_can color 17 12;
#X msg 440 265 \; TV_backtrack_onOff_can label ON;
#X msg 440 308 \; TV_backtrack_onOff_can color 13 12;
#X obj 524 115 makefilename %.2f;
#X msg 524 132 \; TV_backtrack_can label \$1;
#X obj 202 5 route /beat /terrains_vagues1_onOff_can /terrains_vagues1_can
/TV_backtrack_onOff_can /TV_backtrack_can /TV_backtrack_6_onOff_can
/TV_backtrack_6_can /TV_backtrack_onOff_12_can /TV_backtrack_12_can
/TV_backtrack_20_onOff_can /TV_backtrack_20_can /record_output_can
;
#X obj 705 139 route 0;
#X msg 705 174 \; record_output_can label OFF;
#X msg 703 217 \; record_output_can color 17 12;
#X msg 703 266 \; record_output_can label ON;
#X msg 703 309 \; record_output_can color 13 12;
#X connect 0 0 8 0;
#X connect 2 0 7 0;
#X connect 5 0 1 0;
#X connect 5 0 8 0;
#X connect 6 0 7 0;
#X connect 7 0 8 0;
#X connect 8 0 4 0;
#X connect 9 0 27 0;
#X connect 11 0 12 0;
#X connect 13 0 14 0;
#X connect 13 0 15 0;
#X connect 13 1 16 0;
#X connect 13 1 17 0;
#X connect 18 0 19 0;
#X connect 20 0 21 0;
#X connect 20 0 22 0;
#X connect 20 1 23 0;
#X connect 20 1 24 0;
#X connect 25 0 26 0;
#X connect 27 0 11 0;
#X connect 27 1 13 0;
#X connect 27 2 18 0;
#X connect 27 3 20 0;
#X connect 27 4 25 0;
#X connect 27 5 20 0;
#X connect 27 6 25 0;
#X connect 27 7 20 0;
#X connect 27 8 25 0;
#X connect 27 9 20 0;
#X connect 27 10 25 0;
#X connect 27 11 28 0;
#X connect 28 0 29 0;
#X connect 28 0 30 0;
#X connect 28 1 31 0;
#X connect 28 1 32 0;
#X restore 908 571 pd connect;
#N canvas 199 50 1076 699 allSequencesAndEffects 0;
#X obj 804 -432 ctlin;
#X floatatom 777 -406 5 0 0 0 - - -, f 5;
#X floatatom 817 -406 5 0 0 0 - - -, f 5;
#X floatatom 856 -406 5 0 0 0 - - -, f 5;
#X obj 38 -583 vsl 15 32 0 1 0 0 empty empty empty 0 -8 0 8 -262144
-1 -1 0 1;
#X msg 38 -601 0;
#X floatatom 78 -566 5 0 0 0 - - -, f 5;
#X obj 79 -589 / 127;
#X obj 160 -585 vsl 15 32 0 1 0 0 empty empty empty 0 -8 0 8 -262144
-1 -1 1550 1;
#X floatatom 200 -568 5 0 0 0 - - -, f 5;
#X obj 201 -591 / 127;
#X obj 273 -587 vsl 15 32 0 1 0 0 empty empty empty 0 -8 0 8 -262144
-1 -1 3100 1;
#X floatatom 313 -570 5 0 0 0 - - -, f 5;
#X obj 314 -593 / 127;
#X obj 379 -588 vsl 15 32 0 1 0 0 empty empty empty 0 -8 0 8 -262144
-1 -1 1550 1;
#X floatatom 419 -571 5 0 0 0 - - -, f 5;
#X obj 420 -594 / 127;
#X obj 504 -589 vsl 15 32 0 1 0 0 empty empty empty 0 -8 0 8 -262144
-1 -1 0 1;
#X msg 504 -607 0;
#X floatatom 544 -572 5 0 0 0 - - -, f 5;
#X obj 545 -595 / 127;
#X obj 621 -586 vsl 15 32 0 1 0 0 empty empty empty 0 -8 0 8 -262144
-1 -1 1550 1;
#X floatatom 661 -569 5 0 0 0 - - -, f 5;
#X obj 662 -592 / 127;
#X obj 733 -591 vsl 15 32 0 1 0 0 empty empty empty 0 -8 0 8 -262144
-1 -1 3100 1;
#X floatatom 773 -574 5 0 0 0 - - -, f 5;
#X obj 774 -597 / 127;
#X obj 834 -592 vsl 15 32 0 1 0 0 empty empty empty 0 -8 0 8 -262144
-1 -1 465 1;
#X floatatom 874 -575 5 0 0 0 - - -, f 5;
#X obj 875 -598 / 127;
#X obj 896 -454 vsl 15 32 0 1 0 0 empty empty empty 0 -8 0 8 -262144
-1 -1 2325 1;
#X floatatom 936 -437 5 0 0 0 - - -, f 5;
#X obj 937 -460 / 127;
#X text 29 -635 REVERB: dampingfreq;
#X msg 38 -548 send /dampingfreq \$1;
#X text 151 -637 REVERB: density;
#X msg 160 -550 send /density \$1;
#X text 255 -639 REVERB: bandwidthfreq;
#X msg 273 -552 send /bandwidthfreq \$1;
#X msg 379 -553 send /decay \$1;
#X msg 504 -554 send /predelay \$1;
#X msg 621 -551 send /size \$1;
#X msg 733 -556 send /gain \$1;
#X msg 834 -557 send /mix \$1;
#X msg 896 -419 send /earlymix \$1;
#X text 495 -641 REVERB: predelay;
#X text 399 -640 REVERB: decay;
#X text 612 -638 REVERB: size;
#X text 724 -643 REVERB: gain;
#X text 826 -644 REVERB: mix;
#X text 888 -506 REVERB: earlymix;
#X msg 160 -603 0.5;
#X msg 273 -605 1;
#X msg 379 -606 0.5;
#X msg 621 -604 0.5;
#X msg 733 -609 1;
#X msg 834 -610 0.15;
#X msg 896 -472 0.75;
#X obj 41 -450 vsl 15 32 0 1 0 0 empty empty empty 0 -8 0 8 -262144
-1 -1 1550 1;
#X floatatom 87 -432 5 0 0 0 - - -, f 5;
#X obj 84 -454 / 127;
#X obj 163 -451 vsl 15 32 0 1 0 0 empty empty empty 0 -8 0 8 -262144
-1 -1 837 1;
#X floatatom 209 -434 5 0 0 0 - - -, f 5;
#X obj 206 -456 / 127;
#X obj 320 -450 vsl 15 32 0 1 0 0 empty empty empty 0 -8 0 8 -262144
-1 -1 2170 1;
#X floatatom 366 -433 5 0 0 0 - - -, f 5;
#X obj 363 -455 / 127;
#X obj 426 -451 vsl 15 32 0 1 0 0 empty empty empty 0 -8 0 8 -262144
-1 -1 1550 1;
#X floatatom 472 -434 5 0 0 0 - - -, f 5;
#X obj 469 -456 / 127;
#X obj 657 -449 vsl 15 32 0 1 0 0 empty empty empty 0 -8 0 8 -262144
-1 -1 1550 1;
#X floatatom 703 -434 5 0 0 0 - - -, f 5;
#X obj 700 -456 / 127;
#X obj 548 -450 vsl 15 32 0 1 0 0 empty empty empty 0 -8 0 8 -262144
-1 -1 1023 1;
#X floatatom 594 -433 5 0 0 0 - - -, f 5;
#X obj 591 -455 / 127;
#X msg 426 -470 0.5;
#X text 651 -509 ECHO: kLevel;
#X msg 656 -416 send /kLevel \$1;
#X text 542 -508 ECHO: kMix;
#X msg 547 -415 send /kMix \$1;
#X msg 657 -470 0.5;
#X text 35 -507 ECHO: kLDelay;
#X msg 41 -401 send /kLDelay \$1;
#X text 157 -509 ECHO: kLRDelayRatio;
#X msg 162 -416 send /kLRDelayRatio \$1;
#X text 305 -508 ECHO: kFeedBk;
#X msg 319 -415 send /kFeedBk \$1;
#X text 429 -510 ECHO: kTone;
#X msg 425 -416 send /kTone \$1;
#X msg 41 -468 0.5;
#X msg 163 -470 0.27;
#X msg 320 -469 0.7;
#X msg 548 -469 0.33;
#X obj 37 -617 r init;
#X obj 159 -618 r init;
#X obj 272 -621 r init;
#X obj 378 -623 r init;
#X obj 504 -623 r init;
#X obj 620 -620 r init;
#X obj 732 -625 r init;
#X obj 833 -626 r init;
#X obj 895 -488 r init;
#X obj 43 -484 r init;
#X obj 165 -486 r init;
#X obj 322 -485 r init;
#X obj 428 -486 r init;
#X obj 552 -485 r init;
#X obj 659 -486 r init;
#X obj 33 -318 vsl 15 32 0 1 0 0 empty empty empty 0 -8 0 8 -262144
-1 -1 0 1;
#X floatatom 76 -299 5 0 0 0 - - -, f 5;
#X obj 78 -318 / 127;
#X obj 33 -351 r init;
#X msg 33 -336 0;
#X msg 34 -282 send /dumpstortromme_level \$1;
#X obj 49 -169 vsl 15 32 0 1 0 0 empty empty empty 0 -8 0 8 -262144
-1 -1 0 1;
#X floatatom 88 -157 5 0 0 0 - - -, f 5;
#X obj 89 -178 / 127;
#X obj 48 -207 r init;
#X msg 49 -187 0;
#X obj 90 -198 ctlin 7 1;
#X obj 143 -317 vsl 15 32 0 1 0 0 empty empty empty 0 -8 0 8 -262144
-1 -1 0 1;
#X floatatom 186 -298 5 0 0 0 - - -, f 5;
#X obj 189 -318 / 127;
#X obj 143 -350 r init;
#X msg 143 -335 0;
#X obj 254 -321 vsl 15 32 0 1 0 0 empty empty empty 0 -8 0 8 -262144
-1 -1 0 1;
#X floatatom 297 -302 5 0 0 0 - - -, f 5;
#X obj 300 -322 / 127;
#X obj 254 -354 r init;
#X msg 254 -339 0;
#X obj 371 -323 vsl 15 32 0 1 0 0 empty empty empty 0 -8 0 8 -262144
-1 -1 0 1;
#X floatatom 401 -301 5 0 0 0 - - -, f 5;
#X obj 404 -321 / 127;
#X obj 371 -356 r init;
#X msg 371 -341 0;
#X obj 473 -321 vsl 15 32 0 1 0 0 empty empty empty 0 -8 0 8 -262144
-1 -1 0 1;
#X floatatom 504 -301 5 0 0 0 - - -, f 5;
#X obj 507 -321 / 127;
#X obj 473 -354 r init;
#X msg 473 -339 0;
#X obj 575 -321 vsl 15 32 0 1 0 0 empty empty empty 0 -8 0 8 -262144
-1 -1 0 1;
#X floatatom 603 -302 5 0 0 0 - - -, f 5;
#X obj 606 -322 / 127;
#X obj 575 -354 r init;
#X msg 575 -339 0;
#X obj 672 -319 vsl 15 32 0 1 0 0 empty empty empty 0 -8 0 8 -262144
-1 -1 0 1;
#X floatatom 693 -299 5 0 0 0 - - -, f 5;
#X obj 696 -319 / 127;
#X obj 672 -352 r init;
#X msg 672 -337 0;
#X obj 770 -318 vsl 15 32 0 1 0 0 empty empty empty 0 -8 0 8 -262144
-1 -1 0 1;
#X floatatom 813 -299 5 0 0 0 - - -, f 5;
#X obj 816 -319 / 127;
#X obj 770 -351 r init;
#X msg 770 -336 0;
#X obj 152 -169 vsl 15 32 0 1 0 0 empty empty empty 0 -8 0 8 -262144
-1 -1 0 1;
#X floatatom 191 -157 5 0 0 0 - - -, f 5;
#X obj 192 -178 / 127;
#X obj 151 -207 r init;
#X msg 152 -187 0;
#X obj 256 -167 vsl 15 32 0 1 0 0 empty empty empty 0 -8 0 8 -262144
-1 -1 0 1;
#X floatatom 295 -155 5 0 0 0 - - -, f 5;
#X obj 296 -176 / 127;
#X obj 255 -205 r init;
#X msg 256 -185 0;
#X obj 368 -170 vsl 15 32 0 1 0 0 empty empty empty 0 -8 0 8 -262144
-1 -1 0 1;
#X floatatom 407 -158 5 0 0 0 - - -, f 5;
#X obj 408 -179 / 127;
#X obj 367 -208 r init;
#X msg 368 -188 0;
#X obj 483 -168 vsl 15 32 0 1 0 0 empty empty empty 0 -8 0 8 -262144
-1 -1 0 1;
#X floatatom 522 -156 5 0 0 0 - - -, f 5;
#X obj 523 -177 / 127;
#X obj 482 -206 r init;
#X msg 483 -186 0;
#X obj 586 -169 vsl 15 32 0 1 0 0 empty empty empty 0 -8 0 8 -262144
-1 -1 0 1;
#X floatatom 625 -157 5 0 0 0 - - -, f 5;
#X obj 626 -178 / 127;
#X obj 585 -207 r init;
#X msg 586 -187 0;
#X obj 697 -167 vsl 15 32 0 1 0 0 empty empty empty 0 -8 0 8 -262144
-1 -1 0 1;
#X floatatom 736 -155 5 0 0 0 - - -, f 5;
#X obj 737 -176 / 127;
#X obj 696 -205 r init;
#X msg 697 -185 0;
#X obj 798 -164 vsl 15 32 0 1 0 0 empty empty empty 0 -8 0 8 -262144
-1 -1 0 1;
#X floatatom 837 -152 5 0 0 0 - - -, f 5;
#X obj 838 -173 / 127;
#X obj 797 -202 r init;
#X msg 798 -182 0;
#X obj 909 -165 vsl 15 32 0 1 0 0 empty empty empty 0 -8 0 8 -262144
-1 -1 0 1;
#X floatatom 948 -153 5 0 0 0 - - -, f 5;
#X obj 949 -174 / 127;
#X obj 908 -203 r init;
#X msg 909 -183 0;
#X obj 193 -198 ctlin 7 2;
#X obj 297 -196 ctlin 7 3;
#X obj 412 -201 ctlin 7 4;
#X obj 524 -197 ctlin 7 5;
#X obj 627 -198 ctlin 7 6;
#X obj 738 -196 ctlin 7 7;
#X obj 839 -193 ctlin 7 8;
#X obj 950 -194 ctlin 28 1;
#X text 136 -368 bitcrush_stortromme;
#X msg 144 -265 send /bitcrush_stortromme_level \$1;
#X text 258 -373 snareP3de;
#X msg 255 -285 send /snareP3de_level \$1;
#X text 371 -370 bling1;
#X msg 372 -267 send /bling1_level \$1;
#X text 472 -370 bling2;
#X msg 474 -285 send /bling2_level \$1;
#X text 567 -369 iyebassdrum;
#X msg 577 -268 send /iyebassdrum_level \$1;
#X text 674 -370 iyetiktak;
#X msg 673 -283 send /iyetiktak_level \$1;
#X text 761 -368 femPath_cello;
#X msg 772 -265 send /femPath_cello_level \$1;
#X text 29 -222 femPath_klik_synth;
#X msg 49 -132 send /femPath_klik_synth_level \$1;
#X text 159 -221 pling;
#X msg 153 -115 send /pling_level \$1;
#X text 246 -219 babai_synthpling;
#X text 25 -370 dumpstortromme;
#X text 358 -222 babai_heman;
#X msg 369 -111 send /babai_heman_level \$1;
#X text 473 -220 babai_cello;
#X msg 483 -131 send /babai_cello_level \$1;
#X text 576 -221 babai_rytme;
#X msg 587 -113 send /babai_rytme_level \$1;
#X text 687 -219 knas;
#X msg 697 -130 send /knas_level \$1;
#X text 788 -216 knit;
#X msg 799 -111 send /knit_level \$1;
#X text 899 -217 knag;
#X msg 909 -128 send /knag_level \$1;
#X obj 80 -609 ctlin 13 1;
#X obj 203 -611 ctlin 13 2;
#X obj 315 -613 ctlin 13 3;
#X obj 421 -614 ctlin 13 4;
#X obj 546 -615 ctlin 13 5;
#X obj 663 -612 ctlin 13 6;
#X obj 775 -617 ctlin 13 7;
#X obj 876 -618 ctlin 13 8;
#X obj 85 -474 ctlin 12 1;
#X obj 207 -476 ctlin 12 2;
#X obj 364 -475 ctlin 12 3;
#X obj 470 -476 ctlin 12 4;
#X obj 592 -475 ctlin 12 6;
#X obj 701 -476 ctlin 12 5;
#X obj 938 -480 ctlin 12 6;
#X obj 80 -339 ctlin 10 1;
#X obj 190 -338 ctlin 10 2;
#X obj 301 -342 ctlin 10 3;
#X obj 405 -341 ctlin 10 4;
#X obj 508 -341 ctlin 10 5;
#X obj 607 -342 ctlin 10 6;
#X obj 697 -339 ctlin 10 7;
#X obj 817 -339 ctlin 10 8;
#X obj 49 -15 vsl 15 32 0 1 0 0 empty empty empty 0 -8 0 8 -262144
-1 -1 0 1;
#X floatatom 88 -3 5 0 0 0 - - -, f 5;
#X obj 89 -24 / 127;
#X obj 48 -53 r init;
#X msg 49 -33 0;
#X obj 90 -44 ctlin 7 1;
#X obj 152 -15 vsl 15 32 0 1 0 0 empty empty empty 0 -8 0 8 -262144
-1 -1 0 1;
#X floatatom 191 -3 5 0 0 0 - - -, f 5;
#X obj 192 -24 / 127;
#X obj 151 -53 r init;
#X msg 152 -33 0;
#X obj 256 -13 vsl 15 32 0 1 0 0 empty empty empty 0 -8 0 8 -262144
-1 -1 0 1;
#X floatatom 295 -1 5 0 0 0 - - -, f 5;
#X obj 296 -22 / 127;
#X obj 255 -51 r init;
#X msg 256 -31 0;
#X obj 193 -44 ctlin 7 2;
#X obj 297 -42 ctlin 7 3;
#X text 43 -70 ghost;
#X msg 49 22 send /ghost_level \$1;
#X msg 153 39 send /brand_level \$1;
#X text 173 -69 brand;
#X text 260 -67 legebil;
#X obj 414 -14 vsl 15 32 0 1 0 0 empty empty empty 0 -8 0 8 -262144
-1 -1 0 1;
#X floatatom 453 -2 5 0 0 0 - - -, f 5;
#X obj 454 -23 / 127;
#X obj 413 -52 r init;
#X msg 414 -32 0;
#X obj 455 -43 ctlin 7 3;
#X text 418 -68 backtrack 0;
#X msg 256 -130 send /babai_synthpling_level \$1;
#X msg 256 24 send /legebil_level \$1;
#X msg 414 23 send /long_sample_0_level \$1;
#X obj 609 -14 vsl 15 32 0 1 0 0 empty empty empty 0 -8 0 8 -262144
-1 -1 0 1;
#X floatatom 648 -2 5 0 0 0 - - -, f 5;
#X obj 649 -23 / 127;
#X obj 608 -52 r init;
#X msg 609 -32 0;
#X obj 650 -43 ctlin 7 3;
#X msg 609 23 send /loop_level \$1;
#X obj 354 152 vsl 15 32 0 1 0 0 empty empty empty 0 -8 0 8 -262144
-1 -1 0 1;
#X floatatom 435 165 5 0 0 0 - - -, f 5;
#X obj 394 143 / 127;
#X obj 353 114 r init;
#X msg 354 134 0;
#X obj 395 123 ctlin 7 3;
#X text 46 78 ONLY FOR TERRAINS VAGUES;
#X text 604 -66 level of feedback;
#X text 603 -77 loop on input;
#X text 347 99 track shuffle;
#X obj 53 147 vsl 15 64 0 1 0 0 empty empty empty 0 -8 0 8 -262144
-1 -1 0 1;
#X floatatom 149 174 5 0 0 0 - - -, f 5;
#X obj 148 153 / 127;
#X obj 52 105 r init;
#X msg 53 125 0;
#X obj 149 133 ctlin 7 3;
#X msg 355 191 send /TV_track_shuffle \$1;
#X obj 519 152 vsl 15 32 0 1 0 0 empty empty empty 0 -8 0 8 -262144
-1 -1 0 1;
#X floatatom 558 164 5 0 0 0 - - -, f 5;
#X obj 559 143 / 127;
#X obj 518 114 r init;
#X msg 519 134 0;
#X obj 560 123 ctlin 7 3;
#X text 512 99 drone/sample mix;
#X msg 519 189 send /TV_drone_mix \$1;
#X obj 794 135 vsl 15 50 0 1 0 0 empty empty empty 0 -9 0 10 -262144
-1 -1 0 1;
#X obj 821 118 / 127;
#X obj 821 101 ctlin 12 3;
#X obj 825 159 int;
#X obj 825 142 * 7.99;
#X obj 825 186 + 1;
#X msg 798 208 send /TV_swap_freq \$1;
#X obj 934 132 vsl 15 50 0 1 0 0 empty empty empty 0 -9 0 10 -262144
-1 -1 0 1;
#X obj 935 188 + 1;
#X msg 935 209 send /TV_swap_dur \$1;
#X obj 965 148 / 127;
#X obj 965 131 ctlin 12 3;
#X floatatom 858 168 5 0 0 0 - - -, f 5;
#X floatatom 975 173 5 0 0 0 - - -, f 5;
#X obj 793 91 r init;
#X msg 794 111 0;
#X obj 933 91 r init;
#X msg 934 111 0;
#X text 779 76 sample swapping frequency and duration;
#X obj 378 164 * 3;
#X obj 666 154 vsl 15 32 0 1 0 0 empty empty empty 0 -8 0 8 -262144
-1 -1 0 1;
#X floatatom 740 169 5 0 0 0 - - -, f 5;
#X obj 706 145 / 127;
#X obj 665 116 r init;
#X msg 666 136 0;
#X obj 707 125 ctlin 7 3;
#X text 659 101 drone/sample mix;
#X msg 666 198 send /TV_drone_size \$1;
#X obj 701 169 * 100;
#X obj 77 145 vsl 15 64 0 1 0 0 empty empty empty 0 -8 0 8 -262144
-1 -1 0 1;
#X obj 100 122 vsl 15 64 0 1 0 0 empty empty empty 0 -8 0 8 -262144
-1 -1 0 1;
#X text 50 88 sequence level choice;
#X msg 100 194 send /terrains_vagues1_level \$1;
#X msg 76 216 send /terrains_vagues2_level \$1;
#X msg 53 234 send /terrains_vagues3_level \$1;
#X obj 38 -531 s porphyrographOut;
#X obj 160 -533 s porphyrographOut;
#X obj 273 -535 s porphyrographOut;
#X obj 379 -536 s porphyrographOut;
#X obj 504 -537 s porphyrographOut;
#X obj 621 -534 s porphyrographOut;
#X obj 733 -539 s porphyrographOut;
#X obj 834 -540 s porphyrographOut;
#X obj 41 -384 s porphyrographOut;
#X obj 162 -399 s porphyrographOut;
#X obj 319 -398 s porphyrographOut;
#X obj 425 -399 s porphyrographOut;
#X obj 547 -398 s porphyrographOut;
#X obj 656 -399 s porphyrographOut;
#X obj 896 -402 s porphyrographOut;
#X obj 34 -265 s porphyrographOut;
#X obj 144 -248 s porphyrographOut;
#X obj 254 -249 s porphyrographOut;
#X obj 372 -250 s porphyrographOut;
#X obj 476 -252 s porphyrographOut;
#X obj 577 -251 s porphyrographOut;
#X obj 672 -251 s porphyrographOut;
#X obj 772 -248 s porphyrographOut;
#X obj 49 -115 s porphyrographOut;
#X obj 152 -99 s porphyrographOut;
#X obj 257 -95 s porphyrographOut;
#X obj 369 -94 s porphyrographOut;
#X obj 483 -94 s porphyrographOut;
#X obj 587 -96 s porphyrographOut;
#X obj 697 -95 s porphyrographOut;
#X obj 799 -94 s porphyrographOut;
#X obj 908 -94 s porphyrographOut;
#X obj 49 39 s porphyrographOut;
#X obj 152 55 s porphyrographOut;
#X obj 257 59 s porphyrographOut;
#X obj 415 58 s porphyrographOut;
#X obj 610 58 s porphyrographOut;
#X obj 104 251 s porphyrographOut;
#X obj 355 224 s porphyrographOut;
#X obj 520 224 s porphyrographOut;
#X obj 667 226 s porphyrographOut;
#X obj 798 225 s porphyrographOut;
#X obj 935 226 s porphyrographOut;
#X obj -19 -423 > 0.5;
#X obj -19 -400 * 0.94;
#X connect 0 0 1 0;
#X connect 0 1 2 0;
#X connect 0 2 3 0;
#X connect 4 0 34 0;
#X connect 4 0 6 0;
#X connect 5 0 4 0;
#X connect 8 0 36 0;
#X connect 8 0 9 0;
#X connect 11 0 38 0;
#X connect 11 0 12 0;
#X connect 14 0 39 0;
#X connect 14 0 15 0;
#X connect 17 0 40 0;
#X connect 17 0 19 0;
#X connect 18 0 17 0;
#X connect 21 0 41 0;
#X connect 21 0 22 0;
#X connect 24 0 42 0;
#X connect 24 0 25 0;
#X connect 27 0 43 0;
#X connect 27 0 28 0;
#X connect 30 0 44 0;
#X connect 30 0 31 0;
#X connect 34 0 359 0;
#X connect 36 0 360 0;
#X connect 38 0 361 0;
#X connect 39 0 362 0;
#X connect 40 0 363 0;
#X connect 41 0 364 0;
#X connect 42 0 365 0;
#X connect 43 0 366 0;
#X connect 44 0 373 0;
#X connect 51 0 8 0;
#X connect 52 0 11 0;
#X connect 53 0 14 0;
#X connect 54 0 21 0;
#X connect 55 0 24 0;
#X connect 56 0 27 0;
#X connect 57 0 30 0;
#X connect 58 0 59 0;
#X connect 58 0 402 0;
#X connect 61 0 85 0;
#X connect 61 0 62 0;
#X connect 64 0 87 0;
#X connect 64 0 65 0;
#X connect 67 0 89 0;
#X connect 67 0 68 0;
#X connect 70 0 78 0;
#X connect 70 0 71 0;
#X connect 73 0 80 0;
#X connect 73 0 74 0;
#X connect 76 0 67 0;
#X connect 78 0 372 0;
#X connect 80 0 371 0;
#X connect 81 0 70 0;
#X connect 83 0 367 0;
#X connect 85 0 368 0;
#X connect 87 0 369 0;
#X connect 89 0 370 0;
#X connect 90 0 58 0;
#X connect 91 0 61 0;
#X connect 92 0 64 0;
#X connect 93 0 73 0;
#X connect 94 0 5 0;
#X connect 95 0 51 0;
#X connect 96 0 52 0;
#X connect 97 0 53 0;
#X connect 98 0 18 0;
#X connect 99 0 54 0;
#X connect 100 0 55 0;
#X connect 101 0 56 0;
#X connect 102 0 57 0;
#X connect 103 0 90 0;
#X connect 104 0 91 0;
#X connect 105 0 92 0;
#X connect 106 0 76 0;
#X connect 107 0 93 0;
#X connect 108 0 81 0;
#X connect 109 0 114 0;
#X connect 109 0 110 0;
#X connect 112 0 113 0;
#X connect 113 0 109 0;
#X connect 114 0 374 0;
#X connect 115 0 219 0;
#X connect 115 0 116 0;
#X connect 118 0 119 0;
#X connect 119 0 115 0;
#X connect 120 0 117 0;
#X connect 121 0 205 0;
#X connect 121 0 122 0;
#X connect 124 0 125 0;
#X connect 125 0 121 0;
#X connect 126 0 207 0;
#X connect 126 0 127 0;
#X connect 129 0 130 0;
#X connect 130 0 126 0;
#X connect 131 0 209 0;
#X connect 131 0 132 0;
#X connect 134 0 135 0;
#X connect 135 0 131 0;
#X connect 136 0 211 0;
#X connect 136 0 137 0;
#X connect 139 0 140 0;
#X connect 140 0 136 0;
#X connect 141 0 213 0;
#X connect 141 0 142 0;
#X connect 144 0 145 0;
#X connect 145 0 141 0;
#X connect 146 0 215 0;
#X connect 146 0 147 0;
#X connect 149 0 150 0;
#X connect 150 0 146 0;
#X connect 151 0 217 0;
#X connect 151 0 152 0;
#X connect 154 0 155 0;
#X connect 155 0 151 0;
#X connect 156 0 221 0;
#X connect 156 0 157 0;
#X connect 159 0 160 0;
#X connect 160 0 156 0;
#X connect 161 0 289 0;
#X connect 161 0 162 0;
#X connect 164 0 165 0;
#X connect 165 0 161 0;
#X connect 166 0 225 0;
#X connect 166 0 167 0;
#X connect 169 0 170 0;
#X connect 170 0 166 0;
#X connect 171 0 227 0;
#X connect 171 0 172 0;
#X connect 174 0 175 0;
#X connect 175 0 171 0;
#X connect 176 0 229 0;
#X connect 176 0 177 0;
#X connect 179 0 180 0;
#X connect 180 0 176 0;
#X connect 181 0 231 0;
#X connect 181 0 182 0;
#X connect 184 0 185 0;
#X connect 185 0 181 0;
#X connect 186 0 233 0;
#X connect 186 0 187 0;
#X connect 189 0 190 0;
#X connect 190 0 186 0;
#X connect 191 0 235 0;
#X connect 191 0 192 0;
#X connect 194 0 195 0;
#X connect 195 0 191 0;
#X connect 196 0 158 0;
#X connect 197 0 163 0;
#X connect 198 0 168 0;
#X connect 199 0 173 0;
#X connect 200 0 178 0;
#X connect 201 0 183 0;
#X connect 202 0 188 0;
#X connect 203 0 193 0;
#X connect 205 0 375 0;
#X connect 207 0 376 0;
#X connect 209 0 377 0;
#X connect 211 0 378 0;
#X connect 213 0 379 0;
#X connect 215 0 380 0;
#X connect 217 0 381 0;
#X connect 219 0 382 0;
#X connect 221 0 383 0;
#X connect 225 0 385 0;
#X connect 227 0 386 0;
#X connect 229 0 387 0;
#X connect 231 0 388 0;
#X connect 233 0 389 0;
#X connect 235 0 390 0;
#X connect 236 0 7 0;
#X connect 237 0 10 0;
#X connect 238 0 13 0;
#X connect 239 0 16 0;
#X connect 240 0 20 0;
#X connect 241 0 23 0;
#X connect 242 0 26 0;
#X connect 243 0 29 0;
#X connect 244 0 60 0;
#X connect 245 0 63 0;
#X connect 246 0 66 0;
#X connect 247 0 69 0;
#X connect 248 0 75 0;
#X connect 249 0 72 0;
#X connect 250 0 32 0;
#X connect 251 0 111 0;
#X connect 252 0 123 0;
#X connect 253 0 128 0;
#X connect 254 0 133 0;
#X connect 255 0 138 0;
#X connect 256 0 143 0;
#X connect 257 0 148 0;
#X connect 258 0 153 0;
#X connect 259 0 278 0;
#X connect 259 0 260 0;
#X connect 262 0 263 0;
#X connect 263 0 259 0;
#X connect 264 0 261 0;
#X connect 265 0 279 0;
#X connect 265 0 266 0;
#X connect 268 0 269 0;
#X connect 269 0 265 0;
#X connect 270 0 290 0;
#X connect 270 0 271 0;
#X connect 273 0 274 0;
#X connect 274 0 270 0;
#X connect 275 0 267 0;
#X connect 276 0 272 0;
#X connect 278 0 391 0;
#X connect 279 0 392 0;
#X connect 282 0 291 0;
#X connect 282 0 283 0;
#X connect 285 0 286 0;
#X connect 286 0 282 0;
#X connect 287 0 284 0;
#X connect 289 0 384 0;
#X connect 290 0 393 0;
#X connect 291 0 394 0;
#X connect 292 0 298 0;
#X connect 292 0 293 0;
#X connect 295 0 296 0;
#X connect 296 0 292 0;
#X connect 297 0 294 0;
#X connect 298 0 395 0;
#X connect 299 0 343 0;
#X connect 302 0 303 0;
#X connect 303 0 299 0;
#X connect 304 0 301 0;
#X connect 309 0 358 0;
#X connect 309 0 310 0;
#X connect 312 0 313 0;
#X connect 313 0 309 0;
#X connect 313 0 353 0;
#X connect 313 0 354 0;
#X connect 314 0 311 0;
#X connect 315 0 397 0;
#X connect 316 0 317 0;
#X connect 316 0 323 0;
#X connect 319 0 320 0;
#X connect 320 0 316 0;
#X connect 321 0 318 0;
#X connect 323 0 398 0;
#X connect 324 0 328 0;
#X connect 326 0 325 0;
#X connect 327 0 329 0;
#X connect 328 0 327 0;
#X connect 329 0 330 0;
#X connect 329 0 336 0;
#X connect 330 0 400 0;
#X connect 331 0 332 0;
#X connect 332 0 333 0;
#X connect 332 0 337 0;
#X connect 333 0 401 0;
#X connect 335 0 334 0;
#X connect 338 0 339 0;
#X connect 339 0 324 0;
#X connect 340 0 341 0;
#X connect 341 0 331 0;
#X connect 343 0 300 0;
#X connect 343 0 315 0;
#X connect 344 0 352 0;
#X connect 347 0 348 0;
#X connect 348 0 344 0;
#X connect 349 0 346 0;
#X connect 351 0 399 0;
#X connect 352 0 351 0;
#X connect 352 0 345 0;
#X connect 353 0 357 0;
#X connect 353 0 310 0;
#X connect 354 0 356 0;
#X connect 354 0 310 0;
#X connect 356 0 396 0;
#X connect 357 0 396 0;
#X connect 358 0 396 0;
#X connect 402 0 403 0;
#X connect 403 0 83 0;
#X restore 795 625 pd allSequencesAndEffects;
#X obj 843 584 send init;
#N canvas 191 144 450 409 clock 0;
#X obj 177 210 / 60;
#X obj 177 238 int;
#X obj 264 286 -;
#X obj 279 254 * 60;
#X obj 177 89 timer;
#X obj 177 113 / 1000;
#X obj 204 62 metro 1000;
#X obj 177 47 bng 15 250 50 0 empty empty empty 17 7 0 10 -262144 -1
-1;
#X obj 177 167 int;
#X obj 177 22 inlet;
#X text 175 -1 launch msg reception;
#X text 202 45 start of the elapsed time count;
#X text 184 348 DISPLAY IN LIVE SCORE;
#X text 184 336 MN/SEC ELAPSED TIME;
#X floatatom 280 204 5 0 0 0 - - -, f 5;
#X obj 33 263 makefilename %d;
#X msg 33 280 \; mn_can label \$1;
#X obj 314 285 makefilename %d;
#X msg 314 303 \; sec_can label \$1;
#X obj 81 80 r startclock;
#X obj 177 139 + 0;
#X text 252 89 offset for restart;
#X obj 248 112 r timeOffset;
#X msg 331 122 O;
#X obj 331 105 r reset;
#X connect 0 0 1 0;
#X connect 1 0 3 0;
#X connect 1 0 15 0;
#X connect 2 0 17 0;
#X connect 3 0 2 1;
#X connect 4 0 5 0;
#X connect 5 0 20 0;
#X connect 6 0 4 1;
#X connect 7 0 4 0;
#X connect 7 0 6 0;
#X connect 8 0 0 0;
#X connect 8 0 2 0;
#X connect 8 0 14 0;
#X connect 9 0 7 0;
#X connect 15 0 16 0;
#X connect 17 0 18 0;
#X connect 19 0 7 0;
#X connect 20 0 8 0;
#X connect 22 0 20 1;
#X connect 23 0 20 1;
#X connect 24 0 23 0;
#X restore 794 462 pd clock;
#N canvas 377 50 907 696 rhythmSequences 0;
#X text 23 340 ONLY FOR TERRAINS VAGUES;
#X obj 42 448 vsl 15 64 0 3 0 0 empty empty empty 0 -8 0 8 -262144
-1 -1 0 1;
#X floatatom -4 532 5 0 0 0 - - -, f 5;
#X obj 33 369 r init;
#X msg 34 389 0;
#X obj 80 453 vsl 15 64 0 3 0 0 empty empty empty 0 -8 0 8 -262144
-1 -1 0 1;
#X text 27 350 sequence level choice;
#X msg 65 573 send /duppiEcco_level \$1;
#X obj 10 439 vsl 15 64 0 3 0 0 empty empty empty 0 -8 0 8 -262144
-1 -1 0 1;
#X msg 29 617 send /otherdrum_level \$1;
#X msg 37 593 send /krakdrum1_level \$1;
#X obj 181 443 - 5;
#X obj 149 415 - 5;
#X obj 115 390 - 5;
#X obj 183 467 / 40;
#X obj 147 442 / 40;
#X obj 114 419 / 40;
#X obj 94 660 s porphyrographOut;
#X text 332 344 ONLY FOR TERRAINS VAGUES;
#X obj 351 452 vsl 15 64 0 3 0 0 empty empty empty 0 -8 0 8 -262144
-1 -1 0 1;
#X floatatom 305 536 5 0 0 0 - - -, f 5;
#X obj 342 373 r init;
#X msg 343 393 0;
#X obj 389 457 vsl 15 64 0 3 0 0 empty empty empty 0 -8 0 8 -262144
-1 -1 0 1;
#X obj 426 477 vsl 15 64 0 3 0 0 empty empty empty 0 -8 0 8 -262144
-1 -1 0 1;
#X text 336 354 sequence level choice;
#X obj 319 443 vsl 15 64 0 3 0 0 empty empty empty 0 -8 0 8 -262144
-1 -1 0 1;
#X obj 525 471 - 5;
#X obj 490 447 - 5;
#X obj 458 419 - 5;
#X obj 424 394 - 5;
#X obj 523 495 / 40;
#X obj 492 471 / 40;
#X obj 456 446 / 40;
#X obj 423 423 / 40;
#X obj 418 659 s porphyrographOut;
#X msg 365 592 send /drum_dumpsfsfsf_level \$1;
#X obj 456 395 ctlin 13 7;
#X obj 490 421 ctlin 12 7;
#X obj 528 445 ctlin 7 7;
#X text 624 336 ONLY FOR TERRAINS VAGUES;
#X obj 643 444 vsl 15 64 0 3 0 0 empty empty empty 0 -8 0 8 -262144
-1 -1 0 1;
#X floatatom 597 528 5 0 0 0 - - -, f 5;
#X obj 634 365 r init;
#X msg 635 385 0;
#X obj 681 449 vsl 15 64 0 3 0 0 empty empty empty 0 -8 0 8 -262144
-1 -1 0 1;
#X obj 718 469 vsl 15 64 0 3 0 0 empty empty empty 0 -8 0 8 -262144
-1 -1 0 1;
#X text 628 346 sequence level choice;
#X obj 611 435 vsl 15 64 0 3 0 0 empty empty empty 0 -8 0 8 -262144
-1 -1 0 1;
#X obj 817 463 - 5;
#X obj 782 439 - 5;
#X obj 750 411 - 5;
#X obj 716 386 - 5;
#X obj 815 487 / 40;
#X obj 784 463 / 40;
#X obj 748 438 / 40;
#X obj 715 415 / 40;
#X obj 710 651 s porphyrographOut;
#X msg 393 572 send /drum_baglaens_level \$1;
#X msg 420 552 send /drum_elastik_level \$1;
#X msg 723 544 send /drum_ststst_level \$1;
#X msg 657 584 send /drum_dikkedikke_level \$1;
#X msg 649 608 send /drum_fdfp_level \$1;
#X text 28 12 ONLY FOR TERRAINS VAGUES;
#X obj 47 120 vsl 15 64 0 3 0 0 empty empty empty 0 -8 0 8 -262144
-1 -1 0 1;
#X floatatom 1 204 5 0 0 0 - - -, f 5;
#X obj 38 41 r init;
#X msg 39 61 0;
#X obj 85 125 vsl 15 64 0 3 0 0 empty empty empty 0 -8 0 8 -262144
-1 -1 0 1;
#X obj 126 147 vsl 15 64 0 3 0 0 empty empty empty 0 -8 0 8 -262144
-1 -1 0 1;
#X text 32 22 sequence level choice;
#X obj 15 112 vsl 15 64 0 3 0 0 empty empty empty 0 -8 0 8 -262144
-1 -1 0 1;
#X obj 221 139 - 5;
#X obj 186 115 - 5;
#X obj 154 87 - 5;
#X obj 120 62 - 5;
#X obj 219 163 / 40;
#X obj 188 139 / 40;
#X obj 152 114 / 40;
#X obj 119 91 / 40;
#X text 323 4 ONLY FOR TERRAINS VAGUES;
#X obj 342 112 vsl 15 64 0 3 0 0 empty empty empty 0 -8 0 8 -262144
-1 -1 0 1;
#X floatatom 296 196 5 0 0 0 - - -, f 5;
#X obj 333 33 r init;
#X msg 334 53 0;
#X obj 380 117 vsl 15 64 0 3 0 0 empty empty empty 0 -8 0 8 -262144
-1 -1 0 1;
#X obj 417 137 vsl 15 64 0 3 0 0 empty empty empty 0 -8 0 8 -262144
-1 -1 0 1;
#X text 327 14 sequence level choice;
#X obj 310 104 vsl 15 64 0 3 0 0 empty empty empty 0 -8 0 8 -262144
-1 -1 0 1;
#X obj 516 131 - 5;
#X obj 481 107 - 5;
#X obj 449 79 - 5;
#X obj 415 54 - 5;
#X obj 514 155 / 40;
#X obj 483 131 / 40;
#X obj 447 106 / 40;
#X obj 414 83 / 40;
#X obj 414 32 ctlin 7 4;
#X obj 447 55 ctlin 10 4;
#X obj 481 81 ctlin 12 4;
#X obj 519 105 ctlin 13 4;
#X obj 152 63 ctlin 10 3;
#X obj 186 89 ctlin 12 3;
#X obj 224 113 ctlin 13 3;
#X text 607 -4 ONLY FOR TERRAINS VAGUES;
#X obj 626 104 vsl 15 64 0 3 0 0 empty empty empty 0 -8 0 8 -262144
-1 -1 0 1;
#X floatatom 580 188 5 0 0 0 - - -, f 5;
#X obj 617 25 r init;
#X msg 618 45 0;
#X obj 664 109 vsl 15 64 0 3 0 0 empty empty empty 0 -8 0 8 -262144
-1 -1 0 1;
#X obj 701 129 vsl 15 64 0 3 0 0 empty empty empty 0 -8 0 8 -262144
-1 -1 0 1;
#X text 611 6 sequence level choice;
#X obj 594 96 vsl 15 64 0 3 0 0 empty empty empty 0 -8 0 8 -262144
-1 -1 0 1;
#X obj 800 123 - 5;
#X obj 765 99 - 5;
#X obj 733 71 - 5;
#X obj 699 46 - 5;
#X obj 798 147 / 40;
#X obj 767 123 / 40;
#X obj 731 98 / 40;
#X obj 698 75 / 40;
#X obj 698 24 ctlin 7 5;
#X obj 731 47 ctlin 10 5;
#X obj 765 73 ctlin 12 5;
#X obj 803 97 ctlin 13 5;
#X obj 643 294 s porphyrographOut;
#X obj 354 306 s porphyrographOut;
#X obj 84 313 s porphyrographOut;
#X msg 356 252 send /drum_6_level \$1;
#X msg 384 232 send /drum_7_level \$1;
#X msg 633 266 send /drum_9_level \$1;
#X msg 640 244 send /drum_10_level \$1;
#X obj 119 40 ctlin 7 3;
#X msg 54 282 send /\$1;
#X msg 757 194 send /drum_2_level \$1;
#X msg 60 260 send / \$1;
#X msg 668 224 send /drum_1_level \$1;
#X msg 349 273 send /drum_3_level \$1;
#X msg 89 240 send /drum_5_level \$1;
#X msg 411 212 send /drum_4_level \$1;
#X obj 108 478 vsl 15 64 0 3 0 0 empty empty empty 0 -8 0 8 -262144
-1 -1 0 1;
#X obj 218 470 - 5;
#X obj 216 494 / 40;
#X msg 99 553 send /drum_5_level \$1;
#X obj 221 444 ctlin 7 8;
#X obj 181 417 ctlin 12 8;
#X obj 147 391 ctlin 13 8;
#X obj 114 368 ctlin 10 8;
#X obj 715 364 ctlin 10 6;
#X obj 748 387 ctlin 13 6;
#X obj 782 413 ctlin 12 6;
#X obj 820 437 ctlin 7 6;
#X msg 357 616 send /drum_vakekko_level \$1;
#X obj 423 372 ctlin 10 7;
#X msg 116 220 send /level \$1;
#X msg 685 564 send /drum_8_level \$1;
#X connect 1 0 10 0;
#X connect 1 0 2 0;
#X connect 3 0 4 0;
#X connect 4 0 1 0;
#X connect 4 0 5 0;
#X connect 4 0 8 0;
#X connect 4 0 140 0;
#X connect 5 0 7 0;
#X connect 5 0 2 0;
#X connect 7 0 17 0;
#X connect 8 0 9 0;
#X connect 8 0 2 0;
#X connect 9 0 17 0;
#X connect 10 0 17 0;
#X connect 11 0 14 0;
#X connect 12 0 15 0;
#X connect 13 0 16 0;
#X connect 14 0 5 0;
#X connect 15 0 1 0;
#X connect 16 0 8 0;
#X connect 19 0 36 0;
#X connect 19 0 20 0;
#X connect 21 0 22 0;
#X connect 22 0 19 0;
#X connect 22 0 23 0;
#X connect 22 0 24 0;
#X connect 22 0 26 0;
#X connect 23 0 58 0;
#X connect 23 0 20 0;
#X connect 24 0 59 0;
#X connect 24 0 20 0;
#X connect 26 0 152 0;
#X connect 26 0 20 0;
#X connect 27 0 31 0;
#X connect 28 0 32 0;
#X connect 29 0 33 0;
#X connect 30 0 34 0;
#X connect 31 0 24 0;
#X connect 32 0 23 0;
#X connect 33 0 19 0;
#X connect 34 0 26 0;
#X connect 36 0 35 0;
#X connect 37 0 29 0;
#X connect 38 0 28 0;
#X connect 39 0 27 0;
#X connect 41 0 61 0;
#X connect 41 0 42 0;
#X connect 43 0 44 0;
#X connect 44 0 41 0;
#X connect 44 0 45 0;
#X connect 44 0 46 0;
#X connect 44 0 48 0;
#X connect 45 0 155 0;
#X connect 45 0 42 0;
#X connect 46 0 60 0;
#X connect 46 0 42 0;
#X connect 48 0 62 0;
#X connect 48 0 42 0;
#X connect 49 0 53 0;
#X connect 50 0 54 0;
#X connect 51 0 55 0;
#X connect 52 0 56 0;
#X connect 53 0 46 0;
#X connect 54 0 45 0;
#X connect 55 0 41 0;
#X connect 56 0 48 0;
#X connect 58 0 35 0;
#X connect 59 0 35 0;
#X connect 60 0 57 0;
#X connect 61 0 57 0;
#X connect 62 0 57 0;
#X connect 64 0 135 0;
#X connect 64 0 65 0;
#X connect 66 0 67 0;
#X connect 67 0 64 0;
#X connect 67 0 68 0;
#X connect 67 0 69 0;
#X connect 67 0 71 0;
#X connect 68 0 138 0;
#X connect 68 0 65 0;
#X connect 69 0 154 0;
#X connect 69 0 65 0;
#X connect 71 0 133 0;
#X connect 71 0 65 0;
#X connect 72 0 76 0;
#X connect 73 0 77 0;
#X connect 74 0 78 0;
#X connect 75 0 79 0;
#X connect 81 0 128 0;
#X connect 81 0 82 0;
#X connect 83 0 84 0;
#X connect 84 0 81 0;
#X connect 84 0 85 0;
#X connect 84 0 86 0;
#X connect 84 0 88 0;
#X connect 85 0 129 0;
#X connect 85 0 82 0;
#X connect 86 0 139 0;
#X connect 86 0 82 0;
#X connect 88 0 137 0;
#X connect 88 0 82 0;
#X connect 89 0 93 0;
#X connect 90 0 94 0;
#X connect 91 0 95 0;
#X connect 92 0 96 0;
#X connect 93 0 86 0;
#X connect 94 0 85 0;
#X connect 95 0 81 0;
#X connect 96 0 88 0;
#X connect 97 0 92 0;
#X connect 98 0 91 0;
#X connect 99 0 90 0;
#X connect 100 0 89 0;
#X connect 101 0 74 0;
#X connect 102 0 73 0;
#X connect 103 0 72 0;
#X connect 105 0 131 0;
#X connect 105 0 106 0;
#X connect 107 0 108 0;
#X connect 108 0 105 0;
#X connect 108 0 109 0;
#X connect 108 0 110 0;
#X connect 108 0 112 0;
#X connect 109 0 136 0;
#X connect 109 0 106 0;
#X connect 110 0 134 0;
#X connect 110 0 106 0;
#X connect 112 0 130 0;
#X connect 112 0 106 0;
#X connect 113 0 117 0;
#X connect 114 0 118 0;
#X connect 115 0 119 0;
#X connect 116 0 120 0;
#X connect 117 0 110 0;
#X connect 118 0 109 0;
#X connect 119 0 105 0;
#X connect 120 0 112 0;
#X connect 121 0 116 0;
#X connect 122 0 115 0;
#X connect 123 0 114 0;
#X connect 124 0 113 0;
#X connect 128 0 126 0;
#X connect 129 0 126 0;
#X connect 130 0 125 0;
#X connect 131 0 125 0;
#X connect 132 0 75 0;
#X connect 133 0 127 0;
#X connect 134 0 125 0;
#X connect 135 0 127 0;
#X connect 136 0 125 0;
#X connect 137 0 126 0;
#X connect 138 0 127 0;
#X connect 139 0 126 0;
#X connect 140 0 143 0;
#X connect 140 0 2 0;
#X connect 141 0 142 0;
#X connect 142 0 140 0;
#X connect 143 0 17 0;
#X connect 144 0 141 0;
#X connect 145 0 11 0;
#X connect 146 0 12 0;
#X connect 147 0 13 0;
#X connect 148 0 52 0;
#X connect 149 0 51 0;
#X connect 150 0 50 0;
#X connect 151 0 49 0;
#X connect 152 0 35 0;
#X connect 153 0 30 0;
#X connect 154 0 127 0;
#X connect 155 0 57 0;
#X restore 794 438 pd rhythmSequences;
#X text 862 504 UDP CONNECTION;
#X obj 15 461 bng 20 250 50 0 empty empty empty 17 7 0 10 -4034 -1
-1;
#X obj 873 372 cnv 15 40 40 empty beat_can 1 10 20 1 32 -204800 -33289
0;
#X obj 792 372 cnv 15 80 40 empty empty Beats 0 20 1 32 -204800 -33289
0;
#X obj 529 576 cnv 15 165 40 empty empty Samples 0 20 1 32 -232576
-33289 0;
#X obj 695 615 cnv 15 85 40 empty terrains_vagues1_can 0 10 20 1 32
-232576 -33289 0;
#X obj 529 493 cnv 15 165 40 empty empty Backtrack 0 20 1 32 -204786
-33289 0;
#X obj 695 531 cnv 15 85 40 empty TV_backtrack_can 0 10 20 1 32 -204786
-33289 0;
#X obj 694 577 cnv 15 85 40 empty terrains_vagues1_onOff_can OFF 10
20 1 32 -44926 -33289 0;
#X obj 694 493 cnv 15 85 40 empty TV_backtrack_onOff_can ON 10 20 1
32 -258699 -33289 0;
#X msg 339 462 send /terrains_vagues1_onOff;
#X obj 8 7 cnv 15 977 350 empty empty empty 20 12 0 14 -228856 -66577
0;
#X obj 296 34 bng 15 250 50 0 empty empty empty 0 -6 0 8 -262144 -1
-1;
#X obj 37 29 bng 15 250 50 0 empty empty empty 0 -6 0 8 -262144 -1
-1;
#X obj 27 70 vsl 15 128 0 3 0 0 0 empty empty 0 -8 0 8 -258113 -1 -1
0 1;
#X obj 76 30 r reset;
#X msg 282 56 0;
#X text 60 10 DELAY;
#X msg 23 51 0;
#X obj 27 212 pack f;
#X obj 263 227 pack f;
#X obj 27 339 send porphyrographOut;
#X msg 12 270 send /kMix \$1;
#X obj 131 58 / 44;
#X obj 27 229 * -1;
#X obj 27 246 + 3;
#X text 129 124 ECHO: kLDelay;
#X obj 43 70 vsl 15 128 0 3 0 0 0 empty empty 0 -8 0 8 -258113 -1 -1
2117 1;
#X obj 131 108 / 127;
#X msg 43 51 0.5;
#X obj 104 230 > 0.5;
#X obj 104 247 * 0.94;
#X obj 104 213 pack f;
#X msg 104 314 send /kLDelay \$1;
#X obj 59 70 vsl 15 128 0 3 0 0 0 empty empty 0 -8 0 8 -258113 -1 -1
2117 1;
#X obj 130 162 / 127;
#X msg 73 51 0.5;
#X obj 149 230 > 0.5;
#X obj 149 247 * 0.94;
#X obj 149 213 pack f;
#X msg 149 271 send /sample_kLDelay \$1;
#X obj 131 41 ctlin 12 1;
#X obj 131 91 ctlin 13 2;
#X obj 130 145 ctlin 13 3;
#X msg 33 291 send /sample_kMix \$1;
#X text 129 75 kMix;
#X text 128 178 ECHO: sample kLDelay;
#X obj 316 77 vsl 15 128 0 3 0 0 0 empty empty 0 -8 0 8 -260097 -1
-1 0 1;
#X obj 331 77 vsl 15 128 0 1 0 0 0 empty empty 0 -8 0 8 -260097 -1
-1 0 1;
#X obj 323 31 r reset;
#X obj 377 140 / 127;
#X obj 346 77 vsl 15 128 0 1 0 0 0 empty empty 0 -8 0 8 -260097 -1
-1 0 1;
#X text 324 10 ROOM;
#X obj 376 180 / 127;
#X obj 378 78 ctlin 12 2;
#X obj 316 227 pack f;
#X obj 361 228 pack f;
#X msg 316 271 send /decay \$1;
#X msg 361 251 send /earlymix \$1;
#X msg 314 55 0;
#X msg 361 56 0;
#X obj 377 123 ctlin 10 2;
#X obj 376 163 ctlin 7 2;
#X obj 331 301 send porphyrographOut;
#X text 732 16 ONLY FOR TERRAINS VAGUES;
#X obj 736 59 r init;
#X msg 737 79 0;
#X obj 746 103 vsl 15 64 0 6 0 0 empty empty empty 0 -8 0 8 -232576
-1 -1 0 1;
#X msg 746 276 send /terrains_vagues1_level \$1;
#X obj 731 321 s porphyrographOut;
#X msg 263 250 send /mix \$1;
#X obj 850 98 ctlin 13 1;
#X obj 850 115 - 15;
#X obj 850 132 / 22;
#X obj 378 95 / 44;
#X obj 524 39 bng 15 250 50 0 empty empty empty 0 -6 0 8 -262144 -1
-1;
#X obj 544 82 vsl 15 128 0 3 0 0 0 empty empty 0 -8 0 8 -260097 -1
-1 0 1;
#X obj 559 82 vsl 15 128 0 1 0 0 0 empty empty 0 -8 0 8 -260097 -1
-1 0 1;
#X obj 551 36 r reset;
#X obj 605 142 / 127;
#X obj 574 82 vsl 15 128 0 1 0 0 0 empty empty 0 -8 0 8 -260097 -1
-1 0 1;
#X msg 510 61 0;
#X obj 603 184 / 127;
#X obj 476 228 pack f;
#X obj 559 229 pack f;
#X obj 604 229 pack f;
#X msg 542 60 0;
#X msg 589 61 0;
#X obj 559 302 send porphyrographOut;
#X obj 606 100 / 44;
#X msg 476 251 send /sample_mix \$1;
#X msg 559 272 send /sample_decay \$1;
#X msg 604 250 send /sample_earlymix \$1;
#X obj 606 83 ctlin 12 3;
#X obj 605 124 ctlin 10 3;
#X obj 603 167 ctlin 7 3;
#X text 516 15 ROOM FOR SAMPLES;
#X obj 731 103 vsl 15 64 0 3 0 0 empty empty empty 0 -8 0 8 -204786
-1 -1 0 1;
#X obj 782 115 - 5;
#X obj 782 132 / 40;
#X obj 782 97 ctlin 7 1;
#X msg 731 181 send /TV_backtrack_level \$1;
#X text 736 26 backtrack and sequence level;
#N canvas 166 50 807 173 launch6 0;
#X obj -677 -7 s startclock;
#X msg -770 -6 send /launch;
#X obj -729 65 send porphyrographOut;
#X msg -480 -7 send /terrains_vagues1_onOff;
#X obj -710 -59 inlet;
#X msg -946 -7 send /TV_backtrack_6_onOff;
#X obj -582 12 s timeOffset;
#X msg -582 -5 360;
#X msg -288 -8 send /scene_offset 6;
#X connect 1 0 2 0;
#X connect 3 0 2 0;
#X connect 4 0 5 0;
#X connect 4 0 1 0;
#X connect 4 0 0 0;
#X connect 4 0 3 0;
#X connect 4 0 7 0;
#X connect 4 0 8 0;
#X connect 5 0 2 0;
#X connect 7 0 6 0;
#X connect 8 0 2 0;
#X restore 13 411 pd launch6;
#N canvas 256 200 807 173 launch12 0;
#X obj -670 3 s startclock;
#X msg -763 4 send /launch;
#X obj -719 75 send porphyrographOut;
#X obj -700 -49 inlet;
#X msg -936 3 send /TV_backtrack_12_onOff;
#X msg -451 6 send /terrains_vagues1_onOff;
#X obj -572 22 s timeOffset;
#X msg -572 5 720;
#X msg -260 6 send /scene_offset 12;
#X connect 1 0 2 0;
#X connect 3 0 4 0;
#X connect 3 0 1 0;
#X connect 3 0 0 0;
#X connect 3 0 5 0;
#X connect 3 0 7 0;
#X connect 3 0 8 0;
#X connect 4 0 2 0;
#X connect 5 0 2 0;
#X connect 7 0 6 0;
#X connect 8 0 2 0;
#X restore 150 409 pd launch12;
#X msg 743 203 send /TV_backtrack_6_level \$1;
#X msg 761 225 send /TV_backtrack_12_level \$1;
#N canvas 256 200 807 173 launch20 0;
#X obj -649 13 s startclock;
#X msg -742 14 send /launch;
#X obj -709 85 send porphyrographOut;
#X obj -690 -39 inlet;
#X msg -461 13 send /terrains_vagues1_onOff;
#X obj -562 32 s timeOffset;
#X msg -926 13 send /TV_backtrack_20_onOff;
#X msg -562 15 1200;
#X msg -268 12 send /scene_offset 20;
#X connect 1 0 2 0;
#X connect 3 0 6 0;
#X connect 3 0 1 0;
#X connect 3 0 0 0;
#X connect 3 0 4 0;
#X connect 3 0 7 0;
#X connect 3 0 8 0;
#X connect 4 0 2 0;
#X connect 6 0 2 0;
#X connect 7 0 5 0;
#X connect 8 0 2 0;
#X restore 317 408 pd launch20;
#X msg 776 246 send /TV_backtrack_20_level \$1;
#N canvas 0 325 431 225 TV_backtrack_onOff 0;
#X obj -1125 159 send porphyrographOut;
#X msg -1125 44 send /TV_backtrack_onOff;
#X obj -1067 2 inlet;
#X msg -1096 69 send /TV_backtrack_6_onOff;
#X msg -1073 99 send /TV_backtrack_12_onOff;
#X msg -1050 131 send /TV_backtrack_20_onOff;
#X connect 1 0 0 0;
#X connect 2 0 1 0;
#X connect 2 0 3 0;
#X connect 2 0 4 0;
#X connect 2 0 5 0;
#X connect 3 0 0 0;
#X connect 4 0 0 0;
#X connect 5 0 0 0;
#X restore 147 483 pd TV_backtrack_onOff;
#X obj 317 388 bng 20 250 50 0 empty empty 20 25 10 0 18 -258113 -1
-1;
#X obj 13 391 bng 20 250 50 0 empty empty 6 25 10 0 18 -257985 -1 -1
;
#X msg 336 522 send /record_output;
#X obj 323 571 cnv 15 165 40 empty empty Recording 0 20 1 32 -204786
-33289 0;
#X obj 324 606 cnv 15 85 40 empty record_output_can ON 10 20 1 32 -258699
-33289 0;
#X connect 3 0 163 0;
#X connect 4 0 8 0;
#X connect 5 0 10 0;
#X connect 6 0 4 0;
#X connect 7 0 53 0;
#X connect 8 0 11 0;
#X connect 9 0 5 0;
#X connect 10 0 12 0;
#X connect 14 0 156 0;
#X connect 15 0 14 0;
#X connect 16 0 162 0;
#X connect 17 0 161 0;
#X connect 18 0 62 0;
#X connect 22 0 24 0;
#X connect 24 0 23 0;
#X connect 25 0 27 0;
#X connect 27 0 26 0;
#X connect 28 0 164 0;
#X connect 30 0 22 0;
#X connect 31 0 25 0;
#X connect 32 0 28 0;
#X connect 33 0 18 0;
#X connect 34 0 17 0;
#X connect 38 0 47 0;
#X connect 39 0 41 0;
#X connect 39 0 49 0;
#X connect 40 0 38 0;
#X connect 42 0 43 0;
#X connect 42 1 44 0;
#X connect 42 2 45 0;
#X connect 46 0 41 0;
#X connect 46 0 49 0;
#X connect 53 0 13 0;
#X connect 62 0 19 0;
#X connect 64 0 68 0;
#X connect 64 0 111 0;
#X connect 64 0 112 0;
#X connect 65 0 70 0;
#X connect 65 0 81 0;
#X connect 65 0 88 0;
#X connect 66 0 71 0;
#X connect 67 0 65 0;
#X connect 68 0 99 0;
#X connect 70 0 66 0;
#X connect 71 0 76 0;
#X connect 72 0 122 0;
#X connect 74 0 73 0;
#X connect 75 0 66 0;
#X connect 76 0 77 0;
#X connect 77 0 74 0;
#X connect 77 0 96 0;
#X connect 79 0 84 0;
#X connect 80 0 79 0;
#X connect 81 0 79 0;
#X connect 82 0 83 0;
#X connect 83 0 85 0;
#X connect 84 0 82 0;
#X connect 85 0 73 0;
#X connect 86 0 91 0;
#X connect 87 0 86 0;
#X connect 88 0 86 0;
#X connect 89 0 90 0;
#X connect 90 0 92 0;
#X connect 91 0 89 0;
#X connect 92 0 73 0;
#X connect 93 0 75 0;
#X connect 94 0 80 0;
#X connect 95 0 87 0;
#X connect 96 0 73 0;
#X connect 99 0 72 0;
#X connect 100 0 107 0;
#X connect 101 0 64 0;
#X connect 102 0 100 0;
#X connect 103 0 108 0;
#X connect 105 0 103 0;
#X connect 106 0 126 0;
#X connect 107 0 109 0;
#X connect 108 0 110 0;
#X connect 109 0 115 0;
#X connect 110 0 115 0;
#X connect 111 0 100 0;
#X connect 112 0 103 0;
#X connect 113 0 102 0;
#X connect 114 0 105 0;
#X connect 117 0 118 0;
#X connect 118 0 119 0;
#X connect 118 0 149 0;
#X connect 119 0 120 0;
#X connect 120 0 121 0;
#X connect 122 0 115 0;
#X connect 123 0 124 0;
#X connect 124 0 125 0;
#X connect 125 0 119 0;
#X connect 126 0 99 0;
#X connect 127 0 133 0;
#X connect 127 0 138 0;
#X connect 127 0 139 0;
#X connect 128 0 135 0;
#X connect 129 0 136 0;
#X connect 130 0 127 0;
#X connect 131 0 129 0;
#X connect 132 0 137 0;
#X connect 133 0 128 0;
#X connect 134 0 132 0;
#X connect 135 0 142 0;
#X connect 136 0 143 0;
#X connect 137 0 144 0;
#X connect 138 0 129 0;
#X connect 139 0 132 0;
#X connect 141 0 128 0;
#X connect 142 0 140 0;
#X connect 143 0 140 0;
#X connect 144 0 140 0;
#X connect 145 0 141 0;
#X connect 146 0 131 0;
#X connect 147 0 134 0;
#X connect 149 0 153 0;
#X connect 149 0 157 0;
#X connect 149 0 158 0;
#X connect 149 0 160 0;
#X connect 150 0 151 0;
#X connect 151 0 149 0;
#X connect 152 0 150 0;
#X connect 153 0 121 0;
#X connect 157 0 121 0;
#X connect 158 0 121 0;
#X connect 160 0 121 0;
#X connect 162 0 159 0;
#X connect 163 0 155 0;
#X connect 164 0 29 0;
