#N canvas 0 4 1172 527 10;
#X obj -275 -22781 cnv 15 140 25 empty message_can INIT_COMPLETED 0
12 1 14 -262144 -33289 0;
#X obj -739 -22774 ctlin;
#X floatatom -759 -22747 5 0 0 0 - - -;
#X floatatom -728 -22747 5 0 0 0 - - -;
#X floatatom -696 -22747 5 0 0 0 - - -;
#X obj -939 -22647 vsl 15 32 0 1 0 0 empty dampingfreq dampingfreq
0 -9 0 14 -128992 -1 -24198 0 1;
#N canvas 223 408 447 279 connect 0;
#X msg 26 -14 disconnect;
#X text -110 -70 OPEN UDP CONNECTION;
#X text 19 -69 CLOSE UDP CONNECTION;
#X msg -50 42 connect 127.0.0.1 1978;
#X obj 3 68 r message;
#X obj -50 -54 inlet;
#X obj 26 -52 inlet;
#X obj 150 68 r message_SC;
#X floatatom 115 145 5 0 0 0 - - -;
#X floatatom -50 153 5 0 0 0 - - -;
#X text 197 15 SUPERCOLLIDER / sclang;
#X obj 65 -37 r disconnect;
#X obj -41 14 r connect;
#X msg 115 42 connect 192.168.0.3 57120;
#X obj 130 16 r connect;
#X obj 150 96 spigot;
#X obj 3 97 spigot;
#X text 20 13 Porphyrograph;
#X obj -50 131 netsend 1;
#X obj 115 122 netsend 1;
#X obj 43 175 print;
#X connect 0 0 18 0;
#X connect 0 0 19 0;
#X connect 3 0 18 0;
#X connect 4 0 16 0;
#X connect 5 0 3 0;
#X connect 6 0 0 0;
#X connect 7 0 15 0;
#X connect 11 0 0 0;
#X connect 12 0 3 0;
#X connect 13 0 19 0;
#X connect 15 0 19 0;
#X connect 16 0 18 0;
#X connect 18 0 9 0;
#X connect 18 0 16 1;
#X connect 19 0 8 0;
#X connect 19 0 15 1;
#X coords 0 0 10 10 0 0 0;
#X restore -947 -22727 pd connect;
#X obj -947 -22744 bng 15 250 50 0 empty empty empty 0 -6 0 8 -24198
-1 -1;
#X obj -890 -22744 bng 15 250 50 0 empty empty empty 0 -6 0 8 -258699
-1 -1;
#X obj -947 -22762 loadbang;
#X text -951 -22779 UDP connection;
#X text -846 -22778 AUDIO ON;
#X obj -844 -22761 loadbang;
#X msg -844 -22745 \; pd dsp 1;
#X text -472 -22770 USB Controller;
#X obj -555 -22734 s connect;
#X obj -633 -22733 s disconnect;
#X obj -633 -22775 bng 15 250 50 0 empty empty empty 0 -6 0 8 -24198
-1 -1;
#X text -611 -22776 Manual connection;
#X text -474 -22788 OSC input messages;
#X obj -633 -22753 delay 3000;
#X obj -555 -22753 delay 3050;
#N canvas 43 308 1061 705 MIDIControl_Faders 1;
#X obj 784 -452 ctlin;
#X floatatom 757 -426 5 0 0 0 - - -;
#X floatatom 797 -426 5 0 0 0 - - -;
#X floatatom 836 -426 5 0 0 0 - - -;
#X obj 18 -603 vsl 15 32 0 1 0 0 empty empty empty 0 -8 0 8 -262144
-1 -1 0 1;
#X msg 18 -621 0;
#X obj 18 -551 s message;
#X floatatom 58 -586 5 0 0 0 - - -;
#X obj 59 -609 / 127;
#X obj 140 -605 vsl 15 32 0 1 0 0 empty empty empty 0 -8 0 8 -262144
-1 -1 1550 1;
#X obj 140 -553 s message;
#X floatatom 180 -588 5 0 0 0 - - -;
#X obj 181 -611 / 127;
#X obj 253 -607 vsl 15 32 0 1 0 0 empty empty empty 0 -8 0 8 -262144
-1 -1 3100 1;
#X obj 253 -555 s message;
#X floatatom 293 -590 5 0 0 0 - - -;
#X obj 294 -613 / 127;
#X obj 359 -608 vsl 15 32 0 1 0 0 empty empty empty 0 -8 0 8 -262144
-1 -1 1550 1;
#X obj 359 -556 s message;
#X floatatom 399 -591 5 0 0 0 - - -;
#X obj 400 -614 / 127;
#X obj 484 -609 vsl 15 32 0 1 0 0 empty empty empty 0 -8 0 8 -262144
-1 -1 0 1;
#X msg 484 -627 0;
#X obj 484 -557 s message;
#X floatatom 524 -592 5 0 0 0 - - -;
#X obj 525 -615 / 127;
#X obj 601 -606 vsl 15 32 0 1 0 0 empty empty empty 0 -8 0 8 -262144
-1 -1 1550 1;
#X obj 601 -554 s message;
#X floatatom 641 -589 5 0 0 0 - - -;
#X obj 642 -612 / 127;
#X obj 713 -611 vsl 15 32 0 1 0 0 empty empty empty 0 -8 0 8 -262144
-1 -1 3100 1;
#X obj 713 -559 s message;
#X floatatom 753 -594 5 0 0 0 - - -;
#X obj 754 -617 / 127;
#X obj 814 -612 vsl 15 32 0 1 0 0 empty empty empty 0 -8 0 8 -262144
-1 -1 465 1;
#X obj 814 -560 s message;
#X floatatom 854 -595 5 0 0 0 - - -;
#X obj 855 -618 / 127;
#X obj 876 -474 vsl 15 32 0 1 0 0 empty empty empty 0 -8 0 8 -262144
-1 -1 2325 1;
#X obj 876 -422 s message;
#X floatatom 916 -457 5 0 0 0 - - -;
#X obj 917 -480 / 127;
#X text 9 -655 REVERB: dampingfreq;
#X msg 18 -568 send /dampingfreq \$1;
#X text 131 -657 REVERB: density;
#X msg 140 -570 send /density \$1;
#X text 235 -659 REVERB: bandwidthfreq;
#X msg 253 -572 send /bandwidthfreq \$1;
#X msg 359 -573 send /decay \$1;
#X msg 484 -574 send /predelay \$1;
#X msg 601 -571 send /size \$1;
#X msg 713 -576 send /gain \$1;
#X msg 814 -577 send /mix \$1;
#X msg 876 -439 send /earlymix \$1;
#X text 475 -661 REVERB: predelay;
#X text 379 -660 REVERB: decay;
#X text 592 -658 REVERB: size;
#X text 704 -663 REVERB: gain;
#X text 806 -664 REVERB: mix;
#X text 868 -526 REVERB: earlymix;
#X msg 140 -623 0.5;
#X msg 253 -625 1;
#X msg 359 -626 0.5;
#X msg 601 -624 0.5;
#X msg 713 -629 1;
#X msg 814 -630 0.15;
#X msg 876 -492 0.75;
#X obj 21 -470 vsl 15 32 0 1 0 0 empty empty empty 0 -8 0 8 -262144
-1 -1 1550 1;
#X obj 20 -417 s message;
#X floatatom 67 -452 5 0 0 0 - - -;
#X obj 64 -474 / 127;
#X obj 143 -471 vsl 15 32 0 1 0 0 empty empty empty 0 -8 0 8 -262144
-1 -1 837 1;
#X obj 142 -419 s message;
#X floatatom 189 -454 5 0 0 0 - - -;
#X obj 186 -476 / 127;
#X obj 300 -470 vsl 15 32 0 1 0 0 empty empty empty 0 -8 0 8 -262144
-1 -1 2170 1;
#X obj 299 -418 s message;
#X floatatom 346 -453 5 0 0 0 - - -;
#X obj 343 -475 / 127;
#X obj 406 -471 vsl 15 32 0 1 0 0 empty empty empty 0 -8 0 8 -262144
-1 -1 1550 1;
#X obj 405 -419 s message;
#X floatatom 452 -454 5 0 0 0 - - -;
#X obj 449 -476 / 127;
#X obj 637 -471 vsl 15 32 0 1 0 0 empty empty empty 0 -8 0 8 -262144
-1 -1 1550 1;
#X obj 636 -419 s message;
#X floatatom 683 -454 5 0 0 0 - - -;
#X obj 680 -476 / 127;
#X obj 528 -470 vsl 15 32 0 1 0 0 empty empty empty 0 -8 0 8 -262144
-1 -1 1023 1;
#X obj 527 -418 s message;
#X floatatom 574 -453 5 0 0 0 - - -;
#X obj 571 -475 / 127;
#X msg 406 -490 0.5;
#X text 631 -529 ECHO: kLevel;
#X msg 636 -436 send /kLevel \$1;
#X text 522 -528 ECHO: kMix;
#X msg 527 -435 send /kMix \$1;
#X msg 637 -490 0.5;
#X text 15 -527 ECHO: kLDelay;
#X msg 20 -434 send /kLDelay \$1;
#X text 137 -529 ECHO: kLRDelayRatio;
#X msg 142 -436 send /kLRDelayRatio \$1;
#X text 285 -528 ECHO: kFeedBk;
#X msg 299 -435 send /kFeedBk \$1;
#X text 409 -530 ECHO: kTone;
#X msg 405 -436 send /kTone \$1;
#X msg 21 -488 0.5;
#X msg 143 -490 0.27;
#X msg 300 -489 0.7;
#X msg 528 -489 0.33;
#X obj 17 -637 r init;
#X obj 139 -638 r init;
#X obj 252 -641 r init;
#X obj 358 -643 r init;
#X obj 484 -643 r init;
#X obj 600 -640 r init;
#X obj 712 -645 r init;
#X obj 813 -646 r init;
#X obj 875 -508 r init;
#X obj 23 -504 r init;
#X obj 145 -506 r init;
#X obj 302 -505 r init;
#X obj 408 -506 r init;
#X obj 532 -505 r init;
#X obj 639 -506 r init;
#X obj 13 -338 vsl 15 32 0 1 0 0 empty empty empty 0 -8 0 8 -262144
-1 -1 3100 1;
#X obj 14 -285 s message;
#X floatatom 56 -319 5 0 0 0 - - -;
#X obj 59 -339 / 127;
#X obj 13 -371 r init;
#X msg 13 -356 0;
#X msg 14 -302 send /dumpstortromme_level \$1;
#X obj 29 -189 vsl 15 32 0 1 0 0 empty empty empty 0 -8 0 8 -262144
-1 -1 0 1;
#X obj 29 -135 s message;
#X floatatom 68 -177 5 0 0 0 - - -;
#X obj 69 -198 / 127;
#X obj 28 -227 r init;
#X msg 29 -207 0;
#X obj 70 -218 ctlin 7 1;
#X obj 123 -337 vsl 15 32 0 1 0 0 empty empty empty 0 -8 0 8 -262144
-1 -1 0 1;
#X obj 124 -268 s message;
#X floatatom 166 -318 5 0 0 0 - - -;
#X obj 169 -338 / 127;
#X obj 123 -370 r init;
#X msg 123 -355 0;
#X obj 234 -341 vsl 15 32 0 1 0 0 empty empty empty 0 -8 0 8 -262144
-1 -1 0 1;
#X obj 234 -269 s message;
#X floatatom 277 -322 5 0 0 0 - - -;
#X obj 280 -342 / 127;
#X obj 234 -374 r init;
#X msg 234 -359 0;
#X obj 351 -343 vsl 15 32 0 1 0 0 empty empty empty 0 -8 0 8 -262144
-1 -1 0 1;
#X obj 352 -270 s message;
#X floatatom 381 -321 5 0 0 0 - - -;
#X obj 384 -341 / 127;
#X obj 351 -376 r init;
#X msg 351 -361 0;
#X obj 453 -341 vsl 15 32 0 1 0 0 empty empty empty 0 -8 0 8 -262144
-1 -1 0 1;
#X obj 456 -272 s message;
#X floatatom 484 -321 5 0 0 0 - - -;
#X obj 487 -341 / 127;
#X obj 453 -374 r init;
#X msg 453 -359 0;
#X obj 555 -341 vsl 15 32 0 1 0 0 empty empty empty 0 -8 0 8 -262144
-1 -1 0 1;
#X obj 557 -271 s message;
#X floatatom 583 -322 5 0 0 0 - - -;
#X obj 586 -342 / 127;
#X obj 555 -374 r init;
#X msg 555 -359 0;
#X obj 652 -339 vsl 15 32 0 1 0 0 empty empty empty 0 -8 0 8 -262144
-1 -1 0 1;
#X obj 652 -271 s message;
#X floatatom 673 -319 5 0 0 0 - - -;
#X obj 676 -339 / 127;
#X obj 652 -372 r init;
#X msg 652 -357 0;
#X obj 750 -338 vsl 15 32 0 1 0 0 empty empty empty 0 -8 0 8 -262144
-1 -1 0 1;
#X obj 752 -268 s message;
#X floatatom 793 -319 5 0 0 0 - - -;
#X obj 796 -339 / 127;
#X obj 750 -371 r init;
#X msg 750 -356 0;
#X obj 132 -189 vsl 15 32 0 1 0 0 empty empty empty 0 -8 0 8 -262144
-1 -1 0 1;
#X obj 132 -119 s message;
#X floatatom 171 -177 5 0 0 0 - - -;
#X obj 172 -198 / 127;
#X obj 131 -227 r init;
#X msg 132 -207 0;
#X obj 236 -187 vsl 15 32 0 1 0 0 empty empty empty 0 -8 0 8 -262144
-1 -1 0 1;
#X obj 237 -115 s message;
#X floatatom 275 -175 5 0 0 0 - - -;
#X obj 276 -196 / 127;
#X obj 235 -225 r init;
#X msg 236 -205 0;
#X obj 348 -190 vsl 15 32 0 1 0 0 empty empty empty 0 -8 0 8 -262144
-1 -1 0 1;
#X obj 349 -114 s message;
#X floatatom 387 -178 5 0 0 0 - - -;
#X obj 388 -199 / 127;
#X obj 347 -228 r init;
#X msg 348 -208 0;
#X obj 463 -188 vsl 15 32 0 1 0 0 empty empty empty 0 -8 0 8 -262144
-1 -1 0 1;
#X obj 463 -114 s message;
#X floatatom 502 -176 5 0 0 0 - - -;
#X obj 503 -197 / 127;
#X obj 462 -226 r init;
#X msg 463 -206 0;
#X obj 566 -189 vsl 15 32 0 1 0 0 empty empty empty 0 -8 0 8 -262144
-1 -1 0 1;
#X obj 567 -116 s message;
#X floatatom 605 -177 5 0 0 0 - - -;
#X obj 606 -198 / 127;
#X obj 565 -227 r init;
#X msg 566 -207 0;
#X obj 677 -187 vsl 15 32 0 1 0 0 empty empty empty 0 -8 0 8 -262144
-1 -1 0 1;
#X obj 677 -115 s message;
#X floatatom 716 -175 5 0 0 0 - - -;
#X obj 717 -196 / 127;
#X obj 676 -225 r init;
#X msg 677 -205 0;
#X obj 778 -184 vsl 15 32 0 1 0 0 empty empty empty 0 -8 0 8 -262144
-1 -1 0 1;
#X obj 779 -114 s message;
#X floatatom 817 -172 5 0 0 0 - - -;
#X obj 818 -193 / 127;
#X obj 777 -222 r init;
#X msg 778 -202 0;
#X obj 889 -185 vsl 15 32 0 1 0 0 empty empty empty 0 -8 0 8 -262144
-1 -1 0 1;
#X obj 888 -114 s message;
#X floatatom 928 -173 5 0 0 0 - - -;
#X obj 929 -194 / 127;
#X obj 888 -223 r init;
#X msg 889 -203 0;
#X obj 173 -218 ctlin 7 2;
#X obj 277 -216 ctlin 7 3;
#X obj 392 -221 ctlin 7 4;
#X obj 504 -217 ctlin 7 5;
#X obj 607 -218 ctlin 7 6;
#X obj 718 -216 ctlin 7 7;
#X obj 819 -213 ctlin 7 8;
#X obj 930 -214 ctlin 28 1;
#X text 116 -388 bitcrush_stortromme;
#X msg 124 -285 send /bitcrush_stortromme_level \$1;
#X text 238 -393 snareP3de;
#X msg 235 -305 send /snareP3de_level \$1;
#X text 351 -390 bling1;
#X msg 352 -287 send /bling1_level \$1;
#X text 452 -390 bling2;
#X msg 454 -305 send /bling2_level \$1;
#X text 547 -389 iyebassdrum;
#X msg 557 -288 send /iyebassdrum_level \$1;
#X text 654 -390 iyetiktak;
#X msg 653 -303 send /iyetiktak_level \$1;
#X text 741 -388 femPath_cello;
#X msg 752 -285 send /femPath_cello_level \$1;
#X text 9 -242 femPath_klik_synth;
#X msg 29 -152 send /femPath_klik_synth_level \$1;
#X text 139 -241 pling;
#X msg 133 -135 send /pling_level \$1;
#X text 226 -239 babai_synthpling;
#X text 5 -390 dumpstortromme;
#X text 338 -242 babai_heman;
#X msg 349 -131 send /babai_heman_level \$1;
#X text 453 -240 babai_cello;
#X msg 463 -151 send /babai_cello_level \$1;
#X text 556 -241 babai_rytme;
#X msg 567 -133 send /babai_rytme_level \$1;
#X text 667 -239 knas;
#X msg 677 -150 send /knas_level \$1;
#X text 768 -236 knit;
#X msg 779 -131 send /knit_level \$1;
#X text 879 -237 knag;
#X msg 889 -148 send /knag_level \$1;
#X obj 60 -629 ctlin 13 1;
#X obj 183 -631 ctlin 13 2;
#X obj 295 -633 ctlin 13 3;
#X obj 401 -634 ctlin 13 4;
#X obj 526 -635 ctlin 13 5;
#X obj 643 -632 ctlin 13 6;
#X obj 755 -637 ctlin 13 7;
#X obj 856 -638 ctlin 13 8;
#X obj 65 -494 ctlin 12 1;
#X obj 187 -496 ctlin 12 2;
#X obj 344 -495 ctlin 12 3;
#X obj 450 -496 ctlin 12 4;
#X obj 572 -495 ctlin 12 6;
#X obj 681 -496 ctlin 12 5;
#X obj 918 -500 ctlin 12 6;
#X obj 60 -359 ctlin 10 1;
#X obj 170 -358 ctlin 10 2;
#X obj 281 -362 ctlin 10 3;
#X obj 385 -361 ctlin 10 4;
#X obj 488 -361 ctlin 10 5;
#X obj 587 -362 ctlin 10 6;
#X obj 677 -359 ctlin 10 7;
#X obj 797 -359 ctlin 10 8;
#X obj 29 -35 vsl 15 32 0 1 0 0 empty empty empty 0 -8 0 8 -262144
-1 -1 0 1;
#X obj 29 19 s message;
#X floatatom 68 -23 5 0 0 0 - - -;
#X obj 69 -44 / 127;
#X obj 28 -73 r init;
#X msg 29 -53 0;
#X obj 70 -64 ctlin 7 1;
#X obj 132 -35 vsl 15 32 0 1 0 0 empty empty empty 0 -8 0 8 -262144
-1 -1 0 1;
#X obj 132 35 s message;
#X floatatom 171 -23 5 0 0 0 - - -;
#X obj 172 -44 / 127;
#X obj 131 -73 r init;
#X msg 132 -53 0;
#X obj 236 -33 vsl 15 32 0 1 0 0 empty empty empty 0 -8 0 8 -262144
-1 -1 0 1;
#X obj 237 39 s message;
#X floatatom 275 -21 5 0 0 0 - - -;
#X obj 276 -42 / 127;
#X obj 235 -71 r init;
#X msg 236 -51 0;
#X obj 173 -64 ctlin 7 2;
#X obj 277 -62 ctlin 7 3;
#X text 23 -90 ghost;
#X msg 29 2 send /ghost_level \$1;
#X msg 133 19 send /brand_level \$1;
#X text 153 -89 brand;
#X text 240 -87 legebil;
#X obj 394 -34 vsl 15 32 0 1 0 0 empty empty empty 0 -8 0 8 -262144
-1 -1 0 1;
#X obj 395 38 s message;
#X floatatom 433 -22 5 0 0 0 - - -;
#X obj 434 -43 / 127;
#X obj 393 -72 r init;
#X msg 394 -52 0;
#X obj 435 -63 ctlin 7 3;
#X text 398 -88 backtrack 0;
#X msg 236 -150 send /babai_synthpling_level \$1;
#X msg 236 4 send /legebil_level \$1;
#X msg 394 3 send /long_sample_0_level \$1;
#X obj 589 -34 vsl 15 32 0 1 0 0 empty empty empty 0 -8 0 8 -262144
-1 -1 0 1;
#X obj 590 38 s message;
#X floatatom 628 -22 5 0 0 0 - - -;
#X obj 629 -43 / 127;
#X obj 588 -72 r init;
#X msg 589 -52 0;
#X obj 630 -63 ctlin 7 3;
#X msg 589 3 send /loop_level \$1;
#X obj 334 132 vsl 15 32 0 1 0 0 empty empty empty 0 -8 0 8 -262144
-1 -1 3100 1;
#X obj 335 204 s message;
#X floatatom 415 145 5 0 0 0 - - -;
#X obj 374 123 / 127;
#X obj 333 94 r init;
#X msg 334 114 0;
#X obj 375 103 ctlin 7 3;
#X text 26 58 ONLY FOR TERRAINS VAGUES;
#X text 584 -86 level of feedback;
#X text 583 -97 loop on input;
#X text 327 79 track shuffle;
#X obj 33 127 vsl 15 64 0 1 0 0 empty empty empty 0 -8 0 8 -262144
-1 -1 2100 1;
#X obj 84 231 s message;
#X floatatom 129 154 5 0 0 0 - - -;
#X obj 128 133 / 127;
#X obj 32 85 r init;
#X msg 33 105 0;
#X obj 129 113 ctlin 7 3;
#X msg 335 171 send /TV_track_shuffle \$1;
#X obj 499 132 vsl 15 32 0 1 0 0 empty empty empty 0 -8 0 8 -262144
-1 -1 0 1;
#X obj 500 204 s message;
#X floatatom 538 144 5 0 0 0 - - -;
#X obj 539 123 / 127;
#X obj 498 94 r init;
#X msg 499 114 0;
#X obj 540 103 ctlin 7 3;
#X text 492 79 drone/sample mix;
#X msg 499 169 send /TV_drone_mix \$1;
#X obj 774 115 vsl 15 50 0 1 0 0 empty empty empty 0 -9 0 10 -262144
-1 -1 0 1;
#X obj 801 98 / 127;
#X obj 801 81 ctlin 12 3;
#X obj 805 139 int;
#X obj 778 205 s message;
#X obj 805 122 * 7.99;
#X obj 805 166 + 1;
#X msg 778 188 send /TV_swap_freq \$1;
#X obj 914 112 vsl 15 50 0 1 0 0 empty empty empty 0 -9 0 10 -262144
-1 -1 0 1;
#X obj 915 206 s message;
#X obj 915 168 + 1;
#X msg 915 189 send /TV_swap_dur \$1;
#X obj 945 128 / 127;
#X obj 945 111 ctlin 12 3;
#X floatatom 838 148 5 0 0 0 - - -;
#X floatatom 955 153 5 0 0 0 - - -;
#X obj 773 71 r init;
#X msg 774 91 0;
#X obj 913 71 r init;
#X msg 914 91 0;
#X text 759 56 sample swapping frequency and duration;
#X obj 358 144 * 3;
#X obj 646 134 vsl 15 32 0 1 0 0 empty empty empty 0 -8 0 8 -262144
-1 -1 0 1;
#X obj 647 206 s message;
#X floatatom 720 149 5 0 0 0 - - -;
#X obj 686 125 / 127;
#X obj 645 96 r init;
#X msg 646 116 0;
#X obj 687 105 ctlin 7 3;
#X text 639 81 drone/sample mix;
#X msg 646 178 send /TV_drone_size \$1;
#X obj 681 149 * 100;
#X obj 57 125 vsl 15 64 0 1 0 0 empty empty empty 0 -8 0 8 -262144
-1 -1 2200 1;
#X obj 80 102 vsl 15 64 0 1 0 0 empty empty empty 0 -8 0 8 -262144
-1 -1 1500 1;
#X text 30 68 sequence level choice;
#X msg 80 174 send /terrains_vagues1_level \$1;
#X msg 56 196 send /terrains_vagues2_level \$1;
#X msg 33 214 send /terrains_vagues3_level \$1;
#X connect 0 0 1 0;
#X connect 0 1 2 0;
#X connect 0 2 3 0;
#X connect 4 0 43 0;
#X connect 4 0 7 0;
#X connect 5 0 4 0;
#X connect 8 0 4 0;
#X connect 9 0 45 0;
#X connect 9 0 11 0;
#X connect 12 0 9 0;
#X connect 13 0 47 0;
#X connect 13 0 15 0;
#X connect 16 0 13 0;
#X connect 17 0 48 0;
#X connect 17 0 19 0;
#X connect 20 0 17 0;
#X connect 21 0 49 0;
#X connect 21 0 24 0;
#X connect 22 0 21 0;
#X connect 25 0 21 0;
#X connect 26 0 50 0;
#X connect 26 0 28 0;
#X connect 29 0 26 0;
#X connect 30 0 51 0;
#X connect 30 0 32 0;
#X connect 33 0 30 0;
#X connect 34 0 52 0;
#X connect 34 0 36 0;
#X connect 37 0 34 0;
#X connect 38 0 53 0;
#X connect 38 0 40 0;
#X connect 41 0 38 0;
#X connect 43 0 6 0;
#X connect 45 0 10 0;
#X connect 47 0 14 0;
#X connect 48 0 18 0;
#X connect 49 0 23 0;
#X connect 50 0 27 0;
#X connect 51 0 31 0;
#X connect 52 0 35 0;
#X connect 53 0 39 0;
#X connect 60 0 9 0;
#X connect 61 0 13 0;
#X connect 62 0 17 0;
#X connect 63 0 26 0;
#X connect 64 0 30 0;
#X connect 65 0 34 0;
#X connect 66 0 38 0;
#X connect 67 0 98 0;
#X connect 67 0 69 0;
#X connect 70 0 67 0;
#X connect 71 0 100 0;
#X connect 71 0 73 0;
#X connect 74 0 71 0;
#X connect 75 0 102 0;
#X connect 75 0 77 0;
#X connect 78 0 75 0;
#X connect 79 0 104 0;
#X connect 79 0 81 0;
#X connect 82 0 79 0;
#X connect 83 0 93 0;
#X connect 83 0 85 0;
#X connect 86 0 83 0;
#X connect 87 0 95 0;
#X connect 87 0 89 0;
#X connect 90 0 87 0;
#X connect 91 0 79 0;
#X connect 93 0 84 0;
#X connect 95 0 88 0;
#X connect 96 0 83 0;
#X connect 98 0 68 0;
#X connect 100 0 72 0;
#X connect 102 0 76 0;
#X connect 104 0 80 0;
#X connect 105 0 67 0;
#X connect 106 0 71 0;
#X connect 107 0 75 0;
#X connect 108 0 87 0;
#X connect 109 0 5 0;
#X connect 110 0 60 0;
#X connect 111 0 61 0;
#X connect 112 0 62 0;
#X connect 113 0 22 0;
#X connect 114 0 63 0;
#X connect 115 0 64 0;
#X connect 116 0 65 0;
#X connect 117 0 66 0;
#X connect 118 0 105 0;
#X connect 119 0 106 0;
#X connect 120 0 107 0;
#X connect 121 0 91 0;
#X connect 122 0 108 0;
#X connect 123 0 96 0;
#X connect 124 0 130 0;
#X connect 124 0 126 0;
#X connect 127 0 124 0;
#X connect 128 0 129 0;
#X connect 129 0 124 0;
#X connect 130 0 125 0;
#X connect 131 0 251 0;
#X connect 131 0 133 0;
#X connect 134 0 131 0;
#X connect 135 0 136 0;
#X connect 136 0 131 0;
#X connect 137 0 134 0;
#X connect 138 0 237 0;
#X connect 138 0 140 0;
#X connect 141 0 138 0;
#X connect 142 0 143 0;
#X connect 143 0 138 0;
#X connect 144 0 239 0;
#X connect 144 0 146 0;
#X connect 147 0 144 0;
#X connect 148 0 149 0;
#X connect 149 0 144 0;
#X connect 150 0 241 0;
#X connect 150 0 152 0;
#X connect 153 0 150 0;
#X connect 154 0 155 0;
#X connect 155 0 150 0;
#X connect 156 0 243 0;
#X connect 156 0 158 0;
#X connect 159 0 156 0;
#X connect 160 0 161 0;
#X connect 161 0 156 0;
#X connect 162 0 245 0;
#X connect 162 0 164 0;
#X connect 165 0 162 0;
#X connect 166 0 167 0;
#X connect 167 0 162 0;
#X connect 168 0 247 0;
#X connect 168 0 170 0;
#X connect 171 0 168 0;
#X connect 172 0 173 0;
#X connect 173 0 168 0;
#X connect 174 0 249 0;
#X connect 174 0 176 0;
#X connect 177 0 174 0;
#X connect 178 0 179 0;
#X connect 179 0 174 0;
#X connect 180 0 253 0;
#X connect 180 0 182 0;
#X connect 183 0 180 0;
#X connect 184 0 185 0;
#X connect 185 0 180 0;
#X connect 186 0 325 0;
#X connect 186 0 188 0;
#X connect 189 0 186 0;
#X connect 190 0 191 0;
#X connect 191 0 186 0;
#X connect 192 0 257 0;
#X connect 192 0 194 0;
#X connect 195 0 192 0;
#X connect 196 0 197 0;
#X connect 197 0 192 0;
#X connect 198 0 259 0;
#X connect 198 0 200 0;
#X connect 201 0 198 0;
#X connect 202 0 203 0;
#X connect 203 0 198 0;
#X connect 204 0 261 0;
#X connect 204 0 206 0;
#X connect 207 0 204 0;
#X connect 208 0 209 0;
#X connect 209 0 204 0;
#X connect 210 0 263 0;
#X connect 210 0 212 0;
#X connect 213 0 210 0;
#X connect 214 0 215 0;
#X connect 215 0 210 0;
#X connect 216 0 265 0;
#X connect 216 0 218 0;
#X connect 219 0 216 0;
#X connect 220 0 221 0;
#X connect 221 0 216 0;
#X connect 222 0 267 0;
#X connect 222 0 224 0;
#X connect 225 0 222 0;
#X connect 226 0 227 0;
#X connect 227 0 222 0;
#X connect 228 0 183 0;
#X connect 229 0 189 0;
#X connect 230 0 195 0;
#X connect 231 0 201 0;
#X connect 232 0 207 0;
#X connect 233 0 213 0;
#X connect 234 0 219 0;
#X connect 235 0 225 0;
#X connect 237 0 139 0;
#X connect 239 0 145 0;
#X connect 241 0 151 0;
#X connect 243 0 157 0;
#X connect 245 0 163 0;
#X connect 247 0 169 0;
#X connect 249 0 175 0;
#X connect 251 0 132 0;
#X connect 253 0 181 0;
#X connect 257 0 193 0;
#X connect 259 0 199 0;
#X connect 261 0 205 0;
#X connect 263 0 211 0;
#X connect 265 0 217 0;
#X connect 267 0 223 0;
#X connect 268 0 8 0;
#X connect 269 0 12 0;
#X connect 270 0 16 0;
#X connect 271 0 20 0;
#X connect 272 0 25 0;
#X connect 273 0 29 0;
#X connect 274 0 33 0;
#X connect 275 0 37 0;
#X connect 276 0 70 0;
#X connect 277 0 74 0;
#X connect 278 0 78 0;
#X connect 279 0 82 0;
#X connect 280 0 90 0;
#X connect 281 0 86 0;
#X connect 282 0 41 0;
#X connect 283 0 127 0;
#X connect 284 0 141 0;
#X connect 285 0 147 0;
#X connect 286 0 153 0;
#X connect 287 0 159 0;
#X connect 288 0 165 0;
#X connect 289 0 171 0;
#X connect 290 0 177 0;
#X connect 291 0 313 0;
#X connect 291 0 293 0;
#X connect 295 0 296 0;
#X connect 296 0 291 0;
#X connect 297 0 294 0;
#X connect 298 0 314 0;
#X connect 298 0 300 0;
#X connect 302 0 303 0;
#X connect 303 0 298 0;
#X connect 304 0 326 0;
#X connect 304 0 306 0;
#X connect 308 0 309 0;
#X connect 309 0 304 0;
#X connect 310 0 301 0;
#X connect 311 0 307 0;
#X connect 313 0 292 0;
#X connect 314 0 299 0;
#X connect 317 0 327 0;
#X connect 317 0 319 0;
#X connect 321 0 322 0;
#X connect 322 0 317 0;
#X connect 323 0 320 0;
#X connect 325 0 187 0;
#X connect 326 0 305 0;
#X connect 327 0 318 0;
#X connect 328 0 335 0;
#X connect 328 0 330 0;
#X connect 332 0 333 0;
#X connect 333 0 328 0;
#X connect 334 0 331 0;
#X connect 335 0 329 0;
#X connect 336 0 385 0;
#X connect 340 0 341 0;
#X connect 341 0 336 0;
#X connect 342 0 339 0;
#X connect 347 0 401 0;
#X connect 347 0 349 0;
#X connect 351 0 352 0;
#X connect 352 0 347 0;
#X connect 352 0 396 0;
#X connect 352 0 397 0;
#X connect 353 0 350 0;
#X connect 354 0 337 0;
#X connect 355 0 357 0;
#X connect 355 0 363 0;
#X connect 359 0 360 0;
#X connect 360 0 355 0;
#X connect 361 0 358 0;
#X connect 363 0 356 0;
#X connect 364 0 369 0;
#X connect 366 0 365 0;
#X connect 367 0 370 0;
#X connect 369 0 367 0;
#X connect 370 0 371 0;
#X connect 370 0 378 0;
#X connect 371 0 368 0;
#X connect 372 0 374 0;
#X connect 374 0 375 0;
#X connect 374 0 379 0;
#X connect 375 0 373 0;
#X connect 377 0 376 0;
#X connect 380 0 381 0;
#X connect 381 0 364 0;
#X connect 382 0 383 0;
#X connect 383 0 372 0;
#X connect 385 0 338 0;
#X connect 385 0 354 0;
#X connect 386 0 395 0;
#X connect 390 0 391 0;
#X connect 391 0 386 0;
#X connect 392 0 389 0;
#X connect 394 0 387 0;
#X connect 395 0 394 0;
#X connect 395 0 388 0;
#X connect 396 0 400 0;
#X connect 396 0 349 0;
#X connect 397 0 399 0;
#X connect 397 0 349 0;
#X connect 399 0 348 0;
#X connect 400 0 348 0;
#X connect 401 0 348 0;
#X coords 0 0 10 10 0 0 0;
#X restore -471 -22735 pd MIDIControl_Faders;
#N canvas 475 173 765 687 MIDIControl_Buttons 0;
#X obj 433 336 ctlin;
#X floatatom 408 368 5 0 0 0 - - -;
#X floatatom 447 369 5 0 0 0 - - -;
#X floatatom 487 370 5 0 0 0 - - -;
#X obj 13 -66 ctlin 19 1;
#X obj 13 20 s message;
#X obj 433 199 ctlin 27 1;
#X obj 433 268 s message;
#X text 434 176 INTERFACE MODE SHIFT;
#X obj 11 146 s message;
#X obj 11 63 ctlin 22 1;
#X obj 11 261 s message;
#X obj 11 187 ctlin 25 1;
#X obj 213 19 s message;
#X obj 213 -66 ctlin 20 1;
#X obj 211 142 s message;
#X obj 211 66 ctlin 23 1;
#X obj 210 275 s message;
#X obj 210 189 ctlin 26 1;
#X obj 436 20 s message;
#X obj 436 -65 ctlin 21 1;
#X text 397 -89 DECAY SIGN TRACK / NEXT SETUP;
#X obj 437 148 s message;
#X obj 437 65 ctlin 24 1;
#X obj 208 389 s message;
#X obj 208 313 ctlin 18 1;
#X obj 12 541 s message;
#X obj 12 466 ctlin 14 1;
#X obj 194 542 s message;
#X obj 194 467 ctlin 15 1;
#X obj 363 541 s message;
#X obj 594 539 s message;
#X obj 363 466 ctlin 16 1;
#X obj 594 467 ctlin 17 1;
#X text 436 44 INITIAL BG SUBTRACTION ON-OFF / NEXT SETUP CONSERVATIVE
;
#X text 185 46 INITIAL BG CAPTURE / VIDEO ON-OFF;
#X text 210 -89 DECAY SIGN CA / VIDEO TRACK +;
#X text 184 169 TRACK SRC REC;
#X text 9 169 TRACK SRC READ;
#X text 10 43 TRACK VIDEO +;
#X text 12 -87 TRACK +;
#X text 207 297 BG SUBTR MODE;
#X text 363 446 VIDEO INIT BG CAPTURE;
#X text 592 447 VIDEO CURRENT BG CAPTURE;
#X msg 363 504 send;
#X msg 594 498 send;
#X msg 208 351 send;
#X msg 210 227 send;
#X msg 11 227 send;
#X msg 11 101 send;
#X msg 211 102 send;
#X msg 437 101 send;
#X msg 433 230 send;
#X msg 436 -25 send;
#X msg 213 -18 send;
#X msg 13 -26 send;
#X text 9 446 ECHO kStereoIn;
#X text 188 447 ECHO kFiltTyp;
#X obj 112 457 bng 15 250 50 0 empty empty empty 17 7 0 10 -262144
-1 -1;
#X msg 12 507 send;
#X msg 194 503 send;
#X connect 0 0 1 0;
#X connect 0 1 2 0;
#X connect 0 2 3 0;
#X connect 4 0 55 0;
#X connect 6 0 52 0;
#X connect 10 0 49 0;
#X connect 12 0 48 0;
#X connect 14 0 54 0;
#X connect 16 0 50 0;
#X connect 18 0 47 0;
#X connect 20 0 53 0;
#X connect 23 0 51 0;
#X connect 25 0 46 0;
#X connect 27 0 59 0;
#X connect 29 0 60 0;
#X connect 32 0 44 0;
#X connect 33 0 45 0;
#X connect 44 0 30 0;
#X connect 45 0 31 0;
#X connect 46 0 24 0;
#X connect 47 0 17 0;
#X connect 48 0 11 0;
#X connect 49 0 9 0;
#X connect 50 0 15 0;
#X connect 51 0 22 0;
#X connect 52 0 7 0;
#X connect 53 0 19 0;
#X connect 54 0 13 0;
#X connect 55 0 5 0;
#X connect 59 0 26 0;
#X connect 60 0 28 0;
#X coords 0 0 10 10 0 0 0;
#X restore -471 -22715 pd MIDIControl_Buttons;
#N canvas 77 129 958 625 dumpMessages 0;
#X text -614 -5195 OSC message processing;
#X obj -613 -4975 s connect;
#X obj -613 -5178 netreceive 1979 1;
#X text -452 -5194 and processing messages from Porphyrograph;
#X msg -600 -4914 \; message_can label \$1;
#X obj -600 -4931 pack s;
#X obj -500 -4991 s dampingfreq;
#X obj -462 -4970 s density;
#X obj -418 -4949 s bandwidthfreq;
#X obj -376 -4927 s decay;
#X obj -340 -4906 s predelay;
#X obj -301 -4885 s size;
#X obj -250 -4862 s gain;
#X obj -207 -4844 s mix;
#X obj -168 -4825 s earlymix;
#X obj -374 -5006 s kPreDelay;
#X obj -336 -4985 s kDecay;
#X obj -292 -4964 s kLowPass;
#X obj -250 -4942 s kHighPass;
#X obj -214 -4921 s kStereoIn;
#X obj -175 -4900 s kDeviate;
#X obj -124 -4877 s kEchoVol;
#X obj -81 -4859 s kEchoTime;
#X obj -42 -4840 s kFeedBk;
#X obj -3 -4819 s kFilter;
#X obj 33 -4798 s kFiltTyp;
#X obj 72 -4777 s kPanOut;
#X obj 123 -4754 s kLevel;
#X obj 166 -4736 s kMix;
#X obj -613 -5161 route /connect /message_can /dampingfreq_can /density_can
/bandwidthfreq_can /decay_can /predelay_can /size_can /gain_can /mix_can
/earlymix_can /kPreDelay_can /kDecay_can /kLowPass_can /kHighPass_can
/kStereoIn_can /kDeviate_can /kEchoVol_can /kEchoTime_can /kFeedBk_can
/kFilter_can /kFiltTyp_can /kPanOut_can /kLevel_can /kMix_can;
#X obj -113 -5085 s dumpstortromme_can;
#X obj -93 -5065 s bitcrush_stortromme_can;
#X obj -76 -5046 s snareP3de_can;
#X obj -57 -5026 s bling1_can;
#X obj -40 -5006 s bling2_can;
#X obj -21 -4986 s iyebassdrum_can;
#X obj -2 -4966 s iyetiktak_can;
#X obj 17 -4946 s femPath_cello_can;
#X obj 34 -4926 s femPath_klik_synth_can;
#X obj 51 -4907 s pling_can;
#X obj 70 -4888 s babai_synthpling_can;
#X obj 87 -4866 s babai_heman_can;
#X obj 105 -4845 s babai_cello_can;
#X obj 122 -4825 s babai_rytme_can;
#X obj 141 -4805 s knas_can;
#X obj 159 -4785 s knit_can;
#X obj 179 -4764 s knag_can;
#X obj 197 -4745 s ghost_can;
#X obj 214 -4725 s brand_can;
#X obj 231 -4706 s legebil_can;
#X obj 200 -5074 s long_sample_0_can;
#X obj 224 -5055 s loop_level_can;
#X obj -113 -5179 route /dumpstortromme_can /bitcrush_stortromme_can
/snareP3de_can /bling1_can /bling2_can /iyebassdrum_can /iyetiktak_can
/femPath_cello_can /femPath_klik_synth_can /pling_can /babai_synthpling_can
/babai_heman_can /babai_cello_can /babai_rytme_can /knas_can /knit_can
/knag_can /ghost_can /brand_can /legebil_can /long_sample_0_can /loop_level_can
;
#X obj -557 -4727 s TV_track_shuffle_can;
#X obj -540 -4704 s TV_drone_mix_can;
#X obj -522 -4682 s TV_swap_freq_can;
#X obj -503 -4659 s TV_swap_dur_can;
#X obj -574 -4792 route //terrains_vagues_level_can /TV_track_shuffle_can
/TV_drone_mix_can /TV_swap_freq_can /TV_swap_dur_can;
#X obj -574 -4752 s /terrains_vagues_level_can;
#X connect 2 0 29 0;
#X connect 5 0 4 0;
#X connect 29 0 1 0;
#X connect 29 1 5 0;
#X connect 29 2 6 0;
#X connect 29 3 7 0;
#X connect 29 4 8 0;
#X connect 29 5 9 0;
#X connect 29 6 10 0;
#X connect 29 7 11 0;
#X connect 29 8 12 0;
#X connect 29 9 13 0;
#X connect 29 10 14 0;
#X connect 29 11 15 0;
#X connect 29 12 16 0;
#X connect 29 13 17 0;
#X connect 29 14 18 0;
#X connect 29 15 19 0;
#X connect 29 16 20 0;
#X connect 29 17 21 0;
#X connect 29 18 22 0;
#X connect 29 19 23 0;
#X connect 29 20 24 0;
#X connect 29 21 25 0;
#X connect 29 22 26 0;
#X connect 29 23 27 0;
#X connect 29 24 28 0;
#X connect 29 25 52 0;
#X connect 52 0 30 0;
#X connect 52 1 31 0;
#X connect 52 2 32 0;
#X connect 52 3 33 0;
#X connect 52 4 34 0;
#X connect 52 5 35 0;
#X connect 52 6 36 0;
#X connect 52 7 37 0;
#X connect 52 8 38 0;
#X connect 52 9 39 0;
#X connect 52 10 40 0;
#X connect 52 11 41 0;
#X connect 52 12 42 0;
#X connect 52 13 43 0;
#X connect 52 14 44 0;
#X connect 52 15 45 0;
#X connect 52 16 46 0;
#X connect 52 17 47 0;
#X connect 52 18 48 0;
#X connect 52 19 49 0;
#X connect 52 20 50 0;
#X connect 52 21 51 0;
#X connect 52 22 57 0;
#X connect 57 0 58 0;
#X connect 57 1 53 0;
#X connect 57 2 54 0;
#X connect 57 3 55 0;
#X connect 57 4 56 0;
#X restore -472 -22772 pd dumpMessages;
#X obj -841 -22647 vsl 15 32 0 1 0 0 empty density density 0 -9 0 14
-128992 -1 -24198 0 1;
#X obj -776 -22646 vsl 15 32 0 1 0 0 empty bandwidthfreq bandwidthfreq
0 -9 0 14 -128992 -1 -24198 0 1;
#X obj -656 -22648 vsl 15 32 0 1 0 0 empty decay decay 0 -9 0 14 -128992
-1 -24198 0 1;
#X obj -844 -22588 vsl 15 32 0 1 0 0 empty size size 0 -9 0 14 -128992
-1 -24198 0 1;
#X obj -775 -22586 vsl 15 32 0 1 0 0 empty gain gain 0 -9 0 14 -128992
-1 -24198 0 1;
#X obj -697 -22588 vsl 15 32 0 1 0 0 empty mix mix 0 -9 0 14 -128992
-1 -24198 0 1;
#X obj -631 -22586 vsl 15 32 0 1 0 0 empty earlymix earlymix 0 -9 0
14 -128992 -1 -24198 0 1;
#X obj -940 -22585 vsl 15 32 0 1 0 0 empty predelay predelay 0 -9 0
14 -128992 -1 -24198 0 1;
#X obj -855 -22696 cnv 15 140 25 empty message_can INIT_COMPLETED 0
12 0 18 -262144 -4034 0;
#X text -472 -22754 USB MIDI INTERFACE;
#X obj -558 -22644 vsl 15 32 0 1 0 0 empty kLDelay kLDelay 0 -9 0 14
-128992 -1 -159808 0 1;
#X obj -552 -22692 cnv 15 140 25 empty message_can INIT_COMPLETED 0
12 0 18 -262144 -159808 0;
#X obj -472 -22645 vsl 15 32 0 1 0 0 empty kLRDelayRatio kLRDelayRatio
0 -9 0 14 -128992 -1 -159808 0 1;
#X obj -269 -22645 vsl 15 32 0 1 0 0 empty kTone kTone 0 -9 0 14 -128992
-1 -159808 0 1;
#X obj -140 -22646 vsl 15 32 0 1 0 0 empty kLevel kLevel 0 -9 0 14
-128992 -1 -159808 0 1;
#X obj -203 -22647 vsl 15 32 0 1 0 0 empty kMix kMix 0 -9 0 14 -128992
-1 -159808 0 1;
#X obj -344 -22644 vsl 15 32 0 1 0 0 empty kFeedBk kFeedBk 0 -9 0 14
-128992 -1 -159808 0 1;
#X obj -263 -22742 bng 50 250 50 0 empty empty empty 17 7 0 10 -4034
-1 -1;
#X obj -263 -22759 loadbang;
#X obj -263 -22692 s init;
#X obj -941 -22527 vsl 15 32 0 1 0 0 empty dumpstortromme_can dumpstortromme
0 -9 0 14 -128992 -1 -86277 3100 1;
#X obj -822 -22526 vsl 15 32 0 1 0 0 empty bitcrush_stortromme_can
bitcrush_stortromme 0 -9 0 14 -128992 -1 -86277 0 1;
#X obj -665 -22526 vsl 15 32 0 1 0 0 empty snareP3de_can snareP3de
0 -9 0 14 -128992 -1 -86277 0 1;
#X obj -573 -22525 vsl 15 32 0 1 0 0 empty bling1_can bling1 0 -9 0
14 -128992 -1 -86277 0 1;
#X obj -458 -22524 vsl 15 32 0 1 0 0 empty bling2_can bling2 0 -9 0
14 -128992 -1 -86277 0 1;
#X obj -365 -22524 vsl 15 32 0 1 0 0 empty iyebassdrum_can iyebassdrum
0 -9 0 14 -128992 -1 -86277 0 1;
#X obj -264 -22522 vsl 15 32 0 1 0 0 empty iyetiktak_can iyetiktak
0 -9 0 14 -128992 -1 -86277 0 1;
#X obj -185 -22522 vsl 15 32 0 1 0 0 empty femPath_cello_can femPath_cello
0 -9 0 14 -128992 -1 -86277 0 1;
#X obj -942 -22467 vsl 15 32 0 1 0 0 empty femPath_klik_synth_can femPath_klik_synth
0 -9 0 14 -128992 -1 -86277 0 1;
#X obj -789 -22466 vsl 15 32 0 1 0 0 empty pling_can pling 0 -9 0 14
-128992 -1 -86277 0 1;
#X obj -693 -22466 vsl 15 32 0 1 0 0 empty babai_synthpling_can babai_synthpling
0 -9 0 14 -128992 -1 -86277 0 1;
#X obj -553 -22464 vsl 15 32 0 1 0 0 empty babai_heman_can babai_heman
0 -9 0 14 -128992 -1 -86277 0 1;
#X obj -459 -22464 vsl 15 32 0 1 0 0 empty babai_cello_can babai_cello
0 -9 0 14 -128992 -1 -86277 0 1;
#X obj -366 -22464 vsl 15 32 0 1 0 0 empty babai_rytme_can babai_rytme
0 -9 0 14 -128992 -1 -86277 0 1;
#X obj -265 -22462 vsl 15 32 0 1 0 0 empty knas_can knas 0 -9 0 14
-128992 -1 -86277 0 1;
#X obj -186 -22462 vsl 15 32 0 1 0 0 empty knit_can knit 0 -9 0 14
-128992 -1 -86277 0 1;
#X obj -142 -22461 vsl 15 32 0 1 0 0 empty knag_can knag 0 -9 0 14
-128992 -1 -86277 0 1;
#X obj -941 -22404 vsl 15 32 0 1 0 0 empty ghost_can ghost 0 -9 0 14
-128992 -1 -86277 0 1;
#X obj -862 -22404 vsl 15 32 0 1 0 0 empty brand_can brand 0 -9 0 14
-128992 -1 -86277 0 1;
#X obj -769 -22405 vsl 15 32 0 1 0 0 empty legebil_can legebil 0 -9
0 14 -128992 -1 -86277 0 1;
#X obj -666 -22403 vsl 15 32 0 1 0 0 empty long_sample_0_can long_sample_0
0 -9 0 14 -128992 -1 -86277 0 1;
#X obj -538 -22401 vsl 15 32 0 1 0 0 empty loop_level_can loop_level
0 -9 0 14 -128992 -1 -86277 0 1;
#X obj -866 -22332 vsl 15 32 0 1 0 0 empty TV_track_shuffle_can TV_track_shuffle
0 -9 0 14 -128992 -1 -208973 3100 1;
#X obj -938 -22330 vsl 15 32 0 1 0 0 empty terrains_vagues_level_can
TV_vol 0 -9 0 14 -262144 -1 -208973 0 1;
#X obj -725 -22332 vsl 15 32 0 1 0 0 empty TV_drone_mix_can TV_drone_mix
0 -9 0 14 -128992 -1 -208973 0 1;
#X obj -619 -22329 vsl 15 32 0 1 0 0 empty TV_drone_size_can TV_drone_size
0 -9 0 14 -128992 -1 -208973 0 1;
#X obj -510 -22329 vsl 15 32 0 1 0 0 empty TV_swap_freq_can TV_swap_freq
0 -9 0 14 -128992 -1 -208973 0 1;
#X obj -406 -22329 vsl 15 32 0 1 0 0 empty TV_swap_dur_can TV_swap_dur
0 -9 0 14 -128992 -1 -208973 0 1;
#X connect 1 0 2 0;
#X connect 1 1 3 0;
#X connect 1 2 4 0;
#X connect 7 0 6 0;
#X connect 8 0 6 1;
#X connect 9 0 7 0;
#X connect 12 0 13 0;
#X connect 17 0 20 0;
#X connect 17 0 21 0;
#X connect 20 0 16 0;
#X connect 21 0 15 0;
#X connect 42 0 44 0;
#X connect 43 0 42 0;
