#N canvas 432 0 1115 1022 10;
#X msg -963 -29 disconnect;
#X obj -1022 -77 bng 50 250 50 0 empty empty empty 0 -6 0 8 -24198
-1 -1;
#X obj -956 -78 bng 50 250 50 0 empty empty empty 0 -6 0 8 -258699
-1 -1;
#X text -1028 -98 OPEN UDP CONNECTION;
#X obj -1045 -27 send reset;
#X obj -233 -160 ctlin;
#X floatatom -280 -120 5 0 0 0 - - -;
#X floatatom -228 -115 5 0 0 0 - - -;
#X floatatom -189 -125 5 0 0 0 - - -;
#X obj -992 -417 bng 15 250 50 0 empty empty empty 0 -6 0 8 -262144
-1 -1;
#X obj -972 -374 vsl 15 128 0 1 0 0 0 empty empty 0 -8 0 8 -260097
-1 -1 12700 1;
#X obj -957 -374 vsl 15 128 0 1 0 0 0 empty empty 0 -8 0 8 -260097
-1 -1 12700 1;
#X obj -965 -420 r reset;
#X obj -894 -349 / 127;
#X obj -894 -306 / 127;
#X obj -1105 -422 bng 15 250 50 0 empty empty empty 0 -6 0 8 -262144
-1 -1;
#X obj -1100 -375 vsl 15 128 0 1 0 0 0 empty empty 0 -8 0 8 -258113
-1 -1 12700 1;
#X obj -1085 -424 r reset;
#X obj -373 86 bng 15 250 50 0 empty empty empty 0 -6 0 8 -262144 -1
-1;
#X obj -340 129 vsl 15 128 0 1 0 0 0 empty empty 0 -8 0 8 -257985 -1
-1 5080 1;
#X obj -323 130 vsl 15 128 0 1 0 0 0 empty empty 0 -8 0 8 -257985 -1
-1 8890 1;
#X obj -308 129 vsl 15 128 0 1 0 0 0 empty empty 0 -8 0 8 -257985 -1
-1 3810 1;
#X obj -270 265 bng 15 250 50 0 empty empty empty 0 -6 0 8 -262144
-1 -1;
#X obj -352 83 r reset;
#X msg -374 106 0.3;
#X msg -345 106 0.02;
#X msg -311 107 0.3;
#X obj -263 121 / 127;
#X obj -268 161 / 127;
#X obj -267 207 / 127;
#X obj -260 101 ctlin 10 3;
#X obj -268 145 ctlin 12 3;
#X obj -267 184 ctlin 13 3;
#X obj -147 168 bng 15 250 50 0 empty empty empty 0 -6 0 8 -262144
-1 -1;
#X obj -118 209 vsl 15 128 0 1 0 0 0 empty empty 0 -8 0 8 -4034 -1
-1 3810 1;
#X obj -103 209 vsl 15 128 0 1 0 0 0 empty empty 0 -8 0 8 -4034 -1
-1 254 1;
#X obj -89 209 vsl 15 128 0 1 0 0 0 empty empty 0 -8 0 8 -4034 -1 -1
3810 1;
#X obj -33 342 bng 15 250 50 0 empty empty empty 0 -6 0 8 -262144 -1
-1;
#X obj -127 167 r reset;
#X msg -149 187 0.3;
#X msg -124 188 0.02;
#X msg -92 187 0.3;
#X obj -48 207 / 127;
#X obj -53 251 / 127;
#X obj -56 286 / 127;
#X obj -48 186 ctlin 10 4;
#X obj -55 230 ctlin 12 4;
#X obj -56 266 ctlin 13 4;
#X obj -113 -89 bng 15 250 50 0 empty empty empty 0 -6 0 8 -262144
-1 -1;
#X obj -113 -32 vsl 15 128 0 1 0 0 0 empty empty 0 -8 0 8 -159808 -1
-1 3810 1;
#X obj -98 -31 vsl 15 128 0 1 0 0 0 empty empty 0 -8 0 8 -162280 -1
-1 254 1;
#X obj -83 -32 vsl 15 128 0 1 0 0 0 empty empty 0 -8 0 8 -262144 -1
-1 3810 1;
#X obj -63 78 bng 15 250 50 0 empty empty empty 0 -6 0 8 -262144 -1
-1;
#X obj -115 108 pack f f f;
#X obj -113 -106 r reset;
#X msg -110 -67 0.3;
#X msg -92 -74 0.02;
#X msg 3 -98 0.3;
#X obj -168 -73 / 127;
#X obj -97 -124 / 127;
#X obj -62 -112 / 127;
#X obj -168 -98 ctlin 7 7;
#X obj -97 -140 ctlin 7 8;
#X obj -84 -91 ctlin 28 1;
#X obj -942 -374 vsl 15 128 0 1 0 0 0 empty empty 0 -8 0 8 -260097
-1 -1 12700 1;
#X obj -271 246 / 127;
#X obj -292 129 vsl 15 128 0 1 0 0 0 empty empty 0 -8 0 8 -257985 -1
-1 8890 1;
#X obj -352 265 pack f f f f;
#X obj -270 225 ctlin 7 3;
#X obj -74 209 vsl 15 128 0 1 0 0 0 empty empty 0 -8 0 8 -4034 -1 -1
3810 1;
#X obj -52 323 / 127;
#X obj -118 343 pack f f f f;
#X obj -55 303 ctlin 7 4;
#X msg -1006 -395 0;
#X obj -1090 -71 loadbang;
#X text -1094 -447 DELAY;
#X text -959 -438 ROOM;
#X obj -893 -260 / 127;
#X obj -859 -50 bng 15 250 50 0 empty empty empty 17 7 0 10 -232576
-1 -1;
#X obj -859 -78 ctlin 19 1;
#X obj -592 -48 bng 15 250 50 0 empty empty empty 17 7 0 10 -232576
-1 -1;
#X msg -859 -25 send /PDmatches_on;
#X msg -595 -23 send /PDdinostep_on;
#X obj -595 -75 ctlin 21 1;
#X text -857 -96 matches on;
#X obj -721 -43 bng 15 250 50 0 empty empty empty 17 7 0 10 -232576
-1 -1;
#X obj -724 -70 ctlin 20 1;
#X text -725 -84 Weav on;
#X obj -856 426 bng 15 250 50 0 empty empty empty 17 7 0 10 -232576
-1 -1;
#X obj -692 429 bng 15 250 50 0 empty empty empty 17 7 0 10 -232576
-1 -1;
#X text -853 379 delay;
#X text -818 378 room;
#X text -851 368 alvanoto;
#X obj -859 104 bng 15 250 50 0 empty empty empty 17 7 0 10 -232576
-1 -1;
#X obj -859 399 ctlin 14 1;
#X obj -724 105 bng 15 250 50 0 empty empty empty 17 7 0 10 -232576
-1 -1;
#X obj -569 105 bng 15 250 50 0 empty empty empty 17 7 0 10 -232576
-1 -1;
#X obj -867 289 bng 15 250 50 0 empty empty empty 17 7 0 10 -232576
-1 -1;
#X obj -720 287 bng 15 250 50 0 empty empty empty 17 7 0 10 -232576
-1 -1;
#X text -719 49 Backtrack 2;
#X text -861 245 Backtrack 4;
#X text -731 243 Backtrack 5;
#X obj -862 77 ctlin 22 1;
#X obj -727 78 ctlin 23 1;
#X obj -572 78 ctlin 24 1;
#X obj -867 264 ctlin 25 1;
#X obj -723 260 ctlin 26 1;
#X msg -870 314 send /PDbt4_on;
#X msg -723 312 send /PDbt5_on;
#X msg -724 -18 send /PDweav_on;
#X msg -859 451 send /PDdelayroom_on;
#X obj -693 399 ctlin 15 1;
#X msg -284 107 0;
#X text -594 -94 Dinosteps on;
#X obj -571 296 bng 15 250 50 0 empty empty empty 17 7 0 10 -232576
-1 -1;
#X obj -574 269 ctlin 27 1;
#X msg -68 188 0.3;
#X msg -572 130 send /PDbt2_on;
#X msg -693 452 send /testUDP_fromPD;
#X text -574 247 NINE backtrack;
#X text -854 48 d-cONT backtrack;
#X text -564 49 CityWalk backtrack;
#X msg -574 321 send /;
#X msg -697 130 send /PDnine;
#X obj -382 338 key;
#X floatatom -352 338 5 0 0 0 - - -;
#X obj -293 345 select 97;
#X msg -388 147 0.7;
#X msg -379 202 0.7;
#X msg -379 237 0.4;
#X text -380 322 a alva noto on;
#X obj -285 337 key;
#X floatatom -255 337 5 0 0 0 - - -;
#X obj -196 344 select 111;
#X msg -385 298 0;
#X text -283 321 o alva noto off;
#X text -127 145 RYTME 1;
#X obj -574 -401 bng 15 250 50 0 empty empty empty 0 -6 0 8 -262144
-1 -1;
#X obj -545 -360 vsl 15 128 0 1 0 0 0 empty empty 0 -8 0 8 -4034 -1
-1 3810 1;
#X obj -530 -360 vsl 15 128 0 1 0 0 0 empty empty 0 -8 0 8 -4034 -1
-1 254 1;
#X obj -516 -360 vsl 15 128 0 1 0 0 0 empty empty 0 -8 0 8 -4034 -1
-1 3810 1;
#X obj -460 -227 bng 15 250 50 0 empty empty empty 0 -6 0 8 -262144
-1 -1;
#X obj -554 -402 r reset;
#X msg -576 -382 0.3;
#X msg -551 -381 0.02;
#X msg -519 -382 0.3;
#X obj -463 -366 / 127;
#X obj -475 -319 / 127;
#X obj -483 -283 / 127;
#X obj -501 -360 vsl 15 128 0 1 0 0 0 empty empty 0 -8 0 8 -4034 -1
-1 3810 1;
#X obj -479 -246 / 127;
#X obj -545 -226 pack f f f f;
#X msg -495 -381 0.3;
#X text -554 -424 RYTME 2;
#X obj -439 -405 ctlin 10 5;
#X obj -482 -339 ctlin 12 5;
#X obj -483 -303 ctlin 13 5;
#X obj -482 -266 ctlin 7 5;
#X obj -326 -405 bng 15 250 50 0 empty empty empty 0 -6 0 8 -262144
-1 -1;
#X obj -297 -364 vsl 15 128 0 1 0 0 0 empty empty 0 -8 0 8 -4034 -1
-1 3810 1;
#X obj -282 -364 vsl 15 128 0 1 0 0 0 empty empty 0 -8 0 8 -4034 -1
-1 254 1;
#X obj -268 -364 vsl 15 128 0 1 0 0 0 empty empty 0 -8 0 8 -4034 -1
-1 3810 1;
#X obj -212 -231 bng 15 250 50 0 empty empty empty 0 -6 0 8 -262144
-1 -1;
#X obj -306 -406 r reset;
#X msg -328 -386 0.3;
#X msg -303 -385 0.02;
#X msg -271 -386 0.3;
#X obj -215 -370 / 127;
#X obj -227 -323 / 127;
#X obj -235 -287 / 127;
#X obj -253 -364 vsl 15 128 0 1 0 0 0 empty empty 0 -8 0 8 -4034 -1
-1 3810 1;
#X obj -231 -250 / 127;
#X obj -297 -230 pack f f f f;
#X msg -247 -385 0.3;
#X obj -103 -410 bng 15 250 50 0 empty empty empty 0 -6 0 8 -262144
-1 -1;
#X obj -74 -369 vsl 15 128 0 1 0 0 0 empty empty 0 -8 0 8 -4034 -1
-1 3810 1;
#X obj -59 -369 vsl 15 128 0 1 0 0 0 empty empty 0 -8 0 8 -4034 -1
-1 254 1;
#X obj -45 -369 vsl 15 128 0 1 0 0 0 empty empty 0 -8 0 8 -4034 -1
-1 3810 1;
#X obj -135 -178 bng 15 250 50 0 empty empty empty 0 -6 0 8 -262144
-1 -1;
#X obj -83 -411 r reset;
#X msg -105 -391 0.3;
#X msg -80 -390 0.02;
#X msg -48 -391 0.3;
#X obj 8 -375 / 127;
#X obj -4 -328 / 127;
#X obj -12 -292 / 127;
#X obj -30 -369 vsl 15 128 0 1 0 0 0 empty empty 0 -8 0 8 -4034 -1
-1 3810 1;
#X obj -8 -255 / 127;
#X obj -56 -214 pack f f f f;
#X msg -24 -390 0.3;
#X text -306 -428 RYTME 3;
#X text -83 -433 RYTME 4;
#X obj -234 -270 ctlin 7 6;
#X obj -235 -307 ctlin 13 6;
#X obj -234 -343 ctlin 12 6;
#X obj -191 -409 ctlin 10 6;
#X obj 32 -414 ctlin 10 7;
#X obj -11 -348 ctlin 12 7;
#X obj -12 -312 ctlin 13 7;
#X obj -11 -275 ctlin 7 7;
#X msg -156 124 send /tordenvol \$1 \$2 \$3;
#X floatatom 6 341 5 0 0 0 - - -;
#X msg -549 -207 send /Darkearth_on \$1 \$2 \$3 \$4;
#X msg -122 361 send /Fallingman_on \$1 \$2 \$3 \$4;
#X msg -311 -209 send /Quiet1_on \$1 \$2 \$3 \$4;
#X msg -56 -196 send /Quiet2_on \$1 \$2 \$3 \$4;
#X text -1067 -315 volume;
#X text -353 64 In Your Eyes;
#X msg -350 283 send /PDEyes \$1 \$2 \$3 \$4;
#N canvas 519 262 450 409 clock 0;
#X obj 177 210 / 60;
#X obj 177 238 int;
#X obj 264 286 -;
#X obj 279 254 * 60;
#X obj 177 111 timer;
#X obj 177 135 / 1000;
#X obj 204 84 metro 1000;
#X obj 177 69 bng 15 250 50 0 empty empty empty 17 7 0 10 -262144 -1
-1;
#X obj 177 167 int;
#X obj 177 44 inlet;
#X text 175 21 launch msg reception;
#X text 202 67 start of the elapsed time count;
#X text 184 348 DISPLAY IN LIVE SCORE;
#X text 184 336 MN/SEC ELAPSED TIME;
#X floatatom 280 204 5 0 0 0 - - -;
#X obj 33 263 makefilename %d;
#X msg 33 280 \; mn_can label \$1;
#X obj 314 285 makefilename %d;
#X msg 314 303 \; sec_can label \$1;
#X obj 81 102 r startclock;
#X connect 0 0 1 0;
#X connect 1 0 3 0;
#X connect 1 0 15 0;
#X connect 2 0 17 0;
#X connect 3 0 2 1;
#X connect 4 0 5 0;
#X connect 5 0 8 0;
#X connect 6 0 4 1;
#X connect 7 0 4 0;
#X connect 7 0 6 0;
#X connect 8 0 0 0;
#X connect 8 0 2 0;
#X connect 8 0 14 0;
#X connect 9 0 7 0;
#X connect 15 0 16 0;
#X connect 17 0 18 0;
#X connect 19 0 7 0;
#X restore -157 -55 pd clock;
#X obj -432 -80 cnv 15 120 120 empty mn_can 0 0 50 1 96 -241291 -33289
0;
#X obj -305 -79 cnv 15 120 120 empty sec_can 45 0 50 1 96 -4034 -33289
0;
#X obj -680 217 s startclock;
#X msg -1103 -400 0;
#X obj -1100 -240 pack f;
#X obj -1070 -335 / 127;
#X obj -1070 -351 ctlin 12 1;
#X obj -962 -221 pack f;
#X obj -896 -373 ctlin 12 2;
#X obj -897 -223 pack f;
#X obj -843 -224 pack f;
#X msg -939 -177 send /decay \$1;
#X msg -900 -153 send /earlymix \$1;
#X msg -974 -396 0;
#X msg -927 -395 0;
#N canvas 345 154 628 451 connect 0;
#X obj 137 12 inlet;
#X obj 69 197 print;
#X obj 152 71 receive reset;
#X msg 152 96 connect 127.0.0.1 57120;
#X text 108 50 messages for the SC OSC server;
#X floatatom 151 232 5 0 0 0 - - -;
#X obj 39 143 receive oscOut;
#X obj 151 208 sendOSC;
#X obj -194 201 print;
#X obj -111 75 receive reset;
#X text -155 54 messages for the SC OSC server;
#X floatatom -112 236 5 0 0 0 - - -;
#X obj -224 147 receive porphyrographOut;
#X obj -151 82 bng 15 250 50 0 empty empty empty 17 7 0 10 -262144
-1 -1;
#X msg -111 99 connect 127.0.0.1 1978;
#X obj -112 212 netsend 1;
#X obj -89 326 netreceive 1979 1;
#X connect 0 0 7 0;
#X connect 0 0 15 0;
#X connect 2 0 3 0;
#X connect 3 0 7 0;
#X connect 6 0 1 0;
#X connect 6 0 7 0;
#X connect 7 0 5 0;
#X connect 9 0 14 0;
#X connect 12 0 8 0;
#X connect 12 0 15 0;
#X connect 13 0 14 0;
#X connect 14 0 15 0;
#X connect 15 0 11 0;
#X restore -963 1 pd connect;
#X obj -895 -324 ctlin 10 2;
#X obj -894 -279 ctlin 7 2;
#X text -179 237 SC VOLUME;
#X obj -1096 270 vsl 15 32 0 6 0 0 empty empty empty 0 -8 0 8 -262144
-1 -1 3100 1;
#X floatatom -1015 283 5 0 0 0 - - -;
#X obj -1056 261 / 127;
#X obj -1055 241 ctlin 7 3;
#X text -1103 217 track shuffle;
#X msg -1095 309 send /TV_track_shuffle \$1;
#X obj -963 -129 send porphyrographOut;
#X obj -1100 -198 send porphyrographOut;
#X obj -1095 342 send porphyrographOut;
#X obj -1099 232 r reset;
#X msg -821 146 send /launch;
#X obj -859 2 send porphyrographOut;
#X obj -724 13 send porphyrographOut;
#X obj -594 8 send porphyrographOut;
#X obj -862 215 send porphyrographOut;
#X obj -697 152 send porphyrographOut;
#X obj -572 161 send porphyrographOut;
#X obj -574 352 send porphyrographOut;
#X obj -723 343 send porphyrographOut;
#X obj -870 345 send porphyrographOut;
#X obj -859 482 send porphyrographOut;
#X obj -693 482 send porphyrographOut;
#X obj -115 143 send porphyrographOut;
#X obj -55 -177 send porphyrographOut;
#X obj -309 -190 send porphyrographOut;
#X obj -549 -190 send porphyrographOut;
#X obj -118 386 send porphyrographOut;
#N canvas 38 49 1076 699 allSequencesAndEffects 0;
#X obj 794 -442 ctlin;
#X floatatom 767 -416 5 0 0 0 - - -;
#X floatatom 807 -416 5 0 0 0 - - -;
#X floatatom 846 -416 5 0 0 0 - - -;
#X obj 28 -593 vsl 15 32 0 1 0 0 empty empty empty 0 -8 0 8 -262144
-1 -1 0 1;
#X msg 28 -611 0;
#X floatatom 68 -576 5 0 0 0 - - -;
#X obj 69 -599 / 127;
#X obj 150 -595 vsl 15 32 0 1 0 0 empty empty empty 0 -8 0 8 -262144
-1 -1 1550 1;
#X floatatom 190 -578 5 0 0 0 - - -;
#X obj 191 -601 / 127;
#X obj 263 -597 vsl 15 32 0 1 0 0 empty empty empty 0 -8 0 8 -262144
-1 -1 3100 1;
#X floatatom 303 -580 5 0 0 0 - - -;
#X obj 304 -603 / 127;
#X obj 369 -598 vsl 15 32 0 1 0 0 empty empty empty 0 -8 0 8 -262144
-1 -1 1550 1;
#X floatatom 409 -581 5 0 0 0 - - -;
#X obj 410 -604 / 127;
#X obj 494 -599 vsl 15 32 0 1 0 0 empty empty empty 0 -8 0 8 -262144
-1 -1 0 1;
#X msg 494 -617 0;
#X floatatom 534 -582 5 0 0 0 - - -;
#X obj 535 -605 / 127;
#X obj 611 -596 vsl 15 32 0 1 0 0 empty empty empty 0 -8 0 8 -262144
-1 -1 1550 1;
#X floatatom 651 -579 5 0 0 0 - - -;
#X obj 652 -602 / 127;
#X obj 723 -601 vsl 15 32 0 1 0 0 empty empty empty 0 -8 0 8 -262144
-1 -1 3100 1;
#X floatatom 763 -584 5 0 0 0 - - -;
#X obj 764 -607 / 127;
#X obj 824 -602 vsl 15 32 0 1 0 0 empty empty empty 0 -8 0 8 -262144
-1 -1 465 1;
#X floatatom 864 -585 5 0 0 0 - - -;
#X obj 865 -608 / 127;
#X obj 886 -464 vsl 15 32 0 1 0 0 empty empty empty 0 -8 0 8 -262144
-1 -1 2325 1;
#X floatatom 926 -447 5 0 0 0 - - -;
#X obj 927 -470 / 127;
#X text 19 -645 REVERB: dampingfreq;
#X msg 28 -558 send /dampingfreq \$1;
#X text 141 -647 REVERB: density;
#X msg 150 -560 send /density \$1;
#X text 245 -649 REVERB: bandwidthfreq;
#X msg 263 -562 send /bandwidthfreq \$1;
#X msg 369 -563 send /decay \$1;
#X msg 494 -564 send /predelay \$1;
#X msg 611 -561 send /size \$1;
#X msg 723 -566 send /gain \$1;
#X msg 824 -567 send /mix \$1;
#X msg 886 -429 send /earlymix \$1;
#X text 485 -651 REVERB: predelay;
#X text 389 -650 REVERB: decay;
#X text 602 -648 REVERB: size;
#X text 714 -653 REVERB: gain;
#X text 816 -654 REVERB: mix;
#X text 878 -516 REVERB: earlymix;
#X msg 150 -613 0.5;
#X msg 263 -615 1;
#X msg 369 -616 0.5;
#X msg 611 -614 0.5;
#X msg 723 -619 1;
#X msg 824 -620 0.15;
#X msg 886 -482 0.75;
#X obj 31 -460 vsl 15 32 0 1 0 0 empty empty empty 0 -8 0 8 -262144
-1 -1 1550 1;
#X floatatom 77 -442 5 0 0 0 - - -;
#X obj 74 -464 / 127;
#X obj 153 -461 vsl 15 32 0 1 0 0 empty empty empty 0 -8 0 8 -262144
-1 -1 837 1;
#X floatatom 199 -444 5 0 0 0 - - -;
#X obj 196 -466 / 127;
#X obj 310 -460 vsl 15 32 0 1 0 0 empty empty empty 0 -8 0 8 -262144
-1 -1 2170 1;
#X floatatom 356 -443 5 0 0 0 - - -;
#X obj 353 -465 / 127;
#X obj 416 -461 vsl 15 32 0 1 0 0 empty empty empty 0 -8 0 8 -262144
-1 -1 1550 1;
#X floatatom 462 -444 5 0 0 0 - - -;
#X obj 459 -466 / 127;
#X obj 647 -461 vsl 15 32 0 1 0 0 empty empty empty 0 -8 0 8 -262144
-1 -1 1550 1;
#X floatatom 693 -444 5 0 0 0 - - -;
#X obj 690 -466 / 127;
#X obj 538 -460 vsl 15 32 0 1 0 0 empty empty empty 0 -8 0 8 -262144
-1 -1 1023 1;
#X floatatom 584 -443 5 0 0 0 - - -;
#X obj 581 -465 / 127;
#X msg 416 -480 0.5;
#X text 641 -519 ECHO: kLevel;
#X msg 646 -426 send /kLevel \$1;
#X text 532 -518 ECHO: kMix;
#X msg 537 -425 send /kMix \$1;
#X msg 647 -480 0.5;
#X text 25 -517 ECHO: kLDelay;
#X msg 30 -424 send /kLDelay \$1;
#X text 147 -519 ECHO: kLRDelayRatio;
#X msg 152 -426 send /kLRDelayRatio \$1;
#X text 295 -518 ECHO: kFeedBk;
#X msg 309 -425 send /kFeedBk \$1;
#X text 419 -520 ECHO: kTone;
#X msg 415 -426 send /kTone \$1;
#X msg 31 -478 0.5;
#X msg 153 -480 0.27;
#X msg 310 -479 0.7;
#X msg 538 -479 0.33;
#X obj 27 -627 r init;
#X obj 149 -628 r init;
#X obj 262 -631 r init;
#X obj 368 -633 r init;
#X obj 494 -633 r init;
#X obj 610 -630 r init;
#X obj 722 -635 r init;
#X obj 823 -636 r init;
#X obj 885 -498 r init;
#X obj 33 -494 r init;
#X obj 155 -496 r init;
#X obj 312 -495 r init;
#X obj 418 -496 r init;
#X obj 542 -495 r init;
#X obj 649 -496 r init;
#X obj 23 -328 vsl 15 32 0 1 0 0 empty empty empty 0 -8 0 8 -262144
-1 -1 0 1;
#X floatatom 66 -309 5 0 0 0 - - -;
#X obj 68 -328 / 127;
#X obj 23 -361 r init;
#X msg 23 -346 0;
#X msg 24 -292 send /dumpstortromme_level \$1;
#X obj 39 -179 vsl 15 32 0 1 0 0 empty empty empty 0 -8 0 8 -262144
-1 -1 0 1;
#X floatatom 78 -167 5 0 0 0 - - -;
#X obj 79 -188 / 127;
#X obj 38 -217 r init;
#X msg 39 -197 0;
#X obj 80 -208 ctlin 7 1;
#X obj 133 -327 vsl 15 32 0 1 0 0 empty empty empty 0 -8 0 8 -262144
-1 -1 0 1;
#X floatatom 176 -308 5 0 0 0 - - -;
#X obj 179 -328 / 127;
#X obj 133 -360 r init;
#X msg 133 -345 0;
#X obj 244 -331 vsl 15 32 0 1 0 0 empty empty empty 0 -8 0 8 -262144
-1 -1 0 1;
#X floatatom 287 -312 5 0 0 0 - - -;
#X obj 290 -332 / 127;
#X obj 244 -364 r init;
#X msg 244 -349 0;
#X obj 361 -333 vsl 15 32 0 1 0 0 empty empty empty 0 -8 0 8 -262144
-1 -1 0 1;
#X floatatom 391 -311 5 0 0 0 - - -;
#X obj 394 -331 / 127;
#X obj 361 -366 r init;
#X msg 361 -351 0;
#X obj 463 -331 vsl 15 32 0 1 0 0 empty empty empty 0 -8 0 8 -262144
-1 -1 0 1;
#X floatatom 494 -311 5 0 0 0 - - -;
#X obj 497 -331 / 127;
#X obj 463 -364 r init;
#X msg 463 -349 0;
#X obj 565 -331 vsl 15 32 0 1 0 0 empty empty empty 0 -8 0 8 -262144
-1 -1 0 1;
#X floatatom 593 -312 5 0 0 0 - - -;
#X obj 596 -332 / 127;
#X obj 565 -364 r init;
#X msg 565 -349 0;
#X obj 662 -329 vsl 15 32 0 1 0 0 empty empty empty 0 -8 0 8 -262144
-1 -1 0 1;
#X floatatom 683 -309 5 0 0 0 - - -;
#X obj 686 -329 / 127;
#X obj 662 -362 r init;
#X msg 662 -347 0;
#X obj 760 -328 vsl 15 32 0 1 0 0 empty empty empty 0 -8 0 8 -262144
-1 -1 0 1;
#X floatatom 803 -309 5 0 0 0 - - -;
#X obj 806 -329 / 127;
#X obj 760 -361 r init;
#X msg 760 -346 0;
#X obj 142 -179 vsl 15 32 0 1 0 0 empty empty empty 0 -8 0 8 -262144
-1 -1 0 1;
#X floatatom 181 -167 5 0 0 0 - - -;
#X obj 182 -188 / 127;
#X obj 141 -217 r init;
#X msg 142 -197 0;
#X obj 246 -177 vsl 15 32 0 1 0 0 empty empty empty 0 -8 0 8 -262144
-1 -1 0 1;
#X floatatom 285 -165 5 0 0 0 - - -;
#X obj 286 -186 / 127;
#X obj 245 -215 r init;
#X msg 246 -195 0;
#X obj 358 -180 vsl 15 32 0 1 0 0 empty empty empty 0 -8 0 8 -262144
-1 -1 0 1;
#X floatatom 397 -168 5 0 0 0 - - -;
#X obj 398 -189 / 127;
#X obj 357 -218 r init;
#X msg 358 -198 0;
#X obj 473 -178 vsl 15 32 0 1 0 0 empty empty empty 0 -8 0 8 -262144
-1 -1 0 1;
#X floatatom 512 -166 5 0 0 0 - - -;
#X obj 513 -187 / 127;
#X obj 472 -216 r init;
#X msg 473 -196 0;
#X obj 576 -179 vsl 15 32 0 1 0 0 empty empty empty 0 -8 0 8 -262144
-1 -1 0 1;
#X floatatom 615 -167 5 0 0 0 - - -;
#X obj 616 -188 / 127;
#X obj 575 -217 r init;
#X msg 576 -197 0;
#X obj 687 -177 vsl 15 32 0 1 0 0 empty empty empty 0 -8 0 8 -262144
-1 -1 0 1;
#X floatatom 726 -165 5 0 0 0 - - -;
#X obj 727 -186 / 127;
#X obj 686 -215 r init;
#X msg 687 -195 0;
#X obj 788 -174 vsl 15 32 0 1 0 0 empty empty empty 0 -8 0 8 -262144
-1 -1 0 1;
#X floatatom 827 -162 5 0 0 0 - - -;
#X obj 828 -183 / 127;
#X obj 787 -212 r init;
#X msg 788 -192 0;
#X obj 899 -175 vsl 15 32 0 1 0 0 empty empty empty 0 -8 0 8 -262144
-1 -1 0 1;
#X floatatom 938 -163 5 0 0 0 - - -;
#X obj 939 -184 / 127;
#X obj 898 -213 r init;
#X msg 899 -193 0;
#X obj 183 -208 ctlin 7 2;
#X obj 287 -206 ctlin 7 3;
#X obj 402 -211 ctlin 7 4;
#X obj 514 -207 ctlin 7 5;
#X obj 617 -208 ctlin 7 6;
#X obj 728 -206 ctlin 7 7;
#X obj 829 -203 ctlin 7 8;
#X obj 940 -204 ctlin 28 1;
#X text 126 -378 bitcrush_stortromme;
#X msg 134 -275 send /bitcrush_stortromme_level \$1;
#X text 248 -383 snareP3de;
#X msg 245 -295 send /snareP3de_level \$1;
#X text 361 -380 bling1;
#X msg 362 -277 send /bling1_level \$1;
#X text 462 -380 bling2;
#X msg 464 -295 send /bling2_level \$1;
#X text 557 -379 iyebassdrum;
#X msg 567 -278 send /iyebassdrum_level \$1;
#X text 664 -380 iyetiktak;
#X msg 663 -293 send /iyetiktak_level \$1;
#X text 751 -378 femPath_cello;
#X msg 762 -275 send /femPath_cello_level \$1;
#X text 19 -232 femPath_klik_synth;
#X msg 39 -142 send /femPath_klik_synth_level \$1;
#X text 149 -231 pling;
#X msg 143 -125 send /pling_level \$1;
#X text 236 -229 babai_synthpling;
#X text 15 -380 dumpstortromme;
#X text 348 -232 babai_heman;
#X msg 359 -121 send /babai_heman_level \$1;
#X text 463 -230 babai_cello;
#X msg 473 -141 send /babai_cello_level \$1;
#X text 566 -231 babai_rytme;
#X msg 577 -123 send /babai_rytme_level \$1;
#X text 677 -229 knas;
#X msg 687 -140 send /knas_level \$1;
#X text 778 -226 knit;
#X msg 789 -121 send /knit_level \$1;
#X text 889 -227 knag;
#X msg 899 -138 send /knag_level \$1;
#X obj 70 -619 ctlin 13 1;
#X obj 193 -621 ctlin 13 2;
#X obj 305 -623 ctlin 13 3;
#X obj 411 -624 ctlin 13 4;
#X obj 536 -625 ctlin 13 5;
#X obj 653 -622 ctlin 13 6;
#X obj 765 -627 ctlin 13 7;
#X obj 866 -628 ctlin 13 8;
#X obj 75 -484 ctlin 12 1;
#X obj 197 -486 ctlin 12 2;
#X obj 354 -485 ctlin 12 3;
#X obj 460 -486 ctlin 12 4;
#X obj 582 -485 ctlin 12 6;
#X obj 691 -486 ctlin 12 5;
#X obj 928 -490 ctlin 12 6;
#X obj 70 -349 ctlin 10 1;
#X obj 180 -348 ctlin 10 2;
#X obj 291 -352 ctlin 10 3;
#X obj 395 -351 ctlin 10 4;
#X obj 498 -351 ctlin 10 5;
#X obj 597 -352 ctlin 10 6;
#X obj 687 -349 ctlin 10 7;
#X obj 807 -349 ctlin 10 8;
#X obj 39 -25 vsl 15 32 0 1 0 0 empty empty empty 0 -8 0 8 -262144
-1 -1 0 1;
#X floatatom 78 -13 5 0 0 0 - - -;
#X obj 79 -34 / 127;
#X obj 38 -63 r init;
#X msg 39 -43 0;
#X obj 80 -54 ctlin 7 1;
#X obj 142 -25 vsl 15 32 0 1 0 0 empty empty empty 0 -8 0 8 -262144
-1 -1 0 1;
#X floatatom 181 -13 5 0 0 0 - - -;
#X obj 182 -34 / 127;
#X obj 141 -63 r init;
#X msg 142 -43 0;
#X obj 246 -23 vsl 15 32 0 1 0 0 empty empty empty 0 -8 0 8 -262144
-1 -1 0 1;
#X floatatom 285 -11 5 0 0 0 - - -;
#X obj 286 -32 / 127;
#X obj 245 -61 r init;
#X msg 246 -41 0;
#X obj 183 -54 ctlin 7 2;
#X obj 287 -52 ctlin 7 3;
#X text 33 -80 ghost;
#X msg 39 12 send /ghost_level \$1;
#X msg 143 29 send /brand_level \$1;
#X text 163 -79 brand;
#X text 250 -77 legebil;
#X obj 404 -24 vsl 15 32 0 1 0 0 empty empty empty 0 -8 0 8 -262144
-1 -1 0 1;
#X floatatom 443 -12 5 0 0 0 - - -;
#X obj 444 -33 / 127;
#X obj 403 -62 r init;
#X msg 404 -42 0;
#X obj 445 -53 ctlin 7 3;
#X text 408 -78 backtrack 0;
#X msg 246 -140 send /babai_synthpling_level \$1;
#X msg 246 14 send /legebil_level \$1;
#X msg 404 13 send /long_sample_0_level \$1;
#X obj 599 -24 vsl 15 32 0 1 0 0 empty empty empty 0 -8 0 8 -262144
-1 -1 0 1;
#X floatatom 638 -12 5 0 0 0 - - -;
#X obj 639 -33 / 127;
#X obj 598 -62 r init;
#X msg 599 -42 0;
#X obj 640 -53 ctlin 7 3;
#X msg 599 13 send /loop_level \$1;
#X obj 344 142 vsl 15 32 0 1 0 0 empty empty empty 0 -8 0 8 -262144
-1 -1 0 1;
#X floatatom 425 155 5 0 0 0 - - -;
#X obj 384 133 / 127;
#X obj 343 104 r init;
#X msg 344 124 0;
#X obj 385 113 ctlin 7 3;
#X text 36 68 ONLY FOR TERRAINS VAGUES;
#X text 594 -76 level of feedback;
#X text 593 -87 loop on input;
#X text 337 89 track shuffle;
#X obj 43 137 vsl 15 64 0 1 0 0 empty empty empty 0 -8 0 8 -262144
-1 -1 0 1;
#X floatatom 139 164 5 0 0 0 - - -;
#X obj 138 143 / 127;
#X obj 42 95 r init;
#X msg 43 115 0;
#X obj 139 123 ctlin 7 3;
#X msg 345 181 send /TV_track_shuffle \$1;
#X obj 509 142 vsl 15 32 0 1 0 0 empty empty empty 0 -8 0 8 -262144
-1 -1 0 1;
#X floatatom 548 154 5 0 0 0 - - -;
#X obj 549 133 / 127;
#X obj 508 104 r init;
#X msg 509 124 0;
#X obj 550 113 ctlin 7 3;
#X text 502 89 drone/sample mix;
#X msg 509 179 send /TV_drone_mix \$1;
#X obj 784 125 vsl 15 50 0 1 0 0 empty empty empty 0 -9 0 10 -262144
-1 -1 0 1;
#X obj 811 108 / 127;
#X obj 811 91 ctlin 12 3;
#X obj 815 149 int;
#X obj 815 132 * 7.99;
#X obj 815 176 + 1;
#X msg 788 198 send /TV_swap_freq \$1;
#X obj 924 122 vsl 15 50 0 1 0 0 empty empty empty 0 -9 0 10 -262144
-1 -1 0 1;
#X obj 925 178 + 1;
#X msg 925 199 send /TV_swap_dur \$1;
#X obj 955 138 / 127;
#X obj 955 121 ctlin 12 3;
#X floatatom 848 158 5 0 0 0 - - -;
#X floatatom 965 163 5 0 0 0 - - -;
#X obj 783 81 r init;
#X msg 784 101 0;
#X obj 923 81 r init;
#X msg 924 101 0;
#X text 769 66 sample swapping frequency and duration;
#X obj 368 154 * 3;
#X obj 656 144 vsl 15 32 0 1 0 0 empty empty empty 0 -8 0 8 -262144
-1 -1 0 1;
#X floatatom 730 159 5 0 0 0 - - -;
#X obj 696 135 / 127;
#X obj 655 106 r init;
#X msg 656 126 0;
#X obj 697 115 ctlin 7 3;
#X text 649 91 drone/sample mix;
#X msg 656 188 send /TV_drone_size \$1;
#X obj 691 159 * 100;
#X obj 67 135 vsl 15 64 0 1 0 0 empty empty empty 0 -8 0 8 -262144
-1 -1 0 1;
#X obj 90 112 vsl 15 64 0 1 0 0 empty empty empty 0 -8 0 8 -262144
-1 -1 0 1;
#X text 40 78 sequence level choice;
#X msg 90 184 send /terrains_vagues1_level \$1;
#X msg 66 206 send /terrains_vagues2_level \$1;
#X msg 43 224 send /terrains_vagues3_level \$1;
#X obj 28 -541 s porphyrographOut;
#X obj 150 -543 s porphyrographOut;
#X obj 263 -545 s porphyrographOut;
#X obj 369 -546 s porphyrographOut;
#X obj 494 -547 s porphyrographOut;
#X obj 611 -544 s porphyrographOut;
#X obj 723 -549 s porphyrographOut;
#X obj 824 -550 s porphyrographOut;
#X obj 30 -407 s porphyrographOut;
#X obj 152 -409 s porphyrographOut;
#X obj 309 -408 s porphyrographOut;
#X obj 415 -409 s porphyrographOut;
#X obj 537 -408 s porphyrographOut;
#X obj 646 -409 s porphyrographOut;
#X obj 886 -412 s porphyrographOut;
#X obj 24 -275 s porphyrographOut;
#X obj 134 -258 s porphyrographOut;
#X obj 244 -259 s porphyrographOut;
#X obj 362 -260 s porphyrographOut;
#X obj 466 -262 s porphyrographOut;
#X obj 567 -261 s porphyrographOut;
#X obj 662 -261 s porphyrographOut;
#X obj 762 -258 s porphyrographOut;
#X obj 39 -125 s porphyrographOut;
#X obj 142 -109 s porphyrographOut;
#X obj 247 -105 s porphyrographOut;
#X obj 359 -104 s porphyrographOut;
#X obj 473 -104 s porphyrographOut;
#X obj 577 -106 s porphyrographOut;
#X obj 687 -105 s porphyrographOut;
#X obj 789 -104 s porphyrographOut;
#X obj 898 -104 s porphyrographOut;
#X obj 39 29 s porphyrographOut;
#X obj 142 45 s porphyrographOut;
#X obj 247 49 s porphyrographOut;
#X obj 405 48 s porphyrographOut;
#X obj 600 48 s porphyrographOut;
#X obj 94 241 s porphyrographOut;
#X obj 345 214 s porphyrographOut;
#X obj 510 214 s porphyrographOut;
#X obj 657 216 s porphyrographOut;
#X obj 788 215 s porphyrographOut;
#X obj 925 216 s porphyrographOut;
#X connect 0 0 1 0;
#X connect 0 1 2 0;
#X connect 0 2 3 0;
#X connect 4 0 34 0;
#X connect 4 0 6 0;
#X connect 5 0 4 0;
#X connect 8 0 36 0;
#X connect 8 0 9 0;
#X connect 11 0 38 0;
#X connect 11 0 12 0;
#X connect 14 0 39 0;
#X connect 14 0 15 0;
#X connect 17 0 40 0;
#X connect 17 0 19 0;
#X connect 18 0 17 0;
#X connect 21 0 41 0;
#X connect 21 0 22 0;
#X connect 24 0 42 0;
#X connect 24 0 25 0;
#X connect 27 0 43 0;
#X connect 27 0 28 0;
#X connect 30 0 44 0;
#X connect 30 0 31 0;
#X connect 32 0 30 0;
#X connect 34 0 359 0;
#X connect 36 0 360 0;
#X connect 38 0 361 0;
#X connect 39 0 362 0;
#X connect 40 0 363 0;
#X connect 41 0 364 0;
#X connect 42 0 365 0;
#X connect 43 0 366 0;
#X connect 44 0 373 0;
#X connect 51 0 8 0;
#X connect 52 0 11 0;
#X connect 53 0 14 0;
#X connect 54 0 21 0;
#X connect 55 0 24 0;
#X connect 56 0 27 0;
#X connect 57 0 30 0;
#X connect 58 0 83 0;
#X connect 58 0 59 0;
#X connect 60 0 58 0;
#X connect 61 0 85 0;
#X connect 61 0 62 0;
#X connect 63 0 61 0;
#X connect 64 0 87 0;
#X connect 64 0 65 0;
#X connect 66 0 64 0;
#X connect 67 0 89 0;
#X connect 67 0 68 0;
#X connect 69 0 67 0;
#X connect 70 0 78 0;
#X connect 70 0 71 0;
#X connect 72 0 70 0;
#X connect 73 0 80 0;
#X connect 73 0 74 0;
#X connect 75 0 73 0;
#X connect 76 0 67 0;
#X connect 78 0 372 0;
#X connect 80 0 371 0;
#X connect 81 0 70 0;
#X connect 83 0 367 0;
#X connect 85 0 368 0;
#X connect 87 0 369 0;
#X connect 89 0 370 0;
#X connect 90 0 58 0;
#X connect 91 0 61 0;
#X connect 92 0 64 0;
#X connect 93 0 73 0;
#X connect 94 0 5 0;
#X connect 95 0 51 0;
#X connect 96 0 52 0;
#X connect 97 0 53 0;
#X connect 98 0 18 0;
#X connect 99 0 54 0;
#X connect 100 0 55 0;
#X connect 101 0 56 0;
#X connect 102 0 57 0;
#X connect 103 0 90 0;
#X connect 104 0 91 0;
#X connect 105 0 92 0;
#X connect 106 0 76 0;
#X connect 107 0 93 0;
#X connect 108 0 81 0;
#X connect 109 0 114 0;
#X connect 109 0 110 0;
#X connect 112 0 113 0;
#X connect 113 0 109 0;
#X connect 114 0 374 0;
#X connect 115 0 219 0;
#X connect 115 0 116 0;
#X connect 118 0 119 0;
#X connect 119 0 115 0;
#X connect 120 0 117 0;
#X connect 121 0 205 0;
#X connect 121 0 122 0;
#X connect 124 0 125 0;
#X connect 125 0 121 0;
#X connect 126 0 207 0;
#X connect 126 0 127 0;
#X connect 129 0 130 0;
#X connect 130 0 126 0;
#X connect 131 0 209 0;
#X connect 131 0 132 0;
#X connect 134 0 135 0;
#X connect 135 0 131 0;
#X connect 136 0 211 0;
#X connect 136 0 137 0;
#X connect 139 0 140 0;
#X connect 140 0 136 0;
#X connect 141 0 213 0;
#X connect 141 0 142 0;
#X connect 144 0 145 0;
#X connect 145 0 141 0;
#X connect 146 0 215 0;
#X connect 146 0 147 0;
#X connect 149 0 150 0;
#X connect 150 0 146 0;
#X connect 151 0 217 0;
#X connect 151 0 152 0;
#X connect 154 0 155 0;
#X connect 155 0 151 0;
#X connect 156 0 221 0;
#X connect 156 0 157 0;
#X connect 159 0 160 0;
#X connect 160 0 156 0;
#X connect 161 0 289 0;
#X connect 161 0 162 0;
#X connect 164 0 165 0;
#X connect 165 0 161 0;
#X connect 166 0 225 0;
#X connect 166 0 167 0;
#X connect 169 0 170 0;
#X connect 170 0 166 0;
#X connect 171 0 227 0;
#X connect 171 0 172 0;
#X connect 174 0 175 0;
#X connect 175 0 171 0;
#X connect 176 0 229 0;
#X connect 176 0 177 0;
#X connect 179 0 180 0;
#X connect 180 0 176 0;
#X connect 181 0 231 0;
#X connect 181 0 182 0;
#X connect 184 0 185 0;
#X connect 185 0 181 0;
#X connect 186 0 233 0;
#X connect 186 0 187 0;
#X connect 189 0 190 0;
#X connect 190 0 186 0;
#X connect 191 0 235 0;
#X connect 191 0 192 0;
#X connect 194 0 195 0;
#X connect 195 0 191 0;
#X connect 196 0 158 0;
#X connect 197 0 163 0;
#X connect 198 0 168 0;
#X connect 199 0 173 0;
#X connect 200 0 178 0;
#X connect 201 0 183 0;
#X connect 202 0 188 0;
#X connect 203 0 193 0;
#X connect 205 0 375 0;
#X connect 207 0 376 0;
#X connect 209 0 377 0;
#X connect 211 0 378 0;
#X connect 213 0 379 0;
#X connect 215 0 380 0;
#X connect 217 0 381 0;
#X connect 219 0 382 0;
#X connect 221 0 383 0;
#X connect 225 0 385 0;
#X connect 227 0 386 0;
#X connect 229 0 387 0;
#X connect 231 0 388 0;
#X connect 233 0 389 0;
#X connect 235 0 390 0;
#X connect 236 0 7 0;
#X connect 237 0 10 0;
#X connect 238 0 13 0;
#X connect 239 0 16 0;
#X connect 240 0 20 0;
#X connect 241 0 23 0;
#X connect 242 0 26 0;
#X connect 243 0 29 0;
#X connect 244 0 60 0;
#X connect 245 0 63 0;
#X connect 246 0 66 0;
#X connect 247 0 69 0;
#X connect 248 0 75 0;
#X connect 249 0 72 0;
#X connect 250 0 32 0;
#X connect 251 0 111 0;
#X connect 252 0 123 0;
#X connect 253 0 128 0;
#X connect 254 0 133 0;
#X connect 255 0 138 0;
#X connect 256 0 143 0;
#X connect 257 0 148 0;
#X connect 258 0 153 0;
#X connect 259 0 278 0;
#X connect 259 0 260 0;
#X connect 262 0 263 0;
#X connect 263 0 259 0;
#X connect 264 0 261 0;
#X connect 265 0 279 0;
#X connect 265 0 266 0;
#X connect 268 0 269 0;
#X connect 269 0 265 0;
#X connect 270 0 290 0;
#X connect 270 0 271 0;
#X connect 273 0 274 0;
#X connect 274 0 270 0;
#X connect 275 0 267 0;
#X connect 276 0 272 0;
#X connect 278 0 391 0;
#X connect 279 0 392 0;
#X connect 282 0 291 0;
#X connect 282 0 283 0;
#X connect 285 0 286 0;
#X connect 286 0 282 0;
#X connect 287 0 284 0;
#X connect 289 0 384 0;
#X connect 290 0 393 0;
#X connect 291 0 394 0;
#X connect 292 0 298 0;
#X connect 292 0 293 0;
#X connect 295 0 296 0;
#X connect 296 0 292 0;
#X connect 297 0 294 0;
#X connect 298 0 395 0;
#X connect 299 0 343 0;
#X connect 302 0 303 0;
#X connect 303 0 299 0;
#X connect 304 0 301 0;
#X connect 309 0 358 0;
#X connect 309 0 310 0;
#X connect 312 0 313 0;
#X connect 313 0 309 0;
#X connect 313 0 353 0;
#X connect 313 0 354 0;
#X connect 314 0 311 0;
#X connect 315 0 397 0;
#X connect 316 0 317 0;
#X connect 316 0 323 0;
#X connect 319 0 320 0;
#X connect 320 0 316 0;
#X connect 321 0 318 0;
#X connect 323 0 398 0;
#X connect 324 0 328 0;
#X connect 326 0 325 0;
#X connect 327 0 329 0;
#X connect 328 0 327 0;
#X connect 329 0 330 0;
#X connect 329 0 336 0;
#X connect 330 0 400 0;
#X connect 331 0 332 0;
#X connect 332 0 333 0;
#X connect 332 0 337 0;
#X connect 333 0 401 0;
#X connect 335 0 334 0;
#X connect 338 0 339 0;
#X connect 339 0 324 0;
#X connect 340 0 341 0;
#X connect 341 0 331 0;
#X connect 343 0 300 0;
#X connect 343 0 315 0;
#X connect 344 0 352 0;
#X connect 347 0 348 0;
#X connect 348 0 344 0;
#X connect 349 0 346 0;
#X connect 351 0 399 0;
#X connect 352 0 351 0;
#X connect 352 0 345 0;
#X connect 353 0 357 0;
#X connect 353 0 310 0;
#X connect 354 0 356 0;
#X connect 354 0 310 0;
#X connect 356 0 396 0;
#X connect 357 0 396 0;
#X connect 358 0 396 0;
#X restore -494 -152 pd allSequencesAndEffects;
#X obj -351 303 send porphyrographOut;
#X text -1113 17 ONLY FOR TERRAINS VAGUES;
#X obj -1106 86 vsl 15 64 0 0.5 0 0 empty empty empty 0 -8 0 8 -262144
-1 -1 0 1;
#X floatatom -1010 113 5 0 0 0 - - -;
#X obj -1011 92 / 127;
#X obj -1107 44 r init;
#X msg -1106 64 0;
#X obj -1082 84 vsl 15 64 0 0.5 0 0 empty empty empty 0 -8 0 8 -262144
-1 -1 0 1;
#X obj -1059 61 vsl 15 64 0 0.5 0 0 empty empty empty 0 -8 0 8 -262144
-1 -1 2000 1;
#X text -1109 27 sequence level choice;
#X msg -1059 133 send /terrains_vagues1_level \$1;
#X msg -1083 155 send /terrains_vagues2_level \$1;
#X msg -1106 173 send /terrains_vagues3_level \$1;
#X obj -1055 190 s porphyrographOut;
#X text -183 -139 Slider7 8 9;
#X msg -962 -200 send /mix \$1;
#X msg -1100 -219 send /kMix \$1;
#X obj -1072 282 * 6;
#X obj -1051 -146 send init;
#X obj -1010 72 ctlin 13 1;
#X text -813 -399 ONLY FOR TERRAINS VAGUES;
#X obj -806 -330 vsl 15 64 0 0.5 0 0 empty empty empty 0 -8 0 8 -262144
-1 -1 0 1;
#X floatatom -710 -303 5 0 0 0 - - -;
#X obj -711 -324 / 127;
#X obj -807 -372 r init;
#X msg -806 -352 0;
#X obj -782 -332 vsl 15 64 0 0.5 0 0 empty empty empty 0 -8 0 8 -262144
-1 -1 2300 1;
#X obj -759 -355 vsl 15 64 0 0.5 0 0 empty empty empty 0 -8 0 8 -262144
-1 -1 0 1;
#X text -809 -389 sequence level choice;
#X obj -734 -192 s porphyrographOut;
#X obj -710 -344 ctlin 13 1;
#X msg -750 -284 send /subway-station_level \$1;
#X msg -782 -261 send /escalator_level \$1;
#X msg -806 -242 send /escalator_long_level \$1;
#X obj -750 167 delay 52500;
#X msg -1096 252 6;
#X msg -645 192 send /TV_letsgo_level 0.3;
#X msg -859 125 send /starttrain_level 0.3;
#X obj -819 108 s startclock;
#X msg -852 193 send /terrains_vagues1_level 0.3;
#X connect 0 0 225 0;
#X connect 1 0 4 0;
#X connect 1 0 275 0;
#X connect 2 0 0 0;
#X connect 5 0 6 0;
#X connect 5 1 7 0;
#X connect 5 2 8 0;
#X connect 9 0 73 0;
#X connect 9 0 223 0;
#X connect 9 0 224 0;
#X connect 10 0 217 0;
#X connect 11 0 219 0;
#X connect 12 0 9 0;
#X connect 13 0 10 0;
#X connect 14 0 11 0;
#X connect 15 0 213 0;
#X connect 16 0 214 0;
#X connect 17 0 15 0;
#X connect 18 0 24 0;
#X connect 18 0 25 0;
#X connect 18 0 26 0;
#X connect 18 0 112 0;
#X connect 19 0 67 0;
#X connect 20 0 22 0;
#X connect 20 0 67 1;
#X connect 21 0 22 0;
#X connect 21 0 67 2;
#X connect 22 0 67 0;
#X connect 23 0 18 0;
#X connect 24 0 19 0;
#X connect 25 0 20 0;
#X connect 26 0 21 0;
#X connect 27 0 19 0;
#X connect 28 0 20 0;
#X connect 29 0 21 0;
#X connect 30 0 27 0;
#X connect 31 0 28 0;
#X connect 32 0 29 0;
#X connect 33 0 39 0;
#X connect 33 0 40 0;
#X connect 33 0 41 0;
#X connect 33 0 116 0;
#X connect 34 0 71 0;
#X connect 35 0 37 0;
#X connect 35 0 71 1;
#X connect 36 0 37 0;
#X connect 36 0 71 2;
#X connect 36 0 201 0;
#X connect 37 0 71 0;
#X connect 38 0 33 0;
#X connect 39 0 34 0;
#X connect 40 0 35 0;
#X connect 41 0 36 0;
#X connect 42 0 34 0;
#X connect 43 0 35 0;
#X connect 44 0 36 0;
#X connect 45 0 42 0;
#X connect 46 0 43 0;
#X connect 47 0 44 0;
#X connect 48 0 55 0;
#X connect 48 0 56 0;
#X connect 48 0 57 0;
#X connect 49 0 53 0;
#X connect 50 0 52 0;
#X connect 50 0 53 1;
#X connect 51 0 52 0;
#X connect 51 0 53 2;
#X connect 52 0 53 0;
#X connect 53 0 200 0;
#X connect 54 0 48 0;
#X connect 55 0 49 0;
#X connect 56 0 50 0;
#X connect 57 0 51 0;
#X connect 58 0 49 0;
#X connect 59 0 50 0;
#X connect 60 0 51 0;
#X connect 61 0 58 0;
#X connect 62 0 59 0;
#X connect 63 0 60 0;
#X connect 64 0 220 0;
#X connect 65 0 66 0;
#X connect 66 0 67 3;
#X connect 66 0 22 0;
#X connect 67 0 208 0;
#X connect 68 0 65 0;
#X connect 69 0 71 3;
#X connect 69 0 37 0;
#X connect 70 0 69 0;
#X connect 71 0 203 0;
#X connect 72 0 70 0;
#X connect 73 0 10 0;
#X connect 74 0 4 0;
#X connect 74 0 275 0;
#X connect 77 0 64 0;
#X connect 78 0 81 0;
#X connect 79 0 78 0;
#X connect 80 0 82 0;
#X connect 81 0 240 0;
#X connect 82 0 242 0;
#X connect 83 0 80 0;
#X connect 85 0 109 0;
#X connect 86 0 85 0;
#X connect 88 0 110 0;
#X connect 89 0 118 0;
#X connect 93 0 294 0;
#X connect 93 0 291 0;
#X connect 93 0 239 0;
#X connect 93 0 295 0;
#X connect 94 0 88 0;
#X connect 95 0 123 0;
#X connect 96 0 117 0;
#X connect 97 0 107 0;
#X connect 98 0 108 0;
#X connect 102 0 93 0;
#X connect 103 0 95 0;
#X connect 104 0 96 0;
#X connect 105 0 97 0;
#X connect 106 0 98 0;
#X connect 107 0 248 0;
#X connect 108 0 247 0;
#X connect 109 0 241 0;
#X connect 110 0 249 0;
#X connect 111 0 89 0;
#X connect 112 0 66 0;
#X connect 114 0 122 0;
#X connect 115 0 114 0;
#X connect 116 0 69 0;
#X connect 117 0 245 0;
#X connect 118 0 250 0;
#X connect 122 0 246 0;
#X connect 123 0 244 0;
#X connect 124 0 125 0;
#X connect 124 0 126 0;
#X connect 126 0 127 0;
#X connect 126 0 128 0;
#X connect 126 0 129 0;
#X connect 127 0 20 0;
#X connect 128 0 66 0;
#X connect 129 0 19 0;
#X connect 131 0 132 0;
#X connect 131 0 133 0;
#X connect 133 0 134 0;
#X connect 134 0 19 0;
#X connect 137 0 143 0;
#X connect 137 0 144 0;
#X connect 137 0 145 0;
#X connect 137 0 152 0;
#X connect 138 0 151 0;
#X connect 139 0 141 0;
#X connect 139 0 151 1;
#X connect 140 0 141 0;
#X connect 140 0 151 2;
#X connect 141 0 151 0;
#X connect 142 0 137 0;
#X connect 143 0 138 0;
#X connect 144 0 139 0;
#X connect 145 0 140 0;
#X connect 146 0 138 0;
#X connect 147 0 139 0;
#X connect 148 0 140 0;
#X connect 149 0 151 3;
#X connect 149 0 141 0;
#X connect 150 0 149 0;
#X connect 151 0 202 0;
#X connect 152 0 149 0;
#X connect 154 0 146 0;
#X connect 155 0 147 0;
#X connect 156 0 148 0;
#X connect 157 0 150 0;
#X connect 158 0 164 0;
#X connect 158 0 165 0;
#X connect 158 0 166 0;
#X connect 158 0 173 0;
#X connect 159 0 172 0;
#X connect 160 0 162 0;
#X connect 160 0 172 1;
#X connect 161 0 162 0;
#X connect 161 0 172 2;
#X connect 162 0 172 0;
#X connect 163 0 158 0;
#X connect 164 0 159 0;
#X connect 165 0 160 0;
#X connect 166 0 161 0;
#X connect 167 0 159 0;
#X connect 168 0 160 0;
#X connect 169 0 161 0;
#X connect 170 0 172 3;
#X connect 170 0 162 0;
#X connect 171 0 170 0;
#X connect 172 0 204 0;
#X connect 173 0 170 0;
#X connect 174 0 180 0;
#X connect 174 0 181 0;
#X connect 174 0 182 0;
#X connect 174 0 189 0;
#X connect 175 0 188 0;
#X connect 176 0 178 0;
#X connect 176 0 188 1;
#X connect 177 0 178 0;
#X connect 177 0 188 2;
#X connect 178 0 188 0;
#X connect 179 0 174 0;
#X connect 180 0 175 0;
#X connect 181 0 176 0;
#X connect 182 0 177 0;
#X connect 183 0 175 0;
#X connect 184 0 176 0;
#X connect 185 0 177 0;
#X connect 186 0 188 3;
#X connect 186 0 178 0;
#X connect 187 0 186 0;
#X connect 188 0 205 0;
#X connect 189 0 186 0;
#X connect 192 0 171 0;
#X connect 193 0 169 0;
#X connect 194 0 168 0;
#X connect 195 0 167 0;
#X connect 196 0 183 0;
#X connect 197 0 184 0;
#X connect 198 0 185 0;
#X connect 199 0 187 0;
#X connect 200 0 251 0;
#X connect 202 0 254 0;
#X connect 203 0 255 0;
#X connect 204 0 253 0;
#X connect 205 0 252 0;
#X connect 208 0 257 0;
#X connect 213 0 16 0;
#X connect 214 0 273 0;
#X connect 215 0 16 0;
#X connect 216 0 215 0;
#X connect 217 0 272 0;
#X connect 218 0 13 0;
#X connect 219 0 221 0;
#X connect 220 0 222 0;
#X connect 221 0 235 0;
#X connect 222 0 235 0;
#X connect 223 0 11 0;
#X connect 224 0 64 0;
#X connect 226 0 14 0;
#X connect 227 0 77 0;
#X connect 229 0 274 0;
#X connect 232 0 231 0;
#X connect 234 0 237 0;
#X connect 238 0 292 0;
#X connect 239 0 243 0;
#X connect 259 0 269 0;
#X connect 259 0 260 0;
#X connect 261 0 265 0;
#X connect 262 0 263 0;
#X connect 263 0 259 0;
#X connect 263 0 264 0;
#X connect 263 0 265 0;
#X connect 264 0 268 0;
#X connect 264 0 260 0;
#X connect 265 0 267 0;
#X connect 265 0 260 0;
#X connect 267 0 270 0;
#X connect 268 0 270 0;
#X connect 269 0 270 0;
#X connect 272 0 235 0;
#X connect 273 0 236 0;
#X connect 274 0 230 0;
#X connect 274 0 234 0;
#X connect 276 0 261 0;
#X connect 278 0 290 0;
#X connect 278 0 279 0;
#X connect 280 0 284 0;
#X connect 281 0 282 0;
#X connect 282 0 278 0;
#X connect 282 0 283 0;
#X connect 282 0 284 0;
#X connect 283 0 289 0;
#X connect 283 0 279 0;
#X connect 284 0 288 0;
#X connect 284 0 279 0;
#X connect 287 0 280 0;
#X connect 288 0 286 0;
#X connect 289 0 286 0;
#X connect 290 0 286 0;
#X connect 291 0 296 0;
#X connect 291 0 293 0;
#X connect 291 0 212 0;
#X connect 292 0 229 0;
#X connect 293 0 243 0;
#X connect 294 0 243 0;
#X connect 296 0 243 0;
