#N canvas 0 346 1012 676 10;
#X obj 534 368 cnv 15 120 120 empty mn_can 0 10 50 1 96 -262034 -33289
0;
#X obj 663 368 cnv 15 120 120 empty sec_can 50 10 50 1 96 -235462 -33289
0;
#X obj 13 368 cnv 15 510 290 empty empty empty 20 12 0 14 -261682 -66577
0;
#X obj 319 408 bng 20 250 50 0 empty empty empty 17 7 0 10 -159808
-1 -1;
#X msg 350 412 send /testUDP_fromPD, f 21;
#X obj 319 430 send porphyrographOut;
#N canvas 171 463 1172 291 launch 0;
#X obj 316 67 s startclock;
#X msg 235 89 send /launch;
#X obj 367 152 send porphyrographOut;
#X msg 678 97 send /terrains_vagues1_onOff;
#X msg 417 66 send /terrains_vagues1_level 0;
#X obj 562 98 s startclock;
#X obj 680 62 delay 52000;
#X obj 369 12 inlet;
#X obj 338 105 s timeOffset;
#X msg 338 88 0;
#X obj 588 136 s timeOffset;
#X msg 588 119 0;
#X msg 923 94 send /scene_offset 0;
#X obj 241 149 print;
#X msg 76 65 send /EF_BT_v4_onOff;
#X msg 79 187 1 0 \, 2 0 \, 3 0 \, 4 0 \, 5 0 \, 6 0 \, 7 0 \, 8 0
\, 24 0 \, 25 0;
#X obj 77 228 send buttonOnOff;
#X msg 114 206 9 0 \, 10 0 \, 11 0 \, 12 0 \, 13 0 \, 14 0 \, 15 0
\, 16 0;
#X text 114 170 RESET ALL BUTTONS;
#X connect 1 0 2 0;
#X connect 3 0 2 0;
#X connect 4 0 2 0;
#X connect 6 0 5 0;
#X connect 6 0 11 0;
#X connect 6 0 12 0;
#X connect 7 0 14 0;
#X connect 7 0 1 0;
#X connect 7 0 0 0;
#X connect 7 0 9 0;
#X connect 7 0 15 0;
#X connect 9 0 8 0;
#X connect 11 0 10 0;
#X connect 12 0 2 0;
#X connect 14 0 2 0;
#X connect 15 0 16 0;
#X connect 17 0 16 0;
#X restore 20 431 pd launch;
#X obj 140 408 bng 20 250 50 0 empty empty empty 17 7 0 10 -258113
-1 -1;
#X obj 141 425 send porphyrographOut;
#X text 318 372 TEST UDP;
#X obj 791 368 cnv 15 200 290 empty empty empty 20 12 0 14 -261682
-66577 0;
#X msg 916 541 disconnect;
#X obj 879 512 bng 30 250 50 0 empty empty empty 0 -6 0 8 -24198 -1
-1;
#X obj 916 511 bng 30 250 50 0 empty empty empty 0 -6 0 8 -258699 -1
-1;
#X obj 935 426 ctlin;
#X floatatom 875 459 5 0 0 0 - - -, f 5;
#X floatatom 919 459 5 0 0 0 - - -, f 5;
#X floatatom 954 455 5 0 0 0 - - -, f 5;
#X obj 855 563 loadbang;
#N canvas 738 67 1083 489 connect 0;
#X obj 59 41 inlet;
#X obj 150 86 receive reset;
#X text 106 65 messages for the SC OSC server;
#X floatatom 149 247 5 0 0 0 - - -, f 5;
#X obj 37 158 receive porphyrographOut;
#X obj 110 93 bng 15 250 50 0 empty empty empty 17 7 0 10 -262144 -1
-1;
#X msg 150 110 connect 127.0.0.1 1978;
#X obj 149 223 netsend 1;
#X obj 365 63 print receive;
#X obj 244 163 makefilename %d;
#X msg 244 180 \; beat_can label \$1;
#X obj 460 163 makefilename %.2f;
#X msg 570 265 \; record_output_can label OFF;
#X msg 569 294 \; record_output_can color 17 12;
#X msg 572 329 \; record_output_can label ON;
#X msg 572 358 \; record_output_can color 13 12;
#X obj 243 432 send buttonOnOff;
#X obj 241 380 route 0 1;
#X msg 242 406 1 0;
#X msg 282 406 1 1;
#X obj 578 444 send buttonOnOff;
#X obj 576 392 route 0 1;
#X msg 243 244 \; EF_LoeilCyclope_v4EQ_onOff_can label OFF;
#X msg 243 273 \; EF_LoeilCyclope_v4EQ_onOff_can color 17 12;
#X msg 243 311 \; EF_LoeilCyclope_v4EQ_onOff_can label ON;
#X msg 243 338 \; EF_LoeilCyclope_v4EQ_onOff_can color 13 12;
#X msg 460 180 \; EF_LoeilCyclope_v4EQ_can label \$1;
#X obj 463 55 route /beat /EF_BT_EQ_v1_onOff_can /EF_BT_EQ_v1_can /record_output_can
/loop_playing_can /loop_recording_can;
#X obj 813 118 route 0 1;
#X obj 816 198 send buttonOnOff;
#X obj 814 151 route 0 1;
#X msg 815 172 7 0;
#X msg 855 172 7 1;
#X obj 816 281 send buttonOnOff;
#X obj 814 234 route 0 1;
#X msg 815 255 8 0;
#X msg 855 255 8 1;
#X text 810 102 track No;
#X text 811 137 ON/OFF;
#X text 811 220 ON/OFF;
#X obj 951 117 route 0 1;
#X obj 954 197 send buttonOnOff;
#X obj 952 150 route 0 1;
#X obj 954 280 send buttonOnOff;
#X obj 952 233 route 0 1;
#X text 948 101 track No;
#X text 949 136 ON/OFF;
#X text 949 219 ON/OFF;
#X msg 953 171 15 0;
#X msg 993 171 15 1;
#X msg 953 254 16 0;
#X msg 993 254 16 1;
#X floatatom 757 167 5 0 0 0 - - -, f 5;
#X floatatom 758 186 5 0 0 0 - - -, f 5;
#X obj 67 212 print send;
#X obj 242 227 route 0 1;
#X obj 570 230 route 0 1;
#X floatatom 411 114 5 0 0 0 - - -, f 5;
#X obj 463 34 netreceive 1979 1;
#X msg 577 418 10 0;
#X msg 617 418 10 1;
#X connect 0 0 7 0;
#X connect 1 0 6 0;
#X connect 4 0 7 0;
#X connect 4 0 54 0;
#X connect 5 0 6 0;
#X connect 6 0 7 0;
#X connect 7 0 3 0;
#X connect 9 0 10 0;
#X connect 11 0 26 0;
#X connect 17 0 18 0;
#X connect 17 1 19 0;
#X connect 18 0 16 0;
#X connect 19 0 16 0;
#X connect 21 0 59 0;
#X connect 21 1 60 0;
#X connect 27 0 9 0;
#X connect 27 0 57 0;
#X connect 27 1 17 0;
#X connect 27 1 55 0;
#X connect 27 2 11 0;
#X connect 27 3 21 0;
#X connect 27 3 56 0;
#X connect 27 4 28 0;
#X connect 27 5 40 0;
#X connect 28 0 30 0;
#X connect 28 0 52 0;
#X connect 28 1 34 0;
#X connect 28 1 53 0;
#X connect 30 0 31 0;
#X connect 30 1 32 0;
#X connect 31 0 29 0;
#X connect 32 0 29 0;
#X connect 34 0 35 0;
#X connect 34 1 36 0;
#X connect 35 0 33 0;
#X connect 36 0 33 0;
#X connect 40 0 42 0;
#X connect 40 1 44 0;
#X connect 42 0 48 0;
#X connect 42 1 49 0;
#X connect 44 0 50 0;
#X connect 44 1 51 0;
#X connect 48 0 41 0;
#X connect 49 0 41 0;
#X connect 50 0 43 0;
#X connect 51 0 43 0;
#X connect 55 0 22 0;
#X connect 55 0 23 0;
#X connect 55 1 24 0;
#X connect 55 1 25 0;
#X connect 56 0 12 0;
#X connect 56 0 13 0;
#X connect 56 1 14 0;
#X connect 56 1 15 0;
#X connect 58 0 27 0;
#X connect 58 0 8 0;
#X connect 59 0 20 0;
#X connect 60 0 20 0;
#X restore 916 558 pd connect;
#N canvas 199 50 1076 699 allSequencesAndEffects 0;
#X obj 804 -432 ctlin;
#X floatatom 777 -406 5 0 0 0 - - -, f 5;
#X floatatom 817 -406 5 0 0 0 - - -, f 5;
#X floatatom 856 -406 5 0 0 0 - - -, f 5;
#X obj 38 -583 vsl 15 32 0 1 0 0 empty empty empty 0 -8 0 8 -262144
-1 -1 0 1;
#X msg 38 -601 0;
#X floatatom 78 -566 5 0 0 0 - - -, f 5;
#X obj 79 -589 / 127;
#X obj 160 -585 vsl 15 32 0 1 0 0 empty empty empty 0 -8 0 8 -262144
-1 -1 1550 1;
#X floatatom 200 -568 5 0 0 0 - - -, f 5;
#X obj 201 -591 / 127;
#X obj 273 -587 vsl 15 32 0 1 0 0 empty empty empty 0 -8 0 8 -262144
-1 -1 3100 1;
#X floatatom 313 -570 5 0 0 0 - - -, f 5;
#X obj 314 -593 / 127;
#X obj 379 -588 vsl 15 32 0 1 0 0 empty empty empty 0 -8 0 8 -262144
-1 -1 1550 1;
#X floatatom 419 -571 5 0 0 0 - - -, f 5;
#X obj 420 -594 / 127;
#X obj 504 -589 vsl 15 32 0 1 0 0 empty empty empty 0 -8 0 8 -262144
-1 -1 0 1;
#X msg 504 -607 0;
#X floatatom 544 -572 5 0 0 0 - - -, f 5;
#X obj 545 -595 / 127;
#X obj 621 -586 vsl 15 32 0 1 0 0 empty empty empty 0 -8 0 8 -262144
-1 -1 1550 1;
#X floatatom 661 -569 5 0 0 0 - - -, f 5;
#X obj 662 -592 / 127;
#X obj 733 -591 vsl 15 32 0 1 0 0 empty empty empty 0 -8 0 8 -262144
-1 -1 3100 1;
#X floatatom 773 -574 5 0 0 0 - - -, f 5;
#X obj 774 -597 / 127;
#X obj 834 -592 vsl 15 32 0 1 0 0 empty empty empty 0 -8 0 8 -262144
-1 -1 465 1;
#X floatatom 874 -575 5 0 0 0 - - -, f 5;
#X obj 875 -598 / 127;
#X obj 896 -454 vsl 15 32 0 1 0 0 empty empty empty 0 -8 0 8 -262144
-1 -1 2325 1;
#X floatatom 936 -437 5 0 0 0 - - -, f 5;
#X obj 937 -460 / 127;
#X text 29 -635 REVERB: dampingfreq;
#X msg 38 -548 send /dampingfreq \$1;
#X text 151 -637 REVERB: density;
#X msg 160 -550 send /density \$1;
#X text 255 -639 REVERB: bandwidthfreq;
#X msg 273 -552 send /bandwidthfreq \$1;
#X msg 379 -553 send /decay \$1;
#X msg 504 -554 send /predelay \$1;
#X msg 621 -551 send /size \$1;
#X msg 733 -556 send /gain \$1;
#X msg 834 -557 send /mix \$1;
#X msg 896 -419 send /earlymix \$1;
#X text 495 -641 REVERB: predelay;
#X text 399 -640 REVERB: decay;
#X text 612 -638 REVERB: size;
#X text 724 -643 REVERB: gain;
#X text 826 -644 REVERB: mix;
#X text 888 -506 REVERB: earlymix;
#X msg 160 -603 0.5;
#X msg 273 -605 1;
#X msg 379 -606 0.5;
#X msg 621 -604 0.5;
#X msg 733 -609 1;
#X msg 834 -610 0.15;
#X msg 896 -472 0.75;
#X obj 41 -450 vsl 15 32 0 1 0 0 empty empty empty 0 -8 0 8 -262144
-1 -1 1550 1;
#X floatatom 87 -432 5 0 0 0 - - -, f 5;
#X obj 84 -454 / 127;
#X obj 163 -451 vsl 15 32 0 1 0 0 empty empty empty 0 -8 0 8 -262144
-1 -1 837 1;
#X floatatom 209 -434 5 0 0 0 - - -, f 5;
#X obj 206 -456 / 127;
#X obj 320 -450 vsl 15 32 0 1 0 0 empty empty empty 0 -8 0 8 -262144
-1 -1 2170 1;
#X floatatom 366 -433 5 0 0 0 - - -, f 5;
#X obj 363 -455 / 127;
#X obj 426 -451 vsl 15 32 0 1 0 0 empty empty empty 0 -8 0 8 -262144
-1 -1 1550 1;
#X floatatom 472 -434 5 0 0 0 - - -, f 5;
#X obj 469 -456 / 127;
#X obj 657 -449 vsl 15 32 0 1 0 0 empty empty empty 0 -8 0 8 -262144
-1 -1 1550 1;
#X floatatom 703 -434 5 0 0 0 - - -, f 5;
#X obj 700 -456 / 127;
#X obj 548 -450 vsl 15 32 0 1 0 0 empty empty empty 0 -8 0 8 -262144
-1 -1 1023 1;
#X floatatom 594 -433 5 0 0 0 - - -, f 5;
#X obj 591 -455 / 127;
#X msg 426 -470 0.5;
#X text 651 -509 ECHO: kLevel;
#X msg 656 -416 send /kLevel \$1;
#X text 542 -508 ECHO: kMix;
#X msg 547 -415 send /kMix \$1;
#X msg 657 -470 0.5;
#X text 35 -507 ECHO: kLDelay;
#X msg 41 -401 send /kLDelay \$1;
#X text 157 -509 ECHO: kLRDelayRatio;
#X msg 162 -416 send /kLRDelayRatio \$1;
#X text 305 -508 ECHO: kFeedBk;
#X msg 319 -415 send /kFeedBk \$1;
#X text 429 -510 ECHO: kTone;
#X msg 425 -416 send /kTone \$1;
#X msg 41 -468 0.5;
#X msg 163 -470 0.27;
#X msg 320 -469 0.7;
#X msg 548 -469 0.33;
#X obj 37 -617 r init;
#X obj 159 -618 r init;
#X obj 272 -621 r init;
#X obj 378 -623 r init;
#X obj 504 -623 r init;
#X obj 620 -620 r init;
#X obj 732 -625 r init;
#X obj 833 -626 r init;
#X obj 895 -488 r init;
#X obj 43 -484 r init;
#X obj 165 -486 r init;
#X obj 322 -485 r init;
#X obj 428 -486 r init;
#X obj 552 -485 r init;
#X obj 659 -486 r init;
#X obj 33 -318 vsl 15 32 0 1 0 0 empty empty empty 0 -8 0 8 -262144
-1 -1 0 1;
#X floatatom 76 -299 5 0 0 0 - - -, f 5;
#X obj 78 -318 / 127;
#X obj 33 -351 r init;
#X msg 33 -336 0;
#X msg 34 -282 send /dumpstortromme_level \$1;
#X obj 49 -169 vsl 15 32 0 1 0 0 empty empty empty 0 -8 0 8 -262144
-1 -1 0 1;
#X floatatom 88 -157 5 0 0 0 - - -, f 5;
#X obj 89 -178 / 127;
#X obj 48 -207 r init;
#X msg 49 -187 0;
#X obj 90 -198 ctlin 7 1;
#X obj 143 -317 vsl 15 32 0 1 0 0 empty empty empty 0 -8 0 8 -262144
-1 -1 0 1;
#X floatatom 186 -298 5 0 0 0 - - -, f 5;
#X obj 189 -318 / 127;
#X obj 143 -350 r init;
#X msg 143 -335 0;
#X obj 254 -321 vsl 15 32 0 1 0 0 empty empty empty 0 -8 0 8 -262144
-1 -1 0 1;
#X floatatom 297 -302 5 0 0 0 - - -, f 5;
#X obj 300 -322 / 127;
#X obj 254 -354 r init;
#X msg 254 -339 0;
#X obj 371 -323 vsl 15 32 0 1 0 0 empty empty empty 0 -8 0 8 -262144
-1 -1 0 1;
#X floatatom 401 -301 5 0 0 0 - - -, f 5;
#X obj 404 -321 / 127;
#X obj 371 -356 r init;
#X msg 371 -341 0;
#X obj 473 -321 vsl 15 32 0 1 0 0 empty empty empty 0 -8 0 8 -262144
-1 -1 0 1;
#X floatatom 504 -301 5 0 0 0 - - -, f 5;
#X obj 507 -321 / 127;
#X obj 473 -354 r init;
#X msg 473 -339 0;
#X obj 575 -321 vsl 15 32 0 1 0 0 empty empty empty 0 -8 0 8 -262144
-1 -1 0 1;
#X floatatom 603 -302 5 0 0 0 - - -, f 5;
#X obj 606 -322 / 127;
#X obj 575 -354 r init;
#X msg 575 -339 0;
#X obj 672 -319 vsl 15 32 0 1 0 0 empty empty empty 0 -8 0 8 -262144
-1 -1 0 1;
#X floatatom 693 -299 5 0 0 0 - - -, f 5;
#X obj 696 -319 / 127;
#X obj 672 -352 r init;
#X msg 672 -337 0;
#X obj 770 -318 vsl 15 32 0 1 0 0 empty empty empty 0 -8 0 8 -262144
-1 -1 0 1;
#X floatatom 813 -299 5 0 0 0 - - -, f 5;
#X obj 816 -319 / 127;
#X obj 770 -351 r init;
#X msg 770 -336 0;
#X obj 152 -169 vsl 15 32 0 1 0 0 empty empty empty 0 -8 0 8 -262144
-1 -1 0 1;
#X floatatom 191 -157 5 0 0 0 - - -, f 5;
#X obj 192 -178 / 127;
#X obj 151 -207 r init;
#X msg 152 -187 0;
#X obj 256 -167 vsl 15 32 0 1 0 0 empty empty empty 0 -8 0 8 -262144
-1 -1 0 1;
#X floatatom 295 -155 5 0 0 0 - - -, f 5;
#X obj 296 -176 / 127;
#X obj 255 -205 r init;
#X msg 256 -185 0;
#X obj 368 -170 vsl 15 32 0 1 0 0 empty empty empty 0 -8 0 8 -262144
-1 -1 0 1;
#X floatatom 407 -158 5 0 0 0 - - -, f 5;
#X obj 408 -179 / 127;
#X obj 367 -208 r init;
#X msg 368 -188 0;
#X obj 483 -168 vsl 15 32 0 1 0 0 empty empty empty 0 -8 0 8 -262144
-1 -1 0 1;
#X floatatom 522 -156 5 0 0 0 - - -, f 5;
#X obj 523 -177 / 127;
#X obj 482 -206 r init;
#X msg 483 -186 0;
#X obj 586 -169 vsl 15 32 0 1 0 0 empty empty empty 0 -8 0 8 -262144
-1 -1 0 1;
#X floatatom 625 -157 5 0 0 0 - - -, f 5;
#X obj 626 -178 / 127;
#X obj 585 -207 r init;
#X msg 586 -187 0;
#X obj 697 -167 vsl 15 32 0 1 0 0 empty empty empty 0 -8 0 8 -262144
-1 -1 0 1;
#X floatatom 736 -155 5 0 0 0 - - -, f 5;
#X obj 737 -176 / 127;
#X obj 696 -205 r init;
#X msg 697 -185 0;
#X obj 798 -164 vsl 15 32 0 1 0 0 empty empty empty 0 -8 0 8 -262144
-1 -1 0 1;
#X floatatom 837 -152 5 0 0 0 - - -, f 5;
#X obj 838 -173 / 127;
#X obj 797 -202 r init;
#X msg 798 -182 0;
#X obj 909 -165 vsl 15 32 0 1 0 0 empty empty empty 0 -8 0 8 -262144
-1 -1 0 1;
#X floatatom 948 -153 5 0 0 0 - - -, f 5;
#X obj 949 -174 / 127;
#X obj 908 -203 r init;
#X msg 909 -183 0;
#X obj 193 -198 ctlin 7 2;
#X obj 297 -196 ctlin 7 3;
#X obj 412 -201 ctlin 7 4;
#X obj 524 -197 ctlin 7 5;
#X obj 627 -198 ctlin 7 6;
#X obj 738 -196 ctlin 7 7;
#X obj 839 -193 ctlin 7 8;
#X obj 950 -194 ctlin 28 1;
#X text 136 -368 bitcrush_stortromme;
#X msg 144 -265 send /bitcrush_stortromme_level \$1;
#X text 258 -373 snareP3de;
#X msg 255 -285 send /snareP3de_level \$1;
#X text 371 -370 bling1;
#X msg 372 -267 send /bling1_level \$1;
#X text 472 -370 bling2;
#X msg 474 -285 send /bling2_level \$1;
#X text 567 -369 iyebassdrum;
#X msg 577 -268 send /iyebassdrum_level \$1;
#X text 674 -370 iyetiktak;
#X msg 673 -283 send /iyetiktak_level \$1;
#X text 761 -368 femPath_cello;
#X msg 772 -265 send /femPath_cello_level \$1;
#X text 29 -222 femPath_klik_synth;
#X msg 49 -132 send /femPath_klik_synth_level \$1;
#X text 159 -221 pling;
#X msg 153 -115 send /pling_level \$1;
#X text 246 -219 babai_synthpling;
#X text 25 -370 dumpstortromme;
#X text 358 -222 babai_heman;
#X msg 369 -111 send /babai_heman_level \$1;
#X text 473 -220 babai_cello;
#X msg 483 -131 send /babai_cello_level \$1;
#X text 576 -221 babai_rytme;
#X msg 587 -113 send /babai_rytme_level \$1;
#X text 687 -219 knas;
#X msg 697 -130 send /knas_level \$1;
#X text 788 -216 knit;
#X msg 799 -111 send /knit_level \$1;
#X text 899 -217 knag;
#X msg 909 -128 send /knag_level \$1;
#X obj 80 -609 ctlin 13 1;
#X obj 203 -611 ctlin 13 2;
#X obj 315 -613 ctlin 13 3;
#X obj 421 -614 ctlin 13 4;
#X obj 546 -615 ctlin 13 5;
#X obj 663 -612 ctlin 13 6;
#X obj 775 -617 ctlin 13 7;
#X obj 876 -618 ctlin 13 8;
#X obj 85 -474 ctlin 12 1;
#X obj 207 -476 ctlin 12 2;
#X obj 364 -475 ctlin 12 3;
#X obj 470 -476 ctlin 12 4;
#X obj 592 -475 ctlin 12 6;
#X obj 701 -476 ctlin 12 5;
#X obj 938 -480 ctlin 12 6;
#X obj 80 -339 ctlin 10 1;
#X obj 190 -338 ctlin 10 2;
#X obj 301 -342 ctlin 10 3;
#X obj 405 -341 ctlin 10 4;
#X obj 508 -341 ctlin 10 5;
#X obj 607 -342 ctlin 10 6;
#X obj 697 -339 ctlin 10 7;
#X obj 817 -339 ctlin 10 8;
#X obj 49 -15 vsl 15 32 0 1 0 0 empty empty empty 0 -8 0 8 -262144
-1 -1 0 1;
#X floatatom 88 -3 5 0 0 0 - - -, f 5;
#X obj 89 -24 / 127;
#X obj 48 -53 r init;
#X msg 49 -33 0;
#X obj 90 -44 ctlin 7 1;
#X obj 152 -15 vsl 15 32 0 1 0 0 empty empty empty 0 -8 0 8 -262144
-1 -1 0 1;
#X floatatom 191 -3 5 0 0 0 - - -, f 5;
#X obj 192 -24 / 127;
#X obj 151 -53 r init;
#X msg 152 -33 0;
#X obj 256 -13 vsl 15 32 0 1 0 0 empty empty empty 0 -8 0 8 -262144
-1 -1 0 1;
#X floatatom 295 -1 5 0 0 0 - - -, f 5;
#X obj 296 -22 / 127;
#X obj 255 -51 r init;
#X msg 256 -31 0;
#X obj 193 -44 ctlin 7 2;
#X obj 297 -42 ctlin 7 3;
#X text 43 -70 ghost;
#X msg 49 22 send /ghost_level \$1;
#X msg 153 39 send /brand_level \$1;
#X text 173 -69 brand;
#X text 260 -67 legebil;
#X obj 414 -14 vsl 15 32 0 1 0 0 empty empty empty 0 -8 0 8 -262144
-1 -1 0 1;
#X floatatom 453 -2 5 0 0 0 - - -, f 5;
#X obj 454 -23 / 127;
#X obj 413 -52 r init;
#X msg 414 -32 0;
#X obj 455 -43 ctlin 7 3;
#X text 418 -68 backtrack 0;
#X msg 256 -130 send /babai_synthpling_level \$1;
#X msg 256 24 send /legebil_level \$1;
#X msg 414 23 send /long_sample_0_level \$1;
#X obj 609 -14 vsl 15 32 0 1 0 0 empty empty empty 0 -8 0 8 -262144
-1 -1 0 1;
#X floatatom 648 -2 5 0 0 0 - - -, f 5;
#X obj 649 -23 / 127;
#X obj 608 -52 r init;
#X msg 609 -32 0;
#X obj 650 -43 ctlin 7 3;
#X msg 609 23 send /loop_level \$1;
#X obj 354 152 vsl 15 32 0 1 0 0 empty empty empty 0 -8 0 8 -262144
-1 -1 0 1;
#X floatatom 435 165 5 0 0 0 - - -, f 5;
#X obj 394 143 / 127;
#X obj 353 114 r init;
#X msg 354 134 0;
#X obj 395 123 ctlin 7 3;
#X text 46 78 ONLY FOR TERRAINS VAGUES;
#X text 604 -66 level of feedback;
#X text 603 -77 loop on input;
#X text 347 99 track shuffle;
#X obj 53 147 vsl 15 64 0 1 0 0 empty empty empty 0 -8 0 8 -262144
-1 -1 0 1;
#X floatatom 149 174 5 0 0 0 - - -, f 5;
#X obj 148 153 / 127;
#X obj 52 105 r init;
#X msg 53 125 0;
#X obj 149 133 ctlin 7 3;
#X msg 355 191 send /TV_track_shuffle \$1;
#X obj 519 152 vsl 15 32 0 1 0 0 empty empty empty 0 -8 0 8 -262144
-1 -1 0 1;
#X floatatom 558 164 5 0 0 0 - - -, f 5;
#X obj 559 143 / 127;
#X obj 518 114 r init;
#X msg 519 134 0;
#X obj 560 123 ctlin 7 3;
#X text 512 99 drone/sample mix;
#X msg 519 189 send /TV_drone_mix \$1;
#X obj 794 135 vsl 15 50 0 1 0 0 empty empty empty 0 -9 0 10 -262144
-1 -1 0 1;
#X obj 821 118 / 127;
#X obj 821 101 ctlin 12 3;
#X obj 825 159 int;
#X obj 825 142 * 7.99;
#X obj 825 186 + 1;
#X msg 798 208 send /TV_swap_freq \$1;
#X obj 934 132 vsl 15 50 0 1 0 0 empty empty empty 0 -9 0 10 -262144
-1 -1 0 1;
#X obj 935 188 + 1;
#X msg 935 209 send /TV_swap_dur \$1;
#X obj 965 148 / 127;
#X obj 965 131 ctlin 12 3;
#X floatatom 858 168 5 0 0 0 - - -, f 5;
#X floatatom 975 173 5 0 0 0 - - -, f 5;
#X obj 793 91 r init;
#X msg 794 111 0;
#X obj 933 91 r init;
#X msg 934 111 0;
#X text 779 76 sample swapping frequency and duration;
#X obj 378 164 * 3;
#X obj 666 154 vsl 15 32 0 1 0 0 empty empty empty 0 -8 0 8 -262144
-1 -1 0 1;
#X floatatom 740 169 5 0 0 0 - - -, f 5;
#X obj 706 145 / 127;
#X obj 665 116 r init;
#X msg 666 136 0;
#X obj 707 125 ctlin 7 3;
#X text 659 101 drone/sample mix;
#X msg 666 198 send /TV_drone_size \$1;
#X obj 701 169 * 100;
#X obj 77 145 vsl 15 64 0 1 0 0 empty empty empty 0 -8 0 8 -262144
-1 -1 0 1;
#X obj 100 122 vsl 15 64 0 1 0 0 empty empty empty 0 -8 0 8 -262144
-1 -1 0 1;
#X text 50 88 sequence level choice;
#X msg 100 194 send /terrains_vagues1_level \$1;
#X msg 76 216 send /terrains_vagues2_level \$1;
#X msg 53 234 send /terrains_vagues3_level \$1;
#X obj 38 -531 s porphyrographOut;
#X obj 160 -533 s porphyrographOut;
#X obj 273 -535 s porphyrographOut;
#X obj 379 -536 s porphyrographOut;
#X obj 504 -537 s porphyrographOut;
#X obj 621 -534 s porphyrographOut;
#X obj 733 -539 s porphyrographOut;
#X obj 834 -540 s porphyrographOut;
#X obj 41 -384 s porphyrographOut;
#X obj 162 -399 s porphyrographOut;
#X obj 319 -398 s porphyrographOut;
#X obj 425 -399 s porphyrographOut;
#X obj 547 -398 s porphyrographOut;
#X obj 656 -399 s porphyrographOut;
#X obj 896 -402 s porphyrographOut;
#X obj 34 -265 s porphyrographOut;
#X obj 144 -248 s porphyrographOut;
#X obj 254 -249 s porphyrographOut;
#X obj 372 -250 s porphyrographOut;
#X obj 476 -252 s porphyrographOut;
#X obj 577 -251 s porphyrographOut;
#X obj 672 -251 s porphyrographOut;
#X obj 772 -248 s porphyrographOut;
#X obj 49 -115 s porphyrographOut;
#X obj 152 -99 s porphyrographOut;
#X obj 257 -95 s porphyrographOut;
#X obj 369 -94 s porphyrographOut;
#X obj 483 -94 s porphyrographOut;
#X obj 587 -96 s porphyrographOut;
#X obj 697 -95 s porphyrographOut;
#X obj 799 -94 s porphyrographOut;
#X obj 908 -94 s porphyrographOut;
#X obj 49 39 s porphyrographOut;
#X obj 152 55 s porphyrographOut;
#X obj 257 59 s porphyrographOut;
#X obj 415 58 s porphyrographOut;
#X obj 610 58 s porphyrographOut;
#X obj 104 251 s porphyrographOut;
#X obj 355 224 s porphyrographOut;
#X obj 520 224 s porphyrographOut;
#X obj 667 226 s porphyrographOut;
#X obj 798 225 s porphyrographOut;
#X obj 935 226 s porphyrographOut;
#X obj -19 -423 > 0.5;
#X obj -19 -400 * 0.94;
#X connect 0 0 1 0;
#X connect 0 1 2 0;
#X connect 0 2 3 0;
#X connect 4 0 34 0;
#X connect 4 0 6 0;
#X connect 5 0 4 0;
#X connect 8 0 36 0;
#X connect 8 0 9 0;
#X connect 11 0 38 0;
#X connect 11 0 12 0;
#X connect 14 0 39 0;
#X connect 14 0 15 0;
#X connect 17 0 40 0;
#X connect 17 0 19 0;
#X connect 18 0 17 0;
#X connect 21 0 41 0;
#X connect 21 0 22 0;
#X connect 24 0 42 0;
#X connect 24 0 25 0;
#X connect 27 0 43 0;
#X connect 27 0 28 0;
#X connect 30 0 44 0;
#X connect 30 0 31 0;
#X connect 34 0 359 0;
#X connect 36 0 360 0;
#X connect 38 0 361 0;
#X connect 39 0 362 0;
#X connect 40 0 363 0;
#X connect 41 0 364 0;
#X connect 42 0 365 0;
#X connect 43 0 366 0;
#X connect 44 0 373 0;
#X connect 51 0 8 0;
#X connect 52 0 11 0;
#X connect 53 0 14 0;
#X connect 54 0 21 0;
#X connect 55 0 24 0;
#X connect 56 0 27 0;
#X connect 57 0 30 0;
#X connect 58 0 59 0;
#X connect 58 0 402 0;
#X connect 61 0 85 0;
#X connect 61 0 62 0;
#X connect 64 0 87 0;
#X connect 64 0 65 0;
#X connect 67 0 89 0;
#X connect 67 0 68 0;
#X connect 70 0 78 0;
#X connect 70 0 71 0;
#X connect 73 0 80 0;
#X connect 73 0 74 0;
#X connect 76 0 67 0;
#X connect 78 0 372 0;
#X connect 80 0 371 0;
#X connect 81 0 70 0;
#X connect 83 0 367 0;
#X connect 85 0 368 0;
#X connect 87 0 369 0;
#X connect 89 0 370 0;
#X connect 90 0 58 0;
#X connect 91 0 61 0;
#X connect 92 0 64 0;
#X connect 93 0 73 0;
#X connect 94 0 5 0;
#X connect 95 0 51 0;
#X connect 96 0 52 0;
#X connect 97 0 53 0;
#X connect 98 0 18 0;
#X connect 99 0 54 0;
#X connect 100 0 55 0;
#X connect 101 0 56 0;
#X connect 102 0 57 0;
#X connect 103 0 90 0;
#X connect 104 0 91 0;
#X connect 105 0 92 0;
#X connect 106 0 76 0;
#X connect 107 0 93 0;
#X connect 108 0 81 0;
#X connect 109 0 114 0;
#X connect 109 0 110 0;
#X connect 112 0 113 0;
#X connect 113 0 109 0;
#X connect 114 0 374 0;
#X connect 115 0 219 0;
#X connect 115 0 116 0;
#X connect 118 0 119 0;
#X connect 119 0 115 0;
#X connect 120 0 117 0;
#X connect 121 0 205 0;
#X connect 121 0 122 0;
#X connect 124 0 125 0;
#X connect 125 0 121 0;
#X connect 126 0 207 0;
#X connect 126 0 127 0;
#X connect 129 0 130 0;
#X connect 130 0 126 0;
#X connect 131 0 209 0;
#X connect 131 0 132 0;
#X connect 134 0 135 0;
#X connect 135 0 131 0;
#X connect 136 0 211 0;
#X connect 136 0 137 0;
#X connect 139 0 140 0;
#X connect 140 0 136 0;
#X connect 141 0 213 0;
#X connect 141 0 142 0;
#X connect 144 0 145 0;
#X connect 145 0 141 0;
#X connect 146 0 215 0;
#X connect 146 0 147 0;
#X connect 149 0 150 0;
#X connect 150 0 146 0;
#X connect 151 0 217 0;
#X connect 151 0 152 0;
#X connect 154 0 155 0;
#X connect 155 0 151 0;
#X connect 156 0 221 0;
#X connect 156 0 157 0;
#X connect 159 0 160 0;
#X connect 160 0 156 0;
#X connect 161 0 289 0;
#X connect 161 0 162 0;
#X connect 164 0 165 0;
#X connect 165 0 161 0;
#X connect 166 0 225 0;
#X connect 166 0 167 0;
#X connect 169 0 170 0;
#X connect 170 0 166 0;
#X connect 171 0 227 0;
#X connect 171 0 172 0;
#X connect 174 0 175 0;
#X connect 175 0 171 0;
#X connect 176 0 229 0;
#X connect 176 0 177 0;
#X connect 179 0 180 0;
#X connect 180 0 176 0;
#X connect 181 0 231 0;
#X connect 181 0 182 0;
#X connect 184 0 185 0;
#X connect 185 0 181 0;
#X connect 186 0 233 0;
#X connect 186 0 187 0;
#X connect 189 0 190 0;
#X connect 190 0 186 0;
#X connect 191 0 235 0;
#X connect 191 0 192 0;
#X connect 194 0 195 0;
#X connect 195 0 191 0;
#X connect 196 0 158 0;
#X connect 197 0 163 0;
#X connect 198 0 168 0;
#X connect 199 0 173 0;
#X connect 200 0 178 0;
#X connect 201 0 183 0;
#X connect 202 0 188 0;
#X connect 203 0 193 0;
#X connect 205 0 375 0;
#X connect 207 0 376 0;
#X connect 209 0 377 0;
#X connect 211 0 378 0;
#X connect 213 0 379 0;
#X connect 215 0 380 0;
#X connect 217 0 381 0;
#X connect 219 0 382 0;
#X connect 221 0 383 0;
#X connect 225 0 385 0;
#X connect 227 0 386 0;
#X connect 229 0 387 0;
#X connect 231 0 388 0;
#X connect 233 0 389 0;
#X connect 235 0 390 0;
#X connect 236 0 7 0;
#X connect 237 0 10 0;
#X connect 238 0 13 0;
#X connect 239 0 16 0;
#X connect 240 0 20 0;
#X connect 241 0 23 0;
#X connect 242 0 26 0;
#X connect 243 0 29 0;
#X connect 244 0 60 0;
#X connect 245 0 63 0;
#X connect 246 0 66 0;
#X connect 247 0 69 0;
#X connect 248 0 75 0;
#X connect 249 0 72 0;
#X connect 250 0 32 0;
#X connect 251 0 111 0;
#X connect 252 0 123 0;
#X connect 253 0 128 0;
#X connect 254 0 133 0;
#X connect 255 0 138 0;
#X connect 256 0 143 0;
#X connect 257 0 148 0;
#X connect 258 0 153 0;
#X connect 259 0 278 0;
#X connect 259 0 260 0;
#X connect 262 0 263 0;
#X connect 263 0 259 0;
#X connect 264 0 261 0;
#X connect 265 0 279 0;
#X connect 265 0 266 0;
#X connect 268 0 269 0;
#X connect 269 0 265 0;
#X connect 270 0 290 0;
#X connect 270 0 271 0;
#X connect 273 0 274 0;
#X connect 274 0 270 0;
#X connect 275 0 267 0;
#X connect 276 0 272 0;
#X connect 278 0 391 0;
#X connect 279 0 392 0;
#X connect 282 0 291 0;
#X connect 282 0 283 0;
#X connect 285 0 286 0;
#X connect 286 0 282 0;
#X connect 287 0 284 0;
#X connect 289 0 384 0;
#X connect 290 0 393 0;
#X connect 291 0 394 0;
#X connect 292 0 298 0;
#X connect 292 0 293 0;
#X connect 295 0 296 0;
#X connect 296 0 292 0;
#X connect 297 0 294 0;
#X connect 298 0 395 0;
#X connect 299 0 343 0;
#X connect 302 0 303 0;
#X connect 303 0 299 0;
#X connect 304 0 301 0;
#X connect 309 0 358 0;
#X connect 309 0 310 0;
#X connect 312 0 313 0;
#X connect 313 0 309 0;
#X connect 313 0 353 0;
#X connect 313 0 354 0;
#X connect 314 0 311 0;
#X connect 315 0 397 0;
#X connect 316 0 317 0;
#X connect 316 0 323 0;
#X connect 319 0 320 0;
#X connect 320 0 316 0;
#X connect 321 0 318 0;
#X connect 323 0 398 0;
#X connect 324 0 328 0;
#X connect 326 0 325 0;
#X connect 327 0 329 0;
#X connect 328 0 327 0;
#X connect 329 0 330 0;
#X connect 329 0 336 0;
#X connect 330 0 400 0;
#X connect 331 0 332 0;
#X connect 332 0 333 0;
#X connect 332 0 337 0;
#X connect 333 0 401 0;
#X connect 335 0 334 0;
#X connect 338 0 339 0;
#X connect 339 0 324 0;
#X connect 340 0 341 0;
#X connect 341 0 331 0;
#X connect 343 0 300 0;
#X connect 343 0 315 0;
#X connect 344 0 352 0;
#X connect 347 0 348 0;
#X connect 348 0 344 0;
#X connect 349 0 346 0;
#X connect 351 0 399 0;
#X connect 352 0 351 0;
#X connect 352 0 345 0;
#X connect 353 0 357 0;
#X connect 353 0 310 0;
#X connect 354 0 356 0;
#X connect 354 0 310 0;
#X connect 356 0 396 0;
#X connect 357 0 396 0;
#X connect 358 0 396 0;
#X connect 402 0 403 0;
#X connect 403 0 83 0;
#X restore 809 633 pd allSequencesAndEffects;
#X obj 879 601 send init;
#N canvas 191 144 450 409 clock 0;
#X obj 177 210 / 60;
#X obj 177 238 int;
#X obj 264 286 -;
#X obj 279 254 * 60;
#X obj 177 89 timer;
#X obj 177 113 / 1000;
#X obj 204 62 metro 1000;
#X obj 177 47 bng 15 250 50 0 empty empty empty 17 7 0 10 -262144 -1
-1;
#X obj 177 167 int;
#X obj 177 22 inlet;
#X text 175 -1 launch msg reception;
#X text 202 45 start of the elapsed time count;
#X text 184 348 DISPLAY IN LIVE SCORE;
#X text 184 336 MN/SEC ELAPSED TIME;
#X floatatom 280 204 5 0 0 0 - - -, f 5;
#X obj 33 263 makefilename %d;
#X msg 33 280 \; mn_can label \$1;
#X obj 314 285 makefilename %d;
#X msg 314 303 \; sec_can label \$1;
#X obj 81 80 r startclock;
#X obj 177 139 + 0;
#X text 252 89 offset for restart;
#X obj 248 112 r timeOffset;
#X obj 331 105 r reset;
#X msg 331 122 0;
#X connect 0 0 1 0;
#X connect 1 0 3 0;
#X connect 1 0 15 0;
#X connect 2 0 17 0;
#X connect 3 0 2 1;
#X connect 4 0 5 0;
#X connect 5 0 20 0;
#X connect 6 0 4 1;
#X connect 7 0 4 0;
#X connect 7 0 6 0;
#X connect 8 0 0 0;
#X connect 8 0 2 0;
#X connect 8 0 14 0;
#X connect 9 0 7 0;
#X connect 15 0 16 0;
#X connect 17 0 18 0;
#X connect 19 0 7 0;
#X connect 20 0 8 0;
#X connect 22 0 20 1;
#X connect 23 0 24 0;
#X connect 24 0 20 1;
#X restore 799 450 pd clock;
#N canvas 0 50 1278 860 rhythmSequences 0;
#X obj 128 504 vsl 15 64 0 3 0 0 empty empty empty 0 -8 0 8 -262144
-1 -1 0 1;
#X floatatom 164 607 5 0 0 0 - - -, f 5;
#X obj 103 427 r init;
#X msg 104 447 0;
#X obj 95 501 vsl 15 64 0 3 0 0 empty empty empty 0 -8 0 8 -262144
-1 -1 0 1;
#X obj 57 500 vsl 15 64 0 3 0 0 empty empty empty 0 -8 0 8 -262144
-1 -1 0 1;
#X obj 232 490 - 5;
#X obj 200 462 - 5;
#X obj 166 437 - 5;
#X obj 234 514 / 40;
#X obj 198 489 / 40;
#X obj 165 466 / 40;
#X obj -12 776 s porphyrographOut;
#X obj 47 120 vsl 15 64 0 3 0 0 empty empty empty 0 -8 0 8 -262144
-1 -1 0 1;
#X floatatom 1 204 5 0 0 0 - - -, f 5;
#X obj 38 41 r init;
#X msg 39 61 0;
#X obj 85 125 vsl 15 64 0 3 0 0 empty empty empty 0 -8 0 8 -262144
-1 -1 0 1;
#X obj 126 147 vsl 15 64 0 3 0 0 empty empty empty 0 -8 0 8 -262144
-1 -1 0 1;
#X obj 15 112 vsl 15 64 0 3 0 0 empty empty empty 0 -8 0 8 -262144
-1 -1 0 1;
#X obj 221 139 - 5;
#X obj 186 115 - 5;
#X obj 154 87 - 5;
#X obj 120 62 - 5;
#X obj 219 163 / 40;
#X obj 188 139 / 40;
#X obj 152 114 / 40;
#X obj 119 91 / 40;
#X obj 540 81 vsl 15 64 0 3 0 0 empty empty empty 0 -8 0 8 -262144
-1 -1 0 1;
#X floatatom 608 171 5 0 0 0 - - -, f 5;
#X obj 512 19 r init;
#X msg 513 39 0;
#X obj 568 84 vsl 15 64 0 3 0 0 empty empty empty 0 -8 0 8 -262144
-1 -1 0 1;
#X obj 594 83 vsl 15 64 0 3 0 0 empty empty empty 0 -8 0 8 -262144
-1 -1 1365 1;
#X obj 511 82 vsl 15 64 0 3 0 0 empty empty empty 0 -8 0 8 -262144
-1 -1 0 1;
#X obj 665 115 - 5;
#X obj 654 79 - 5;
#X obj 622 51 - 5;
#X obj 588 26 - 5;
#X obj 663 139 / 40;
#X obj 632 115 / 40;
#X obj 620 78 / 40;
#X obj 587 55 / 40;
#X obj 587 4 ctlin 7 4;
#X obj 620 27 ctlin 10 4;
#X obj 654 53 ctlin 12 4;
#X obj 692 77 ctlin 13 4;
#X obj 152 63 ctlin 10 3;
#X obj 186 89 ctlin 12 3;
#X obj 224 113 ctlin 13 3;
#X obj 908 96 vsl 15 64 0 3 0 0 empty empty empty 0 -8 0 8 -262144
-1 -1 0 1;
#X floatatom 1006 185 5 0 0 0 - - -, f 5;
#X obj 953 22 r init;
#X msg 954 42 0;
#X obj 953 96 vsl 15 64 0 3 0 0 empty empty empty 0 -8 0 8 -262144
-1 -1 0 1;
#X obj 993 97 vsl 15 64 0 3 0 0 empty empty empty 0 -8 0 8 -262144
-1 -1 0 1;
#X obj 859 94 vsl 15 64 0 3 0 0 empty empty empty 0 -8 0 8 -262144
-1 -1 0 1;
#X obj 1136 120 - 5;
#X obj 1101 96 - 5;
#X obj 1069 68 - 5;
#X obj 1035 43 - 5;
#X obj 1134 144 / 40;
#X obj 1103 120 / 40;
#X obj 1067 95 / 40;
#X obj 1034 72 / 40;
#X obj 1034 21 ctlin 7 5;
#X obj 1067 44 ctlin 10 5;
#X obj 1101 70 ctlin 12 5;
#X obj 1139 94 ctlin 13 5;
#X obj 862 525 s porphyrographOut;
#X obj 496 569 s porphyrographOut;
#X obj 213 345 s porphyrographOut;
#X obj 119 40 ctlin 7 3;
#X msg 189 292 send / \$1;
#X obj 27 499 vsl 15 64 0 3 0 0 empty empty empty 0 -8 0 8 -262144
-1 -1 0 1;
#X obj 269 517 - 5;
#X obj 267 541 / 40;
#X msg 245 252 send /level \$1;
#X msg 218 272 send /drum_level \$1;
#X obj 165 415 ctlin 10 6;
#X obj 198 438 ctlin 13 6;
#X obj 232 464 ctlin 12 6;
#X obj 272 491 ctlin 7 6;
#X msg 567 408 send /YEsynthbase_level \$1;
#X msg 509 194 send /YEplikplik2_level \$1;
#X msg 908 305 send /YEpang_level \$1;
#X msg 860 202 send /YEhihatsmellow_level \$1;
#X msg 96 747 send /YEspaceship_level \$1;
#X msg 954 395 send /TEbassdrum_level \$1;
#X msg 540 323 send /TEkrekke_level \$1;
#X msg 517 216 send /TEklklkl_level \$1;
#X msg 908 328 send /TEsvirvl_level \$1;
#X msg 860 224 send /TEhihats_level \$1;
#X msg 616 574 send /dumpdrum_level \$1;
#X msg 568 429 send /TEbaatbaat_level \$1;
#X msg 958 418 send /TEkrakdrum_level \$1;
#X msg 56 689 send /YEhihihats_level \$1;
#X msg 538 301 send /YEsynthextra1_level \$1;
#X msg 134 794 send /YEjungle_level \$1;
#X msg 28 629 send /YEsynthbirds_level \$1;
#X msg 988 525 send /YEplikplik_level \$1;
#N canvas 533 145 579 328 modal 0;
#X obj 80 35 inlet;
#X text 81 5 MODE 0 / 1 switch;
#X obj 213 56 r interfaceNb;
#X obj 28 230 spigot;
#X obj 27 254 outlet;
#X msg 93 200 0;
#X msg 54 199 1;
#X obj 213 85 route 0 1 2 3 4;
#X obj 106 234 spigot;
#X obj 105 258 outlet;
#X msg 171 204 0;
#X msg 132 203 1;
#X obj 189 237 spigot;
#X obj 188 261 outlet;
#X msg 254 207 0;
#X msg 215 206 1;
#X obj 264 239 spigot;
#X obj 263 263 outlet;
#X msg 329 209 0;
#X msg 290 208 1;
#X obj 338 240 spigot;
#X obj 337 264 outlet;
#X msg 403 210 0;
#X msg 364 209 1;
#X connect 0 0 3 0;
#X connect 0 0 8 0;
#X connect 0 0 12 0;
#X connect 0 0 16 0;
#X connect 0 0 20 0;
#X connect 2 0 7 0;
#X connect 3 0 4 0;
#X connect 5 0 3 1;
#X connect 6 0 3 1;
#X connect 7 0 6 0;
#X connect 7 0 10 0;
#X connect 7 0 14 0;
#X connect 7 0 18 0;
#X connect 7 0 22 0;
#X connect 7 1 5 0;
#X connect 7 1 11 0;
#X connect 7 1 18 0;
#X connect 7 1 22 0;
#X connect 7 1 14 0;
#X connect 7 2 5 0;
#X connect 7 2 15 0;
#X connect 7 2 10 0;
#X connect 7 2 22 0;
#X connect 7 2 18 0;
#X connect 7 3 5 0;
#X connect 7 3 19 0;
#X connect 7 3 10 0;
#X connect 7 3 14 0;
#X connect 7 3 22 0;
#X connect 7 4 5 0;
#X connect 7 4 23 0;
#X connect 7 4 10 0;
#X connect 7 4 18 0;
#X connect 7 4 14 0;
#X connect 8 0 9 0;
#X connect 10 0 8 1;
#X connect 11 0 8 1;
#X connect 12 0 13 0;
#X connect 14 0 12 1;
#X connect 15 0 12 1;
#X connect 16 0 17 0;
#X connect 18 0 16 1;
#X connect 19 0 16 1;
#X connect 20 0 21 0;
#X connect 22 0 20 1;
#X connect 23 0 20 1;
#X restore 987 501 pd modal;
#N canvas 533 145 579 328 modal 0;
#X obj 80 35 inlet;
#X text 81 5 MODE 0 / 1 switch;
#X obj 213 56 r interfaceNb;
#X obj 28 230 spigot;
#X obj 27 254 outlet;
#X msg 93 200 0;
#X msg 54 199 1;
#X obj 213 85 route 0 1 2 3 4;
#X obj 106 234 spigot;
#X obj 105 258 outlet;
#X msg 171 204 0;
#X msg 132 203 1;
#X obj 189 237 spigot;
#X obj 188 261 outlet;
#X msg 254 207 0;
#X msg 215 206 1;
#X obj 264 239 spigot;
#X obj 263 263 outlet;
#X msg 329 209 0;
#X msg 290 208 1;
#X obj 338 240 spigot;
#X obj 337 264 outlet;
#X msg 403 210 0;
#X msg 364 209 1;
#X connect 0 0 3 0;
#X connect 0 0 8 0;
#X connect 0 0 12 0;
#X connect 0 0 16 0;
#X connect 0 0 20 0;
#X connect 2 0 7 0;
#X connect 3 0 4 0;
#X connect 5 0 3 1;
#X connect 6 0 3 1;
#X connect 7 0 6 0;
#X connect 7 0 10 0;
#X connect 7 0 14 0;
#X connect 7 0 18 0;
#X connect 7 0 22 0;
#X connect 7 1 5 0;
#X connect 7 1 11 0;
#X connect 7 1 18 0;
#X connect 7 1 22 0;
#X connect 7 1 14 0;
#X connect 7 2 5 0;
#X connect 7 2 15 0;
#X connect 7 2 10 0;
#X connect 7 2 22 0;
#X connect 7 2 18 0;
#X connect 7 3 5 0;
#X connect 7 3 19 0;
#X connect 7 3 10 0;
#X connect 7 3 14 0;
#X connect 7 3 22 0;
#X connect 7 4 5 0;
#X connect 7 4 23 0;
#X connect 7 4 10 0;
#X connect 7 4 18 0;
#X connect 7 4 14 0;
#X connect 8 0 9 0;
#X connect 10 0 8 1;
#X connect 11 0 8 1;
#X connect 12 0 13 0;
#X connect 14 0 12 1;
#X connect 15 0 12 1;
#X connect 16 0 17 0;
#X connect 18 0 16 1;
#X connect 19 0 16 1;
#X connect 20 0 21 0;
#X connect 22 0 20 1;
#X connect 23 0 20 1;
#X restore 955 372 pd modal;
#X text 32 22 comment;
#X text 323 4 comment;
#X text 506 0 comment;
#X text 97 408 comment;
#N canvas 533 145 579 328 modal 0;
#X obj 80 35 inlet;
#X text 81 5 MODE 0 / 1 switch;
#X obj 213 56 r interfaceNb;
#X obj 28 230 spigot;
#X obj 27 254 outlet;
#X msg 93 200 0;
#X msg 54 199 1;
#X obj 213 85 route 0 1 2 3 4;
#X obj 106 234 spigot;
#X obj 105 258 outlet;
#X msg 171 204 0;
#X msg 132 203 1;
#X obj 189 237 spigot;
#X obj 188 261 outlet;
#X msg 254 207 0;
#X msg 215 206 1;
#X obj 264 239 spigot;
#X obj 263 263 outlet;
#X msg 329 209 0;
#X msg 290 208 1;
#X obj 338 240 spigot;
#X obj 337 264 outlet;
#X msg 403 210 0;
#X msg 364 209 1;
#X connect 0 0 3 0;
#X connect 0 0 8 0;
#X connect 0 0 12 0;
#X connect 0 0 16 0;
#X connect 0 0 20 0;
#X connect 2 0 7 0;
#X connect 3 0 4 0;
#X connect 5 0 3 1;
#X connect 6 0 3 1;
#X connect 7 0 6 0;
#X connect 7 0 10 0;
#X connect 7 0 14 0;
#X connect 7 0 18 0;
#X connect 7 0 22 0;
#X connect 7 1 5 0;
#X connect 7 1 11 0;
#X connect 7 1 18 0;
#X connect 7 1 22 0;
#X connect 7 1 14 0;
#X connect 7 2 5 0;
#X connect 7 2 15 0;
#X connect 7 2 10 0;
#X connect 7 2 22 0;
#X connect 7 2 18 0;
#X connect 7 3 5 0;
#X connect 7 3 19 0;
#X connect 7 3 10 0;
#X connect 7 3 14 0;
#X connect 7 3 22 0;
#X connect 7 4 5 0;
#X connect 7 4 23 0;
#X connect 7 4 10 0;
#X connect 7 4 18 0;
#X connect 7 4 14 0;
#X connect 8 0 9 0;
#X connect 10 0 8 1;
#X connect 11 0 8 1;
#X connect 12 0 13 0;
#X connect 14 0 12 1;
#X connect 15 0 12 1;
#X connect 16 0 17 0;
#X connect 18 0 16 1;
#X connect 19 0 16 1;
#X connect 20 0 21 0;
#X connect 22 0 20 1;
#X connect 23 0 20 1;
#X restore 507 162 pd modal;
#N canvas 533 145 579 328 modal 0;
#X obj 80 35 inlet;
#X text 81 5 MODE 0 / 1 switch;
#X obj 213 56 r interfaceNb;
#X obj 28 230 spigot;
#X obj 27 254 outlet;
#X msg 93 200 0;
#X msg 54 199 1;
#X obj 213 85 route 0 1 2 3 4;
#X obj 106 234 spigot;
#X obj 105 258 outlet;
#X msg 171 204 0;
#X msg 132 203 1;
#X obj 189 237 spigot;
#X obj 188 261 outlet;
#X msg 254 207 0;
#X msg 215 206 1;
#X obj 264 239 spigot;
#X obj 263 263 outlet;
#X msg 329 209 0;
#X msg 290 208 1;
#X obj 338 240 spigot;
#X obj 337 264 outlet;
#X msg 403 210 0;
#X msg 364 209 1;
#X connect 0 0 3 0;
#X connect 0 0 8 0;
#X connect 0 0 12 0;
#X connect 0 0 16 0;
#X connect 0 0 20 0;
#X connect 2 0 7 0;
#X connect 3 0 4 0;
#X connect 5 0 3 1;
#X connect 6 0 3 1;
#X connect 7 0 6 0;
#X connect 7 0 10 0;
#X connect 7 0 14 0;
#X connect 7 0 18 0;
#X connect 7 0 22 0;
#X connect 7 1 5 0;
#X connect 7 1 11 0;
#X connect 7 1 18 0;
#X connect 7 1 22 0;
#X connect 7 1 14 0;
#X connect 7 2 5 0;
#X connect 7 2 15 0;
#X connect 7 2 10 0;
#X connect 7 2 22 0;
#X connect 7 2 18 0;
#X connect 7 3 5 0;
#X connect 7 3 19 0;
#X connect 7 3 10 0;
#X connect 7 3 14 0;
#X connect 7 3 22 0;
#X connect 7 4 5 0;
#X connect 7 4 23 0;
#X connect 7 4 10 0;
#X connect 7 4 18 0;
#X connect 7 4 14 0;
#X connect 8 0 9 0;
#X connect 10 0 8 1;
#X connect 11 0 8 1;
#X connect 12 0 13 0;
#X connect 14 0 12 1;
#X connect 15 0 12 1;
#X connect 16 0 17 0;
#X connect 18 0 16 1;
#X connect 19 0 16 1;
#X connect 20 0 21 0;
#X connect 22 0 20 1;
#X connect 23 0 20 1;
#X restore 544 275 pd modal;
#N canvas 533 145 579 328 modal 0;
#X obj 80 35 inlet;
#X text 81 5 MODE 0 / 1 switch;
#X obj 213 56 r interfaceNb;
#X obj 28 230 spigot;
#X obj 27 254 outlet;
#X msg 93 200 0;
#X msg 54 199 1;
#X obj 213 85 route 0 1 2 3 4;
#X obj 106 234 spigot;
#X obj 105 258 outlet;
#X msg 171 204 0;
#X msg 132 203 1;
#X obj 189 237 spigot;
#X obj 188 261 outlet;
#X msg 254 207 0;
#X msg 215 206 1;
#X obj 264 239 spigot;
#X obj 263 263 outlet;
#X msg 329 209 0;
#X msg 290 208 1;
#X obj 338 240 spigot;
#X obj 337 264 outlet;
#X msg 403 210 0;
#X msg 364 209 1;
#X connect 0 0 3 0;
#X connect 0 0 8 0;
#X connect 0 0 12 0;
#X connect 0 0 16 0;
#X connect 0 0 20 0;
#X connect 2 0 7 0;
#X connect 3 0 4 0;
#X connect 5 0 3 1;
#X connect 6 0 3 1;
#X connect 7 0 6 0;
#X connect 7 0 10 0;
#X connect 7 0 14 0;
#X connect 7 0 18 0;
#X connect 7 0 22 0;
#X connect 7 1 5 0;
#X connect 7 1 11 0;
#X connect 7 1 18 0;
#X connect 7 1 22 0;
#X connect 7 1 14 0;
#X connect 7 2 5 0;
#X connect 7 2 15 0;
#X connect 7 2 10 0;
#X connect 7 2 22 0;
#X connect 7 2 18 0;
#X connect 7 3 5 0;
#X connect 7 3 19 0;
#X connect 7 3 10 0;
#X connect 7 3 14 0;
#X connect 7 3 22 0;
#X connect 7 4 5 0;
#X connect 7 4 23 0;
#X connect 7 4 10 0;
#X connect 7 4 18 0;
#X connect 7 4 14 0;
#X connect 8 0 9 0;
#X connect 10 0 8 1;
#X connect 11 0 8 1;
#X connect 12 0 13 0;
#X connect 14 0 12 1;
#X connect 15 0 12 1;
#X connect 16 0 17 0;
#X connect 18 0 16 1;
#X connect 19 0 16 1;
#X connect 20 0 21 0;
#X connect 22 0 20 1;
#X connect 23 0 20 1;
#X restore 571 384 pd modal;
#N canvas 533 145 579 328 modal 0;
#X obj 80 35 inlet;
#X text 81 5 MODE 0 / 1 switch;
#X obj 213 56 r interfaceNb;
#X obj 28 230 spigot;
#X obj 27 254 outlet;
#X msg 93 200 0;
#X msg 54 199 1;
#X obj 213 85 route 0 1 2 3 4;
#X obj 106 234 spigot;
#X obj 105 258 outlet;
#X msg 171 204 0;
#X msg 132 203 1;
#X obj 189 237 spigot;
#X obj 188 261 outlet;
#X msg 254 207 0;
#X msg 215 206 1;
#X obj 264 239 spigot;
#X obj 263 263 outlet;
#X msg 329 209 0;
#X msg 290 208 1;
#X obj 338 240 spigot;
#X obj 337 264 outlet;
#X msg 403 210 0;
#X msg 364 209 1;
#X connect 0 0 3 0;
#X connect 0 0 8 0;
#X connect 0 0 12 0;
#X connect 0 0 16 0;
#X connect 0 0 20 0;
#X connect 2 0 7 0;
#X connect 3 0 4 0;
#X connect 5 0 3 1;
#X connect 6 0 3 1;
#X connect 7 0 6 0;
#X connect 7 0 10 0;
#X connect 7 0 14 0;
#X connect 7 0 18 0;
#X connect 7 0 22 0;
#X connect 7 1 5 0;
#X connect 7 1 11 0;
#X connect 7 1 18 0;
#X connect 7 1 22 0;
#X connect 7 1 14 0;
#X connect 7 2 5 0;
#X connect 7 2 15 0;
#X connect 7 2 10 0;
#X connect 7 2 22 0;
#X connect 7 2 18 0;
#X connect 7 3 5 0;
#X connect 7 3 19 0;
#X connect 7 3 10 0;
#X connect 7 3 14 0;
#X connect 7 3 22 0;
#X connect 7 4 5 0;
#X connect 7 4 23 0;
#X connect 7 4 10 0;
#X connect 7 4 18 0;
#X connect 7 4 14 0;
#X connect 8 0 9 0;
#X connect 10 0 8 1;
#X connect 11 0 8 1;
#X connect 12 0 13 0;
#X connect 14 0 12 1;
#X connect 15 0 12 1;
#X connect 16 0 17 0;
#X connect 18 0 16 1;
#X connect 19 0 16 1;
#X connect 20 0 21 0;
#X connect 22 0 20 1;
#X connect 23 0 20 1;
#X restore 615 541 pd modal;
#N canvas 533 145 579 328 modal 0;
#X obj 80 35 inlet;
#X text 81 5 MODE 0 / 1 switch;
#X obj 213 56 r interfaceNb;
#X obj 28 230 spigot;
#X obj 27 254 outlet;
#X msg 93 200 0;
#X msg 54 199 1;
#X obj 213 85 route 0 1 2 3 4;
#X obj 106 234 spigot;
#X obj 105 258 outlet;
#X msg 171 204 0;
#X msg 132 203 1;
#X obj 189 237 spigot;
#X obj 188 261 outlet;
#X msg 254 207 0;
#X msg 215 206 1;
#X obj 264 239 spigot;
#X obj 263 263 outlet;
#X msg 329 209 0;
#X msg 290 208 1;
#X obj 338 240 spigot;
#X obj 337 264 outlet;
#X msg 403 210 0;
#X msg 364 209 1;
#X connect 0 0 3 0;
#X connect 0 0 8 0;
#X connect 0 0 12 0;
#X connect 0 0 16 0;
#X connect 0 0 20 0;
#X connect 2 0 7 0;
#X connect 3 0 4 0;
#X connect 5 0 3 1;
#X connect 6 0 3 1;
#X connect 7 0 6 0;
#X connect 7 0 10 0;
#X connect 7 0 14 0;
#X connect 7 0 18 0;
#X connect 7 0 22 0;
#X connect 7 1 5 0;
#X connect 7 1 11 0;
#X connect 7 1 18 0;
#X connect 7 1 22 0;
#X connect 7 1 14 0;
#X connect 7 2 5 0;
#X connect 7 2 15 0;
#X connect 7 2 10 0;
#X connect 7 2 22 0;
#X connect 7 2 18 0;
#X connect 7 3 5 0;
#X connect 7 3 19 0;
#X connect 7 3 10 0;
#X connect 7 3 14 0;
#X connect 7 3 22 0;
#X connect 7 4 5 0;
#X connect 7 4 23 0;
#X connect 7 4 10 0;
#X connect 7 4 18 0;
#X connect 7 4 14 0;
#X connect 8 0 9 0;
#X connect 10 0 8 1;
#X connect 11 0 8 1;
#X connect 12 0 13 0;
#X connect 14 0 12 1;
#X connect 15 0 12 1;
#X connect 16 0 17 0;
#X connect 18 0 16 1;
#X connect 19 0 16 1;
#X connect 20 0 21 0;
#X connect 22 0 20 1;
#X connect 23 0 20 1;
#X restore 860 180 pd modal;
#N canvas 533 145 579 328 modal 0;
#X obj 80 35 inlet;
#X text 81 5 MODE 0 / 1 switch;
#X obj 213 56 r interfaceNb;
#X obj 28 230 spigot;
#X obj 27 254 outlet;
#X msg 93 200 0;
#X msg 54 199 1;
#X obj 213 85 route 0 1 2 3 4;
#X obj 106 234 spigot;
#X obj 105 258 outlet;
#X msg 171 204 0;
#X msg 132 203 1;
#X obj 189 237 spigot;
#X obj 188 261 outlet;
#X msg 254 207 0;
#X msg 215 206 1;
#X obj 264 239 spigot;
#X obj 263 263 outlet;
#X msg 329 209 0;
#X msg 290 208 1;
#X obj 338 240 spigot;
#X obj 337 264 outlet;
#X msg 403 210 0;
#X msg 364 209 1;
#X connect 0 0 3 0;
#X connect 0 0 8 0;
#X connect 0 0 12 0;
#X connect 0 0 16 0;
#X connect 0 0 20 0;
#X connect 2 0 7 0;
#X connect 3 0 4 0;
#X connect 5 0 3 1;
#X connect 6 0 3 1;
#X connect 7 0 6 0;
#X connect 7 0 10 0;
#X connect 7 0 14 0;
#X connect 7 0 18 0;
#X connect 7 0 22 0;
#X connect 7 1 5 0;
#X connect 7 1 11 0;
#X connect 7 1 18 0;
#X connect 7 1 22 0;
#X connect 7 1 14 0;
#X connect 7 2 5 0;
#X connect 7 2 15 0;
#X connect 7 2 10 0;
#X connect 7 2 22 0;
#X connect 7 2 18 0;
#X connect 7 3 5 0;
#X connect 7 3 19 0;
#X connect 7 3 10 0;
#X connect 7 3 14 0;
#X connect 7 3 22 0;
#X connect 7 4 5 0;
#X connect 7 4 23 0;
#X connect 7 4 10 0;
#X connect 7 4 18 0;
#X connect 7 4 14 0;
#X connect 8 0 9 0;
#X connect 10 0 8 1;
#X connect 11 0 8 1;
#X connect 12 0 13 0;
#X connect 14 0 12 1;
#X connect 15 0 12 1;
#X connect 16 0 17 0;
#X connect 18 0 16 1;
#X connect 19 0 16 1;
#X connect 20 0 21 0;
#X connect 22 0 20 1;
#X connect 23 0 20 1;
#X restore 909 282 pd modal;
#N canvas 533 145 579 328 modal 0;
#X obj 80 35 inlet;
#X text 81 5 MODE 0 / 1 switch;
#X obj 213 56 r interfaceNb;
#X obj 28 230 spigot;
#X obj 27 254 outlet;
#X msg 93 200 0;
#X msg 54 199 1;
#X obj 213 85 route 0 1 2 3 4;
#X obj 106 234 spigot;
#X obj 105 258 outlet;
#X msg 171 204 0;
#X msg 132 203 1;
#X obj 189 237 spigot;
#X obj 188 261 outlet;
#X msg 254 207 0;
#X msg 215 206 1;
#X obj 264 239 spigot;
#X obj 263 263 outlet;
#X msg 329 209 0;
#X msg 290 208 1;
#X obj 338 240 spigot;
#X obj 337 264 outlet;
#X msg 403 210 0;
#X msg 364 209 1;
#X connect 0 0 3 0;
#X connect 0 0 8 0;
#X connect 0 0 12 0;
#X connect 0 0 16 0;
#X connect 0 0 20 0;
#X connect 2 0 7 0;
#X connect 3 0 4 0;
#X connect 5 0 3 1;
#X connect 6 0 3 1;
#X connect 7 0 6 0;
#X connect 7 0 10 0;
#X connect 7 0 14 0;
#X connect 7 0 18 0;
#X connect 7 0 22 0;
#X connect 7 1 5 0;
#X connect 7 1 11 0;
#X connect 7 1 18 0;
#X connect 7 1 22 0;
#X connect 7 1 14 0;
#X connect 7 2 5 0;
#X connect 7 2 15 0;
#X connect 7 2 10 0;
#X connect 7 2 22 0;
#X connect 7 2 18 0;
#X connect 7 3 5 0;
#X connect 7 3 19 0;
#X connect 7 3 10 0;
#X connect 7 3 14 0;
#X connect 7 3 22 0;
#X connect 7 4 5 0;
#X connect 7 4 23 0;
#X connect 7 4 10 0;
#X connect 7 4 18 0;
#X connect 7 4 14 0;
#X connect 8 0 9 0;
#X connect 10 0 8 1;
#X connect 11 0 8 1;
#X connect 12 0 13 0;
#X connect 14 0 12 1;
#X connect 15 0 12 1;
#X connect 16 0 17 0;
#X connect 18 0 16 1;
#X connect 19 0 16 1;
#X connect 20 0 21 0;
#X connect 22 0 20 1;
#X connect 23 0 20 1;
#X restore 57 664 pd modal;
#N canvas 533 145 579 328 modal 0;
#X obj 80 35 inlet;
#X text 81 5 MODE 0 / 1 switch;
#X obj 213 56 r interfaceNb;
#X obj 28 230 spigot;
#X obj 27 254 outlet;
#X msg 93 200 0;
#X msg 54 199 1;
#X obj 213 85 route 0 1 2 3 4;
#X obj 106 234 spigot;
#X obj 105 258 outlet;
#X msg 171 204 0;
#X msg 132 203 1;
#X obj 189 237 spigot;
#X obj 188 261 outlet;
#X msg 254 207 0;
#X msg 215 206 1;
#X obj 264 239 spigot;
#X obj 263 263 outlet;
#X msg 329 209 0;
#X msg 290 208 1;
#X obj 338 240 spigot;
#X obj 337 264 outlet;
#X msg 403 210 0;
#X msg 364 209 1;
#X connect 0 0 3 0;
#X connect 0 0 8 0;
#X connect 0 0 12 0;
#X connect 0 0 16 0;
#X connect 0 0 20 0;
#X connect 2 0 7 0;
#X connect 3 0 4 0;
#X connect 5 0 3 1;
#X connect 6 0 3 1;
#X connect 7 0 6 0;
#X connect 7 0 10 0;
#X connect 7 0 14 0;
#X connect 7 0 18 0;
#X connect 7 0 22 0;
#X connect 7 1 5 0;
#X connect 7 1 11 0;
#X connect 7 1 18 0;
#X connect 7 1 22 0;
#X connect 7 1 14 0;
#X connect 7 2 5 0;
#X connect 7 2 15 0;
#X connect 7 2 10 0;
#X connect 7 2 22 0;
#X connect 7 2 18 0;
#X connect 7 3 5 0;
#X connect 7 3 19 0;
#X connect 7 3 10 0;
#X connect 7 3 14 0;
#X connect 7 3 22 0;
#X connect 7 4 5 0;
#X connect 7 4 23 0;
#X connect 7 4 10 0;
#X connect 7 4 18 0;
#X connect 7 4 14 0;
#X connect 8 0 9 0;
#X connect 10 0 8 1;
#X connect 11 0 8 1;
#X connect 12 0 13 0;
#X connect 14 0 12 1;
#X connect 15 0 12 1;
#X connect 16 0 17 0;
#X connect 18 0 16 1;
#X connect 19 0 16 1;
#X connect 20 0 21 0;
#X connect 22 0 20 1;
#X connect 23 0 20 1;
#X restore 132 773 pd modal;
#N canvas 533 145 579 328 modal 0;
#X obj 80 35 inlet;
#X text 81 5 MODE 0 / 1 switch;
#X obj 213 56 r interfaceNb;
#X obj 28 230 spigot;
#X obj 27 254 outlet;
#X msg 93 200 0;
#X msg 54 199 1;
#X obj 213 85 route 0 1 2 3 4;
#X obj 106 234 spigot;
#X obj 105 258 outlet;
#X msg 171 204 0;
#X msg 132 203 1;
#X obj 189 237 spigot;
#X obj 188 261 outlet;
#X msg 254 207 0;
#X msg 215 206 1;
#X obj 264 239 spigot;
#X obj 263 263 outlet;
#X msg 329 209 0;
#X msg 290 208 1;
#X obj 338 240 spigot;
#X obj 337 264 outlet;
#X msg 403 210 0;
#X msg 364 209 1;
#X connect 0 0 3 0;
#X connect 0 0 8 0;
#X connect 0 0 12 0;
#X connect 0 0 16 0;
#X connect 0 0 20 0;
#X connect 2 0 7 0;
#X connect 3 0 4 0;
#X connect 5 0 3 1;
#X connect 6 0 3 1;
#X connect 7 0 6 0;
#X connect 7 0 10 0;
#X connect 7 0 14 0;
#X connect 7 0 18 0;
#X connect 7 0 22 0;
#X connect 7 1 5 0;
#X connect 7 1 11 0;
#X connect 7 1 18 0;
#X connect 7 1 22 0;
#X connect 7 1 14 0;
#X connect 7 2 5 0;
#X connect 7 2 15 0;
#X connect 7 2 10 0;
#X connect 7 2 22 0;
#X connect 7 2 18 0;
#X connect 7 3 5 0;
#X connect 7 3 19 0;
#X connect 7 3 10 0;
#X connect 7 3 14 0;
#X connect 7 3 22 0;
#X connect 7 4 5 0;
#X connect 7 4 23 0;
#X connect 7 4 10 0;
#X connect 7 4 18 0;
#X connect 7 4 14 0;
#X connect 8 0 9 0;
#X connect 10 0 8 1;
#X connect 11 0 8 1;
#X connect 12 0 13 0;
#X connect 14 0 12 1;
#X connect 15 0 12 1;
#X connect 16 0 17 0;
#X connect 18 0 16 1;
#X connect 19 0 16 1;
#X connect 20 0 21 0;
#X connect 22 0 20 1;
#X connect 23 0 20 1;
#X restore 96 723 pd modal;
#N canvas 533 145 579 328 modal 0;
#X obj 80 35 inlet;
#X text 81 5 MODE 0 / 1 switch;
#X obj 213 56 r interfaceNb;
#X obj 28 230 spigot;
#X obj 27 254 outlet;
#X msg 93 200 0;
#X msg 54 199 1;
#X obj 213 85 route 0 1 2 3 4;
#X obj 106 234 spigot;
#X obj 105 258 outlet;
#X msg 171 204 0;
#X msg 132 203 1;
#X obj 189 237 spigot;
#X obj 188 261 outlet;
#X msg 254 207 0;
#X msg 215 206 1;
#X obj 264 239 spigot;
#X obj 263 263 outlet;
#X msg 329 209 0;
#X msg 290 208 1;
#X obj 338 240 spigot;
#X obj 337 264 outlet;
#X msg 403 210 0;
#X msg 364 209 1;
#X connect 0 0 3 0;
#X connect 0 0 8 0;
#X connect 0 0 12 0;
#X connect 0 0 16 0;
#X connect 0 0 20 0;
#X connect 2 0 7 0;
#X connect 3 0 4 0;
#X connect 5 0 3 1;
#X connect 6 0 3 1;
#X connect 7 0 6 0;
#X connect 7 0 10 0;
#X connect 7 0 14 0;
#X connect 7 0 18 0;
#X connect 7 0 22 0;
#X connect 7 1 5 0;
#X connect 7 1 11 0;
#X connect 7 1 18 0;
#X connect 7 1 22 0;
#X connect 7 1 14 0;
#X connect 7 2 5 0;
#X connect 7 2 15 0;
#X connect 7 2 10 0;
#X connect 7 2 22 0;
#X connect 7 2 18 0;
#X connect 7 3 5 0;
#X connect 7 3 19 0;
#X connect 7 3 10 0;
#X connect 7 3 14 0;
#X connect 7 3 22 0;
#X connect 7 4 5 0;
#X connect 7 4 23 0;
#X connect 7 4 10 0;
#X connect 7 4 18 0;
#X connect 7 4 14 0;
#X connect 8 0 9 0;
#X connect 10 0 8 1;
#X connect 11 0 8 1;
#X connect 12 0 13 0;
#X connect 14 0 12 1;
#X connect 15 0 12 1;
#X connect 16 0 17 0;
#X connect 18 0 16 1;
#X connect 19 0 16 1;
#X connect 20 0 21 0;
#X connect 22 0 20 1;
#X connect 23 0 20 1;
#X restore 27 603 pd modal;
#X msg 616 598 send /PSdumpdrum110_level \$1;
#X msg 569 478 send /PSknitren110_level \$1;
#X msg 992 549 send /TEirondrum125_level \$1;
#X msg 989 570 send /PSghost_level \$1;
#X msg 958 437 send /PSbil_level \$1;
#X msg 908 352 send /PSknit_level \$1;
#X msg 572 504 send /CAbass_level \$1;
#X msg 569 454 send /NTshaman_level \$1;
#X msg 543 344 send /CA1bass_level \$1;
#X msg 518 238 send /CA2bass_level \$1;
#X msg 990 594 send /MEsnare_level \$1;
#X msg 958 465 send /MEsynth_level \$1;
#X msg 616 622 send /MEbassdrum_level \$1;
#X msg 261 202 0;
#X obj 260 182 r reset;
#X msg 135 312 send / \$1;
#X msg 791 302 0;
#X obj 790 282 r reset;
#X msg 239 621 0;
#X obj 238 601 r reset;
#X msg 1129 306 0;
#X obj 1128 286 r reset;
#X connect 0 0 1 0;
#X connect 0 0 114 0;
#X connect 2 0 3 0;
#X connect 3 0 0 0;
#X connect 3 0 4 0;
#X connect 3 0 5 0;
#X connect 3 0 74 0;
#X connect 4 0 1 0;
#X connect 4 0 115 0;
#X connect 5 0 1 0;
#X connect 5 0 113 0;
#X connect 6 0 9 0;
#X connect 7 0 10 0;
#X connect 8 0 11 0;
#X connect 9 0 4 0;
#X connect 10 0 0 0;
#X connect 11 0 5 0;
#X connect 13 0 73 0;
#X connect 13 0 14 0;
#X connect 15 0 16 0;
#X connect 16 0 13 0;
#X connect 16 0 17 0;
#X connect 16 0 18 0;
#X connect 16 0 19 0;
#X connect 17 0 78 0;
#X connect 17 0 14 0;
#X connect 18 0 77 0;
#X connect 18 0 14 0;
#X connect 19 0 132 0;
#X connect 19 0 14 0;
#X connect 20 0 24 0;
#X connect 21 0 25 0;
#X connect 22 0 26 0;
#X connect 23 0 27 0;
#X connect 28 0 29 0;
#X connect 28 0 108 0;
#X connect 30 0 31 0;
#X connect 31 0 28 0;
#X connect 31 0 32 0;
#X connect 31 0 33 0;
#X connect 31 0 34 0;
#X connect 32 0 29 0;
#X connect 32 0 109 0;
#X connect 33 0 29 0;
#X connect 33 0 110 0;
#X connect 34 0 29 0;
#X connect 34 0 107 0;
#X connect 35 0 39 0;
#X connect 36 0 40 0;
#X connect 37 0 41 0;
#X connect 38 0 42 0;
#X connect 39 0 33 0;
#X connect 40 0 32 0;
#X connect 41 0 28 0;
#X connect 42 0 34 0;
#X connect 43 0 38 0;
#X connect 44 0 37 0;
#X connect 45 0 36 0;
#X connect 46 0 35 0;
#X connect 47 0 22 0;
#X connect 48 0 21 0;
#X connect 49 0 20 0;
#X connect 50 0 51 0;
#X connect 50 0 112 0;
#X connect 52 0 53 0;
#X connect 53 0 50 0;
#X connect 53 0 54 0;
#X connect 53 0 55 0;
#X connect 53 0 56 0;
#X connect 54 0 51 0;
#X connect 54 0 102 0;
#X connect 55 0 51 0;
#X connect 55 0 101 0;
#X connect 56 0 51 0;
#X connect 56 0 111 0;
#X connect 57 0 61 0;
#X connect 58 0 62 0;
#X connect 59 0 63 0;
#X connect 60 0 64 0;
#X connect 61 0 55 0;
#X connect 62 0 54 0;
#X connect 63 0 50 0;
#X connect 64 0 56 0;
#X connect 65 0 60 0;
#X connect 66 0 59 0;
#X connect 67 0 58 0;
#X connect 68 0 57 0;
#X connect 72 0 23 0;
#X connect 73 0 71 0;
#X connect 74 0 1 0;
#X connect 74 0 116 0;
#X connect 75 0 76 0;
#X connect 76 0 74 0;
#X connect 77 0 71 0;
#X connect 78 0 71 0;
#X connect 79 0 8 0;
#X connect 80 0 7 0;
#X connect 81 0 6 0;
#X connect 82 0 75 0;
#X connect 83 0 70 0;
#X connect 84 0 70 0;
#X connect 85 0 69 0;
#X connect 86 0 69 0;
#X connect 87 0 12 0;
#X connect 88 0 69 0;
#X connect 89 0 70 0;
#X connect 90 0 70 0;
#X connect 91 0 69 0;
#X connect 92 0 69 0;
#X connect 93 0 70 0;
#X connect 94 0 70 0;
#X connect 95 0 69 0;
#X connect 96 0 12 0;
#X connect 97 0 70 0;
#X connect 98 0 12 0;
#X connect 99 0 12 0;
#X connect 100 0 69 0;
#X connect 101 0 100 0;
#X connect 101 1 119 0;
#X connect 101 3 120 0;
#X connect 101 4 127 0;
#X connect 102 0 88 0;
#X connect 102 1 95 0;
#X connect 102 3 121 0;
#X connect 102 4 128 0;
#X connect 107 0 84 0;
#X connect 107 1 90 0;
#X connect 107 4 126 0;
#X connect 108 0 97 0;
#X connect 108 1 89 0;
#X connect 108 3 129 0;
#X connect 108 4 125 0;
#X connect 109 0 83 0;
#X connect 109 1 94 0;
#X connect 109 2 124 0;
#X connect 109 3 118 0;
#X connect 109 4 123 0;
#X connect 110 0 93 0;
#X connect 110 1 93 0;
#X connect 110 2 93 0;
#X connect 110 3 117 0;
#X connect 110 4 129 0;
#X connect 111 0 86 0;
#X connect 111 1 92 0;
#X connect 112 0 85 0;
#X connect 112 1 91 0;
#X connect 112 3 122 0;
#X connect 113 0 96 0;
#X connect 114 0 98 0;
#X connect 115 0 87 0;
#X connect 116 0 99 0;
#X connect 117 0 70 0;
#X connect 118 0 70 0;
#X connect 119 0 69 0;
#X connect 120 0 69 0;
#X connect 121 0 69 0;
#X connect 122 0 69 0;
#X connect 123 0 70 0;
#X connect 124 0 70 0;
#X connect 125 0 70 0;
#X connect 126 0 70 0;
#X connect 127 0 69 0;
#X connect 128 0 69 0;
#X connect 129 0 70 0;
#X connect 130 0 77 0;
#X connect 130 0 78 0;
#X connect 130 0 73 0;
#X connect 130 0 132 0;
#X connect 131 0 130 0;
#X connect 132 0 71 0;
#X connect 133 0 84 0;
#X connect 133 0 90 0;
#X connect 133 0 126 0;
#X connect 133 0 97 0;
#X connect 133 0 89 0;
#X connect 133 0 125 0;
#X connect 133 0 83 0;
#X connect 133 0 94 0;
#X connect 133 0 124 0;
#X connect 133 0 123 0;
#X connect 133 0 118 0;
#X connect 133 0 93 0;
#X connect 133 0 117 0;
#X connect 133 0 129 0;
#X connect 134 0 133 0;
#X connect 135 0 99 0;
#X connect 135 0 96 0;
#X connect 135 0 87 0;
#X connect 135 0 98 0;
#X connect 136 0 135 0;
#X connect 137 0 85 0;
#X connect 137 0 91 0;
#X connect 137 0 122 0;
#X connect 137 0 88 0;
#X connect 137 0 95 0;
#X connect 137 0 128 0;
#X connect 137 0 121 0;
#X connect 137 0 100 0;
#X connect 137 0 119 0;
#X connect 137 0 120 0;
#X connect 137 0 127 0;
#X connect 138 0 137 0;
#X restore 799 426 pd rhythmSequences;
#X text 871 489 UDP CONNECTION;
#X obj 20 411 bng 20 250 50 0 empty empty empty 17 7 0 10 -4034 -1
-1;
#X obj 878 375 cnv 15 40 40 empty beat_can 2 10 20 1 32 -204800 -33289
0;
#X obj 797 375 cnv 15 80 40 empty empty Beats 0 20 1 32 -204800 -33289
0;
#X obj 534 496 cnv 15 165 40 empty empty Backtrack 0 20 1 32 -204786
-33289 0;
#X obj 700 534 cnv 15 85 40 empty EF_LoeilCyclope_v4EQ_can 0 10 20
1 32 -204786 -33289 0;
#X obj 699 496 cnv 15 85 40 empty EF_LoeilCyclope_v4EQ_onOff_can ON
10 20 1 32 -258699 -33289 0;
#X obj 13 10 cnv 15 977 350 empty empty empty 20 12 0 14 -228856 -66577
0;
#X obj 301 37 bng 15 250 50 0 empty empty empty 0 -6 0 8 -262144 -1
-1;
#X obj 42 32 bng 15 250 50 0 empty empty empty 0 -6 0 8 -262144 -1
-1;
#X obj 32 73 vsl 15 128 0 3 0 0 0 empty empty 0 -8 0 8 -258113 -1 -1
0 1;
#X msg 287 59 0;
#X text 65 13 DELAY;
#X msg 28 54 0;
#X obj 32 215 pack f;
#X obj 268 230 pack f;
#X obj 32 342 send porphyrographOut;
#X msg 17 273 send /kMix \$1;
#X obj 136 61 / 44;
#X obj 32 232 * -1;
#X obj 32 249 + 3;
#X text 134 127 ECHO: kLDelay;
#X obj 48 73 vsl 15 128 0 3 0 0 0 empty empty 0 -8 0 8 -258113 -1 -1
0 1;
#X obj 136 111 / 127;
#X obj 109 233 > 0.5;
#X obj 109 250 * 0.94;
#X obj 109 216 pack f;
#X msg 109 317 send /kLDelay \$1;
#X obj 64 73 vsl 15 128 0 3 0 0 0 empty empty 0 -8 0 8 -258113 -1 -1
2117 1;
#X obj 135 165 / 127;
#X msg 78 54 0.5;
#X obj 154 233 > 0.5;
#X obj 154 250 * 0.94;
#X obj 154 216 pack f;
#X msg 136 276 send /sample_kLDelay \$1;
#X obj 136 44 ctlin 12 1;
#X obj 136 94 ctlin 13 2;
#X obj 135 148 ctlin 13 3;
#X msg 59 296 send /sample_kMix \$1;
#X text 134 78 kMix;
#X text 133 181 ECHO: sample kLDelay;
#X obj 321 80 vsl 15 128 0 3 0 0 0 empty empty 0 -8 0 8 -260097 -1
-1 0 1;
#X obj 336 80 vsl 15 128 0 1 0 0 0 empty empty 0 -8 0 8 -260097 -1
-1 0 1;
#X obj 382 143 / 127;
#X obj 351 80 vsl 15 128 0 1 0 0 0 empty empty 0 -8 0 8 -260097 -1
-1 0 1;
#X text 329 13 ROOM;
#X obj 381 183 / 127;
#X obj 383 81 ctlin 12 2;
#X obj 321 230 pack f;
#X obj 366 231 pack f;
#X msg 321 274 send /decay \$1;
#X msg 366 254 send /earlymix \$1;
#X msg 319 58 0;
#X msg 366 59 0;
#X obj 382 126 ctlin 10 2;
#X obj 381 166 ctlin 7 2;
#X obj 336 304 send porphyrographOut;
#X obj 741 45 r init;
#X msg 742 65 0;
#X obj 751 89 vsl 15 64 0 6 0 0 empty empty empty 0 -8 0 8 -232576
-1 -1 0 1;
#X obj 735 186 s porphyrographOut;
#X msg 268 253 send /mix \$1;
#X obj 855 84 ctlin 13 1;
#X obj 855 101 - 15;
#X obj 855 118 / 22;
#X obj 383 98 / 44;
#X obj 529 42 bng 15 250 50 0 empty empty empty 0 -6 0 8 -262144 -1
-1;
#X obj 549 85 vsl 15 128 0 3 0 0 0 empty empty 0 -8 0 8 -260097 -1
-1 0 1;
#X obj 564 85 vsl 15 128 0 1 0 0 0 empty empty 0 -8 0 8 -260097 -1
-1 0 1;
#X obj 556 39 r reset;
#X obj 610 145 / 127;
#X obj 579 85 vsl 15 128 0 1 0 0 0 empty empty 0 -8 0 8 -260097 -1
-1 0 1;
#X msg 515 64 0;
#X obj 608 187 / 127;
#X obj 481 231 pack f;
#X obj 564 232 pack f;
#X obj 609 232 pack f;
#X msg 547 63 0;
#X msg 594 64 0;
#X obj 561 307 send porphyrographOut;
#X obj 611 103 / 44;
#X msg 481 254 send /sample_mix \$1;
#X msg 564 275 send /sample_decay \$1;
#X msg 609 253 send /sample_earlymix \$1;
#X obj 611 86 ctlin 12 3;
#X obj 610 127 ctlin 10 3;
#X obj 608 170 ctlin 7 3;
#X obj 736 89 vsl 15 64 0 3 0 0 empty empty empty 0 -8 0 8 -204786
-1 -1 0 1;
#X obj 787 101 - 5;
#X obj 787 118 / 40;
#X obj 787 83 ctlin 7 1;
#X text 741 29 backtrack and sequence level;
#X msg 161 408 send /record_output;
#X obj 535 581 cnv 15 165 40 empty empty Recording 0 20 1 32 -204786
-33289 0;
#X obj 701 581 cnv 15 85 40 empty record_output_can OFF 10 20 1 32
-44926 -33289 0;
#X obj 88 394 spigot;
#X obj 413 394 spigot;
#X obj 212 390 spigot;
#X obj 20 394 ctlin 9 1;
#N canvas 450 471 730 253 buttonsOnOff 0;
#X obj 27 -30 inlet;
#X obj 84 31 route 0 1;
#X msg 84 64 0;
#X msg 119 65 127;
#X obj 27 138 pack f f;
#X obj 27 169 noteout 1;
#X obj 27 92 expr if ($f1 <= 8 \, 1 + 3 * ($f1 - 1) \, if($f1 <= 16
\, 3 + 3 * ($f1 - 9) \, if($f1 <= 24 \, 2 + 3 * ($f1 - 17) \, $f1)))
;
#X obj 27 1 unpack f f;
#X msg 130 -30 8 1;
#X msg 199 -22 8 0;
#X connect 0 0 7 0;
#X connect 1 0 2 0;
#X connect 1 1 3 0;
#X connect 2 0 4 1;
#X connect 3 0 4 1;
#X connect 4 0 5 0;
#X connect 6 0 4 0;
#X connect 7 0 6 0;
#X connect 7 1 1 0;
#X connect 8 0 7 0;
#X connect 9 0 7 0;
#X restore 321 516 pd buttonsOnOff;
#X obj 321 499 receive buttonOnOff;
#X text 143 372 RECORDING;
#X text 23 374 LAUNCHING;
#X obj 21 484 cnv 15 120 120 empty interfaceNbInteger 1 10 50 1 96
-204786 -33289 0;
#N canvas 103 108 494 300 InterfaceNumber 0;
#X obj 139 46 route 25 26;
#X obj 139 12 notein 1;
#X obj 139 29 pack f f;
#X obj 82 63 spigot;
#X obj 226 63 spigot;
#X msg 228 85 0;
#X obj 124 168 s interfaceNb;
#X obj 126 112 f;
#X obj 157 112 + 1;
#X obj 124 139 mod 5;
#X obj 248 156 makefilename %d;
#X msg 248 177 \; interfaceNbInteger label \$1;
#X obj 103 89 bng 15 250 50 0 empty empty empty 17 7 0 10 -262144 -1
-1;
#X obj 251 133 + 1;
#X obj 75 235 send reset;
#X obj 151 201 route 0;
#X obj 170 239 send resetFX;
#X connect 0 0 3 1;
#X connect 0 0 3 0;
#X connect 0 1 4 0;
#X connect 0 1 4 1;
#X connect 1 0 2 0;
#X connect 1 1 2 1;
#X connect 2 0 0 0;
#X connect 3 0 12 0;
#X connect 4 0 5 0;
#X connect 5 0 7 0;
#X connect 7 0 8 0;
#X connect 7 0 9 0;
#X connect 8 0 7 1;
#X connect 9 0 6 0;
#X connect 9 0 13 0;
#X connect 9 0 14 0;
#X connect 9 0 15 0;
#X connect 10 0 11 0;
#X connect 12 0 7 0;
#X connect 13 0 10 0;
#X connect 15 0 14 0;
#X connect 15 0 16 0;
#X restore 321 471 pd InterfaceNumber;
#X obj 737 209 r interfaceNb;
#X obj 736 263 t b;
#N canvas 0 243 450 300 modal 0;
#X obj 90 45 inlet;
#X text 91 15 MODE 0 / 1 switch;
#X obj 223 66 r interfaceNb;
#X obj 38 240 spigot;
#X obj 37 264 outlet;
#X msg 103 210 0;
#X msg 64 209 1;
#X obj 223 95 route 0 1 2 3 4;
#X obj 116 244 spigot;
#X obj 115 268 outlet;
#X msg 181 214 0;
#X msg 142 213 1;
#X obj 199 247 spigot;
#X obj 198 271 outlet;
#X msg 264 217 0;
#X msg 225 216 1;
#X obj 274 249 spigot;
#X obj 273 273 outlet;
#X msg 339 219 0;
#X msg 300 218 1;
#X obj 348 250 spigot;
#X obj 347 274 outlet;
#X msg 413 220 0;
#X msg 374 219 1;
#X connect 0 0 3 0;
#X connect 0 0 8 0;
#X connect 0 0 12 0;
#X connect 0 0 16 0;
#X connect 0 0 20 0;
#X connect 2 0 7 0;
#X connect 3 0 4 0;
#X connect 5 0 3 1;
#X connect 6 0 3 1;
#X connect 7 0 6 0;
#X connect 7 0 10 0;
#X connect 7 0 14 0;
#X connect 7 0 18 0;
#X connect 7 0 22 0;
#X connect 7 1 5 0;
#X connect 7 1 11 0;
#X connect 7 1 18 0;
#X connect 7 1 22 0;
#X connect 7 1 14 0;
#X connect 7 2 5 0;
#X connect 7 2 15 0;
#X connect 7 2 10 0;
#X connect 7 2 22 0;
#X connect 7 2 18 0;
#X connect 7 3 5 0;
#X connect 7 3 19 0;
#X connect 7 3 10 0;
#X connect 7 3 14 0;
#X connect 7 3 22 0;
#X connect 7 4 5 0;
#X connect 7 4 23 0;
#X connect 7 4 10 0;
#X connect 7 4 18 0;
#X connect 7 4 14 0;
#X connect 8 0 9 0;
#X connect 10 0 8 1;
#X connect 11 0 8 1;
#X connect 12 0 13 0;
#X connect 14 0 12 1;
#X connect 15 0 12 1;
#X connect 16 0 17 0;
#X connect 18 0 16 1;
#X connect 19 0 16 1;
#X connect 20 0 21 0;
#X connect 22 0 20 1;
#X connect 23 0 20 1;
#X restore 767 232 pd modal;
#X obj 768 341 send porphyrographOut;
#X msg 768 322 send /BeatsPerMinute \$1;
#X obj 836 264 t b;
#X obj 800 264 t b;
#X msg 735 286 60;
#X msg 836 285 55;
#X obj 768 264 t b;
#X obj 867 263 t b;
#X msg 872 284 46.5;
#X msg 769 284 62.5;
#X msg 801 286 60;
#X msg 736 166 send /EF_BT_v4_level \$1;
#X text 737 19 comment;
#X text 521 18 ROOM;
#X msg 48 54 0;
#X obj 81 33 r resetFX;
#X obj 328 34 r resetFX;
#X floatatom 768 307 5 0 0 0 - - -, f 5;
#N canvas 568 569 1324 458 loopInterface 0;
#X floatatom 31 245 5 0 0 0 - - -, f 5;
#X obj 163 48 r init;
#X msg 164 68 0;
#X obj 140 118 vsl 15 64 0 1 0 0 empty empty empty 0 -8 0 8 -262144
-1 -1 0 1;
#X obj 137 367 s porphyrographOut;
#X obj 219 78 / 127;
#X obj 163 148 vsl 15 64 0 1 0 0 empty empty empty 0 -8 0 8 -262144
-1 -1 0 1;
#X obj 264 98 / 127;
#X obj 209 168 vsl 15 64 0 1 0 0 empty empty empty 0 -8 0 8 -262144
-1 -1 0 1;
#X obj 308 125 / 127;
#X obj 258 195 vsl 15 64 0 1 0 0 empty empty empty 0 -8 0 8 -262144
-1 -1 6300 1;
#X obj 371 160 / 127;
#X floatatom 120 270 5 0 0 0 - - -, f 5;
#X floatatom 227 276 5 0 0 0 - - -, f 5;
#X text 137 25 TRACK 1 / LOOPER;
#X obj 244 47 ctlin 13 7;
#X obj 277 70 ctlin 12 7;
#X obj 311 96 ctlin 10 7;
#X obj 364 128 ctlin 7 7;
#X floatatom 650 191 5 0 0 0 - - -, f 5;
#X obj 776 47 r init;
#X msg 777 67 0;
#X obj 753 117 vsl 15 64 0 1 0 0 empty empty empty 0 -8 0 8 -262144
-1 -1 0 1;
#X obj 750 366 s porphyrographOut;
#X obj 837 79 / 127;
#X obj 776 147 vsl 15 64 0 1 0 0 empty empty empty 0 -8 0 8 -262144
-1 -1 0 1;
#X obj 877 97 / 127;
#X obj 822 167 vsl 15 64 0 1 0 0 empty empty empty 0 -8 0 8 -262144
-1 -1 0 1;
#X obj 921 124 / 127;
#X obj 871 194 vsl 15 64 0 1 0 0 empty empty empty 0 -8 0 8 -262144
-1 -1 6300 1;
#X obj 984 159 / 127;
#X floatatom 736 262 5 0 0 0 - - -, f 5;
#X floatatom 838 279 5 0 0 0 - - -, f 5;
#X text 750 24 TRACK 2 / LOOPER;
#X obj 859 49 ctlin 13 8;
#X obj 890 69 ctlin 12 8;
#X obj 924 95 ctlin 10 8;
#X obj 978 129 ctlin 7 8;
#X obj 1100 187 bng 15 250 50 0 empty empty empty 17 7 0 10 -262144
-1 -1;
#X obj 1111 147 route 127;
#X obj 1109 294 bng 15 250 50 0 empty empty empty 17 7 0 10 -262144
-1 -1;
#X obj 1120 254 route 127;
#X obj 1136 301 s porphyrographOut;
#X obj 1129 193 s porphyrographOut;
#X obj 463 166 bng 15 250 50 0 empty empty empty 17 7 0 10 -262144
-1 -1;
#X obj 474 126 route 127;
#X obj 467 97 ctlin 9 7;
#X obj 472 273 bng 15 250 50 0 empty empty empty 17 7 0 10 -262144
-1 -1;
#X obj 483 233 route 127;
#X obj 499 280 s porphyrographOut;
#X obj 492 172 s porphyrographOut;
#X obj 476 204 ctlin 8 7;
#X obj 1104 118 ctlin 9 8;
#X obj 1113 225 ctlin 8 8;
#X obj 1028 186 vsl 15 64 0 1 0 0 empty empty empty 0 -8 0 8 -262144
-1 -1 0 1;
#X obj 1089 68 / 127;
#X floatatom 1028 387 5 0 0 0 - - -, f 5;
#X obj 1082 36 ctlin 14 8;
#X msg 1060 341 send /loop_master_level \$1;
#X obj 188 279 * -1;
#X obj 188 296 + 3;
#X obj 188 262 * 3;
#X msg 173 320 send /loop_kMix 0 \$1;
#X msg 215 343 send /loop_sample_kMix 0 \$1;
#X floatatom 130 319 5 0 0 0 - - -, f 5;
#X obj 796 283 * -1;
#X obj 796 300 + 3;
#X obj 796 266 * 3;
#X floatatom 738 324 5 0 0 0 - - -, f 5;
#X msg 781 324 send /loop_kMix 1 \$1;
#X msg 820 342 send /loop_sample_kMix 1 \$1;
#X msg 36 222 send /loop_decay 0 \$1;
#X msg 649 221 send /loop_decay 1 \$1;
#X msg 736 238 send /loop_earlymix 1 \$1;
#X msg 80 243 send /loop_earlymix 0 \$1;
#X msg 268 276 send /loop_out_level 0 \$1;
#X msg 881 275 send /loop_out_level 1 \$1;
#X msg 491 150 send /loop_recPlay 0;
#X msg 500 257 send /loop_stop 0;
#X msg 1128 171 send /loop_recPlay 1;
#X msg 1137 278 send /loop_stop 1;
#X connect 1 0 2 0;
#X connect 2 0 3 0;
#X connect 2 0 6 0;
#X connect 2 0 8 0;
#X connect 2 0 10 0;
#X connect 3 0 0 0;
#X connect 3 0 71 0;
#X connect 5 0 3 0;
#X connect 6 0 12 0;
#X connect 6 0 74 0;
#X connect 7 0 6 0;
#X connect 8 0 61 0;
#X connect 9 0 8 0;
#X connect 10 0 13 0;
#X connect 10 0 75 0;
#X connect 11 0 10 0;
#X connect 15 0 5 0;
#X connect 16 0 7 0;
#X connect 17 0 9 0;
#X connect 18 0 11 0;
#X connect 20 0 21 0;
#X connect 21 0 22 0;
#X connect 21 0 25 0;
#X connect 21 0 27 0;
#X connect 21 0 29 0;
#X connect 22 0 19 0;
#X connect 22 0 72 0;
#X connect 24 0 22 0;
#X connect 25 0 31 0;
#X connect 25 0 73 0;
#X connect 26 0 25 0;
#X connect 27 0 67 0;
#X connect 28 0 27 0;
#X connect 29 0 32 0;
#X connect 29 0 76 0;
#X connect 30 0 29 0;
#X connect 34 0 24 0;
#X connect 35 0 26 0;
#X connect 36 0 28 0;
#X connect 37 0 30 0;
#X connect 39 0 79 0;
#X connect 39 0 38 0;
#X connect 41 0 80 0;
#X connect 41 0 40 0;
#X connect 45 0 77 0;
#X connect 45 0 44 0;
#X connect 46 0 45 0;
#X connect 48 0 78 0;
#X connect 48 0 47 0;
#X connect 51 0 48 0;
#X connect 52 0 39 0;
#X connect 53 0 41 0;
#X connect 54 0 56 0;
#X connect 54 0 58 0;
#X connect 54 0 23 0;
#X connect 55 0 54 0;
#X connect 57 0 55 0;
#X connect 59 0 60 0;
#X connect 60 0 62 0;
#X connect 60 0 63 0;
#X connect 60 0 64 0;
#X connect 61 0 59 0;
#X connect 62 0 4 0;
#X connect 63 0 4 0;
#X connect 65 0 66 0;
#X connect 66 0 69 0;
#X connect 66 0 70 0;
#X connect 66 0 68 0;
#X connect 67 0 65 0;
#X connect 69 0 23 0;
#X connect 70 0 23 0;
#X connect 71 0 4 0;
#X connect 72 0 23 0;
#X connect 73 0 23 0;
#X connect 74 0 4 0;
#X connect 75 0 4 0;
#X connect 76 0 23 0;
#X connect 77 0 50 0;
#X connect 78 0 49 0;
#X connect 79 0 43 0;
#X connect 80 0 42 0;
#X restore 318 551 pd loopInterface;
#X obj 141 390 ctlin 8 2;
#X obj 319 391 ctlin 9 2;
#X connect 3 0 4 0;
#X connect 4 0 5 0;
#X connect 7 0 116 0;
#X connect 11 0 19 0;
#X connect 12 0 21 0;
#X connect 13 0 11 0;
#X connect 14 0 15 0;
#X connect 14 1 16 0;
#X connect 14 2 17 0;
#X connect 18 0 21 0;
#X connect 25 0 6 0;
#X connect 32 0 35 0;
#X connect 32 0 76 0;
#X connect 32 0 77 0;
#X connect 33 0 37 0;
#X connect 33 0 146 0;
#X connect 33 0 54 0;
#X connect 34 0 38 0;
#X connect 35 0 65 0;
#X connect 37 0 34 0;
#X connect 38 0 43 0;
#X connect 39 0 85 0;
#X connect 41 0 40 0;
#X connect 42 0 34 0;
#X connect 43 0 44 0;
#X connect 44 0 41 0;
#X connect 44 0 62 0;
#X connect 46 0 50 0;
#X connect 47 0 46 0;
#X connect 48 0 49 0;
#X connect 49 0 51 0;
#X connect 50 0 48 0;
#X connect 51 0 40 0;
#X connect 52 0 57 0;
#X connect 53 0 52 0;
#X connect 54 0 52 0;
#X connect 55 0 56 0;
#X connect 56 0 58 0;
#X connect 57 0 55 0;
#X connect 58 0 40 0;
#X connect 59 0 42 0;
#X connect 60 0 47 0;
#X connect 61 0 53 0;
#X connect 62 0 40 0;
#X connect 65 0 39 0;
#X connect 66 0 72 0;
#X connect 67 0 66 0;
#X connect 68 0 73 0;
#X connect 70 0 68 0;
#X connect 71 0 89 0;
#X connect 72 0 74 0;
#X connect 73 0 75 0;
#X connect 74 0 80 0;
#X connect 75 0 80 0;
#X connect 76 0 66 0;
#X connect 77 0 68 0;
#X connect 78 0 67 0;
#X connect 79 0 70 0;
#X connect 81 0 82 0;
#X connect 82 0 83 0;
#X connect 82 0 111 0;
#X connect 85 0 80 0;
#X connect 86 0 87 0;
#X connect 87 0 88 0;
#X connect 88 0 83 0;
#X connect 89 0 65 0;
#X connect 90 0 96 0;
#X connect 90 0 101 0;
#X connect 90 0 102 0;
#X connect 91 0 98 0;
#X connect 92 0 99 0;
#X connect 93 0 90 0;
#X connect 94 0 92 0;
#X connect 95 0 100 0;
#X connect 96 0 91 0;
#X connect 97 0 95 0;
#X connect 98 0 105 0;
#X connect 99 0 106 0;
#X connect 100 0 107 0;
#X connect 101 0 92 0;
#X connect 102 0 95 0;
#X connect 104 0 91 0;
#X connect 105 0 103 0;
#X connect 106 0 103 0;
#X connect 107 0 103 0;
#X connect 108 0 104 0;
#X connect 109 0 94 0;
#X connect 110 0 97 0;
#X connect 111 0 143 0;
#X connect 112 0 113 0;
#X connect 113 0 111 0;
#X connect 114 0 112 0;
#X connect 116 0 8 0;
#X connect 119 0 25 0;
#X connect 120 0 3 0;
#X connect 121 0 7 0;
#X connect 122 0 119 0;
#X connect 122 0 119 1;
#X connect 124 0 123 0;
#X connect 129 0 131 0;
#X connect 130 0 136 0;
#X connect 131 0 130 0;
#X connect 131 1 138 0;
#X connect 131 2 135 0;
#X connect 131 3 134 0;
#X connect 131 4 139 0;
#X connect 133 0 132 0;
#X connect 134 0 137 0;
#X connect 135 0 142 0;
#X connect 136 0 149 0;
#X connect 137 0 149 0;
#X connect 138 0 141 0;
#X connect 139 0 140 0;
#X connect 140 0 149 0;
#X connect 141 0 149 0;
#X connect 142 0 149 0;
#X connect 143 0 84 0;
#X connect 146 0 46 0;
#X connect 147 0 33 0;
#X connect 148 0 32 0;
#X connect 149 0 133 0;
#X connect 151 0 121 0;
#X connect 151 0 121 1;
#X connect 152 0 120 0;
#X connect 152 0 120 1;
