#N canvas 6 50 330 675 10;
#X obj 7 5 cnv 15 310 660 empty empty empty 20 12 0 14 -1 -66577 0
;
#X obj 15 13 cnv 15 80 35 empty time_can 0:0 0 18 1 36 -258699 -33289
0;
#X obj 266 97 vsl 10 60 0 2 0 0 empty soundvolume_r empty 0 -12 1 20
-162280 -1 -262144 0 1;
#X obj 15 222 cnv 15 60 25 empty empty PART: 0 12 1 18 -1 -4034 0;
#X obj 73 223 cnv 15 130 25 empty particles_can X 0 12 1 18 -1 -262144
0;
#X obj 14 146 cnv 15 70 25 empty empty STROKE: 0 12 1 18 -1 -4034 0
;
#X obj 105 147 cnv 15 130 25 empty drawing_can X 0 12 1 24 -1 -262144
0;
#X obj 13 173 cnv 15 60 25 empty empty RADIUS: 0 12 1 18 -1 -4034 0
;
#X obj 16 117 cnv 15 60 25 empty empty SCENE: 0 12 1 18 -1 -4034 0
;
#X obj 86 117 cnv 15 130 25 empty setup_can LETSGO_SUCCESS 0 12 1 18
-1 -262144 0;
#X obj 15 90 cnv 18 140 25 empty message_can INIT_COMPLETED 0 12 1
18 -1 -262144 0;
#X obj 205 13 cnv 15 100 60 empty empty empty 20 12 0 14 -233017 -66577
0;
#X obj 228 16 ctlin;
#X floatatom 208 37 5 0 0 0 - - -, f 5;
#X floatatom 239 37 5 0 0 0 - - -, f 5;
#X floatatom 271 37 5 0 0 0 - - -, f 5;
#N canvas 345 50 339 321 initial_board 0;
#N canvas 223 408 447 279 connect 0;
#X msg 26 -14 disconnect;
#X text -110 -70 OPEN UDP CONNECTION;
#X text 19 -69 CLOSE UDP CONNECTION;
#X msg -50 42 connect 127.0.0.1 1978;
#X obj 3 68 r message;
#X obj -50 -54 inlet;
#X obj 26 -52 inlet;
#X obj 150 68 r message_SC;
#X floatatom 115 145 5 0 0 0 - - -, f 5;
#X floatatom -50 153 5 0 0 0 - - -, f 5;
#X text 197 15 SUPERCOLLIDER / sclang;
#X obj 65 -37 r disconnect;
#X obj -41 14 r connect;
#X msg 115 42 connect 192.168.0.3 57120;
#X obj 130 16 r connect;
#X obj 150 96 spigot;
#X obj 3 97 spigot;
#X text 20 13 Porphyrograph;
#X obj -50 131 netsend 1;
#X obj 115 122 netsend 1;
#X obj 43 175 print;
#X connect 0 0 18 0;
#X connect 0 0 19 0;
#X connect 3 0 18 0;
#X connect 4 0 16 0;
#X connect 5 0 3 0;
#X connect 6 0 0 0;
#X connect 7 0 15 0;
#X connect 11 0 0 0;
#X connect 12 0 3 0;
#X connect 13 0 19 0;
#X connect 15 0 19 0;
#X connect 16 0 18 0;
#X connect 18 0 9 0;
#X connect 18 0 16 1;
#X connect 19 0 8 0;
#X connect 19 0 15 1;
#X coords 0 0 10 10 0 0 0;
#X restore 14 53 pd connect;
#N canvas 510 123 874 617 LYM_spectrum_v4 0;
#X obj 326 14 inlet;
#X obj 251 35 loadbang;
#X obj 236 15 r startclock;
#X obj 70 16 adc~ 1 2;
#X obj 115 61 *~ 1;
#X obj 136 15 r input_volume;
#X floatatom 159 143 5 0 0 0 - - -, f 5;
#X obj 196 42 bng 15 250 50 0 empty empty empty 17 7 0 10 -262144 -1
-1;
#X obj 71 207 env~;
#X obj 151 208 env~;
#X obj 234 208 env~;
#X text 36 512 LOUDNESS OUTPUT;
#X obj 55 415 s band1;
#X obj 137 415 s band2;
#X obj 214 416 s band3;
#X obj 119 495 s message;
#X obj 119 453 pack f f f;
#X msg 119 478 send /pulse_spectrum \$1 \$2 \$3;
#X obj 38 530 s soundvolume_r;
#X obj 133 530 s soundvolume_g;
#X obj 227 529 s soundvolume_b;
#N canvas 812 98 1051 705 paletteInterpoaltion 0;
#X obj 378 834 / 765;
#X obj 533 823 / 765;
#X obj 696 830 / 765;
#X obj 482 859 pack f f f;
#X obj 17 124 bang;
#X msg 13 687 \; palette1_can color \$1;
#X msg 416 689 \; palette2_can color \$1;
#X msg 814 689 \; palette3_can color \$1;
#X obj 290 763 +;
#N canvas 4 105 288 291 colorRGB 0;
#X obj 16 27 inlet;
#X obj 93 28 inlet;
#X text 21 9 red;
#X text 93 11 green;
#X obj 159 107 t b f;
#X obj 93 144 +;
#X obj 93 169 t b f;
#X obj 93 200 +;
#X obj 16 84 * -65536;
#X obj 93 85 * -256;
#X obj 159 85 * -1;
#X obj 93 231 - 1;
#X obj 159 28 inlet;
#X obj 93 258 outlet;
#X text 161 11 blue;
#X obj 16 56 int;
#X obj 93 56 int;
#X obj 159 55 int;
#X connect 0 0 15 0;
#X connect 1 0 16 0;
#X connect 4 0 5 0;
#X connect 4 1 5 1;
#X connect 5 0 6 0;
#X connect 6 0 7 0;
#X connect 6 1 7 1;
#X connect 7 0 11 0;
#X connect 8 0 7 0;
#X connect 9 0 5 0;
#X connect 10 0 4 0;
#X connect 11 0 13 0;
#X connect 12 0 17 0;
#X connect 15 0 8 0;
#X connect 16 0 9 0;
#X connect 17 0 10 0;
#X restore 815 668 pd colorRGB;
#N canvas 177 329 288 291 colorRGB 0;
#X obj 16 27 inlet;
#X obj 93 28 inlet;
#X text 21 9 red;
#X text 93 11 green;
#X obj 159 107 t b f;
#X obj 93 144 +;
#X obj 93 169 t b f;
#X obj 93 200 +;
#X obj 16 84 * -65536;
#X obj 93 85 * -256;
#X obj 159 85 * -1;
#X obj 93 231 - 1;
#X obj 159 28 inlet;
#X obj 93 258 outlet;
#X text 161 11 blue;
#X obj 16 56 int;
#X obj 93 56 int;
#X obj 159 55 int;
#X connect 0 0 15 0;
#X connect 1 0 16 0;
#X connect 4 0 5 0;
#X connect 4 1 5 1;
#X connect 5 0 6 0;
#X connect 6 0 7 0;
#X connect 6 1 7 1;
#X connect 7 0 11 0;
#X connect 8 0 7 0;
#X connect 9 0 5 0;
#X connect 10 0 4 0;
#X connect 11 0 13 0;
#X connect 12 0 17 0;
#X connect 15 0 8 0;
#X connect 16 0 9 0;
#X connect 17 0 10 0;
#X restore 13 667 pd colorRGB;
#N canvas 4 105 288 291 colorRGB 0;
#X obj 16 27 inlet;
#X obj 93 28 inlet;
#X text 21 9 red;
#X text 93 11 green;
#X obj 159 107 t b f;
#X obj 93 144 +;
#X obj 93 169 t b f;
#X obj 93 200 +;
#X obj 16 84 * -65536;
#X obj 93 85 * -256;
#X obj 159 85 * -1;
#X obj 93 231 - 1;
#X obj 159 28 inlet;
#X obj 93 258 outlet;
#X text 161 11 blue;
#X obj 16 56 int;
#X obj 93 56 int;
#X obj 159 55 int;
#X connect 0 0 15 0;
#X connect 1 0 16 0;
#X connect 4 0 5 0;
#X connect 4 1 5 1;
#X connect 5 0 6 0;
#X connect 6 0 7 0;
#X connect 6 1 7 1;
#X connect 7 0 11 0;
#X connect 8 0 7 0;
#X connect 9 0 5 0;
#X connect 10 0 4 0;
#X connect 11 0 13 0;
#X connect 12 0 17 0;
#X connect 15 0 8 0;
#X connect 16 0 9 0;
#X connect 17 0 10 0;
#X restore 417 665 pd colorRGB;
#X obj 17 157 bang;
#X obj 19 190 bang;
#X obj 18 222 bang;
#X obj 16 253 bang;
#X obj 20 280 bang;
#X obj 17 307 bang;
#X obj 41 460 expr if ($f1 < 1 \, (1 - $f1) * $f2 + $f1 * $f3 \, if($f1
< 2 \, (2- $f1) * $f3 + ($f1 - 1) * $f4 \, if($f1 < 3 \, (3 - $f1)
* $f4 + ($f1 - 2) * $f5 \, if($f1 < 4 \, (4 - $f1) * $f5 + ($f1 - 3)
* $f6 \, if($f1 < 5 \, (5 - $f1) * $f6 + ($f1 - 4) * $f7 \, if($f1
< 6 \, (6 - $f1) * $f7 + ($f1 - 5) * $f8 \, (7 - $f1) * $f8 + ($f1
- 6) * $f2))))));
#X obj 13 354 expr if ($f1 < 1 \, (1 - $f1) * $f2 + $f1 * $f3 \, if($f1
< 2 \, (2- $f1) * $f3 + ($f1 - 1) * $f4 \, if($f1 < 3 \, (3 - $f1)
* $f4 + ($f1 - 2) * $f5 \, if($f1 < 4 \, (4 - $f1) * $f5 + ($f1 - 3)
* $f6 \, if($f1 < 5 \, (5 - $f1) * $f6 + ($f1 - 4) * $f7 \, if($f1
< 6 \, (6 - $f1) * $f7 + ($f1 - 5) * $f8 \, (7 - $f1) * $f8 + ($f1
- 6) * $f2))))));
#X obj 54 570 expr if ($f1 < 1 \, (1 - $f1) * $f2 + $f1 * $f3 \, if($f1
< 2 \, (2- $f1) * $f3 + ($f1 - 1) * $f4 \, if($f1 < 3 \, (3 - $f1)
* $f4 + ($f1 - 2) * $f5 \, if($f1 < 4 \, (4 - $f1) * $f5 + ($f1 - 3)
* $f6 \, if($f1 < 5 \, (5 - $f1) * $f6 + ($f1 - 4) * $f7 \, if($f1
< 6 \, (6 - $f1) * $f7 + ($f1 - 5) * $f8 \, (7 - $f1) * $f8 + ($f1
- 6) * $f2))))));
#X obj 417 353 expr if ($f1 < 1 \, (1 - $f1) * $f2 + $f1 * $f3 \, if($f1
< 2 \, (2- $f1) * $f3 + ($f1 - 1) * $f4 \, if($f1 < 3 \, (3 - $f1)
* $f4 + ($f1 - 2) * $f5 \, if($f1 < 4 \, (4 - $f1) * $f5 + ($f1 - 3)
* $f6 \, if($f1 < 5 \, (5 - $f1) * $f6 + ($f1 - 4) * $f7 \, if($f1
< 6 \, (6 - $f1) * $f7 + ($f1 - 5) * $f8 \, (7 - $f1) * $f8 + ($f1
- 6) * $f2))))));
#X obj 448 457 expr if ($f1 < 1 \, (1 - $f1) * $f2 + $f1 * $f3 \, if($f1
< 2 \, (2- $f1) * $f3 + ($f1 - 1) * $f4 \, if($f1 < 3 \, (3 - $f1)
* $f4 + ($f1 - 2) * $f5 \, if($f1 < 4 \, (4 - $f1) * $f5 + ($f1 - 3)
* $f6 \, if($f1 < 5 \, (5 - $f1) * $f6 + ($f1 - 4) * $f7 \, if($f1
< 6 \, (6 - $f1) * $f7 + ($f1 - 5) * $f8 \, (7 - $f1) * $f8 + ($f1
- 6) * $f2))))));
#X obj 457 567 expr if ($f1 < 1 \, (1 - $f1) * $f2 + $f1 * $f3 \, if($f1
< 2 \, (2- $f1) * $f3 + ($f1 - 1) * $f4 \, if($f1 < 3 \, (3 - $f1)
* $f4 + ($f1 - 2) * $f5 \, if($f1 < 4 \, (4 - $f1) * $f5 + ($f1 - 3)
* $f6 \, if($f1 < 5 \, (5 - $f1) * $f6 + ($f1 - 4) * $f7 \, if($f1
< 6 \, (6 - $f1) * $f7 + ($f1 - 5) * $f8 \, (7 - $f1) * $f8 + ($f1
- 6) * $f2))))));
#X obj 815 355 expr if ($f1 < 1 \, (1 - $f1) * $f2 + $f1 * $f3 \, if($f1
< 2 \, (2- $f1) * $f3 + ($f1 - 1) * $f4 \, if($f1 < 3 \, (3 - $f1)
* $f4 + ($f1 - 2) * $f5 \, if($f1 < 4 \, (4 - $f1) * $f5 + ($f1 - 3)
* $f6 \, if($f1 < 5 \, (5 - $f1) * $f6 + ($f1 - 4) * $f7 \, if($f1
< 6 \, (6 - $f1) * $f7 + ($f1 - 5) * $f8 \, (7 - $f1) * $f8 + ($f1
- 6) * $f2))))));
#X obj 846 460 expr if ($f1 < 1 \, (1 - $f1) * $f2 + $f1 * $f3 \, if($f1
< 2 \, (2- $f1) * $f3 + ($f1 - 1) * $f4 \, if($f1 < 3 \, (3 - $f1)
* $f4 + ($f1 - 2) * $f5 \, if($f1 < 4 \, (4 - $f1) * $f5 + ($f1 - 3)
* $f6 \, if($f1 < 5 \, (5 - $f1) * $f6 + ($f1 - 4) * $f7 \, if($f1
< 6 \, (6 - $f1) * $f7 + ($f1 - 5) * $f8 \, (7 - $f1) * $f8 + ($f1
- 6) * $f2))))));
#X obj 881 566 expr if ($f1 < 1 \, (1 - $f1) * $f2 + $f1 * $f3 \, if($f1
< 2 \, (2- $f1) * $f3 + ($f1 - 1) * $f4 \, if($f1 < 3 \, (3 - $f1)
* $f4 + ($f1 - 2) * $f5 \, if($f1 < 4 \, (4 - $f1) * $f5 + ($f1 - 3)
* $f6 \, if($f1 < 5 \, (5 - $f1) * $f6 + ($f1 - 4) * $f7 \, if($f1
< 6 \, (6 - $f1) * $f7 + ($f1 - 5) * $f8 \, (7 - $f1) * $f8 + ($f1
- 6) * $f2))))));
#X obj 586 884 spigot;
#X obj 618 99 inlet;
#X obj 586 906 outlet;
#X obj 266 739 *;
#X obj 240 716 r band1;
#X obj 327 742 *;
#X obj 398 745 *;
#X obj 321 720 r band2;
#X obj 379 721 r band3;
#X obj 346 795 +;
#X obj 592 774 +;
#X obj 568 750 *;
#X obj 636 753 *;
#X obj 700 756 *;
#X obj 648 806 +;
#X obj 801 775 +;
#X obj 777 751 *;
#X obj 845 754 *;
#X obj 909 757 *;
#X obj 857 813 +;
#X obj 545 727 r band1;
#X obj 626 731 r band2;
#X obj 684 732 r band3;
#X obj 755 729 r band1;
#X obj 836 733 r band2;
#X obj 894 734 r band3;
#X text 918 139 red grenade fruit;
#X msg 96 207 81;
#X msg 130 207 200;
#X msg 165 207 12;
#X msg 398 207 161;
#X msg 430 207 217;
#X msg 463 207 45;
#X msg 789 207 249;
#X msg 825 207 160;
#X msg 859 207 32;
#X text 916 208 green leaves;
#X msg 786 324 4;
#X msg 821 324 134;
#X msg 855 324 132;
#X text 920 323 blue abyss;
#X text 914 173 sun;
#X msg 788 174 222;
#X msg 823 174 80;
#X msg 857 174 103;
#X msg 394 324 87;
#X msg 428 324 66;
#X msg 459 324 167;
#X msg 162 324 159;
#X msg 127 324 37;
#X msg 94 324 21;
#X msg 94 174 237;
#X msg 128 174 222;
#X msg 164 174 16;
#X msg 397 174 247;
#X msg 430 174 78;
#X msg 462 174 9;
#X text 915 238 purples;
#X msg 96 239 200;
#X msg 132 239 51;
#X msg 163 239 255;
#X msg 396 239 98;
#X msg 429 239 17;
#X msg 461 239 209;
#X msg 787 239 183;
#X msg 821 239 47;
#X msg 858 239 66;
#X text 917 270 oranges;
#X text 918 297 greens;
#X msg 91 297 11;
#X msg 127 297 255;
#X msg 165 297 123;
#X msg 392 297 0;
#X msg 425 297 176;
#X msg 456 297 119;
#X msg 783 297 64;
#X msg 818 297 218;
#X msg 853 297 255;
#X obj 85 99 +;
#X obj 85 74 expr if($f1 >= 8 \, $f1 - 8 \, $f1 );
#X obj 85 20 r RGBpalette;
#X msg 95 141 255;
#X msg 128 141 85;
#X msg 163 141 33;
#X msg 395 141 255;
#X msg 429 141 52;
#X msg 460 141 19;
#X msg 786 141 218;
#X msg 822 141 0;
#X msg 855 141 77;
#X msg 93 270 247;
#X msg 127 270 93;
#X msg 161 270 57;
#X msg 394 270 205;
#X msg 427 270 42;
#X msg 459 270 23;
#X msg 785 270 232;
#X msg 820 270 91;
#X msg 855 270 107;
#X connect 0 0 3 0;
#X connect 1 0 3 1;
#X connect 2 0 3 2;
#X connect 3 0 27 0;
#X connect 4 0 109 0;
#X connect 4 0 110 0;
#X connect 4 0 111 0;
#X connect 4 0 112 0;
#X connect 4 0 113 0;
#X connect 4 0 114 0;
#X connect 4 0 115 0;
#X connect 4 0 116 0;
#X connect 4 0 108 0;
#X connect 8 0 36 0;
#X connect 9 0 7 0;
#X connect 10 0 5 0;
#X connect 11 0 6 0;
#X connect 12 0 81 0;
#X connect 12 0 83 0;
#X connect 12 0 69 0;
#X connect 12 0 70 0;
#X connect 12 0 71 0;
#X connect 12 0 78 0;
#X connect 12 0 80 0;
#X connect 12 0 79 0;
#X connect 12 0 82 0;
#X connect 13 0 55 0;
#X connect 13 0 56 0;
#X connect 13 0 57 0;
#X connect 13 0 58 0;
#X connect 13 0 59 0;
#X connect 13 0 60 0;
#X connect 13 0 61 0;
#X connect 13 0 62 0;
#X connect 13 0 54 0;
#X connect 14 0 86 0;
#X connect 14 0 87 0;
#X connect 14 0 88 0;
#X connect 14 0 89 0;
#X connect 14 0 90 0;
#X connect 14 0 91 0;
#X connect 14 0 92 0;
#X connect 14 0 93 0;
#X connect 14 0 85 0;
#X connect 15 0 118 0;
#X connect 15 0 119 0;
#X connect 15 0 120 0;
#X connect 15 0 121 0;
#X connect 15 0 122 0;
#X connect 15 0 123 0;
#X connect 15 0 124 0;
#X connect 15 0 125 0;
#X connect 15 0 117 0;
#X connect 16 0 97 0;
#X connect 16 0 99 0;
#X connect 16 0 100 0;
#X connect 16 0 101 0;
#X connect 16 0 102 0;
#X connect 16 0 103 0;
#X connect 16 0 104 0;
#X connect 16 0 96 0;
#X connect 16 0 98 0;
#X connect 17 0 76 0;
#X connect 17 0 75 0;
#X connect 17 0 72 0;
#X connect 17 0 73 0;
#X connect 17 0 74 0;
#X connect 17 0 64 0;
#X connect 17 0 65 0;
#X connect 17 0 77 0;
#X connect 17 0 66 0;
#X connect 18 0 10 1;
#X connect 18 0 38 1;
#X connect 19 0 10 0;
#X connect 19 0 30 1;
#X connect 20 0 10 2;
#X connect 20 0 43 1;
#X connect 21 0 11 0;
#X connect 21 0 32 1;
#X connect 22 0 11 1;
#X connect 22 0 39 1;
#X connect 23 0 11 2;
#X connect 23 0 44 1;
#X connect 24 0 9 0;
#X connect 24 0 33 1;
#X connect 25 0 9 1;
#X connect 25 0 40 1;
#X connect 26 0 9 2;
#X connect 26 0 45 1;
#X connect 27 0 29 0;
#X connect 28 0 27 1;
#X connect 30 0 8 0;
#X connect 31 0 30 0;
#X connect 32 0 8 1;
#X connect 33 0 36 1;
#X connect 34 0 32 0;
#X connect 35 0 33 0;
#X connect 36 0 0 0;
#X connect 37 0 41 0;
#X connect 38 0 37 0;
#X connect 39 0 37 1;
#X connect 40 0 41 1;
#X connect 41 0 1 0;
#X connect 42 0 46 0;
#X connect 43 0 42 0;
#X connect 44 0 42 1;
#X connect 45 0 46 1;
#X connect 46 0 2 0;
#X connect 47 0 38 0;
#X connect 48 0 39 0;
#X connect 49 0 40 0;
#X connect 50 0 43 0;
#X connect 51 0 44 0;
#X connect 52 0 45 0;
#X connect 54 0 19 3;
#X connect 55 0 18 3;
#X connect 56 0 20 3;
#X connect 57 0 21 3;
#X connect 58 0 22 3;
#X connect 59 0 23 3;
#X connect 60 0 24 3;
#X connect 61 0 25 3;
#X connect 62 0 26 3;
#X connect 64 0 24 7;
#X connect 65 0 25 7;
#X connect 66 0 26 7;
#X connect 69 0 24 2;
#X connect 70 0 25 2;
#X connect 71 0 26 2;
#X connect 72 0 21 7;
#X connect 73 0 22 7;
#X connect 74 0 23 7;
#X connect 75 0 20 7;
#X connect 76 0 18 7;
#X connect 77 0 19 7;
#X connect 78 0 19 2;
#X connect 79 0 18 2;
#X connect 80 0 20 2;
#X connect 81 0 21 2;
#X connect 82 0 22 2;
#X connect 83 0 23 2;
#X connect 85 0 19 4;
#X connect 86 0 18 4;
#X connect 87 0 20 4;
#X connect 88 0 21 4;
#X connect 89 0 22 4;
#X connect 90 0 23 4;
#X connect 91 0 24 4;
#X connect 92 0 25 4;
#X connect 93 0 26 4;
#X connect 96 0 19 6;
#X connect 97 0 18 6;
#X connect 98 0 20 6;
#X connect 99 0 21 6;
#X connect 100 0 22 6;
#X connect 101 0 23 6;
#X connect 102 0 24 6;
#X connect 103 0 25 6;
#X connect 104 0 26 6;
#X connect 105 0 18 0;
#X connect 105 0 19 0;
#X connect 105 0 20 0;
#X connect 105 0 21 0;
#X connect 105 0 22 0;
#X connect 105 0 23 0;
#X connect 105 0 24 0;
#X connect 105 0 25 0;
#X connect 105 0 26 0;
#X connect 105 0 4 0;
#X connect 105 0 12 0;
#X connect 105 0 13 0;
#X connect 105 0 14 0;
#X connect 105 0 15 0;
#X connect 105 0 16 0;
#X connect 105 0 17 0;
#X connect 106 0 105 0;
#X connect 107 0 106 0;
#X connect 108 0 19 1;
#X connect 109 0 18 1;
#X connect 110 0 20 1;
#X connect 111 0 21 1;
#X connect 112 0 22 1;
#X connect 113 0 23 1;
#X connect 114 0 24 1;
#X connect 115 0 25 1;
#X connect 116 0 26 1;
#X connect 117 0 19 5;
#X connect 118 0 18 5;
#X connect 119 0 20 5;
#X connect 120 0 21 5;
#X connect 121 0 22 5;
#X connect 122 0 23 5;
#X connect 123 0 24 5;
#X connect 124 0 25 5;
#X connect 125 0 26 5;
#X restore 326 326 pd paletteInterpoaltion;
#X obj 326 364 s message;
#X msg 327 347 send /RGBspectrum \$1 \$2 \$3;
#X obj 39 228 f;
#X obj 133 231 f;
#X obj 219 233 f;
#X floatatom 78 388 5 0 0 0 - - -, f 5;
#X floatatom 145 388 5 0 0 0 - - -, f 5;
#X floatatom 229 389 5 0 0 0 - - -, f 5;
#X obj 219 275 max 0;
#X obj 71 189 bp~ 200 5;
#X obj 151 191 bp~ 800 5;
#X obj 234 191 bp~ 8000 5;
#X obj 133 277 max 0;
#X obj 39 274 max 0;
#X obj 250 60 metro 10;
#X obj 39 257 - 10;
#X obj 133 260 - 10;
#X obj 219 258 - 10;
#X obj 136 38 / 100;
#X obj 123 320 r input_min;
#X floatatom 268 349 5 0 0 0 - - -, f 5;
#X obj 39 359 + 0;
#X obj 133 362 + 0;
#X obj 219 364 + 0;
#X obj 39 297 / 10;
#X obj 132 298 / 10;
#X obj 219 297 / 10;
#X connect 0 0 21 0;
#X connect 1 0 36 0;
#X connect 2 0 36 0;
#X connect 3 0 4 0;
#X connect 3 1 4 0;
#X connect 4 0 31 0;
#X connect 4 0 32 0;
#X connect 4 0 33 0;
#X connect 5 0 6 0;
#X connect 5 0 40 0;
#X connect 7 0 36 0;
#X connect 8 0 24 1;
#X connect 9 0 25 1;
#X connect 10 0 26 1;
#X connect 16 0 17 0;
#X connect 17 0 15 0;
#X connect 21 0 23 0;
#X connect 23 0 22 0;
#X connect 24 0 37 0;
#X connect 25 0 38 0;
#X connect 26 0 39 0;
#X connect 30 0 48 0;
#X connect 31 0 8 0;
#X connect 32 0 9 0;
#X connect 33 0 10 0;
#X connect 34 0 47 0;
#X connect 35 0 46 0;
#X connect 36 0 24 0;
#X connect 36 0 26 0;
#X connect 36 0 25 0;
#X connect 37 0 35 0;
#X connect 38 0 34 0;
#X connect 39 0 30 0;
#X connect 40 0 4 1;
#X connect 41 0 42 0;
#X connect 41 0 43 1;
#X connect 41 0 44 1;
#X connect 41 0 45 1;
#X connect 43 0 12 0;
#X connect 43 0 16 0;
#X connect 43 0 18 0;
#X connect 43 0 27 0;
#X connect 44 0 13 0;
#X connect 44 0 16 1;
#X connect 44 0 19 0;
#X connect 44 0 28 0;
#X connect 45 0 14 0;
#X connect 45 0 16 2;
#X connect 45 0 20 0;
#X connect 45 0 29 0;
#X connect 46 0 43 0;
#X connect 47 0 44 0;
#X connect 48 0 45 0;
#X restore 15 225 pd LYM_spectrum_v4;
#X obj 15 210 tgl 15 0 empty empty empty 17 7 0 10 -262144 -1 -1 1
1;
#X text 17 144 music control;
#X obj 14 36 bng 15 250 50 0 empty empty empty 0 -6 0 8 -24198 -1 -1
;
#X obj 71 36 bng 15 250 50 0 empty empty empty 0 -6 0 8 -258699 -1
-1;
#X obj 14 18 loadbang;
#X text 10 1 UDP connection;
#X obj 15 178 bng 15 250 50 0 empty empty empty 17 7 0 10 -262144 -1
-1;
#X obj 15 161 loadbang;
#X msg 15 193 1;
#X text 115 2 AUDIO ON;
#X obj 117 19 loadbang;
#X msg 117 35 \; pd dsp 1;
#X text 184 197 USB Controller;
#X obj 185 20 bng 15 250 50 0 empty empty empty 17 7 0 10 -4034 -1
-1;
#X obj 184 55 bng 15 250 50 0 empty empty empty 17 7 0 10 -258113 -1
-1;
#X obj 199 55 s stopsoundtrack;
#X text 191 37 STOP SOUNDTRACK;
#X text 186 2 START SOUNDTRACK;
#X obj 200 20 s startsoundtrack;
#X obj 94 120 s connect;
#X obj 16 121 s disconnect;
#X obj 16 79 bng 15 250 50 0 empty empty empty 0 -6 0 8 -24198 -1 -1
;
#X text 38 78 Manual connection;
#X text 183 149 OSC input messages;
#X obj 16 101 delay 3000;
#X obj 94 101 delay 3050;
#N canvas 419 50 823 580 dumpMessages 0;
#X text -614 -5195 OSC message processing;
#X obj -629 -5034 s startclock;
#X obj -616 -4989 s restart;
#X obj -590 -4882 s message;
#X obj -590 -4915 pack s;
#X msg -590 -4899 send /return_message \$1;
#N canvas 261 50 831 484 environmentMessageDisplay 0;
#X obj 57 -94 inlet;
#X obj 216 -92 inlet;
#X msg 216 -7 \; drawing_can label X;
#X msg 217 31 \; drawing_can label Line;
#X obj 216 -33 route 0 1 2 3;
#X obj 246 169 route 0 1 2;
#X msg 223 197 \; particles_can label X;
#X obj 271 -91 inlet;
#X msg 331 -56 \; radius_can label \$1;
#X msg 350 10 \; message_can label \$1;
#X obj 352 -8 pack s;
#X obj 331 -94 inlet;
#X obj 384 -94 inlet;
#X msg 221 73 \; drawing_can label Dots;
#X msg 223 117 \; drawing_can label Bezier;
#X obj 459 -97 inlet;
#X obj 459 -75 s echo;
#X obj 505 -98 inlet;
#X obj 505 -75 s echoNeg;
#X obj 555 -96 inlet;
#X obj 636 -98 inlet;
#X obj 474 -51 pack s;
#X msg 484 138 \; time_can color 13 12;
#X obj 484 110 route 0 1 2 3;
#X msg 483 260 \; time_can color 16 12;
#X msg 485 178 \; time_can color 14 12;
#X msg 483 218 \; time_can color 15 12;
#X msg 474 -30 \; time_can label \$1;
#X obj 680 -95 inlet;
#X obj 734 -95 inlet;
#X obj 639 1 s input_volume;
#X msg 30 -18 \; texture_can label Circle;
#X msg 29 23 \; texture_can label Band;
#X msg 28 66 \; texture_can label Low_noise;
#X msg 30 106 \; texture_can label Med_noise;
#X msg 32 144 \; texture_can label High_noise;
#X msg 33 178 \; texture_can label Worms;
#X msg 32 214 \; texture_can label RandNoise;
#X obj 53 -60 route 0 1 2 3 4 5 6 7;
#X msg 31 249 \; texture_can label Circle;
#X obj 71 323 expr if ($f1 < 0.5 \, 0 \, if($f1 < 1.5 \, 1 \, if($f1
< 2.5 \, 2 \, if($f1 < 3.5 \, 3 \, if($f1 < 4.5 \, 4 \, if($f1 < 5.5
\, 5 \, if($f1 < 6.5 \, 6 \, 7)))))));
#X msg 639 -41 \; tabletPressure_can label \$1;
#X obj 640 -67 makefilename %.0f;
#X obj 331 -73 makefilename %.0f;
#X msg 224 235 \; particles_can label P;
#X msg 223 280 \; particles_can label F;
#X obj 464 29 pack s;
#X obj 599 -96 inlet;
#X msg 464 50 \; cumulated_time_can label \$1;
#X obj 386 90 send buttonOnOff;
#X msg 379 64 5 0;
#X msg 412 65 5 1;
#X obj 782 -92 inlet;
#X obj 633 26 s input_min;
#X connect 0 0 40 0;
#X connect 1 0 4 0;
#X connect 4 0 2 0;
#X connect 4 0 50 0;
#X connect 4 1 3 0;
#X connect 4 1 51 0;
#X connect 4 2 13 0;
#X connect 4 3 14 0;
#X connect 5 0 6 0;
#X connect 5 1 44 0;
#X connect 5 2 45 0;
#X connect 7 0 5 0;
#X connect 10 0 9 0;
#X connect 11 0 43 0;
#X connect 12 0 10 0;
#X connect 15 0 16 0;
#X connect 17 0 18 0;
#X connect 19 0 21 0;
#X connect 20 0 23 0;
#X connect 21 0 27 0;
#X connect 23 0 22 0;
#X connect 23 1 25 0;
#X connect 23 2 26 0;
#X connect 23 3 24 0;
#X connect 28 0 42 0;
#X connect 29 0 30 0;
#X connect 38 0 31 0;
#X connect 38 1 32 0;
#X connect 38 2 33 0;
#X connect 38 3 34 0;
#X connect 38 4 35 0;
#X connect 38 5 36 0;
#X connect 38 6 37 0;
#X connect 38 7 39 0;
#X connect 40 0 38 0;
#X connect 42 0 41 0;
#X connect 43 0 8 0;
#X connect 46 0 48 0;
#X connect 47 0 46 0;
#X connect 50 0 49 0;
#X connect 51 0 49 0;
#X connect 52 0 53 0;
#X restore -146 -5001 pd environmentMessageDisplay;
#X msg -606 -4949 \; setup_can label \$1;
#X obj -606 -4967 pack s;
#X obj -352 -5098 s connect;
#X obj -613 -5178 netreceive 1979 1;
#X text -452 -5194 and processing messages from Porphyrograph;
#X obj -323 -5074 print dump;
#N canvas 352 268 932 308 flashAndLoopMessageDisplay 0;
#X obj -1001 -5828 makefilename %.0f;
#X obj -565 -5817 makefilename %.0f;
#X obj -1001 -5855 inlet;
#X obj -565 -5861 inlet;
#X obj -563 -5638 makefilename %.0f;
#X msg -563 -5621 \; loop_beat_can label \$1;
#X obj -356 -5821 makefilename %.0f;
#X msg -356 -5804 \; flashPart_duration_can label \$1;
#X obj -410 -5854 inlet;
#X obj -357 -5853 inlet;
#X msg -562 -5800 \; flashBack_freq_can label \$1;
#X obj -284 -5857 inlet;
#X msg -349 -5732 \; auto_beat_can label \$1;
#X obj -349 -5749 makefilename %d;
#X obj -792 -5864 inlet;
#X obj -791 -5834 makefilename %d;
#X msg -1015 -5731 \; flashPart_freq_can color 17 12;
#X msg -1015 -5689 \; flashPart_freq_can color 13 12;
#X msg -563 -5715 \; flashBack_freq_can color 17 12;
#X msg -562 -5680 \; flashBack_freq_can color 13 12;
#X msg -1002 -5811 \; flashPart_freq_can label \$1;
#X obj -565 -5746 route 0;
#X obj -809 -5772 route 0;
#X obj -1001 -5759 route 0;
#X msg -810 -5748 \; flashTrack0_freq_can color 17 12;
#X msg -810 -5712 \; flashTrack0_freq_can color 13 12;
#X msg -791 -5816 \; flashTrack0_freq_can label \$1;
#X obj -256 -5638 send buttonOnOff;
#X obj -255 -5691 route 0 1;
#X msg -263 -5664 1 0;
#X msg -230 -5663 1 1;
#X connect 0 0 20 0;
#X connect 1 0 10 0;
#X connect 2 0 0 0;
#X connect 2 0 23 0;
#X connect 3 0 1 0;
#X connect 3 0 21 0;
#X connect 4 0 5 0;
#X connect 6 0 7 0;
#X connect 8 0 4 0;
#X connect 9 0 6 0;
#X connect 11 0 13 0;
#X connect 11 0 28 0;
#X connect 13 0 12 0;
#X connect 14 0 15 0;
#X connect 14 0 22 0;
#X connect 15 0 26 0;
#X connect 21 0 18 0;
#X connect 21 1 19 0;
#X connect 22 0 24 0;
#X connect 22 1 25 0;
#X connect 23 0 16 0;
#X connect 23 1 17 0;
#X connect 28 0 29 0;
#X connect 28 1 30 0;
#X connect 29 0 27 0;
#X connect 30 0 27 0;
#X restore -154 -5104 pd flashAndLoopMessageDisplay;
#X msg -459 -5029 \; part_acc_factor_can label \$1;
#N canvas 964 388 722 652 trackMessageDisplay 0;
#N canvas 4 135 288 272 colorRGB 0;
#X obj 16 27 inlet;
#X obj 93 28 inlet;
#X text 21 9 red;
#X text 93 11 green;
#X obj 159 75 t b f;
#X obj 93 112 +;
#X obj 93 137 t b f;
#X obj 93 168 +;
#X obj 16 52 * -65536;
#X obj 93 53 * -256;
#X obj 159 53 * -1;
#X obj 93 199 - 1;
#X obj 159 28 inlet;
#X obj 93 226 outlet;
#X text 161 11 blue;
#X connect 0 0 8 0;
#X connect 1 0 9 0;
#X connect 4 0 5 0;
#X connect 4 1 5 1;
#X connect 5 0 6 0;
#X connect 6 0 7 0;
#X connect 6 1 7 1;
#X connect 7 0 11 0;
#X connect 8 0 7 0;
#X connect 9 0 5 0;
#X connect 10 0 4 0;
#X connect 11 0 13 0;
#X connect 12 0 10 0;
#X restore -417 -711 pd colorRGB;
#X msg -417 -694 \; color_can color \$1;
#X obj -417 -778 * 255;
#X obj -417 -746 int;
#X obj -417 -863 inlet;
#X msg -417 -816 \; gray_can label \$1;
#X obj -417 -833 makefilename G_%.2f;
#X obj -465 -863 inlet;
#X obj -473 -507 route 0 1;
#X msg -479 -479 \; is_VideoOn_can color 17 12;
#X msg -297 -481 \; is_VideoOn_can color 13 12;
#X msg -295 -447 \; is_VideoOn_can label +;
#X msg -478 -444 \; is_VideoOn_can label -;
#X obj -296 -867 inlet;
#X msg -459 -601 \; initialBGSubtr_can color 17 12;
#X msg -450 -557 \; initialBGSubtr_can color 13 12;
#X msg -220 -605 \; currentBGSubtr_can color 17 12;
#X msg -215 -559 \; currentBGSubtr_can color 13 12;
#X obj -289 -803 makefilename %.1f;
#X msg -290 -785 \; repopulatingBG_can label \$1;
#X msg -292 -753 \; repopulatingBG_can color 17 12;
#X msg -294 -724 \; repopulatingBG_can color 13 12;
#X obj -236 -827 route 0;
#X obj -196 -870 inlet;
#X obj -368 -640 route 0 1 2;
#X obj -280 -679 makefilename %.1f;
#X obj -146 -872 inlet;
#X msg -281 -661 \; radiusParticle_can label \$1;
#X obj -76 -824 makefilename %.2f;
#X msg -76 -807 \; videoThreshold label \$1;
#X obj -36 -756 makefilename %.2f;
#X msg -35 -739 \; videoGamma label \$1;
#X msg 8 -671 \; videoExposure label \$1;
#X obj -81 -865 inlet;
#X obj -34 -867 inlet;
#X obj 9 -862 inlet;
#X obj 7 -688 makefilename %.0f;
#X obj -434 -370 send buttonOnOff;
#X msg -441 -396 6 0;
#X msg -408 -395 6 1;
#X connect 0 0 1 0;
#X connect 2 0 3 0;
#X connect 3 0 0 0;
#X connect 3 0 0 1;
#X connect 3 0 0 2;
#X connect 4 0 6 0;
#X connect 4 0 2 0;
#X connect 6 0 5 0;
#X connect 7 0 8 0;
#X connect 8 0 9 0;
#X connect 8 0 12 0;
#X connect 8 0 38 0;
#X connect 8 1 10 0;
#X connect 8 1 11 0;
#X connect 8 1 39 0;
#X connect 13 0 24 0;
#X connect 18 0 19 0;
#X connect 22 0 20 0;
#X connect 22 1 21 0;
#X connect 23 0 18 0;
#X connect 23 0 22 0;
#X connect 24 0 14 0;
#X connect 24 0 16 0;
#X connect 24 1 15 0;
#X connect 24 1 16 0;
#X connect 24 2 14 0;
#X connect 24 2 17 0;
#X connect 25 0 27 0;
#X connect 26 0 25 0;
#X connect 28 0 29 0;
#X connect 30 0 31 0;
#X connect 33 0 28 0;
#X connect 34 0 30 0;
#X connect 35 0 36 0;
#X connect 36 0 32 0;
#X connect 38 0 37 0;
#X connect 39 0 37 0;
#X restore -120 -4925 pd trackMessageDisplay;
#N canvas 941 211 720 328 trackDecayAndWeightMessages 0;
#X obj -732 -214 pack f;
#X obj -732 -247 inlet;
#X msg -869 -176 \; track0decay_sign_can label +;
#X msg -863 -132 \; track0decay_sign_can label -;
#X msg -830 -85 \; track0decay_sign_can color 13 12;
#X msg -815 -36 \; track0decay_sign_can color 17 12;
#X obj -732 -196 s track0decay;
#X obj -845 -251 inlet;
#X obj -583 -195 pack f;
#X obj -636 -246 inlet;
#X obj -846 -218 route -1 1;
#X obj -583 -153 pack f;
#X obj -583 -64 pack f;
#X obj -591 -244 inlet;
#X obj -583 -177 s trackCompositionWeight_0;
#X obj -583 -135 s trackFinalWeight_0;
#X obj -582 -43 s trackFinalWeight_1;
#X obj -382 -213 makefilename %.2f;
#X obj -396 -247 inlet;
#X msg -382 -196 \; images_weights_rand label \$1;
#X obj -383 -151 makefilename %.2f;
#X obj -350 -247 inlet;
#X msg -383 -134 \; sample_swap_freq label \$1;
#X obj -380 -94 makefilename %.2f;
#X msg -380 -77 \; maskJitterAmpl_can label \$1;
#X obj -305 -247 inlet;
#X obj -379 -33 makefilename %.2f;
#X msg -379 -16 \; images_weights_scale label \$1;
#X obj -267 -245 inlet;
#X obj -584 -110 pack f;
#X obj -583 -92 s trackCompositionWeight_1;
#X obj -547 -246 inlet;
#X obj -503 -245 inlet;
#X obj -380 27 makefilename %.2f;
#X obj -219 -246 inlet;
#X msg -380 44 \; image_value label \$1;
#X connect 0 0 6 0;
#X connect 1 0 0 0;
#X connect 7 0 10 0;
#X connect 8 0 14 0;
#X connect 9 0 8 0;
#X connect 10 0 2 0;
#X connect 10 0 4 0;
#X connect 10 1 3 0;
#X connect 10 1 5 0;
#X connect 11 0 15 0;
#X connect 12 0 16 0;
#X connect 13 0 11 0;
#X connect 17 0 19 0;
#X connect 18 0 17 0;
#X connect 20 0 22 0;
#X connect 21 0 20 0;
#X connect 23 0 24 0;
#X connect 25 0 23 0;
#X connect 26 0 27 0;
#X connect 28 0 26 0;
#X connect 29 0 30 0;
#X connect 31 0 29 0;
#X connect 32 0 12 0;
#X connect 33 0 35 0;
#X connect 34 0 33 0;
#X restore -132 -4795 pd trackDecayAndWeightMessages;
#X obj -623 -5012 s RGBpalette;
#X msg -464 -4957 \; RGBpalette_val_coef_can label \$1;
#X obj -465 -4974 makefilename %.1f;
#X obj -459 -5046 makefilename %.2f;
#N canvas 557 695 1068 532 CAallcontrolsmanagement 0;
#X obj -774 -501 inlet;
#X obj -838 -461 makefilename %d;
#X obj -773 -293 makefilename %d;
#X msg -773 -276 \; flashCA_freq_1_can label \$1;
#X msg -838 -444 \; flashCA_freq_0_can label \$1;
#X msg -838 -379 \; flashCA_freq_0_can color 17 12;
#X msg -838 -342 \; flashCA_freq_0_can color 13 12;
#X msg -773 -213 \; flashCA_freq_1_can color 17 12;
#X msg -774 -174 \; flashCA_freq_1_can color 13 12;
#X obj -774 -238 route 0;
#X obj -836 -406 route 0;
#X obj -616 -456 makefilename %.0f;
#X obj -542 -499 inlet;
#X msg -613 -439 \; flashBack_freq_can label \$1;
#X msg -614 -354 \; flashBack_freq_can color 17 12;
#X msg -613 -319 \; flashBack_freq_can color 13 12;
#X obj -616 -385 route 0;
#X obj -158 -416 pack f;
#X obj -158 -399 makefilename %d;
#X obj -396 -476 route 0 1 2 3 4 5 6 7 8;
#X obj -396 -498 inlet;
#X obj -169 -500 inlet;
#X msg -170 -450 \; CASubType_can label X;
#X msg -158 -382 \; CASubType_can label \$1;
#X obj -169 -478 route 0;
#X msg -394 -454 \; CAType_can label Prey;
#X msg -385 -416 \; CAType_can label Dislocation;
#X msg -333 -261 \; CAType_can label XXXXXXX;
#X msg -313 -224 \; CAType_can label XXXXXXX;
#X msg -299 -188 \; CAType_can label XXXXXXX;
#X msg -277 -150 \; CAType_can label XXXXXXX;
#X msg -372 -378 \; CAType_can label Protocells;
#X msg -363 -337 \; CAType_can label Socio_PD;
#X obj 2 -510 inlet;
#X obj -126 -316 makefilename %.1f;
#X msg -126 -299 \; repopulatingCA_can label \$1;
#X obj -127 -340 route 0;
#X msg -127 -267 \; repopulatingCA_can color 17 12;
#X msg -129 -238 \; repopulatingCA_can color 13 12;
#X obj 85 -515 inlet;
#X obj 107 -222 pack f;
#X obj 153 -517 inlet;
#X obj 107 -205 s CAdecay;
#X msg 62 -410 \; CAdecay_sign_can label +;
#X msg 68 -365 \; CAdecay_sign_can label -;
#X msg 83 -316 \; CAdecay_sign_can color 13 12;
#X msg 110 -275 \; CAdecay_sign_can color 17 12;
#X obj 85 -454 route -1 1;
#X obj 114 -173 pack f;
#X obj 210 -516 inlet;
#X obj 116 -120 pack f;
#X obj 264 -518 inlet;
#X obj 116 -101 s CAFinalWeight;
#X obj 114 -154 s CACompositionWeight;
#X obj 350 -523 inlet;
#X obj 368 -504 inlet;
#X obj 384 -484 inlet;
#X obj 400 -465 inlet;
#X obj 419 -446 inlet;
#X msg 381 -129 \; CAParams5_can label \$1;
#X msg 367 -159 \; CAParams4_can label \$1;
#X msg 352 -187 \; CAParams3_can label \$1;
#X msg 331 -215 \; CAParams2_can label \$1;
#X msg 316 -246 \; CAParams1_can label \$1;
#X obj 299 -390 makefilename %.3f;
#X obj 308 -376 makefilename %.3f;
#X obj 318 -359 makefilename %.3f;
#X obj 329 -342 makefilename %.3f;
#X obj 339 -325 makefilename %.3f;
#X obj 504 -530 inlet;
#X msg 540 -370 \; CAcolorSpread_can label fast;
#X msg 544 -329 \; CAcolorSpread_can label slow;
#X msg 510 -454 \; CAcolorSpread_can color 13 12;
#X msg 514 -414 \; CAcolorSpread_can color 17 12;
#X obj 509 -501 route 1 0;
#X msg -351 -300 \; CAType_can label Lets_Go;
#X obj -685 -497 inlet;
#X connect 0 0 1 0;
#X connect 0 0 10 0;
#X connect 1 0 4 0;
#X connect 2 0 3 0;
#X connect 9 0 7 0;
#X connect 9 1 8 0;
#X connect 10 0 5 0;
#X connect 10 1 6 0;
#X connect 11 0 13 0;
#X connect 12 0 11 0;
#X connect 12 0 16 0;
#X connect 16 0 14 0;
#X connect 16 1 15 0;
#X connect 17 0 18 0;
#X connect 18 0 23 0;
#X connect 19 0 25 0;
#X connect 19 1 26 0;
#X connect 19 2 31 0;
#X connect 19 3 32 0;
#X connect 19 4 75 0;
#X connect 19 5 27 0;
#X connect 19 6 28 0;
#X connect 19 7 29 0;
#X connect 19 8 30 0;
#X connect 20 0 19 0;
#X connect 21 0 24 0;
#X connect 24 0 22 0;
#X connect 24 1 17 0;
#X connect 33 0 34 0;
#X connect 33 0 36 0;
#X connect 34 0 35 0;
#X connect 36 0 37 0;
#X connect 36 1 38 0;
#X connect 39 0 47 0;
#X connect 40 0 42 0;
#X connect 41 0 40 0;
#X connect 47 0 43 0;
#X connect 47 0 45 0;
#X connect 47 1 44 0;
#X connect 47 1 46 0;
#X connect 48 0 53 0;
#X connect 49 0 48 0;
#X connect 50 0 52 0;
#X connect 51 0 50 0;
#X connect 54 0 64 0;
#X connect 55 0 65 0;
#X connect 56 0 66 0;
#X connect 57 0 67 0;
#X connect 58 0 68 0;
#X connect 64 0 63 0;
#X connect 65 0 62 0;
#X connect 66 0 61 0;
#X connect 67 0 60 0;
#X connect 68 0 59 0;
#X connect 69 0 74 0;
#X connect 74 0 72 0;
#X connect 74 0 70 0;
#X connect 74 1 73 0;
#X connect 74 1 71 0;
#X connect 76 0 2 0;
#X connect 76 0 9 0;
#X restore -101 -4646 pd CAallcontrolsmanagement;
#X obj -608 -5155 route /launch /RGBpalette_can /restart /setup_can
/return_message /part_acc_factor_can /RGBpalette_val_coef_can;
#X obj -227 -4983 route /is_videoOn_can /local_color_gray_can /BGSubtr_can
/repopulatingBG_can /radiusParticle_can /videoThreshold_can /videoGamma_can
/videoExposure_can;
#X obj -252 -5161 route /flashPart_freq_can /flashTrack0_freq_can /flashBack_freq_can
/loop_beat_can /flashPart_duration_can /auto_beat_can;
#X msg -453 -4823 /flashCA_freq_1_can 5;
#X obj -204 -4772 route /flashCA_freq_0_can /flashCA_freq_1_can /flashBack_freq_can
/CAType_can /CASubType_can /repopulatingCA_can /CAdecay_sign_can /CAdecay_can
/CACompositionWeight_can /CAFinalWeight_can /CAParams1_can /CAParams2_can
/CAParams3_can /CAParams4_can /CAParams5_can /CAcolorSpread_can;
#X obj -202 -4899 route /trackdecay_sign_0_can /trackdecay_0_can /trackCompositionWeight_0_can
/trackFinalWeight_0_can /trackCompositionWeight_1_can /trackFinalWeight_1_can
/images_weights_rand_can /sample_swap_freq_can /maskJitterAmpl_can
/images_weights_scale_can /image_value_can;
#X obj -238 -5077 route /particle_texture_ID_can /drawing_can /particleMode_can
/brushRadius_can /message_can /echo_can /echoNeg_can /time_can /cumulated_time_can
/time_color_can /brush_radius_pressure_coef_can /input_volume_can /input_min_can
;
#X connect 4 0 5 0;
#X connect 5 0 3 0;
#X connect 8 0 7 0;
#X connect 10 0 22 0;
#X connect 19 0 18 0;
#X connect 20 0 14 0;
#X connect 22 0 1 0;
#X connect 22 1 17 0;
#X connect 22 2 2 0;
#X connect 22 3 8 0;
#X connect 22 4 4 0;
#X connect 22 5 20 0;
#X connect 22 6 19 0;
#X connect 22 7 24 0;
#X connect 23 0 15 0;
#X connect 23 1 15 1;
#X connect 23 2 15 2;
#X connect 23 3 15 3;
#X connect 23 4 15 4;
#X connect 23 5 15 5;
#X connect 23 6 15 6;
#X connect 23 7 15 7;
#X connect 23 8 27 0;
#X connect 24 0 13 0;
#X connect 24 1 13 1;
#X connect 24 2 13 2;
#X connect 24 3 13 3;
#X connect 24 4 13 4;
#X connect 24 5 13 5;
#X connect 24 6 28 0;
#X connect 25 0 26 0;
#X connect 26 0 21 0;
#X connect 26 1 21 1;
#X connect 26 2 21 2;
#X connect 26 3 21 3;
#X connect 26 4 21 4;
#X connect 26 5 21 5;
#X connect 26 6 21 6;
#X connect 26 7 21 7;
#X connect 26 8 21 8;
#X connect 26 9 21 9;
#X connect 26 10 21 10;
#X connect 26 11 21 11;
#X connect 26 12 21 12;
#X connect 26 13 21 13;
#X connect 26 14 21 14;
#X connect 26 15 21 15;
#X connect 27 0 16 0;
#X connect 27 1 16 1;
#X connect 27 2 16 2;
#X connect 27 3 16 3;
#X connect 27 4 16 4;
#X connect 27 5 16 5;
#X connect 27 6 16 6;
#X connect 27 7 16 7;
#X connect 27 8 16 8;
#X connect 27 9 16 9;
#X connect 27 10 16 10;
#X connect 27 11 26 0;
#X connect 28 0 6 0;
#X connect 28 1 6 1;
#X connect 28 2 6 2;
#X connect 28 3 6 3;
#X connect 28 4 6 4;
#X connect 28 5 6 5;
#X connect 28 6 6 6;
#X connect 28 7 6 7;
#X connect 28 8 6 8;
#X connect 28 9 6 9;
#X connect 28 10 6 10;
#X connect 28 11 6 11;
#X connect 28 12 6 12;
#X connect 28 13 23 0;
#X restore 185 165 pd dumpMessages;
#N canvas 344 50 993 959 controls 0;
#X obj 12 -547 vsl 15 50 0 1 0 0 empty empty empty 0 -9 0 10 -262144
-1 -1 0 1;
#X obj 12 -566 / 127;
#X obj 13 -344 vsl 15 50 0 1 0 0 empty empty empty 0 -9 0 10 -262144
-1 -1 0 1;
#X obj 13 -363 / 127;
#X obj 13 -197 / 127;
#X obj 11 14 vsl 15 50 0 1 0 0 empty empty empty 0 -9 0 10 -262144
-1 -1 0 1;
#X obj 11 -5 / 127;
#X obj 92 -547 vsl 15 50 0 1 0 0 empty empty empty 0 -9 0 10 -262144
-1 -1 0 1;
#X obj 92 -566 / 127;
#X obj 93 -344 vsl 15 50 0 1 0 0 empty empty empty 0 -9 0 10 -262144
-1 -1 0 1;
#X obj 93 -363 / 127;
#X obj 93 -197 / 127;
#X obj 91 14 vsl 15 50 0 1 0 0 empty empty empty 0 -9 0 10 -262144
-1 -1 0 1;
#X obj 91 -5 / 127;
#X obj 173 -548 vsl 15 50 0 1 0 0 empty empty empty 0 -9 0 10 -262144
-1 -1 0 1;
#X obj 173 -567 / 127;
#X obj 174 -345 vsl 15 50 0 1 0 0 empty empty empty 0 -9 0 10 -262144
-1 -1 0 1;
#X obj 174 -364 / 127;
#X obj 174 -179 vsl 15 50 0 1 0 0 empty empty empty 0 -9 0 10 -262144
-1 -1 0 1;
#X obj 174 -198 / 127;
#X obj 172 13 vsl 15 50 0 1 0 0 empty empty empty 0 -9 0 10 -262144
-1 -1 0 1;
#X obj 172 -6 / 127;
#X obj 249 -548 vsl 15 50 0 1 0 0 empty empty empty 0 -9 0 10 -262144
-1 -1 0 1;
#X obj 249 -567 / 127;
#X obj 250 -345 vsl 15 50 0 1 0 0 empty empty empty 0 -9 0 10 -262144
-1 -1 0 1;
#X obj 250 -364 / 127;
#X obj 250 -179 vsl 15 50 0 1 0 0 empty empty empty 0 -9 0 10 -262144
-1 -1 0 1;
#X obj 250 -198 / 127;
#X obj 248 11 vsl 15 50 0 1 0 0 empty empty empty 0 -9 0 10 -262144
-1 -1 0 1;
#X obj 248 -8 / 127;
#X obj 324 -548 vsl 15 50 0 1 0 0 empty empty empty 0 -9 0 10 -262144
-1 -1 0 1;
#X obj 324 -567 / 127;
#X obj 325 -345 vsl 15 50 0 1 0 0 empty empty empty 0 -9 0 10 -262144
-1 -1 0 1;
#X obj 325 -364 / 127;
#X obj 325 -180 vsl 15 50 0 1 0 0 empty empty empty 0 -9 0 10 -262144
-1 -1 0 1;
#X obj 325 -198 / 127;
#X obj 323 11 vsl 15 50 0 1 0 0 empty empty empty 0 -9 0 10 -262144
-1 -1 0 1;
#X obj 323 -8 / 127;
#X obj 403 -549 vsl 15 50 0 1 0 0 empty empty empty 0 -9 0 10 -262144
-1 -1 0 1;
#X obj 403 -568 / 127;
#X obj 404 -346 vsl 15 50 0 1 0 0 empty empty empty 0 -9 0 10 -262144
-1 -1 0 1;
#X obj 404 -365 / 127;
#X obj 404 -180 vsl 15 50 0 1 0 0 empty empty empty 0 -9 0 10 -262144
-1 -1 0 1;
#X obj 404 -199 / 127;
#X obj 402 10 vsl 15 50 0 1 0 0 empty empty empty 0 -9 0 10 -262144
-1 -1 0 1;
#X obj 402 -9 / 127;
#X obj 489 -549 vsl 15 50 0 1 0 0 empty empty empty 0 -9 0 10 -262144
-1 -1 0 1;
#X obj 489 -568 / 127;
#X obj 490 -346 vsl 15 50 0 1 0 0 empty empty empty 0 -9 0 10 -262144
-1 -1 0 1;
#X obj 490 -365 / 127;
#X obj 490 -180 vsl 15 50 0 1 0 0 empty empty empty 0 -9 0 10 -262144
-1 -1 0 1;
#X obj 490 -199 / 127;
#X obj 488 10 vsl 15 50 0 1 0 0 empty empty empty 0 -9 0 10 -262144
-1 -1 0 1;
#X obj 488 -9 / 127;
#X obj 565 -550 vsl 15 50 0 1 0 0 empty empty empty 0 -9 0 10 -262144
-1 -1 0 1;
#X obj 565 -569 / 127;
#X obj 566 -347 vsl 15 50 0 1 0 0 empty empty empty 0 -9 0 10 -262144
-1 -1 0 1;
#X obj 566 -366 / 127;
#X obj 566 -181 vsl 15 50 0 1 0 0 empty empty empty 0 -9 0 10 -262144
-1 -1 0 1;
#X obj 566 -200 / 127;
#X obj 564 9 vsl 15 50 0 1 0 0 empty empty empty 0 -9 0 10 -262144
-1 -1 0 1;
#X obj 564 -10 / 127;
#X obj 643 8 vsl 15 50 0 1 0 0 empty empty empty 0 -9 0 10 -262144
-1 -1 0 1;
#X obj 643 -11 / 127;
#X obj 12 -583 ctlin 13 1;
#X obj 13 -214 ctlin 10 1;
#X obj 11 -22 ctlin 7 1;
#X obj 643 -28 ctlin 28 1;
#X obj 92 -583 ctlin 13 2;
#X obj 93 -214 ctlin 10 2;
#X obj 91 -22 ctlin 7 2;
#X obj 173 -584 ctlin 13 3;
#X obj 249 -584 ctlin 13 4;
#X obj 325 -584 ctlin 13 5;
#X obj 489 -585 ctlin 13 7;
#X obj 565 -586 ctlin 13 8;
#X obj 174 -381 ctlin 12 3;
#X obj 174 -215 ctlin 10 3;
#X obj 172 -23 ctlin 7 3;
#X obj 250 -381 ctlin 12 4;
#X obj 250 -215 ctlin 10 4;
#X obj 248 -25 ctlin 7 4;
#X obj 325 -381 ctlin 12 5;
#X obj 325 -215 ctlin 10 5;
#X obj 322 -25 ctlin 7 5;
#X obj 403 -585 ctlin 13 6;
#X obj 404 -382 ctlin 12 6;
#X obj 404 -216 ctlin 10 6;
#X obj 402 -26 ctlin 7 6;
#X obj 490 -382 ctlin 12 7;
#X obj 490 -215 ctlin 10 7;
#X obj 488 -24 ctlin 7 7;
#X obj 566 -383 ctlin 12 8;
#X obj 566 -217 ctlin 10 8;
#X obj 564 -27 ctlin 7 8;
#X obj 93 -380 ctlin 12 2;
#X obj 13 -380 ctlin 12 1;
#N canvas 221 50 450 300 particleMode 0;
#X obj 67 -341 int;
#X obj 67 -307 s message;
#X msg 67 -324 send /particleMode \$1;
#X obj 67 -382 inlet;
#X obj 67 -358 * 2.99;
#X connect 0 0 2 0;
#X connect 2 0 1 0;
#X connect 3 0 4 0;
#X connect 4 0 0 0;
#X restore 93 -240 pd particleMode;
#N canvas 269 50 450 300 part_acc_factor 0;
#X obj 42 68 s message;
#X msg 42 51 send /part_acc_factor \$1;
#X obj 42 18 inlet;
#X floatatom 232 161 5 0 0 0 - - -, f 5;
#X connect 1 0 0 0;
#X connect 2 0 1 0;
#X connect 2 0 3 0;
#X restore 93 -407 pd part_acc_factor;
#N canvas 469 50 450 300 partAccCenter 0;
#X obj -3732 -73 s message;
#X obj -3629 -262 route 0 1 2 3 4;
#X msg -3629 -233 0.5;
#X msg -3546 -237 0.5;
#X msg -3615 -208 0.5;
#X msg -3532 -212 0.1;
#X msg -3606 -182 0.5;
#X msg -3528 -183 0.9;
#X msg -3518 -156 0.5;
#X msg -3508 -128 0.5;
#X msg -3595 -156 0.1;
#X msg -3585 -128 0.9;
#X msg -3732 -90 send /partAccCenter_0 \$1;
#X obj -3570 -74 s message;
#X msg -3570 -91 send /partAccCenter_1 \$1;
#X obj -3629 -335 inlet;
#X obj -3629 -288 int;
#X obj -3629 -313 * 4.99;
#X floatatom -3509 -280 5 0 0 0 - - -, f 5;
#X connect 1 0 2 0;
#X connect 1 0 3 0;
#X connect 1 1 5 0;
#X connect 1 1 4 0;
#X connect 1 2 6 0;
#X connect 1 2 7 0;
#X connect 1 3 10 0;
#X connect 1 3 8 0;
#X connect 1 4 11 0;
#X connect 1 4 9 0;
#X connect 2 0 12 0;
#X connect 3 0 14 0;
#X connect 4 0 12 0;
#X connect 5 0 14 0;
#X connect 6 0 12 0;
#X connect 7 0 14 0;
#X connect 8 0 14 0;
#X connect 9 0 14 0;
#X connect 10 0 12 0;
#X connect 11 0 12 0;
#X connect 12 0 0 0;
#X connect 14 0 13 0;
#X connect 15 0 17 0;
#X connect 16 0 1 0;
#X connect 16 0 18 0;
#X connect 17 0 16 0;
#X restore 173 -428 pd partAccCenter;
#N canvas 490 50 450 300 texture 0;
#X obj 41 -296 s message;
#X msg 41 -313 send /particle_texture_ID \$1;
#X obj 41 -372 inlet;
#X obj 41 -341 * 6.99;
#X connect 1 0 0 0;
#X connect 2 0 3 0;
#X connect 3 0 1 0;
#X restore 256 -408 pd texture;
#N canvas 532 50 450 300 flashPartFrequency 0;
#X obj 109 -318 inlet;
#X msg 109 -253 send /flashPart_freq \$1;
#X obj 109 -236 s message;
#X obj 109 -270 int;
#X obj 109 -287 * 9.99;
#X connect 0 0 4 0;
#X connect 1 0 2 0;
#X connect 3 0 1 0;
#X connect 4 0 3 0;
#X restore 324 -426 pd flashPartFrequency;
#N canvas 532 50 450 300 flashTrack0_freq 0;
#X obj 86 -306 inlet;
#X obj 86 -224 s message;
#X obj 86 -258 int;
#X msg 86 -241 send /flashTrack0_freq \$1;
#X obj 86 -275 * 9.99;
#X connect 0 0 4 0;
#X connect 2 0 3 0;
#X connect 3 0 1 0;
#X connect 4 0 2 0;
#X restore 325 -259 pd flashTrack0_freq;
#X obj 93 -178 vsl 15 50 0 1 0 0 empty empty empty 0 -9 0 10 -262144
-1 -1 0 1;
#X obj 12 -178 vsl 15 50 0 1 0 0 empty empty empty 0 -9 0 10 -262144
-1 -1 0 1;
#N canvas 483 303 450 300 input_volume 0;
#X obj 61 0 inlet;
#X floatatom 193 57 5 0 0 0 - - -, f 5;
#X obj 62 96 s message;
#X msg 61 79 send /input_volume \$1;
#X obj 61 30 * 0.3;
#X connect 0 0 4 0;
#X connect 3 0 2 0;
#X connect 4 0 1 0;
#X connect 4 0 3 0;
#X restore 403 -408 pd input_volume;
#N canvas 1348 177 450 300 RGBpalette_val_coef 0;
#X obj 61 -83 inlet;
#X msg 61 -35 send /RGBpalette_val_coef \$1;
#X obj 61 -19 s message;
#X obj 61 -52 * 4;
#X floatatom 253 76 5 0 0 0 - - -, f 5;
#X connect 0 0 3 0;
#X connect 1 0 2 0;
#X connect 3 0 1 0;
#X connect 3 0 4 0;
#X restore 404 -241 pd RGBpalette_val_coef;
#N canvas 532 50 450 300 flashPart_duration 0;
#X obj 86 -306 inlet;
#X obj 86 -224 s message;
#X obj 86 -258 int;
#X msg 86 -241 send /flashPart_duration \$1;
#X obj 86 -275 * 70.99;
#X floatatom 234 -135 5 0 0 0 - - -, f 5;
#X connect 0 0 4 0;
#X connect 2 0 3 0;
#X connect 2 0 5 0;
#X connect 3 0 1 0;
#X connect 4 0 2 0;
#X restore 250 -238 pd flashPart_duration;
#N canvas 126 50 450 300 videoThreshold 0;
#X obj 67 -295 s message;
#X obj 67 -382 inlet;
#X msg 67 -312 send /videoThreshold \$1;
#X floatatom 229 -324 5 0 0 0 - - -, f 5;
#X connect 1 0 2 0;
#X connect 1 0 3 0;
#X connect 2 0 0 0;
#X restore 12 98 pd videoThreshold;
#N canvas 221 50 450 300 brushRadius 0;
#X obj 67 -295 s message;
#X obj 67 -382 inlet;
#X msg 67 -312 send /brushRadius \$1;
#X obj 67 -336 + 1;
#X obj 67 -358 * 20;
#X connect 1 0 4 0;
#X connect 2 0 0 0;
#X connect 3 0 2 0;
#X connect 4 0 3 0;
#X restore 172 96 pd brushRadius;
#N canvas 221 50 450 300 echoNeg 0;
#X obj 67 -295 s message;
#X obj 67 -382 inlet;
#X obj 67 -336 + 1;
#X msg 67 -312 send /echoNeg \$1;
#X obj 67 -358 * -1;
#X floatatom 220 -265 5 0 0 0 - - -, f 5;
#X connect 1 0 4 0;
#X connect 2 0 3 0;
#X connect 2 0 5 0;
#X connect 3 0 0 0;
#X connect 4 0 2 0;
#X restore 248 113 pd echoNeg;
#N canvas 299 142 450 300 echo 0;
#X obj 77 -285 s message;
#X obj 77 -372 inlet;
#X obj 77 -326 + 1;
#X obj 77 -348 * -1;
#X msg 77 -302 send /echo \$1;
#X floatatom 156 -254 5 0 0 0 - - -, f 5;
#X connect 1 0 3 0;
#X connect 2 0 4 0;
#X connect 2 0 5 0;
#X connect 3 0 2 0;
#X connect 4 0 0 0;
#X restore 323 94 pd echo;
#N canvas 299 142 450 300 repopulatingBG 0;
#X obj 63 -141 s message;
#X obj 63 -190 inlet;
#X msg 63 -165 send /repopulatingBG \$1;
#X floatatom 154 -104 5 0 0 0 - - -, f 5;
#X connect 1 0 2 0;
#X connect 1 0 3 0;
#X connect 2 0 0 0;
#X restore 174 -69 pd repopulatingBG;
#N canvas 523 365 450 300 videoGamma 0;
#X obj 67 -295 s message;
#X obj 67 -382 inlet;
#X obj 67 -358 + 0.01;
#X msg 67 -312 send /videoGamma \$1;
#X floatatom 199 -343 5 0 0 0 - - -, f 5;
#X obj 261 -343 vsl 15 128 0 5 0 0 empty empty empty 0 -9 0 10 -262144
-1 -1 0 1;
#X floatatom 40 -246 5 0 0 0 - - -, f 5;
#X connect 1 0 2 0;
#X connect 1 0 6 0;
#X connect 2 0 3 0;
#X connect 2 0 4 0;
#X connect 3 0 0 0;
#X connect 5 0 3 0;
#X connect 5 0 4 0;
#X restore 12 -68 pd videoGamma;
#N canvas 532 50 450 300 images_weights_scale 0;
#X obj 86 -306 inlet;
#X obj 86 -210 s message;
#X obj 86 -275 * -1;
#X obj 86 -253 + 1;
#X msg 86 -228 send /images_weights_scale \$1;
#X floatatom 236 -161 5 0 0 0 - - -, f 5;
#X connect 0 0 2 0;
#X connect 2 0 3 0;
#X connect 3 0 4 0;
#X connect 3 0 5 0;
#X connect 4 0 1 0;
#X restore 402 115 pd images_weights_scale;
#N canvas 40 50 450 300 CAType 0;
#X obj 67 -341 int;
#X obj 67 -307 s message;
#X obj 67 -382 inlet;
#X msg 67 -324 send /CAType \$1;
#X obj 67 -358 * 8.99;
#X floatatom 200 -235 5 0 0 0 - - -, f 5;
#X connect 0 0 3 0;
#X connect 0 0 5 0;
#X connect 2 0 4 0;
#X connect 3 0 1 0;
#X connect 4 0 0 0;
#X restore 490 -259 pd CAType;
#N canvas 221 50 450 300 CASubType 0;
#X obj 67 -341 int;
#X obj 67 -307 s message;
#X obj 67 -382 inlet;
#X obj 67 -358 * 8.99;
#X msg 67 -324 send /CASubType \$1;
#X floatatom 196 -209 5 0 0 0 - - -, f 5;
#X connect 0 0 4 0;
#X connect 0 0 5 0;
#X connect 2 0 3 0;
#X connect 3 0 0 0;
#X connect 4 0 1 0;
#X restore 489 -70 pd CASubType;
#N canvas 532 50 450 300 flashBack_freq 0;
#X obj 86 -306 inlet;
#X obj 86 -224 s message;
#X obj 86 -258 int;
#X msg 86 -241 send /flashBack_freq \$1;
#X obj 86 -275 * 9.99;
#X connect 0 0 4 0;
#X connect 2 0 3 0;
#X connect 3 0 1 0;
#X connect 4 0 2 0;
#X restore 248 -49 pd flashBack_freq;
#N canvas 794 151 450 300 CACompositionWeight 0;
#X obj 97 -265 s message;
#X obj 97 -352 inlet;
#X obj 97 -306 + 1;
#X obj 97 -328 * -1;
#X msg 96 -282 send /CACompositionWeight \$1;
#X floatatom 284 -161 5 0 0 0 - - -, f 5;
#X connect 1 0 3 0;
#X connect 2 0 4 0;
#X connect 2 0 5 0;
#X connect 3 0 2 0;
#X connect 4 0 0 0;
#X restore 489 -427 pd CACompositionWeight;
#N canvas 299 142 450 300 CAdecay 0;
#X obj 77 -285 s message;
#X obj 77 -372 inlet;
#X obj 77 -348 * 0.01;
#X floatatom 259 -301 5 0 0 0 - - -, f 5;
#X floatatom 143 -358 5 0 0 0 - - -, f 5;
#X msg 77 -302 send /CAdecay \$1;
#X connect 1 0 2 0;
#X connect 1 0 4 0;
#X connect 2 0 5 0;
#X connect 2 0 3 0;
#X connect 5 0 0 0;
#X restore 488 94 pd CAdecay;
#N canvas 221 50 450 300 blendTransp 0;
#X obj 67 -295 s message;
#X obj 67 -382 inlet;
#X msg 67 -312 send /CAdecay \$1;
#X obj 67 -347 * 0.01;
#X floatatom 167 -253 5 0 0 0 - - -, f 5;
#X connect 1 0 3 0;
#X connect 2 0 0 0;
#X connect 3 0 2 0;
#X connect 3 0 4 0;
#X restore 643 90 pd blendTransp;
#N canvas 533 145 312 246 modal 0;
#X obj 80 111 spigot;
#X obj 213 56 r mode;
#X obj 174 114 spigot;
#X obj 80 35 inlet;
#X obj 80 165 outlet;
#X obj 174 165 outlet;
#X obj 119 73 - 1;
#X text 81 5 MODE 0 / 1 switch;
#X obj 8 35 loadbang;
#X connect 0 0 4 0;
#X connect 1 0 2 1;
#X connect 1 0 6 0;
#X connect 2 0 5 0;
#X connect 3 0 0 0;
#X connect 3 0 2 0;
#X connect 6 0 0 1;
#X connect 8 0 4 0;
#X restore 12 -491 pd modal;
#N canvas 533 145 312 246 modal 0;
#X obj 80 111 spigot;
#X obj 213 56 r mode;
#X obj 174 114 spigot;
#X obj 80 35 inlet;
#X obj 80 165 outlet;
#X obj 174 165 outlet;
#X obj 119 73 - 1;
#X text 81 5 MODE 0 / 1 switch;
#X obj 8 35 loadbang;
#X connect 0 0 4 0;
#X connect 1 0 2 1;
#X connect 1 0 6 0;
#X connect 2 0 5 0;
#X connect 3 0 0 0;
#X connect 3 0 2 0;
#X connect 6 0 0 1;
#X connect 8 0 4 0;
#X restore 93 -491 pd modal;
#N canvas 533 145 312 246 modal 0;
#X obj 80 111 spigot;
#X obj 213 56 r mode;
#X obj 174 114 spigot;
#X obj 80 35 inlet;
#X obj 80 165 outlet;
#X obj 174 165 outlet;
#X obj 119 73 - 1;
#X text 81 5 MODE 0 / 1 switch;
#X obj 8 35 loadbang;
#X connect 0 0 4 0;
#X connect 1 0 2 1;
#X connect 1 0 6 0;
#X connect 2 0 5 0;
#X connect 3 0 0 0;
#X connect 3 0 2 0;
#X connect 6 0 0 1;
#X connect 8 0 4 0;
#X restore 256 -492 pd modal;
#N canvas 533 145 312 246 modal 0;
#X obj 80 111 spigot;
#X obj 213 56 r mode;
#X obj 174 114 spigot;
#X obj 80 35 inlet;
#X obj 80 165 outlet;
#X obj 174 165 outlet;
#X obj 119 73 - 1;
#X text 81 5 MODE 0 / 1 switch;
#X obj 8 35 loadbang;
#X connect 0 0 4 0;
#X connect 1 0 2 1;
#X connect 1 0 6 0;
#X connect 2 0 5 0;
#X connect 3 0 0 0;
#X connect 3 0 2 0;
#X connect 6 0 0 1;
#X connect 8 0 4 0;
#X restore 173 -491 pd modal;
#N canvas 533 145 312 246 modal 0;
#X obj 80 111 spigot;
#X obj 213 56 r mode;
#X obj 174 114 spigot;
#X obj 80 35 inlet;
#X obj 80 165 outlet;
#X obj 174 165 outlet;
#X obj 119 73 - 1;
#X text 81 5 MODE 0 / 1 switch;
#X obj 8 35 loadbang;
#X connect 0 0 4 0;
#X connect 1 0 2 1;
#X connect 1 0 6 0;
#X connect 2 0 5 0;
#X connect 3 0 0 0;
#X connect 3 0 2 0;
#X connect 6 0 0 1;
#X connect 8 0 4 0;
#X restore 324 -489 pd modal;
#N canvas 533 145 312 246 modal 0;
#X obj 80 111 spigot;
#X obj 213 56 r mode;
#X obj 174 114 spigot;
#X obj 80 35 inlet;
#X obj 80 165 outlet;
#X obj 174 165 outlet;
#X obj 119 73 - 1;
#X text 81 5 MODE 0 / 1 switch;
#X obj 8 35 loadbang;
#X connect 0 0 4 0;
#X connect 1 0 2 1;
#X connect 1 0 6 0;
#X connect 2 0 5 0;
#X connect 3 0 0 0;
#X connect 3 0 2 0;
#X connect 6 0 0 1;
#X connect 8 0 4 0;
#X restore 403 -490 pd modal;
#N canvas 533 145 312 246 modal 0;
#X obj 80 111 spigot;
#X obj 213 56 r mode;
#X obj 174 114 spigot;
#X obj 80 35 inlet;
#X obj 80 165 outlet;
#X obj 174 165 outlet;
#X obj 119 73 - 1;
#X text 81 5 MODE 0 / 1 switch;
#X obj 8 35 loadbang;
#X connect 0 0 4 0;
#X connect 1 0 2 1;
#X connect 1 0 6 0;
#X connect 2 0 5 0;
#X connect 3 0 0 0;
#X connect 3 0 2 0;
#X connect 6 0 0 1;
#X connect 8 0 4 0;
#X restore 565 -491 pd modal;
#N canvas 533 145 312 246 modal 0;
#X obj 80 111 spigot;
#X obj 213 56 r mode;
#X obj 174 114 spigot;
#X obj 80 35 inlet;
#X obj 80 165 outlet;
#X obj 174 165 outlet;
#X obj 119 73 - 1;
#X text 81 5 MODE 0 / 1 switch;
#X obj 8 35 loadbang;
#X connect 0 0 4 0;
#X connect 1 0 2 1;
#X connect 1 0 6 0;
#X connect 2 0 5 0;
#X connect 3 0 0 0;
#X connect 3 0 2 0;
#X connect 6 0 0 1;
#X connect 8 0 4 0;
#X restore 14 -285 pd modal;
#N canvas 533 145 312 246 modal 0;
#X obj 80 111 spigot;
#X obj 213 56 r mode;
#X obj 174 114 spigot;
#X obj 80 35 inlet;
#X obj 80 165 outlet;
#X obj 174 165 outlet;
#X obj 119 73 - 1;
#X text 81 5 MODE 0 / 1 switch;
#X obj 8 35 loadbang;
#X connect 0 0 4 0;
#X connect 1 0 2 1;
#X connect 1 0 6 0;
#X connect 2 0 5 0;
#X connect 3 0 0 0;
#X connect 3 0 2 0;
#X connect 6 0 0 1;
#X connect 8 0 4 0;
#X restore 93 -285 pd modal;
#N canvas 533 145 312 246 modal 0;
#X obj 80 111 spigot;
#X obj 213 56 r mode;
#X obj 174 114 spigot;
#X obj 80 35 inlet;
#X obj 80 165 outlet;
#X obj 174 165 outlet;
#X obj 119 73 - 1;
#X text 81 5 MODE 0 / 1 switch;
#X obj 8 35 loadbang;
#X connect 0 0 4 0;
#X connect 1 0 2 1;
#X connect 1 0 6 0;
#X connect 2 0 5 0;
#X connect 3 0 0 0;
#X connect 3 0 2 0;
#X connect 6 0 0 1;
#X connect 8 0 4 0;
#X restore 250 -286 pd modal;
#N canvas 533 145 312 246 modal 0;
#X obj 80 111 spigot;
#X obj 213 56 r mode;
#X obj 174 114 spigot;
#X obj 80 35 inlet;
#X obj 80 165 outlet;
#X obj 174 165 outlet;
#X obj 119 73 - 1;
#X text 81 5 MODE 0 / 1 switch;
#X obj 8 35 loadbang;
#X connect 0 0 4 0;
#X connect 1 0 2 1;
#X connect 1 0 6 0;
#X connect 2 0 5 0;
#X connect 3 0 0 0;
#X connect 3 0 2 0;
#X connect 6 0 0 1;
#X connect 8 0 4 0;
#X restore 174 -285 pd modal;
#N canvas 533 145 312 246 modal 0;
#X obj 80 111 spigot;
#X obj 213 56 r mode;
#X obj 174 114 spigot;
#X obj 80 35 inlet;
#X obj 80 165 outlet;
#X obj 174 165 outlet;
#X obj 119 73 - 1;
#X text 81 5 MODE 0 / 1 switch;
#X obj 8 35 loadbang;
#X connect 0 0 4 0;
#X connect 1 0 2 1;
#X connect 1 0 6 0;
#X connect 2 0 5 0;
#X connect 3 0 0 0;
#X connect 3 0 2 0;
#X connect 6 0 0 1;
#X connect 8 0 4 0;
#X restore 325 -283 pd modal;
#N canvas 533 145 312 246 modal 0;
#X obj 80 111 spigot;
#X obj 213 56 r mode;
#X obj 174 114 spigot;
#X obj 80 35 inlet;
#X obj 80 165 outlet;
#X obj 174 165 outlet;
#X obj 119 73 - 1;
#X text 81 5 MODE 0 / 1 switch;
#X obj 8 35 loadbang;
#X connect 0 0 4 0;
#X connect 1 0 2 1;
#X connect 1 0 6 0;
#X connect 2 0 5 0;
#X connect 3 0 0 0;
#X connect 3 0 2 0;
#X connect 6 0 0 1;
#X connect 8 0 4 0;
#X restore 404 -284 pd modal;
#N canvas 533 145 312 246 modal 0;
#X obj 80 111 spigot;
#X obj 213 56 r mode;
#X obj 174 114 spigot;
#X obj 80 35 inlet;
#X obj 80 165 outlet;
#X obj 174 165 outlet;
#X obj 119 73 - 1;
#X text 81 5 MODE 0 / 1 switch;
#X obj 8 35 loadbang;
#X connect 0 0 4 0;
#X connect 1 0 2 1;
#X connect 1 0 6 0;
#X connect 2 0 5 0;
#X connect 3 0 0 0;
#X connect 3 0 2 0;
#X connect 6 0 0 1;
#X connect 8 0 4 0;
#X restore 490 -283 pd modal;
#N canvas 533 145 312 246 modal 0;
#X obj 80 111 spigot;
#X obj 213 56 r mode;
#X obj 174 114 spigot;
#X obj 80 35 inlet;
#X obj 80 165 outlet;
#X obj 174 165 outlet;
#X obj 119 73 - 1;
#X text 81 5 MODE 0 / 1 switch;
#X obj 8 35 loadbang;
#X connect 0 0 4 0;
#X connect 1 0 2 1;
#X connect 1 0 6 0;
#X connect 2 0 5 0;
#X connect 3 0 0 0;
#X connect 3 0 2 0;
#X connect 6 0 0 1;
#X connect 8 0 4 0;
#X restore 566 -285 pd modal;
#N canvas 221 50 450 300 image_value 0;
#X obj 67 -307 s message;
#X obj 67 -382 inlet;
#X msg 67 -324 send /image_value \$1;
#X floatatom 167 -265 5 0 0 0 - - -, f 5;
#X connect 1 0 2 0;
#X connect 1 0 3 0;
#X connect 2 0 0 0;
#X restore 12 -428 pd image_value;
#N canvas 469 50 450 300 maskJitterAmpl 0;
#X obj -190 -276 s message;
#X obj -190 -351 inlet;
#X msg -190 -293 send /maskJitterAmpl \$1;
#X connect 1 0 2 0;
#X connect 2 0 0 0;
#X restore 369 -467 pd maskJitterAmpl;
#N canvas 490 50 450 300 imageJitterAmpl 0;
#X obj 97 -277 s message;
#X obj 97 -352 inlet;
#X msg 97 -294 send /imageJitterAmpl \$1;
#X connect 1 0 2 0;
#X connect 2 0 0 0;
#X restore 448 -447 pd imageJitterAmpl;
#N canvas 533 145 312 246 modal 0;
#X obj 80 111 spigot;
#X obj 213 56 r mode;
#X obj 174 114 spigot;
#X obj 80 35 inlet;
#X obj 80 165 outlet;
#X obj 174 165 outlet;
#X obj 119 73 - 1;
#X text 81 5 MODE 0 / 1 switch;
#X obj 8 35 loadbang;
#X connect 0 0 4 0;
#X connect 1 0 2 1;
#X connect 1 0 6 0;
#X connect 2 0 5 0;
#X connect 3 0 0 0;
#X connect 3 0 2 0;
#X connect 6 0 0 1;
#X connect 8 0 4 0;
#X restore 12 -120 pd modal;
#N canvas 533 145 312 246 modal 0;
#X obj 80 111 spigot;
#X obj 213 56 r mode;
#X obj 174 114 spigot;
#X obj 80 35 inlet;
#X obj 80 165 outlet;
#X obj 174 165 outlet;
#X obj 119 73 - 1;
#X text 81 5 MODE 0 / 1 switch;
#X obj 8 35 loadbang;
#X connect 0 0 4 0;
#X connect 1 0 2 1;
#X connect 1 0 6 0;
#X connect 2 0 5 0;
#X connect 3 0 0 0;
#X connect 3 0 2 0;
#X connect 6 0 0 1;
#X connect 8 0 4 0;
#X restore 93 -120 pd modal;
#N canvas 533 145 312 246 modal 0;
#X obj 80 111 spigot;
#X obj 213 56 r mode;
#X obj 174 114 spigot;
#X obj 80 35 inlet;
#X obj 80 165 outlet;
#X obj 174 165 outlet;
#X obj 119 73 - 1;
#X text 81 5 MODE 0 / 1 switch;
#X obj 8 35 loadbang;
#X connect 0 0 4 0;
#X connect 1 0 2 1;
#X connect 1 0 6 0;
#X connect 2 0 5 0;
#X connect 3 0 0 0;
#X connect 3 0 2 0;
#X connect 6 0 0 1;
#X connect 8 0 4 0;
#X restore 248 -121 pd modal;
#N canvas 533 145 312 246 modal 0;
#X obj 80 111 spigot;
#X obj 213 56 r mode;
#X obj 174 114 spigot;
#X obj 80 35 inlet;
#X obj 80 165 outlet;
#X obj 174 165 outlet;
#X obj 119 73 - 1;
#X text 81 5 MODE 0 / 1 switch;
#X obj 8 35 loadbang;
#X connect 0 0 4 0;
#X connect 1 0 2 1;
#X connect 1 0 6 0;
#X connect 2 0 5 0;
#X connect 3 0 0 0;
#X connect 3 0 2 0;
#X connect 6 0 0 1;
#X connect 8 0 4 0;
#X restore 174 -120 pd modal;
#N canvas 533 145 312 246 modal 0;
#X obj 80 111 spigot;
#X obj 213 56 r mode;
#X obj 174 114 spigot;
#X obj 80 35 inlet;
#X obj 80 165 outlet;
#X obj 174 165 outlet;
#X obj 119 73 - 1;
#X text 81 5 MODE 0 / 1 switch;
#X obj 8 35 loadbang;
#X connect 0 0 4 0;
#X connect 1 0 2 1;
#X connect 1 0 6 0;
#X connect 2 0 5 0;
#X connect 3 0 0 0;
#X connect 3 0 2 0;
#X connect 6 0 0 1;
#X connect 8 0 4 0;
#X restore 323 -122 pd modal;
#N canvas 533 145 312 246 modal 0;
#X obj 80 111 spigot;
#X obj 213 56 r mode;
#X obj 174 114 spigot;
#X obj 80 35 inlet;
#X obj 80 165 outlet;
#X obj 174 165 outlet;
#X obj 119 73 - 1;
#X text 81 5 MODE 0 / 1 switch;
#X obj 8 35 loadbang;
#X connect 0 0 4 0;
#X connect 1 0 2 1;
#X connect 1 0 6 0;
#X connect 2 0 5 0;
#X connect 3 0 0 0;
#X connect 3 0 2 0;
#X connect 6 0 0 1;
#X connect 8 0 4 0;
#X restore 403 -124 pd modal;
#N canvas 533 145 312 246 modal 0;
#X obj 80 111 spigot;
#X obj 213 56 r mode;
#X obj 174 114 spigot;
#X obj 80 35 inlet;
#X obj 80 165 outlet;
#X obj 174 165 outlet;
#X obj 119 73 - 1;
#X text 81 5 MODE 0 / 1 switch;
#X obj 8 35 loadbang;
#X connect 0 0 4 0;
#X connect 1 0 2 1;
#X connect 1 0 6 0;
#X connect 2 0 5 0;
#X connect 3 0 0 0;
#X connect 3 0 2 0;
#X connect 6 0 0 1;
#X connect 8 0 4 0;
#X restore 488 -122 pd modal;
#N canvas 533 145 312 246 modal 0;
#X obj 80 111 spigot;
#X obj 213 56 r mode;
#X obj 174 114 spigot;
#X obj 80 35 inlet;
#X obj 80 165 outlet;
#X obj 174 165 outlet;
#X obj 119 73 - 1;
#X text 81 5 MODE 0 / 1 switch;
#X obj 8 35 loadbang;
#X connect 0 0 4 0;
#X connect 1 0 2 1;
#X connect 1 0 6 0;
#X connect 2 0 5 0;
#X connect 3 0 0 0;
#X connect 3 0 2 0;
#X connect 6 0 0 1;
#X connect 8 0 4 0;
#X restore 564 -124 pd modal;
#N canvas 533 145 312 246 modal 0;
#X obj 80 111 spigot;
#X obj 213 56 r mode;
#X obj 174 114 spigot;
#X obj 80 35 inlet;
#X obj 80 165 outlet;
#X obj 174 165 outlet;
#X obj 119 73 - 1;
#X text 81 5 MODE 0 / 1 switch;
#X obj 8 35 loadbang;
#X connect 0 0 4 0;
#X connect 1 0 2 1;
#X connect 1 0 6 0;
#X connect 2 0 5 0;
#X connect 3 0 0 0;
#X connect 3 0 2 0;
#X connect 6 0 0 1;
#X connect 8 0 4 0;
#X restore 12 71 pd modal;
#N canvas 533 145 312 246 modal 0;
#X obj 80 111 spigot;
#X obj 213 56 r mode;
#X obj 174 114 spigot;
#X obj 80 35 inlet;
#X obj 80 165 outlet;
#X obj 174 165 outlet;
#X obj 119 73 - 1;
#X text 81 5 MODE 0 / 1 switch;
#X obj 8 35 loadbang;
#X connect 0 0 4 0;
#X connect 1 0 2 1;
#X connect 1 0 6 0;
#X connect 2 0 5 0;
#X connect 3 0 0 0;
#X connect 3 0 2 0;
#X connect 6 0 0 1;
#X connect 8 0 4 0;
#X restore 95 71 pd modal;
#N canvas 533 145 312 246 modal 0;
#X obj 80 111 spigot;
#X obj 213 56 r mode;
#X obj 174 114 spigot;
#X obj 80 35 inlet;
#X obj 80 165 outlet;
#X obj 174 165 outlet;
#X obj 119 73 - 1;
#X text 81 5 MODE 0 / 1 switch;
#X obj 8 35 loadbang;
#X connect 0 0 4 0;
#X connect 1 0 2 1;
#X connect 1 0 6 0;
#X connect 2 0 5 0;
#X connect 3 0 0 0;
#X connect 3 0 2 0;
#X connect 6 0 0 1;
#X connect 8 0 4 0;
#X restore 248 70 pd modal;
#N canvas 533 145 312 246 modal 0;
#X obj 80 111 spigot;
#X obj 213 56 r mode;
#X obj 174 114 spigot;
#X obj 80 35 inlet;
#X obj 80 165 outlet;
#X obj 174 165 outlet;
#X obj 119 73 - 1;
#X text 81 5 MODE 0 / 1 switch;
#X obj 8 35 loadbang;
#X connect 0 0 4 0;
#X connect 1 0 2 1;
#X connect 1 0 6 0;
#X connect 2 0 5 0;
#X connect 3 0 0 0;
#X connect 3 0 2 0;
#X connect 6 0 0 1;
#X connect 8 0 4 0;
#X restore 174 71 pd modal;
#N canvas 533 145 312 246 modal 0;
#X obj 80 111 spigot;
#X obj 213 56 r mode;
#X obj 174 114 spigot;
#X obj 80 35 inlet;
#X obj 80 165 outlet;
#X obj 174 165 outlet;
#X obj 119 73 - 1;
#X text 81 5 MODE 0 / 1 switch;
#X obj 8 35 loadbang;
#X connect 0 0 4 0;
#X connect 1 0 2 1;
#X connect 1 0 6 0;
#X connect 2 0 5 0;
#X connect 3 0 0 0;
#X connect 3 0 2 0;
#X connect 6 0 0 1;
#X connect 8 0 4 0;
#X restore 323 73 pd modal;
#N canvas 533 145 312 246 modal 0;
#X obj 80 111 spigot;
#X obj 213 56 r mode;
#X obj 174 114 spigot;
#X obj 80 35 inlet;
#X obj 80 165 outlet;
#X obj 174 165 outlet;
#X obj 119 73 - 1;
#X text 81 5 MODE 0 / 1 switch;
#X obj 8 35 loadbang;
#X connect 0 0 4 0;
#X connect 1 0 2 1;
#X connect 1 0 6 0;
#X connect 2 0 5 0;
#X connect 3 0 0 0;
#X connect 3 0 2 0;
#X connect 6 0 0 1;
#X connect 8 0 4 0;
#X restore 402 72 pd modal;
#N canvas 533 145 312 246 modal 0;
#X obj 80 111 spigot;
#X obj 213 56 r mode;
#X obj 174 114 spigot;
#X obj 80 35 inlet;
#X obj 80 165 outlet;
#X obj 174 165 outlet;
#X obj 119 73 - 1;
#X text 81 5 MODE 0 / 1 switch;
#X obj 8 35 loadbang;
#X connect 0 0 4 0;
#X connect 1 0 2 1;
#X connect 1 0 6 0;
#X connect 2 0 5 0;
#X connect 3 0 0 0;
#X connect 3 0 2 0;
#X connect 6 0 0 1;
#X connect 8 0 4 0;
#X restore 488 73 pd modal;
#N canvas 533 145 312 246 modal 0;
#X obj 80 111 spigot;
#X obj 213 56 r mode;
#X obj 174 114 spigot;
#X obj 80 35 inlet;
#X obj 80 165 outlet;
#X obj 174 165 outlet;
#X obj 119 73 - 1;
#X text 81 5 MODE 0 / 1 switch;
#X obj 8 35 loadbang;
#X connect 0 0 4 0;
#X connect 1 0 2 1;
#X connect 1 0 6 0;
#X connect 2 0 5 0;
#X connect 3 0 0 0;
#X connect 3 0 2 0;
#X connect 6 0 0 1;
#X connect 8 0 4 0;
#X restore 564 71 pd modal;
#N canvas 269 50 450 300 mask_contrast 0;
#X obj 77 -297 s message;
#X obj 77 -372 inlet;
#X msg 77 -314 send /mask_contrast \$1;
#X connect 1 0 2 0;
#X connect 2 0 0 0;
#X restore 534 -467 pd mask_contrast;
#N canvas 533 145 312 246 modal 0;
#X obj 80 111 spigot;
#X obj 213 56 r mode;
#X obj 174 114 spigot;
#X obj 80 35 inlet;
#X obj 80 165 outlet;
#X obj 174 165 outlet;
#X obj 119 73 - 1;
#X text 81 5 MODE 0 / 1 switch;
#X obj 8 35 loadbang;
#X connect 0 0 4 0;
#X connect 1 0 2 1;
#X connect 1 0 6 0;
#X connect 2 0 5 0;
#X connect 3 0 0 0;
#X connect 3 0 2 0;
#X connect 6 0 0 1;
#X connect 8 0 4 0;
#X restore 489 -489 pd modal;
#N canvas 221 50 450 300 image_contrast 0;
#X obj 67 -307 s message;
#X obj 67 -382 inlet;
#X msg 67 -324 send /image_contrast \$1;
#X floatatom 96 -347 5 0 0 0 - - -, f 5;
#X connect 1 0 2 0;
#X connect 1 0 3 0;
#X connect 2 0 0 0;
#X restore 610 -447 pd image_contrast;
#N canvas 299 142 450 300 local_color_gray 0;
#X obj 91 20 s message;
#X obj 62 -178 inlet;
#X obj 62 -119 + 1;
#X obj 62 -149 * -1;
#X msg 85 -56 send /local_color_gray \$1;
#X connect 1 0 3 0;
#X connect 2 0 4 0;
#X connect 3 0 2 0;
#X connect 4 0 0 0;
#X restore 95 118 pd local_color_gray;
#N canvas 350 50 450 300 RGBpalette 0;
#X obj 67 -295 s message;
#X obj 67 -382 inlet;
#X msg 67 -312 send /RGBpalette \$1;
#X obj 67 -358 * 7;
#X floatatom 193 -246 5 0 0 0 - - -, f 5;
#X connect 1 0 3 0;
#X connect 2 0 0 0;
#X connect 3 0 2 0;
#X connect 3 0 4 0;
#X restore 609 -102 pd RGBpalette;
#N canvas 16 50 358 192 trackCompositionWeight_1 0;
#X obj 87 -275 s message;
#X obj 87 -362 inlet;
#X obj 87 -316 + 1;
#X obj 87 -338 * -1;
#X msg 86 -292 send /trackCompositionWeight_1 \$1;
#X connect 1 0 3 0;
#X connect 2 0 4 0;
#X connect 3 0 2 0;
#X connect 4 0 0 0;
#X restore 564 -246 pd trackCompositionWeight_1;
#N canvas 1152 50 450 300 trackCompositionWeight_0 0;
#X obj 87 -275 s message;
#X obj 87 -362 inlet;
#X obj 87 -316 + 1;
#X obj 87 -338 * -1;
#X msg 86 -292 send /trackCompositionWeight_0 \$1;
#X connect 1 0 3 0;
#X connect 2 0 4 0;
#X connect 3 0 2 0;
#X connect 4 0 0 0;
#X restore 565 -408 pd trackCompositionWeight_0;
#N canvas 254 50 450 300 CAParams1-5 0;
#X obj 149 -54 s message;
#X msg 149 -160 send /CAParams4 \$1;
#X msg 134 -136 send /CAParams3 \$1;
#X msg 119 -111 send /CAParams2 \$1;
#X msg 103 -88 send /CAParams1 \$1;
#X obj 83 -211 inlet;
#X obj 141 -210 inlet;
#X obj 194 -209 inlet;
#X obj 258 -211 inlet;
#X obj 302 -208 inlet;
#X msg 241 -185 send /CAParams5 \$1;
#X connect 1 0 0 0;
#X connect 2 0 0 0;
#X connect 3 0 0 0;
#X connect 4 0 0 0;
#X connect 5 0 4 0;
#X connect 6 0 3 0;
#X connect 7 0 2 0;
#X connect 8 0 1 0;
#X connect 9 0 10 0;
#X connect 10 0 0 0;
#X restore 331 -92 pd CAParams1-5;
#N canvas 814 144 450 300 radiusParticle 0;
#X obj 72 -297 s message;
#X obj 72 -346 inlet;
#X msg 72 -321 send /radiusParticle \$1;
#X floatatom 146 -246 5 0 0 0 - - -, f 5;
#X connect 1 0 2 0;
#X connect 1 0 3 0;
#X connect 2 0 0 0;
#X restore 174 -260 pd radiusParticle;
#N canvas 814 144 450 300 videoExposure 0;
#X obj 72 -235 s message;
#X obj 72 -346 inlet;
#X floatatom 220 -199 5 0 0 0 - - -, f 5;
#X obj 72 -323 * -12;
#X obj 72 -303 -1;
#X obj 72 -281 int;
#X msg 72 -259 send /videoExposure \$1;
#X connect 1 0 3 0;
#X connect 3 0 4 0;
#X connect 4 0 5 0;
#X connect 5 0 6 0;
#X connect 5 0 2 0;
#X connect 6 0 0 0;
#X restore 14 -262 pd videoExposure;
#N canvas 772 50 450 300 flashCA_freq_1 0;
#X obj 86 -306 inlet;
#X obj 86 -224 s message;
#X obj 86 -258 int;
#X obj 86 -275 * 9.99;
#X msg 86 -241 send /flashCA_freq_1 \$1;
#X floatatom 186 -214 5 0 0 0 - - -, f 5;
#X connect 0 0 3 0;
#X connect 2 0 4 0;
#X connect 2 0 5 0;
#X connect 3 0 2 0;
#X connect 4 0 1 0;
#X restore 323 -70 pd flashCA_freq_1;
#N canvas 0 67 450 300 trackdecay_0 0;
#X obj 67 -295 s message;
#X obj 67 -382 inlet;
#X obj 67 -358 * 0.01;
#X floatatom 249 -311 5 0 0 0 - - -, f 5;
#X msg 67 -312 send /trackdecay_0 \$1;
#X connect 1 0 2 0;
#X connect 2 0 4 0;
#X connect 2 0 3 0;
#X connect 4 0 0 0;
#X restore 564 117 pd trackdecay_0;
#N canvas 269 50 450 300 image_satur 0;
#X obj 77 -297 s message;
#X obj 77 -372 inlet;
#X msg 77 -314 send /image_satur \$1;
#X connect 1 0 2 0;
#X connect 2 0 0 0;
#X restore 57 -103 pd image_satur;
#N canvas 221 50 450 300 image_value_pulse 0;
#X obj 67 -307 s message;
#X obj 67 -382 inlet;
#X msg 67 -324 send /image_value_pulse \$1;
#X floatatom 174 -282 5 0 0 0 - - -, f 5;
#X connect 1 0 2 0;
#X connect 1 0 3 0;
#X connect 2 0 0 0;
#X restore 57 -470 pd image_value_pulse;
#N canvas 624 50 450 300 images_weights_rand 0;
#X obj 86 -306 inlet;
#X obj 86 -224 s message;
#X floatatom 159 -268 5 0 0 0 - - -, f 5;
#X msg 86 -241 send /images_weights_rand \$1;
#X connect 0 0 3 0;
#X connect 0 0 2 0;
#X connect 3 0 1 0;
#X restore 301 -447 pd images_weights_rand;
#N canvas 269 50 450 300 image_satur_pulse 0;
#X obj 77 -297 s message;
#X obj 77 -372 inlet;
#X msg 77 -314 send /image_satur_pulse \$1;
#X connect 1 0 2 0;
#X connect 2 0 0 0;
#X restore 119 -85 pd image_satur_pulse;
#N canvas 761 176 450 300 flashVideoLength 0;
#X obj 34 -359 s message;
#X obj 34 -527 inlet;
#X floatatom 134 -317 5 0 0 0 - - -, f 5;
#X msg 34 -376 send /flashVideoLength \$1;
#X obj 34 -407 * 300;
#X connect 1 0 4 0;
#X connect 3 0 0 0;
#X connect 4 0 3 0;
#X connect 4 0 2 0;
#X restore 93 -49 pd flashVideoLength;
#N canvas 221 50 450 300 flashVideoBright 0;
#X obj 67 -272 s message;
#X obj 67 -382 inlet;
#X floatatom 212 -216 5 0 0 0 - - -, f 5;
#X obj 67 -323 * 50;
#X msg 67 -289 send /flashVideoBright \$1;
#X connect 1 0 3 0;
#X connect 3 0 4 0;
#X connect 3 0 2 0;
#X connect 4 0 0 0;
#X restore 564 -49 pd flashVideoBright;
#X msg 739 5 1;
#X obj 14 219 s message;
#X obj 142 219 s message;
#X obj 264 219 s message;
#X obj 14 296 s message;
#X obj 142 296 s message;
#X obj 496 217 s message;
#X obj 615 217 s message;
#X obj 421 219 s message;
#X obj 498 294 s message;
#X obj 733 217 s message;
#X obj 845 215 s message;
#X msg 142 202 send /CAdecay_sign;
#X obj 264 296 s message;
#X obj 498 260 spigot;
#X obj 733 183 spigot;
#X obj 845 181 spigot;
#X obj 496 183 spigot;
#X obj 615 183 spigot;
#X obj 421 185 spigot;
#X obj 14 262 spigot;
#X obj 142 262 spigot;
#X obj 264 262 spigot;
#X obj 142 185 spigot;
#X obj 264 185 spigot;
#X obj 14 185 spigot;
#X obj 419 260 spigot;
#X obj 615 259 spigot;
#X obj 738 260 spigot;
#X obj 847 255 spigot;
#X obj 419 294 s message;
#X obj 615 293 s message;
#X obj 738 294 s message;
#X obj 847 289 s message;
#X obj 14 168 ctlin 9 1;
#X obj 142 168 ctlin 9 2;
#X obj 264 168 ctlin 9 3;
#X obj 421 168 ctlin 9 4;
#X obj 496 166 ctlin 9 5;
#X obj 615 166 ctlin 9 6;
#X obj 733 166 ctlin 9 7;
#X obj 845 164 ctlin 9 8;
#X obj 14 245 ctlin 8 1;
#X obj 142 245 ctlin 8 2;
#X obj 264 245 ctlin 8 3;
#X obj 419 243 ctlin 8 4;
#X obj 498 243 ctlin 8 5;
#X obj 615 242 ctlin 8 6;
#X obj 847 238 ctlin 8 8;
#X obj 738 243 ctlin 8 7;
#X msg 14 202 send /auto_beat;
#X msg 264 202 send /trackdecay_sign_0;
#X msg 142 279 send /clearCA;
#X msg 14 279 send;
#X msg 264 279 send /clearAllLayers;
#X msg 421 202 send;
#X msg 419 277 send;
#X msg 847 272 send;
#X msg 845 198 send /flashVideo;
#X msg 738 277 send;
#X msg 733 200 send /currentBGCapture;
#X msg 615 276 send;
#X msg 615 200 send /is_videoOn;
#X msg 498 277 send;
#X msg 496 200 send /drawingOnOff;
#N canvas 982 203 450 300 input_min 0;
#X obj 71 10 inlet;
#X floatatom 203 67 5 0 0 0 - - -, f 5;
#X obj 71 40 * 1;
#X obj 72 106 s message;
#X msg 71 89 send /input_min \$1;
#X connect 0 0 2 0;
#X connect 2 0 1 0;
#X connect 2 0 4 0;
#X connect 4 0 3 0;
#X restore 403 -52 pd input_min;
#X obj 818 21 loadbang;
#X obj 818 70 send mode;
#X msg 818 47 0;
#X obj 818 91 send input_min;
#X obj 817 116 send input_volume;
#X connect 0 0 121 0;
#X connect 1 0 0 0;
#X connect 2 0 128 0;
#X connect 3 0 2 0;
#X connect 4 0 104 0;
#X connect 5 0 147 0;
#X connect 6 0 5 0;
#X connect 7 0 122 0;
#X connect 8 0 7 0;
#X connect 9 0 129 0;
#X connect 10 0 9 0;
#X connect 11 0 103 0;
#X connect 12 0 148 0;
#X connect 13 0 12 0;
#X connect 14 0 124 0;
#X connect 15 0 14 0;
#X connect 16 0 131 0;
#X connect 17 0 16 0;
#X connect 18 0 142 0;
#X connect 19 0 18 0;
#X connect 20 0 150 0;
#X connect 21 0 20 0;
#X connect 22 0 123 0;
#X connect 23 0 22 0;
#X connect 24 0 130 0;
#X connect 25 0 24 0;
#X connect 26 0 141 0;
#X connect 27 0 26 0;
#X connect 28 0 149 0;
#X connect 29 0 28 0;
#X connect 30 0 125 0;
#X connect 31 0 30 0;
#X connect 32 0 132 0;
#X connect 33 0 32 0;
#X connect 34 0 143 0;
#X connect 35 0 34 0;
#X connect 36 0 151 0;
#X connect 37 0 36 0;
#X connect 38 0 126 0;
#X connect 39 0 38 0;
#X connect 40 0 133 0;
#X connect 41 0 40 0;
#X connect 42 0 144 0;
#X connect 43 0 42 0;
#X connect 44 0 152 0;
#X connect 45 0 44 0;
#X connect 46 0 156 0;
#X connect 47 0 46 0;
#X connect 48 0 134 0;
#X connect 49 0 48 0;
#X connect 50 0 145 0;
#X connect 51 0 50 0;
#X connect 52 0 153 0;
#X connect 53 0 52 0;
#X connect 54 0 127 0;
#X connect 55 0 54 0;
#X connect 56 0 135 0;
#X connect 57 0 56 0;
#X connect 58 0 146 0;
#X connect 59 0 58 0;
#X connect 60 0 154 0;
#X connect 61 0 60 0;
#X connect 62 0 120 0;
#X connect 63 0 62 0;
#X connect 64 0 1 0;
#X connect 65 0 4 0;
#X connect 66 0 6 0;
#X connect 67 0 63 0;
#X connect 68 0 8 0;
#X connect 69 0 11 0;
#X connect 70 0 13 0;
#X connect 71 0 15 0;
#X connect 72 0 23 0;
#X connect 73 0 31 0;
#X connect 74 0 47 0;
#X connect 75 0 55 0;
#X connect 76 0 17 0;
#X connect 77 0 19 0;
#X connect 78 0 21 0;
#X connect 79 0 25 0;
#X connect 80 0 27 0;
#X connect 81 0 29 0;
#X connect 82 0 33 0;
#X connect 83 0 35 0;
#X connect 84 0 37 0;
#X connect 85 0 39 0;
#X connect 86 0 41 0;
#X connect 87 0 43 0;
#X connect 88 0 45 0;
#X connect 89 0 49 0;
#X connect 90 0 51 0;
#X connect 91 0 53 0;
#X connect 92 0 57 0;
#X connect 93 0 59 0;
#X connect 94 0 61 0;
#X connect 95 0 10 0;
#X connect 96 0 3 0;
#X connect 103 0 140 0;
#X connect 121 0 136 0;
#X connect 121 1 168 0;
#X connect 122 0 98 0;
#X connect 122 1 98 0;
#X connect 123 0 100 0;
#X connect 123 1 169 0;
#X connect 124 0 99 0;
#X connect 124 1 99 0;
#X connect 125 0 101 0;
#X connect 125 1 137 0;
#X connect 126 0 105 0;
#X connect 126 1 138 0;
#X connect 127 0 161 0;
#X connect 127 1 157 0;
#X connect 128 0 164 0;
#X connect 128 1 164 0;
#X connect 129 0 97 0;
#X connect 129 1 97 0;
#X connect 130 0 107 0;
#X connect 130 1 107 0;
#X connect 131 0 163 0;
#X connect 131 1 163 0;
#X connect 132 0 102 0;
#X connect 132 1 102 0;
#X connect 133 0 106 0;
#X connect 133 1 106 0;
#X connect 134 0 115 0;
#X connect 134 1 115 0;
#X connect 135 0 160 0;
#X connect 135 1 160 0;
#X connect 139 0 113 0;
#X connect 139 1 167 0;
#X connect 140 0 171 0;
#X connect 140 1 170 0;
#X connect 141 0 117 0;
#X connect 141 1 162 1;
#X connect 142 0 112 0;
#X connect 142 1 162 0;
#X connect 143 0 165 0;
#X connect 143 1 162 2;
#X connect 144 0 238 0;
#X connect 144 1 162 3;
#X connect 145 0 116 0;
#X connect 145 1 162 4;
#X connect 146 0 172 0;
#X connect 146 1 159 0;
#X connect 147 0 108 0;
#X connect 147 1 108 0;
#X connect 148 0 158 0;
#X connect 148 1 158 0;
#X connect 149 0 110 0;
#X connect 149 1 110 0;
#X connect 150 0 109 0;
#X connect 150 1 109 0;
#X connect 151 0 111 0;
#X connect 151 1 111 0;
#X connect 152 0 114 0;
#X connect 152 1 114 0;
#X connect 153 0 119 0;
#X connect 153 1 119 0;
#X connect 154 0 166 0;
#X connect 154 1 166 0;
#X connect 156 0 118 0;
#X connect 156 1 155 0;
#X connect 173 0 166 0;
#X connect 185 0 175 0;
#X connect 187 0 236 0;
#X connect 188 0 233 0;
#X connect 189 0 231 0;
#X connect 190 0 237 0;
#X connect 191 0 235 0;
#X connect 192 0 228 0;
#X connect 193 0 226 0;
#X connect 194 0 225 0;
#X connect 195 0 227 0;
#X connect 196 0 185 0;
#X connect 197 0 224 0;
#X connect 198 0 223 0;
#X connect 199 0 229 0;
#X connect 200 0 234 0;
#X connect 201 0 232 0;
#X connect 202 0 230 0;
#X connect 207 0 198 0;
#X connect 207 0 198 1;
#X connect 208 0 196 0;
#X connect 208 0 196 1;
#X connect 209 0 197 0;
#X connect 209 0 197 1;
#X connect 210 0 192 0;
#X connect 210 0 192 1;
#X connect 211 0 190 0;
#X connect 211 0 190 1;
#X connect 212 0 191 0;
#X connect 212 0 191 1;
#X connect 213 0 188 0;
#X connect 213 0 188 1;
#X connect 214 0 189 0;
#X connect 214 0 189 1;
#X connect 215 0 193 0;
#X connect 215 0 193 1;
#X connect 216 0 194 0;
#X connect 216 0 194 1;
#X connect 217 0 195 0;
#X connect 217 0 195 1;
#X connect 218 0 199 0;
#X connect 218 0 199 1;
#X connect 219 0 187 1;
#X connect 219 0 187 0;
#X connect 220 0 200 0;
#X connect 220 0 200 1;
#X connect 221 0 202 0;
#X connect 221 0 202 1;
#X connect 222 0 201 0;
#X connect 222 0 201 1;
#X connect 223 0 174 0;
#X connect 224 0 176 0;
#X connect 225 0 178 0;
#X connect 226 0 177 0;
#X connect 227 0 186 0;
#X connect 228 0 181 0;
#X connect 229 0 203 0;
#X connect 230 0 206 0;
#X connect 231 0 184 0;
#X connect 232 0 205 0;
#X connect 233 0 183 0;
#X connect 234 0 204 0;
#X connect 235 0 180 0;
#X connect 236 0 182 0;
#X connect 237 0 179 0;
#X connect 239 0 241 0;
#X connect 241 0 240 0;
#X connect 241 0 242 0;
#X connect 241 0 243 0;
#X restore 187 218 pd controls;
#X obj 181 113 s message;
#X msg 181 96 send /launch;
#X obj 181 81 bng 15 250 50 0 empty empty empty 0 -6 0 8 -24198 -1
-1;
#X text 203 80 Manual launch;
#X text 35 211 1: color-value;
#N canvas 626 195 402 240 buttonsOnOff 0;
#X obj 27 -30 inlet;
#X obj 84 31 route 0 1;
#X msg 84 64 0;
#X msg 119 65 127;
#X obj 27 138 pack f f;
#X obj 27 169 noteout 1;
#X obj 27 92 expr if ($f1 <= 8 \, 1 + 3 * ($f1 - 1) \, if($f1 <= 16
\, 3 + 3 * ($f1 - 9) \, if($f1 <= 24 \, 2 + 3 * ($f1 - 17) \, $f1)))
;
#X obj 27 1 unpack f f;
#X connect 0 0 7 0;
#X connect 1 0 2 0;
#X connect 1 1 3 0;
#X connect 2 0 4 1;
#X connect 3 0 4 1;
#X connect 4 0 5 0;
#X connect 6 0 4 0;
#X connect 7 0 6 0;
#X connect 7 1 1 0;
#X restore 182 286 pd buttonsOnOff;
#X obj 183 262 receive buttonOnOff;
#X text 182 243 USB LEDs;
#X connect 2 0 1 0;
#X connect 4 0 0 0;
#X connect 5 0 0 1;
#X connect 6 0 4 0;
#X connect 8 0 10 0;
#X connect 9 0 8 0;
#X connect 10 0 2 0;
#X connect 12 0 13 0;
#X connect 15 0 20 0;
#X connect 16 0 17 0;
#X connect 23 0 26 0;
#X connect 23 0 27 0;
#X connect 26 0 22 0;
#X connect 27 0 21 0;
#X connect 31 0 30 0;
#X connect 32 0 31 0;
#X connect 36 0 35 0;
#X restore 205 53 pd initial_board;
#X obj 244 315 vsl 15 128 0 0.01 0 0 empty track0decay BG 0 -9 0 14
-258699 -1 -24198 0 1;
#X obj 259 315 vsl 8 128 0 1 0 0 empty trackCompositionWeight_0 empty
0 -9 0 10 -4032 -1 -1 0 1;
#X obj 294 316 vsl 8 128 0 1 0 0 empty trackCompositionWeight_1 1 0
-9 0 14 -4032 -1 -4034 0 1;
#X obj 95 175 cnv 15 130 25 empty radius_can 100 0 12 1 32 -1 -262144
0;
#X obj 245 96 vsl 15 60 0 0.3 0 0 empty input_volume VOLUME 0 -9 0
14 -162280 -1 -4034 0 1;
#X obj 15 265 cnv 15 60 25 empty empty MUSIC 0 12 1 18 -1 -4034 0;
#X obj 120 268 cnv 15 60 25 empty RGBpalette_val_coef_can 1.9 0 12
1 14 -1 -262144 0;
#X obj 82 266 cnv 15 20 25 empty empty Color 0 12 1 14 -1 -4034 0;
#X obj 179 206 cnv 20 50 20 empty tabletPressure_can 0 5 12 1 12 -24198
-33289 0;
#X obj 100 225 cnv 15 40 25 empty part_acc_factor_can 0.01 0 12 1 14
-1 -262144 0;
#X obj 176 180 cnv 15 60 25 empty empty Tabl_Press 0 12 1 14 -1 -4034
0;
#X obj 14 356 cnv 15 60 25 empty empty BEAT: 0 12 1 24 -1 -4034 0;
#X obj 91 358 cnv 15 20 25 empty loop_beat_can 5 0 12 1 36 -1 -262144
0;
#X obj 13 518 cnv 15 60 25 empty empty Freq_Part 0 12 1 14 -1 -4034
0;
#X obj 124 520 cnv 15 15 25 empty empty X 0 12 1 12 -1 -4034 0;
#X obj 134 518 cnv 15 20 25 empty flashPart_duration_can 0 0 12 1 18
-1 -262144 0;
#X obj 274 514 cnv 15 35 25 empty flashTrack0_freq_can 0 5 12 1 24
-44926 -33289 0;
#X obj 205 515 cnv 15 60 25 empty empty Freq_Bgd: 0 12 1 14 -1 -4034
0;
#X obj 85 512 cnv 15 35 25 empty flashPart_freq_can 0 5 12 1 24 -44926
-33289 0;
#X obj 14 464 cnv 15 45 25 empty empty thrshld 0 12 1 18 -1 -4034 0
;
#X obj 275 454 cnv 15 25 25 empty empty VI 0 12 1 14 -1 -4034 0;
#X obj 295 453 cnv 15 15 25 empty is_VideoOn_can - 2 12 1 24 -44926
-33289 0;
#X obj 13 577 cnv 15 60 25 empty empty BG_sub 0 12 1 18 -1 -4034 0
;
#X obj 122 576 cnv 15 35 25 empty currentBGSubtr_can Cur 5 12 1 18
-258699 -33289 0;
#X obj 146 541 cnv 15 60 25 empty empty REPOP 0 12 1 12 -1 -4034 0
;
#X obj 233 542 cnv 15 35 25 empty repopulatingBG_can 0 5 12 1 18 -44926
-33289 0;
#X obj 267 315 vsl 8 128 0 1 0 0 empty trackFinalWeight_0 empty 0 -9
0 10 -4032 -1 -1 0 1;
#X obj 302 316 vsl 8 128 0 1 0 0 empty trackFinalWeight_1 empty 0 -9
0 10 -4032 -1 -1 0 1;
#X obj 123 357 cnv 15 30 25 empty empty auto: 0 12 1 24 -1 -4034 0
;
#X obj 179 356 cnv 15 7 25 empty auto_beat_can 0 0 12 1 28 -1 -262144
0;
#X obj 115 245 cnv 15 40 25 empty radiusParticle_can 0.5 0 12 1 14
-1 -262144 0;
#X obj 14 443 cnv 15 45 25 empty empty VIDEO 0 12 1 18 -1 -4034 0;
#X obj 66 485 cnv 15 40 25 empty videoGamma 1 0 12 1 14 -1 -262144
0;
#X obj 65 397 cnv 15 20 25 empty empty shuffle 0 12 1 14 -1 -4034 0
;
#X obj 111 398 cnv 15 40 25 empty images_weights_rand 0 0 12 1 14 -1
-262144 0;
#X obj 16 395 cnv 15 45 25 empty empty IMG 0 12 1 18 -1 -4034 0;
#X obj 15 51 cnv 15 80 35 empty cumulated_time_can 0:9 0 18 1 36 -162280
-33289 0;
#X obj 71 245 cnv 15 20 25 empty empty radius 0 12 1 14 -1 -4034 0
;
#X obj 13 418 cnv 15 20 25 empty empty mask_jitter 0 12 1 14 -1 -4034
0;
#X obj 85 420 cnv 15 40 25 empty maskJitterAmpl_can 0 0 12 1 14 -1
-262144 0;
#X obj 13 546 cnv 15 60 25 empty empty Freq_Back: 0 12 1 14 -1 -4034
0;
#X obj 84 542 cnv 15 35 25 empty flashBack_freq_can 0 5 12 1 24 -44926
-33289 0;
#X obj 274 485 cnv 15 35 25 empty flashCA_freq_1_can 4 5 12 1 24 -258699
-33289 0;
#X obj 180 486 cnv 15 60 25 empty empty Freq_CA: 0 12 1 12 -1 -4034
0;
#X obj 234 485 cnv 15 35 25 empty flashCA_freq_0_can 9 5 12 1 24 -258699
-33289 0;
#X obj 192 542 cnv 15 35 25 empty repopulatingCA_can 0 5 12 1 18 -44926
-33289 0;
#X obj 15 198 cnv 15 60 25 empty empty CA: 0 12 1 18 -1 -4034 0;
#X obj 53 198 cnv 15 60 25 empty CAType_can Prey 0 12 1 14 -1 -262144
0;
#X obj 125 198 cnv 15 20 25 empty empty / 0 12 1 14 -1 -4034 0;
#X obj 137 201 cnv 15 30 25 empty CASubType_can X 0 12 1 14 -1 -262144
0;
#X obj 205 316 vsl 15 128 0 0.01 0 0 empty CAdecay CA 0 -9 0 14 -162280
-1 -4034 0 1;
#X obj 220 316 vsl 8 128 0 1 0 0 empty CACompositionWeight empty 0
-9 0 10 -4032 -1 -1 0 1;
#X obj 206 453 cnv 15 20 25 empty CAdecay_sign_can - 5 12 1 24 -44926
-33289 0;
#X obj 228 316 vsl 8 128 0 1 0 0 empty CAFinalWeight empty 0 -9 0 10
-4032 -1 -1 0 1;
#X obj 128 397 cnv 15 20 25 empty empty bright 0 12 1 14 -1 -4034 0
;
#X obj 243 455 cnv 15 20 25 empty track0decay_sign_can - 5 12 1 24
-44926 -33289 0;
#X obj 67 296 cnv 15 20 50 empty palette1_can empty 0 12 1 14 -205632
-262144 0;
#X obj 88 296 cnv 15 20 50 empty palette2_can empty 0 12 1 14 -98613
-262144 0;
#X obj 109 296 cnv 15 20 50 empty palette3_can empty 0 12 1 14 -185041
-262144 0;
#X obj 16 321 cnv 15 50 25 empty color_can empty 20 12 0 14 -262144
-262144 0;
#X obj 16 296 cnv 15 50 25 empty gray_can G_1.00 0 12 1 14 -262144
-66577 0;
#X obj 170 397 cnv 15 30 25 empty images_weights_scale 0 0 12 1 14
-1 -262144 0;
#X obj 86 576 cnv 15 35 25 empty initialBGSubtr_can Init 5 12 1 18
-44926 -33289 0;
#X obj 8 613 cnv 15 60 25 empty empty CA_PARAMS 0 12 1 14 -1 -4034
0;
#X obj 13 634 cnv 15 40 25 empty CAParams1_can 0.469 0 12 1 14 -1 -262144
0;
#X obj 70 634 cnv 15 40 25 empty CAParams2_can 0.49 0 12 1 14 -1 -262144
0;
#X obj 121 634 cnv 15 40 25 empty CAParams3_can 0.51 0 12 1 14 -1 -262144
0;
#X obj 168 634 cnv 15 40 25 empty CAParams4_can 0.571 0 12 1 14 -1
-262144 0;
#X obj 218 635 cnv 15 40 25 empty CAParams5_can 0.306 0 12 1 14 -1
-262144 0;
#X obj 168 236 cnv 15 60 25 empty empty TEXT: 0 12 1 18 -1 -4034 0
;
#X obj 170 260 cnv 15 130 25 empty texture_can High_noise 0 12 1 14
-1 -262144 0;
#X obj 281 200 vsl 15 80 0 1 0 0 empty echoNeg empty 0 -9 0 14 -162280
-1 -4034 0 1;
#X obj 256 200 vsl 15 80 0 1.01 0 0 empty echo ECHO+- 0 -9 0 14 -162280
-1 -4034 0 1;
#X obj 93 486 cnv 15 45 25 empty empty expos 0 12 1 14 -1 -4034 0;
#X obj 135 486 cnv 15 40 25 empty videoExposure -6 0 12 1 14 -1 -262144
0;
#X obj 156 458 cnv 15 25 25 empty empty DECAY 0 12 1 14 -1 -4034 0
;
#X obj 185 577 cnv 15 60 25 empty empty MODE 0 12 1 18 -1 -4034 0;
#X obj 243 578 cnv 15 70 25 empty mode_can NORM 5 12 1 16 -44926 -33289
0;
#X obj 278 97 vsl 10 60 0 2 0 0 empty soundvolume_g empty 0 -12 1 20
-162280 -1 -262144 0 1;
#X obj 290 97 vsl 10 60 0 2 0 0 empty soundvolume_b empty 0 -12 1 20
-162280 -1 -262144 0 1;
#X obj 107 419 cnv 15 20 25 empty empty value 0 12 1 14 -1 -4034 0
;
#X obj 146 419 cnv 15 30 25 empty image_value 0 0 12 1 14 -1 -262144
0;
#X obj 265 155 cnv 15 10 20 empty empty L 0 12 1 12 -1 -4034 0;
#X obj 278 156 cnv 15 10 20 empty empty M 0 12 1 12 -1 -4034 0;
#X obj 294 157 cnv 15 10 20 empty empty H 0 12 1 12 -1 -4034 0;
#X obj 74 453 cnv 15 40 25 empty videoThreshold 0.17 0 12 1 36 -1 -262144
0;
#X obj 15 485 cnv 15 45 25 empty empty gamma 0 12 1 14 -1 -4034 0;
#X connect 12 0 13 0;
#X connect 12 1 14 0;
#X connect 12 2 15 0;
