#N canvas 3 481 408 238 10;
#X obj 23 45 bng 100 250 50 0 empty empty empty 0 -6 0 8 -24198 -1
-1;
#X obj 123 105 bng 40 250 50 0 empty empty empty 0 -6 0 8 -258699 -1
-1;
#X obj 22 28 loadbang;
#X text 16 12 UDP connection;
#X text 121 13 AUDIO ON;
#X obj 123 30 loadbang;
#X msg 123 46 \; pd dsp 1;
#N canvas 360 50 963 468 LYM_sound_analysis 0;
#X obj 293 166 bonk~;
#X text 671 161 ATTACK OUTPUT;
#X obj 678 183 unpack f f f;
#X obj 374 86 loadbang;
#X msg 400 126 minvel 0.1;
#X msg 315 125 thresh 6 50;
#X obj 246 126 metro 20;
#X obj 127 11 adc~ 1 2;
#X obj 189 426 s message;
#X obj 189 377 pack f f f;
#X msg 189 402 send /pulse_spectrum \$1 \$2 \$3;
#X floatatom 111 332 5 0 0 0 - - -, f 5;
#X floatatom 245 335 5 0 0 0 - - -, f 5;
#X floatatom 380 336 5 0 0 0 - - -, f 5;
#X floatatom 511 261 5 0 0 0 - - -, f 5;
#N canvas 0 50 450 300 (subpatch) 0;
#X array attack 100 float 0;
#X coords 0 1 99 -1 100 70 1 0 0;
#X restore 781 137 graph;
#X obj 608 333 tabwrite attack;
#X obj 689 422 send message;
#X obj 236 167 s beat;
#X msg 689 405 send /beat \$1;
#X obj 718 302 spigot;
#X msg 737 339 0;
#X msg 783 389 1;
#X obj 689 371 f;
#X obj 720 371 + 1;
#X obj 689 388 mod 8;
#X obj 783 337 bng 15 250 50 0 empty empty empty 17 7 0 10 -262144
-1 -1;
#X obj 718 283 route 1;
#X obj 718 261 > 0.6;
#X obj 783 363 delay 100;
#X obj 644 272 f;
#X obj 675 273 + 1;
#X obj 644 250 r beat;
#X text 610 217 attack above which a beat is sent;
#X obj 644 293 mod 100;
#X obj 758 236 r beat_threshold;
#X obj 843 342 r beat_delay;
#X obj 783 311 loadbang;
#X obj 65 300 moses 0;
#X obj 199 304 moses 0;
#X obj 334 305 moses 0;
#X obj 66 256 bp~ 800 2;
#X obj 200 256 bp~ 2000 2;
#X obj 334 254 bp~ 8000 2;
#X obj 23 7 r~ channel1;
#X obj 24 28 r~ channel2;
#X floatatom 878 290 5 0 0 0 - - -, f 5;
#X floatatom 886 378 5 0 0 0 - - -, f 5;
#X obj 718 236 / 60;
#X obj 205 12 r adc_onOff;
#X obj 146 43 +~;
#X obj 50 58 +~;
#X obj 140 101 +~;
#X obj 158 73 *~ 1;
#X floatatom 213 49 5 0 0 0 - - -, f 5;
#X obj 140 129 *~ 0.5;
#X obj 465 389 s message;
#X msg 465 365 send /pulse_single \$1;
#X floatatom 631 410 5 0 0 0 - - -, f 5;
#N canvas 942 50 524 385 norm_env~ 0;
#X obj 58 103 -;
#X obj 58 149 /;
#X obj 94 128 -;
#X obj 57 186 outlet;
#X obj 57 50 env~;
#X obj 56 11 inlet~;
#X floatatom 127 177 5 0 0 0 - - -, f 5;
#X floatatom 168 150 5 0 0 0 - - -, f 5;
#X obj 76 81 r env_min;
#X obj 123 105 r env_max;
#X floatatom 254 89 5 0 0 0 - - -, f 5;
#X floatatom 150 235 5 0 0 0 - - -, f 5;
#X connect 0 0 1 0;
#X connect 1 0 3 0;
#X connect 1 0 11 0;
#X connect 2 0 1 1;
#X connect 4 0 0 0;
#X connect 4 0 10 0;
#X connect 5 0 4 0;
#X connect 8 0 0 1;
#X connect 8 0 2 1;
#X connect 8 0 6 0;
#X connect 9 0 2 0;
#X connect 9 0 7 0;
#X restore 65 278 pd norm_env~;
#N canvas 767 159 450 300 norm_env~ 0;
#X obj 56 123 -;
#X obj 56 169 /;
#X obj 92 148 -;
#X obj 55 206 outlet;
#X obj 55 70 env~;
#X obj 54 31 inlet~;
#X obj 74 101 r env_min;
#X obj 121 125 r env_max;
#X connect 0 0 1 0;
#X connect 1 0 3 0;
#X connect 2 0 1 1;
#X connect 4 0 0 0;
#X connect 5 0 4 0;
#X connect 6 0 0 1;
#X connect 6 0 2 1;
#X connect 7 0 2 0;
#X restore 199 278 pd norm_env~;
#N canvas 942 50 276 205 norm_env~ 0;
#X obj 37 129 -;
#X obj 37 175 /;
#X obj 73 154 -;
#X obj 36 212 outlet;
#X obj 36 76 env~;
#X obj 35 37 inlet~;
#X obj 55 107 r env_min;
#X obj 102 131 r env_max;
#X connect 0 0 1 0;
#X connect 1 0 3 0;
#X connect 2 0 1 1;
#X connect 4 0 0 0;
#X connect 5 0 4 0;
#X connect 6 0 0 1;
#X connect 6 0 2 1;
#X connect 7 0 2 0;
#X restore 334 277 pd norm_env~;
#N canvas 942 50 450 300 norm_env~ 0;
#X obj 48 116 -;
#X obj 48 162 /;
#X obj 84 141 -;
#X obj 47 199 outlet;
#X obj 47 63 env~;
#X obj 46 24 inlet~;
#X obj 66 94 r env_min;
#X obj 113 118 r env_max;
#X connect 0 0 1 0;
#X connect 1 0 3 0;
#X connect 2 0 1 1;
#X connect 4 0 0 0;
#X connect 5 0 4 0;
#X connect 6 0 0 1;
#X connect 6 0 2 1;
#X connect 7 0 2 0;
#X restore 465 147 pd norm_env~;
#X obj 540 9 inlet;
#N canvas 198 155 1188 627 min_max~ 0;
#X obj 54 87 env~;
#X obj 54 142 moses 0;
#X floatatom 129 169 5 0 0 0 - - -, f 5;
#X obj 124 143 f;
#X text 58 185 VAL;
#X text 135 199 MAX_VAL;
#X text 117 98 reset;
#X msg 124 118 0;
#X text 135 184 HIGHEST VALUE;
#X obj 54 47 inlet~;
#X floatatom 54 168 5 0 0 0 - - -, f 5;
#X text 153 59 reset;
#X floatatom 76 332 5 0 0 0 - - -, f 5;
#X obj 151 268 f;
#X obj 54 246 * -1;
#X obj 54 268 moses -1000;
#X obj 128 293 * -1;
#X msg 150 247 -1000;
#X text 125 350 LOWEST VALUE;
#X text 127 366 MIN_VAL;
#X text 58 23 signal;
#X floatatom 73 110 5 0 0 0 - - -, f 5;
#X obj 257 87 env~;
#X obj 257 142 moses 0;
#X floatatom 330 169 5 0 0 0 - - -, f 5;
#X obj 327 143 f;
#X text 261 185 VAL;
#X text 336 199 MAX_VAL;
#X text 320 98 reset;
#X msg 327 118 0;
#X text 336 184 HIGHEST VALUE;
#X obj 257 47 inlet~;
#X floatatom 257 168 5 0 0 0 - - -, f 5;
#X text 356 59 reset;
#X obj 354 268 f;
#X obj 257 246 * -1;
#X obj 257 268 moses -1000;
#X obj 331 293 * -1;
#X msg 353 247 -1000;
#X text 336 335 LOWEST VALUE;
#X text 338 351 MIN_VAL;
#X text 261 23 signal;
#X floatatom 276 110 5 0 0 0 - - -, f 5;
#X obj 458 87 env~;
#X obj 458 142 moses 0;
#X floatatom 532 169 5 0 0 0 - - -, f 5;
#X obj 528 143 f;
#X text 462 185 VAL;
#X text 538 199 MAX_VAL;
#X text 521 98 reset;
#X msg 528 118 0;
#X text 538 184 HIGHEST VALUE;
#X obj 458 47 inlet~;
#X floatatom 458 168 5 0 0 0 - - -, f 5;
#X text 557 59 reset;
#X floatatom 474 318 5 0 0 0 - - -, f 5;
#X obj 555 268 f;
#X obj 458 246 * -1;
#X obj 458 268 moses -1000;
#X obj 532 293 * -1;
#X msg 554 247 -1000;
#X text 537 335 LOWEST VALUE;
#X text 539 351 MIN_VAL;
#X text 462 23 signal;
#X floatatom 477 110 5 0 0 0 - - -, f 5;
#X obj 661 87 env~;
#X obj 661 142 moses 0;
#X floatatom 733 169 5 0 0 0 - - -, f 5;
#X obj 731 143 f;
#X text 665 185 VAL;
#X text 739 199 MAX_VAL;
#X text 724 98 reset;
#X msg 731 118 0;
#X text 739 184 HIGHEST VALUE;
#X obj 661 47 inlet~;
#X floatatom 661 168 5 0 0 0 - - -, f 5;
#X text 760 59 reset;
#X floatatom 677 318 5 0 0 0 - - -, f 5;
#X obj 758 268 f;
#X obj 661 246 * -1;
#X obj 661 268 moses -1000;
#X obj 735 293 * -1;
#X msg 757 247 -1000;
#X text 740 335 LOWEST VALUE;
#X text 742 351 MIN_VAL;
#X text 665 23 signal;
#X floatatom 680 110 5 0 0 0 - - -, f 5;
#X obj 150 84 r reset_sound;
#X obj 353 84 r reset_sound;
#X obj 554 84 r reset_sound;
#X obj 757 84 r reset_sound;
#X obj 195 407 min;
#X obj 212 435 min;
#X obj 231 462 min;
#X obj 231 487 s env_min;
#X obj 128 331 f;
#X obj 331 314 t b f;
#X floatatom 279 335 5 0 0 0 - - -, f 5;
#X obj 532 315 t b f;
#X obj 736 315 t b f;
#X floatatom 174 482 5 0 0 0 - - -, f 5;
#X obj 407 398 f;
#X obj 610 381 t b f;
#X obj 811 382 t b f;
#X obj 1015 382 t b f;
#X floatatom 453 549 5 0 0 0 - - -, f 5;
#X obj 474 474 max;
#X obj 491 502 max;
#X obj 510 529 max;
#X obj 510 554 s env_max;
#X text 406 433 MAX_VAL;
#X text 617 418 MAX_VAL;
#X text 818 418 MAX_VAL;
#X text 1021 418 MAX_VAL;
#X text 404 417 HIGHEST VALUE;
#X text 615 402 HIGHEST VALUE;
#X text 816 402 HIGHEST VALUE;
#X text 1019 402 HIGHEST VALUE;
#X connect 0 0 1 0;
#X connect 0 0 21 0;
#X connect 1 0 10 0;
#X connect 1 0 14 0;
#X connect 1 1 2 0;
#X connect 1 1 3 0;
#X connect 1 1 101 0;
#X connect 3 0 1 1;
#X connect 7 0 3 0;
#X connect 9 0 0 0;
#X connect 13 0 15 1;
#X connect 14 0 15 0;
#X connect 15 1 13 0;
#X connect 15 1 16 0;
#X connect 16 0 12 0;
#X connect 16 0 95 0;
#X connect 17 0 13 0;
#X connect 22 0 23 0;
#X connect 22 0 42 0;
#X connect 23 0 32 0;
#X connect 23 0 35 0;
#X connect 23 1 24 0;
#X connect 23 1 25 0;
#X connect 23 1 102 0;
#X connect 25 0 23 1;
#X connect 29 0 25 0;
#X connect 31 0 22 0;
#X connect 34 0 36 1;
#X connect 35 0 36 0;
#X connect 36 1 34 0;
#X connect 36 1 37 0;
#X connect 37 0 96 0;
#X connect 37 0 97 0;
#X connect 38 0 34 0;
#X connect 43 0 44 0;
#X connect 43 0 64 0;
#X connect 44 0 53 0;
#X connect 44 0 57 0;
#X connect 44 1 45 0;
#X connect 44 1 46 0;
#X connect 44 1 103 0;
#X connect 46 0 44 1;
#X connect 50 0 46 0;
#X connect 52 0 43 0;
#X connect 56 0 58 1;
#X connect 57 0 58 0;
#X connect 58 1 56 0;
#X connect 58 1 59 0;
#X connect 59 0 55 0;
#X connect 59 0 98 0;
#X connect 60 0 56 0;
#X connect 65 0 66 0;
#X connect 65 0 86 0;
#X connect 66 0 75 0;
#X connect 66 0 79 0;
#X connect 66 1 67 0;
#X connect 66 1 68 0;
#X connect 66 1 104 0;
#X connect 68 0 66 1;
#X connect 72 0 68 0;
#X connect 74 0 65 0;
#X connect 78 0 80 1;
#X connect 79 0 80 0;
#X connect 80 1 78 0;
#X connect 80 1 81 0;
#X connect 81 0 77 0;
#X connect 81 0 99 0;
#X connect 82 0 78 0;
#X connect 87 0 7 0;
#X connect 87 0 17 0;
#X connect 88 0 29 0;
#X connect 88 0 38 0;
#X connect 89 0 50 0;
#X connect 89 0 60 0;
#X connect 90 0 72 0;
#X connect 90 0 82 0;
#X connect 91 0 92 0;
#X connect 92 0 93 0;
#X connect 93 0 100 0;
#X connect 95 0 91 0;
#X connect 96 0 95 0;
#X connect 96 1 91 1;
#X connect 98 0 96 0;
#X connect 98 1 92 1;
#X connect 99 0 98 0;
#X connect 99 1 93 1;
#X connect 101 0 106 0;
#X connect 102 0 101 0;
#X connect 102 1 106 1;
#X connect 103 0 102 0;
#X connect 103 1 107 1;
#X connect 104 0 103 0;
#X connect 104 1 108 1;
#X connect 106 0 107 0;
#X connect 107 0 108 0;
#X connect 108 0 105 0;
#X restore 27 140 pd min_max~;
#X obj 540 40 s reset_sound;
#X floatatom 810 285 5 0 0 0 - - -, f 5;
#X text 653 -7 reset;
#X obj 655 10 loadbang;
#X obj 655 40 s reset_sound;
#X obj 465 232 moses 0;
#X msg 465 249 0;
#X msg 65 317 0;
#X msg 199 321 0;
#X msg 313 322 0;
#X connect 0 1 2 0;
#X connect 2 1 48 0;
#X connect 3 0 5 0;
#X connect 3 0 6 0;
#X connect 3 0 4 0;
#X connect 4 0 0 0;
#X connect 5 0 0 0;
#X connect 6 0 0 0;
#X connect 6 0 18 0;
#X connect 7 0 50 0;
#X connect 7 1 50 1;
#X connect 9 0 10 0;
#X connect 10 0 8 0;
#X connect 19 0 17 0;
#X connect 20 0 21 0;
#X connect 20 0 23 0;
#X connect 20 0 26 0;
#X connect 21 0 20 1;
#X connect 22 0 20 1;
#X connect 23 0 24 0;
#X connect 23 0 25 0;
#X connect 24 0 23 1;
#X connect 25 0 19 0;
#X connect 25 0 58 0;
#X connect 26 0 29 0;
#X connect 27 0 20 0;
#X connect 28 0 27 0;
#X connect 29 0 22 0;
#X connect 30 0 31 0;
#X connect 30 0 34 0;
#X connect 31 0 30 1;
#X connect 32 0 30 0;
#X connect 34 0 16 1;
#X connect 35 0 28 1;
#X connect 35 0 46 0;
#X connect 36 0 29 1;
#X connect 36 0 47 0;
#X connect 37 0 26 0;
#X connect 38 0 72 0;
#X connect 38 1 11 0;
#X connect 38 1 9 0;
#X connect 39 0 73 0;
#X connect 39 1 12 0;
#X connect 39 1 9 1;
#X connect 40 0 74 0;
#X connect 40 1 13 0;
#X connect 40 1 9 2;
#X connect 41 0 59 0;
#X connect 42 0 60 0;
#X connect 43 0 61 0;
#X connect 44 0 51 1;
#X connect 45 0 51 0;
#X connect 48 0 28 0;
#X connect 48 0 16 0;
#X connect 48 0 66 0;
#X connect 49 0 53 1;
#X connect 49 0 54 0;
#X connect 50 0 53 0;
#X connect 51 0 52 0;
#X connect 52 0 55 0;
#X connect 53 0 52 1;
#X connect 55 0 0 0;
#X connect 55 0 62 0;
#X connect 55 0 41 0;
#X connect 55 0 42 0;
#X connect 55 0 43 0;
#X connect 57 0 56 0;
#X connect 59 0 38 0;
#X connect 60 0 39 0;
#X connect 61 0 40 0;
#X connect 62 0 70 0;
#X connect 63 0 65 0;
#X connect 68 0 69 0;
#X connect 70 0 71 0;
#X connect 70 1 57 0;
#X connect 70 1 14 0;
#X connect 71 0 57 0;
#X connect 72 0 9 0;
#X connect 73 0 9 1;
#X connect 74 0 9 2;
#X restore 189 114 pd LYM_sound_analysis;
#N canvas 229 341 748 329 UDPinOut 1;
#X msg 194 64 disconnect;
#X text 58 8 OPEN UDP CONNECTION;
#X text 200 8 CLOSE UDP CONNECTION;
#X msg 118 120 connect 127.0.0.1 1978;
#X obj 171 146 r message;
#X obj 118 24 inlet;
#X obj 194 26 inlet;
#X floatatom 118 231 5 0 0 0 - - -, f 5;
#X obj 233 41 r disconnect;
#X obj 127 92 r connect;
#X obj 171 175 spigot;
#X text 204 99 Porphyrograph;
#X obj 118 209 netsend 1;
#X text 361 11 OSC message processing;
#X obj 599 283 print receive;
#X obj 371 32 netreceive -u 1980;
#X text 523 12 from Porphyrograph;
#X obj 199 230 print send;
#X obj 365 92 s connect;
#X obj 448 231 s reset_sound;
#X obj 449 212 bng 15 250 50 0 empty empty empty 17 7 0 10 -262144
-1 -1;
#X obj 582 191 s soundtrack_fileName;
#X obj 582 155 s soundtrack_onOff;
#X obj 582 226 s adc_onOff;
#X obj 451 156 s beat_delay;
#X obj 449 185 s beat_threshold;
#X obj 365 53 route /connect /beat_delay /beat_threshold /reset_sound
/soundtrack_onOff /soundtrack_fileName /adc_onOff;
#X floatatom 472 263 5 0 0 0 - - -, f 5;
#X obj 351 154 s message;
#X obj 352 113 delay 500;
#X msg 351 134 send /PD_connected;
#X connect 0 0 12 0;
#X connect 3 0 12 0;
#X connect 4 0 10 0;
#X connect 5 0 3 0;
#X connect 6 0 0 0;
#X connect 8 0 0 0;
#X connect 9 0 3 0;
#X connect 10 0 12 0;
#X connect 12 0 7 0;
#X connect 12 0 10 1;
#X connect 15 0 26 0;
#X connect 20 0 19 0;
#X connect 26 0 18 0;
#X connect 26 0 29 0;
#X connect 26 1 24 0;
#X connect 26 2 25 0;
#X connect 26 2 27 0;
#X connect 26 3 20 0;
#X connect 26 4 22 0;
#X connect 26 5 21 0;
#X connect 26 6 23 0;
#X connect 29 0 30 0;
#X connect 30 0 28 0;
#X coords 0 0 10 10 0 0 0;
#X restore 23 145 pd UDPinOut;
#N canvas 474 50 656 271 play_soundtrack 0;
#X msg 61 109 open \$1;
#X obj 60 179 readsf~ 2;
#X obj 36 135 delay 1;
#X msg 36 152 1;
#X obj 36 116 bng 15 250 50 0 empty empty empty 17 7 0 10 -262144 -1
-1;
#X obj 166 166 bng 15 250 50 0 empty empty empty 17 7 0 10 -262144
-1 -1;
#X text 185 166 Loop at the end of the track;
#X obj 61 51 pack s;
#X symbolatom 62 83 60 0 0 0 - - -, f 60;
#X text 14 7 TRACK NAME SENT BY PORPHROGRAPH THRU /playsoundtrack MSG
;
#X obj 21 211 s~ channel1;
#X obj 115 211 s~ channel2;
#X obj 42 27 r soundtrack_fileName;
#X obj 65 238 dac~ 1 2;
#X floatatom 302 52 5 0 0 0 - - -, f 5;
#X obj 295 26 r soundtrack_onOff;
#X obj 166 108 moses 0.5;
#X obj 520 46 inlet;
#X msg 520 76 0;
#X connect 0 0 1 0;
#X connect 1 0 10 0;
#X connect 1 0 13 0;
#X connect 1 1 11 0;
#X connect 1 1 13 1;
#X connect 1 2 5 0;
#X connect 2 0 3 0;
#X connect 3 0 1 0;
#X connect 4 0 2 0;
#X connect 5 0 8 0;
#X connect 5 0 2 0;
#X connect 7 0 8 0;
#X connect 8 0 0 0;
#X connect 12 0 4 0;
#X connect 12 0 7 0;
#X connect 15 0 14 0;
#X connect 15 0 16 0;
#X connect 16 0 1 0;
#X connect 16 1 5 0;
#X connect 17 0 18 0;
#X connect 18 0 1 0;
#X restore 190 53 pd play_soundtrack;
#X text 191 94 MUSIC CONTROL;
#X text 191 31 SOUNDTRACKS;
#N canvas 0 50 450 300 not_implemented 0;
#N canvas 684 50 450 300 video_satur_pulse 0;
#X obj 60 79 inlet;
#X obj 60 143 s message;
#X msg 60 127 send /video_satur_pulse \$1;
#X obj 60 110 * 1;
#X connect 0 0 3 0;
#X connect 2 0 1 0;
#X connect 3 0 2 0;
#X restore 221 28 pd video_satur_pulse;
#N canvas 308 311 450 300 repop_hue_pulse 0;
#X obj 53 166 s message;
#X obj 70 49 inlet;
#X obj 70 73 * 3;
#X msg 53 149 send /repop_hue_pulse \$1;
#X connect 1 0 2 0;
#X connect 2 0 3 0;
#X connect 3 0 0 0;
#X restore 215 53 pd repop_hue_pulse;
#N canvas 221 50 450 300 pen_hue_pulse 0;
#X obj 53 166 s message;
#X obj 70 49 inlet;
#X obj 70 73 * 3;
#X msg 53 149 send /pen_hue_pulse \$1;
#X connect 1 0 2 0;
#X connect 2 0 3 0;
#X connect 3 0 0 0;
#X restore 221 75 pd pen_hue_pulse;
#X msg 216 116 send /flashVideo;
#N canvas 254 50 578 439 CAParams1-7 0;
#X obj 162 202 s message;
#X msg 162 96 send /CAParams4 \$1;
#X msg 147 120 send /CAParams3 \$1;
#X msg 132 145 send /CAParams2 \$1;
#X msg 116 168 send /CAParams1 \$1;
#X obj 96 45 inlet;
#X obj 154 46 inlet;
#X obj 207 47 inlet;
#X obj 271 45 inlet;
#X obj 404 202 s message;
#X obj 338 45 inlet;
#X obj 396 46 inlet;
#X obj 449 47 inlet;
#X msg 389 120 send /CAParams7 \$1;
#X msg 374 145 send /CAParams6 \$1;
#X msg 358 168 send /CAParams5 \$1;
#X connect 1 0 0 0;
#X connect 2 0 0 0;
#X connect 3 0 0 0;
#X connect 4 0 0 0;
#X connect 5 0 4 0;
#X connect 6 0 3 0;
#X connect 7 0 2 0;
#X connect 8 0 1 0;
#X connect 10 0 15 0;
#X connect 11 0 14 0;
#X connect 12 0 13 0;
#X connect 13 0 9 0;
#X connect 14 0 9 0;
#X connect 15 0 9 0;
#X restore 219 178 pd CAParams1-7;
#X msg 217 143 send /snapshot;
#N canvas 886 385 280 94 noiseLinearScale 0;
#X obj 41 82 s message;
#X obj 41 6 inlet;
#X obj 41 37 * 1;
#X msg 41 65 send /noiseLineScale \$1;
#X connect 1 0 2 0;
#X connect 2 0 3 0;
#X connect 3 0 0 0;
#X restore 49 145 pd noiseLinearScale;
#N canvas 886 385 303 132 noiseAngleScale 0;
#X obj 36 89 s message;
#X obj 36 13 inlet;
#X msg 36 72 send /noiseAngleScale \$1;
#X obj 33 44 * 10;
#X connect 1 0 3 0;
#X connect 2 0 0 0;
#X connect 3 0 2 0;
#X restore 53 168 pd noiseAngleScale;
#N canvas 886 385 502 140 noiseCenter 0;
#X obj 32 113 s message;
#X obj 32 37 inlet;
#X obj 195 113 s message;
#X obj 195 37 inlet;
#X msg 32 96 send /noiseCenter_0 \$1;
#X msg 195 96 send /noiseCenter_1 \$1;
#X obj 32 68 * 2;
#X obj 195 68 * 2;
#X connect 1 0 6 0;
#X connect 3 0 7 0;
#X connect 4 0 0 0;
#X connect 5 0 2 0;
#X connect 6 0 4 0;
#X connect 7 0 5 0;
#X restore 50 121 pd noiseCenter;
#X msg 46 101 send /noiseType_plus;
#N canvas 221 50 450 300 part_stroke_mode 0;
#X obj 72 175 s message;
#X obj 72 88 inlet;
#X obj 72 133 int;
#X obj 72 112 * 2.99;
#X msg 72 158 send /part_stroke_mode \$1;
#X connect 1 0 3 0;
#X connect 2 0 4 0;
#X connect 3 0 2 0;
#X connect 4 0 0 0;
#X restore 52 192 pd part_stroke_mode;
#X msg 51 77 send /invertMovie 1;
#X msg 56 52 send /invertAllLayers;
#X msg 49 33 send /clearCA;
#X restore 23 170 pd not_implemented;
#X obj 280 13 bng 40 250 50 0 empty empty empty 0 -6 0 8 -258699 -1
-1;
#X obj 300 74 bng 40 250 50 0 empty empty empty 0 -6 0 8 -4034 -1 -1
;
#X obj 264 206 s env_max;
#X obj 187 206 s env_min;
#X obj 190 176 hsl 128 15 0 100 0 0 empty empty empty -2 -8 0 10 -262144
-1 -1 7620 1;
#X obj 212 191 hsl 128 15 50 100 0 0 empty empty empty -2 -8 0 10 -262144
-1 -1 7874 1;
#X obj 187 142 r reset_sound;
#X floatatom 150 206 5 0 0 0 - - -, f 5;
#X floatatom 331 206 5 0 0 0 - - -, f 5;
#X msg 239 159 81;
#X msg 187 159 60;
#X connect 0 0 8 0;
#X connect 1 0 8 1;
#X connect 2 0 0 0;
#X connect 5 0 6 0;
#X connect 13 0 9 0;
#X connect 14 0 7 0;
#X connect 17 0 16 0;
#X connect 17 0 20 0;
#X connect 18 0 15 0;
#X connect 18 0 21 0;
#X connect 19 0 23 0;
#X connect 19 0 22 0;
#X connect 22 0 18 0;
#X connect 23 0 17 0;
