#N canvas 158 720 619 283 10;
#X declare -lib mrpeach;
#X obj 16 76 bng 100 250 50 0 empty empty empty 0 -6 0 8 -24198 -1
-1;
#X obj 116 136 bng 40 250 50 0 empty empty empty 0 -6 0 8 -258699 -1
-1;
#X obj 15 59 loadbang;
#X text 9 43 UDP connection;
#X text 117 45 AUDIO ON;
#X obj 116 61 loadbang;
#X msg 116 77 \; pd dsp 1;
#N canvas 992 711 692 289 UDPinOut 0;
#X msg 194 64 disconnect;
#X text 58 8 OPEN UDP CONNECTION;
#X text 200 8 CLOSE UDP CONNECTION;
#X obj 171 146 r message;
#X obj 118 24 inlet;
#X obj 194 26 inlet;
#X floatatom 118 231 5 0 0 0 - - -;
#X obj 233 41 r disconnect;
#X obj 127 92 r connect;
#X text 204 99 Porphyrograph;
#X text 361 11 OSC message processing;
#X text 523 12 from Porphyrograph;
#X obj 516 133 s connect;
#X obj 597 114 s soundtrack_fileName;
#X obj 171 175 packOSC;
#X obj 118 209 udpsend;
#X obj 364 58 unpackOSC;
#X msg 118 120 connect 127.0.0.1 9000;
#X obj 364 32 udpreceive 8000;
#X obj 435 135 s note;
#X obj 440 160 s intensity;
#X obj 302 179 print;
#X obj 364 85 route /chord /note /connect /soundtrack_fileName;
#X obj 364 110 s chord;
#X obj 435 110 unpack i f;
#X connect 0 0 15 0;
#X connect 3 0 14 0;
#X connect 4 0 17 0;
#X connect 5 0 0 0;
#X connect 7 0 0 0;
#X connect 8 0 17 0;
#X connect 14 0 15 0;
#X connect 15 0 6 0;
#X connect 16 0 22 0;
#X connect 17 0 15 0;
#X connect 18 0 16 0;
#X connect 22 0 23 0;
#X connect 22 1 24 0;
#X connect 22 2 12 0;
#X connect 22 3 13 0;
#X connect 24 0 19 0;
#X connect 24 1 20 0;
#X coords 0 0 10 10 0 0 0;
#X restore 16 176 pd UDPinOut;
#N canvas 417 50 1089 271 play_soundtrack 0;
#X msg 61 109 open \$1;
#X obj 60 179 readsf~ 2;
#X obj 36 135 delay 1;
#X msg 36 152 1;
#X obj 36 116 bng 15 250 50 0 empty empty empty 17 7 0 10 -262144 -1
-1;
#X obj 166 166 bng 15 250 50 0 empty empty empty 17 7 0 10 -262144
-1 -1;
#X text 185 166 Loop at the end of the track;
#X obj 61 51 pack s;
#X text 14 7 TRACK NAME SENT BY PORPHROGRAPH THRU /playsoundtrack MSG
;
#X obj 21 211 s~ channel1;
#X obj 115 211 s~ channel2;
#X obj 42 27 r soundtrack_fileName;
#X obj 65 238 dac~ 1 2;
#X floatatom 302 52 5 0 0 0 - - -;
#X obj 295 26 r soundtrack_onOff;
#X obj 166 108 moses 0.5;
#X obj 584 72 inlet;
#X msg 584 102 0;
#X symbolatom 61 82 60 0 0 0 - - -;
#X connect 0 0 1 0;
#X connect 1 0 9 0;
#X connect 1 0 12 0;
#X connect 1 1 10 0;
#X connect 1 1 12 1;
#X connect 1 2 5 0;
#X connect 2 0 3 0;
#X connect 3 0 1 0;
#X connect 4 0 2 0;
#X connect 5 0 2 0;
#X connect 5 0 18 0;
#X connect 7 0 18 0;
#X connect 11 0 4 0;
#X connect 11 0 7 0;
#X connect 14 0 13 0;
#X connect 14 0 15 0;
#X connect 15 0 1 0;
#X connect 15 1 5 0;
#X connect 16 0 17 0;
#X connect 17 0 1 0;
#X connect 18 0 0 0;
#X restore 183 84 pd play_soundtrack;
#X text 182 66 SOUNDTRACKS;
#X obj 273 44 bng 40 250 50 0 empty empty empty 0 -6 0 8 -258699 -1
-1;
#N canvas 205 147 789 522 sound_analysis 0;
#X obj 336 169 bonk~;
#X text 572 164 ATTACK OUTPUT;
#X obj 579 186 unpack f f f;
#X obj 358 89 loadbang;
#X msg 443 129 minvel 0.1;
#X msg 358 128 thresh 6 50;
#X obj 87 14 adc~ 1 2;
#X obj 90 457 s message;
#X text 511 220 attack above which a beat is sent;
#X obj 106 46 +~;
#X obj 45 377 r beat;
#X obj 272 128 metro 20;
#X obj 186 161 env~;
#X floatatom 188 188 5 0 0 0 - - -;
#X obj 269 166 s beat;
#X obj 90 408 pack 0 f f;
#X msg 90 433 send /env_attack \$2 \$3;
#X floatatom 624 280 5 0 0 0 - - -;
#X obj 148 307 / 100;
#X obj 439 267 / 20;
#X connect 0 1 2 0;
#X connect 2 1 17 0;
#X connect 2 1 19 0;
#X connect 3 0 5 0;
#X connect 3 0 4 0;
#X connect 3 0 11 0;
#X connect 4 0 0 0;
#X connect 5 0 0 0;
#X connect 6 0 9 0;
#X connect 6 1 9 1;
#X connect 9 0 12 0;
#X connect 9 0 0 0;
#X connect 10 0 15 0;
#X connect 11 0 0 0;
#X connect 11 0 14 0;
#X connect 12 0 13 0;
#X connect 12 0 18 0;
#X connect 15 0 16 0;
#X connect 18 0 15 1;
#X connect 19 0 15 2;
#X restore 194 215 pd sound_analysis;
#X obj 18 9 import mrpeach;
#X obj 197 110 r note;
#X obj 302 110 r intensity;
#X floatatom 326 131 5 0 0 0 - - -;
#X floatatom 372 132 5 0 0 0 - - -;
#N canvas 950 337 614 316 note_synthesis 0;
#X floatatom 137 -1325 12 0 0 0 - - -;
#X obj 44 -1370 expr 440 * pow(pow(2 \, (1./12.)) \, $f1);
#X obj 44 -1325 osc~;
#X obj 44 -1262 dac~ 1 2;
#X msg 200 -1401 0;
#X obj 227 -1468 expr 1000./60.;
#X obj 227 -1510 loadbang;
#X obj 193 -1509 bng 15 250 50 0 empty empty empty 17 7 0 10 -262144
-1 -1;
#X obj 129 -1532 inlet;
#X obj 76 -1467 - 512;
#X obj 473 -1534 inlet;
#X obj 45 -1297 *~;
#X text 114 -1551 note 0-1024;
#X text 240 -1491 duration: currently 1/60;
#X text 56 -1389 note to frequency conversion;
#X text 464 -1550 intensity 0-1;
#X obj 215 -1348 loadbang;
#X text 226 -1329 default intensity 1;
#X msg 215 -1314 1;
#X obj 473 -1447 dbtorms;
#X obj 473 -1473 * 100;
#X msg 495 -1505 0.8;
#X floatatom 82 -1436 5 0 0 0 - - -;
#X floatatom 432 -1495 5 0 0 0 - - -;
#X obj 44 -1429 / 8;
#X msg 44 -1516 5;
#X floatatom 11 -1400 5 0 0 0 - - -;
#X obj 200 -1448 bng 15 250 50 0 empty empty empty 17 7 0 10 -262144
-1 -1;
#X obj 200 -1429 delay 16.67;
#X connect 1 0 2 0;
#X connect 1 0 0 0;
#X connect 2 0 11 0;
#X connect 4 0 2 0;
#X connect 6 0 5 0;
#X connect 7 0 5 0;
#X connect 8 0 9 0;
#X connect 8 0 27 0;
#X connect 9 0 22 0;
#X connect 9 0 24 0;
#X connect 10 0 20 0;
#X connect 10 0 23 0;
#X connect 11 0 3 0;
#X connect 11 0 3 1;
#X connect 16 0 18 0;
#X connect 18 0 11 1;
#X connect 19 0 11 1;
#X connect 20 0 19 0;
#X connect 21 0 20 0;
#X connect 24 0 1 0;
#X connect 25 0 24 0;
#X connect 25 0 27 0;
#X connect 26 0 2 0;
#X connect 27 0 28 0;
#X connect 28 0 4 0;
#X restore 197 130 pd note_synthesis;
#N canvas 547 56 865 713 chord_synthesis 0;
#X obj 28 -1446 osc~;
#X msg 343 -1506 0;
#X obj 129 -1532 inlet;
#X obj 29 -1204 *~;
#X obj 42 -1475 dbtorms;
#X obj 343 -1538 bng 15 250 50 0 empty empty empty 17 7 0 10 -262144
-1 -1;
#X obj 343 -1523 delay 16.67;
#X obj 38 -1181 +~;
#X obj 28 -1503 unpack f f f f f f f f f f f f f f f f f f f f;
#X obj 56 -1425 osc~;
#X obj 71 -1454 dbtorms;
#X obj 84 -1401 osc~;
#X obj 99 -1430 dbtorms;
#X obj 114 -1376 osc~;
#X obj 128 -1405 dbtorms;
#X obj 142 -1353 osc~;
#X obj 157 -1382 dbtorms;
#X obj 171 -1328 osc~;
#X obj 186 -1357 dbtorms;
#X obj 57 -1203 *~;
#X obj 85 -1203 *~;
#X obj 115 -1203 *~;
#X obj 143 -1202 *~;
#X obj 171 -1202 *~;
#X obj 200 -1202 *~;
#X obj 230 -1202 *~;
#X obj 258 -1201 *~;
#X obj 285 -1201 *~;
#X obj 200 -1305 osc~;
#X obj 214 -1334 dbtorms;
#X obj 229 -1280 osc~;
#X obj 243 -1309 dbtorms;
#X obj 257 -1257 osc~;
#X obj 272 -1286 dbtorms;
#X obj 286 -1232 osc~;
#X obj 301 -1261 dbtorms;
#X obj 54 -1158 +~;
#X obj 73 -1136 +~;
#X obj 87 -1113 +~;
#X obj 101 -1092 +~;
#X obj 115 -1070 +~;
#X obj 127 -1046 +~;
#X obj 140 -1020 +~;
#X obj 152 -994 +~;
#X obj 134 -962 dac~ 1 2;
#X text 114 -1551 note -64 -> 64;
#X text 215 -1552 dB 0 -> 100;
#X floatatom 383 -1360 5 0 0 0 - - -;
#X floatatom 420 -1359 5 0 0 0 - - -;
#X floatatom 477 -1359 5 0 0 0 - - -;
#X floatatom 514 -1358 5 0 0 0 - - -;
#X floatatom 566 -1359 5 0 0 0 - - -;
#X floatatom 603 -1358 5 0 0 0 - - -;
#X floatatom 658 -1359 5 0 0 0 - - -;
#X floatatom 695 -1358 5 0 0 0 - - -;
#X floatatom 756 -1359 5 0 0 0 - - -;
#X floatatom 793 -1358 5 0 0 0 - - -;
#X floatatom 385 -1314 5 0 0 0 - - -;
#X floatatom 422 -1313 5 0 0 0 - - -;
#X floatatom 477 -1313 5 0 0 0 - - -;
#X floatatom 514 -1312 5 0 0 0 - - -;
#X floatatom 566 -1313 5 0 0 0 - - -;
#X floatatom 603 -1312 5 0 0 0 - - -;
#X floatatom 658 -1313 5 0 0 0 - - -;
#X floatatom 695 -1312 5 0 0 0 - - -;
#X floatatom 756 -1313 5 0 0 0 - - -;
#X floatatom 793 -1312 5 0 0 0 - - -;
#X connect 0 0 3 0;
#X connect 1 0 0 0;
#X connect 1 0 9 0;
#X connect 1 0 11 0;
#X connect 1 0 13 0;
#X connect 1 0 15 0;
#X connect 1 0 17 0;
#X connect 1 0 28 0;
#X connect 1 0 30 0;
#X connect 1 0 32 0;
#X connect 1 0 34 0;
#X connect 2 0 8 0;
#X connect 2 0 5 0;
#X connect 3 0 7 0;
#X connect 4 0 3 1;
#X connect 5 0 6 0;
#X connect 6 0 1 0;
#X connect 7 0 36 0;
#X connect 8 0 0 0;
#X connect 8 1 4 0;
#X connect 8 2 9 0;
#X connect 8 3 10 0;
#X connect 8 4 11 0;
#X connect 8 5 12 0;
#X connect 8 6 13 0;
#X connect 8 7 14 0;
#X connect 8 8 15 0;
#X connect 8 9 16 0;
#X connect 8 10 17 0;
#X connect 8 11 18 0;
#X connect 8 12 28 0;
#X connect 8 13 29 0;
#X connect 8 14 30 0;
#X connect 8 15 31 0;
#X connect 8 16 32 0;
#X connect 8 17 33 0;
#X connect 8 18 34 0;
#X connect 8 19 35 0;
#X connect 9 0 19 0;
#X connect 10 0 19 1;
#X connect 11 0 20 0;
#X connect 12 0 20 1;
#X connect 13 0 21 0;
#X connect 14 0 21 1;
#X connect 15 0 22 0;
#X connect 16 0 22 1;
#X connect 17 0 23 0;
#X connect 18 0 23 1;
#X connect 19 0 7 1;
#X connect 20 0 36 1;
#X connect 21 0 37 1;
#X connect 22 0 38 1;
#X connect 23 0 39 1;
#X connect 24 0 40 1;
#X connect 25 0 41 1;
#X connect 26 0 42 1;
#X connect 27 0 43 1;
#X connect 28 0 24 0;
#X connect 29 0 24 1;
#X connect 30 0 25 0;
#X connect 31 0 25 1;
#X connect 32 0 26 0;
#X connect 33 0 26 1;
#X connect 34 0 27 0;
#X connect 35 0 27 1;
#X connect 36 0 37 0;
#X connect 37 0 38 0;
#X connect 38 0 39 0;
#X connect 39 0 40 0;
#X connect 40 0 41 0;
#X connect 41 0 42 0;
#X connect 42 0 43 0;
#X connect 43 0 44 0;
#X connect 43 0 44 1;
#X restore 195 175 pd chord_synthesis;
#X obj 195 155 r chord;
#X connect 0 0 7 0;
#X connect 1 0 7 1;
#X connect 2 0 0 0;
#X connect 5 0 6 0;
#X connect 10 0 8 0;
#X connect 13 0 17 0;
#X connect 13 0 15 0;
#X connect 14 0 17 1;
#X connect 14 0 16 0;
#X connect 19 0 18 0;
