#N canvas 247 171 508 281 10;
#X obj 23 45 bng 100 250 50 0 empty empty empty 0 -6 0 8 #14e814 #000000
#000000;
#X obj 123 105 bng 40 250 50 0 empty empty empty 0 -6 0 8 #fc2828 #000000
#000000;
#X obj 22 28 loadbang;
#X text 16 8 UDP connection;
#N canvas 255 424 853 397 UDPinOut 0;
#X msg 147 52 disconnect;
#X text 11 -4 OPEN UDP CONNECTION;
#X text 153 -4 CLOSE UDP CONNECTION;
#X obj 122 160 r message;
#X obj 69 12 inlet;
#X obj 147 14 inlet;
#X floatatom 69 245 5 0 0 0 - - - 0;
#X obj 186 29 r disconnect;
#X obj 78 106 r connect;
#X obj 122 189 spigot;
#X text 155 113 Porphyrograph;
#X obj 69 223 netsend 1;
#X text 314 -1 OSC message processing;
#X obj 199 197 print receive;
#X text 476 0 from Porphyrograph;
#X obj 150 244 print send;
#X obj 317 64 s connect;
#X obj 317 20 netreceive 1980 1;
#X obj 317 42 route /connect;
#X msg 69 134 connect 192.168.0.100 1978;
#X connect 0 0 11 0;
#X connect 3 0 9 0;
#X connect 3 0 15 0;
#X connect 4 0 19 0;
#X connect 5 0 0 0;
#X connect 7 0 0 0;
#X connect 8 0 19 0;
#X connect 9 0 11 0;
#X connect 11 0 6 0;
#X connect 11 0 9 1;
#X connect 17 0 13 0;
#X connect 17 0 18 0;
#X connect 18 0 16 0;
#X connect 19 0 11 0;
#X coords 0 0 10 10 0 0 0;
#X restore 23 145 pd UDPinOut;
#X obj 88 186 cnv 15 50 35 empty MIDI_channel 50 0 18 1 36 #e0c4fc
#202020 0;
#X obj 176 185 cnv 15 100 35 empty MIDI_controller 0 0 18 1 36 #fcfcc4
#202020 0;
#X obj 303 185 cnv 15 150 35 empty MIDI_value 0 0 18 1 36 #fcc4c4 #202020
0;
#X obj 25 185 cnv 15 50 35 empty MIDI_port 9 0 18 1 36 #c4fcfc #202020
0;
#X text 158 153 MIDI;
#X text 314 167 VALUE;
#X text 183 167 CONTROLLER;
#X text 85 167 CHANNEL;
#X text 29 167 PORT;
#X floatatom 375 127 0 0 0 0 - - - 0;
#X floatatom 356 150 0 0 0 0 - - - 0;
#X floatatom 395 102 0 0 0 0 - - - 0;
#X text 405 128 velocity;
#X text 424 104 channel;
#X text 406 75 (omni);
#X text 386 150 note;
#N canvas 692 189 748 689 routeMIDI_CC_toOSC 0;
#X obj 129 462 s message;
#X obj 124 41 inlet;
#X text 70 17 port/channel/control/val;
#X text 134 86 PORT;
#X text 133 119 CHANNEL;
#X obj 171 39 inlet;
#X obj 218 41 inlet;
#N canvas 0 50 714 300 displayValues 0;
#X obj 124 41 inlet;
#X text 70 17 port/channel/control/val;
#X obj 171 39 inlet;
#X obj 218 41 inlet;
#X obj 269 41 inlet;
#X msg 299 108 \; MIDI_controller label \$1;
#X obj 299 91 makefilename %d;
#X obj 486 87 makefilename %d;
#X obj 10 91 makefilename %d;
#X msg 10 108 \; MIDI_port label \$1;
#X obj 154 91 makefilename %d;
#X msg 154 108 \; MIDI_channel label \$1;
#X msg 486 104 \; MIDI_value label \$1;
#X connect 0 0 8 0;
#X connect 2 0 10 0;
#X connect 3 0 6 0;
#X connect 4 0 7 0;
#X connect 6 0 5 0;
#X connect 7 0 12 0;
#X connect 8 0 9 0;
#X connect 10 0 11 0;
#X restore 301 76 pd displayValues;
#X obj 243 125 send message;
#X text 170 154 CONTROLLER;
#X text 167 184 VALUE;
#X obj 163 200 route 75 76, f 13;
#X obj 124 133 route 1 5 9;
#X msg 106 237 send /MIDI_PAD \$1;
#X msg 210 258 send /MIDI_JOYSTICK \$1;
#X text 39 173 CONTROLLER;
#X text 36 203 VALUE;
#X msg 38 336 send /MIDI_PIEZZOS \$1;
#X obj 34 187 route 50 51;
#X msg 257 305 send /MIDI_PRESSION \$1;
#X obj 165 168 route 38 32 33 49 50 51 36 39;
#X text 373 184 CONTROLLER;
#X text 370 214 VALUE;
#X obj 368 198 route 12 13;
#X obj 124 70 pack f f f;
#X msg 239 99 send /MIDI_CC \$1 \$2 \$3;
#X connect 1 0 7 0;
#X connect 1 0 24 0;
#X connect 5 0 7 1;
#X connect 5 0 24 1;
#X connect 6 0 7 2;
#X connect 6 0 24 2;
#X connect 12 0 23 0;
#X connect 12 1 18 0;
#X connect 12 2 20 0;
#X connect 13 0 0 0;
#X connect 14 0 0 0;
#X connect 17 0 0 0;
#X connect 18 0 17 0;
#X connect 18 1 17 0;
#X connect 19 0 0 0;
#X connect 20 0 11 0;
#X connect 20 1 13 0;
#X connect 20 2 13 0;
#X connect 20 3 17 0;
#X connect 20 4 17 0;
#X connect 20 5 17 0;
#X connect 20 6 17 0;
#X connect 20 7 19 0;
#X connect 23 0 14 0;
#X connect 23 1 14 0;
#X connect 24 0 25 0;
#X connect 24 0 12 0;
#X connect 25 0 8 0;
#X restore 181 93 pd routeMIDI_CC_toOSC;
#X obj 211 35 ctlin;
#X connect 0 0 4 0;
#X connect 1 0 4 1;
#X connect 2 0 0 0;
#X connect 22 0 21 2;
#X connect 22 0 15 0;
#X connect 22 1 14 0;
#X connect 22 1 21 1;
#X connect 22 2 16 0;
#X connect 22 2 21 0;
