#N canvas 0 0 1359 1028 12;
#X obj 281 705 readsf~ 2;
#X msg 281 665 1;
#X obj 281 629 bng 15 250 50 0 empty empty empty 17 7 0 10 -262144
-1 -1;
#X obj 281 648 delay 500;
#X obj 280 742 *~ 1;
#X obj 316 13 bng 60 250 50 0 empty empty REPLAY 17 7 1 12 -4034 -1
-1;
#X text 220 56 comment;
#X obj 1118 345 vsl 15 128 0 127 0 0 empty empty empty 0 -9 0 10 -262144
-1 -1 0 1;
#X floatatom 1118 509 5 0 0 0 - - -;
#X obj 1118 483 / 127;
#X obj 965 13 bng 60 250 50 0 empty empty STOP 17 7 1 12 -258113 -1
-1;
#X msg 320 673 0;
#X obj 509 913 dac~ 1 2 3 4 5 6 7 8 9 10;
#X obj 1118 319 * 127;
#X msg 1118 294 0.8;
#X text 173 14 comment;
#X obj 353 705 readsf~ 2;
#X msg 353 665 1;
#X obj 353 629 bng 15 250 50 0 empty empty empty 17 7 0 10 -262144
-1 -1;
#X obj 353 648 delay 500;
#X obj 352 742 *~ 1;
#X obj 1190 345 vsl 15 128 0 127 0 0 empty empty empty 0 -9 0 10 -262144
-1 -1 0 1;
#X floatatom 1190 509 5 0 0 0 - - -;
#X obj 1190 483 / 127;
#X msg 392 673 0;
#X obj 1190 319 * 127;
#X msg 1190 294 0.8;
#X obj 431 706 readsf~ 2;
#X msg 431 666 1;
#X obj 431 630 bng 15 250 50 0 empty empty empty 17 7 0 10 -262144
-1 -1;
#X obj 431 649 delay 500;
#X obj 430 743 *~ 1;
#X obj 1268 346 vsl 15 128 0 127 0 0 empty empty empty 0 -9 0 10 -262144
-1 -1 0 1;
#X floatatom 1268 510 5 0 0 0 - - -;
#X obj 1268 484 / 127;
#X msg 470 674 0;
#X obj 1268 320 * 127;
#X msg 1268 295 0.8;
#X obj 516 707 readsf~ 2;
#X msg 516 667 1;
#X obj 516 631 bng 15 250 50 0 empty empty empty 17 7 0 10 -262144
-1 -1;
#X obj 516 650 delay 500;
#X obj 515 744 *~ 1;
#X obj 1353 347 vsl 15 128 0 127 0 0 empty empty empty 0 -9 0 10 -262144
-1 -1 0 1;
#X floatatom 1353 511 5 0 0 0 - - -;
#X obj 1353 485 / 127;
#X msg 555 675 0;
#X obj 1353 321 * 127;
#X msg 1353 296 0.8;
#X msg 596 668 1;
#X obj 596 632 bng 15 250 50 0 empty empty empty 17 7 0 10 -262144
-1 -1;
#X obj 596 651 delay 500;
#X obj 595 745 *~ 1;
#X obj 1433 348 vsl 15 128 0 127 0 0 empty empty empty 0 -9 0 10 -262144
-1 -1 0 1;
#X floatatom 1433 512 5 0 0 0 - - -;
#X obj 1433 486 / 127;
#X msg 635 676 0;
#X obj 1433 322 * 127;
#X msg 1433 297 0.8;
#X msg 673 671 1;
#X obj 673 635 bng 15 250 50 0 empty empty empty 17 7 0 10 -262144
-1 -1;
#X obj 673 654 delay 500;
#X obj 672 748 *~ 1;
#X obj 1510 351 vsl 15 128 0 127 0 0 empty empty empty 0 -9 0 10 -262144
-1 -1 0 1;
#X floatatom 1510 515 5 0 0 0 - - -;
#X obj 1510 489 / 127;
#X msg 712 679 0;
#X obj 1510 325 * 127;
#X msg 1510 300 0.8;
#X msg 756 667 1;
#X obj 756 631 bng 15 250 50 0 empty empty empty 17 7 0 10 -262144
-1 -1;
#X obj 756 650 delay 500;
#X obj 755 744 *~ 1;
#X obj 1593 347 vsl 15 128 0 127 0 0 empty empty empty 0 -9 0 10 -262144
-1 -1 0 1;
#X floatatom 1593 511 5 0 0 0 - - -;
#X obj 1593 485 / 127;
#X msg 795 675 0;
#X obj 1593 321 * 127;
#X msg 1593 296 0.8;
#X msg 840 670 1;
#X obj 840 634 bng 15 250 50 0 empty empty empty 17 7 0 10 -262144
-1 -1;
#X obj 840 653 delay 500;
#X obj 839 747 *~ 1;
#X obj 1677 350 vsl 15 128 0 127 0 0 empty empty empty 0 -9 0 10 -262144
-1 -1 0 1;
#X floatatom 1677 514 5 0 0 0 - - -;
#X obj 1677 488 / 127;
#X msg 879 678 0;
#X obj 1677 324 * 127;
#X msg 1677 299 0.8;
#X obj 199 706 readsf~ 2;
#X msg 199 666 1;
#X obj 199 630 bng 15 250 50 0 empty empty empty 17 7 0 10 -262144
-1 -1;
#X obj 199 649 delay 500;
#X obj 198 743 *~ 1;
#X obj 1069 350 vsl 15 128 0 127 0 0 empty empty empty 0 -9 0 10 -262144
-1 -1 0 1;
#X floatatom 1070 512 5 0 0 0 - - -;
#X obj 1069 488 / 127;
#X msg 166 490 open C:/Data/lavoirs/piste1-2.wav;
#X msg 238 674 0;
#X obj 1069 324 * 127;
#X msg 1069 299 0.8;
#X msg 186 518 open C:/Data/lavoirs/piste3-4.wav;
#X msg 250 547 open C:/Data/lavoirs/piste5-6.wav;
#X msg 398 490 open C:/Data/lavoirs/piste7-8.wav;
#X msg 442 516 open C:/Data/lavoirs/piste9-10.wav;
#X msg 504 548 open C:/Data/lavoirs/piste1mono.wav;
#X msg 646 488 open C:/Data/lavoirs/piste2mono.wav;
#X msg 692 518 open C:/Data/lavoirs/piste3mono.wav;
#X msg 749 547 open C:/Data/lavoirs/piste4mono.wav;
#X obj 839 712 readsf~ 1;
#X obj 756 707 readsf~ 1;
#X obj 673 711 readsf~ 1;
#X obj 596 708 readsf~ 1;
#X connect 0 0 4 0;
#X connect 1 0 0 0;
#X connect 2 0 3 0;
#X connect 3 0 1 0;
#X connect 4 0 12 2;
#X connect 4 0 12 3;
#X connect 5 0 2 0;
#X connect 5 0 101 0;
#X connect 5 0 14 0;
#X connect 5 0 97 0;
#X connect 5 0 102 0;
#X connect 5 0 103 0;
#X connect 5 0 104 0;
#X connect 5 0 105 0;
#X connect 5 0 106 0;
#X connect 5 0 107 0;
#X connect 5 0 108 0;
#X connect 5 0 100 0;
#X connect 5 0 26 0;
#X connect 5 0 37 0;
#X connect 5 0 48 0;
#X connect 5 0 58 0;
#X connect 5 0 68 0;
#X connect 5 0 78 0;
#X connect 5 0 88 0;
#X connect 7 0 9 0;
#X connect 9 0 8 0;
#X connect 9 0 4 1;
#X connect 10 0 11 0;
#X connect 10 0 98 0;
#X connect 10 0 24 0;
#X connect 10 0 35 0;
#X connect 10 0 46 0;
#X connect 10 0 56 0;
#X connect 10 0 66 0;
#X connect 10 0 76 0;
#X connect 10 0 80 0;
#X connect 11 0 0 0;
#X connect 13 0 7 0;
#X connect 14 0 13 0;
#X connect 16 0 20 0;
#X connect 17 0 16 0;
#X connect 18 0 19 0;
#X connect 19 0 17 0;
#X connect 20 0 12 4;
#X connect 20 0 12 5;
#X connect 21 0 23 0;
#X connect 23 0 22 0;
#X connect 23 0 20 1;
#X connect 24 0 16 0;
#X connect 25 0 21 0;
#X connect 26 0 25 0;
#X connect 27 0 31 0;
#X connect 28 0 27 0;
#X connect 29 0 30 0;
#X connect 30 0 28 0;
#X connect 31 0 12 6;
#X connect 31 0 12 7;
#X connect 32 0 34 0;
#X connect 34 0 33 0;
#X connect 34 0 31 1;
#X connect 35 0 27 0;
#X connect 36 0 32 0;
#X connect 37 0 36 0;
#X connect 38 0 42 0;
#X connect 39 0 38 0;
#X connect 40 0 41 0;
#X connect 41 0 39 0;
#X connect 42 0 12 8;
#X connect 42 0 12 9;
#X connect 43 0 45 0;
#X connect 45 0 44 0;
#X connect 45 0 42 1;
#X connect 46 0 38 0;
#X connect 47 0 43 0;
#X connect 48 0 47 0;
#X connect 49 0 112 0;
#X connect 50 0 51 0;
#X connect 51 0 49 0;
#X connect 52 0 12 0;
#X connect 53 0 55 0;
#X connect 55 0 54 0;
#X connect 55 0 52 1;
#X connect 56 0 112 0;
#X connect 57 0 53 0;
#X connect 58 0 57 0;
#X connect 59 0 111 0;
#X connect 60 0 61 0;
#X connect 61 0 59 0;
#X connect 62 0 12 1;
#X connect 63 0 65 0;
#X connect 65 0 64 0;
#X connect 65 0 62 1;
#X connect 66 0 111 0;
#X connect 67 0 63 0;
#X connect 68 0 67 0;
#X connect 69 0 110 0;
#X connect 70 0 71 0;
#X connect 71 0 69 0;
#X connect 72 0 12 2;
#X connect 73 0 75 0;
#X connect 75 0 74 0;
#X connect 75 0 72 1;
#X connect 76 0 110 0;
#X connect 77 0 73 0;
#X connect 78 0 77 0;
#X connect 79 0 109 0;
#X connect 80 0 81 0;
#X connect 81 0 79 0;
#X connect 82 0 12 3;
#X connect 83 0 85 0;
#X connect 85 0 84 0;
#X connect 85 0 82 1;
#X connect 86 0 109 0;
#X connect 87 0 83 0;
#X connect 88 0 87 0;
#X connect 89 0 93 0;
#X connect 90 0 89 0;
#X connect 91 0 92 0;
#X connect 92 0 90 0;
#X connect 93 0 12 0;
#X connect 93 0 12 1;
#X connect 94 0 96 0;
#X connect 96 0 95 0;
#X connect 96 0 93 1;
#X connect 97 0 89 0;
#X connect 98 0 89 0;
#X connect 99 0 94 0;
#X connect 100 0 99 0;
#X connect 101 0 0 0;
#X connect 102 0 16 0;
#X connect 103 0 27 0;
#X connect 104 0 38 0;
#X connect 105 0 112 0;
#X connect 106 0 111 0;
#X connect 107 0 110 0;
#X connect 108 0 109 0;
#X connect 109 0 82 0;
#X connect 110 0 72 0;
#X connect 111 0 62 0;
#X connect 112 0 52 0;
