#N canvas 0 333 409 383 10;
#X obj 23 45 bng 100 250 50 0 empty empty empty 0 -6 0 8 -24198 -1
-1;
#X obj 123 105 bng 40 250 50 0 empty empty empty 0 -6 0 8 -258699 -1
-1;
#X obj 22 28 loadbang;
#X text 16 12 UDP connection;
#X text 124 14 AUDIO ON;
#X obj 123 30 loadbang;
#X msg 123 46 \; pd dsp 1;
#N canvas 465 343 853 397 UDPinOut 0;
#X msg 147 52 disconnect;
#X text 11 -4 OPEN UDP CONNECTION;
#X text 153 -4 CLOSE UDP CONNECTION;
#X obj 122 160 r message;
#X obj 69 12 inlet;
#X obj 147 14 inlet;
#X floatatom 69 245 5 0 0 0 - - -;
#X obj 186 29 r disconnect;
#X obj 78 106 r connect;
#X obj 122 189 spigot;
#X text 155 113 Porphyrograph;
#X obj 69 223 netsend 1;
#X text 314 -1 OSC message processing;
#X obj 199 197 print receive;
#X text 476 0 from Porphyrograph;
#X obj 150 244 print send;
#X obj 317 118 s connect;
#X obj 666 224 s soundtrack_fileName;
#X obj 663 196 s soundtrack_onOff;
#X obj 318 202 s beat_threshold;
#X obj 314 288 s sound_env_min;
#X obj 661 119 s sound_env_max;
#X obj 669 316 s message;
#X msg 669 299 send /PD_connected;
#X obj 313 311 makefilename %.1f;
#X msg 313 328 \; sound_env_min_can label \$1;
#X obj 662 139 makefilename %.1f;
#X msg 662 156 \; sound_env_max_can label \$1;
#X obj 671 341 s reset_sound;
#X msg 319 241 \; beat_threshold_can label \$1;
#X obj 319 224 makefilename %.2f;
#X obj 319 170 s beat_delay;
#X obj 318 144 s auto_beat;
#X msg 69 134 connect 127.0.0.1 1978;
#X obj 317 20 netreceive 1980 1;
#X obj 665 275 s soundtrack_weight;
#X obj 317 42 route /connect /auto_beat /beat_delay /beat_threshold
/sound_env_min /sound_env_max /soundtrack_onOff /soundtrack_fileName
/audioInput_weight /soundtrack_weight /PD_connected /reset_sound;
#X obj 665 252 s audioInput_weight;
#X connect 0 0 11 0;
#X connect 3 0 9 0;
#X connect 4 0 33 0;
#X connect 5 0 0 0;
#X connect 7 0 0 0;
#X connect 8 0 33 0;
#X connect 9 0 11 0;
#X connect 11 0 6 0;
#X connect 11 0 9 1;
#X connect 23 0 22 0;
#X connect 24 0 25 0;
#X connect 26 0 27 0;
#X connect 30 0 29 0;
#X connect 33 0 11 0;
#X connect 34 0 36 0;
#X connect 36 0 16 0;
#X connect 36 1 32 0;
#X connect 36 2 31 0;
#X connect 36 3 19 0;
#X connect 36 3 30 0;
#X connect 36 4 20 0;
#X connect 36 4 24 0;
#X connect 36 5 21 0;
#X connect 36 5 26 0;
#X connect 36 6 18 0;
#X connect 36 7 17 0;
#X connect 36 7 13 0;
#X connect 36 8 37 0;
#X connect 36 9 35 0;
#X connect 36 10 23 0;
#X connect 36 11 28 0;
#X coords 0 0 10 10 0 0 0;
#X restore 23 145 pd UDPinOut;
#N canvas -8 -8 1920 1037 play_soundtrack 1;
#X obj 281 705 readsf~ 2;
#X msg 281 665 1;
#X obj 281 629 bng 15 250 50 0 empty empty empty 17 7 0 10 -262144
-1 -1;
#X obj 281 648 delay 500;
#X obj 280 742 *~ 1;
#X obj 316 13 bng 60 250 50 0 empty empty REPLAY 17 7 1 12 -4034 -1
-1;
#X text 220 56;
#X obj 1118 345 vsl 15 128 0 127 0 0 empty empty empty 0 -9 0 10 -262144
-1 -1 10160 1;
#X floatatom 1118 509 5 0 0 0 - - -;
#X obj 1118 483 / 127;
#X obj 965 13 bng 60 250 50 0 empty empty STOP 17 7 1 12 -258113 -1
-1;
#X msg 320 673 0;
#X obj 509 913 dac~ 1 2 3 4 5 6 7 8 9 10;
#X obj 1118 319 * 127;
#X msg 1118 294 0.8;
#X text 173 14;
#X obj 353 705 readsf~ 2;
#X msg 353 665 1;
#X obj 353 629 bng 15 250 50 0 empty empty empty 17 7 0 10 -262144
-1 -1;
#X obj 353 648 delay 500;
#X obj 352 742 *~ 1;
#X obj 1190 345 vsl 15 128 0 127 0 0 empty empty empty 0 -9 0 10 -262144
-1 -1 10160 1;
#X floatatom 1190 509 5 0 0 0 - - -;
#X obj 1190 483 / 127;
#X msg 392 673 0;
#X obj 1190 319 * 127;
#X msg 1190 294 0.8;
#X obj 431 706 readsf~ 2;
#X msg 431 666 1;
#X obj 431 630 bng 15 250 50 0 empty empty empty 17 7 0 10 -262144
-1 -1;
#X obj 431 649 delay 500;
#X obj 430 743 *~ 1;
#X obj 1268 346 vsl 15 128 0 127 0 0 empty empty empty 0 -9 0 10 -262144
-1 -1 10160 1;
#X floatatom 1268 510 5 0 0 0 - - -;
#X obj 1268 484 / 127;
#X msg 470 674 0;
#X obj 1268 320 * 127;
#X msg 1268 295 0.8;
#X obj 516 707 readsf~ 2;
#X msg 516 667 1;
#X obj 516 631 bng 15 250 50 0 empty empty empty 17 7 0 10 -262144
-1 -1;
#X obj 516 650 delay 500;
#X obj 515 744 *~ 1;
#X obj 1353 347 vsl 15 128 0 127 0 0 empty empty empty 0 -9 0 10 -262144
-1 -1 10160 1;
#X floatatom 1353 511 5 0 0 0 - - -;
#X obj 1353 485 / 127;
#X msg 555 675 0;
#X obj 1353 321 * 127;
#X msg 1353 296 0.8;
#X msg 596 668 1;
#X obj 596 632 bng 15 250 50 0 empty empty empty 17 7 0 10 -262144
-1 -1;
#X obj 596 651 delay 500;
#X obj 595 745 *~ 1;
#X obj 1433 348 vsl 15 128 0 127 0 0 empty empty empty 0 -9 0 10 -262144
-1 -1 10160 1;
#X floatatom 1433 512 5 0 0 0 - - -;
#X obj 1433 486 / 127;
#X msg 635 676 0;
#X obj 1433 322 * 127;
#X msg 1433 297 0.8;
#X msg 673 671 1;
#X obj 673 635 bng 15 250 50 0 empty empty empty 17 7 0 10 -262144
-1 -1;
#X obj 673 654 delay 500;
#X obj 672 748 *~ 1;
#X obj 1510 351 vsl 15 128 0 127 0 0 empty empty empty 0 -9 0 10 -262144
-1 -1 10160 1;
#X floatatom 1510 515 5 0 0 0 - - -;
#X obj 1510 489 / 127;
#X msg 712 679 0;
#X obj 1510 325 * 127;
#X msg 1510 300 0.8;
#X msg 756 667 1;
#X obj 756 631 bng 15 250 50 0 empty empty empty 17 7 0 10 -262144
-1 -1;
#X obj 756 650 delay 500;
#X obj 755 744 *~ 1;
#X obj 1593 347 vsl 15 128 0 127 0 0 empty empty empty 0 -9 0 10 -262144
-1 -1 10160 1;
#X floatatom 1593 511 5 0 0 0 - - -;
#X obj 1593 485 / 127;
#X msg 795 675 0;
#X obj 1593 321 * 127;
#X msg 1593 296 0.8;
#X msg 840 670 1;
#X obj 840 634 bng 15 250 50 0 empty empty empty 17 7 0 10 -262144
-1 -1;
#X obj 840 653 delay 500;
#X obj 839 747 *~ 1;
#X obj 1677 350 vsl 15 128 0 127 0 0 empty empty empty 0 -9 0 10 -262144
-1 -1 10160 1;
#X floatatom 1677 514 5 0 0 0 - - -;
#X obj 1677 488 / 127;
#X msg 879 678 0;
#X obj 1677 324 * 127;
#X msg 1677 299 0.8;
#X obj 199 706 readsf~ 2;
#X msg 199 666 1;
#X obj 199 630 bng 15 250 50 0 empty empty empty 17 7 0 10 -262144
-1 -1;
#X obj 199 649 delay 500;
#X obj 198 743 *~ 1;
#X obj 1069 350 vsl 15 128 0 127 0 0 empty empty empty 0 -9 0 10 -262144
-1 -1 10160 1;
#X floatatom 1070 512 5 0 0 0 - - -;
#X obj 1069 488 / 127;
#X msg 166 490 open C:/Data/lavoirs/piste1-2.wav;
#X msg 238 674 0;
#X obj 1069 324 * 127;
#X msg 1069 299 0.8;
#X msg 186 518 open C:/Data/lavoirs/piste3-4.wav;
#X msg 250 547 open C:/Data/lavoirs/piste5-6.wav;
#X msg 398 490 open C:/Data/lavoirs/piste7-8.wav;
#X msg 442 516 open C:/Data/lavoirs/piste9-10.wav;
#X msg 504 548 open C:/Data/lavoirs/piste1mono.wav;
#X msg 646 488 open C:/Data/lavoirs/piste2mono.wav;
#X msg 692 518 open C:/Data/lavoirs/piste3mono.wav;
#X msg 749 547 open C:/Data/lavoirs/piste4mono.wav;
#X obj 839 712 readsf~ 1;
#X obj 756 707 readsf~ 1;
#X obj 673 711 readsf~ 1;
#X obj 596 708 readsf~ 1;
#X connect 0 0 4 0;
#X connect 1 0 0 0;
#X connect 2 0 3 0;
#X connect 3 0 1 0;
#X connect 4 0 12 2;
#X connect 4 0 12 3;
#X connect 5 0 2 0;
#X connect 5 0 101 0;
#X connect 5 0 14 0;
#X connect 5 0 97 0;
#X connect 5 0 102 0;
#X connect 5 0 103 0;
#X connect 5 0 104 0;
#X connect 5 0 105 0;
#X connect 5 0 106 0;
#X connect 5 0 107 0;
#X connect 5 0 108 0;
#X connect 5 0 100 0;
#X connect 5 0 26 0;
#X connect 5 0 37 0;
#X connect 5 0 48 0;
#X connect 5 0 58 0;
#X connect 5 0 68 0;
#X connect 5 0 78 0;
#X connect 5 0 88 0;
#X connect 7 0 9 0;
#X connect 9 0 8 0;
#X connect 9 0 4 1;
#X connect 10 0 11 0;
#X connect 10 0 98 0;
#X connect 10 0 24 0;
#X connect 10 0 35 0;
#X connect 10 0 46 0;
#X connect 10 0 56 0;
#X connect 10 0 66 0;
#X connect 10 0 76 0;
#X connect 10 0 80 0;
#X connect 11 0 0 0;
#X connect 13 0 7 0;
#X connect 14 0 13 0;
#X connect 16 0 20 0;
#X connect 17 0 16 0;
#X connect 18 0 19 0;
#X connect 19 0 17 0;
#X connect 20 0 12 4;
#X connect 20 0 12 5;
#X connect 21 0 23 0;
#X connect 23 0 22 0;
#X connect 23 0 20 1;
#X connect 24 0 16 0;
#X connect 25 0 21 0;
#X connect 26 0 25 0;
#X connect 27 0 31 0;
#X connect 28 0 27 0;
#X connect 29 0 30 0;
#X connect 30 0 28 0;
#X connect 31 0 12 6;
#X connect 31 0 12 7;
#X connect 32 0 34 0;
#X connect 34 0 33 0;
#X connect 34 0 31 1;
#X connect 35 0 27 0;
#X connect 36 0 32 0;
#X connect 37 0 36 0;
#X connect 38 0 42 0;
#X connect 39 0 38 0;
#X connect 40 0 41 0;
#X connect 41 0 39 0;
#X connect 42 0 12 8;
#X connect 42 0 12 9;
#X connect 43 0 45 0;
#X connect 45 0 44 0;
#X connect 45 0 42 1;
#X connect 46 0 38 0;
#X connect 47 0 43 0;
#X connect 48 0 47 0;
#X connect 49 0 112 0;
#X connect 50 0 51 0;
#X connect 51 0 49 0;
#X connect 52 0 12 0;
#X connect 53 0 55 0;
#X connect 55 0 54 0;
#X connect 55 0 52 1;
#X connect 56 0 112 0;
#X connect 57 0 53 0;
#X connect 58 0 57 0;
#X connect 59 0 111 0;
#X connect 60 0 61 0;
#X connect 61 0 59 0;
#X connect 62 0 12 1;
#X connect 63 0 65 0;
#X connect 65 0 64 0;
#X connect 65 0 62 1;
#X connect 66 0 111 0;
#X connect 67 0 63 0;
#X connect 68 0 67 0;
#X connect 69 0 110 0;
#X connect 70 0 71 0;
#X connect 71 0 69 0;
#X connect 72 0 12 2;
#X connect 73 0 75 0;
#X connect 75 0 74 0;
#X connect 75 0 72 1;
#X connect 76 0 110 0;
#X connect 77 0 73 0;
#X connect 78 0 77 0;
#X connect 79 0 109 0;
#X connect 80 0 81 0;
#X connect 81 0 79 0;
#X connect 82 0 12 3;
#X connect 83 0 85 0;
#X connect 85 0 84 0;
#X connect 85 0 82 1;
#X connect 86 0 109 0;
#X connect 87 0 83 0;
#X connect 88 0 87 0;
#X connect 89 0 93 0;
#X connect 90 0 89 0;
#X connect 91 0 92 0;
#X connect 92 0 90 0;
#X connect 93 0 12 0;
#X connect 93 0 12 1;
#X connect 94 0 96 0;
#X connect 96 0 95 0;
#X connect 96 0 93 1;
#X connect 97 0 89 0;
#X connect 98 0 89 0;
#X connect 99 0 94 0;
#X connect 100 0 99 0;
#X connect 101 0 0 0;
#X connect 102 0 16 0;
#X connect 103 0 27 0;
#X connect 104 0 38 0;
#X connect 105 0 112 0;
#X connect 106 0 111 0;
#X connect 107 0 110 0;
#X connect 108 0 109 0;
#X connect 109 0 82 0;
#X connect 110 0 72 0;
#X connect 111 0 62 0;
#X connect 112 0 52 0;
#X restore 190 53 pd play_soundtrack;
#X text 203 79 MUSIC CONTROL;
#X text 189 35 SOUNDTRACKS;
#X obj 280 13 bng 40 250 50 0 empty empty empty 0 -6 0 8 -258699 -1
-1;
#X obj 205 100 bng 40 250 50 0 empty empty empty 0 -6 0 8 -4034 -1
-1;
#N canvas 205 147 1023 521 sound_analysis 0;
#X obj 435 166 bonk~;
#X text 671 161 ATTACK OUTPUT;
#X obj 678 183 unpack f f f;
#X obj 457 86 loadbang;
#X msg 542 126 minvel 0.1;
#X msg 457 125 thresh 6 50;
#X obj 233 19 adc~ 1 2;
#X obj 189 454 s message;
#X floatatom 111 332 5 0 0 0 - - -;
#X floatatom 245 335 5 0 0 0 - - -;
#X floatatom 380 336 5 0 0 0 - - -;
#N canvas 0 50 450 300 (subpatch) 0;
#X array enveloppe 200 float 0;
#X coords 0 100 199 0 100 70 1 0 0;
#X restore 790 70 graph;
#X obj 698 476 send message;
#X obj 378 167 s beat;
#X msg 698 459 send /beat \$1;
#X obj 718 302 spigot;
#X msg 737 339 0;
#X msg 783 389 1;
#X obj 689 371 f;
#X obj 720 371 + 1;
#X obj 689 388 mod 8;
#X obj 783 337 bng 15 250 50 0 empty empty empty 17 7 0 10 -262144
-1 -1;
#X obj 718 283 route 1;
#X obj 718 261 > 0.6;
#X obj 783 363 delay 100;
#X obj 644 272 f;
#X obj 675 273 + 1;
#X obj 644 250 r beat;
#X text 610 217 attack above which a beat is sent;
#X obj 758 236 r beat_threshold;
#X obj 843 342 r beat_delay;
#X obj 783 311 loadbang;
#X obj 65 300 moses 0;
#X obj 199 304 moses 0;
#X obj 334 305 moses 0;
#X obj 155 7 r~ channel1;
#X obj 156 28 r~ channel2;
#X floatatom 878 290 5 0 0 0 - - -;
#X floatatom 886 378 5 0 0 0 - - -;
#X obj 718 236 / 60;
#X obj 252 51 +~;
#X obj 156 58 +~;
#X obj 198 108 +~;
#X obj 253 81 *~ 1;
#X floatatom 319 57 5 0 0 0 - - -;
#X obj 199 129 *~ 0.5;
#N canvas 942 50 524 385 norm_env~ 0;
#X obj 58 103 -;
#X obj 58 149 /;
#X obj 94 128 -;
#X obj 57 186 outlet;
#X obj 57 50 env~;
#X obj 56 11 inlet~;
#X floatatom 127 177 5 0 0 0 - - -;
#X floatatom 168 150 5 0 0 0 - - -;
#X floatatom 254 89 5 0 0 0 - - -;
#X floatatom 150 235 5 0 0 0 - - -;
#X obj 76 81 r sound_env_min;
#X obj 123 105 r sound_env_max;
#X connect 0 0 1 0;
#X connect 1 0 3 0;
#X connect 1 0 9 0;
#X connect 2 0 1 1;
#X connect 4 0 0 0;
#X connect 4 0 8 0;
#X connect 5 0 4 0;
#X connect 10 0 0 1;
#X connect 10 0 2 1;
#X connect 10 0 6 0;
#X connect 11 0 2 0;
#X connect 11 0 7 0;
#X restore 65 278 pd norm_env~;
#N canvas 767 159 450 300 norm_env~ 0;
#X obj 56 123 -;
#X obj 56 169 /;
#X obj 92 148 -;
#X obj 55 206 outlet;
#X obj 55 70 env~;
#X obj 54 31 inlet~;
#X obj 74 101 r sound_env_min;
#X obj 121 125 r sound_env_max;
#X connect 0 0 1 0;
#X connect 1 0 3 0;
#X connect 2 0 1 1;
#X connect 4 0 0 0;
#X connect 5 0 4 0;
#X connect 6 0 0 1;
#X connect 6 0 2 1;
#X connect 7 0 2 0;
#X restore 199 278 pd norm_env~;
#N canvas 942 50 276 260 norm_env~ 0;
#X obj 37 129 -;
#X obj 37 175 /;
#X obj 73 154 -;
#X obj 36 212 outlet;
#X obj 35 37 inlet~;
#X obj 36 76 env~ 8192;
#X obj 55 107 r sound_env_min;
#X obj 102 131 r sound_env_max;
#X connect 0 0 1 0;
#X connect 1 0 3 0;
#X connect 2 0 1 1;
#X connect 4 0 5 0;
#X connect 5 0 0 0;
#X connect 6 0 0 1;
#X connect 6 0 2 1;
#X connect 7 0 2 0;
#X restore 334 277 pd norm_env~;
#X floatatom 810 285 5 0 0 0 - - -;
#X msg 65 317 0;
#X msg 199 321 0;
#X msg 313 322 0;
#X floatatom 587 309 5 0 0 0 - - -;
#X obj 555 331 tabwrite enveloppe;
#X obj 644 293 mod 200;
#X obj 555 274 env~ 8192;
#X obj 66 256 lop~ 100;
#X obj 200 256 bp~ 300 1;
#X obj 334 254 hip~ 1000;
#X floatatom 514 426 5 0 0 0 - - -;
#X msg 329 86 1;
#X obj 370 86 bng 15 250 50 0 empty empty empty 17 7 0 10 -262144 -1
-1;
#X obj 452 321 t b f;
#X obj 144 374 r beat;
#X obj 371 125 metro 20;
#X obj 189 405 pack 0 f f f f;
#X msg 189 430 send /pulse_spectrum \$2 \$3 \$4 \$5;
#X text 653 -7 reset;
#X obj 655 10 loadbang;
#X text 449 0 reset;
#X obj 451 17 inlet;
#N canvas 529 416 1188 627 min_max_4_info~ 0;
#X obj 54 87 env~;
#X obj 54 142 moses 0;
#X floatatom 129 169 5 0 0 0 - - -;
#X obj 124 143 f;
#X text 58 185 VAL;
#X text 135 199 MAX_VAL;
#X msg 124 118 0;
#X text 135 184 HIGHEST VALUE;
#X obj 54 47 inlet~;
#X floatatom 54 168 5 0 0 0 - - -;
#X text 153 -21 reset;
#X floatatom 76 332 5 0 0 0 - - -;
#X obj 151 268 f;
#X obj 54 246 * -1;
#X obj 54 268 moses -1000;
#X obj 128 293 * -1;
#X msg 150 247 -1000;
#X text 125 350 LOWEST VALUE;
#X text 127 366 MIN_VAL;
#X text 58 29 signal;
#X floatatom 96 86 5 0 0 0 - - -;
#X obj 257 87 env~;
#X obj 257 142 moses 0;
#X floatatom 330 169 5 0 0 0 - - -;
#X obj 327 143 f;
#X text 261 185 VAL;
#X text 336 199 MAX_VAL;
#X text 320 98 reset;
#X msg 327 118 0;
#X text 336 184 HIGHEST VALUE;
#X obj 257 47 inlet~;
#X floatatom 257 168 5 0 0 0 - - -;
#X text 356 -21 reset;
#X obj 354 268 f;
#X obj 257 246 * -1;
#X obj 257 268 moses -1000;
#X obj 331 293 * -1;
#X msg 353 247 -1000;
#X text 336 335 LOWEST VALUE;
#X text 338 351 MIN_VAL;
#X text 261 29 signal;
#X floatatom 293 90 5 0 0 0 - - -;
#X obj 458 87 env~;
#X obj 458 142 moses 0;
#X floatatom 532 169 5 0 0 0 - - -;
#X obj 528 143 f;
#X text 462 185 VAL;
#X text 538 199 MAX_VAL;
#X text 521 98 reset;
#X msg 528 118 0;
#X text 538 184 HIGHEST VALUE;
#X obj 458 47 inlet~;
#X floatatom 458 168 5 0 0 0 - - -;
#X text 557 -21 reset;
#X floatatom 474 318 5 0 0 0 - - -;
#X obj 555 268 f;
#X obj 458 246 * -1;
#X obj 458 268 moses -1000;
#X obj 532 293 * -1;
#X msg 554 247 -1000;
#X text 537 335 LOWEST VALUE;
#X text 539 351 MIN_VAL;
#X text 462 29 signal;
#X floatatom 498 86 5 0 0 0 - - -;
#X obj 661 87 env~;
#X obj 661 142 moses 0;
#X floatatom 733 169 5 0 0 0 - - -;
#X obj 731 143 f;
#X text 665 185 VAL;
#X text 739 199 MAX_VAL;
#X text 724 98 reset;
#X msg 731 118 0;
#X text 739 184 HIGHEST VALUE;
#X obj 661 47 inlet~;
#X floatatom 661 168 5 0 0 0 - - -;
#X text 760 -21 reset;
#X floatatom 677 318 5 0 0 0 - - -;
#X obj 758 268 f;
#X obj 661 246 * -1;
#X obj 661 268 moses -1000;
#X obj 735 293 * -1;
#X msg 757 247 -1000;
#X text 740 335 LOWEST VALUE;
#X text 742 351 MIN_VAL;
#X text 665 29 signal;
#X floatatom 703 89 5 0 0 0 - - -;
#X obj 195 407 min;
#X obj 212 435 min;
#X obj 231 462 min;
#X obj 128 331 f;
#X obj 331 314 t b f;
#X floatatom 279 335 5 0 0 0 - - -;
#X obj 532 315 t b f;
#X obj 736 315 t b f;
#X floatatom 230 487 5 0 0 0 - - -;
#X obj 407 398 f;
#X obj 610 381 t b f;
#X obj 811 382 t b f;
#X obj 1015 382 t b f;
#X floatatom 510 553 5 0 0 0 - - -;
#X obj 474 474 max;
#X obj 491 502 max;
#X text 406 433 MAX_VAL;
#X text 617 418 MAX_VAL;
#X text 818 418 MAX_VAL;
#X text 1021 418 MAX_VAL;
#X text 404 417 HIGHEST VALUE;
#X text 615 402 HIGHEST VALUE;
#X text 816 402 HIGHEST VALUE;
#X text 1019 402 HIGHEST VALUE;
#X obj 54 114 moses 20;
#X obj 256 113 moses 20;
#X obj 457 114 moses 20;
#X obj 662 116 moses 20;
#X obj 54 114 moses 20;
#X obj 273 364 moses 20;
#X obj 275 412 moses 20;
#X obj 295 439 moses 20;
#X obj 510 529 max;
#X obj 141 512 makefilename %.1f;
#X obj 625 527 makefilename %.1f;
#X msg 141 529 \; autom_env_min_can label \$1;
#X msg 625 544 \; autom_env_max_can label \$1;
#X obj 554 -1 r reset_sound;
#X obj 757 -1 r reset_sound;
#X obj 353 -1 r reset_sound;
#X obj 150 -1 r reset_sound;
#X connect 0 0 20 0;
#X connect 0 0 110 0;
#X connect 1 0 9 0;
#X connect 1 0 13 0;
#X connect 1 1 2 0;
#X connect 1 1 3 0;
#X connect 1 1 95 0;
#X connect 3 0 1 1;
#X connect 6 0 3 0;
#X connect 8 0 0 0;
#X connect 12 0 14 1;
#X connect 13 0 14 0;
#X connect 14 1 12 0;
#X connect 14 1 15 0;
#X connect 15 0 11 0;
#X connect 15 0 89 0;
#X connect 16 0 12 0;
#X connect 21 0 41 0;
#X connect 21 0 111 0;
#X connect 22 0 31 0;
#X connect 22 0 34 0;
#X connect 22 1 23 0;
#X connect 22 1 24 0;
#X connect 22 1 96 0;
#X connect 24 0 22 1;
#X connect 28 0 24 0;
#X connect 30 0 21 0;
#X connect 33 0 35 1;
#X connect 34 0 35 0;
#X connect 35 1 33 0;
#X connect 35 1 36 0;
#X connect 36 0 90 0;
#X connect 36 0 91 0;
#X connect 37 0 33 0;
#X connect 42 0 63 0;
#X connect 42 0 112 0;
#X connect 43 0 52 0;
#X connect 43 0 56 0;
#X connect 43 1 44 0;
#X connect 43 1 45 0;
#X connect 43 1 97 0;
#X connect 45 0 43 1;
#X connect 49 0 45 0;
#X connect 51 0 42 0;
#X connect 55 0 57 1;
#X connect 56 0 57 0;
#X connect 57 1 55 0;
#X connect 57 1 58 0;
#X connect 58 0 54 0;
#X connect 58 0 92 0;
#X connect 59 0 55 0;
#X connect 64 0 85 0;
#X connect 64 0 113 0;
#X connect 65 0 74 0;
#X connect 65 0 78 0;
#X connect 65 1 66 0;
#X connect 65 1 67 0;
#X connect 65 1 98 0;
#X connect 67 0 65 1;
#X connect 71 0 67 0;
#X connect 73 0 64 0;
#X connect 77 0 79 1;
#X connect 78 0 79 0;
#X connect 79 1 77 0;
#X connect 79 1 80 0;
#X connect 80 0 76 0;
#X connect 80 0 93 0;
#X connect 81 0 77 0;
#X connect 86 0 87 0;
#X connect 87 0 88 0;
#X connect 88 0 94 0;
#X connect 88 0 119 0;
#X connect 89 0 86 0;
#X connect 90 0 89 0;
#X connect 90 1 115 0;
#X connect 92 0 90 0;
#X connect 92 1 116 0;
#X connect 93 0 92 0;
#X connect 93 1 117 0;
#X connect 95 0 100 0;
#X connect 96 0 95 0;
#X connect 96 1 100 1;
#X connect 97 0 96 0;
#X connect 97 1 101 1;
#X connect 98 0 97 0;
#X connect 98 1 118 1;
#X connect 100 0 101 0;
#X connect 101 0 118 0;
#X connect 110 1 1 0;
#X connect 111 1 22 0;
#X connect 112 1 43 0;
#X connect 113 1 65 0;
#X connect 115 1 86 1;
#X connect 116 1 87 1;
#X connect 117 1 88 1;
#X connect 118 0 99 0;
#X connect 118 0 120 0;
#X connect 119 0 121 0;
#X connect 120 0 122 0;
#X connect 123 0 49 0;
#X connect 123 0 59 0;
#X connect 124 0 71 0;
#X connect 124 0 81 0;
#X connect 125 0 28 0;
#X connect 125 0 37 0;
#X connect 126 0 6 0;
#X connect 126 0 16 0;
#X restore 15 446 pd min_max_4_info~;
#X obj 429 392 env~ 8192;
#X floatatom 442 421 5 0 0 0 - - -;
#X obj 655 40 s reset_sound;
#X obj 454 38 s reset_sound;
#X obj 597 374 r auto_beat;
#X floatatom 579 408 5 0 0 0 - - -;
#X obj 689 412 spigot;
#X obj 634 410 - 1;
#X floatatom 655 489 5 0 0 0 - - -;
#X floatatom 55 359 5 0 0 0 - - -;
#X floatatom 665 499 5 0 0 0 - - -;
#X msg 888 215 0.1;
#X obj 163 84 *~ 1;
#X obj 29 8 r soundtrack_weight;
#X obj 311 20 r audioInput_weight;
#X floatatom 86 81 5 0 0 0 - - -;
#X connect 0 1 2 0;
#X connect 2 1 39 0;
#X connect 3 0 5 0;
#X connect 3 0 4 0;
#X connect 3 0 65 0;
#X connect 4 0 0 0;
#X connect 5 0 0 0;
#X connect 6 0 40 0;
#X connect 6 1 40 1;
#X connect 14 0 12 0;
#X connect 15 0 16 0;
#X connect 15 0 18 0;
#X connect 15 0 21 0;
#X connect 16 0 15 1;
#X connect 17 0 15 1;
#X connect 18 0 19 0;
#X connect 18 0 20 0;
#X connect 19 0 18 1;
#X connect 20 0 79 0;
#X connect 20 0 81 0;
#X connect 21 0 24 0;
#X connect 22 0 15 0;
#X connect 23 0 22 0;
#X connect 24 0 17 0;
#X connect 25 0 26 0;
#X connect 25 0 55 0;
#X connect 26 0 25 1;
#X connect 27 0 25 0;
#X connect 29 0 23 1;
#X connect 29 0 37 0;
#X connect 30 0 24 1;
#X connect 30 0 38 0;
#X connect 31 0 21 0;
#X connect 32 0 50 0;
#X connect 32 1 8 0;
#X connect 32 1 66 1;
#X connect 33 0 51 0;
#X connect 33 1 9 0;
#X connect 33 1 66 2;
#X connect 34 0 52 0;
#X connect 34 1 10 0;
#X connect 34 1 66 3;
#X connect 35 0 41 1;
#X connect 36 0 41 0;
#X connect 39 0 23 0;
#X connect 39 0 49 0;
#X connect 39 0 66 4;
#X connect 39 0 60 0;
#X connect 40 0 43 0;
#X connect 41 0 85 0;
#X connect 42 0 45 0;
#X connect 43 0 42 1;
#X connect 45 0 72 3;
#X connect 45 0 57 0;
#X connect 45 0 58 0;
#X connect 45 0 59 0;
#X connect 45 0 0 0;
#X connect 45 0 56 0;
#X connect 46 0 32 0;
#X connect 47 0 33 0;
#X connect 47 0 82 0;
#X connect 48 0 34 0;
#X connect 50 0 66 1;
#X connect 51 0 66 2;
#X connect 52 0 66 3;
#X connect 55 0 54 1;
#X connect 56 0 53 0;
#X connect 56 0 54 0;
#X connect 57 0 46 0;
#X connect 57 0 72 0;
#X connect 58 0 47 0;
#X connect 58 0 72 1;
#X connect 59 0 48 0;
#X connect 59 0 72 2;
#X connect 61 0 43 1;
#X connect 62 0 65 0;
#X connect 64 0 66 0;
#X connect 65 0 13 0;
#X connect 65 0 0 0;
#X connect 66 0 67 0;
#X connect 67 0 7 0;
#X connect 69 0 75 0;
#X connect 71 0 76 0;
#X connect 73 0 74 0;
#X connect 77 0 78 0;
#X connect 77 0 80 0;
#X connect 79 0 14 0;
#X connect 79 0 83 0;
#X connect 80 0 79 1;
#X connect 84 0 23 1;
#X connect 85 0 42 0;
#X connect 86 0 85 1;
#X connect 86 0 88 0;
#X connect 87 0 43 1;
#X connect 87 0 44 0;
#X restore 205 140 pd sound_analysis;
#X text 251 111 MIN MAX AUTOM;
#X obj 22 258 cnv 15 150 35 empty autom_env_min_can 20.0 0 18 1 36
-204800 -33289 0;
#X obj 186 257 cnv 15 150 35 empty autom_env_max_can 98.5 0 18 1 36
-262130 -33289 0;
#X obj 23 322 cnv 15 150 35 empty sound_env_min_can 25 0 18 1 48 -4032
-33289 0;
#X obj 186 319 cnv 15 150 35 empty sound_env_max_can 91 0 18 1 48 -257985
-33289 0;
#X obj 24 188 cnv 15 150 35 empty beat_threshold_can 0.35 0 18 1 48
-232576 -33289 0;
#X text 18 234 OBSERVED SOUND MIN AND MAX;
#X text 21 302 DEFINED SOUND MIN AND MAX;
#X text 250 94 RESET SOUND;
#X text 250 123 OBSERVATION;
#X text 23 168 BEAT THRESHOLD;
#X connect 0 0 7 0;
#X connect 1 0 7 1;
#X connect 2 0 0 0;
#X connect 5 0 6 0;
#X connect 12 0 13 0;
