#N canvas 0 13 684 545 12;
#X obj 281 726 readsf~ 2;
#X msg 281 686 1;
#X obj 280 643 bng 15 250 50 0 empty empty empty 17 7 0 10 #fcfcfc #000000 #000000;
#X obj 281 669 delay 500;
#X obj 280 763 *~ 1;
#X obj 316 34 bng 60 250 50 0 empty empty REPLAY 17 7 1 12 #00fc04 #000000 #000000;
#X obj 1118 366 vsl 15 128 0 127 0 0 empty empty empty 0 -9 0 10 #fcfcfc #000000 #000000 0 1;
#X floatatom 1118 530 5 0 0 0 - - - 0;
#X obj 1118 504 / 127;
#X obj 426 36 bng 60 250 50 0 empty empty STOP 17 7 1 12 #fc0400 #000000 #000000;
#X msg 320 694 0;
#X obj 509 934 dac~ 1 2 3 4 5 6 7 8 9 10;
#X obj 1118 340 * 127;
#X msg 1118 315 0.8;
#X obj 353 726 readsf~ 2;
#X msg 353 686 1;
#X obj 353 650 bng 15 250 50 0 empty empty empty 17 7 0 10 #fcfcfc #000000 #000000;
#X obj 353 669 delay 500;
#X obj 352 763 *~ 1;
#X obj 1190 367 vsl 15 128 0 127 0 0 empty empty empty 0 -9 0 10 #fcfcfc #000000 #000000 0 1;
#X floatatom 1190 530 5 0 0 0 - - - 0;
#X obj 1190 504 / 127;
#X msg 392 694 0;
#X obj 1190 340 * 127;
#X obj 431 727 readsf~ 2;
#X msg 431 687 1;
#X obj 431 651 bng 15 250 50 0 empty empty empty 17 7 0 10 #fcfcfc #000000 #000000;
#X obj 431 670 delay 500;
#X obj 430 764 *~ 1;
#X obj 1268 367 vsl 15 128 0 127 0 0 empty empty empty 0 -9 0 10 #fcfcfc #000000 #000000 0 1;
#X floatatom 1268 531 5 0 0 0 - - - 0;
#X obj 1268 505 / 127;
#X msg 470 695 0;
#X obj 1268 341 * 127;
#X obj 516 728 readsf~ 2;
#X msg 516 688 1;
#X obj 516 652 bng 15 250 50 0 empty empty empty 17 7 0 10 #fcfcfc #000000 #000000;
#X obj 516 671 delay 500;
#X obj 515 765 *~ 1;
#X obj 1353 368 vsl 15 128 0 127 0 0 empty empty empty 0 -9 0 10 #fcfcfc #000000 #000000 0 1;
#X floatatom 1353 532 5 0 0 0 - - - 0;
#X obj 1353 506 / 127;
#X msg 555 696 0;
#X obj 1353 342 * 127;
#X msg 596 689 1;
#X obj 596 653 bng 15 250 50 0 empty empty empty 17 7 0 10 #fcfcfc #000000 #000000;
#X obj 596 672 delay 500;
#X obj 595 766 *~ 1;
#X obj 1433 369 vsl 15 128 0 127 0 0 empty empty empty 0 -9 0 10 #fcfcfc #000000 #000000 0 1;
#X floatatom 1433 533 5 0 0 0 - - - 0;
#X obj 1433 507 / 127;
#X msg 635 697 0;
#X obj 1433 343 * 127;
#X msg 1433 318 0.8;
#X msg 673 692 1;
#X obj 673 656 bng 15 250 50 0 empty empty empty 17 7 0 10 #fcfcfc #000000 #000000;
#X obj 673 675 delay 500;
#X obj 672 769 *~ 1;
#X obj 1510 372 vsl 15 128 0 127 0 0 empty empty empty 0 -9 0 10 #fcfcfc #000000 #000000 0 1;
#X floatatom 1510 536 5 0 0 0 - - - 0;
#X obj 1510 510 / 127;
#X msg 712 700 0;
#X obj 1510 346 * 127;
#X msg 1510 321 0.8;
#X msg 756 688 1;
#X obj 756 652 bng 15 250 50 0 empty empty empty 17 7 0 10 #fcfcfc #000000 #000000;
#X obj 756 671 delay 500;
#X obj 755 765 *~ 1;
#X obj 1593 368 vsl 15 128 0 127 0 0 empty empty empty 0 -9 0 10 #fcfcfc #000000 #000000 0 1;
#X floatatom 1593 532 5 0 0 0 - - - 0;
#X obj 1593 506 / 127;
#X msg 795 696 0;
#X obj 1593 342 * 127;
#X msg 1593 317 0.8;
#X msg 840 691 1;
#X obj 840 655 bng 15 250 50 0 empty empty empty 17 7 0 10 #fcfcfc #000000 #000000;
#X obj 840 674 delay 500;
#X obj 839 768 *~ 1;
#X obj 1677 371 vsl 15 128 0 127 0 0 empty empty empty 0 -9 0 10 #fcfcfc #000000 #000000 0 1;
#X floatatom 1677 535 5 0 0 0 - - - 0;
#X obj 1677 509 / 127;
#X msg 879 699 0;
#X obj 1677 345 * 127;
#X msg 1677 320 0.8;
#X obj 199 727 readsf~ 2;
#X msg 199 687 1;
#X obj 197 640 bng 15 250 50 0 empty empty empty 17 7 0 10 #fcfcfc #000000 #000000;
#X obj 199 670 delay 500;
#X obj 198 764 *~ 1;
#X obj 1069 371 vsl 15 128 0 127 0 0 empty empty empty 0 -9 0 10 #fcfcfc #000000 #000000 0 1;
#X floatatom 1070 533 5 0 0 0 - - - 0;
#X obj 1069 509 / 127;
#X msg 166 511 open C:/Data/lavoirs/piste1-2.wav;
#X msg 238 695 0;
#X obj 1069 345 * 127;
#X msg 1069 320 0.8;
#X msg 186 539 open C:/Data/lavoirs/piste3-4.wav;
#X msg 250 568 open C:/Data/lavoirs/piste5-6.wav;
#X msg 398 511 open C:/Data/lavoirs/piste7-8.wav;
#X msg 442 537 open C:/Data/lavoirs/piste9-10.wav;
#X msg 504 569 open C:/Data/lavoirs/piste1mono.wav;
#X msg 646 509 open C:/Data/lavoirs/piste2mono.wav;
#X msg 692 539 open C:/Data/lavoirs/piste3mono.wav;
#X msg 749 568 open C:/Data/lavoirs/piste4mono.wav;
#X obj 839 733 readsf~ 1;
#X obj 756 728 readsf~ 1;
#X obj 673 732 readsf~ 1;
#X obj 596 729 readsf~ 1;
#X msg 1190 315 1;
#X msg 1268 316 1;
#X msg 1353 317 1;
#X msg 158 180 \; pd dsp 1;
#N canvas 0 625 741 396 UDP/OSC 1;
#X text 11 -4 OPEN UDP CONNECTION;
#X obj 69 12 inlet;
#X floatatom 69 353 5 0 0 0 - - - 0;
#X text 155 113 TouchOSC;
#X obj 267 42 oscparse;
#X obj 267 66 list trim;
#X obj 267 92 route startSound;
#X obj 8 69 loadbang;
#X obj 267 210 list prepend send;
#X obj 267 235 list trim;
#X obj 69 331 netsend -u -b;
#X obj 484 241 list prepend send;
#X obj 484 266 list trim;
#X msg 484 184 list 0;
#X msg 267 134 list 1;
#X obj 484 214 oscformat /soundOK;
#X obj 267 183 oscformat /soundOK;
#X obj 267 12 netreceive -u -b 7000;
#X obj 632 191 bng 19 250 50 0 empty empty empty 0 -10 0 12 #fcfcfc #000000 #000000;
#X msg 483 129 10000;
#X obj 484 156 delay 100000;
#X obj 341 127 send beginAudio;
#X msg 69 134 connect 192.168.0.100 10000;
#X connect 1 0 22 0;
#X connect 4 0 5 0;
#X connect 5 0 6 0;
#X connect 6 0 14 0;
#X connect 6 0 19 0;
#X connect 6 0 21 0;
#X connect 7 0 22 0;
#X connect 8 0 9 0;
#X connect 9 0 10 0;
#X connect 10 0 2 0;
#X connect 11 0 12 0;
#X connect 12 0 10 0;
#X connect 13 0 15 0;
#X connect 14 0 16 0;
#X connect 15 0 11 0;
#X connect 16 0 8 0;
#X connect 17 0 4 0;
#X connect 19 0 20 0;
#X connect 20 0 13 0;
#X connect 20 0 18 0;
#X connect 22 0 10 0;
#X restore 157 236 pd UDP/OSC;
#X obj 316 3 receive beginAudio;
#X obj 159 121 loadbang;
#X connect 0 0 4 0;
#X connect 1 0 0 0;
#X connect 2 0 3 0;
#X connect 3 0 1 0;
#X connect 4 0 11 2;
#X connect 4 0 11 3;
#X connect 5 0 2 0;
#X connect 5 0 96 0;
#X connect 5 0 13 0;
#X connect 5 0 92 0;
#X connect 5 0 97 0;
#X connect 5 0 98 0;
#X connect 5 0 99 0;
#X connect 5 0 100 0;
#X connect 5 0 101 0;
#X connect 5 0 102 0;
#X connect 5 0 103 0;
#X connect 5 0 95 0;
#X connect 5 0 108 0;
#X connect 5 0 109 0;
#X connect 5 0 110 0;
#X connect 5 0 53 0;
#X connect 5 0 63 0;
#X connect 5 0 73 0;
#X connect 5 0 83 0;
#X connect 5 0 86 0;
#X connect 5 0 16 0;
#X connect 5 0 26 0;
#X connect 5 0 36 0;
#X connect 5 0 45 0;
#X connect 5 0 55 0;
#X connect 5 0 65 0;
#X connect 5 0 75 0;
#X connect 5 0 111 0;
#X connect 5 0 112 0;
#X connect 6 0 8 0;
#X connect 8 0 7 0;
#X connect 8 0 4 1;
#X connect 9 0 10 0;
#X connect 9 0 93 0;
#X connect 9 0 22 0;
#X connect 9 0 32 0;
#X connect 9 0 42 0;
#X connect 9 0 51 0;
#X connect 9 0 61 0;
#X connect 9 0 71 0;
#X connect 9 0 81 0;
#X connect 10 0 0 0;
#X connect 12 0 6 0;
#X connect 13 0 12 0;
#X connect 14 0 18 0;
#X connect 15 0 14 0;
#X connect 16 0 17 0;
#X connect 17 0 15 0;
#X connect 18 0 11 4;
#X connect 18 0 11 5;
#X connect 19 0 21 0;
#X connect 21 0 20 0;
#X connect 21 0 18 1;
#X connect 22 0 14 0;
#X connect 23 0 19 0;
#X connect 24 0 28 0;
#X connect 25 0 24 0;
#X connect 26 0 27 0;
#X connect 27 0 25 0;
#X connect 28 0 11 6;
#X connect 28 0 11 7;
#X connect 29 0 31 0;
#X connect 31 0 30 0;
#X connect 31 0 28 1;
#X connect 32 0 24 0;
#X connect 33 0 29 0;
#X connect 34 0 38 0;
#X connect 35 0 34 0;
#X connect 36 0 37 0;
#X connect 37 0 35 0;
#X connect 38 0 11 8;
#X connect 38 0 11 9;
#X connect 39 0 41 0;
#X connect 41 0 40 0;
#X connect 41 0 38 1;
#X connect 42 0 34 0;
#X connect 43 0 39 0;
#X connect 44 0 107 0;
#X connect 45 0 46 0;
#X connect 46 0 44 0;
#X connect 47 0 11 0;
#X connect 48 0 50 0;
#X connect 50 0 49 0;
#X connect 50 0 47 1;
#X connect 51 0 107 0;
#X connect 52 0 48 0;
#X connect 53 0 52 0;
#X connect 54 0 106 0;
#X connect 55 0 56 0;
#X connect 56 0 54 0;
#X connect 57 0 11 1;
#X connect 58 0 60 0;
#X connect 60 0 59 0;
#X connect 60 0 57 1;
#X connect 61 0 106 0;
#X connect 62 0 58 0;
#X connect 63 0 62 0;
#X connect 64 0 105 0;
#X connect 65 0 66 0;
#X connect 66 0 64 0;
#X connect 67 0 11 2;
#X connect 68 0 70 0;
#X connect 70 0 69 0;
#X connect 70 0 67 1;
#X connect 71 0 105 0;
#X connect 72 0 68 0;
#X connect 73 0 72 0;
#X connect 74 0 104 0;
#X connect 75 0 76 0;
#X connect 76 0 74 0;
#X connect 77 0 11 3;
#X connect 78 0 80 0;
#X connect 80 0 79 0;
#X connect 80 0 77 1;
#X connect 81 0 104 0;
#X connect 82 0 78 0;
#X connect 83 0 82 0;
#X connect 84 0 88 0;
#X connect 85 0 84 0;
#X connect 86 0 87 0;
#X connect 87 0 85 0;
#X connect 88 0 11 0;
#X connect 88 0 11 1;
#X connect 89 0 91 0;
#X connect 91 0 90 0;
#X connect 91 0 88 1;
#X connect 92 0 84 0;
#X connect 93 0 84 0;
#X connect 94 0 89 0;
#X connect 95 0 94 0;
#X connect 96 0 0 0;
#X connect 97 0 14 0;
#X connect 98 0 24 0;
#X connect 99 0 34 0;
#X connect 100 0 107 0;
#X connect 101 0 106 0;
#X connect 102 0 105 0;
#X connect 103 0 104 0;
#X connect 104 0 77 0;
#X connect 105 0 67 0;
#X connect 106 0 57 0;
#X connect 107 0 47 0;
#X connect 108 0 23 0;
#X connect 109 0 33 0;
#X connect 110 0 43 0;
#X connect 113 0 5 0;
#X connect 114 0 111 0;
