#N canvas 1034 2 879 281 10;
#X obj 23 45 bng 100 250 50 0 empty empty empty 0 -6 0 8 -24198 -1
-1;
#X obj 123 105 bng 40 250 50 0 empty empty empty 0 -6 0 8 -258699 -1
-1;
#X obj 22 28 loadbang;
#X text 16 8 UDP connection;
#N canvas 465 343 853 397 UDPinOut 0;
#X msg 147 52 disconnect;
#X text 11 -4 OPEN UDP CONNECTION;
#X text 153 -4 CLOSE UDP CONNECTION;
#X obj 122 160 r message;
#X obj 69 12 inlet;
#X obj 147 14 inlet;
#X floatatom 69 245 5 0 0 0 - - -;
#X obj 186 29 r disconnect;
#X obj 78 106 r connect;
#X obj 122 189 spigot;
#X text 155 113 Porphyrograph;
#X obj 69 223 netsend 1;
#X text 314 -1 OSC message processing;
#X obj 199 197 print receive;
#X text 476 0 from Porphyrograph;
#X obj 150 244 print send;
#X obj 317 64 s connect;
#X msg 69 134 connect 127.0.0.1 1978;
#X obj 317 20 netreceive 1980 1;
#X obj 317 42 route /connect;
#X connect 0 0 11 0;
#X connect 3 0 9 0;
#X connect 4 0 17 0;
#X connect 5 0 0 0;
#X connect 7 0 0 0;
#X connect 8 0 17 0;
#X connect 9 0 11 0;
#X connect 11 0 6 0;
#X connect 11 0 9 1;
#X connect 17 0 11 0;
#X connect 18 0 13 0;
#X connect 18 0 19 0;
#X connect 19 0 16 0;
#X coords 0 0 10 10 0 0 0;
#X restore 23 145 pd UDPinOut;
#X obj 88 186 cnv 15 50 35 empty MIDI_channel 1 0 18 1 36 -232576 -33289
0;
#X obj 176 185 cnv 15 100 35 empty MIDI_controller 1 0 18 1 36 -262130
-33289 0;
#X obj 303 185 cnv 15 150 35 empty MIDI_value 0 0 18 1 36 -261234 -33289
0;
#X obj 274 33 ctlin;
#N canvas 1160 299 748 689 routeMIDItoOSC 1;
#X obj 26 322 s message;
#X obj 124 41 inlet;
#X text 70 17 port/channel/control/val;
#X text 134 86 PORT;
#X obj 124 133 route 1 2 3 4;
#X text 133 119 CHANNEL;
#X text 133 152 CONTROLLER;
#X obj 171 39 inlet;
#X obj 218 41 inlet;
#X obj 269 41 inlet;
#X obj 124 70 pack f f f f;
#X obj 124 101 route 0 1 2 3 4;
#N canvas 0 50 714 300 displayValues 0;
#X obj 124 41 inlet;
#X text 70 17 port/channel/control/val;
#X obj 171 39 inlet;
#X obj 218 41 inlet;
#X obj 269 41 inlet;
#X msg 299 108 \; MIDI_controller label \$1;
#X obj 299 91 makefilename %d;
#X obj 486 87 makefilename %d;
#X obj 10 91 makefilename %d;
#X msg 10 108 \; MIDI_port label \$1;
#X obj 154 91 makefilename %d;
#X msg 154 108 \; MIDI_channel label \$1;
#X msg 486 104 \; MIDI_value label \$1;
#X connect 0 0 8 0;
#X connect 2 0 10 0;
#X connect 3 0 6 0;
#X connect 4 0 7 0;
#X connect 6 0 5 0;
#X connect 7 0 12 0;
#X connect 8 0 9 0;
#X connect 10 0 11 0;
#X restore 224 71 pd displayValues;
#X obj 155 226 nbx 5 14 -1e+037 1e+037 0 0 empty empty empty 0 -8 0
10 -262144 -1 -1 0 256;
#X obj 124 166 route 0 1 2 3 4 5 6 7 8 9 10 11 12 13 14 15 16 17 18
19 20 21 22 23 24, f 77;
#X obj 174 247 nbx 5 14 -1e+037 1e+037 0 0 empty empty empty 0 -8 0
10 -262144 -1 -1 0 256;
#X msg 29 226 send /MIDI_vol_A \$1;
#X msg 46 247 send /MIDI_vol_B \$1;
#X obj 209 274 nbx 5 14 -1e+037 1e+037 0 0 empty empty empty 0 -8 0
10 -262144 -1 -1 0 256;
#X obj 228 295 nbx 5 14 -1e+037 1e+037 0 0 empty empty empty 0 -8 0
10 -262144 -1 -1 0 256;
#X msg 76 273 send /MIDI_play_A \$1;
#X msg 93 294 send /MIDI_play_B \$1;
#X obj 408 222 nbx 5 14 -1e+037 1e+037 0 0 empty empty empty 0 -8 0
10 -262144 -1 -1 0 256;
#X obj 427 243 nbx 5 14 -1e+037 1e+037 0 0 empty empty empty 0 -8 0
10 -262144 -1 -1 0 256;
#X obj 462 270 nbx 5 14 -1e+037 1e+037 0 0 empty empty empty 0 -8 0
10 -262144 -1 -1 0 256;
#X obj 481 291 nbx 5 14 -1e+037 1e+037 0 0 empty empty empty 0 -8 0
10 -262144 -1 -1 0 256;
#X obj 184 357 nbx 5 14 -1e+037 1e+037 0 0 empty empty empty 0 -8 0
10 -262144 -1 -1 0 256;
#X obj 203 378 nbx 5 14 -1e+037 1e+037 0 0 empty empty empty 0 -8 0
10 -262144 -1 -1 0 256;
#X obj 238 405 nbx 5 14 -1e+037 1e+037 0 0 empty empty empty 0 -8 0
10 -262144 -1 -1 0 256;
#X obj 257 426 nbx 5 14 -1e+037 1e+037 0 0 empty empty empty 0 -8 0
10 -262144 -1 -1 0 256;
#X obj 48 518 s message;
#X obj 302 313 s message;
#X msg 282 222 send /MIDI_cue_A \$1;
#X msg 299 243 send /MIDI_cue_B \$1;
#X msg 329 269 send /MIDI_CUP_A \$1;
#X msg 346 290 send /MIDI_CUP_B \$1;
#X obj 285 452 nbx 5 14 -1e+037 1e+037 0 0 empty empty empty 0 -8 0
10 -262144 -1 -1 0 256;
#X obj 304 473 nbx 5 14 -1e+037 1e+037 0 0 empty empty empty 0 -8 0
10 -262144 -1 -1 0 256;
#X msg 27 357 send /MIDI_seekPos_A \$1;
#X msg 44 378 send /MIDI_seekPos_B \$1;
#X msg 74 404 send /MIDI_JogTouch_A \$1;
#X msg 91 425 send /MIDI_JogTouch_B \$1;
#X msg 121 451 send /MIDI_JogTurn_A \$1;
#X msg 138 472 send /MIDI_JogTurn_B \$1;
#X connect 1 0 10 0;
#X connect 1 0 12 0;
#X connect 4 0 14 0;
#X connect 7 0 10 1;
#X connect 7 0 12 1;
#X connect 8 0 10 2;
#X connect 8 0 12 2;
#X connect 9 0 10 3;
#X connect 9 0 12 3;
#X connect 10 0 11 0;
#X connect 11 0 4 0;
#X connect 14 0 16 0;
#X connect 14 0 13 0;
#X connect 14 1 17 0;
#X connect 14 1 15 0;
#X connect 14 2 20 0;
#X connect 14 2 18 0;
#X connect 14 3 21 0;
#X connect 14 3 19 0;
#X connect 14 4 32 0;
#X connect 14 4 22 0;
#X connect 14 5 33 0;
#X connect 14 5 23 0;
#X connect 14 6 34 0;
#X connect 14 6 24 0;
#X connect 14 7 35 0;
#X connect 14 7 25 0;
#X connect 14 8 38 0;
#X connect 14 8 26 0;
#X connect 14 9 39 0;
#X connect 14 9 27 0;
#X connect 14 10 40 0;
#X connect 14 10 28 0;
#X connect 14 11 41 0;
#X connect 14 11 29 0;
#X connect 14 12 42 0;
#X connect 14 12 36 0;
#X connect 14 13 43 0;
#X connect 14 13 37 0;
#X connect 16 0 0 0;
#X connect 17 0 0 0;
#X connect 20 0 0 0;
#X connect 21 0 0 0;
#X connect 32 0 31 0;
#X connect 33 0 31 0;
#X connect 34 0 31 0;
#X connect 35 0 31 0;
#X connect 38 0 30 0;
#X connect 39 0 30 0;
#X connect 40 0 30 0;
#X connect 41 0 30 0;
#X connect 42 0 30 0;
#X connect 43 0 30 0;
#X restore 253 110 pd routeMIDItoOSC;
#X obj 306 70 mod 16;
#X obj 258 70 div 16;
#X obj 25 185 cnv 15 50 35 empty MIDI_port 0 0 18 1 36 -204800 -33289
0;
#X text 158 153 MIDI;
#X text 236 94 port/channel/control/val;
#X text 243 12 MIDI connection;
#X text 314 167 VALUE;
#X text 183 167 CONTROLLER;
#X text 85 167 CHANNEL;
#X text 29 167 PORT;
#X floatatom 445 81 0 0 0 0 - - -;
#X obj 588 13 notein;
#X floatatom 426 104 0 0 0 0 - - -;
#X floatatom 465 56 0 0 0 0 - - -;
#X text 475 82 velocity;
#X text 494 58 channel;
#X text 476 29 (omni);
#X text 456 104 note;
#X floatatom 496 178 0 0 0 0 - - -;
#X floatatom 480 207 0 0 0 0 - - -;
#X floatatom 512 145 0 0 0 0 - - -;
#X obj 480 120 ctlin;
#X text 511 208 value;
#X text 524 119 (all controllers \, omni);
#X text 527 178 controller #;
#X text 543 146 channel/port;
#N canvas 1160 299 748 689 routeMIDI_CC_toOSC 1;
#X obj 26 322 s message;
#X obj 124 41 inlet;
#X text 70 17 port/channel/control/val;
#X text 134 86 PORT;
#X obj 124 133 route 1 2 3 4;
#X text 133 119 CHANNEL;
#X text 133 152 CONTROLLER;
#X obj 171 39 inlet;
#X obj 218 41 inlet;
#X obj 124 70 pack f f f f;
#X obj 124 101 route 0 1 2 3 4;
#N canvas 0 50 714 300 displayValues 0;
#X obj 124 41 inlet;
#X text 70 17 port/channel/control/val;
#X obj 171 39 inlet;
#X obj 218 41 inlet;
#X obj 269 41 inlet;
#X msg 299 108 \; MIDI_controller label \$1;
#X obj 299 91 makefilename %d;
#X obj 486 87 makefilename %d;
#X obj 10 91 makefilename %d;
#X msg 10 108 \; MIDI_port label \$1;
#X obj 154 91 makefilename %d;
#X msg 154 108 \; MIDI_channel label \$1;
#X msg 486 104 \; MIDI_value label \$1;
#X connect 0 0 8 0;
#X connect 2 0 10 0;
#X connect 3 0 6 0;
#X connect 4 0 7 0;
#X connect 6 0 5 0;
#X connect 7 0 12 0;
#X connect 8 0 9 0;
#X connect 10 0 11 0;
#X restore 224 71 pd displayValues;
#X obj 155 226 nbx 5 14 -1e+037 1e+037 0 0 empty empty empty 0 -8 0
10 -262144 -1 -1 0 256;
#X obj 124 166 route 0 1 2 3 4 5 6 7 8 9 10 11 12 13 14 15 16 17 18
19 20 21 22 23 24, f 77;
#X obj 174 247 nbx 5 14 -1e+037 1e+037 0 0 empty empty empty 0 -8 0
10 -262144 -1 -1 0 256;
#X msg 29 226 send /MIDI_vol_A \$1;
#X msg 46 247 send /MIDI_vol_B \$1;
#X obj 209 274 nbx 5 14 -1e+037 1e+037 0 0 empty empty empty 0 -8 0
10 -262144 -1 -1 0 256;
#X obj 228 295 nbx 5 14 -1e+037 1e+037 0 0 empty empty empty 0 -8 0
10 -262144 -1 -1 0 256;
#X msg 76 273 send /MIDI_play_A \$1;
#X msg 93 294 send /MIDI_play_B \$1;
#X obj 408 222 nbx 5 14 -1e+037 1e+037 0 0 empty empty empty 0 -8 0
10 -262144 -1 -1 0 256;
#X obj 427 243 nbx 5 14 -1e+037 1e+037 0 0 empty empty empty 0 -8 0
10 -262144 -1 -1 0 256;
#X obj 462 270 nbx 5 14 -1e+037 1e+037 0 0 empty empty empty 0 -8 0
10 -262144 -1 -1 0 256;
#X obj 481 291 nbx 5 14 -1e+037 1e+037 0 0 empty empty empty 0 -8 0
10 -262144 -1 -1 0 256;
#X obj 184 357 nbx 5 14 -1e+037 1e+037 0 0 empty empty empty 0 -8 0
10 -262144 -1 -1 0 256;
#X obj 203 378 nbx 5 14 -1e+037 1e+037 0 0 empty empty empty 0 -8 0
10 -262144 -1 -1 0 256;
#X obj 238 405 nbx 5 14 -1e+037 1e+037 0 0 empty empty empty 0 -8 0
10 -262144 -1 -1 0 256;
#X obj 257 426 nbx 5 14 -1e+037 1e+037 0 0 empty empty empty 0 -8 0
10 -262144 -1 -1 0 256;
#X obj 48 518 s message;
#X obj 302 313 s message;
#X msg 282 222 send /MIDI_cue_A \$1;
#X msg 299 243 send /MIDI_cue_B \$1;
#X msg 329 269 send /MIDI_CUP_A \$1;
#X msg 346 290 send /MIDI_CUP_B \$1;
#X obj 285 452 nbx 5 14 -1e+037 1e+037 0 0 empty empty empty 0 -8 0
10 -262144 -1 -1 0 256;
#X obj 304 473 nbx 5 14 -1e+037 1e+037 0 0 empty empty empty 0 -8 0
10 -262144 -1 -1 0 256;
#X msg 27 357 send /MIDI_seekPos_A \$1;
#X msg 44 378 send /MIDI_seekPos_B \$1;
#X msg 74 404 send /MIDI_JogTouch_A \$1;
#X msg 91 425 send /MIDI_JogTouch_B \$1;
#X msg 121 451 send /MIDI_JogTurn_A \$1;
#X msg 138 472 send /MIDI_JogTurn_B \$1;
#X connect 1 0 9 0;
#X connect 1 0 11 0;
#X connect 4 0 13 0;
#X connect 7 0 9 1;
#X connect 7 0 11 1;
#X connect 8 0 9 2;
#X connect 8 0 11 2;
#X connect 9 0 10 0;
#X connect 10 0 4 0;
#X connect 13 0 15 0;
#X connect 13 0 12 0;
#X connect 13 1 16 0;
#X connect 13 1 14 0;
#X connect 13 2 19 0;
#X connect 13 2 17 0;
#X connect 13 3 20 0;
#X connect 13 3 18 0;
#X connect 13 4 31 0;
#X connect 13 4 21 0;
#X connect 13 5 32 0;
#X connect 13 5 22 0;
#X connect 13 6 33 0;
#X connect 13 6 23 0;
#X connect 13 7 34 0;
#X connect 13 7 24 0;
#X connect 13 8 37 0;
#X connect 13 8 25 0;
#X connect 13 9 38 0;
#X connect 13 9 26 0;
#X connect 13 10 39 0;
#X connect 13 10 27 0;
#X connect 13 11 40 0;
#X connect 13 11 28 0;
#X connect 13 12 41 0;
#X connect 13 12 35 0;
#X connect 13 13 42 0;
#X connect 13 13 36 0;
#X connect 15 0 0 0;
#X connect 16 0 0 0;
#X connect 19 0 0 0;
#X connect 20 0 0 0;
#X connect 31 0 30 0;
#X connect 32 0 30 0;
#X connect 33 0 30 0;
#X connect 34 0 30 0;
#X connect 37 0 29 0;
#X connect 38 0 29 0;
#X connect 39 0 29 0;
#X connect 40 0 29 0;
#X connect 41 0 29 0;
#X connect 42 0 29 0;
#X restore 558 71 pd routeMIDI_CC_toOSC;
#X connect 0 0 4 0;
#X connect 1 0 4 1;
#X connect 2 0 0 0;
#X connect 8 0 9 3;
#X connect 8 1 9 2;
#X connect 8 2 11 0;
#X connect 8 2 10 0;
#X connect 10 0 9 1;
#X connect 11 0 9 0;
#X connect 21 0 22 0;
#X connect 21 0 36 2;
#X connect 21 1 20 0;
#X connect 21 1 36 1;
#X connect 21 2 23 0;
#X connect 21 2 36 0;
#X connect 31 0 29 0;
#X connect 31 1 28 0;
#X connect 31 2 30 0;
