#N canvas 0 333 409 383 10;
#X obj 23 45 bng 100 250 50 0 empty empty empty 0 -6 0 8 -24198 -1
-1;
#X obj 123 105 bng 40 250 50 0 empty empty empty 0 -6 0 8 -258699 -1
-1;
#X obj 22 28 loadbang;
#X text 16 12 UDP connection;
#X text 124 14 AUDIO ON;
#X obj 123 30 loadbang;
#X msg 123 46 \; pd dsp 1;
#N canvas 465 343 853 397 UDPinOut 0;
#X msg 147 52 disconnect;
#X text 11 -4 OPEN UDP CONNECTION;
#X text 153 -4 CLOSE UDP CONNECTION;
#X obj 122 160 r message;
#X obj 69 12 inlet;
#X obj 147 14 inlet;
#X floatatom 69 245 5 0 0 0 - - -;
#X obj 186 29 r disconnect;
#X obj 78 106 r connect;
#X obj 122 189 spigot;
#X text 155 113 Porphyrograph;
#X obj 69 223 netsend 1;
#X text 314 -1 OSC message processing;
#X obj 199 197 print receive;
#X text 476 0 from Porphyrograph;
#X obj 150 244 print send;
#X obj 317 118 s connect;
#X obj 666 224 s soundtrack_fileName;
#X obj 663 196 s soundtrack_onOff;
#X obj 318 202 s beat_threshold;
#X obj 314 288 s sound_env_min;
#X obj 661 119 s sound_env_max;
#X obj 669 316 s message;
#X msg 669 299 send /PD_connected;
#X obj 313 311 makefilename %.1f;
#X msg 313 328 \; sound_env_min_can label \$1;
#X obj 662 139 makefilename %.1f;
#X msg 662 156 \; sound_env_max_can label \$1;
#X obj 671 341 s reset_sound;
#X msg 319 241 \; beat_threshold_can label \$1;
#X obj 319 224 makefilename %.2f;
#X obj 319 170 s beat_delay;
#X obj 318 144 s auto_beat;
#X msg 69 134 connect 127.0.0.1 1978;
#X obj 317 20 netreceive 1980 1;
#X obj 665 275 s soundtrack_weight;
#X obj 317 42 route /connect /auto_beat /beat_delay /beat_threshold
/sound_env_min /sound_env_max /soundtrack_onOff /soundtrack_fileName
/audioInput_weight /soundtrack_weight /PD_connected /reset_sound;
#X obj 665 252 s audioInput_weight;
#X connect 0 0 11 0;
#X connect 3 0 9 0;
#X connect 4 0 33 0;
#X connect 5 0 0 0;
#X connect 7 0 0 0;
#X connect 8 0 33 0;
#X connect 9 0 11 0;
#X connect 11 0 6 0;
#X connect 11 0 9 1;
#X connect 23 0 22 0;
#X connect 24 0 25 0;
#X connect 26 0 27 0;
#X connect 30 0 29 0;
#X connect 33 0 11 0;
#X connect 34 0 36 0;
#X connect 36 0 16 0;
#X connect 36 1 32 0;
#X connect 36 2 31 0;
#X connect 36 3 19 0;
#X connect 36 3 30 0;
#X connect 36 4 20 0;
#X connect 36 4 24 0;
#X connect 36 5 21 0;
#X connect 36 5 26 0;
#X connect 36 6 18 0;
#X connect 36 7 17 0;
#X connect 36 7 13 0;
#X connect 36 8 37 0;
#X connect 36 9 35 0;
#X connect 36 10 23 0;
#X connect 36 11 28 0;
#X coords 0 0 10 10 0 0 0;
#X restore 23 145 pd UDPinOut;
#N canvas 417 50 660 345 play_soundtrack 0;
#X msg 61 109 open \$1;
#X obj 60 179 readsf~ 2;
#X msg 36 152 1;
#X obj 36 116 bng 15 250 50 0 empty empty empty 17 7 0 10 -262144 -1
-1;
#X obj 61 51 pack s;
#X text 14 7 TRACK NAME SENT BY PORPHROGRAPH THRU /playsoundtrack MSG
;
#X obj 14 289 s~ channel1;
#X obj 159 295 s~ channel2;
#X obj 42 27 r soundtrack_fileName;
#X obj 58 316 dac~ 1 2;
#X floatatom 302 52 5 0 0 0 - - -;
#X obj 295 26 r soundtrack_onOff;
#X obj 243 25 inlet;
#X symbolatom 61 82 60 0 0 0 - - -;
#X obj 36 135 delay 500;
#X obj 157 226 *~ 1;
#X obj 58 242 *~ 1;
#X msg 243 55 1;
#X connect 0 0 1 0;
#X connect 1 0 16 0;
#X connect 1 1 15 0;
#X connect 2 0 1 0;
#X connect 3 0 14 0;
#X connect 4 0 13 0;
#X connect 8 0 3 0;
#X connect 8 0 4 0;
#X connect 11 0 10 0;
#X connect 11 0 15 1;
#X connect 11 0 16 1;
#X connect 12 0 17 0;
#X connect 13 0 0 0;
#X connect 14 0 2 0;
#X connect 15 0 7 0;
#X connect 15 0 9 1;
#X connect 16 0 6 0;
#X connect 16 0 9 0;
#X connect 17 0 15 1;
#X connect 17 0 16 1;
#X restore 190 53 pd play_soundtrack;
#X text 203 142 MUSIC CONTROL;
#X text 189 35 SOUNDTRACKS;
#N canvas 0 50 450 300 not_implemented 0;
#N canvas 684 50 450 300 video_satur_pulse 0;
#X obj 60 79 inlet;
#X obj 60 143 s message;
#X msg 60 127 send /video_satur_pulse \$1;
#X obj 60 110 * 1;
#X connect 0 0 3 0;
#X connect 2 0 1 0;
#X connect 3 0 2 0;
#X restore 221 28 pd video_satur_pulse;
#N canvas 308 311 450 300 repop_hue_pulse 0;
#X obj 53 166 s message;
#X obj 70 49 inlet;
#X obj 70 73 * 3;
#X msg 53 149 send /repop_hue_pulse \$1;
#X connect 1 0 2 0;
#X connect 2 0 3 0;
#X connect 3 0 0 0;
#X restore 215 53 pd repop_hue_pulse;
#N canvas 221 50 450 300 pen_hue_pulse 0;
#X obj 53 166 s message;
#X obj 70 49 inlet;
#X obj 70 73 * 3;
#X msg 53 149 send /pen_hue_pulse \$1;
#X connect 1 0 2 0;
#X connect 2 0 3 0;
#X connect 3 0 0 0;
#X restore 221 75 pd pen_hue_pulse;
#X msg 216 116 send /flashVideo;
#N canvas 254 50 578 439 CAParams1-7 0;
#X obj 162 202 s message;
#X msg 162 96 send /CAParams4 \$1;
#X msg 147 120 send /CAParams3 \$1;
#X msg 132 145 send /CAParams2 \$1;
#X msg 116 168 send /CAParams1 \$1;
#X obj 96 45 inlet;
#X obj 154 46 inlet;
#X obj 207 47 inlet;
#X obj 271 45 inlet;
#X obj 404 202 s message;
#X obj 338 45 inlet;
#X obj 396 46 inlet;
#X obj 449 47 inlet;
#X msg 389 120 send /CAParams7 \$1;
#X msg 374 145 send /CAParams6 \$1;
#X msg 358 168 send /CAParams5 \$1;
#X connect 1 0 0 0;
#X connect 2 0 0 0;
#X connect 3 0 0 0;
#X connect 4 0 0 0;
#X connect 5 0 4 0;
#X connect 6 0 3 0;
#X connect 7 0 2 0;
#X connect 8 0 1 0;
#X connect 10 0 15 0;
#X connect 11 0 14 0;
#X connect 12 0 13 0;
#X connect 13 0 9 0;
#X connect 14 0 9 0;
#X connect 15 0 9 0;
#X restore 219 178 pd CAParams1-7;
#X msg 217 143 send /snapshot;
#N canvas 886 385 280 94 noiseLinearScale 0;
#X obj 41 82 s message;
#X obj 41 6 inlet;
#X obj 41 37 * 1;
#X msg 41 65 send /noiseLineScale \$1;
#X connect 1 0 2 0;
#X connect 2 0 3 0;
#X connect 3 0 0 0;
#X restore 49 145 pd noiseLinearScale;
#N canvas 886 385 303 132 noiseAngleScale 0;
#X obj 36 89 s message;
#X obj 36 13 inlet;
#X msg 36 72 send /noiseAngleScale \$1;
#X obj 33 44 * 10;
#X connect 1 0 3 0;
#X connect 2 0 0 0;
#X connect 3 0 2 0;
#X restore 53 168 pd noiseAngleScale;
#N canvas 886 385 502 140 noiseCenter 0;
#X obj 32 113 s message;
#X obj 32 37 inlet;
#X obj 195 113 s message;
#X obj 195 37 inlet;
#X msg 32 96 send /noiseCenter_0 \$1;
#X msg 195 96 send /noiseCenter_1 \$1;
#X obj 32 68 * 2;
#X obj 195 68 * 2;
#X connect 1 0 6 0;
#X connect 3 0 7 0;
#X connect 4 0 0 0;
#X connect 5 0 2 0;
#X connect 6 0 4 0;
#X connect 7 0 5 0;
#X restore 50 121 pd noiseCenter;
#X msg 46 101 send /noiseType_plus;
#N canvas 221 50 450 300 part_stroke_mode 0;
#X obj 72 175 s message;
#X obj 72 88 inlet;
#X obj 72 133 int;
#X obj 72 112 * 2.99;
#X msg 72 158 send /part_stroke_mode \$1;
#X connect 1 0 3 0;
#X connect 2 0 4 0;
#X connect 3 0 2 0;
#X connect 4 0 0 0;
#X restore 52 192 pd part_stroke_mode;
#X msg 51 77 send /invertMovie 1;
#X msg 56 52 send /invertAllLayers;
#X msg 49 33 send /clearCA;
#X restore 201 80 pd not_implemented;
#X obj 280 13 bng 40 250 50 0 empty empty empty 0 -6 0 8 -258699 -1
-1;
#X obj 205 159 bng 40 250 50 0 empty empty empty 0 -6 0 8 -4034 -1
-1;
#N canvas 205 147 1023 521 sound_analysis 0;
#X obj 435 166 bonk~;
#X text 671 161 ATTACK OUTPUT;
#X obj 678 183 unpack f f f;
#X obj 457 86 loadbang;
#X msg 542 126 minvel 0.1;
#X msg 457 125 thresh 6 50;
#X obj 233 19 adc~ 1 2;
#X obj 189 454 s message;
#X floatatom 111 332 5 0 0 0 - - -;
#X floatatom 245 335 5 0 0 0 - - -;
#X floatatom 380 336 5 0 0 0 - - -;
#N canvas 0 50 450 300 (subpatch) 0;
#X array enveloppe 200 float 0;
#X coords 0 100 199 0 100 70 1 0 0;
#X restore 790 70 graph;
#X obj 698 476 send message;
#X obj 378 167 s beat;
#X msg 698 459 send /beat \$1;
#X obj 718 302 spigot;
#X msg 737 339 0;
#X msg 783 389 1;
#X obj 689 371 f;
#X obj 720 371 + 1;
#X obj 689 388 mod 8;
#X obj 783 337 bng 15 250 50 0 empty empty empty 17 7 0 10 -262144
-1 -1;
#X obj 718 283 route 1;
#X obj 718 261 > 0.6;
#X obj 783 363 delay 100;
#X obj 644 272 f;
#X obj 675 273 + 1;
#X obj 644 250 r beat;
#X text 610 217 attack above which a beat is sent;
#X obj 758 236 r beat_threshold;
#X obj 843 342 r beat_delay;
#X obj 783 311 loadbang;
#X obj 65 300 moses 0;
#X obj 199 304 moses 0;
#X obj 334 305 moses 0;
#X obj 155 7 r~ channel1;
#X obj 156 28 r~ channel2;
#X floatatom 878 290 5 0 0 0 - - -;
#X floatatom 886 378 5 0 0 0 - - -;
#X obj 718 236 / 60;
#X obj 252 51 +~;
#X obj 156 58 +~;
#X obj 198 108 +~;
#X obj 253 81 *~ 1;
#X floatatom 319 57 5 0 0 0 - - -;
#X obj 199 129 *~ 0.5;
#N canvas 942 50 524 385 norm_env~ 0;
#X obj 58 103 -;
#X obj 58 149 /;
#X obj 94 128 -;
#X obj 57 186 outlet;
#X obj 57 50 env~;
#X obj 56 11 inlet~;
#X floatatom 127 177 5 0 0 0 - - -;
#X floatatom 168 150 5 0 0 0 - - -;
#X floatatom 254 89 5 0 0 0 - - -;
#X floatatom 150 235 5 0 0 0 - - -;
#X obj 76 81 r sound_env_min;
#X obj 123 105 r sound_env_max;
#X connect 0 0 1 0;
#X connect 1 0 3 0;
#X connect 1 0 9 0;
#X connect 2 0 1 1;
#X connect 4 0 0 0;
#X connect 4 0 8 0;
#X connect 5 0 4 0;
#X connect 10 0 0 1;
#X connect 10 0 2 1;
#X connect 10 0 6 0;
#X connect 11 0 2 0;
#X connect 11 0 7 0;
#X restore 65 278 pd norm_env~;
#N canvas 767 159 450 300 norm_env~ 0;
#X obj 56 123 -;
#X obj 56 169 /;
#X obj 92 148 -;
#X obj 55 206 outlet;
#X obj 55 70 env~;
#X obj 54 31 inlet~;
#X obj 74 101 r sound_env_min;
#X obj 121 125 r sound_env_max;
#X connect 0 0 1 0;
#X connect 1 0 3 0;
#X connect 2 0 1 1;
#X connect 4 0 0 0;
#X connect 5 0 4 0;
#X connect 6 0 0 1;
#X connect 6 0 2 1;
#X connect 7 0 2 0;
#X restore 199 278 pd norm_env~;
#N canvas 942 50 276 260 norm_env~ 0;
#X obj 37 129 -;
#X obj 37 175 /;
#X obj 73 154 -;
#X obj 36 212 outlet;
#X obj 35 37 inlet~;
#X obj 36 76 env~ 8192;
#X obj 55 107 r sound_env_min;
#X obj 102 131 r sound_env_max;
#X connect 0 0 1 0;
#X connect 1 0 3 0;
#X connect 2 0 1 1;
#X connect 4 0 5 0;
#X connect 5 0 0 0;
#X connect 6 0 0 1;
#X connect 6 0 2 1;
#X connect 7 0 2 0;
#X restore 334 277 pd norm_env~;
#X floatatom 810 285 5 0 0 0 - - -;
#X msg 65 317 0;
#X msg 199 321 0;
#X msg 313 322 0;
#X floatatom 587 309 5 0 0 0 - - -;
#X obj 555 331 tabwrite enveloppe;
#X obj 644 293 mod 200;
#X obj 555 274 env~ 8192;
#X obj 66 256 lop~ 100;
#X obj 200 256 bp~ 300 1;
#X obj 334 254 hip~ 1000;
#X floatatom 514 426 5 0 0 0 - - -;
#X msg 329 86 1;
#X obj 370 86 bng 15 250 50 0 empty empty empty 17 7 0 10 -262144 -1
-1;
#X obj 452 321 t b f;
#X obj 144 374 r beat;
#X obj 371 125 metro 20;
#X obj 189 405 pack 0 f f f f;
#X msg 189 430 send /pulse_spectrum \$2 \$3 \$4 \$5;
#X text 653 -7 reset;
#X obj 655 10 loadbang;
#X text 449 0 reset;
#X obj 451 17 inlet;
#N canvas 529 416 1188 627 min_max_4_info~ 0;
#X obj 54 87 env~;
#X obj 54 142 moses 0;
#X floatatom 129 169 5 0 0 0 - - -;
#X obj 124 143 f;
#X text 58 185 VAL;
#X text 135 199 MAX_VAL;
#X msg 124 118 0;
#X text 135 184 HIGHEST VALUE;
#X obj 54 47 inlet~;
#X floatatom 54 168 5 0 0 0 - - -;
#X text 153 -21 reset;
#X floatatom 76 332 5 0 0 0 - - -;
#X obj 151 268 f;
#X obj 54 246 * -1;
#X obj 54 268 moses -1000;
#X obj 128 293 * -1;
#X msg 150 247 -1000;
#X text 125 350 LOWEST VALUE;
#X text 127 366 MIN_VAL;
#X text 58 29 signal;
#X floatatom 96 86 5 0 0 0 - - -;
#X obj 257 87 env~;
#X obj 257 142 moses 0;
#X floatatom 330 169 5 0 0 0 - - -;
#X obj 327 143 f;
#X text 261 185 VAL;
#X text 336 199 MAX_VAL;
#X text 320 98 reset;
#X msg 327 118 0;
#X text 336 184 HIGHEST VALUE;
#X obj 257 47 inlet~;
#X floatatom 257 168 5 0 0 0 - - -;
#X text 356 -21 reset;
#X obj 354 268 f;
#X obj 257 246 * -1;
#X obj 257 268 moses -1000;
#X obj 331 293 * -1;
#X msg 353 247 -1000;
#X text 336 335 LOWEST VALUE;
#X text 338 351 MIN_VAL;
#X text 261 29 signal;
#X floatatom 293 90 5 0 0 0 - - -;
#X obj 458 87 env~;
#X obj 458 142 moses 0;
#X floatatom 532 169 5 0 0 0 - - -;
#X obj 528 143 f;
#X text 462 185 VAL;
#X text 538 199 MAX_VAL;
#X text 521 98 reset;
#X msg 528 118 0;
#X text 538 184 HIGHEST VALUE;
#X obj 458 47 inlet~;
#X floatatom 458 168 5 0 0 0 - - -;
#X text 557 -21 reset;
#X floatatom 474 318 5 0 0 0 - - -;
#X obj 555 268 f;
#X obj 458 246 * -1;
#X obj 458 268 moses -1000;
#X obj 532 293 * -1;
#X msg 554 247 -1000;
#X text 537 335 LOWEST VALUE;
#X text 539 351 MIN_VAL;
#X text 462 29 signal;
#X floatatom 498 86 5 0 0 0 - - -;
#X obj 661 87 env~;
#X obj 661 142 moses 0;
#X floatatom 733 169 5 0 0 0 - - -;
#X obj 731 143 f;
#X text 665 185 VAL;
#X text 739 199 MAX_VAL;
#X text 724 98 reset;
#X msg 731 118 0;
#X text 739 184 HIGHEST VALUE;
#X obj 661 47 inlet~;
#X floatatom 661 168 5 0 0 0 - - -;
#X text 760 -21 reset;
#X floatatom 677 318 5 0 0 0 - - -;
#X obj 758 268 f;
#X obj 661 246 * -1;
#X obj 661 268 moses -1000;
#X obj 735 293 * -1;
#X msg 757 247 -1000;
#X text 740 335 LOWEST VALUE;
#X text 742 351 MIN_VAL;
#X text 665 29 signal;
#X floatatom 703 89 5 0 0 0 - - -;
#X obj 195 407 min;
#X obj 212 435 min;
#X obj 231 462 min;
#X obj 128 331 f;
#X obj 331 314 t b f;
#X floatatom 279 335 5 0 0 0 - - -;
#X obj 532 315 t b f;
#X obj 736 315 t b f;
#X floatatom 230 487 5 0 0 0 - - -;
#X obj 407 398 f;
#X obj 610 381 t b f;
#X obj 811 382 t b f;
#X obj 1015 382 t b f;
#X floatatom 510 553 5 0 0 0 - - -;
#X obj 474 474 max;
#X obj 491 502 max;
#X text 406 433 MAX_VAL;
#X text 617 418 MAX_VAL;
#X text 818 418 MAX_VAL;
#X text 1021 418 MAX_VAL;
#X text 404 417 HIGHEST VALUE;
#X text 615 402 HIGHEST VALUE;
#X text 816 402 HIGHEST VALUE;
#X text 1019 402 HIGHEST VALUE;
#X obj 54 114 moses 20;
#X obj 256 113 moses 20;
#X obj 457 114 moses 20;
#X obj 662 116 moses 20;
#X obj 54 114 moses 20;
#X obj 273 364 moses 20;
#X obj 275 412 moses 20;
#X obj 295 439 moses 20;
#X obj 510 529 max;
#X obj 141 512 makefilename %.1f;
#X obj 625 527 makefilename %.1f;
#X msg 141 529 \; autom_env_min_can label \$1;
#X msg 625 544 \; autom_env_max_can label \$1;
#X obj 554 -1 r reset_sound;
#X obj 757 -1 r reset_sound;
#X obj 353 -1 r reset_sound;
#X obj 150 -1 r reset_sound;
#X connect 0 0 20 0;
#X connect 0 0 110 0;
#X connect 1 0 9 0;
#X connect 1 0 13 0;
#X connect 1 1 2 0;
#X connect 1 1 3 0;
#X connect 1 1 95 0;
#X connect 3 0 1 1;
#X connect 6 0 3 0;
#X connect 8 0 0 0;
#X connect 12 0 14 1;
#X connect 13 0 14 0;
#X connect 14 1 12 0;
#X connect 14 1 15 0;
#X connect 15 0 11 0;
#X connect 15 0 89 0;
#X connect 16 0 12 0;
#X connect 21 0 41 0;
#X connect 21 0 111 0;
#X connect 22 0 31 0;
#X connect 22 0 34 0;
#X connect 22 1 23 0;
#X connect 22 1 24 0;
#X connect 22 1 96 0;
#X connect 24 0 22 1;
#X connect 28 0 24 0;
#X connect 30 0 21 0;
#X connect 33 0 35 1;
#X connect 34 0 35 0;
#X connect 35 1 33 0;
#X connect 35 1 36 0;
#X connect 36 0 90 0;
#X connect 36 0 91 0;
#X connect 37 0 33 0;
#X connect 42 0 63 0;
#X connect 42 0 112 0;
#X connect 43 0 52 0;
#X connect 43 0 56 0;
#X connect 43 1 44 0;
#X connect 43 1 45 0;
#X connect 43 1 97 0;
#X connect 45 0 43 1;
#X connect 49 0 45 0;
#X connect 51 0 42 0;
#X connect 55 0 57 1;
#X connect 56 0 57 0;
#X connect 57 1 55 0;
#X connect 57 1 58 0;
#X connect 58 0 54 0;
#X connect 58 0 92 0;
#X connect 59 0 55 0;
#X connect 64 0 85 0;
#X connect 64 0 113 0;
#X connect 65 0 74 0;
#X connect 65 0 78 0;
#X connect 65 1 66 0;
#X connect 65 1 67 0;
#X connect 65 1 98 0;
#X connect 67 0 65 1;
#X connect 71 0 67 0;
#X connect 73 0 64 0;
#X connect 77 0 79 1;
#X connect 78 0 79 0;
#X connect 79 1 77 0;
#X connect 79 1 80 0;
#X connect 80 0 76 0;
#X connect 80 0 93 0;
#X connect 81 0 77 0;
#X connect 86 0 87 0;
#X connect 87 0 88 0;
#X connect 88 0 94 0;
#X connect 88 0 119 0;
#X connect 89 0 86 0;
#X connect 90 0 89 0;
#X connect 90 1 115 0;
#X connect 92 0 90 0;
#X connect 92 1 116 0;
#X connect 93 0 92 0;
#X connect 93 1 117 0;
#X connect 95 0 100 0;
#X connect 96 0 95 0;
#X connect 96 1 100 1;
#X connect 97 0 96 0;
#X connect 97 1 101 1;
#X connect 98 0 97 0;
#X connect 98 1 118 1;
#X connect 100 0 101 0;
#X connect 101 0 118 0;
#X connect 110 1 1 0;
#X connect 111 1 22 0;
#X connect 112 1 43 0;
#X connect 113 1 65 0;
#X connect 115 1 86 1;
#X connect 116 1 87 1;
#X connect 117 1 88 1;
#X connect 118 0 99 0;
#X connect 118 0 120 0;
#X connect 119 0 121 0;
#X connect 120 0 122 0;
#X connect 123 0 49 0;
#X connect 123 0 59 0;
#X connect 124 0 71 0;
#X connect 124 0 81 0;
#X connect 125 0 28 0;
#X connect 125 0 37 0;
#X connect 126 0 6 0;
#X connect 126 0 16 0;
#X restore 15 446 pd min_max_4_info~;
#X obj 429 392 env~ 8192;
#X floatatom 442 421 5 0 0 0 - - -;
#X obj 655 40 s reset_sound;
#X obj 454 38 s reset_sound;
#X obj 597 374 r auto_beat;
#X floatatom 579 408 5 0 0 0 - - -;
#X obj 689 412 spigot;
#X obj 634 410 - 1;
#X floatatom 655 489 5 0 0 0 - - -;
#X floatatom 55 359 5 0 0 0 - - -;
#X floatatom 665 499 5 0 0 0 - - -;
#X msg 888 215 0.1;
#X obj 163 84 *~ 1;
#X obj 29 8 r soundtrack_weight;
#X obj 311 20 r audioInput_weight;
#X floatatom 86 81 5 0 0 0 - - -;
#X connect 0 1 2 0;
#X connect 2 1 39 0;
#X connect 3 0 5 0;
#X connect 3 0 4 0;
#X connect 3 0 65 0;
#X connect 4 0 0 0;
#X connect 5 0 0 0;
#X connect 6 0 40 0;
#X connect 6 1 40 1;
#X connect 14 0 12 0;
#X connect 15 0 16 0;
#X connect 15 0 18 0;
#X connect 15 0 21 0;
#X connect 16 0 15 1;
#X connect 17 0 15 1;
#X connect 18 0 19 0;
#X connect 18 0 20 0;
#X connect 19 0 18 1;
#X connect 20 0 79 0;
#X connect 20 0 81 0;
#X connect 21 0 24 0;
#X connect 22 0 15 0;
#X connect 23 0 22 0;
#X connect 24 0 17 0;
#X connect 25 0 26 0;
#X connect 25 0 55 0;
#X connect 26 0 25 1;
#X connect 27 0 25 0;
#X connect 29 0 23 1;
#X connect 29 0 37 0;
#X connect 30 0 24 1;
#X connect 30 0 38 0;
#X connect 31 0 21 0;
#X connect 32 0 50 0;
#X connect 32 1 8 0;
#X connect 32 1 66 1;
#X connect 33 0 51 0;
#X connect 33 1 9 0;
#X connect 33 1 66 2;
#X connect 34 0 52 0;
#X connect 34 1 10 0;
#X connect 34 1 66 3;
#X connect 35 0 41 1;
#X connect 36 0 41 0;
#X connect 39 0 23 0;
#X connect 39 0 49 0;
#X connect 39 0 66 4;
#X connect 39 0 60 0;
#X connect 40 0 43 0;
#X connect 41 0 85 0;
#X connect 42 0 45 0;
#X connect 43 0 42 1;
#X connect 45 0 72 3;
#X connect 45 0 57 0;
#X connect 45 0 58 0;
#X connect 45 0 59 0;
#X connect 45 0 0 0;
#X connect 45 0 56 0;
#X connect 46 0 32 0;
#X connect 47 0 33 0;
#X connect 47 0 82 0;
#X connect 48 0 34 0;
#X connect 50 0 66 1;
#X connect 51 0 66 2;
#X connect 52 0 66 3;
#X connect 55 0 54 1;
#X connect 56 0 53 0;
#X connect 56 0 54 0;
#X connect 57 0 46 0;
#X connect 57 0 72 0;
#X connect 58 0 47 0;
#X connect 58 0 72 1;
#X connect 59 0 48 0;
#X connect 59 0 72 2;
#X connect 61 0 43 1;
#X connect 62 0 65 0;
#X connect 64 0 66 0;
#X connect 65 0 13 0;
#X connect 65 0 0 0;
#X connect 66 0 67 0;
#X connect 67 0 7 0;
#X connect 69 0 75 0;
#X connect 71 0 76 0;
#X connect 73 0 74 0;
#X connect 77 0 78 0;
#X connect 77 0 80 0;
#X connect 79 0 14 0;
#X connect 79 0 83 0;
#X connect 80 0 79 1;
#X connect 84 0 23 1;
#X connect 85 0 42 0;
#X connect 86 0 85 1;
#X connect 86 0 88 0;
#X connect 87 0 43 1;
#X connect 87 0 44 0;
#X restore 205 206 pd sound_analysis;
#X text 251 170 MIN MAX AUTOM;
#X text 198 97 Camera Params;
#N canvas 177 50 430 397 CameraCAParams 0;
#X obj 27 37 vsl 15 128 0 128 0 0 empty cameraExposure EXPOS 0 -9 0
14 -162280 -1 -4034 0 1;
#X obj 76 38 vsl 15 128 0 128 0 0 empty cameraGain GAIN 0 -9 0 14 -162280
-1 -4034 0 1;
#X obj 124 38 vsl 15 128 0 128 0 0 empty cameraBrightness BRIGHT 0
-9 0 14 -162280 -1 -4034 0 1;
#X obj 185 39 vsl 15 128 0 128 0 0 empty cameraSaturation SAT 0 -9
0 14 -162280 -1 -4034 0 1;
#X obj 276 42 vsl 15 128 0 128 0 0 empty cameraContrast CONTR 0 -9
0 14 -162280 -1 -4034 0 1;
#X obj 229 40 vsl 15 128 0 1 0 0 empty cameraGamma GAMMA 0 -9 0 14
-162280 -1 -4034 0 1;
#X obj 307 246 cnv 15 60 25 empty empty CA_PARAMS 0 12 1 14 -1 -4034
0;
#X obj 309 268 cnv 15 40 25 empty CAParams1_can 0.755 0 12 1 14 -1
-262144 0;
#X obj 309 286 cnv 15 40 25 empty CAParams2_can 0.598 0 12 1 14 -1
-262144 0;
#X obj 309 304 cnv 15 40 25 empty CAParams3_can 0.598 0 12 1 14 -1
-262144 0;
#X obj 309 321 cnv 15 40 25 empty CAParams4_can 0.606 0 12 1 14 -1
-262144 0;
#X obj 366 267 cnv 15 40 25 empty CAParams5_can 0.669 0 12 1 14 -1
-262144 0;
#X obj 364 287 cnv 15 40 25 empty CAParams6_can 0.464 0 12 1 14 -1
-262144 0;
#N canvas 72 507 1181 300 camExpGainBrightSatGammaContr 0;
#X obj 943 116 s message;
#X obj 943 29 inlet;
#X msg 943 99 send /cameraContrast \$1;
#X obj 785 115 s message;
#X obj 785 28 inlet;
#X msg 785 98 send /cameraGamma \$1;
#X obj 577 120 s message;
#X obj 577 33 inlet;
#X msg 577 103 send /cameraSaturation \$1;
#X obj 377 122 s message;
#X obj 377 35 inlet;
#X msg 377 105 send /cameraBrightness \$1;
#X obj 221 126 s message;
#X obj 221 39 inlet;
#X msg 221 109 send /cameraGain \$1;
#X obj 42 130 s message;
#X obj 42 43 inlet;
#X msg 42 112 send /cameraExposure \$1;
#X obj 42 67 / 128;
#X obj 221 63 / 128;
#X obj 377 59 / 128;
#X obj 577 57 / 128;
#X obj 943 55 / 128;
#X obj 785 58 / 128;
#X connect 1 0 22 0;
#X connect 2 0 0 0;
#X connect 4 0 23 0;
#X connect 5 0 3 0;
#X connect 7 0 21 0;
#X connect 8 0 6 0;
#X connect 10 0 20 0;
#X connect 11 0 9 0;
#X connect 13 0 19 0;
#X connect 14 0 12 0;
#X connect 16 0 18 0;
#X connect 17 0 15 0;
#X connect 18 0 17 0;
#X connect 19 0 14 0;
#X connect 20 0 11 0;
#X connect 21 0 8 0;
#X connect 22 0 2 0;
#X connect 23 0 5 0;
#X restore 49 179 pd camExpGainBrightSatGammaContr;
#X obj 23 216 vsl 15 128 0 128 0 0 empty cameraExposure CAPa1 0 -9
0 14 -162280 -1 -4034 0 1;
#X obj 72 217 vsl 15 128 0 128 0 0 empty cameraGain CAPa2 0 -9 0 14
-162280 -1 -4034 0 1;
#X obj 120 217 vsl 15 128 0 128 0 0 empty cameraBrightness CAPa3 0
-9 0 14 -162280 -1 -4034 0 1;
#X obj 181 218 vsl 15 128 0 128 0 0 empty cameraSaturation CAPa4 0
-9 0 14 -162280 -1 -4034 0 1;
#X obj 272 221 vsl 15 128 0 128 0 0 empty cameraContrast CAPa6 0 -9
0 14 -162280 -1 -4034 0 1;
#X obj 225 219 vsl 15 128 0 1 0 0 empty cameraGamma CAPa5 0 -9 0 14
-162280 -1 -4034 0 1;
#N canvas 72 507 1181 300 camCAParams 0;
#X obj 943 116 s message;
#X obj 943 29 inlet;
#X obj 765 115 s message;
#X obj 765 28 inlet;
#X obj 577 120 s message;
#X obj 577 33 inlet;
#X obj 403 122 s message;
#X obj 403 35 inlet;
#X obj 221 126 s message;
#X obj 221 39 inlet;
#X obj 42 130 s message;
#X obj 42 43 inlet;
#X obj 42 67 / 128;
#X obj 221 63 / 128;
#X obj 403 59 / 128;
#X obj 577 57 / 128;
#X obj 943 55 / 128;
#X obj 765 58 / 128;
#X msg 42 112 send /CAParams1 \$1;
#X msg 221 109 send /CAParams2 \$1;
#X msg 403 105 send /CAParams3 \$1;
#X msg 577 103 send /CAParams4 \$1;
#X msg 765 98 send /CAParams5 \$1;
#X msg 943 99 send /CAParams6 \$1;
#X connect 1 0 16 0;
#X connect 3 0 17 0;
#X connect 5 0 15 0;
#X connect 7 0 14 0;
#X connect 9 0 13 0;
#X connect 11 0 12 0;
#X connect 12 0 18 0;
#X connect 13 0 19 0;
#X connect 14 0 20 0;
#X connect 15 0 21 0;
#X connect 16 0 23 0;
#X connect 17 0 22 0;
#X connect 18 0 10 0;
#X connect 19 0 8 0;
#X connect 20 0 6 0;
#X connect 21 0 4 0;
#X connect 22 0 2 0;
#X connect 23 0 0 0;
#X restore 45 358 pd camCAParams;
#X connect 0 0 13 0;
#X connect 1 0 13 1;
#X connect 2 0 13 2;
#X connect 3 0 13 3;
#X connect 4 0 13 5;
#X connect 5 0 13 4;
#X connect 14 0 20 0;
#X connect 15 0 20 1;
#X connect 16 0 20 2;
#X connect 17 0 20 3;
#X connect 18 0 20 5;
#X connect 19 0 20 4;
#X restore 200 113 pd CameraCAParams;
#X obj 22 258 cnv 15 150 35 empty autom_env_min_can 20.1 0 18 1 36
-204800 -33289 0;
#X obj 186 257 cnv 15 150 35 empty autom_env_max_can 100.7 0 18 1 36
-262130 -33289 0;
#X obj 23 322 cnv 15 150 35 empty sound_env_min_can 25.0 0 18 1 48
-4032 -33289 0;
#X obj 186 319 cnv 15 150 35 empty sound_env_max_can 91.0 0 18 1 48
-257985 -33289 0;
#X obj 24 188 cnv 15 150 35 empty beat_threshold_can 0.87 0 18 1 48
-232576 -33289 0;
#X text 18 234 OBSERVED SOUND MIN AND MAX;
#X text 21 302 DEFINED SOUND MIN AND MAX;
#X text 250 157 RESET SOUND;
#X text 250 182 OBSERVATION;
#X text 23 168 BEAT THRESHOLD;
#X connect 0 0 7 0;
#X connect 1 0 7 1;
#X connect 2 0 0 0;
#X connect 5 0 6 0;
#X connect 12 0 8 0;
#X connect 13 0 14 0;
