#N canvas 0 453 377 175 10;
#X obj 23 45 bng 100 250 50 0 empty empty empty 0 -6 0 8 -24198 -1
-1;
#X obj 123 105 bng 40 250 50 0 empty empty empty 0 -6 0 8 -258699 -1
-1;
#X obj 22 28 loadbang;
#X text 16 12 UDP connection;
#X text 124 14 AUDIO ON;
#X obj 123 30 loadbang;
#X msg 123 46 \; pd dsp 1;
#N canvas 212 490 781 299 UDPinOut 1;
#X msg 147 52 disconnect;
#X text 11 -4 OPEN UDP CONNECTION;
#X text 153 -4 CLOSE UDP CONNECTION;
#X obj 69 12 inlet;
#X obj 147 14 inlet;
#X floatatom 69 245 5 0 0 0 - - -;
#X obj 186 29 r disconnect;
#X obj 78 106 r connect;
#X text 155 113 Porphyrograph;
#X text 314 -1 OSC message processing;
#X obj 318 236 s connect;
#X msg 317 256 send /PD_connected;
#X obj 318 24 udpreceive 1990;
#X obj 69 223 udpsend;
#X text 452 0 from processing;
#X obj 634 135 s hesitation_0_weight;
#X obj 332 135 s hesitation_0_fileName;
#X obj 332 112 route 0 1 2 3 4;
#X obj 349 158 s hesitation_1_fileName;
#X obj 366 185 s hesitation_2_fileName;
#X obj 383 211 s hesitation_3_fileName;
#X obj 401 236 s hesitation_4_fileName;
#X obj 122 160 r messageOSC;
#X obj 317 275 s messageOSC;
#X obj 496 113 route 0 1 2 3 4;
#X obj 496 136 s sentence_0_fileName;
#X obj 513 159 s sentence_1_fileName;
#X obj 530 186 s sentence_2_fileName;
#X obj 547 212 s sentence_3_fileName;
#X obj 565 237 s sentence_4_fileName;
#X obj 318 68 route /connect /PD_connected /hesitation /sentence /reset_samples
;
#X msg 69 134 connect 127.0.0.1 9000;
#X obj 611 113 s reset_samples;
#X obj 485 41 print receive;
#X obj 193 246 print send;
#X connect 0 0 13 0;
#X connect 3 0 31 0;
#X connect 4 0 0 0;
#X connect 6 0 0 0;
#X connect 7 0 31 0;
#X connect 11 0 23 0;
#X connect 12 0 33 0;
#X connect 12 0 30 0;
#X connect 13 0 5 0;
#X connect 17 0 16 0;
#X connect 17 1 18 0;
#X connect 17 2 19 0;
#X connect 17 3 20 0;
#X connect 17 4 21 0;
#X connect 22 0 34 0;
#X connect 22 0 13 0;
#X connect 24 0 25 0;
#X connect 24 1 26 0;
#X connect 24 2 27 0;
#X connect 24 3 28 0;
#X connect 24 4 29 0;
#X connect 30 0 10 0;
#X connect 30 1 11 0;
#X connect 30 2 17 0;
#X connect 30 3 24 0;
#X connect 30 4 32 0;
#X connect 31 0 13 0;
#X coords 0 0 10 10 0 0 0;
#X restore 23 145 pd UDPinOut;
#X text 189 12 SOUNDTRACKS;
#N canvas 190 269 1522 588 play_hesitation 0;
#X msg 64 119 open \$1;
#X obj 60 194 readsf~ 2;
#X msg 36 154 1;
#X obj 36 118 bng 15 250 50 0 empty empty empty 17 7 0 10 -262144 -1
-1;
#X obj 64 29 pack s;
#X obj 449 473 s~ channel1;
#X obj 594 479 s~ channel2;
#X obj 493 500 dac~ 1 2;
#X symbolatom 64 69 60 0 0 0 - - -;
#X text 15 1 TRACK NAME SENT BY PROCESSING;
#X obj 36 12 r hesitation_0_fileName;
#X obj 329 191 readsf~ 2;
#X obj 598 191 readsf~ 2;
#X msg 163 159 0.2;
#X obj 166 226 *~ 0.2;
#X obj 61 232 *~ 0.2;
#X obj 191 309 +~;
#X obj 234 307 +~;
#X obj 397 225 *~ 0.2;
#X obj 292 231 *~ 0.2;
#X obj 362 345 +~;
#X obj 405 343 +~;
#X obj 655 221 *~ 0.2;
#X obj 550 227 *~ 0.2;
#X obj 871 193 readsf~ 2;
#X obj 928 223 *~ 0.2;
#X obj 823 229 *~ 0.2;
#X obj 429 396 +~;
#X obj 472 394 +~;
#X obj 1141 191 readsf~ 2;
#X obj 1192 219 *~ 0.2;
#X obj 1087 225 *~ 0.2;
#X obj 510 439 +~;
#X obj 553 437 +~;
#X obj 64 171 spigot;
#X obj 191 142 loadbang;
#X msg 130 131 1;
#X msg 130 154 0;
#X msg 333 116 open \$1;
#X msg 305 151 1;
#X obj 305 115 bng 15 250 50 0 empty empty empty 17 7 0 10 -262144
-1 -1;
#X obj 333 26 pack s;
#X symbolatom 333 49 60 0 0 0 - - -;
#X msg 432 156 0.2;
#X obj 333 168 spigot;
#X obj 460 139 loadbang;
#X msg 399 128 1;
#X msg 399 151 0;
#X msg 601 118 open \$1;
#X msg 573 153 1;
#X obj 573 117 bng 15 250 50 0 empty empty empty 17 7 0 10 -262144
-1 -1;
#X obj 601 28 pack s;
#X symbolatom 601 68 60 0 0 0 - - -;
#X msg 700 158 0.2;
#X obj 601 170 spigot;
#X obj 728 141 loadbang;
#X msg 667 130 1;
#X msg 667 153 0;
#X msg 877 118 open \$1;
#X msg 849 153 1;
#X obj 849 117 bng 15 250 50 0 empty empty empty 17 7 0 10 -262144
-1 -1;
#X obj 877 28 pack s;
#X symbolatom 877 49 60 0 0 0 - - -;
#X msg 976 158 0.2;
#X obj 877 170 spigot;
#X obj 1004 141 loadbang;
#X msg 943 130 1;
#X msg 943 153 0;
#X msg 1150 116 open \$1;
#X msg 1122 151 1;
#X obj 1122 115 bng 15 250 50 0 empty empty empty 17 7 0 10 -262144
-1 -1;
#X obj 1150 26 pack s;
#X symbolatom 1150 66 60 0 0 0 - - -;
#X msg 1249 156 0.2;
#X obj 1122 134 delay 10;
#X obj 1150 168 spigot;
#X obj 1277 139 loadbang;
#X msg 1216 128 1;
#X msg 1216 151 0;
#X obj 1122 9 r hesitation_4_fileName;
#X obj 849 11 r hesitation_3_fileName;
#X obj 573 11 r hesitation_2_fileName;
#X obj 305 9 r hesitation_1_fileName;
#X floatatom 195 196 5 0 0 0 - - -;
#X floatatom 451 194 5 0 0 0 - - -;
#X floatatom 717 200 5 0 0 0 - - -;
#X floatatom 1006 193 5 0 0 0 - - -;
#X floatatom 1283 195 5 0 0 0 - - -;
#X obj 163 122 r hesitation_0_vol;
#X obj 432 119 r hesitation_1_vol;
#X obj 700 121 r hesitation_2_vol;
#X obj 976 121 r hesitation_3_vol;
#X obj 1249 119 r hesitation_4_vol;
#X obj 130 97 r reset_samples;
#X obj 399 94 r reset_samples;
#X obj 667 96 r reset_samples;
#X obj 943 96 r reset_samples;
#X obj 1216 94 r reset_samples;
#X obj 305 134 delay 100;
#X obj 573 136 delay 100;
#X obj 849 136 delay 100;
#X obj 36 137 delay 100;
#X connect 0 0 34 0;
#X connect 1 0 15 0;
#X connect 1 1 14 0;
#X connect 1 2 36 0;
#X connect 2 0 1 0;
#X connect 3 0 101 0;
#X connect 4 0 8 0;
#X connect 8 0 0 0;
#X connect 10 0 3 0;
#X connect 10 0 4 0;
#X connect 11 0 19 0;
#X connect 11 1 18 0;
#X connect 11 2 46 0;
#X connect 12 0 23 0;
#X connect 12 1 22 0;
#X connect 12 2 56 0;
#X connect 13 0 14 1;
#X connect 13 0 15 1;
#X connect 14 0 17 0;
#X connect 15 0 16 0;
#X connect 16 0 20 0;
#X connect 17 0 21 0;
#X connect 18 0 17 1;
#X connect 19 0 16 1;
#X connect 20 0 27 0;
#X connect 21 0 28 0;
#X connect 22 0 21 1;
#X connect 23 0 20 1;
#X connect 24 0 26 0;
#X connect 24 1 25 0;
#X connect 24 2 66 0;
#X connect 25 0 28 1;
#X connect 26 0 27 1;
#X connect 27 0 32 0;
#X connect 28 0 33 0;
#X connect 29 0 31 0;
#X connect 29 1 30 0;
#X connect 29 2 77 0;
#X connect 30 0 33 1;
#X connect 31 0 32 1;
#X connect 32 0 5 0;
#X connect 32 0 7 0;
#X connect 33 0 7 1;
#X connect 33 0 6 0;
#X connect 34 0 1 0;
#X connect 35 0 13 0;
#X connect 36 0 34 1;
#X connect 36 0 83 0;
#X connect 37 0 34 1;
#X connect 37 0 83 0;
#X connect 38 0 44 0;
#X connect 39 0 11 0;
#X connect 40 0 98 0;
#X connect 41 0 42 0;
#X connect 42 0 38 0;
#X connect 43 0 19 1;
#X connect 43 0 18 1;
#X connect 44 0 11 0;
#X connect 45 0 43 0;
#X connect 46 0 44 1;
#X connect 46 0 84 0;
#X connect 47 0 44 1;
#X connect 47 0 84 0;
#X connect 48 0 54 0;
#X connect 49 0 12 0;
#X connect 50 0 99 0;
#X connect 51 0 52 0;
#X connect 52 0 48 0;
#X connect 53 0 22 1;
#X connect 53 0 23 1;
#X connect 54 0 12 0;
#X connect 55 0 53 0;
#X connect 56 0 54 1;
#X connect 56 0 85 0;
#X connect 57 0 54 1;
#X connect 57 0 85 0;
#X connect 58 0 64 0;
#X connect 59 0 24 0;
#X connect 60 0 100 0;
#X connect 61 0 62 0;
#X connect 62 0 58 0;
#X connect 63 0 25 1;
#X connect 63 0 26 1;
#X connect 64 0 24 0;
#X connect 65 0 63 0;
#X connect 66 0 64 1;
#X connect 66 0 86 0;
#X connect 67 0 64 1;
#X connect 67 0 86 0;
#X connect 68 0 75 0;
#X connect 69 0 29 0;
#X connect 70 0 74 0;
#X connect 71 0 72 0;
#X connect 72 0 68 0;
#X connect 73 0 30 1;
#X connect 73 0 31 1;
#X connect 74 0 69 0;
#X connect 74 0 78 0;
#X connect 75 0 29 0;
#X connect 76 0 73 0;
#X connect 77 0 75 1;
#X connect 77 0 87 0;
#X connect 78 0 75 1;
#X connect 78 0 87 0;
#X connect 79 0 70 0;
#X connect 79 0 71 0;
#X connect 80 0 60 0;
#X connect 80 0 61 0;
#X connect 81 0 50 0;
#X connect 81 0 51 0;
#X connect 82 0 40 0;
#X connect 82 0 41 0;
#X connect 88 0 13 0;
#X connect 89 0 43 0;
#X connect 90 0 53 0;
#X connect 91 0 63 0;
#X connect 92 0 73 0;
#X connect 93 0 36 0;
#X connect 94 0 46 0;
#X connect 95 0 56 0;
#X connect 96 0 66 0;
#X connect 97 0 77 0;
#X connect 98 0 39 0;
#X connect 98 0 47 0;
#X connect 99 0 49 0;
#X connect 99 0 57 0;
#X connect 100 0 59 0;
#X connect 100 0 67 0;
#X connect 101 0 2 0;
#X connect 101 0 37 0;
#X restore 192 30 pd play_hesitation;
#X obj 192 96 loadbang;
#X obj 192 113 s reset_samples;
#N canvas 27 409 1541 611 play_sentences 0;
#X msg 63 165 open \$1;
#X obj 59 286 readsf~ 2;
#X msg 35 223 1;
#X obj 35 187 bng 15 250 50 0 empty empty empty 17 7 0 10 -262144 -1
-1;
#X obj 63 98 pack s;
#X obj 474 562 s~ channel1;
#X obj 616 563 s~ channel2;
#X obj 552 562 dac~ 1 2;
#X symbolatom 63 138 60 0 0 0 - - -;
#X obj 328 283 readsf~ 2;
#X obj 597 283 readsf~ 2;
#X msg 175 254 0.2;
#X obj 165 318 *~ 0.2;
#X obj 60 324 *~ 0.2;
#X obj 314 380 +~;
#X obj 378 378 +~;
#X obj 396 317 *~ 0.2;
#X obj 291 323 *~ 0.2;
#X obj 395 437 +~;
#X obj 459 435 +~;
#X obj 654 313 *~ 0.2;
#X obj 549 319 *~ 0.2;
#X obj 870 285 readsf~ 2;
#X obj 927 315 *~ 0.2;
#X obj 822 321 *~ 0.2;
#X obj 462 488 +~;
#X obj 526 486 +~;
#X obj 1140 283 readsf~ 2;
#X obj 1191 311 *~ 0.2;
#X obj 1086 317 *~ 0.2;
#X obj 543 531 +~;
#X obj 607 529 +~;
#X obj 203 237 loadbang;
#X msg 185 64 1;
#X msg 138 62 0;
#X msg 332 162 open \$1;
#X msg 304 220 1;
#X obj 304 184 bng 15 250 50 0 empty empty empty 17 7 0 10 -262144
-1 -1;
#X obj 332 95 pack s;
#X symbolatom 332 118 60 0 0 0 - - -;
#X msg 600 164 open \$1;
#X msg 572 222 1;
#X obj 572 186 bng 15 250 50 0 empty empty empty 17 7 0 10 -262144
-1 -1;
#X obj 600 97 pack s;
#X symbolatom 600 141 60 0 0 0 - - -;
#X msg 699 227 0.2;
#X obj 727 210 loadbang;
#X msg 876 164 open \$1;
#X msg 848 222 1;
#X obj 848 186 bng 15 250 50 0 empty empty empty 17 7 0 10 -262144
-1 -1;
#X obj 876 97 pack s;
#X symbolatom 876 118 60 0 0 0 - - -;
#X msg 975 227 0.2;
#X obj 1003 210 loadbang;
#X msg 1149 162 open \$1;
#X msg 1121 220 1;
#X obj 1121 184 bng 15 250 50 0 empty empty empty 17 7 0 10 -262144
-1 -1;
#X obj 1149 95 pack s;
#X symbolatom 1149 139 60 0 0 0 - - -;
#X msg 1248 225 0.2;
#X obj 1276 208 loadbang;
#X obj 185 43 r reset_samples;
#X obj 1248 188 r sentence_4_vol;
#X obj 975 190 r sentence_3_vol;
#X obj 699 191 r sentence_2_vol;
#X obj 175 217 r sentence_0_vol;
#X obj 35 206 delay 1000;
#X obj 304 203 delay 1000;
#X obj 572 205 delay 1000;
#X obj 848 205 delay 1000;
#X obj 1121 203 delay 1000;
#X obj 185 100 s ready0;
#X obj 131 381 r ready2;
#X obj 189 382 r ready3;
#X obj 246 382 r ready4;
#X obj 135 513 spigot;
#X obj 204 535 s messageOSC;
#X msg 204 518 send /next_sentence;
#X obj 27 533 metro 1000;
#X obj 135 531 bng 15 250 50 0 empty empty empty 17 7 0 10 -262144
-1 -1;
#X obj 27 518 bng 15 250 50 0 empty empty empty 17 7 0 10 -262144 -1
-1;
#X floatatom 285 466 5 0 0 0 - - -;
#X floatatom 245 466 5 0 0 0 - - -;
#X floatatom 322 467 5 0 0 0 - - -;
#X floatatom 362 468 5 0 0 0 - - -;
#X floatatom 402 469 5 0 0 0 - - -;
#X floatatom 246 488 5 0 0 0 - - -;
#X text 21 46 comment;
#X obj 38 25 r sentence_0_fileName;
#X obj 304 22 r sentence_1_fileName;
#X obj 575 24 r sentence_2_fileName;
#X obj 851 24 r sentence_3_fileName;
#X obj 1124 22 r sentence_4_fileName;
#X text 24 9 comment;
#X obj 35 62 spigot;
#X obj 304 59 spigot;
#X obj 573 61 spigot;
#X obj 848 61 spigot;
#X obj 1121 59 spigot;
#X obj 68 44 r ready0;
#X msg 394 250 0.2;
#X obj 422 233 loadbang;
#X obj 394 214 r sentence_2_vol;
#X msg 716 67 1;
#X msg 669 65 0;
#X obj 716 46 r reset_samples;
#X msg 1001 63 1;
#X msg 954 61 0;
#X obj 1001 42 r reset_samples;
#X msg 1278 65 1;
#X msg 1231 63 0;
#X obj 1278 44 r reset_samples;
#X msg 474 50 1;
#X msg 427 48 0;
#X obj 474 29 r reset_samples;
#X obj 1001 99 s ready3;
#X obj 1278 101 s ready4;
#X obj 716 103 s ready2;
#X obj 474 86 s ready1;
#X obj 337 41 r ready1;
#X obj 606 44 r ready2;
#X obj 881 44 r ready3;
#X obj 1154 41 r ready4;
#X obj 73 381 r ready1;
#X obj 18 381 r ready0;
#X obj 27 501 r reset_samples;
#X obj 73 406 t b f;
#X obj 43 429 &&;
#X obj 115 431 t b f;
#X obj 85 454 &&;
#X obj 158 452 t b f;
#X obj 128 475 &&;
#X obj 199 473 t b f;
#X obj 169 496 &&;
#X connect 0 0 1 0;
#X connect 1 0 13 0;
#X connect 1 1 12 0;
#X connect 1 2 33 0;
#X connect 2 0 1 0;
#X connect 3 0 66 0;
#X connect 4 0 8 0;
#X connect 8 0 0 0;
#X connect 9 0 17 0;
#X connect 9 1 16 0;
#X connect 9 2 112 0;
#X connect 10 0 21 0;
#X connect 10 1 20 0;
#X connect 10 2 103 0;
#X connect 11 0 12 1;
#X connect 11 0 13 1;
#X connect 12 0 15 0;
#X connect 13 0 14 0;
#X connect 14 0 18 0;
#X connect 15 0 19 0;
#X connect 16 0 15 1;
#X connect 17 0 14 1;
#X connect 18 0 25 0;
#X connect 19 0 26 0;
#X connect 20 0 19 1;
#X connect 21 0 18 1;
#X connect 22 0 24 0;
#X connect 22 1 23 0;
#X connect 22 2 106 0;
#X connect 23 0 26 1;
#X connect 24 0 25 1;
#X connect 25 0 30 0;
#X connect 26 0 31 0;
#X connect 27 0 29 0;
#X connect 27 1 28 0;
#X connect 27 2 109 0;
#X connect 28 0 31 1;
#X connect 29 0 30 1;
#X connect 30 0 5 0;
#X connect 30 0 7 0;
#X connect 31 0 7 1;
#X connect 31 0 6 0;
#X connect 32 0 11 0;
#X connect 33 0 71 0;
#X connect 34 0 71 0;
#X connect 35 0 9 0;
#X connect 36 0 9 0;
#X connect 37 0 67 0;
#X connect 38 0 39 0;
#X connect 39 0 35 0;
#X connect 40 0 10 0;
#X connect 41 0 10 0;
#X connect 42 0 68 0;
#X connect 43 0 44 0;
#X connect 44 0 40 0;
#X connect 45 0 20 1;
#X connect 45 0 21 1;
#X connect 46 0 45 0;
#X connect 47 0 22 0;
#X connect 48 0 22 0;
#X connect 49 0 69 0;
#X connect 50 0 51 0;
#X connect 51 0 47 0;
#X connect 52 0 23 1;
#X connect 52 0 24 1;
#X connect 53 0 52 0;
#X connect 54 0 27 0;
#X connect 55 0 27 0;
#X connect 56 0 70 0;
#X connect 57 0 58 0;
#X connect 58 0 54 0;
#X connect 59 0 28 1;
#X connect 59 0 29 1;
#X connect 60 0 59 0;
#X connect 61 0 33 0;
#X connect 62 0 59 0;
#X connect 63 0 52 0;
#X connect 64 0 45 0;
#X connect 65 0 11 0;
#X connect 66 0 2 0;
#X connect 66 0 34 0;
#X connect 67 0 36 0;
#X connect 67 0 113 0;
#X connect 68 0 41 0;
#X connect 68 0 104 0;
#X connect 69 0 48 0;
#X connect 69 0 107 0;
#X connect 70 0 55 0;
#X connect 70 0 110 0;
#X connect 72 0 83 0;
#X connect 72 0 128 0;
#X connect 73 0 84 0;
#X connect 73 0 130 0;
#X connect 74 0 85 0;
#X connect 74 0 132 0;
#X connect 75 0 79 0;
#X connect 77 0 76 0;
#X connect 78 0 75 0;
#X connect 79 0 77 0;
#X connect 80 0 78 0;
#X connect 88 0 94 0;
#X connect 89 0 95 0;
#X connect 90 0 96 0;
#X connect 91 0 97 0;
#X connect 92 0 98 0;
#X connect 94 0 3 0;
#X connect 94 0 4 0;
#X connect 95 0 37 0;
#X connect 95 0 38 0;
#X connect 96 0 42 0;
#X connect 96 0 43 0;
#X connect 97 0 49 0;
#X connect 97 0 50 0;
#X connect 98 0 56 0;
#X connect 98 0 57 0;
#X connect 99 0 94 1;
#X connect 100 0 16 1;
#X connect 100 0 17 1;
#X connect 101 0 100 0;
#X connect 102 0 100 0;
#X connect 103 0 117 0;
#X connect 104 0 117 0;
#X connect 105 0 103 0;
#X connect 106 0 115 0;
#X connect 107 0 115 0;
#X connect 108 0 106 0;
#X connect 109 0 116 0;
#X connect 110 0 116 0;
#X connect 111 0 109 0;
#X connect 112 0 118 0;
#X connect 113 0 118 0;
#X connect 114 0 112 0;
#X connect 119 0 95 1;
#X connect 120 0 96 1;
#X connect 121 0 97 1;
#X connect 122 0 98 1;
#X connect 123 0 81 0;
#X connect 123 0 126 0;
#X connect 124 0 82 0;
#X connect 124 0 127 0;
#X connect 125 0 80 0;
#X connect 126 0 127 0;
#X connect 126 1 127 1;
#X connect 127 0 129 0;
#X connect 128 0 129 0;
#X connect 128 1 129 1;
#X connect 129 0 131 0;
#X connect 130 0 131 0;
#X connect 130 1 131 1;
#X connect 131 0 133 0;
#X connect 132 0 133 0;
#X connect 132 1 133 1;
#X connect 133 0 86 0;
#X connect 133 0 75 1;
#X restore 192 50 pd play_sentences;
#X connect 0 0 7 0;
#X connect 1 0 7 1;
#X connect 2 0 0 0;
#X connect 5 0 6 0;
#X connect 10 0 11 0;
