#N canvas -8 -8 1366 685 10;
#X msg -905 394 disconnect;
#X obj -964 346 bng 50 250 50 0 empty empty empty 0 -6 0 8 -24198 -1
-1;
#X obj -898 345 bng 50 250 50 0 empty empty empty 0 -6 0 8 -258699
-1 -1;
#X text -970 325 OPEN UDP CONNECTION;
#X obj -987 396 send reset;
#X obj -901 875 bng 15 250 50 0 empty empty empty 0 -6 0 8 -262144
-1 -1;
#X obj -901 932 vsl 15 128 0 1 0 0 0 empty empty 0 -8 0 8 -258113 -1
-1 3810 1;
#X obj -886 932 vsl 15 128 0 1 0 0 0 empty empty 0 -8 0 8 -260097 -1
-1 254 1;
#X obj -871 932 vsl 15 128 0 1 0 0 0 empty empty 0 -8 0 8 -257985 -1
-1 3810 1;
#X obj -821 1072 bng 15 250 50 0 empty empty empty 0 -6 0 8 -262144
-1 -1;
#X obj -903 1072 pack f f f;
#X obj -901 858 r reset;
#X obj -720 484 print;
#X obj -800 360 receive reset;
#X msg -934 890 0.3;
#X msg -880 890 0.02;
#X msg -830 890 0.3;
#X msg -112 239 send /LolaMachine \$1 \$2 \$3;
#X msg -800 385 connect 127.0.0.1 57120;
#X text -844 339 messages for the SC OSC server;
#X obj -937 855 / 127;
#X obj -885 840 / 127;
#X obj -885 824 ctlin 7 2;
#X obj -855 856 / 127;
#X obj -959 873 ctlin 7 1;
#X obj -856 875 ctlin 7 3;
#X obj -33 271 send oscOut;
#X obj 318 225 ctlin;
#X floatatom 271 265 5 0 0 0 - - -;
#X floatatom 323 270 5 0 0 0 - - -;
#X floatatom 362 260 5 0 0 0 - - -;
#X obj -822 -32 bng 15 250 50 0 empty empty empty 0 -6 0 8 -262144
-1 -1;
#X obj -802 11 vsl 15 128 0 1 0 0 0 empty empty 0 -8 0 8 -260097 -1
-1 0 1;
#X obj -787 11 vsl 15 128 0 1 0 0 0 empty empty 0 -8 0 8 -260097 -1
-1 254 1;
#X obj -756 11 vsl 15 128 0 1 0 0 0 empty empty 0 -8 0 8 -260097 -1
-1 3810 1;
#X obj -715 144 bng 15 250 50 0 empty empty empty 0 -6 0 8 -262144
-1 -1;
#X obj -795 -35 r reset;
#X msg -811 -11 0.02;
#X msg -781 -12 0.3;
#X obj -727 6 / 127;
#X obj -727 46 / 127;
#X obj -804 187 send oscOut;
#X obj -1018 -33 bng 15 250 50 0 empty empty empty 0 -6 0 8 -262144
-1 -1;
#X obj -1013 14 vsl 15 128 0 10 0 0 0 empty empty 0 -8 0 8 -258113
-1 -1 581 1;
#X obj -998 14 vsl 15 128 0 1 0 0 0 empty empty 0 -8 0 8 -258113 -1
-1 454 1;
#X obj -984 14 vsl 15 128 0 20 0 0 0 empty empty 0 -8 0 8 -258113 -1
-1 1090 1;
#X obj -936 149 bng 15 250 50 0 empty empty empty 0 -6 0 8 -262144
-1 -1;
#X obj -998 -35 r reset;
#X msg -1024 -11 0.3;
#X msg -998 -10 0.02;
#X msg -968 -11 0.3;
#X obj -1016 185 send oscOut;
#X obj -912 85 ctlin 10 1;
#X obj -914 33 ctlin 12 1;
#X obj -915 -17 ctlin 13 1;
#X obj -607 0 bng 15 250 50 0 empty empty empty 0 -6 0 8 -262144 -1
-1;
#X obj -574 43 vsl 15 128 0 1 0 0 0 empty empty 0 -8 0 8 -257985 -1
-1 0 1;
#X obj -557 44 vsl 15 128 0 1 0 0 0 empty empty 0 -8 0 8 -257985 -1
-1 8890 1;
#X obj -542 43 vsl 15 128 0 1 0 0 0 empty empty 0 -8 0 8 -257985 -1
-1 3810 1;
#X obj -504 179 bng 15 250 50 0 empty empty empty 0 -6 0 8 -262144
-1 -1;
#X obj -586 -3 r reset;
#X msg -608 20 0.3;
#X msg -579 20 0.02;
#X msg -545 21 0.3;
#X obj -497 35 / 127;
#X obj -502 75 / 127;
#X obj -501 121 / 127;
#X obj -585 217 send oscOut;
#X obj -727 -17 ctlin 10 2;
#X obj -728 28 ctlin 12 2;
#X obj -728 68 ctlin 13 2;
#X obj -494 15 ctlin 10 3;
#X obj -502 59 ctlin 12 3;
#X obj -501 98 ctlin 13 3;
#X obj 880 4 bng 15 250 50 0 empty empty empty 0 -6 0 8 -262144 -1
-1;
#X obj 826 57 vsl 15 128 0 1 0 0 0 empty empty 0 -8 0 8 -4032 -1 -1
0 1;
#X obj 848 65 vsl 15 128 0 1 0 0 0 empty empty 0 -8 0 8 -4032 -1 -1
0 1;
#X obj 874 68 vsl 15 128 0.01 1 0 0 0 empty empty 0 -8 0 8 -4032 -1
-1 0 1;
#X obj 880 -13 r reset;
#X obj 796 26 / 127;
#X obj 1001 9 / 127;
#X obj 897 241 send oscOut;
#X obj 1116 -16 bng 15 250 50 0 empty empty empty 0 -6 0 8 -262144
-1 -1;
#X obj 1158 33 vsl 15 128 0 1 0 0 0 empty empty 0 -8 0 8 -4160 -1 -1
3810 1;
#X obj 1175 34 vsl 15 128 0 1 0 0 0 empty empty 0 -8 0 8 -4160 -1 -1
254 1;
#X obj 1193 33 vsl 15 128 0 1 0 0 0 empty empty 0 -8 0 8 -4160 -1 -1
3810 1;
#X obj 1196 175 bng 15 250 50 0 empty empty empty 0 -6 0 8 -262144
-1 -1;
#X obj 1143 -16 r reset;
#X msg 1124 11 0.3;
#X msg 1151 11 0.02;
#X msg 1178 9 0.3;
#X obj 1232 13 / 127;
#X obj 1231 56 / 127;
#X obj 1230 101 / 127;
#X obj 1198 219 send oscOut;
#X obj -367 -18 bng 15 250 50 0 empty empty empty 0 -6 0 8 -262144
-1 -1;
#X obj -338 23 vsl 15 128 0 1 0 0 0 empty empty 0 -8 0 8 -4034 -1 -1
3810 1;
#X obj -323 23 vsl 15 128 0 1 0 0 0 empty empty 0 -8 0 8 -4034 -1 -1
254 1;
#X obj -309 23 vsl 15 128 0 1 0 0 0 empty empty 0 -8 0 8 -4034 -1 -1
3810 1;
#X obj -253 156 bng 15 250 50 0 empty empty empty 0 -6 0 8 -262144
-1 -1;
#X obj -347 -19 r reset;
#X msg -369 1 0.3;
#X msg -344 2 0.02;
#X msg -312 1 0.3;
#X obj -268 21 / 127;
#X obj -273 65 / 127;
#X obj -276 100 / 127;
#X obj -338 200 send oscOut;
#X obj -268 0 ctlin 10 4;
#X obj -275 44 ctlin 12 4;
#X obj -276 80 ctlin 13 4;
#X obj -980 989 bng 15 250 50 0 empty empty empty 0 -6 0 8 -262144
-1 -1;
#X obj -980 1046 vsl 15 128 0 1 0 0 0 empty empty 0 -8 0 8 -4034 -1
-1 3810 1;
#X obj -965 1047 vsl 15 128 0 1 0 0 0 empty empty 0 -8 0 8 -4032 -1
-1 254 1;
#X obj -950 1046 vsl 15 128 0 1 0 0 0 empty empty 0 -8 0 8 -4160 -1
-1 3810 1;
#X obj -900 1186 bng 15 250 50 0 empty empty empty 0 -6 0 8 -262144
-1 -1;
#X obj -982 1186 pack f f f;
#X obj -980 972 r reset;
#X msg -1013 1004 0.3;
#X msg -959 1004 0.02;
#X msg -909 1004 0.3;
#X msg -1022 1202 send /LolaMachine \$1 \$2 \$3;
#X obj -1016 967 / 127;
#X obj -964 954 / 127;
#X obj -930 972 / 127;
#X obj -982 1221 send oscOut;
#X obj -1038 986 ctlin 7 4;
#X obj -964 938 ctlin 7 5;
#X obj -933 988 ctlin 7 6;
#X obj 1231 34 ctlin 10 6;
#X obj 1232 78 ctlin 12 6;
#X obj 1228 118 ctlin 13 6;
#X obj -137 366 bng 15 250 50 0 empty empty empty 0 -6 0 8 -262144
-1 -1;
#X obj -137 423 vsl 15 128 0 1 0 0 0 empty empty 0 -8 0 8 -159808 -1
-1 3810 1;
#X obj -122 424 vsl 15 128 0 1 0 0 0 empty empty 0 -8 0 8 -162280 -1
-1 254 1;
#X obj -107 423 vsl 15 128 0 1 0 0 0 empty empty 0 -8 0 8 -262144 -1
-1 3810 1;
#X obj -87 533 bng 15 250 50 0 empty empty empty 0 -6 0 8 -262144 -1
-1;
#X obj -139 563 pack f f f;
#X obj -137 349 r reset;
#X msg -134 388 0.3;
#X msg -116 381 0.02;
#X msg -97 286 0.3;
#X obj -167 338 / 127;
#X obj -121 331 / 127;
#X obj -86 343 / 127;
#X obj -139 598 send oscOut;
#X obj 1434 23 bng 15 250 50 0 empty empty empty 0 -6 0 8 -262144 -1
-1;
#X obj 1409 88 vsl 15 128 0 1 0 0 0 empty empty 0 -8 0 8 -159808 -1
-1 3810 1;
#X obj 1424 88 vsl 15 128 0 1 0 0 0 empty empty 0 -8 0 8 -159808 -1
-1 254 1;
#X obj 1439 88 vsl 15 128 0 1 0 0 0 empty empty 0 -8 0 8 -159808 -1
-1 3810 1;
#X obj 1517 207 bng 15 250 50 0 empty empty empty 0 -6 0 8 -262144
-1 -1;
#X obj 1434 6 r reset;
#X msg 1350 75 0.3;
#X msg 1455 38 0.02;
#X msg 1505 38 0.3;
#X obj 1397 -4 / 127;
#X obj 1450 -12 / 127;
#X obj 1484 4 / 127;
#X text 1464 -46 knops 7;
#X obj 1350 45 ctlin 10 7;
#X obj 1450 -28 ctlin 12 7;
#X obj 1472 22 ctlin 13 7;
#X obj 1610 12 bng 15 250 50 0 empty empty empty 0 -6 0 8 -262144 -1
-1;
#X obj 1589 47 vsl 15 128 0 1 0 0 0 empty empty 0 -8 0 8 -162280 -1
-1 3810 1;
#X obj 1605 47 vsl 15 128 0 1 0 0 0 empty empty 0 -8 0 8 -162280 -1
-1 254 1;
#X obj 1620 47 vsl 15 128 0 1 0 0 0 empty empty 0 -8 0 8 -162280 -1
-1 3810 1;
#X obj 1610 -5 r reset;
#X msg 1577 27 0.3;
#X msg 1606 28 0.02;
#X msg 1638 26 0.3;
#X obj 1696 7 / 127;
#X obj 1693 45 / 127;
#X obj 1694 85 / 127;
#X obj 1696 26 ctlin 10 8;
#X obj 1695 67 ctlin 12 8;
#X obj 1695 103 ctlin 13 8;
#X obj -192 357 ctlin 7 7;
#X obj -121 315 ctlin 7 8;
#X obj -108 364 ctlin 28 1;
#X text -905 798 Slider1 2 3;
#X text -982 920 Slider4 5 6;
#X text -144 299 Slider7 8 9;
#X obj -969 14 vsl 15 128 0 1 0 0 0 empty empty 0 -8 0 8 -258113 -1
-1 0 1;
#X obj -908 147 / 127;
#X obj -908 131 ctlin 7 1;
#X obj -1015 146 pack f f f f;
#X msg -1016 167 send /PDdelay \$1 \$2 \$3 \$4;
#X obj -772 11 vsl 15 128 0.01 1 1 0 0 empty empty 0 -8 0 8 -260097
-1 -1 9380 1;
#X obj -803 149 pack f f f f;
#X obj -727 125 / 127;
#X obj -727 107 ctlin 7 2;
#X obj -505 160 / 127;
#X obj -526 43 vsl 15 128 0 1 0 0 0 empty empty 0 -8 0 8 -257985 -1
-1 8890 1;
#X obj -586 179 pack f f f f;
#X obj -504 139 ctlin 7 3;
#X obj -294 23 vsl 15 128 0 1 0 0 0 empty empty 0 -8 0 8 -4034 -1 -1
3810 1;
#X obj -272 137 / 127;
#X obj -338 157 pack f f f f;
#X obj -275 117 ctlin 7 4;
#X obj 907 54 vsl 15 128 0 1 0 0 0 empty empty 0 -8 0 8 -4032 -1 -1
0 1;
#X obj 1210 40 vsl 15 128 0 1 0 0 0 empty empty 0 -8 0 8 -4160 -1 -1
0 1;
#X obj 1460 89 vsl 15 128 0 1 0 0 0 empty empty 0 -8 0 8 -159808 -1
-1 0 1;
#X obj 1408 220 pack f f f f;
#X obj 1492 -9 / 127;
#X obj 1489 19 ctlin 7 7;
#X obj 1639 48 vsl 15 128 0 1 0 0 0 empty empty 0 -8 0 8 -162280 -1
-1 0 1;
#X obj 1603 187 pack f f f f;
#X obj 1693 124 / 127;
#X obj 1693 145 ctlin 7 8;
#X msg -834 -12 0;
#X msg 1374 236 send /LolaMachine \$1 \$2 \$3 \$4;
#X obj -914 50 / 127;
#X obj -914 0 / 127;
#X obj -1032 352 loadbang;
#X text -1007 -58 DELAY;
#X text -587 -22 ALVANOTO + DISTORTION;
#X text -789 -53 ROOM;
#X obj -727 86 / 127;
#X text 1467 253 looper;
#X msg 1602 209 send /PDlooper \$1 \$2 \$3 \$4;
#X floatatom -903 539 5 0 0 0 - - -;
#X obj 1572 186 bng 15 250 50 0 empty empty empty 17 7 0 10 -262144
-1 -1;
#X text 812 -39 SCsounds;
#X msg 957 27 0;
#X obj -613 373 bng 15 250 50 0 empty empty empty 17 7 0 10 -232576
-1 -1;
#X obj -613 345 ctlin 19 1;
#X obj -346 375 bng 15 250 50 0 empty empty empty 17 7 0 10 -232576
-1 -1;
#X msg -613 398 send /PDmatches_on;
#X obj 1418 252 send oscOut;
#X obj 1601 233 send oscOut;
#X obj -613 425 send oscOut;
#X obj -349 431 send oscOut;
#X msg -803 166 send /PDRoom \$1 \$2 \$3 \$4;
#X msg -584 197 send /PDAlvaNoto \$1 \$2 \$3 \$4;
#X msg -349 400 send /PDdinostep_on;
#X obj -349 348 ctlin 21 1;
#X text -622 321 matches on;
#X obj -475 380 bng 15 250 50 0 empty empty empty 17 7 0 10 -232576
-1 -1;
#X obj -478 436 send oscOut;
#X obj -478 353 ctlin 20 1;
#X text -474 329 Weav on;
#X obj -607 807 bng 15 250 50 0 empty empty empty 17 7 0 10 -232576
-1 -1;
#X obj -610 863 send oscOut;
#X obj -443 810 bng 15 250 50 0 empty empty empty 17 7 0 10 -232576
-1 -1;
#X obj -444 863 send oscOut;
#X text -604 760 delay;
#X text -569 759 room;
#X text -602 749 alvanoto;
#X obj -613 527 bng 15 250 50 0 empty empty empty 17 7 0 10 -232576
-1 -1;
#X obj -616 583 send oscOut;
#X obj -610 780 ctlin 14 1;
#X obj -478 528 bng 15 250 50 0 empty empty empty 17 7 0 10 -232576
-1 -1;
#X obj -481 584 send oscOut;
#X obj -323 528 bng 15 250 50 0 empty empty empty 17 7 0 10 -232576
-1 -1;
#X obj -326 584 send oscOut;
#X obj -618 670 bng 15 250 50 0 empty empty empty 17 7 0 10 -232576
-1 -1;
#X obj -621 726 send oscOut;
#X obj -471 668 bng 15 250 50 0 empty empty empty 17 7 0 10 -232576
-1 -1;
#X obj -474 724 send oscOut;
#X text -473 472 Backtrack 2;
#X text -613 614 Backtrack 4;
#X text -487 613 Backtrack 5;
#X obj -616 500 ctlin 22 1;
#X obj -481 501 ctlin 23 1;
#X obj -326 501 ctlin 24 1;
#X obj -618 645 ctlin 25 1;
#X obj -474 641 ctlin 26 1;
#X msg -616 552 send /PDbt1_on;
#X msg -621 695 send /PDbt4_on;
#X msg -474 693 send /PDbt5_on;
#X msg -478 405 send /PDweav_on;
#X msg -610 832 send /PDdelayroom_on;
#X obj -444 780 ctlin 15 1;
#X msg -518 21 0;
#X msg -945 -11 0;
#X text -333 318 Dinosteps on;
#X msg 879 27 0;
#X msg 904 27 0;
#X obj 772 279 send oscOut;
#X obj 912 205 send oscOut;
#X msg 927 27 0;
#X obj 853 205 bng 15 250 50 0 empty empty empty 17 7 0 10 -262144
-1 -1;
#X obj 827 232 pack f f;
#X msg 772 257 send /PDweav_vol \$1 \$2;
#X msg 898 223 send /PDmatch_vol \$1;
#X msg 932 167 send /PDdino_vol \$1;
#X text 1158 -39 BACKTRACK volume;
#X msg 1201 9 0;
#X obj 1216 176 pack f;
#X msg 1200 197 send /PDbt_vol \$1;
#X obj -322 677 bng 15 250 50 0 empty empty empty 17 7 0 10 -232576
-1 -1;
#X obj -325 733 send oscOut;
#X obj -325 650 ctlin 27 1;
#X obj 1079 191 send oscOut;
#X msg 1069 171 send /PDdraw_vol \$1;
#X msg -757 -13 0.3;
#X msg -288 2 0.3;
#X msg -326 553 send /PDbt2_on;
#X obj 931 -19 - 3;
#X obj 930 0 / 124;
#X obj 818 3 - 3;
#X obj 837 26 / 124;
#X floatatom 1155 225 5 0 0 0 - - -;
#X obj 1207 -10 - 3;
#X obj 1237 138 / 124;
#X msg -444 833 send /testUDP_fromPD;
#X text -317 621 NINE backtrack;
#X text -608 471 d-cONT backtrack;
#X text -318 472 CityWalk backtrack;
#X msg -325 702 send /;
#X msg -481 553 send /PDnine;
#X obj -616 252 key;
#X floatatom -586 252 5 0 0 0 - - -;
#X obj -618 273 select 97;
#X msg -622 61 0.7;
#X msg -613 116 0.7;
#X msg -613 151 0.4;
#X text -614 236 a alva noto on;
#X obj -519 251 key;
#X floatatom -489 251 5 0 0 0 - - -;
#X obj -521 272 select 111;
#X msg -619 212 0;
#X text -517 235 o alva noto off;
#X text 1145 225 comment;
#X text -347 -41 RYTME 1;
#X obj -149 -24 bng 15 250 50 0 empty empty empty 0 -6 0 8 -262144
-1 -1;
#X obj -120 17 vsl 15 128 0 1 0 0 0 empty empty 0 -8 0 8 -4034 -1 -1
3810 1;
#X obj -105 17 vsl 15 128 0 1 0 0 0 empty empty 0 -8 0 8 -4034 -1 -1
254 1;
#X obj -91 17 vsl 15 128 0 1 0 0 0 empty empty 0 -8 0 8 -4034 -1 -1
3810 1;
#X obj -35 150 bng 15 250 50 0 empty empty empty 0 -6 0 8 -262144 -1
-1;
#X obj -129 -25 r reset;
#X msg -151 -5 0.3;
#X msg -126 -4 0.02;
#X msg -94 -5 0.3;
#X obj -38 11 / 127;
#X obj -50 58 / 127;
#X obj -58 94 / 127;
#X obj -120 194 send oscOut;
#X obj -76 17 vsl 15 128 0 1 0 0 0 empty empty 0 -8 0 8 -4034 -1 -1
3810 1;
#X obj -54 131 / 127;
#X obj -120 151 pack f f f f;
#X msg -70 -4 0.3;
#X text -129 -47 RYTME 2;
#X obj -14 -28 ctlin 10 5;
#X obj -57 38 ctlin 12 5;
#X obj -58 74 ctlin 13 5;
#X obj -57 111 ctlin 7 5;
#X obj 746 4 ctlin 10 8;
#X obj 1014 -23 ctlin 13 8;
#X obj 817 -18 ctlin 7 8;
#X obj 99 -28 bng 15 250 50 0 empty empty empty 0 -6 0 8 -262144 -1
-1;
#X obj 128 13 vsl 15 128 0 1 0 0 0 empty empty 0 -8 0 8 -4034 -1 -1
3810 1;
#X obj 143 13 vsl 15 128 0 1 0 0 0 empty empty 0 -8 0 8 -4034 -1 -1
254 1;
#X obj 157 13 vsl 15 128 0 1 0 0 0 empty empty 0 -8 0 8 -4034 -1 -1
3810 1;
#X obj 213 146 bng 15 250 50 0 empty empty empty 0 -6 0 8 -262144 -1
-1;
#X obj 119 -29 r reset;
#X msg 97 -9 0.3;
#X msg 122 -8 0.02;
#X msg 154 -9 0.3;
#X obj 210 7 / 127;
#X obj 198 54 / 127;
#X obj 190 90 / 127;
#X obj 128 190 send oscOut;
#X obj 172 13 vsl 15 128 0 1 0 0 0 empty empty 0 -8 0 8 -4034 -1 -1
3810 1;
#X obj 194 127 / 127;
#X obj 128 147 pack f f f f;
#X msg 178 -8 0.3;
#X obj 322 -33 bng 15 250 50 0 empty empty empty 0 -6 0 8 -262144 -1
-1;
#X obj 351 8 vsl 15 128 0 1 0 0 0 empty empty 0 -8 0 8 -4034 -1 -1
3810 1;
#X obj 366 8 vsl 15 128 0 1 0 0 0 empty empty 0 -8 0 8 -4034 -1 -1
254 1;
#X obj 380 8 vsl 15 128 0 1 0 0 0 empty empty 0 -8 0 8 -4034 -1 -1
3810 1;
#X obj 436 141 bng 15 250 50 0 empty empty empty 0 -6 0 8 -262144 -1
-1;
#X obj 342 -34 r reset;
#X msg 320 -14 0.3;
#X msg 345 -13 0.02;
#X msg 377 -14 0.3;
#X obj 433 2 / 127;
#X obj 421 49 / 127;
#X obj 413 85 / 127;
#X obj 351 185 send oscOut;
#X obj 395 8 vsl 15 128 0 1 0 0 0 empty empty 0 -8 0 8 -4034 -1 -1
3810 1;
#X obj 417 122 / 127;
#X obj 351 142 pack f f f f;
#X msg 401 -13 0.3;
#X text 119 -51 RYTME 3;
#X text 342 -56 RYTME 4;
#X obj 191 107 ctlin 7 6;
#X obj 190 70 ctlin 13 6;
#X obj 191 34 ctlin 12 6;
#X obj 234 -32 ctlin 10 6;
#X obj 457 -37 ctlin 10 7;
#X obj 414 29 ctlin 12 7;
#X obj 413 65 ctlin 13 7;
#X obj 414 102 ctlin 7 7;
#X msg -180 579 send /tordenvol \$1 \$2 \$3;
#X obj 931 -40 ctlin 12 8;
#X obj 1231 158 ctlin 28 1;
#X floatatom -315 245 5 0 0 0 - - -;
#X text -848 407 comment;
#X obj -827 441 receive oscOut;
#X obj -903 515 sendOSC;
#X msg -124 170 send /Darkearth_on \$1 \$2 \$3 \$4;
#X msg -342 175 send /Fallingman_on \$1 \$2 \$3 \$4;
#X msg 114 168 send /Quiet1_on \$1 \$2 \$3 \$4;
#X msg 348 161 send /Quiet2_on \$1 \$2 \$3 \$4;
#X obj -912 102 / 12.7;
#X text -929 68 delay duration;
#X text -927 15 on:off;
#X text -934 114 volume;
#X connect 0 0 400 0;
#X connect 1 0 4 0;
#X connect 2 0 0 0;
#X connect 5 0 14 0;
#X connect 5 0 15 0;
#X connect 5 0 16 0;
#X connect 6 0 10 0;
#X connect 7 0 9 0;
#X connect 7 0 10 1;
#X connect 8 0 9 0;
#X connect 8 0 10 2;
#X connect 9 0 10 0;
#X connect 11 0 5 0;
#X connect 13 0 18 0;
#X connect 14 0 6 0;
#X connect 15 0 7 0;
#X connect 16 0 8 0;
#X connect 17 0 26 0;
#X connect 18 0 400 0;
#X connect 20 0 6 0;
#X connect 21 0 7 0;
#X connect 22 0 21 0;
#X connect 23 0 8 0;
#X connect 24 0 20 0;
#X connect 25 0 23 0;
#X connect 27 0 28 0;
#X connect 27 1 29 0;
#X connect 27 2 30 0;
#X connect 31 0 209 0;
#X connect 31 0 37 0;
#X connect 31 0 38 0;
#X connect 31 0 295 0;
#X connect 32 0 188 0;
#X connect 33 0 35 0;
#X connect 33 0 188 1;
#X connect 34 0 35 0;
#X connect 34 0 188 3;
#X connect 35 0 188 0;
#X connect 36 0 31 0;
#X connect 37 0 33 0;
#X connect 38 0 187 0;
#X connect 39 0 32 0;
#X connect 40 0 33 0;
#X connect 42 0 48 0;
#X connect 42 0 49 0;
#X connect 42 0 50 0;
#X connect 42 0 274 0;
#X connect 43 0 185 0;
#X connect 44 0 46 0;
#X connect 44 0 185 1;
#X connect 45 0 46 0;
#X connect 45 0 185 2;
#X connect 46 0 185 0;
#X connect 47 0 42 0;
#X connect 48 0 43 0;
#X connect 49 0 44 0;
#X connect 50 0 45 0;
#X connect 52 0 405 0;
#X connect 53 0 211 0;
#X connect 54 0 212 0;
#X connect 55 0 61 0;
#X connect 55 0 62 0;
#X connect 55 0 63 0;
#X connect 55 0 273 0;
#X connect 56 0 193 0;
#X connect 57 0 59 0;
#X connect 57 0 193 1;
#X connect 58 0 59 0;
#X connect 58 0 193 2;
#X connect 59 0 193 0;
#X connect 60 0 55 0;
#X connect 61 0 56 0;
#X connect 62 0 57 0;
#X connect 63 0 58 0;
#X connect 64 0 56 0;
#X connect 65 0 57 0;
#X connect 66 0 58 0;
#X connect 68 0 39 0;
#X connect 69 0 40 0;
#X connect 70 0 217 0;
#X connect 71 0 64 0;
#X connect 72 0 65 0;
#X connect 73 0 66 0;
#X connect 74 0 276 0;
#X connect 74 0 277 0;
#X connect 74 0 223 0;
#X connect 74 0 280 0;
#X connect 75 0 282 0;
#X connect 76 0 284 0;
#X connect 77 0 285 0;
#X connect 78 0 74 0;
#X connect 79 0 75 0;
#X connect 80 0 77 0;
#X connect 82 0 88 0;
#X connect 82 0 89 0;
#X connect 82 0 90 0;
#X connect 82 0 287 0;
#X connect 83 0 86 0;
#X connect 83 0 294 0;
#X connect 84 0 86 0;
#X connect 85 0 86 0;
#X connect 87 0 82 0;
#X connect 88 0 83 0;
#X connect 89 0 84 0;
#X connect 90 0 85 0;
#X connect 91 0 83 0;
#X connect 92 0 84 0;
#X connect 93 0 85 0;
#X connect 95 0 101 0;
#X connect 95 0 102 0;
#X connect 95 0 103 0;
#X connect 95 0 296 0;
#X connect 96 0 197 0;
#X connect 97 0 99 0;
#X connect 97 0 197 1;
#X connect 98 0 99 0;
#X connect 98 0 197 2;
#X connect 98 0 397 0;
#X connect 99 0 197 0;
#X connect 100 0 95 0;
#X connect 101 0 96 0;
#X connect 102 0 97 0;
#X connect 103 0 98 0;
#X connect 104 0 96 0;
#X connect 105 0 97 0;
#X connect 106 0 98 0;
#X connect 108 0 104 0;
#X connect 109 0 105 0;
#X connect 110 0 106 0;
#X connect 111 0 118 0;
#X connect 111 0 119 0;
#X connect 111 0 120 0;
#X connect 112 0 116 0;
#X connect 113 0 115 0;
#X connect 113 0 116 1;
#X connect 114 0 115 0;
#X connect 114 0 116 2;
#X connect 115 0 116 0;
#X connect 116 0 121 0;
#X connect 117 0 111 0;
#X connect 118 0 112 0;
#X connect 119 0 113 0;
#X connect 120 0 114 0;
#X connect 121 0 125 0;
#X connect 122 0 112 0;
#X connect 123 0 113 0;
#X connect 124 0 114 0;
#X connect 126 0 122 0;
#X connect 127 0 123 0;
#X connect 128 0 124 0;
#X connect 129 0 91 0;
#X connect 130 0 92 0;
#X connect 131 0 93 0;
#X connect 132 0 139 0;
#X connect 132 0 140 0;
#X connect 132 0 141 0;
#X connect 133 0 137 0;
#X connect 134 0 136 0;
#X connect 134 0 137 1;
#X connect 135 0 136 0;
#X connect 135 0 137 2;
#X connect 136 0 137 0;
#X connect 137 0 394 0;
#X connect 138 0 132 0;
#X connect 139 0 133 0;
#X connect 140 0 134 0;
#X connect 141 0 135 0;
#X connect 142 0 133 0;
#X connect 143 0 134 0;
#X connect 144 0 135 0;
#X connect 146 0 152 0;
#X connect 146 0 153 0;
#X connect 146 0 154 0;
#X connect 147 0 202 0;
#X connect 148 0 150 0;
#X connect 148 0 202 1;
#X connect 149 0 150 0;
#X connect 149 0 202 2;
#X connect 150 0 202 0;
#X connect 151 0 146 0;
#X connect 152 0 147 0;
#X connect 153 0 148 0;
#X connect 154 0 149 0;
#X connect 155 0 147 0;
#X connect 156 0 148 0;
#X connect 157 0 149 0;
#X connect 159 0 155 0;
#X connect 160 0 156 0;
#X connect 161 0 157 0;
#X connect 162 0 167 0;
#X connect 162 0 168 0;
#X connect 162 0 169 0;
#X connect 163 0 206 0;
#X connect 164 0 206 1;
#X connect 164 0 221 0;
#X connect 165 0 206 2;
#X connect 165 0 221 0;
#X connect 166 0 162 0;
#X connect 167 0 163 0;
#X connect 168 0 164 0;
#X connect 169 0 165 0;
#X connect 170 0 163 0;
#X connect 171 0 164 0;
#X connect 172 0 165 0;
#X connect 173 0 170 0;
#X connect 174 0 171 0;
#X connect 175 0 172 0;
#X connect 176 0 142 0;
#X connect 177 0 143 0;
#X connect 178 0 144 0;
#X connect 182 0 46 0;
#X connect 182 0 185 3;
#X connect 183 0 182 0;
#X connect 184 0 183 0;
#X connect 185 0 186 0;
#X connect 186 0 51 0;
#X connect 187 0 188 2;
#X connect 187 0 35 0;
#X connect 188 0 232 0;
#X connect 189 0 34 0;
#X connect 190 0 189 0;
#X connect 191 0 192 0;
#X connect 192 0 193 3;
#X connect 192 0 59 0;
#X connect 193 0 233 0;
#X connect 194 0 191 0;
#X connect 195 0 197 3;
#X connect 195 0 99 0;
#X connect 196 0 195 0;
#X connect 197 0 402 0;
#X connect 198 0 196 0;
#X connect 199 0 281 0;
#X connect 199 0 282 1;
#X connect 200 0 86 0;
#X connect 200 0 288 0;
#X connect 200 0 302 0;
#X connect 201 0 202 3;
#X connect 201 0 150 0;
#X connect 202 0 210 0;
#X connect 203 0 201 0;
#X connect 204 0 203 0;
#X connect 205 0 206 3;
#X connect 205 0 221 0;
#X connect 206 0 219 0;
#X connect 207 0 205 0;
#X connect 208 0 207 0;
#X connect 209 0 32 0;
#X connect 210 0 228 0;
#X connect 211 0 44 0;
#X connect 213 0 4 0;
#X connect 217 0 187 0;
#X connect 219 0 229 0;
#X connect 221 0 206 0;
#X connect 223 0 77 0;
#X connect 224 0 227 0;
#X connect 225 0 224 0;
#X connect 226 0 234 0;
#X connect 227 0 230 0;
#X connect 232 0 41 0;
#X connect 233 0 67 0;
#X connect 234 0 231 0;
#X connect 235 0 226 0;
#X connect 237 0 270 0;
#X connect 239 0 237 0;
#X connect 241 0 271 0;
#X connect 243 0 305 0;
#X connect 248 0 267 0;
#X connect 250 0 241 0;
#X connect 251 0 310 0;
#X connect 253 0 297 0;
#X connect 255 0 268 0;
#X connect 257 0 269 0;
#X connect 262 0 248 0;
#X connect 263 0 251 0;
#X connect 264 0 253 0;
#X connect 265 0 255 0;
#X connect 266 0 257 0;
#X connect 267 0 249 0;
#X connect 268 0 256 0;
#X connect 269 0 258 0;
#X connect 270 0 238 0;
#X connect 271 0 242 0;
#X connect 272 0 243 0;
#X connect 273 0 192 0;
#X connect 274 0 182 0;
#X connect 276 0 75 0;
#X connect 277 0 76 0;
#X connect 280 0 199 0;
#X connect 281 0 282 0;
#X connect 282 0 283 0;
#X connect 283 0 278 0;
#X connect 284 0 81 0;
#X connect 285 0 279 0;
#X connect 287 0 200 0;
#X connect 288 0 289 0;
#X connect 289 0 94 0;
#X connect 290 0 309 0;
#X connect 292 0 290 0;
#X connect 294 0 293 0;
#X connect 295 0 34 0;
#X connect 296 0 195 0;
#X connect 297 0 254 0;
#X connect 298 0 299 0;
#X connect 299 0 76 0;
#X connect 300 0 301 0;
#X connect 301 0 199 0;
#X connect 303 0 304 0;
#X connect 304 0 200 0;
#X connect 305 0 244 0;
#X connect 309 0 291 0;
#X connect 310 0 252 0;
#X connect 311 0 312 0;
#X connect 311 0 313 0;
#X connect 313 0 314 0;
#X connect 313 0 315 0;
#X connect 313 0 316 0;
#X connect 314 0 57 0;
#X connect 315 0 192 0;
#X connect 316 0 56 0;
#X connect 318 0 319 0;
#X connect 318 0 320 0;
#X connect 320 0 321 0;
#X connect 321 0 56 0;
#X connect 325 0 331 0;
#X connect 325 0 332 0;
#X connect 325 0 333 0;
#X connect 325 0 341 0;
#X connect 326 0 340 0;
#X connect 327 0 329 0;
#X connect 327 0 340 1;
#X connect 328 0 329 0;
#X connect 328 0 340 2;
#X connect 329 0 340 0;
#X connect 330 0 325 0;
#X connect 331 0 326 0;
#X connect 332 0 327 0;
#X connect 333 0 328 0;
#X connect 334 0 326 0;
#X connect 335 0 327 0;
#X connect 336 0 328 0;
#X connect 338 0 340 3;
#X connect 338 0 329 0;
#X connect 339 0 338 0;
#X connect 340 0 401 0;
#X connect 341 0 338 0;
#X connect 343 0 334 0;
#X connect 344 0 335 0;
#X connect 345 0 336 0;
#X connect 346 0 339 0;
#X connect 347 0 79 0;
#X connect 348 0 80 0;
#X connect 349 0 300 0;
#X connect 350 0 356 0;
#X connect 350 0 357 0;
#X connect 350 0 358 0;
#X connect 350 0 366 0;
#X connect 351 0 365 0;
#X connect 352 0 354 0;
#X connect 352 0 365 1;
#X connect 353 0 354 0;
#X connect 353 0 365 2;
#X connect 354 0 365 0;
#X connect 355 0 350 0;
#X connect 356 0 351 0;
#X connect 357 0 352 0;
#X connect 358 0 353 0;
#X connect 359 0 351 0;
#X connect 360 0 352 0;
#X connect 361 0 353 0;
#X connect 363 0 365 3;
#X connect 363 0 354 0;
#X connect 364 0 363 0;
#X connect 365 0 403 0;
#X connect 366 0 363 0;
#X connect 367 0 373 0;
#X connect 367 0 374 0;
#X connect 367 0 375 0;
#X connect 367 0 383 0;
#X connect 368 0 382 0;
#X connect 369 0 371 0;
#X connect 369 0 382 1;
#X connect 370 0 371 0;
#X connect 370 0 382 2;
#X connect 371 0 382 0;
#X connect 372 0 367 0;
#X connect 373 0 368 0;
#X connect 374 0 369 0;
#X connect 375 0 370 0;
#X connect 376 0 368 0;
#X connect 377 0 369 0;
#X connect 378 0 370 0;
#X connect 380 0 382 3;
#X connect 380 0 371 0;
#X connect 381 0 380 0;
#X connect 382 0 404 0;
#X connect 383 0 380 0;
#X connect 386 0 364 0;
#X connect 387 0 361 0;
#X connect 388 0 360 0;
#X connect 389 0 359 0;
#X connect 390 0 376 0;
#X connect 391 0 377 0;
#X connect 392 0 378 0;
#X connect 393 0 381 0;
#X connect 394 0 145 0;
#X connect 395 0 298 0;
#X connect 396 0 303 0;
#X connect 399 0 12 0;
#X connect 399 0 400 0;
#X connect 400 0 220 0;
#X connect 401 0 337 0;
#X connect 402 0 107 0;
#X connect 403 0 362 0;
#X connect 404 0 379 0;
#X connect 405 0 43 0;
