#N canvas 2 1 334 695 10;
#X obj -786 -297 cnv 15 310 660 empty empty empty 20 12 0 14 -1 -66577
0;
#X obj -778 -289 cnv 15 50 25 empty time_can 397:26 0 12 1 14 -24198
-33289 0;
#X obj -775 -178 cnv 15 60 25 empty empty BRUSH: 0 12 1 14 -1 -4034
0;
#X obj -521 -209 vsl 30 60 0 20 0 0 empty soundvolume empty 0 -12 1
20 -162280 -1 -262144 679 1;
#X obj -776 -108 cnv 15 60 25 empty empty TEXT: 0 12 1 14 -1 -4034
0;
#X obj -711 -107 cnv 15 130 25 empty texture_can High_noise 0 12 1
14 -1 -262144 0;
#X obj -639 205 cnv 15 20 25 empty CAdecay_sign_can - 5 12 1 24 -44926
-33289 0;
#X obj -774 -77 cnv 15 60 25 empty empty CA: 0 12 1 14 -1 -4034 0;
#X obj -713 -77 cnv 15 60 25 empty CAType_can Gal_Moore 0 12 1 14 -1
-262144 0;
#X obj -776 -127 cnv 15 60 25 empty empty PART: 0 12 1 14 -1 -4034
0;
#X obj -712 -126 cnv 15 130 25 empty particles_can X 0 12 1 14 -1 -262144
0;
#X obj -775 -197 cnv 15 60 25 empty empty STROKE: 0 12 1 14 -1 -4034
0;
#X obj -710 -197 cnv 15 130 25 empty drawing_can Line 0 12 1 14 -1
-262144 0;
#X obj -775 -159 cnv 15 60 25 empty empty RADIUS: 0 12 1 14 -1 -4034
0;
#X obj -662 3 cnv 15 20 50 empty palette1_can empty 0 12 1 14 -245189
-262144 0;
#X obj -641 3 cnv 15 20 50 empty palette2_can empty 0 12 1 14 -251075
-262144 0;
#X obj -776 -227 cnv 15 60 25 empty empty SCENE: 0 12 1 14 -1 -4034
0;
#X obj -709 -228 cnv 15 130 25 empty setup_can Mermaid 0 12 1 14 -1
-262144 0;
#X obj -777 -253 cnv 15 140 25 empty message_can clear 0 12 1 14 -1
-262144 0;
#X obj -588 -289 cnv 15 100 60 empty empty empty 20 12 0 14 -233017
-66577 0;
#X obj -565 -282 ctlin;
#X floatatom -585 -255 5 0 0 0 - - -;
#X floatatom -554 -255 5 0 0 0 - - -;
#X floatatom -522 -255 5 0 0 0 - - -;
#X obj -712 -288 cnv 15 105 20 empty empty empty 20 12 0 14 -233017
-66577 0;
#N canvas 343 1 379 342 initial_board 0;
#N canvas 76 438 447 279 connect 0;
#X msg 26 -14 disconnect;
#X text -110 -70 OPEN UDP CONNECTION;
#X text 19 -69 CLOSE UDP CONNECTION;
#X msg -50 42 connect 127.0.0.1 1978;
#X obj 3 68 r message;
#X obj -50 -54 inlet;
#X obj 26 -52 inlet;
#X obj 150 68 r message_SC;
#X floatatom 115 145 5 0 0 0 - - -;
#X floatatom -50 153 5 0 0 0 - - -;
#X text 184 4 SUPERCOLLIDER / sclang;
#X obj 65 -37 r disconnect;
#X obj -41 14 r connect;
#X obj 119 4 r connect;
#X obj 150 96 spigot;
#X obj 3 97 spigot;
#X text 20 13 Porphyrograph;
#X obj -50 131 netsend 1;
#X msg 183 21 connect 192.168.0.3 57120;
#X msg 115 43 connect 127.0.0.1 57120;
#X obj 115 122 sendOSC;
#X connect 0 0 17 0;
#X connect 0 0 20 0;
#X connect 3 0 17 0;
#X connect 4 0 15 0;
#X connect 5 0 3 0;
#X connect 6 0 0 0;
#X connect 7 0 14 0;
#X connect 11 0 0 0;
#X connect 12 0 3 0;
#X connect 14 0 20 0;
#X connect 15 0 17 0;
#X connect 17 0 9 0;
#X connect 17 0 15 1;
#X connect 19 0 20 0;
#X connect 20 0 8 0;
#X connect 20 0 14 1;
#X coords 0 0 10 10 0 0 0;
#X restore -689 -213 pd connect;
#N canvas 398 49 1209 631 LYM_spectrum_v4 0;
#X obj 202 -254 bonk~;
#X obj 202 -224 unpack f f f f f f f f f f f;
#X floatatom 502 -25 5 0 0 0 - - -;
#X floatatom 537 -25 5 0 0 0 - - -;
#X floatatom 603 -25 5 0 0 0 - - -;
#X floatatom 639 -25 5 0 0 0 - - -;
#X floatatom 675 -25 5 0 0 0 - - -;
#X obj 559 -335 inlet;
#X obj 915 116 s message;
#X obj 397 115 s message;
#X obj 915 76 spigot;
#X obj 397 75 spigot;
#X obj 430 -335 inlet;
#X obj 338 -173 +;
#X obj 372 -172 +;
#X obj 372 -150 +;
#X obj 405 -151 +;
#X obj 405 -130 +;
#X obj 405 -108 +;
#X text 966 -236 ATTACK OUTPUT;
#X text 338 -192 Sum over 3 spectrum bands;
#X obj 338 -42 /;
#X obj 371 -42 /;
#X obj 405 -42 /;
#X obj 202 -175 +;
#X obj 202 -154 +;
#X obj 202 -133 +;
#X obj 202 -91 +;
#X obj 247 -174 +;
#X obj 247 -153 +;
#X obj 247 -111 +;
#X obj 247 -131 +;
#X obj 304 -74 +;
#X obj 202 58 pack f f;
#X obj 247 -91 +;
#X obj 202 -42 /;
#X obj 247 -42 /;
#X obj 247 -19 * 768;
#X msg 397 98 send /xy_spectrum \$1 \$2;
#X obj 881 -237 unpack f f f;
#X floatatom 974 -220 5 0 0 0 - - -;
#X obj 775 -335 inlet;
#X obj 743 119 s message;
#X obj 742 77 spigot;
#X obj 948 -335 inlet;
#X msg 742 98 send /brush_radius_vol \$1;
#X obj 247 -1 - 384;
#X obj 283 -334 loadbang;
#X msg 309 -294 minvel 0.1;
#X obj 191 -334 r startclock;
#X msg 224 -295 thresh 6 50;
#X obj 162 -294 metro 20;
#X obj 11 -333 adc~ 1 2;
#X obj 755 -115 s soundvolume;
#X obj 338 -152 +;
#X obj 202 -112 +;
#X obj 202 -20 * 768;
#X obj 202 -2 - 384;
#X msg 915 99 send /particle_acc_attack \$1;
#X text 753 -133 LOUDNESS OUTPUT;
#X text 552 -42 SPECTRUM OUTPUT;
#X obj 323 -19 s band1;
#X obj 376 -19 s band2;
#X obj 431 -20 s band3;
#X text 957 -125 Receives amplification coef;
#X text 958 -111 either from slider in PD (USB control);
#X text 958 -98 or from VirChor (keystroke control);
#X text 958 -86 sends value to VC just for visual;
#X text 955 -72 feedback;
#X obj 915 -54 * 0.1024;
#X obj 915 -32 - 0.0512;
#X text 179 -191 Sum over 2 spectrum bands;
#X floatatom 703 -129 5 0 0 0 - - -;
#X obj 56 -288 *~ 1;
#X obj 742 -207 + 1;
#X obj 77 -334 r input_volume;
#N canvas 51 60 1559 883 paletteInterpoaltion 0;
#X obj 280 422 / 765;
#X obj 435 411 / 765;
#X obj 598 418 / 765;
#X obj 384 447 pack f f f;
#X obj -81 -288 bang;
#X msg -85 275 \; palette1_can color \$1;
#X msg 318 277 \; palette2_can color \$1;
#X msg 716 277 \; palette3_can color \$1;
#X obj 192 351 +;
#N canvas 4 105 288 291 colorRGB 0;
#X obj 16 27 inlet;
#X obj 93 28 inlet;
#X text 21 9 red;
#X text 93 11 green;
#X obj 159 107 t b f;
#X obj 93 144 +;
#X obj 93 169 t b f;
#X obj 93 200 +;
#X obj 16 84 * -65536;
#X obj 93 85 * -256;
#X obj 159 85 * -1;
#X obj 93 231 - 1;
#X obj 159 28 inlet;
#X obj 93 258 outlet;
#X text 161 11 blue;
#X obj 16 56 int;
#X obj 93 56 int;
#X obj 159 55 int;
#X connect 0 0 15 0;
#X connect 1 0 16 0;
#X connect 4 0 5 0;
#X connect 4 1 5 1;
#X connect 5 0 6 0;
#X connect 6 0 7 0;
#X connect 6 1 7 1;
#X connect 7 0 11 0;
#X connect 8 0 7 0;
#X connect 9 0 5 0;
#X connect 10 0 4 0;
#X connect 11 0 13 0;
#X connect 12 0 17 0;
#X connect 15 0 8 0;
#X connect 16 0 9 0;
#X connect 17 0 10 0;
#X restore 717 256 pd colorRGB;
#N canvas 177 329 288 291 colorRGB 0;
#X obj 16 27 inlet;
#X obj 93 28 inlet;
#X text 21 9 red;
#X text 93 11 green;
#X obj 159 107 t b f;
#X obj 93 144 +;
#X obj 93 169 t b f;
#X obj 93 200 +;
#X obj 16 84 * -65536;
#X obj 93 85 * -256;
#X obj 159 85 * -1;
#X obj 93 231 - 1;
#X obj 159 28 inlet;
#X obj 93 258 outlet;
#X text 161 11 blue;
#X obj 16 56 int;
#X obj 93 56 int;
#X obj 159 55 int;
#X connect 0 0 15 0;
#X connect 1 0 16 0;
#X connect 4 0 5 0;
#X connect 4 1 5 1;
#X connect 5 0 6 0;
#X connect 6 0 7 0;
#X connect 6 1 7 1;
#X connect 7 0 11 0;
#X connect 8 0 7 0;
#X connect 9 0 5 0;
#X connect 10 0 4 0;
#X connect 11 0 13 0;
#X connect 12 0 17 0;
#X connect 15 0 8 0;
#X connect 16 0 9 0;
#X connect 17 0 10 0;
#X restore -85 255 pd colorRGB;
#N canvas 4 105 288 291 colorRGB 0;
#X obj 16 27 inlet;
#X obj 93 28 inlet;
#X text 21 9 red;
#X text 93 11 green;
#X obj 159 107 t b f;
#X obj 93 144 +;
#X obj 93 169 t b f;
#X obj 93 200 +;
#X obj 16 84 * -65536;
#X obj 93 85 * -256;
#X obj 159 85 * -1;
#X obj 93 231 - 1;
#X obj 159 28 inlet;
#X obj 93 258 outlet;
#X text 161 11 blue;
#X obj 16 56 int;
#X obj 93 56 int;
#X obj 159 55 int;
#X connect 0 0 15 0;
#X connect 1 0 16 0;
#X connect 4 0 5 0;
#X connect 4 1 5 1;
#X connect 5 0 6 0;
#X connect 6 0 7 0;
#X connect 6 1 7 1;
#X connect 7 0 11 0;
#X connect 8 0 7 0;
#X connect 9 0 5 0;
#X connect 10 0 4 0;
#X connect 11 0 13 0;
#X connect 12 0 17 0;
#X connect 15 0 8 0;
#X connect 16 0 9 0;
#X connect 17 0 10 0;
#X restore 319 253 pd colorRGB;
#X obj -81 -255 bang;
#X obj -79 -222 bang;
#X obj -80 -190 bang;
#X obj -82 -159 bang;
#X obj -78 -132 bang;
#X obj -81 -105 bang;
#X obj -13 -313 r RGBspectrum;
#X obj -57 48 expr if ($f1 < 1 \, (1 - $f1) * $f2 + $f1 * $f3 \, if($f1
< 2 \, (2- $f1) * $f3 + ($f1 - 1) * $f4 \, if($f1 < 3 \, (3 - $f1)
* $f4 + ($f1 - 2) * $f5 \, if($f1 < 4 \, (4 - $f1) * $f5 + ($f1 - 3)
* $f6 \, if($f1 < 5 \, (5 - $f1) * $f6 + ($f1 - 4) * $f7 \, if($f1
< 6 \, (6 - $f1) * $f7 + ($f1 - 5) * $f8 \, (7 - $f1) * $f8 + ($f1
- 6) * $f2))))));
#X obj -85 -58 expr if ($f1 < 1 \, (1 - $f1) * $f2 + $f1 * $f3 \, if($f1
< 2 \, (2- $f1) * $f3 + ($f1 - 1) * $f4 \, if($f1 < 3 \, (3 - $f1)
* $f4 + ($f1 - 2) * $f5 \, if($f1 < 4 \, (4 - $f1) * $f5 + ($f1 - 3)
* $f6 \, if($f1 < 5 \, (5 - $f1) * $f6 + ($f1 - 4) * $f7 \, if($f1
< 6 \, (6 - $f1) * $f7 + ($f1 - 5) * $f8 \, (7 - $f1) * $f8 + ($f1
- 6) * $f2))))));
#X obj -44 158 expr if ($f1 < 1 \, (1 - $f1) * $f2 + $f1 * $f3 \, if($f1
< 2 \, (2- $f1) * $f3 + ($f1 - 1) * $f4 \, if($f1 < 3 \, (3 - $f1)
* $f4 + ($f1 - 2) * $f5 \, if($f1 < 4 \, (4 - $f1) * $f5 + ($f1 - 3)
* $f6 \, if($f1 < 5 \, (5 - $f1) * $f6 + ($f1 - 4) * $f7 \, if($f1
< 6 \, (6 - $f1) * $f7 + ($f1 - 5) * $f8 \, (7 - $f1) * $f8 + ($f1
- 6) * $f2))))));
#X obj 319 -59 expr if ($f1 < 1 \, (1 - $f1) * $f2 + $f1 * $f3 \, if($f1
< 2 \, (2- $f1) * $f3 + ($f1 - 1) * $f4 \, if($f1 < 3 \, (3 - $f1)
* $f4 + ($f1 - 2) * $f5 \, if($f1 < 4 \, (4 - $f1) * $f5 + ($f1 - 3)
* $f6 \, if($f1 < 5 \, (5 - $f1) * $f6 + ($f1 - 4) * $f7 \, if($f1
< 6 \, (6 - $f1) * $f7 + ($f1 - 5) * $f8 \, (7 - $f1) * $f8 + ($f1
- 6) * $f2))))));
#X obj 350 45 expr if ($f1 < 1 \, (1 - $f1) * $f2 + $f1 * $f3 \, if($f1
< 2 \, (2- $f1) * $f3 + ($f1 - 1) * $f4 \, if($f1 < 3 \, (3 - $f1)
* $f4 + ($f1 - 2) * $f5 \, if($f1 < 4 \, (4 - $f1) * $f5 + ($f1 - 3)
* $f6 \, if($f1 < 5 \, (5 - $f1) * $f6 + ($f1 - 4) * $f7 \, if($f1
< 6 \, (6 - $f1) * $f7 + ($f1 - 5) * $f8 \, (7 - $f1) * $f8 + ($f1
- 6) * $f2))))));
#X obj 359 155 expr if ($f1 < 1 \, (1 - $f1) * $f2 + $f1 * $f3 \, if($f1
< 2 \, (2- $f1) * $f3 + ($f1 - 1) * $f4 \, if($f1 < 3 \, (3 - $f1)
* $f4 + ($f1 - 2) * $f5 \, if($f1 < 4 \, (4 - $f1) * $f5 + ($f1 - 3)
* $f6 \, if($f1 < 5 \, (5 - $f1) * $f6 + ($f1 - 4) * $f7 \, if($f1
< 6 \, (6 - $f1) * $f7 + ($f1 - 5) * $f8 \, (7 - $f1) * $f8 + ($f1
- 6) * $f2))))));
#X obj 717 -57 expr if ($f1 < 1 \, (1 - $f1) * $f2 + $f1 * $f3 \, if($f1
< 2 \, (2- $f1) * $f3 + ($f1 - 1) * $f4 \, if($f1 < 3 \, (3 - $f1)
* $f4 + ($f1 - 2) * $f5 \, if($f1 < 4 \, (4 - $f1) * $f5 + ($f1 - 3)
* $f6 \, if($f1 < 5 \, (5 - $f1) * $f6 + ($f1 - 4) * $f7 \, if($f1
< 6 \, (6 - $f1) * $f7 + ($f1 - 5) * $f8 \, (7 - $f1) * $f8 + ($f1
- 6) * $f2))))));
#X obj 748 48 expr if ($f1 < 1 \, (1 - $f1) * $f2 + $f1 * $f3 \, if($f1
< 2 \, (2- $f1) * $f3 + ($f1 - 1) * $f4 \, if($f1 < 3 \, (3 - $f1)
* $f4 + ($f1 - 2) * $f5 \, if($f1 < 4 \, (4 - $f1) * $f5 + ($f1 - 3)
* $f6 \, if($f1 < 5 \, (5 - $f1) * $f6 + ($f1 - 4) * $f7 \, if($f1
< 6 \, (6 - $f1) * $f7 + ($f1 - 5) * $f8 \, (7 - $f1) * $f8 + ($f1
- 6) * $f2))))));
#X obj 783 154 expr if ($f1 < 1 \, (1 - $f1) * $f2 + $f1 * $f3 \, if($f1
< 2 \, (2- $f1) * $f3 + ($f1 - 1) * $f4 \, if($f1 < 3 \, (3 - $f1)
* $f4 + ($f1 - 2) * $f5 \, if($f1 < 4 \, (4 - $f1) * $f5 + ($f1 - 3)
* $f6 \, if($f1 < 5 \, (5 - $f1) * $f6 + ($f1 - 4) * $f7 \, if($f1
< 6 \, (6 - $f1) * $f7 + ($f1 - 5) * $f8 \, (7 - $f1) * $f8 + ($f1
- 6) * $f2))))));
#X obj 488 472 spigot;
#X obj 520 -313 inlet;
#X obj 488 494 outlet;
#X obj 168 327 *;
#X obj 142 304 r band1;
#X obj 229 330 *;
#X obj 300 333 *;
#X obj 223 308 r band2;
#X obj 281 309 r band3;
#X obj 248 383 +;
#X obj 494 362 +;
#X obj 470 338 *;
#X obj 538 341 *;
#X obj 602 344 *;
#X obj 550 394 +;
#X obj 703 363 +;
#X obj 679 339 *;
#X obj 747 342 *;
#X obj 811 345 *;
#X obj 759 401 +;
#X obj 447 315 r band1;
#X obj 528 319 r band2;
#X obj 586 320 r band3;
#X obj 657 317 r band1;
#X obj 738 321 r band2;
#X obj 796 322 r band3;
#X msg -7 -115 0;
#X msg -3 -271 247;
#X msg 30 -271 93;
#X msg 65 -271 57;
#X msg 297 -271 205;
#X msg 331 -271 42;
#X msg 362 -271 23;
#X msg 688 -271 232;
#X msg 724 -271 91;
#X msg 757 -271 107;
#X text 820 -273 red grenade fruit;
#X text 817 -239 blue abyss;
#X msg -3 -238 21;
#X msg 30 -238 37;
#X msg 66 -238 159;
#X msg 299 -238 87;
#X msg 332 -238 66;
#X msg 364 -238 167;
#X msg 690 -238 4;
#X msg 725 -238 134;
#X msg 759 -238 132;
#X msg -2 -205 81;
#X msg 32 -205 200;
#X msg 67 -205 12;
#X msg 300 -205 161;
#X msg 332 -205 217;
#X msg 365 -205 45;
#X msg 691 -205 249;
#X msg 727 -205 160;
#X msg 761 -205 32;
#X text 818 -204 green leaves;
#X msg -3 -173 237;
#X msg 31 -173 222;
#X msg 65 -173 16;
#X msg 298 -173 247;
#X msg 331 -173 78;
#X msg 363 -173 9;
#X msg 689 -173 222;
#X msg 723 -173 80;
#X msg 759 -173 103;
#X text 817 -174 autumn colors;
#X text 819 -142 hokusai;
#X msg -5 -142 32;
#X msg 28 -142 75;
#X msg 63 -142 128;
#X msg 296 -142 74;
#X msg 329 -142 119;
#X msg 361 -142 88;
#X msg 687 -142 235;
#X msg 722 -142 63;
#X msg 757 -142 41;
#X msg 27 -115 84;
#X msg 67 -115 157;
#X msg 294 -115 209;
#X msg 327 -115 160;
#X msg 358 -115 41;
#X text 820 -115 van gogh;
#X msg 685 -115 117;
#X msg 720 -115 52;
#X msg 755 -115 22;
#X text 822 -89 matisse;
#X msg -4 -88 218;
#X msg 29 -88 10;
#X msg 64 -88 26;
#X msg 297 -88 228;
#X msg 330 -88 104;
#X msg 361 -88 41;
#X msg 688 -88 99;
#X msg 723 -88 69;
#X msg 757 -88 167;
#X connect 0 0 3 0;
#X connect 1 0 3 1;
#X connect 2 0 3 2;
#X connect 3 0 28 0;
#X connect 4 0 56 0;
#X connect 4 0 57 0;
#X connect 4 0 58 0;
#X connect 4 0 59 0;
#X connect 4 0 60 0;
#X connect 4 0 61 0;
#X connect 4 0 62 0;
#X connect 4 0 63 0;
#X connect 4 0 55 0;
#X connect 8 0 37 0;
#X connect 9 0 7 0;
#X connect 10 0 5 0;
#X connect 11 0 6 0;
#X connect 12 0 69 0;
#X connect 12 0 70 0;
#X connect 12 0 71 0;
#X connect 12 0 72 0;
#X connect 12 0 73 0;
#X connect 12 0 74 0;
#X connect 12 0 66 0;
#X connect 12 0 68 0;
#X connect 12 0 67 0;
#X connect 13 0 76 0;
#X connect 13 0 77 0;
#X connect 13 0 78 0;
#X connect 13 0 79 0;
#X connect 13 0 80 0;
#X connect 13 0 81 0;
#X connect 13 0 82 0;
#X connect 13 0 83 0;
#X connect 13 0 75 0;
#X connect 14 0 86 0;
#X connect 14 0 87 0;
#X connect 14 0 88 0;
#X connect 14 0 89 0;
#X connect 14 0 90 0;
#X connect 14 0 91 0;
#X connect 14 0 92 0;
#X connect 14 0 93 0;
#X connect 14 0 85 0;
#X connect 15 0 97 0;
#X connect 15 0 98 0;
#X connect 15 0 99 0;
#X connect 15 0 100 0;
#X connect 15 0 101 0;
#X connect 15 0 102 0;
#X connect 15 0 103 0;
#X connect 15 0 104 0;
#X connect 15 0 96 0;
#X connect 16 0 105 0;
#X connect 16 0 107 0;
#X connect 16 0 108 0;
#X connect 16 0 109 0;
#X connect 16 0 111 0;
#X connect 16 0 112 0;
#X connect 16 0 113 0;
#X connect 16 0 54 0;
#X connect 16 0 106 0;
#X connect 17 0 116 0;
#X connect 17 0 117 0;
#X connect 17 0 118 0;
#X connect 17 0 119 0;
#X connect 17 0 120 0;
#X connect 17 0 121 0;
#X connect 17 0 122 0;
#X connect 17 0 115 0;
#X connect 17 0 123 0;
#X connect 18 0 19 0;
#X connect 18 0 20 0;
#X connect 18 0 21 0;
#X connect 18 0 22 0;
#X connect 18 0 23 0;
#X connect 18 0 24 0;
#X connect 18 0 25 0;
#X connect 18 0 26 0;
#X connect 18 0 27 0;
#X connect 18 0 4 0;
#X connect 18 0 12 0;
#X connect 18 0 13 0;
#X connect 18 0 14 0;
#X connect 18 0 15 0;
#X connect 18 0 16 0;
#X connect 18 0 17 0;
#X connect 19 0 10 1;
#X connect 19 0 39 1;
#X connect 20 0 10 0;
#X connect 20 0 31 1;
#X connect 21 0 10 2;
#X connect 21 0 44 1;
#X connect 22 0 11 0;
#X connect 22 0 33 1;
#X connect 23 0 11 1;
#X connect 23 0 40 1;
#X connect 24 0 11 2;
#X connect 24 0 45 1;
#X connect 25 0 9 0;
#X connect 25 0 34 1;
#X connect 26 0 9 1;
#X connect 26 0 41 1;
#X connect 27 0 9 2;
#X connect 27 0 46 1;
#X connect 28 0 30 0;
#X connect 29 0 28 1;
#X connect 31 0 8 0;
#X connect 32 0 31 0;
#X connect 33 0 8 1;
#X connect 34 0 37 1;
#X connect 35 0 33 0;
#X connect 36 0 34 0;
#X connect 37 0 0 0;
#X connect 38 0 42 0;
#X connect 39 0 38 0;
#X connect 40 0 38 1;
#X connect 41 0 42 1;
#X connect 42 0 1 0;
#X connect 43 0 47 0;
#X connect 44 0 43 0;
#X connect 45 0 43 1;
#X connect 46 0 47 1;
#X connect 47 0 2 0;
#X connect 48 0 39 0;
#X connect 49 0 40 0;
#X connect 50 0 41 0;
#X connect 51 0 44 0;
#X connect 52 0 45 0;
#X connect 53 0 46 0;
#X connect 54 0 20 6;
#X connect 55 0 20 1;
#X connect 56 0 19 1;
#X connect 57 0 21 1;
#X connect 58 0 22 1;
#X connect 59 0 23 1;
#X connect 60 0 24 1;
#X connect 61 0 25 1;
#X connect 62 0 26 1;
#X connect 63 0 27 1;
#X connect 66 0 20 2;
#X connect 67 0 19 2;
#X connect 68 0 21 2;
#X connect 69 0 22 2;
#X connect 70 0 23 2;
#X connect 71 0 24 2;
#X connect 72 0 25 2;
#X connect 73 0 26 2;
#X connect 74 0 27 2;
#X connect 75 0 20 3;
#X connect 76 0 19 3;
#X connect 77 0 21 3;
#X connect 78 0 22 3;
#X connect 79 0 23 3;
#X connect 80 0 24 3;
#X connect 81 0 25 3;
#X connect 82 0 26 3;
#X connect 83 0 27 3;
#X connect 85 0 20 4;
#X connect 86 0 19 4;
#X connect 87 0 21 4;
#X connect 88 0 22 4;
#X connect 89 0 23 4;
#X connect 90 0 24 4;
#X connect 91 0 25 4;
#X connect 92 0 26 4;
#X connect 93 0 27 4;
#X connect 96 0 20 5;
#X connect 97 0 19 5;
#X connect 98 0 21 5;
#X connect 99 0 22 5;
#X connect 100 0 23 5;
#X connect 101 0 24 5;
#X connect 102 0 25 5;
#X connect 103 0 26 5;
#X connect 104 0 27 5;
#X connect 105 0 19 6;
#X connect 106 0 21 6;
#X connect 107 0 22 6;
#X connect 108 0 23 6;
#X connect 109 0 24 6;
#X connect 111 0 25 6;
#X connect 112 0 26 6;
#X connect 113 0 27 6;
#X connect 115 0 20 7;
#X connect 116 0 19 7;
#X connect 117 0 21 7;
#X connect 118 0 22 7;
#X connect 119 0 23 7;
#X connect 120 0 24 7;
#X connect 121 0 25 7;
#X connect 122 0 26 7;
#X connect 123 0 27 7;
#X restore 559 23 pd paletteInterpoaltion;
#X msg 559 44 send /color_spectrum \$1 \$2 \$3;
#X obj 405 -172 +;
#X msg 588 194 \; radius_vol_can label \$1;
#X obj 588 130 r brush_radius_vol_coef;
#X obj 588 155 *;
#X obj 567 91 loadbang;
#X obj 567 109 metro 1000;
#X obj 588 177 makefilename %.0f;
#X obj 559 61 s message;
#X connect 0 0 1 0;
#X connect 0 1 39 0;
#X connect 1 0 13 0;
#X connect 1 0 24 0;
#X connect 1 1 13 1;
#X connect 1 1 24 1;
#X connect 1 2 25 1;
#X connect 1 2 54 1;
#X connect 1 3 26 1;
#X connect 1 3 14 0;
#X connect 1 4 55 1;
#X connect 1 4 14 1;
#X connect 1 5 28 0;
#X connect 1 5 27 1;
#X connect 1 5 74 0;
#X connect 1 5 15 1;
#X connect 1 6 28 1;
#X connect 1 6 78 0;
#X connect 1 7 29 1;
#X connect 1 7 78 1;
#X connect 1 8 31 1;
#X connect 1 8 16 1;
#X connect 1 9 17 1;
#X connect 1 9 30 1;
#X connect 1 10 18 1;
#X connect 1 10 34 1;
#X connect 7 0 76 0;
#X connect 10 0 58 0;
#X connect 11 0 38 0;
#X connect 12 0 11 1;
#X connect 13 0 54 0;
#X connect 14 0 15 0;
#X connect 15 0 22 0;
#X connect 16 0 17 0;
#X connect 17 0 18 0;
#X connect 18 0 23 0;
#X connect 21 0 4 0;
#X connect 21 0 61 0;
#X connect 22 0 5 0;
#X connect 22 0 62 0;
#X connect 23 0 6 0;
#X connect 23 0 63 0;
#X connect 24 0 25 0;
#X connect 25 0 26 0;
#X connect 26 0 55 0;
#X connect 27 0 35 0;
#X connect 27 0 32 0;
#X connect 28 0 29 0;
#X connect 29 0 31 0;
#X connect 30 0 34 0;
#X connect 31 0 30 0;
#X connect 32 0 36 1;
#X connect 32 0 35 1;
#X connect 32 0 21 1;
#X connect 32 0 22 1;
#X connect 32 0 23 1;
#X connect 33 0 11 0;
#X connect 34 0 36 0;
#X connect 34 0 32 1;
#X connect 35 0 56 0;
#X connect 35 0 2 0;
#X connect 36 0 37 0;
#X connect 36 0 3 0;
#X connect 37 0 46 0;
#X connect 38 0 9 0;
#X connect 39 1 40 0;
#X connect 39 1 69 0;
#X connect 41 0 43 1;
#X connect 43 0 45 0;
#X connect 43 0 81 1;
#X connect 44 0 10 1;
#X connect 45 0 42 0;
#X connect 46 0 33 1;
#X connect 47 0 50 0;
#X connect 47 0 51 0;
#X connect 47 0 48 0;
#X connect 48 0 0 0;
#X connect 49 0 50 0;
#X connect 49 0 51 0;
#X connect 49 0 48 0;
#X connect 50 0 0 0;
#X connect 51 0 0 0;
#X connect 52 0 73 0;
#X connect 52 1 73 0;
#X connect 54 0 21 0;
#X connect 55 0 27 0;
#X connect 56 0 57 0;
#X connect 57 0 33 0;
#X connect 58 0 8 0;
#X connect 69 0 70 0;
#X connect 70 0 10 0;
#X connect 73 0 0 0;
#X connect 74 0 53 0;
#X connect 74 0 72 0;
#X connect 74 0 43 0;
#X connect 75 0 73 1;
#X connect 76 0 77 0;
#X connect 77 0 85 0;
#X connect 78 0 16 0;
#X connect 80 0 81 0;
#X connect 81 0 84 0;
#X connect 82 0 83 0;
#X connect 83 0 81 0;
#X connect 84 0 79 0;
#X restore -688 4 pd LYM_spectrum_v4;
#X obj -688 -56 tgl 15 0 empty empty empty 17 7 0 10 -262144 -1 -1
0 1;
#X obj -688 -41 tgl 15 0 empty empty empty 17 7 0 10 -262144 -1 -1
1 1;
#X obj -688 -26 tgl 15 0 empty empty empty 17 7 0 10 -262144 -1 -1
1 1;
#X obj -688 -11 tgl 15 0 empty empty empty 17 7 0 10 -262144 -1 -1
1 1;
#X text -686 -121 music control;
#X obj -689 -230 bng 15 250 50 0 empty empty empty 0 -6 0 8 -24198
-1 -1;
#X obj -632 -230 bng 15 250 50 0 empty empty empty 0 -6 0 8 -258699
-1 -1;
#X obj -689 -248 loadbang;
#X text -693 -265 UDP connection;
#X text -668 -56 1: xy-spectrum;
#X text -668 -40 2: color-spectrum;
#X obj -688 -87 bng 15 250 50 0 empty empty empty 17 7 0 10 -262144
-1 -1;
#X obj -688 -104 loadbang;
#X msg -688 -72 1;
#N canvas 164 348 1353 661 MIDIControl_Faders 0;
#X obj 27 -339 vsl 15 128 1 101 0 0 empty empty empty 0 -8 0 8 -162280
-1 -1 0 1;
#X obj 326 -378 bng 15 250 50 0 empty empty empty 17 7 0 10 -262144
-1 -1;
#X obj 326 -394 loadbang;
#X obj 11 -184 s message;
#X obj 823 -124 ctlin;
#X floatatom 796 -98 5 0 0 0 - - -;
#X floatatom 836 -98 5 0 0 0 - - -;
#X floatatom 875 -98 5 0 0 0 - - -;
#X obj 418 -240 / 127;
#X obj 419 -333 / 127;
#X obj 417 -289 / 127;
#X obj 54 -312 / 127;
#X obj 976 -384 bng 15 250 50 0 empty empty empty 0 -6 0 8 -262144
-1 -1;
#X obj 976 -351 vsl 15 128 0 2 0 0 0 empty empty 0 -8 0 8 -262144 -1
-1 0 1;
#X obj 1006 -351 vsl 15 128 0 50 0 0 0 empty empty 0 -8 0 8 -262144
-1 -1 0 1;
#X obj 991 -351 vsl 15 128 0 4 0 0 0 empty empty 0 -8 0 8 -262144 -1
-1 0 1;
#X msg 992 -369 0;
#X msg 1005 -369 0;
#X obj 977 -400 loadbang;
#X msg 976 -369 0;
#X text 972 -417 MUSIC CONTROL;
#X obj 1561 -7 bng 15 250 50 0 empty empty empty 17 7 0 10 -262144
-1 -1;
#X obj 1561 -23 loadbang;
#X msg 1561 8 0;
#X obj 1561 188 s message;
#X obj 10 31 vsl 15 128 0 0.01 0 0 empty empty empty 0 -8 0 8 -262144
-1 -1 6700 1;
#X obj 10 -5 bng 15 250 50 0 empty empty empty 17 7 0 10 -262144 -1
-1;
#X obj 10 -24 loadbang;
#X msg 10 11 0;
#X obj 9 179 s message;
#X obj 1589 30 ctlin 13 3;
#X obj 11 -339 vsl 15 128 0 1 0 0 empty empty empty 0 -8 0 8 -162280
-1 -1 12700 1;
#X obj 12 -378 bng 15 250 50 0 empty empty empty 17 7 0 10 -262144
-1 -1;
#X obj 12 -394 loadbang;
#X obj 1073 -324 / 32;
#X obj 57 -269 ctlin 7 2;
#X obj 125 -313 + 1;
#X obj 92 -252 * -1;
#X obj 124 -252 + 1;
#X obj 1222 25 vsl 15 128 1 100 0 0 empty empty empty 0 -8 0 8 -262144
-1 -1 0 1;
#X obj 1222 -8 bng 15 250 50 0 empty empty empty 17 7 0 10 -262144
-1 -1;
#X obj 1220 -25 loadbang;
#X msg 1223 7 0;
#X obj 1224 177 s message;
#X obj 1253 20 ctlin 7 3;
#X obj 54 -329 ctlin 7 1;
#X text 9 -414 LOCAL GRAY;
#X obj 1293 36 + 1;
#X obj 1350 28 vsl 15 128 1e-005 1 0 0 empty empty empty 0 -8 0 8 -262144
-1 -1 12700 1;
#X obj 1351 -5 bng 15 250 50 0 empty empty empty 17 7 0 10 -262144
-1 -1;
#X obj 1351 -21 loadbang;
#X obj 1394 35 ctlin 7 4;
#X obj 1074 -385 ctlin 13 6;
#X obj 1073 -340 ctlin 12 6;
#X obj 1070 -297 ctlin 10 6;
#X obj 40 58 ctlin 7 7;
#X msg 32 -357 1;
#X obj 1235 -349 vsl 15 128 0 1 0 0 empty empty empty 0 -8 0 8 -262144
-1 -1 12700 1;
#X obj 1235 -382 bng 15 250 50 0 empty empty empty 17 7 0 10 -262144
-1 -1;
#X obj 1235 -398 loadbang;
#X obj 1235 -154 s message;
#X obj 1250 -349 vsl 15 128 0 1 0 0 empty empty empty 0 -8 0 8 -262144
-1 -1 12700 1;
#X obj 1294 -343 ctlin 13 8;
#X obj 1295 -279 ctlin 13 7;
#X msg 1219 -367 1;
#X msg 1250 -367 1;
#X obj 1295 -309 + 1;
#X obj 1295 -326 / -127;
#X obj 1295 -262 / -127;
#X obj 1295 -245 + 1;
#X obj 115 29 vsl 15 128 0 0.01 0 0 empty empty empty 0 -8 0 8 -262144
-1 -1 12700 1;
#X obj 141 57 ctlin 7 8;
#X text 1231 -416 WEIGHTINGS GOL/DRAWING;
#X obj 217 23 vsl 15 128 0 7 0 0 empty empty empty 0 -8 0 8 -262144
-1 -1 0 1;
#X obj 217 -10 bng 15 250 50 0 empty empty empty 17 7 0 10 -262144
-1 -1;
#X obj 217 -26 loadbang;
#X msg 217 5 0;
#X obj 133 171 s message;
#X obj 330 29 vsl 15 128 0 0.1 0 0 empty empty empty 0 -8 0 8 -262144
-1 -1 0 1;
#X obj 318 -8 bng 15 250 50 0 empty empty empty 17 7 0 10 -262144 -1
-1;
#X obj 318 -24 loadbang;
#X text 162 -413 TRANSPARENCY BLEND;
#X obj 1460 26 vsl 15 128 1e-005 1 0 0 empty empty empty 0 -8 0 8 -262144
-1 -1 12700 1;
#X obj 1460 -7 bng 15 250 50 0 empty empty empty 17 7 0 10 -262144
-1 -1;
#X obj 1460 -25 loadbang;
#X obj 1460 174 s message;
#X msg 1460 157 send /echo \$1;
#X text 1457 -43 ECHO;
#X obj 1492 42 ctlin 7 5;
#X msg 330 9 0;
#X obj 1021 -350 vsl 15 128 0 0.4 0 0 0 empty empty 0 -8 0 8 -262144
-1 -1 0 1;
#X msg 1028 -369 0;
#X obj 1070 -248 ctlin 7 6;
#X msg 1222 160 send /brushRadius \$1;
#X obj 316 29 vsl 15 128 0 0.1 0 0 empty empty empty 0 -8 0 8 -262144
-1 -1 0 1;
#X obj 261 212 s message;
#X msg 316 9 0;
#X obj 316 178 -;
#X text 317 -43 PART ACCE;
#X obj 1070 -280 / 2.54;
#X text 213 -44 TEXTURES;
#X msg 134 154 send /particle_texture_ID \$1;
#X obj 442 26 vsl 15 128 0 7 0 0 empty empty empty 0 -8 0 8 -262144
-1 -1 0 1;
#X obj 442 -7 bng 15 250 50 0 empty empty empty 17 7 0 10 -262144 -1
-1;
#X obj 441 -23 loadbang;
#X msg 442 8 0;
#X obj 475 28 / 18;
#X text 433 -41 PALETTES;
#X obj 671 39 vradio 15 1 0 9 empty empty empty 0 -8 0 10 -262144 -1
-1 5;
#X obj 671 -8 bng 15 250 50 0 empty empty empty 17 7 0 10 -262144 -1
-1;
#X obj 671 -24 loadbang;
#X msg 671 7 0;
#X obj 707 22 / 14;
#X obj 671 191 s message;
#X obj 891 38 vradio 15 1 0 3 empty empty empty 0 -8 0 10 -262144 -1
-1 0;
#X obj 891 -9 bng 15 250 50 0 empty empty empty 17 7 0 10 -262144 -1
-1;
#X obj 891 -25 loadbang;
#X msg 891 6 0;
#X obj 842 100 s message;
#X text 884 -43 PARTICLE MODES;
#X obj 927 21 / 42;
#X text 1561 -50 TRACK INTERP SPEED;
#X msg 115 10 0;
#X obj 115 -4 bng 15 250 50 0 empty empty empty 17 7 0 10 -262144 -1
-1;
#X obj 115 -23 loadbang;
#X obj 81 211 s message;
#X text 9 -45 GOL DECAY;
#X text 110 -44 DRAWING DECAY;
#X obj 326 -63 s message;
#X msg 1561 168 send /track_interp_size \$1;
#X obj 1561 26 vsl 15 128 1 100 1 0 empty empty empty 0 -8 0 8 -262144
-1 -1 0 1;
#X obj 1589 63 + 100;
#X obj 1589 46 / -1.27;
#X obj 1668 -7 bng 15 250 50 0 empty empty empty 17 7 0 10 -262144
-1 -1;
#X obj 1668 -23 loadbang;
#X msg 1668 8 0;
#X obj 1668 26 vsl 15 128 1 20 0 0 empty empty empty 0 -8 0 8 -262144
-1 -1 0 1;
#X text 1606 -37 TRACK REPLAY SPEED SCALE;
#X obj 1694 42 ctlin 12 3;
#X msg 1558 223 send /track_replay_speed_scale \$1;
#X obj 1694 59 / 6.03;
#X obj 1010 180 s input_volume;
#X obj 1025 51 + 0.01;
#X obj 1003 15 vsl 15 128 0.0201 1.01 0 0 empty empty empty 0 -9 0
10 -262144 -1 -1 0 1;
#X text 1001 -42 INPUT VOLUME;
#X obj 1668 240 s message;
#X obj 241 65 / 18;
#X obj 709 -354 vsl 15 128 0 70 0 0 empty empty empty 0 -8 0 8 -262144
-1 -1 0 1;
#X obj 709 -387 bng 15 250 50 0 empty empty empty 17 7 0 10 -262144
-1 -1;
#X obj 709 -403 loadbang;
#X msg 709 -372 0;
#X obj 709 -142 s message;
#X msg 709 -159 send /flashPart_duration \$1;
#X obj 821 -388 bng 15 250 50 0 empty empty empty 17 7 0 10 -262144
-1 -1;
#X obj 821 -404 loadbang;
#X obj 746 -183 s message;
#X obj 742 -352 / 1.8;
#X obj 709 -176 int;
#X obj 562 40 vradio 15 1 0 9 empty empty empty 0 -8 0 10 -262144 -1
-1 0;
#X obj 562 -7 bng 15 250 50 0 empty empty empty 17 7 0 10 -262144 -1
-1;
#X obj 562 -23 loadbang;
#X msg 562 8 0;
#X obj 598 23 / 14;
#X obj 562 192 s message;
#X text 539 -41 CELL AUTOMATA TYPES;
#X msg 562 175 send /CAType \$1;
#X obj 330 161 t b f;
#X obj 1250 -195 s message;
#X obj 1070 -231 / 635;
#X msg 671 174 send /CASubType \$1;
#X text 661 -41 AND SUB-TYPES;
#X obj 707 5 ctlin 10 7;
#X obj 598 6 ctlin 12 7;
#X obj 1254 36 / 1.27;
#X obj 1352 182 s message;
#X text 1346 -42 ECHO_NEG;
#X msg 1350 165 send /echoNeg \$1;
#X obj 1445 -350 vradio 15 1 0 5 empty empty empty 0 -8 0 10 -262144
-1 -1 0;
#X obj 1444 -382 bng 15 250 50 0 empty empty empty 17 7 0 10 -262144
-1 -1;
#X obj 1444 -398 loadbang;
#X msg 1444 -367 0;
#X obj 1342 -86 s message;
#X obj 1477 -354 ctlin 10 2;
#X obj 1445 -275 route 0 1 2 3 4;
#X obj 1477 -336 / 30;
#X msg 1445 -246 0.5;
#X msg 1528 -250 0.5;
#X msg 1459 -221 0.5;
#X msg 1542 -225 0.1;
#X msg 1468 -195 0.5;
#X msg 1546 -196 0.9;
#X msg 1556 -169 0.5;
#X msg 1566 -141 0.5;
#X msg 1479 -169 0.1;
#X msg 1489 -141 0.9;
#X obj 1074 -369 / 32;
#X msg 11 -357 1;
#X obj 57 -252 / 127;
#X obj 326 -333 vradio 15 1 0 9 empty empty empty 0 -8 0 10 -262144
-1 -1 1;
#X obj 341 -323 vradio 15 1 0 9 empty empty empty 0 -8 0 10 -262144
-1 -1 1;
#X obj 356 -313 vradio 15 1 0 9 empty empty empty 0 -8 0 10 -262144
-1 -1 1;
#X obj 415 -197 / 127;
#X obj 371 -299 vradio 15 1 0 9 empty empty empty 0 -8 0 10 -262144
-1 -1 1;
#X text 341 -413 FLASH FREQUENCY;
#X text 684 -418 FLASH PART DURATION;
#X text 1216 -45 BRUSH RADIUS;
#X text 1437 -416 PARTICLE ACC CENTER;
#X obj 854 -348 / 127;
#X msg 821 -373 1;
#X obj 1104 26 vradio 15 1 0 8 empty empty empty 0 -8 0 10 -262144
-1 -1 0;
#X obj 1104 -14 bng 15 250 50 0 empty empty empty 17 7 0 10 -262144
-1 -1;
#X obj 1104 -30 loadbang;
#X msg 1104 1 0;
#X obj 1103 164 s message;
#X text 1101 -49 BRUSHES;
#X msg 1104 147 send /brushID \$1;
#X obj 1140 16 / 127;
#X obj 1140 33 * 7;
#X obj 1140 -1 ctlin 10 8;
#X obj 353 42 ctlin 13 2;
#X obj 356 92 ctlin 12 2;
#X obj 241 49 ctlin 12 1;
#X obj 475 11 ctlin 13 1;
#X obj 927 4 ctlin 10 1;
#X obj 790 -317 route 0 1 2 3 4 5;
#X obj 893 -349 * 5;
#X obj 799 -332 hradio 15 1 0 6 empty empty empty 0 -8 0 10 -262144
-1 -1 1;
#X msg 746 -228 send /flashCA_number \$1;
#X msg 762 -208 send /flashTrack0_number \$1;
#X msg 777 -292 0;
#X msg 787 -282 1;
#X msg 797 -272 2;
#X msg 838 -274 1;
#X msg 874 -274 2;
#X obj 140 73 / 12700;
#X msg 1006 -181 send /brush_radius_vol_coef \$1;
#X obj 1021 -102 s message;
#X msg 976 -136 send /xy_spectrum_coef \$1;
#X msg 991 -159 send /color_spectrum_coef \$1;
#X msg 10 162 send /CAdecay \$1;
#X msg 81 194 send /trackdecay \$1;
#X msg 842 83 send /particleMode \$1;
#X msg 1250 -212 send /trackweight \$1;
#X msg 1235 -171 send /CAweight \$1;
#X obj 405 174 s message;
#X msg 405 157 send /RGBspectrum \$1;
#X obj 1025 17 ctlin 13 6;
#X obj 528 -349 vsl 15 128 0 1 0 0 empty empty empty 0 -8 0 8 -262144
-1 -1 12700 1;
#X obj 528 -383 bng 15 250 50 0 empty empty empty 17 7 0 10 -262144
-1 -1;
#X obj 528 -401 loadbang;
#X obj 528 -192 s message;
#X text 525 -419 FLASH WEIGHT;
#X obj 543 -349 vsl 15 128 0 1 0 0 empty empty empty 0 -8 0 8 -262144
-1 -1 12700 1;
#X obj 543 -148 s message;
#X obj 558 -349 vsl 15 128 0 1 0 0 empty empty empty 0 -8 0 8 -262144
-1 -1 12700 1;
#X obj 557 -100 s message;
#X obj 618 -375 / 127;
#X msg 528 -368 1;
#X msg 558 -368 1;
#X msg 586 -368 1;
#X obj 652 -375 * -1;
#X obj 618 -357 + 1;
#X obj 617 -314 / 127;
#X obj 651 -314 * -1;
#X obj 617 -296 + 1;
#X obj 615 -256 / 127;
#X obj 649 -256 * -1;
#X obj 615 -238 + 1;
#X msg 543 -165 send /flashCA_coef \$1;
#X floatatom 949 170 5 0 0 0 - - -;
#X text 996 -28 Initial volume;
#X text 996 -19 is in header;
#X text 996 -9 of conf file;
#X obj 11 -147 s message;
#X obj 11 -109 s message;
#X msg 11 -201 send /local_color_r \$1;
#X msg 11 -164 send /local_color_g \$1;
#X msg 11 -126 send /local_color_b \$1;
#X obj 27 -66 s message;
#X msg 1342 -103 send /partAccCenter_0 \$1;
#X obj 1504 -87 s message;
#X msg 1504 -104 send /partAccCenter_1 \$1;
#X obj 1394 68 + 1;
#X obj 1394 53 / -127;
#X msg 1351 10 1;
#X msg 1460 8 1;
#X obj 1492 74 + 1;
#X obj 1492 57 / -127;
#X msg 261 195 send /part_acc_factor \$1;
#X msg 1021 -208 send /part_acc_attack_coef \$1;
#X obj 354 57 / 1270;
#X obj 356 109 / 1270;
#X obj 39 230 print;
#X floatatom 169 236 5 0 0 0 - - -;
#X obj 1025 34 / 127;
#X obj 40 74 / 12700;
#X obj 200 -306 / 127;
#X obj 176 -333 vsl 15 128 0 1 0 0 empty empty empty 0 -8 0 8 -162280
-1 -1 0 1;
#X obj 176 -366 bng 15 250 50 0 empty empty empty 17 7 0 10 -262144
-1 -1;
#X obj 176 -382 loadbang;
#X msg 176 -351 0;
#X obj 176 -185 s message;
#X obj 234 -305 * -1;
#X obj 262 -305 + 1;
#X obj 200 -322 ctlin 28 1;
#X msg 176 -202 send /blendTransp \$1;
#X msg 27 -83 send /scale \$1;
#X obj 89 -312 * 100;
#X obj 779 -8 bng 15 250 50 0 empty empty empty 17 7 0 10 -262144 -1
-1;
#X obj 779 -24 loadbang;
#X msg 779 7 0;
#X obj 779 220 s message;
#X obj 815 5 ctlin 12 8;
#X obj 779 26 vsl 15 128 0 100 0 0 empty empty empty 0 -9 0 10 -262144
-1 -1 6500 1;
#X text 772 -42 TABLET EXPRESSION;
#X obj 815 22 / 1.27;
#X msg 779 203 send /brush_radius_pressure_coef \$1;
#X msg 326 -352 1;
#X msg 342 -353 1;
#X msg 361 -352 1;
#X msg 377 -351 1;
#X obj 476 -332 + 1;
#X obj 473 -287 + 1;
#X obj 475 -238 + 1;
#X obj 472 -195 + 1;
#X obj 453 -333 * 7;
#X obj 452 -288 * 7;
#X obj 452 -240 * 7;
#X obj 449 -197 * 7;
#X msg 326 -161 send /flashBack_freq \$1;
#X msg 336 -136 send /flashCA_freq \$1;
#X obj 417 -305 ctlin 10 4;
#X obj 418 -349 ctlin 10 3;
#X msg 346 -110 send /flashTrack0_freq \$1;
#X msg 359 -86 send /flashPart_freq \$1;
#X obj 418 -256 ctlin 10 5;
#X msg 528 -208 send /flashBack_coef \$1;
#X msg 558 -117 send /flashTrack0_coef \$1;
#X obj 618 -392 ctlin 12 3;
#X obj 617 -331 ctlin 12 4;
#X obj 615 -273 ctlin 12 5;
#X obj 415 -212 ctlin 13 3;
#X obj 742 -369 ctlin 13 4;
#X text 807 -421 FLASH TRACK No;
#X obj 854 -365 ctlin 13 5;
#X connect 0 0 306 0;
#X connect 1 0 317 0;
#X connect 1 0 318 0;
#X connect 1 0 319 0;
#X connect 1 0 320 0;
#X connect 2 0 1 0;
#X connect 4 0 5 0;
#X connect 4 1 6 0;
#X connect 4 2 7 0;
#X connect 8 0 327 0;
#X connect 9 0 325 0;
#X connect 10 0 326 0;
#X connect 11 0 307 0;
#X connect 12 0 19 0;
#X connect 12 0 16 0;
#X connect 12 0 17 0;
#X connect 12 0 91 0;
#X connect 14 0 235 0;
#X connect 15 0 238 0;
#X connect 16 0 15 0;
#X connect 17 0 14 0;
#X connect 18 0 12 0;
#X connect 19 0 13 0;
#X connect 21 0 23 0;
#X connect 22 0 21 0;
#X connect 23 0 130 0;
#X connect 25 0 239 0;
#X connect 26 0 28 0;
#X connect 27 0 26 0;
#X connect 28 0 25 0;
#X connect 30 0 132 0;
#X connect 31 0 275 0;
#X connect 31 0 276 0;
#X connect 31 0 277 0;
#X connect 32 0 196 0;
#X connect 32 0 56 0;
#X connect 33 0 32 0;
#X connect 34 0 15 0;
#X connect 35 0 197 0;
#X connect 36 0 0 0;
#X connect 37 0 38 0;
#X connect 38 0 31 0;
#X connect 39 0 93 0;
#X connect 40 0 42 0;
#X connect 41 0 40 0;
#X connect 42 0 39 0;
#X connect 44 0 173 0;
#X connect 45 0 11 0;
#X connect 47 0 39 0;
#X connect 48 0 176 0;
#X connect 49 0 284 0;
#X connect 50 0 49 0;
#X connect 51 0 283 0;
#X connect 52 0 195 0;
#X connect 53 0 34 0;
#X connect 54 0 99 0;
#X connect 55 0 295 0;
#X connect 56 0 0 0;
#X connect 57 0 243 0;
#X connect 58 0 65 0;
#X connect 58 0 64 0;
#X connect 59 0 58 0;
#X connect 61 0 242 0;
#X connect 62 0 67 0;
#X connect 63 0 68 0;
#X connect 64 0 57 0;
#X connect 65 0 61 0;
#X connect 66 0 61 0;
#X connect 67 0 66 0;
#X connect 68 0 69 0;
#X connect 69 0 57 0;
#X connect 70 0 240 0;
#X connect 71 0 234 0;
#X connect 73 0 101 0;
#X connect 74 0 76 0;
#X connect 75 0 74 0;
#X connect 76 0 73 0;
#X connect 78 0 166 0;
#X connect 79 0 89 0;
#X connect 79 0 96 0;
#X connect 80 0 79 0;
#X connect 82 0 86 0;
#X connect 83 0 285 0;
#X connect 84 0 83 0;
#X connect 86 0 85 0;
#X connect 88 0 287 0;
#X connect 89 0 78 0;
#X connect 90 0 289 0;
#X connect 91 0 90 0;
#X connect 92 0 168 0;
#X connect 93 0 43 0;
#X connect 94 0 97 0;
#X connect 96 0 94 0;
#X connect 97 0 288 0;
#X connect 99 0 14 0;
#X connect 101 0 77 0;
#X connect 102 0 245 0;
#X connect 103 0 105 0;
#X connect 104 0 103 0;
#X connect 105 0 102 0;
#X connect 106 0 102 0;
#X connect 108 0 169 0;
#X connect 109 0 111 0;
#X connect 110 0 109 0;
#X connect 111 0 108 0;
#X connect 112 0 108 0;
#X connect 114 0 241 0;
#X connect 115 0 117 0;
#X connect 116 0 115 0;
#X connect 117 0 114 0;
#X connect 120 0 114 0;
#X connect 122 0 70 0;
#X connect 123 0 122 0;
#X connect 124 0 123 0;
#X connect 129 0 24 0;
#X connect 132 0 131 0;
#X connect 133 0 135 0;
#X connect 134 0 133 0;
#X connect 135 0 136 0;
#X connect 138 0 140 0;
#X connect 139 0 145 0;
#X connect 142 0 143 0;
#X connect 143 0 141 0;
#X connect 143 0 269 0;
#X connect 146 0 73 0;
#X connect 147 0 157 0;
#X connect 148 0 150 0;
#X connect 149 0 148 0;
#X connect 150 0 147 0;
#X connect 152 0 151 0;
#X connect 153 0 208 0;
#X connect 154 0 153 0;
#X connect 156 0 147 0;
#X connect 157 0 152 0;
#X connect 158 0 165 0;
#X connect 159 0 161 0;
#X connect 160 0 159 0;
#X connect 161 0 158 0;
#X connect 162 0 158 0;
#X connect 165 0 163 0;
#X connect 166 0 97 0;
#X connect 166 1 97 1;
#X connect 168 0 90 0;
#X connect 169 0 113 0;
#X connect 171 0 112 0;
#X connect 172 0 162 0;
#X connect 173 0 47 0;
#X connect 176 0 174 0;
#X connect 177 0 183 0;
#X connect 178 0 180 0;
#X connect 179 0 178 0;
#X connect 180 0 177 0;
#X connect 182 0 184 0;
#X connect 183 0 185 0;
#X connect 183 0 186 0;
#X connect 183 1 188 0;
#X connect 183 1 187 0;
#X connect 183 2 189 0;
#X connect 183 2 190 0;
#X connect 183 3 193 0;
#X connect 183 3 191 0;
#X connect 183 4 194 0;
#X connect 183 4 192 0;
#X connect 184 0 177 0;
#X connect 185 0 279 0;
#X connect 186 0 281 0;
#X connect 187 0 279 0;
#X connect 188 0 281 0;
#X connect 189 0 279 0;
#X connect 190 0 281 0;
#X connect 191 0 281 0;
#X connect 192 0 281 0;
#X connect 193 0 279 0;
#X connect 194 0 279 0;
#X connect 196 0 31 0;
#X connect 197 0 37 0;
#X connect 198 0 329 0;
#X connect 199 0 330 0;
#X connect 200 0 333 0;
#X connect 201 0 328 0;
#X connect 202 0 334 0;
#X connect 207 0 225 0;
#X connect 208 0 226 0;
#X connect 209 0 215 0;
#X connect 210 0 212 0;
#X connect 211 0 210 0;
#X connect 212 0 209 0;
#X connect 215 0 213 0;
#X connect 216 0 217 0;
#X connect 217 0 209 0;
#X connect 218 0 216 0;
#X connect 219 0 290 0;
#X connect 220 0 291 0;
#X connect 221 0 146 0;
#X connect 222 0 106 0;
#X connect 223 0 120 0;
#X connect 224 0 229 0;
#X connect 224 0 232 0;
#X connect 224 1 230 0;
#X connect 224 1 232 0;
#X connect 224 2 231 0;
#X connect 224 2 232 0;
#X connect 224 3 229 0;
#X connect 224 3 233 0;
#X connect 224 4 230 0;
#X connect 224 4 233 0;
#X connect 224 5 231 0;
#X connect 224 5 233 0;
#X connect 225 0 226 0;
#X connect 226 0 224 0;
#X connect 227 0 155 0;
#X connect 228 0 155 0;
#X connect 229 0 227 0;
#X connect 230 0 227 0;
#X connect 231 0 227 0;
#X connect 232 0 228 0;
#X connect 233 0 228 0;
#X connect 234 0 70 0;
#X connect 235 0 236 0;
#X connect 237 0 236 0;
#X connect 238 0 236 0;
#X connect 239 0 29 0;
#X connect 240 0 125 0;
#X connect 241 0 118 0;
#X connect 242 0 167 0;
#X connect 243 0 60 0;
#X connect 245 0 244 0;
#X connect 246 0 294 0;
#X connect 247 0 336 0;
#X connect 248 0 257 0;
#X connect 248 0 258 0;
#X connect 248 0 259 0;
#X connect 249 0 248 0;
#X connect 252 0 268 0;
#X connect 254 0 337 0;
#X connect 256 0 260 0;
#X connect 257 0 247 0;
#X connect 258 0 252 0;
#X connect 259 0 254 0;
#X connect 260 0 261 0;
#X connect 261 0 247 0;
#X connect 262 0 263 0;
#X connect 263 0 264 0;
#X connect 264 0 252 0;
#X connect 265 0 266 0;
#X connect 266 0 267 0;
#X connect 267 0 254 0;
#X connect 268 0 253 0;
#X connect 275 0 3 0;
#X connect 276 0 273 0;
#X connect 277 0 274 0;
#X connect 279 0 181 0;
#X connect 281 0 280 0;
#X connect 282 0 48 0;
#X connect 283 0 282 0;
#X connect 284 0 48 0;
#X connect 285 0 82 0;
#X connect 286 0 82 0;
#X connect 287 0 286 0;
#X connect 288 0 95 0;
#X connect 289 0 236 0;
#X connect 290 0 94 0;
#X connect 291 0 78 0;
#X connect 294 0 142 0;
#X connect 295 0 25 0;
#X connect 296 0 302 0;
#X connect 297 0 305 0;
#X connect 298 0 300 0;
#X connect 299 0 298 0;
#X connect 300 0 297 0;
#X connect 302 0 303 0;
#X connect 303 0 297 0;
#X connect 304 0 296 0;
#X connect 305 0 301 0;
#X connect 306 0 278 0;
#X connect 307 0 36 0;
#X connect 308 0 310 0;
#X connect 309 0 308 0;
#X connect 310 0 313 0;
#X connect 312 0 315 0;
#X connect 313 0 316 0;
#X connect 315 0 313 0;
#X connect 316 0 311 0;
#X connect 317 0 198 0;
#X connect 318 0 199 0;
#X connect 319 0 200 0;
#X connect 320 0 202 0;
#X connect 321 0 198 0;
#X connect 322 0 199 0;
#X connect 323 0 200 0;
#X connect 324 0 202 0;
#X connect 325 0 321 0;
#X connect 326 0 322 0;
#X connect 327 0 323 0;
#X connect 328 0 324 0;
#X connect 329 0 128 0;
#X connect 330 0 128 0;
#X connect 331 0 10 0;
#X connect 332 0 9 0;
#X connect 333 0 128 0;
#X connect 334 0 128 0;
#X connect 335 0 8 0;
#X connect 336 0 250 0;
#X connect 337 0 255 0;
#X connect 338 0 256 0;
#X connect 339 0 262 0;
#X connect 340 0 265 0;
#X connect 341 0 201 0;
#X connect 342 0 156 0;
#X connect 344 0 207 0;
#X coords 0 0 10 10 0 0 0;
#X restore -521 -116 pd MIDIControl_Faders;
#N canvas 211 227 627 699 MIDIControl_Buttons 0;
#X obj 376 326 ctlin;
#X floatatom 351 358 5 0 0 0 - - -;
#X floatatom 390 359 5 0 0 0 - - -;
#X floatatom 430 360 5 0 0 0 - - -;
#X obj 21 251 vsl 15 10 0 1 0 0 empty empty empty 0 -8 0 8 -262144
-1 -1 0 1;
#X obj 21 217 bng 15 250 50 0 empty empty empty 17 7 0 10 -262144 -1
-1;
#X obj 21 198 loadbang;
#X msg 21 232 0;
#X obj 53 232 / 127;
#X obj 209 248 vsl 15 10 0 1 0 0 empty empty empty 0 -8 0 8 -262144
-1 -1 0 1;
#X obj 210 215 bng 15 250 50 0 empty empty empty 17 7 0 10 -262144
-1 -1;
#X obj 210 196 loadbang;
#X msg 210 230 0;
#X obj 242 230 / 127;
#X obj 209 376 vsl 15 10 0 1 0 0 empty empty empty 0 -8 0 8 -262144
-1 -1 0 1;
#X obj 210 343 bng 15 250 50 0 empty empty empty 17 7 0 10 -262144
-1 -1;
#X obj 210 324 loadbang;
#X msg 210 358 0;
#X obj 234 357 / 127;
#X obj 22 122 vsl 15 10 0 1 0 0 empty empty empty 0 -8 0 8 -262144
-1 -1 0 1;
#X obj 22 89 bng 15 250 50 0 empty empty empty 17 7 0 10 -262144 -1
-1;
#X obj 22 70 loadbang;
#X msg 22 104 0;
#X obj 46 103 / 127;
#X obj 212 123 vsl 15 10 0 1 0 0 empty empty empty 0 -8 0 8 -262144
-1 -1 0 1;
#X obj 212 90 bng 15 250 50 0 empty empty empty 17 7 0 10 -262144 -1
-1;
#X obj 212 71 loadbang;
#X msg 212 105 0;
#X obj 236 104 / 127;
#X obj 19 511 vsl 15 10 0 1 0 0 empty empty empty 0 -8 0 8 -262144
-1 -1 0 1;
#X obj 19 478 bng 15 250 50 0 empty empty empty 17 7 0 10 -262144 -1
-1;
#X obj 19 459 loadbang;
#X msg 19 493 0;
#X obj 208 551 s message;
#X obj 42 492 / 127;
#X obj 234 341 ctlin 18 1;
#X obj 21 -7 vsl 15 10 0 1 0 0 empty empty empty 0 -8 0 8 -262144 -1
-1 0 1;
#X obj 21 -40 bng 15 250 50 0 empty empty empty 17 7 0 10 -262144 -1
-1;
#X obj 21 -59 loadbang;
#X msg 21 -25 0;
#X obj 53 -25 / 127;
#X obj 52 -41 ctlin 19 1;
#X obj 214 -10 vsl 15 10 0 1 0 0 empty empty empty 0 -8 0 8 -262144
-1 -1 0 1;
#X obj 214 -43 bng 15 250 50 0 empty empty empty 17 7 0 10 -262144
-1 -1;
#X obj 214 -62 loadbang;
#X msg 214 -28 0;
#X obj 246 -28 / 127;
#X obj 245 -44 ctlin 20 1;
#X obj 208 511 vsl 15 10 0 1 0 0 empty empty empty 0 -8 0 8 -262144
-1 -1 0 1;
#X obj 208 478 bng 15 250 50 0 empty empty empty 17 7 0 10 -262144
-1 -1;
#X obj 208 460 loadbang;
#X msg 208 494 0;
#X obj 352 539 s message;
#X obj 231 493 / 127;
#X obj 497 508 vsl 15 10 0 1 0 0 empty empty empty 0 -8 0 8 -262144
-1 -1 0 1;
#X obj 497 475 bng 15 250 50 0 empty empty empty 17 7 0 10 -262144
-1 -1;
#X obj 497 456 loadbang;
#X msg 497 490 0;
#X obj 497 537 s message;
#X obj 520 489 / 127;
#X obj 353 509 vsl 15 10 0 1 0 0 empty empty empty 0 -8 0 8 -262144
-1 -1 0 1;
#X obj 353 476 bng 15 250 50 0 empty empty empty 17 7 0 10 -262144
-1 -1;
#X obj 353 457 loadbang;
#X msg 353 491 0;
#X obj 375 25 s message;
#X obj 376 490 / 127;
#X obj 41 476 ctlin 14 1;
#X obj 230 477 ctlin 15 1;
#X obj 375 -6 vsl 15 10 0 1 0 0 empty empty empty 0 -8 0 8 -262144
-1 -1 0 1;
#X obj 376 -39 bng 15 250 50 0 empty empty empty 17 7 0 10 -262144
-1 -1;
#X obj 376 -58 loadbang;
#X msg 376 -24 0;
#X obj 408 -24 / 127;
#X obj 407 -40 ctlin 21 1;
#X obj 371 123 vsl 15 10 0 1 0 0 empty empty empty 0 -8 0 8 -262144
-1 -1 0 1;
#X obj 372 90 bng 15 250 50 0 empty empty empty 17 7 0 10 -262144 -1
-1;
#X obj 372 71 loadbang;
#X msg 372 105 0;
#X obj 396 104 / 127;
#X obj 395 88 ctlin 24 1;
#X obj 369 248 vsl 15 10 0 1 0 0 empty empty empty 0 -8 0 8 -262144
-1 -1 0 1;
#X obj 369 212 bng 15 250 50 0 empty empty empty 17 7 0 10 -262144
-1 -1;
#X obj 369 195 loadbang;
#X msg 369 229 0;
#X obj 401 229 / 127;
#X obj 400 213 ctlin 27 1;
#X obj 375 474 ctlin 16 1;
#X obj 520 473 ctlin 17 1;
#X obj 45 87 ctlin 22 1;
#X obj 235 88 ctlin 23 1;
#X obj 52 216 ctlin 25 1;
#X obj 241 214 ctlin 26 1;
#X text 22 -77 DRAW AND FLASH Contamination MODES - DRAWING MODE;
#X obj 214 21 s message;
#X obj 19 541 s message;
#X obj 21 23 s message;
#X obj 22 154 s message;
#X obj 370 151 s message;
#X obj 211 154 s message;
#X obj 209 278 s message;
#X obj 369 276 s message;
#X obj 21 281 s message;
#X obj 210 413 s message;
#X msg 19 526 send /drawing_on_off;
#X msg 214 6 send /CAdecay_sign;
#X msg 376 8 send /trackdecay_sign;
#X msg 21 6 send /currentTrack_plus;
#X msg 22 137 send /track_replay;
#X msg 21 264 send /source_track_record;
#X msg 371 136 send /clearLayer;
#X msg 212 137 send /clearCA;
#X text 20 53 TRACK SRC READ ON/OFF;
#X text 19 179 TRACK SRC REC ON/OFF;
#X msg 369 261 send /invertAllLayers;
#X text 366 180 INVERT;
#X text 365 54 CLEAR TRACK;
#X text 209 53 CLEAR CA;
#X msg 340 415 send /setup_plus;
#X msg 209 391 send /setup_plus_and_keep_total_duration;
#X text 209 306 SETUP;
#X text 209 179 FLASH PARTICLES ON/OFF;
#X msg 209 262 send /flashPart_onOff;
#X msg 207 528 send /flashBack_onOff;
#X msg 353 521 send /flashCA_onOff;
#X msg 497 521 send /flashTrack0_onOff;
#X connect 0 0 1 0;
#X connect 0 1 2 0;
#X connect 0 2 3 0;
#X connect 4 0 108 0;
#X connect 5 0 7 0;
#X connect 6 0 5 0;
#X connect 7 0 4 0;
#X connect 8 0 4 0;
#X connect 9 0 121 0;
#X connect 10 0 12 0;
#X connect 11 0 10 0;
#X connect 12 0 9 0;
#X connect 13 0 9 0;
#X connect 14 0 118 0;
#X connect 15 0 17 0;
#X connect 16 0 15 0;
#X connect 17 0 14 0;
#X connect 18 0 14 0;
#X connect 19 0 107 0;
#X connect 20 0 22 0;
#X connect 21 0 20 0;
#X connect 22 0 19 0;
#X connect 23 0 19 0;
#X connect 24 0 110 0;
#X connect 25 0 27 0;
#X connect 26 0 25 0;
#X connect 27 0 24 0;
#X connect 28 0 24 0;
#X connect 29 0 103 0;
#X connect 30 0 32 0;
#X connect 31 0 30 0;
#X connect 32 0 29 0;
#X connect 34 0 29 0;
#X connect 35 0 18 0;
#X connect 36 0 106 0;
#X connect 37 0 39 0;
#X connect 38 0 37 0;
#X connect 39 0 36 0;
#X connect 40 0 36 0;
#X connect 41 0 40 0;
#X connect 42 0 104 0;
#X connect 43 0 45 0;
#X connect 44 0 43 0;
#X connect 45 0 42 0;
#X connect 46 0 42 0;
#X connect 47 0 46 0;
#X connect 48 0 122 0;
#X connect 49 0 51 0;
#X connect 50 0 49 0;
#X connect 51 0 48 0;
#X connect 53 0 48 0;
#X connect 54 0 124 0;
#X connect 55 0 57 0;
#X connect 56 0 55 0;
#X connect 57 0 54 0;
#X connect 59 0 54 0;
#X connect 60 0 123 0;
#X connect 61 0 63 0;
#X connect 62 0 61 0;
#X connect 63 0 60 0;
#X connect 65 0 60 0;
#X connect 66 0 34 0;
#X connect 67 0 53 0;
#X connect 68 0 105 0;
#X connect 69 0 71 0;
#X connect 70 0 69 0;
#X connect 71 0 68 0;
#X connect 72 0 68 0;
#X connect 73 0 72 0;
#X connect 74 0 109 0;
#X connect 75 0 77 0;
#X connect 76 0 75 0;
#X connect 77 0 74 0;
#X connect 78 0 74 0;
#X connect 79 0 78 0;
#X connect 80 0 113 0;
#X connect 81 0 83 0;
#X connect 82 0 81 0;
#X connect 83 0 80 0;
#X connect 84 0 80 0;
#X connect 85 0 84 0;
#X connect 86 0 65 0;
#X connect 87 0 59 0;
#X connect 88 0 23 0;
#X connect 89 0 28 0;
#X connect 90 0 8 0;
#X connect 91 0 13 0;
#X connect 103 0 94 0;
#X connect 104 0 93 0;
#X connect 105 0 64 0;
#X connect 106 0 95 0;
#X connect 107 0 96 0;
#X connect 108 0 101 0;
#X connect 109 0 97 0;
#X connect 110 0 98 0;
#X connect 113 0 100 0;
#X connect 118 0 102 0;
#X connect 121 0 99 0;
#X connect 122 0 33 0;
#X connect 123 0 52 0;
#X connect 124 0 58 0;
#X coords 0 0 10 10 0 0 0;
#X restore -521 -96 pd MIDIControl_Buttons;
#X text -588 -264 AUDIO ON;
#X obj -586 -247 loadbang;
#X msg -586 -231 \; pd dsp 1;
#X text -523 -131 USB Controller;
#X obj -518 -246 bng 15 250 50 0 empty empty empty 17 7 0 10 -4034
-1 -1;
#X obj -519 -211 bng 15 250 50 0 empty empty empty 17 7 0 10 -258113
-1 -1;
#X obj -504 -211 s stopsoundtrack;
#X text -512 -229 STOP SOUNDTRACK;
#X text -517 -264 START SOUNDTRACK;
#X obj -503 -246 s startsoundtrack;
#X text -669 -25 3: brush radius;
#X text -669 -10 4: particle accel.;
#N canvas 174 196 1235 515 dumpVCMessages 0;
#X text -614 -5195 OSC message processing;
#X obj -613 -4891 s startclock;
#X obj -596 -4847 s restart;
#X obj -570 -4740 s message;
#X obj -570 -4773 pack s;
#X msg -570 -4757 send /return_message \$1;
#N canvas 0 0 1569 696 trackMessageDisplay 0;
#X obj 645 -319 inlet;
#X obj 184 -312 inlet;
#X obj 47 -310 inlet;
#X obj 646 -262 route 0 1;
#X obj 835 -268 route 0 1;
#X obj 644 -147 route 0 1;
#X obj 193 123 route 0 1;
#X obj 199 236 route 0 1;
#X obj 201 353 route 0 1;
#X obj 172 -224 route 1 0;
#X obj 234 -223 route 1 0;
#X obj 295 -223 route 1 0;
#X msg 9 76 \; track1decay color 13 16;
#X msg 5 -34 \; track2decay color 13 16;
#X msg 5 -72 \; track1decay color 11 16;
#X msg 9 114 \; track2decay color 11 16;
#X msg 10 -223 \; track1decay color 11 16;
#X msg 11 -185 \; track2decay color 11 16;
#X msg 5 226 \; track1decay color 11 16;
#X msg 5 264 \; track2decay color 11 16;
#X msg 10 41 \; track0decay color 11 16;
#X msg 12 -258 \; track0decay color 13 16;
#X msg 6 -107 \; track0decay color 11 16;
#X msg 6 191 \; track0decay color 11 16;
#X obj 229 89 route 0 1 2;
#X obj 184 -265 route 0 1 2;
#X obj 47 -289 route 0 1 2;
#X obj 643 -292 route 0 1 2;
#X msg 1162 -268 \; a_can label \$1;
#X obj 1162 -285 makefilename A_%.2f;
#N canvas 4 135 288 272 colorRGB 0;
#X obj 16 27 inlet;
#X obj 93 28 inlet;
#X text 21 9 red;
#X text 93 11 green;
#X obj 159 75 t b f;
#X obj 93 112 +;
#X obj 93 137 t b f;
#X obj 93 168 +;
#X obj 16 52 * -65536;
#X obj 93 53 * -256;
#X obj 159 53 * -1;
#X obj 93 199 - 1;
#X obj 159 28 inlet;
#X obj 93 226 outlet;
#X text 161 11 blue;
#X connect 0 0 8 0;
#X connect 1 0 9 0;
#X connect 4 0 5 0;
#X connect 4 1 5 1;
#X connect 5 0 6 0;
#X connect 6 0 7 0;
#X connect 6 1 7 1;
#X connect 7 0 11 0;
#X connect 8 0 7 0;
#X connect 9 0 5 0;
#X connect 10 0 4 0;
#X connect 11 0 13 0;
#X connect 12 0 10 0;
#X restore 1027 -161 pd colorRGB;
#X msg 1027 -144 \; color_can color \$1;
#X obj 1027 -228 * 255;
#X obj 1027 -196 int;
#N canvas 4 135 288 291 colorRGB 0;
#X obj 16 27 inlet;
#X obj 93 28 inlet;
#X text 21 9 red;
#X text 93 11 green;
#X obj 159 75 t b f;
#X obj 93 112 +;
#X obj 93 137 t b f;
#X obj 93 168 +;
#X obj 16 52 * -65536;
#X obj 93 53 * -256;
#X obj 159 53 * -1;
#X obj 93 199 - 1;
#X obj 159 28 inlet;
#X obj 93 226 outlet;
#X text 161 11 blue;
#X connect 0 0 8 0;
#X connect 1 0 9 0;
#X connect 4 0 5 0;
#X connect 4 1 5 1;
#X connect 5 0 6 0;
#X connect 6 0 7 0;
#X connect 6 1 7 1;
#X connect 7 0 11 0;
#X connect 8 0 7 0;
#X connect 9 0 5 0;
#X connect 10 0 4 0;
#X connect 11 0 13 0;
#X connect 12 0 10 0;
#X restore 1162 -163 pd colorRGB;
#X obj 1162 -228 * 255;
#X obj 1162 -198 int;
#X msg 1162 -146 \; alpha_can color \$1;
#X obj 1027 -313 inlet;
#X msg 1027 -266 \; gray_can label \$1;
#X obj 1027 -283 makefilename G_%.2f;
#X obj 660 -17 route 0 1;
#X obj 849 -23 route 0 1;
#X obj 848 -148 route 0 1;
#X msg 640 -234 \; track0replay_can color 17 12;
#X msg 647 -188 \; track0replay_can color 13 12;
#X msg 638 -119 \; track2replay_can color 17 12;
#X msg 645 -73 \; track2replay_can color 13 12;
#X msg 653 11 \; track0replay_can label _;
#X msg 657 51 \; track0replay_can label Ps;
#X msg 850 51 \; track1replay_can label Ps;
#X msg 843 5 \; track1replay_can label _;
#X msg 849 -73 \; track2replay_can label Ps;
#X msg 842 -121 \; track2replay_can label _;
#X msg 836 -194 \; track1replay_can color 13 12;
#X msg 829 -240 \; track1replay_can color 17 12;
#X obj 1162 -314 inlet;
#X msg 187 151 \; source_track_record_0_can color 17 12;
#X msg 200 310 \; source_track_record_1_can color 13 12;
#X msg 193 264 \; source_track_record_1_can color 17 12;
#X msg 195 381 \; source_track_record_2_can color 17 12;
#X msg 202 427 \; source_track_record_2_can color 13 12;
#X msg 167 -169 \; source_track_record_0_can label s;
#X msg 171 -131 \; source_track_record_1_can label s;
#X msg 174 -89 \; source_track_record_2_can label s;
#X msg 175 -43 \; source_track_record_0_can label _;
#X msg 177 -3 \; source_track_record_1_can label _;
#X msg 179 40 \; source_track_record_2_can label _;
#X obj 428 -314 inlet;
#X obj 437 121 route 0 1;
#X obj 443 234 route 0 1;
#X obj 445 351 route 0 1;
#X obj 416 -226 route 1 0;
#X obj 478 -225 route 1 0;
#X obj 539 -225 route 1 0;
#X obj 473 87 route 0 1 2;
#X obj 428 -267 route 0 1 2;
#X msg 419 -44 \; target_track_record_0_can label _;
#X msg 421 -5 \; target_track_record_1_can label _;
#X msg 423 37 \; target_track_record_2_can label _;
#X msg 431 149 \; target_track_record_0_can color 17 12;
#X msg 437 262 \; target_track_record_1_can color 17 12;
#X msg 444 308 \; target_track_record_1_can color 13 12;
#X msg 439 378 \; target_track_record_2_can color 17 12;
#X msg 446 425 \; target_track_record_2_can color 13 12;
#X msg 438 195 \; target_track_record_0_can color 13 12;
#X msg 195 197 \; source_track_record_0_can color 13 12;
#X msg 415 -171 \; target_track_record_0_can label t;
#X msg 415 -133 \; target_track_record_1_can label t;
#X msg 418 -91 \; target_track_record_2_can label t;
#X connect 0 0 27 0;
#X connect 1 0 24 0;
#X connect 1 0 25 0;
#X connect 2 0 26 0;
#X connect 3 0 44 0;
#X connect 3 1 45 0;
#X connect 4 0 55 0;
#X connect 4 1 54 0;
#X connect 5 0 46 0;
#X connect 5 1 47 0;
#X connect 6 0 57 0;
#X connect 6 1 86 0;
#X connect 7 0 59 0;
#X connect 7 1 58 0;
#X connect 8 0 60 0;
#X connect 8 1 61 0;
#X connect 9 0 62 0;
#X connect 9 1 65 0;
#X connect 10 0 63 0;
#X connect 10 1 66 0;
#X connect 11 0 64 0;
#X connect 11 1 67 0;
#X connect 24 0 6 0;
#X connect 24 1 7 0;
#X connect 24 2 8 0;
#X connect 25 0 9 0;
#X connect 25 1 10 0;
#X connect 25 2 11 0;
#X connect 26 0 21 0;
#X connect 26 0 16 0;
#X connect 26 0 17 0;
#X connect 26 1 12 0;
#X connect 26 1 15 0;
#X connect 26 1 20 0;
#X connect 26 2 22 0;
#X connect 26 2 14 0;
#X connect 26 2 13 0;
#X connect 26 3 23 0;
#X connect 26 3 18 0;
#X connect 26 3 19 0;
#X connect 27 0 3 0;
#X connect 27 0 41 0;
#X connect 27 1 4 0;
#X connect 27 1 42 0;
#X connect 27 2 5 0;
#X connect 27 2 43 0;
#X connect 29 0 28 0;
#X connect 30 0 31 0;
#X connect 32 0 33 0;
#X connect 33 0 30 0;
#X connect 33 0 30 1;
#X connect 33 0 30 2;
#X connect 34 0 37 0;
#X connect 35 0 36 0;
#X connect 36 0 34 0;
#X connect 36 0 34 1;
#X connect 36 0 34 2;
#X connect 38 0 40 0;
#X connect 38 0 32 0;
#X connect 40 0 39 0;
#X connect 41 0 48 0;
#X connect 41 1 49 0;
#X connect 42 0 51 0;
#X connect 42 1 50 0;
#X connect 43 0 53 0;
#X connect 43 1 52 0;
#X connect 56 0 29 0;
#X connect 56 0 35 0;
#X connect 68 0 75 0;
#X connect 68 0 76 0;
#X connect 69 0 80 0;
#X connect 69 1 85 0;
#X connect 70 0 81 0;
#X connect 70 1 82 0;
#X connect 71 0 83 0;
#X connect 71 1 84 0;
#X connect 72 0 87 0;
#X connect 72 1 77 0;
#X connect 73 0 88 0;
#X connect 73 1 78 0;
#X connect 74 0 89 0;
#X connect 74 1 79 0;
#X connect 75 0 69 0;
#X connect 75 1 70 0;
#X connect 75 2 71 0;
#X connect 76 0 72 0;
#X connect 76 1 73 0;
#X connect 76 2 74 0;
#X restore 115 -4816 pd trackMessageDisplay;
#N canvas 0 234 1364 634 environmentMessageDisplay 0;
#X msg 16 287 \; brush_can label Earth;
#X msg 14 54 \; brush_can label Circle;
#X obj 562 68 pack f;
#X obj 562 85 makefilename %d;
#X obj 363 8 route 0 1 2 3 4 5 6 7 8;
#X msg 365 30 \; CAType_can label GOL;
#X msg 482 334 \; CAType_can label CA5;
#X obj 37 -11 inlet;
#X obj 363 -14 inlet;
#X obj 222 -15 inlet;
#X obj 691 -15 inlet;
#X msg 624 208 \; drawing_can label X;
#X msg 625 246 \; drawing_can label Line;
#X obj 624 182 route 0 1 2 3;
#X obj 551 -16 inlet;
#X obj 828 164 route 0 1 2;
#X msg 805 192 \; particles_can label X;
#X msg 806 230 \; particles_can label Particles;
#X msg 805 275 \; particles_can label Firework;
#X obj 746 -14 inlet;
#X msg 806 21 \; radius_can label \$1;
#X msg 825 87 \; message_can label \$1;
#X obj 827 69 pack s;
#X obj 806 -17 inlet;
#X obj 859 -17 inlet;
#X msg 629 288 \; drawing_can label Dots;
#X msg 631 332 \; drawing_can label Bezier;
#X msg 550 34 \; CASubType_can label X;
#X msg 562 102 \; CASubType_can label \$1;
#X obj 934 -20 inlet;
#X obj 934 2 s echo;
#X obj 980 -21 inlet;
#X obj 980 2 s echoNeg;
#X obj 1030 -19 inlet;
#X obj 1082 -21 inlet;
#X obj 949 26 pack s;
#X msg 997 123 \; time_can color 13 12;
#X obj 997 95 route 0 1 2 3;
#X msg 996 245 \; time_can color 16 12;
#X msg 998 163 \; time_can color 14 12;
#X msg 996 203 \; time_can color 15 12;
#X msg 949 47 \; time_can label \$1;
#X msg 12 132 \; brush_can label FineGrain;
#X msg 15 174 \; brush_can label LargeGrain;
#X msg 16 211 \; brush_can label Ring;
#X msg 17 247 \; brush_can label Sun;
#X msg 15 327 \; brush_can label Moon;
#X msg 12 93 \; brush_can label Oval;
#X obj 37 12 route 0 1 2 3 4 5 6 7;
#X obj 1227 -20 inlet;
#X obj 1187 7 s input_volume;
#X obj 1340 -13 inlet;
#X obj 1360 103 route 1 0;
#X msg 1360 132 \; invert_can color 13 12;
#X msg 1361 167 \; invert_can color 16 12;
#X msg 195 61 \; texture_can label Circle;
#X msg 194 102 \; texture_can label Band;
#X msg 193 145 \; texture_can label Low_noise;
#X msg 195 185 \; texture_can label Med_noise;
#X msg 197 223 \; texture_can label High_noise;
#X msg 198 257 \; texture_can label Worms;
#X msg 197 293 \; texture_can label RandNoise;
#X obj 218 19 route 0 1 2 3 4 5 6 7;
#X msg 196 328 \; texture_can label Circle;
#X obj 34 383 expr if ($f1 < 0.5 \, 0 \, if($f1 < 1.5 \, 1 \, if($f1
< 2.5 \, 2 \, if($f1 < 3.5 \, 3 \, if($f1 < 4.5 \, 4 \, if($f1 < 5.5
\, 5 \, if($f1 < 6.5 \, 6 \, 7)))))));
#X obj 551 6 route 0;
#X msg 396 147 \; CAType_can label Gal_Moore;
#X msg 407 184 \; CAType_can label Gal_Neumann;
#X msg 374 68 \; CAType_can label Totalistic;
#X msg 387 107 \; CAType_can label Generation;
#X msg 446 260 \; CAType_can label Tunnel;
#X msg 460 296 \; CAType_can label Worm;
#X msg 426 223 \; CAType_can label Bin_Neumann;
#X obj 1150 -22 inlet;
#X msg 1127 81 \; tabletPressure_can label \$1;
#X obj 1128 55 makefilename %.0f;
#X obj 806 4 makefilename %.0f;
#X connect 2 0 3 0;
#X connect 3 0 28 0;
#X connect 4 0 5 0;
#X connect 4 1 68 0;
#X connect 4 2 69 0;
#X connect 4 3 66 0;
#X connect 4 4 67 0;
#X connect 4 5 72 0;
#X connect 4 6 70 0;
#X connect 4 7 71 0;
#X connect 4 8 6 0;
#X connect 7 0 48 0;
#X connect 8 0 4 0;
#X connect 9 0 64 0;
#X connect 10 0 13 0;
#X connect 13 0 11 0;
#X connect 13 1 12 0;
#X connect 13 2 25 0;
#X connect 13 3 26 0;
#X connect 14 0 65 0;
#X connect 15 0 16 0;
#X connect 15 1 17 0;
#X connect 15 2 18 0;
#X connect 19 0 15 0;
#X connect 22 0 21 0;
#X connect 23 0 76 0;
#X connect 24 0 22 0;
#X connect 29 0 30 0;
#X connect 31 0 32 0;
#X connect 33 0 35 0;
#X connect 34 0 37 0;
#X connect 35 0 41 0;
#X connect 37 0 36 0;
#X connect 37 1 39 0;
#X connect 37 2 40 0;
#X connect 37 3 38 0;
#X connect 48 0 1 0;
#X connect 48 1 47 0;
#X connect 48 2 42 0;
#X connect 48 3 43 0;
#X connect 48 4 44 0;
#X connect 48 5 45 0;
#X connect 48 6 0 0;
#X connect 48 7 46 0;
#X connect 49 0 50 0;
#X connect 51 0 52 0;
#X connect 52 0 53 0;
#X connect 52 1 54 0;
#X connect 62 0 55 0;
#X connect 62 1 56 0;
#X connect 62 2 57 0;
#X connect 62 3 58 0;
#X connect 62 4 59 0;
#X connect 62 5 60 0;
#X connect 62 6 61 0;
#X connect 62 7 63 0;
#X connect 64 0 62 0;
#X connect 65 0 27 0;
#X connect 65 1 2 0;
#X connect 73 0 75 0;
#X connect 75 0 74 0;
#X connect 76 0 20 0;
#X restore 115 -4905 pd environmentMessageDisplay;
#N canvas 96 142 1508 407 trackDecayMessages 0;
#X msg -401 139 \; track2decay_sign_can label +;
#X msg -395 183 \; track2decay_sign_can label -;
#X msg -207 138 \; track2decay_sign_can color 13 12;
#X msg -200 184 \; track2decay_sign_can color 17 12;
#X msg -402 19 \; track1decay_sign_can label +;
#X msg -396 61 \; track1decay_sign_can label -;
#X msg -208 16 \; track1decay_sign_can color 13 12;
#X msg -201 62 \; track1decay_sign_can color 17 12;
#X obj -870 -58 inlet;
#X obj 70 64 pack f;
#X obj 68 105 pack f;
#X obj 69 148 pack f;
#X obj 69 126 s track1decay;
#X obj 70 169 s track2decay;
#X obj 6 -7 pack f;
#X obj 61 -44 inlet;
#X obj 2 -43 inlet;
#X msg -679 43 \; track0decay_sign_can label +;
#X msg -673 87 \; track0decay_sign_can label -;
#X msg -658 136 \; track0decay_sign_can color 13 12;
#X msg -625 183 \; track0decay_sign_can color 17 12;
#X obj 70 82 s track0decay;
#X obj 6 10 s CAdecay;
#X msg -893 47 \; CAdecay_sign_can label +;
#X msg -887 92 \; CAdecay_sign_can label -;
#X msg -872 141 \; CAdecay_sign_can color 13 12;
#X msg -845 182 \; CAdecay_sign_can color 17 12;
#X obj -526 -63 inlet;
#X obj 199 59 pack f;
#X obj 197 100 pack f;
#X obj 198 143 pack f;
#X obj 190 -49 inlet;
#X obj 199 77 s track0weight;
#X obj 198 121 s track1weight;
#X obj 197 164 s track2weight;
#X obj 341 -54 inlet;
#X obj 345 -25 route -1 1;
#X msg 347 22 \; track0decay color 11 16;
#X msg 374 76 \; track0decay color 17 16;
#X obj -525 -38 route 0 1 2;
#X obj 69 -19 route 0 1 2;
#X obj 198 -24 route 0 1 2;
#X obj 278 -15 pack f;
#X obj 274 -51 inlet;
#X obj 278 4 s CAweight;
#X obj -870 3 route -1 1;
#X obj -656 1 route -1 1;
#X obj -377 -1 route -1 1;
#X obj -377 108 route -1 1;
#X connect 8 0 45 0;
#X connect 9 0 21 0;
#X connect 10 0 12 0;
#X connect 11 0 13 0;
#X connect 14 0 22 0;
#X connect 15 0 40 0;
#X connect 16 0 14 0;
#X connect 27 0 39 0;
#X connect 28 0 32 0;
#X connect 29 0 33 0;
#X connect 30 0 34 0;
#X connect 31 0 41 0;
#X connect 35 0 36 0;
#X connect 36 0 37 0;
#X connect 36 1 38 0;
#X connect 39 0 46 0;
#X connect 39 1 47 0;
#X connect 39 2 48 0;
#X connect 40 0 9 0;
#X connect 40 1 10 0;
#X connect 40 2 11 0;
#X connect 41 0 28 0;
#X connect 41 1 29 0;
#X connect 41 2 30 0;
#X connect 42 0 44 0;
#X connect 43 0 42 0;
#X connect 45 0 23 0;
#X connect 45 0 25 0;
#X connect 45 1 24 0;
#X connect 45 1 26 0;
#X connect 46 0 17 0;
#X connect 46 0 19 0;
#X connect 46 1 18 0;
#X connect 46 1 20 0;
#X connect 47 0 4 0;
#X connect 47 0 6 0;
#X connect 47 1 5 0;
#X connect 47 1 7 0;
#X connect 48 0 0 0;
#X connect 48 0 2 0;
#X connect 48 1 1 0;
#X connect 48 1 3 0;
#X restore 132 -4726 pd trackDecayMessages;
#X obj -607 -4869 s RGBspectrum;
#X obj 33 -4792 route /CAdecay_sign_can /trackdecay_sign_can /CAdecay_can
/trackdecay_can /trackweight_can /CAweight_can /lighttrack0_can;
#X msg -586 -4807 \; setup_can label \$1;
#X obj -586 -4825 pack s;
#X msg -315 -4746 \; color_spectrum_coef_can label \$1;
#X msg -252 -4968 \; brush_radius_vol_replay_coef_can label \$1;
#X msg -267 -4914 \; color_spectrum_replay_coef_can label \$1;
#X obj -226 -5020 s connect;
#X obj -613 -5178 netreceive 1979 1;
#X text -452 -5194 and processing messages from Porphyrograph;
#X msg -286 -4854 \; part_acc_attack_coef_can label \$1;
#X obj -476 -4891 makefilename %.2f;
#X msg -476 -4874 \; part_acc_factor_can label \$1;
#X obj 369 -4926 print dump;
#X obj 23 -5015 route /brushID_can /particle_texture_ID_can /CAType_can
/CASubType_can /drawing_can /particleMode_can /brushRadius_can /message_can
/echo_can /echoNeg_can /time_can /time_color_can /brush_radius_pressure_coef_can
/input_volume_can /invertAllLayers_can;
#X obj 24 -4881 route /currentTrack_can /source_track_record_can /target_track_record_can
/track_replay_can /local_color_r_can /local_color_a_can;
#X obj -252 -4985 makefilename %.0f;
#X obj -267 -4931 makefilename %.0f;
#X obj -315 -4763 makefilename %.0f;
#X obj -286 -4871 makefilename %.2f;
#X obj -612 -5155 route /launch /RGBspectrum_can /restart /setup_can
/return_message /part_acc_factor_can /color_spectrum_coef_can /part_acc_attack_coef_can
/color_spectrum_replay_coef_can /brush_radius_vol_replay_coef_can /connect
;
#N canvas 111 67 1610 781 flashAndLoopMessageDisplay 0;
#X obj -548 -4945 makefilename %.0f;
#X obj 144 -4934 makefilename %.0f;
#X obj -547 -4972 inlet;
#X obj 144 -4978 inlet;
#X obj 404 -4926 makefilename %.0f;
#X msg 404 -4909 \; loop_beat_can label \$1;
#X obj 578 -4925 makefilename %.0f;
#X obj 578 -4810 makefilename %.0f;
#X msg 578 -4793 \; flashPart_duration_can label \$1;
#X obj 578 -4869 makefilename %.0f;
#X msg 578 -4908 \; flashTrack0_number_can label \$1;
#X msg 578 -4852 \; flashCA_number_can label \$1;
#X obj 404 -4990 inlet;
#X obj 578 -4987 inlet;
#X obj 639 -4986 inlet;
#X obj 704 -4987 inlet;
#X obj 814 -4986 inlet;
#X obj 871 -4985 inlet;
#X obj 930 -4983 inlet;
#X msg 147 -4917 \; flashBack_freq_can label \$1;
#X obj 814 -4945 s flashTrack0_coef;
#X obj 815 -4916 s flashCA_coef;
#X obj 816 -4886 s flashBack_coef;
#X obj 983 -4985 inlet;
#X msg 816 -4835 \; auto_beat_can label \$1;
#X obj 816 -4852 makefilename %d;
#X obj -321 -4986 inlet;
#X obj -330 -4678 route 0 1;
#X obj -324 -4565 route 0 1;
#X obj -322 -4448 route 0 1;
#X obj -294 -4712 route 0 1 2;
#X obj -321 -4939 route 0 1 2;
#X obj -332 -4896 makefilename %d;
#X obj -334 -4840 makefilename %d;
#X obj -331 -4783 makefilename %d;
#X msg -331 -4763 \; flashCA_freq_2_can label \$1;
#X msg -334 -4823 \; flashCA_freq_1_can label \$1;
#X msg -332 -4879 \; flashCA_freq_0_can label \$1;
#X obj -185 -4981 inlet;
#X msg -336 -4650 \; flashCA_freq_0_can color 17 12;
#X msg -329 -4604 \; flashCA_freq_0_can color 13 12;
#X msg -330 -4537 \; flashCA_freq_1_can color 17 12;
#X msg -323 -4491 \; flashCA_freq_1_can color 13 12;
#X msg -328 -4421 \; flashCA_freq_2_can color 17 12;
#X msg -321 -4374 \; flashCA_freq_2_can color 13 12;
#X obj -83 -4981 inlet;
#X obj -90 -4731 route 0 1;
#X obj -84 -4618 route 0 1;
#X obj -94 -4891 makefilename %d;
#X obj -96 -4835 makefilename %d;
#X obj 45 -4978 inlet;
#X obj -83 -4934 route 1 2;
#X obj -54 -4765 route 1 2;
#X msg -94 -4873 \; flashTrack0_freq_1_can label \$1;
#X msg -96 -4818 \; flashTrack0_freq_2_can label \$1;
#X msg -96 -4703 \; flashTrack0_freq_1_can color 17 12;
#X msg -89 -4657 \; flashTrack0_freq_1_can color 13 12;
#X msg -90 -4590 \; flashTrack0_freq_2_can color 17 12;
#X msg -83 -4544 \; flashTrack0_freq_2_can color 13 12;
#X obj -555 -4869 route 0 1;
#X obj -445 -4978 inlet;
#X msg -561 -4841 \; flashPart_freq_can color 17 12;
#X msg -554 -4795 \; flashPart_freq_can color 13 12;
#X obj 146 -4871 route 0 1;
#X obj 256 -4980 inlet;
#X msg 140 -4843 \; flashBack_freq_can color 17 12;
#X msg 147 -4797 \; flashBack_freq_can color 13 12;
#X msg -549 -4927 \; flashPart_freq_can label \$1;
#X connect 0 0 67 0;
#X connect 1 0 19 0;
#X connect 2 0 0 0;
#X connect 3 0 1 0;
#X connect 4 0 5 0;
#X connect 6 0 10 0;
#X connect 7 0 8 0;
#X connect 9 0 11 0;
#X connect 12 0 4 0;
#X connect 13 0 6 0;
#X connect 14 0 9 0;
#X connect 15 0 7 0;
#X connect 16 0 20 0;
#X connect 17 0 21 0;
#X connect 18 0 22 0;
#X connect 23 0 25 0;
#X connect 25 0 24 0;
#X connect 26 0 31 0;
#X connect 27 0 39 0;
#X connect 27 1 40 0;
#X connect 28 0 41 0;
#X connect 28 1 42 0;
#X connect 29 0 43 0;
#X connect 29 1 44 0;
#X connect 30 0 27 0;
#X connect 30 1 28 0;
#X connect 30 2 29 0;
#X connect 31 0 32 0;
#X connect 31 1 33 0;
#X connect 31 2 34 0;
#X connect 32 0 37 0;
#X connect 33 0 36 0;
#X connect 34 0 35 0;
#X connect 38 0 30 0;
#X connect 45 0 51 0;
#X connect 46 0 55 0;
#X connect 46 1 56 0;
#X connect 47 0 57 0;
#X connect 47 1 58 0;
#X connect 48 0 53 0;
#X connect 49 0 54 0;
#X connect 50 0 52 0;
#X connect 51 0 48 0;
#X connect 51 1 49 0;
#X connect 52 0 46 0;
#X connect 52 1 47 0;
#X connect 59 0 61 0;
#X connect 59 1 62 0;
#X connect 60 0 59 0;
#X connect 63 0 65 0;
#X connect 63 1 66 0;
#X connect 64 0 63 0;
#X restore 108 -5042 pd flashAndLoopMessageDisplay;
#X obj 12 -5167 route /flashPart_freq_can /flashPart_onOff_can /flashCA_freq_can
/flashCA_onOff_can /flashTrack0_freq_can /flashTrack0_onOff_can /flashBack_freq_can
/flashBack_onOff_can /loop_beat_can /flashTrack0_number_can /flashCA_number_can
/flashPart_duration_can /flashTrack0_coef_can /flashCA_coef_can /flashBack_coef_can
/auto_beat_can;
#X connect 4 0 5 0;
#X connect 5 0 3 0;
#X connect 10 0 8 0;
#X connect 10 1 8 1;
#X connect 10 2 8 2;
#X connect 10 3 8 3;
#X connect 10 4 8 4;
#X connect 10 5 8 5;
#X connect 10 6 8 6;
#X connect 12 0 11 0;
#X connect 17 0 29 0;
#X connect 20 0 21 0;
#X connect 23 0 7 0;
#X connect 23 1 7 1;
#X connect 23 2 7 2;
#X connect 23 3 7 3;
#X connect 23 4 7 4;
#X connect 23 5 7 5;
#X connect 23 6 7 6;
#X connect 23 7 7 7;
#X connect 23 8 7 8;
#X connect 23 9 7 9;
#X connect 23 10 7 10;
#X connect 23 11 7 11;
#X connect 23 12 7 12;
#X connect 23 13 7 13;
#X connect 23 14 7 14;
#X connect 23 15 24 0;
#X connect 24 0 6 0;
#X connect 24 1 6 1;
#X connect 24 2 6 2;
#X connect 24 3 6 3;
#X connect 24 4 6 4;
#X connect 24 5 6 5;
#X connect 24 6 10 0;
#X connect 25 0 14 0;
#X connect 26 0 15 0;
#X connect 27 0 13 0;
#X connect 28 0 19 0;
#X connect 29 0 1 0;
#X connect 29 1 9 0;
#X connect 29 2 2 0;
#X connect 29 3 12 0;
#X connect 29 4 4 0;
#X connect 29 5 20 0;
#X connect 29 6 27 0;
#X connect 29 7 28 0;
#X connect 29 8 26 0;
#X connect 29 9 25 0;
#X connect 29 10 16 0;
#X connect 29 11 31 0;
#X connect 31 0 30 0;
#X connect 31 1 30 1;
#X connect 31 2 30 2;
#X connect 31 3 30 3;
#X connect 31 4 30 4;
#X connect 31 5 30 5;
#X connect 31 6 30 6;
#X connect 31 7 30 7;
#X connect 31 8 30 8;
#X connect 31 9 30 9;
#X connect 31 10 30 10;
#X connect 31 11 30 11;
#X connect 31 12 30 12;
#X connect 31 13 30 13;
#X connect 31 14 30 14;
#X connect 31 15 30 15;
#X connect 31 16 23 0;
#X restore -521 -163 pd dumpVCMessages;
#X obj -609 -146 s connect;
#X obj -687 -145 s disconnect;
#X obj -687 -187 bng 15 250 50 0 empty empty empty 0 -6 0 8 -24198
-1 -1;
#X text -665 -188 Manual connection;
#X text -523 -179 OSC input messages;
#X obj -687 -165 delay 3000;
#X obj -609 -165 delay 3050;
#X msg -661 -72 0;
#N canvas 167 301 506 354 MIDIControl_SC 0;
#X obj 13 -332 vsl 15 128 0 1 0 0 empty empty empty 0 -8 0 8 -262144
-1 -1 0 1;
#X obj 13 -368 bng 15 250 50 0 empty empty empty 17 7 0 10 -262144
-1 -1;
#X obj 13 -387 loadbang;
#X msg 13 -352 0;
#X obj 43 -305 ctlin 7 7;
#X text 12 -408 GOL DECAY;
#X obj 377 -332 vsl 15 10 0 1 0 0 empty empty empty 0 -8 0 8 -262144
-1 -1 0 1;
#X obj 378 -365 bng 15 250 50 0 empty empty empty 17 7 0 10 -262144
-1 -1;
#X obj 378 -384 loadbang;
#X msg 378 -350 0;
#X obj 417 -351 / 127;
#X obj 416 -367 ctlin 24 1;
#X msg 377 -319 send /PDdelayroom_on;
#X text 378 -404 PDdelayroom on/off;
#X obj 43 -289 / 127;
#X obj 12 -184 s message_SC;
#X obj 376 -304 s message_SC;
#X msg 13 -202 send /PDRoom 0 \$1 0 \$1;
#X obj 186 -336 vsl 15 128 0 1 0 0 empty empty empty 0 -8 0 8 -262144
-1 -1 0 1;
#X obj 186 -372 bng 15 250 50 0 empty empty empty 17 7 0 10 -262144
-1 -1;
#X obj 186 -391 loadbang;
#X msg 186 -356 0;
#X obj 216 -309 ctlin 7 7;
#X text 185 -412 GOL DECAY;
#X obj 216 -293 / 127;
#X obj 185 -188 s message_SC;
#X obj 375 -206 vsl 15 10 0 1 0 0 empty empty empty 0 -8 0 8 -262144
-1 -1 0 1;
#X obj 376 -239 bng 15 250 50 0 empty empty empty 17 7 0 10 -262144
-1 -1;
#X obj 376 -258 loadbang;
#X msg 376 -224 0;
#X obj 415 -225 / 127;
#X obj 414 -241 ctlin 24 1;
#X text 376 -278 PDdelayroom on/off;
#X obj 374 -178 s message_SC;
#X msg 375 -193 send /PDdelayroom_off;
#X msg 186 -206 send /PDdelay 0 \$1 0 \$1;
#X connect 0 0 17 0;
#X connect 1 0 3 0;
#X connect 2 0 1 0;
#X connect 3 0 0 0;
#X connect 4 0 14 0;
#X connect 6 0 12 0;
#X connect 7 0 9 0;
#X connect 8 0 7 0;
#X connect 9 0 6 0;
#X connect 11 0 10 0;
#X connect 12 0 16 0;
#X connect 17 0 15 0;
#X connect 18 0 35 0;
#X connect 19 0 21 0;
#X connect 20 0 19 0;
#X connect 21 0 18 0;
#X connect 22 0 24 0;
#X connect 26 0 34 0;
#X connect 27 0 29 0;
#X connect 28 0 27 0;
#X connect 29 0 26 0;
#X connect 31 0 30 0;
#X connect 34 0 33 0;
#X connect 35 0 25 0;
#X coords 0 0 10 10 0 0 0;
#X restore -519 -47 pd MIDIControl_SC;
#X text -520 -63 USB Controller for Supercollider;
#X connect 2 0 1 0;
#X connect 3 0 1 1;
#X connect 4 0 1 2;
#X connect 5 0 1 3;
#X connect 7 0 0 0;
#X connect 8 0 0 1;
#X connect 9 0 7 0;
#X connect 13 0 15 0;
#X connect 13 0 38 0;
#X connect 14 0 13 0;
#X connect 15 0 3 0;
#X connect 15 0 4 0;
#X connect 15 0 5 0;
#X connect 19 0 20 0;
#X connect 22 0 27 0;
#X connect 23 0 24 0;
#X connect 33 0 36 0;
#X connect 33 0 37 0;
#X connect 36 0 32 0;
#X connect 37 0 31 0;
#X connect 38 0 2 0;
#X restore -710 -287 pd initial_board;
#X obj -546 204 cnv 15 20 25 empty track1decay_sign_can - 5 12 1 24
-44926 -33289 0;
#X obj -515 204 cnv 15 20 25 empty track2decay_sign_can - 5 12 1 24
-44926 -33289 0;
#X obj -607 71 vsl 15 128 0 0.01 0 0 empty track0decay BG 0 -9 0 14
-258699 -1 -24198 12700 1;
#X obj -640 72 vsl 15 128 0 0.01 0 0 empty CAdecay CA 0 -9 0 14 -162280
-1 -4034 6731 1;
#X obj -547 72 vsl 15 128 0 0.01 0 0 empty track1decay 1 0 -9 0 14
-128992 -1 -24198 0 1;
#X obj -513 71 vsl 15 128 0 0.01 0 0 empty track2decay 2 0 -9 0 14
-128992 -1 -24198 0 1;
#X obj -555 235 cnv 15 35 25 empty track1replay_can _ 5 12 1 24 -44926
-33289 0;
#X obj -515 235 cnv 15 35 25 empty track2replay_can _ 5 12 1 24 -44926
-33289 0;
#X obj -556 265 cnv 15 17 25 empty source_track_record_1_can _ 5 12
1 24 -44926 -33289 0;
#X obj -516 265 cnv 15 17 25 empty source_track_record_2_can _ 5 12
1 24 -44926 -33289 0;
#X obj -646 234 cnv 15 60 25 empty empty PLAY 0 12 1 14 -1 -4034 0
;
#X obj -641 264 cnv 15 60 25 empty empty REC 0 12 1 14 -1 -4034 0;
#X obj -624 -76 cnv 15 20 25 empty empty / 0 12 1 14 -1 -4034 0;
#X obj -614 -76 cnv 15 60 25 empty CASubType_can 5 0 12 1 14 -1 -262144
0;
#X obj -608 207 cnv 15 20 25 empty track0decay_sign_can - 5 12 1 24
-44926 -33289 0;
#X obj -608 237 cnv 15 35 25 empty track0replay_can _ 5 12 1 24 -44926
-33289 0;
#X obj -609 266 cnv 15 17 25 empty source_track_record_0_can _ 5 12
1 24 -44926 -33289 0;
#X obj -592 71 vsl 8 128 0 1 0 0 empty track0weight empty 0 -9 0 10
-4032 -1 -1 12700 1;
#X obj -533 72 vsl 8 128 0 1 0 0 empty track1weight empty 0 -9 0 10
-4032 -1 -1 12700 1;
#X obj -498 71 vsl 8 128 0 1 0 0 empty track2weight empty 0 -9 0 10
-4032 -1 -1 0 1;
#X obj -625 72 vsl 8 128 0 1 0 0 empty CAweight empty 0 -9 0 10 -4032
-1 -1 12700 1;
#X obj -512 -118 vsl 15 80 0 1 0 0 empty echoNeg empty 0 -9 0 14 -162280
-1 -4034 0 1;
#X obj -720 3 cnv 15 50 25 empty a_can A_1.00 0 12 1 14 -262144 -66577
0;
#X obj -783 301 cnv 15 60 25 empty empty Freq_Particle: 0 12 1 12 -1
-4034 0;
#X obj -620 3 cnv 15 20 50 empty palette3_can empty 0 12 1 14 -226586
-262144 0;
#X obj -783 329 cnv 15 60 25 empty empty Freq_Back: 0 12 1 12 -1 -4034
0;
#X obj -776 27 cnv 15 50 25 empty color_can empty 20 12 0 14 -262144
-262144 0;
#X obj -720 27 cnv 15 50 25 empty alpha_can empty 0 12 1 14 -262144
-262144 0;
#X obj -712 -178 cnv 15 130 25 empty brush_can Circle 0 12 1 14 -1
-262144 0;
#X obj -712 -158 cnv 15 130 25 empty radius_can 1 0 12 1 14 -1 -262144
0;
#X obj -541 -208 vsl 15 60 0 1.01 0 0 empty input_volume VOLUME 0 -9
0 14 -162280 -1 -4034 1168 1;
#X obj -665 300 cnv 15 15 25 empty empty X 0 12 1 12 -1 -4034 0;
#X obj -651 300 cnv 15 20 25 empty flashPart_duration_can 0 0 12 1
14 -1 -262144 0;
#X obj -648 -156 cnv 15 50 25 empty radius_vol_can 0 0 12 1 14 -1 -262144
0;
#X obj -776 3 cnv 15 50 25 empty gray_can G_1.00 0 12 1 14 -262144
-66577 0;
#X obj -666 -158 cnv 15 15 25 empty empty + 0 12 1 24 -1 -4034 0;
#X obj -773 -48 cnv 15 60 25 empty empty MUSIC 0 12 1 14 -1 -4034 0
;
#X obj -685 -45 cnv 15 60 25 empty color_spectrum_coef_can 2 0 12 1
14 -1 -262144 0;
#X obj -713 -45 cnv 15 20 25 empty empty Col 0 12 1 14 -1 -4034 0;
#X obj -603 -40 cnv 15 50 25 empty part_acc_attack_coef_can 0.20 0
12 1 14 -1 -262144 0;
#X obj -634 -41 cnv 15 20 25 empty empty Part 0 12 1 14 -1 -4034 0
;
#X obj -774 110 cnv 15 60 25 empty empty FLASHES 0 12 1 14 -1 -4034
0;
#X obj -686 -24 cnv 15 60 25 empty color_spectrum_replay_coef_can 0
0 12 1 14 -1 -262144 0;
#X obj -765 -25 cnv 15 20 25 empty empty Replay_Col 0 12 1 14 -1 -4034
0;
#X obj -568 -22 cnv 15 60 25 empty brush_radius_vol_replay_coef_can
0 0 12 1 14 -1 -262144 0;
#X obj -652 -23 cnv 15 20 25 empty empty Replay_Rad 0 12 1 14 -1 -4034
0;
#X obj -776 169 cnv 15 60 25 empty empty W_CA: 0 12 1 12 -1 -4034 0
;
#X obj -776 148 cnv 15 60 25 empty empty W_Track: 0 12 1 12 -1 -4034
0;
#X obj -777 190 cnv 15 60 25 empty empty W_Back: 0 12 1 12 -1 -4034
0;
#X obj -718 154 hsl 60 15 0 1 0 0 empty flashTrack0_coef empty -2 -8
0 10 -262144 -1 -1 5900 1;
#X obj -720 198 hsl 60 15 0 1 0 0 empty flashBack_coef empty -2 -8
0 10 -262144 -1 -1 5900 1;
#X obj -719 175 hsl 60 15 0 1 0 0 empty flashCA_coef empty -2 -8 0
10 -262144 -1 -1 5900 1;
#X obj -716 129 cnv 15 60 25 empty empty 0_____1 0 12 1 14 -1 -4034
0;
#X obj -615 -166 cnv 20 30 25 empty invert_can Inv 5 12 1 12 -24198
-33289 0;
#X obj -649 -125 cnv 15 40 25 empty part_acc_factor_can 0.00 0 12 1
14 -1 -262144 0;
#X obj -589 266 cnv 15 17 25 empty target_track_record_0_can _ 5 12
1 24 -44926 -33289 0;
#X obj -537 265 cnv 15 17 25 empty target_track_record_1_can _ 5 12
1 24 -44926 -33289 0;
#X obj -496 265 cnv 15 17 25 empty target_track_record_2_can _ 5 12
1 24 -44926 -33289 0;
#X obj -604 -107 cnv 15 60 25 empty empty auto: 0 12 1 12 -1 -4034
0;
#X obj -566 -106 cnv 15 20 25 empty auto_beat_can 1 0 12 1 14 -1 -262144
0;
#X obj -615 -190 cnv 20 50 20 empty tabletPressure_can 51 5 12 1 12
-24198 -33289 0;
#X obj -618 -216 cnv 15 60 25 empty empty Tabl_Press 0 12 1 14 -1 -4034
0;
#X obj -609 -129 cnv 15 60 25 empty empty BEAT: 0 12 1 12 -1 -4034
0;
#X obj -565 -127 cnv 15 20 25 empty loop_beat_can 1 0 12 1 18 -1 -262144
0;
#X obj -536 -117 vsl 15 80 0 1.01 0 0 empty echo ECHO+- 0 -9 0 14 -162280
-1 -4034 0 1;
#X obj -557 295 cnv 15 35 25 empty flashTrack0_freq_1_can 0 5 12 1
24 -44926 -33289 0;
#X obj -618 296 cnv 15 60 25 empty empty Freq_Bgd: 0 12 1 12 -1 -4034
0;
#X obj -515 295 cnv 15 35 25 empty flashTrack0_freq_2_can 0 5 12 1
24 -44926 -33289 0;
#X obj -558 326 cnv 15 35 25 empty flashCA_freq_1_can 4 5 12 1 24 -44926
-33289 0;
#X obj -516 324 cnv 15 35 25 empty flashCA_freq_2_can 4 5 12 1 24 -44926
-33289 0;
#X obj -650 327 cnv 15 60 25 empty empty Freq_CA: 0 12 1 12 -1 -4034
0;
#X obj -597 325 cnv 15 35 25 empty flashCA_freq_0_can 4 5 12 1 24 -258699
-33289 0;
#X obj -784 279 cnv 15 60 25 empty empty FLASHES 0 12 1 14 -1 -4034
0;
#X obj -713 323 cnv 15 35 25 empty flashBack_freq_can 0 5 12 1 24 -44926
-33289 0;
#X obj -705 292 cnv 15 35 25 empty flashPart_freq_can 0 5 12 1 24 -44926
-33289 0;
#X connect 20 0 21 0;
#X connect 20 1 22 0;
#X connect 20 2 23 0;
