#N canvas 0 0 318 691 10;
#X obj -786 -297 cnv 15 310 660 empty empty empty 20 18 0 14 -1 -66577
0;
#X obj -782 -287 cnv 15 80 30 empty time_can 0:0 0 15 1 32 -258699
-33289 0;
#X obj -775 -178 cnv 15 60 25 empty empty BRUSH: 0 12 1 14 -1 -4034
0;
#X obj -521 -209 vsl 30 60 0 20 0 0 empty soundvolume empty 0 -12 1
20 -162280 -1 -262144 763 1;
#X obj -776 -91 cnv 15 60 25 empty empty TEXT: 0 12 1 14 -1 -4034 0
;
#X obj -711 -90 cnv 15 130 25 empty texture_can Band 0 12 1 14 -1 -262144
0;
#X obj -560 211 cnv 15 20 25 empty CAdecay_sign_can - 5 12 1 24 -44926
-33289 0;
#X obj -713 -60 cnv 15 60 25 empty CAType_can GOL 0 12 1 14 -1 -262144
0;
#X obj -776 -127 cnv 15 60 25 empty empty PART: 0 12 1 14 -1 -4034
0;
#X obj -712 -126 cnv 15 130 25 empty particles_can Particles 0 12 1
14 -1 -262144 0;
#X obj -775 -197 cnv 15 60 25 empty empty STROKE: 0 12 1 14 -1 -4034
0;
#X obj -710 -197 cnv 15 130 25 empty drawing_can Line 0 12 1 14 -1
-262144 0;
#X obj -775 -159 cnv 15 60 25 empty empty RADIUS: 0 12 1 14 -1 -4034
0;
#X obj -776 -227 cnv 15 60 25 empty empty SCENE: 0 12 1 14 -1 -4034
0;
#X obj -709 -228 cnv 15 130 25 empty setup_can final 0 12 1 14 -1 -262144
0;
#X obj -777 -253 cnv 15 140 25 empty message_can INITIAL_BG_CAPTURE
0 12 1 14 -1 -262144 0;
#X obj -588 -289 cnv 15 100 60 empty empty empty 20 12 0 14 -233017
-66577 0;
#X obj -565 -282 ctlin;
#X floatatom -585 -255 5 0 0 0 - - -;
#X floatatom -554 -255 5 0 0 0 - - -;
#X floatatom -522 -255 5 0 0 0 - - -;
#X obj -696 -282 cnv 15 105 20 empty empty empty 20 12 0 14 -233017
-66577 0;
#N canvas 243 0 379 330 initial_board 0;
#N canvas 75 438 447 279 connect 0;
#X msg 26 -14 disconnect;
#X text -110 -70 OPEN UDP CONNECTION;
#X text 19 -69 CLOSE UDP CONNECTION;
#X msg -50 42 connect 127.0.0.1 1978;
#X obj 3 68 r message;
#X obj -50 -54 inlet;
#X obj 26 -52 inlet;
#X obj 150 68 r message_SC;
#X floatatom 115 145 5 0 0 0 - - -;
#X floatatom -50 153 5 0 0 0 - - -;
#X text 184 4 SUPERCOLLIDER / sclang;
#X obj 65 -37 r disconnect;
#X obj -41 14 r connect;
#X obj 119 4 r connect;
#X obj 150 96 spigot;
#X obj 3 97 spigot;
#X text 20 13 Porphyrograph;
#X obj -50 131 netsend 1;
#X msg 183 21 connect 192.168.0.3 57120;
#X msg 115 43 connect 127.0.0.1 57120;
#X obj 115 122 sendOSC;
#X connect 0 0 17 0;
#X connect 0 0 20 0;
#X connect 3 0 17 0;
#X connect 4 0 15 0;
#X connect 5 0 3 0;
#X connect 5 0 19 0;
#X connect 6 0 0 0;
#X connect 7 0 14 0;
#X connect 11 0 0 0;
#X connect 12 0 3 0;
#X connect 13 0 19 0;
#X connect 14 0 20 0;
#X connect 15 0 17 0;
#X connect 17 0 9 0;
#X connect 17 0 15 1;
#X connect 19 0 20 0;
#X connect 20 0 8 0;
#X connect 20 0 14 1;
#X coords 0 0 10 10 0 0 0;
#X restore -689 -213 pd connect;
#N canvas 90 41 1209 631 LYM_spectrum_v4 0;
#X obj 202 -254 bonk~;
#X obj 202 -224 unpack f f f f f f f f f f f;
#X floatatom 502 -25 5 0 0 0 - - -;
#X floatatom 537 -25 5 0 0 0 - - -;
#X floatatom 603 -25 5 0 0 0 - - -;
#X floatatom 639 -25 5 0 0 0 - - -;
#X floatatom 675 -25 5 0 0 0 - - -;
#X obj 559 -335 inlet;
#X obj 915 116 s message;
#X obj 397 115 s message;
#X obj 915 76 spigot;
#X obj 397 75 spigot;
#X obj 430 -335 inlet;
#X obj 338 -173 +;
#X obj 372 -172 +;
#X obj 372 -150 +;
#X obj 405 -151 +;
#X obj 405 -130 +;
#X obj 405 -108 +;
#X text 966 -236 ATTACK OUTPUT;
#X text 338 -192 Sum over 3 spectrum bands;
#X obj 338 -42 /;
#X obj 371 -42 /;
#X obj 405 -42 /;
#X obj 202 -175 +;
#X obj 202 -154 +;
#X obj 202 -133 +;
#X obj 202 -91 +;
#X obj 247 -174 +;
#X obj 247 -153 +;
#X obj 247 -111 +;
#X obj 247 -131 +;
#X obj 304 -74 +;
#X obj 202 58 pack f f;
#X obj 247 -91 +;
#X obj 202 -42 /;
#X obj 247 -42 /;
#X obj 247 -19 * 768;
#X msg 397 98 send /xy_spectrum \$1 \$2;
#X obj 881 -237 unpack f f f;
#X floatatom 974 -220 5 0 0 0 - - -;
#X obj 775 -335 inlet;
#X obj 743 119 s message;
#X obj 742 77 spigot;
#X obj 948 -335 inlet;
#X msg 742 98 send /brush_radius_vol \$1;
#X obj 247 -1 - 384;
#X obj 283 -334 loadbang;
#X msg 309 -294 minvel 0.1;
#X obj 191 -334 r startclock;
#X msg 224 -295 thresh 6 50;
#X obj 162 -294 metro 20;
#X obj 11 -333 adc~ 1 2;
#X obj 755 -115 s soundvolume;
#X obj 338 -152 +;
#X obj 202 -112 +;
#X obj 202 -20 * 768;
#X obj 202 -2 - 384;
#X msg 915 99 send /particle_acc_attack \$1;
#X text 753 -133 LOUDNESS OUTPUT;
#X text 552 -42 SPECTRUM OUTPUT;
#X obj 323 -19 s band1;
#X obj 376 -19 s band2;
#X obj 431 -20 s band3;
#X text 957 -125 Receives amplification coef;
#X text 958 -111 either from slider in PD (USB control);
#X text 958 -98 or from VirChor (keystroke control);
#X text 958 -86 sends value to VC just for visual;
#X text 955 -72 feedback;
#X obj 915 -54 * 0.1024;
#X obj 915 -32 - 0.0512;
#X text 179 -191 Sum over 2 spectrum bands;
#X floatatom 703 -129 5 0 0 0 - - -;
#X obj 56 -288 *~ 1;
#X obj 742 -207 + 1;
#X obj 77 -334 r input_volume;
#N canvas 53 1 1287 692 paletteInterpoaltion 0;
#X obj 280 422 / 765;
#X obj 435 411 / 765;
#X obj 598 418 / 765;
#X obj 384 447 pack f f f;
#X obj -81 -288 bang;
#X msg -85 295 \; palette1_can color \$1;
#X msg 318 295 \; palette2_can color \$1;
#X msg 716 302 \; palette3_can color \$1;
#X obj 192 351 +;
#N canvas 4 105 288 291 colorRGB 0;
#X obj 16 27 inlet;
#X obj 93 28 inlet;
#X text 21 9 red;
#X text 93 11 green;
#X obj 159 107 t b f;
#X obj 93 144 +;
#X obj 93 169 t b f;
#X obj 93 200 +;
#X obj 16 84 * -65536;
#X obj 93 85 * -256;
#X obj 159 85 * -1;
#X obj 93 231 - 1;
#X obj 159 28 inlet;
#X obj 93 258 outlet;
#X text 161 11 blue;
#X obj 16 56 int;
#X obj 93 56 int;
#X obj 159 55 int;
#X connect 0 0 15 0;
#X connect 1 0 16 0;
#X connect 4 0 5 0;
#X connect 4 1 5 1;
#X connect 5 0 6 0;
#X connect 6 0 7 0;
#X connect 6 1 7 1;
#X connect 7 0 11 0;
#X connect 8 0 7 0;
#X connect 9 0 5 0;
#X connect 10 0 4 0;
#X connect 11 0 13 0;
#X connect 12 0 17 0;
#X connect 15 0 8 0;
#X connect 16 0 9 0;
#X connect 17 0 10 0;
#X restore 717 256 pd colorRGB;
#N canvas 177 329 288 291 colorRGB 0;
#X obj 16 27 inlet;
#X obj 93 28 inlet;
#X text 21 9 red;
#X text 93 11 green;
#X obj 159 107 t b f;
#X obj 93 144 +;
#X obj 93 169 t b f;
#X obj 93 200 +;
#X obj 16 84 * -65536;
#X obj 93 85 * -256;
#X obj 159 85 * -1;
#X obj 93 231 - 1;
#X obj 159 28 inlet;
#X obj 93 258 outlet;
#X text 161 11 blue;
#X obj 16 56 int;
#X obj 93 56 int;
#X obj 159 55 int;
#X connect 0 0 15 0;
#X connect 1 0 16 0;
#X connect 4 0 5 0;
#X connect 4 1 5 1;
#X connect 5 0 6 0;
#X connect 6 0 7 0;
#X connect 6 1 7 1;
#X connect 7 0 11 0;
#X connect 8 0 7 0;
#X connect 9 0 5 0;
#X connect 10 0 4 0;
#X connect 11 0 13 0;
#X connect 12 0 17 0;
#X connect 15 0 8 0;
#X connect 16 0 9 0;
#X connect 17 0 10 0;
#X restore -85 255 pd colorRGB;
#N canvas 4 105 288 291 colorRGB 0;
#X obj 16 27 inlet;
#X obj 93 28 inlet;
#X text 21 9 red;
#X text 93 11 green;
#X obj 159 107 t b f;
#X obj 93 144 +;
#X obj 93 169 t b f;
#X obj 93 200 +;
#X obj 16 84 * -65536;
#X obj 93 85 * -256;
#X obj 159 85 * -1;
#X obj 93 231 - 1;
#X obj 159 28 inlet;
#X obj 93 258 outlet;
#X text 161 11 blue;
#X obj 16 56 int;
#X obj 93 56 int;
#X obj 159 55 int;
#X connect 0 0 15 0;
#X connect 1 0 16 0;
#X connect 4 0 5 0;
#X connect 4 1 5 1;
#X connect 5 0 6 0;
#X connect 6 0 7 0;
#X connect 6 1 7 1;
#X connect 7 0 11 0;
#X connect 8 0 7 0;
#X connect 9 0 5 0;
#X connect 10 0 4 0;
#X connect 11 0 13 0;
#X connect 12 0 17 0;
#X connect 15 0 8 0;
#X connect 16 0 9 0;
#X connect 17 0 10 0;
#X restore 319 253 pd colorRGB;
#X obj -81 -255 bang;
#X obj -79 -222 bang;
#X obj -80 -190 bang;
#X obj -82 -159 bang;
#X obj -78 -132 bang;
#X obj -81 -105 bang;
#X obj -13 -313 r RGBspectrum;
#X obj -57 48 expr if ($f1 < 1 \, (1 - $f1) * $f2 + $f1 * $f3 \, if($f1
< 2 \, (2- $f1) * $f3 + ($f1 - 1) * $f4 \, if($f1 < 3 \, (3 - $f1)
* $f4 + ($f1 - 2) * $f5 \, if($f1 < 4 \, (4 - $f1) * $f5 + ($f1 - 3)
* $f6 \, if($f1 < 5 \, (5 - $f1) * $f6 + ($f1 - 4) * $f7 \, if($f1
< 6 \, (6 - $f1) * $f7 + ($f1 - 5) * $f8 \, (7 - $f1) * $f8 + ($f1
- 6) * $f2))))));
#X obj -85 -58 expr if ($f1 < 1 \, (1 - $f1) * $f2 + $f1 * $f3 \, if($f1
< 2 \, (2- $f1) * $f3 + ($f1 - 1) * $f4 \, if($f1 < 3 \, (3 - $f1)
* $f4 + ($f1 - 2) * $f5 \, if($f1 < 4 \, (4 - $f1) * $f5 + ($f1 - 3)
* $f6 \, if($f1 < 5 \, (5 - $f1) * $f6 + ($f1 - 4) * $f7 \, if($f1
< 6 \, (6 - $f1) * $f7 + ($f1 - 5) * $f8 \, (7 - $f1) * $f8 + ($f1
- 6) * $f2))))));
#X obj -44 158 expr if ($f1 < 1 \, (1 - $f1) * $f2 + $f1 * $f3 \, if($f1
< 2 \, (2- $f1) * $f3 + ($f1 - 1) * $f4 \, if($f1 < 3 \, (3 - $f1)
* $f4 + ($f1 - 2) * $f5 \, if($f1 < 4 \, (4 - $f1) * $f5 + ($f1 - 3)
* $f6 \, if($f1 < 5 \, (5 - $f1) * $f6 + ($f1 - 4) * $f7 \, if($f1
< 6 \, (6 - $f1) * $f7 + ($f1 - 5) * $f8 \, (7 - $f1) * $f8 + ($f1
- 6) * $f2))))));
#X obj 319 -59 expr if ($f1 < 1 \, (1 - $f1) * $f2 + $f1 * $f3 \, if($f1
< 2 \, (2- $f1) * $f3 + ($f1 - 1) * $f4 \, if($f1 < 3 \, (3 - $f1)
* $f4 + ($f1 - 2) * $f5 \, if($f1 < 4 \, (4 - $f1) * $f5 + ($f1 - 3)
* $f6 \, if($f1 < 5 \, (5 - $f1) * $f6 + ($f1 - 4) * $f7 \, if($f1
< 6 \, (6 - $f1) * $f7 + ($f1 - 5) * $f8 \, (7 - $f1) * $f8 + ($f1
- 6) * $f2))))));
#X obj 350 45 expr if ($f1 < 1 \, (1 - $f1) * $f2 + $f1 * $f3 \, if($f1
< 2 \, (2- $f1) * $f3 + ($f1 - 1) * $f4 \, if($f1 < 3 \, (3 - $f1)
* $f4 + ($f1 - 2) * $f5 \, if($f1 < 4 \, (4 - $f1) * $f5 + ($f1 - 3)
* $f6 \, if($f1 < 5 \, (5 - $f1) * $f6 + ($f1 - 4) * $f7 \, if($f1
< 6 \, (6 - $f1) * $f7 + ($f1 - 5) * $f8 \, (7 - $f1) * $f8 + ($f1
- 6) * $f2))))));
#X obj 359 155 expr if ($f1 < 1 \, (1 - $f1) * $f2 + $f1 * $f3 \, if($f1
< 2 \, (2- $f1) * $f3 + ($f1 - 1) * $f4 \, if($f1 < 3 \, (3 - $f1)
* $f4 + ($f1 - 2) * $f5 \, if($f1 < 4 \, (4 - $f1) * $f5 + ($f1 - 3)
* $f6 \, if($f1 < 5 \, (5 - $f1) * $f6 + ($f1 - 4) * $f7 \, if($f1
< 6 \, (6 - $f1) * $f7 + ($f1 - 5) * $f8 \, (7 - $f1) * $f8 + ($f1
- 6) * $f2))))));
#X obj 717 -57 expr if ($f1 < 1 \, (1 - $f1) * $f2 + $f1 * $f3 \, if($f1
< 2 \, (2- $f1) * $f3 + ($f1 - 1) * $f4 \, if($f1 < 3 \, (3 - $f1)
* $f4 + ($f1 - 2) * $f5 \, if($f1 < 4 \, (4 - $f1) * $f5 + ($f1 - 3)
* $f6 \, if($f1 < 5 \, (5 - $f1) * $f6 + ($f1 - 4) * $f7 \, if($f1
< 6 \, (6 - $f1) * $f7 + ($f1 - 5) * $f8 \, (7 - $f1) * $f8 + ($f1
- 6) * $f2))))));
#X obj 748 48 expr if ($f1 < 1 \, (1 - $f1) * $f2 + $f1 * $f3 \, if($f1
< 2 \, (2- $f1) * $f3 + ($f1 - 1) * $f4 \, if($f1 < 3 \, (3 - $f1)
* $f4 + ($f1 - 2) * $f5 \, if($f1 < 4 \, (4 - $f1) * $f5 + ($f1 - 3)
* $f6 \, if($f1 < 5 \, (5 - $f1) * $f6 + ($f1 - 4) * $f7 \, if($f1
< 6 \, (6 - $f1) * $f7 + ($f1 - 5) * $f8 \, (7 - $f1) * $f8 + ($f1
- 6) * $f2))))));
#X obj 783 154 expr if ($f1 < 1 \, (1 - $f1) * $f2 + $f1 * $f3 \, if($f1
< 2 \, (2- $f1) * $f3 + ($f1 - 1) * $f4 \, if($f1 < 3 \, (3 - $f1)
* $f4 + ($f1 - 2) * $f5 \, if($f1 < 4 \, (4 - $f1) * $f5 + ($f1 - 3)
* $f6 \, if($f1 < 5 \, (5 - $f1) * $f6 + ($f1 - 4) * $f7 \, if($f1
< 6 \, (6 - $f1) * $f7 + ($f1 - 5) * $f8 \, (7 - $f1) * $f8 + ($f1
- 6) * $f2))))));
#X obj 488 472 spigot;
#X obj 520 -313 inlet;
#X obj 488 494 outlet;
#X obj 168 327 *;
#X obj 142 304 r band1;
#X obj 229 330 *;
#X obj 300 333 *;
#X obj 223 308 r band2;
#X obj 281 309 r band3;
#X obj 248 383 +;
#X obj 494 362 +;
#X obj 470 338 *;
#X obj 538 341 *;
#X obj 602 344 *;
#X obj 550 394 +;
#X obj 703 363 +;
#X obj 679 339 *;
#X obj 747 342 *;
#X obj 811 345 *;
#X obj 759 401 +;
#X obj 447 315 r band1;
#X obj 528 319 r band2;
#X obj 586 320 r band3;
#X obj 657 317 r band1;
#X obj 738 321 r band2;
#X obj 796 322 r band3;
#X msg -7 -115 0;
#X msg -3 -271 247;
#X msg 30 -271 93;
#X msg 65 -271 57;
#X msg 297 -271 205;
#X msg 331 -271 42;
#X msg 362 -271 23;
#X msg 688 -271 232;
#X msg 724 -271 91;
#X msg 757 -271 107;
#X text 820 -273 red grenade fruit;
#X text 817 -239 blue abyss;
#X msg -3 -238 21;
#X msg 30 -238 37;
#X msg 66 -238 159;
#X msg 299 -238 87;
#X msg 332 -238 66;
#X msg 364 -238 167;
#X msg 690 -238 4;
#X msg 725 -238 134;
#X msg 759 -238 132;
#X msg -2 -205 81;
#X msg 32 -205 200;
#X msg 67 -205 12;
#X msg 300 -205 161;
#X msg 332 -205 217;
#X msg 365 -205 45;
#X msg 691 -205 249;
#X msg 727 -205 160;
#X msg 761 -205 32;
#X text 817 -204 green leaves;
#X msg -3 -173 237;
#X msg 31 -173 222;
#X msg 65 -173 16;
#X msg 298 -173 247;
#X msg 331 -173 78;
#X msg 363 -173 9;
#X msg 689 -173 222;
#X msg 723 -173 80;
#X msg 759 -173 103;
#X text 817 -174 autumn colors;
#X text 819 -142 hokusai;
#X msg -5 -142 32;
#X msg 28 -142 75;
#X msg 63 -142 128;
#X msg 296 -142 74;
#X msg 329 -142 119;
#X msg 361 -142 88;
#X msg 687 -142 235;
#X msg 722 -142 63;
#X msg 757 -142 41;
#X msg 27 -115 84;
#X msg 67 -115 157;
#X msg 294 -115 209;
#X msg 327 -115 160;
#X msg 358 -115 41;
#X text 820 -115 van gogh;
#X msg 685 -115 117;
#X msg 720 -115 52;
#X msg 755 -115 22;
#X text 821 -88 matisse;
#X msg -4 -88 218;
#X msg 29 -88 10;
#X msg 64 -88 26;
#X msg 297 -88 228;
#X msg 330 -88 104;
#X msg 361 -88 41;
#X msg 688 -88 99;
#X msg 723 -88 69;
#X msg 757 -88 167;
#X connect 0 0 3 0;
#X connect 1 0 3 1;
#X connect 2 0 3 2;
#X connect 3 0 28 0;
#X connect 4 0 56 0;
#X connect 4 0 57 0;
#X connect 4 0 58 0;
#X connect 4 0 59 0;
#X connect 4 0 60 0;
#X connect 4 0 61 0;
#X connect 4 0 62 0;
#X connect 4 0 63 0;
#X connect 4 0 55 0;
#X connect 8 0 37 0;
#X connect 12 0 69 0;
#X connect 12 0 70 0;
#X connect 12 0 71 0;
#X connect 12 0 72 0;
#X connect 12 0 73 0;
#X connect 12 0 74 0;
#X connect 12 0 66 0;
#X connect 12 0 68 0;
#X connect 12 0 67 0;
#X connect 13 0 76 0;
#X connect 13 0 77 0;
#X connect 13 0 78 0;
#X connect 13 0 79 0;
#X connect 13 0 80 0;
#X connect 13 0 81 0;
#X connect 13 0 82 0;
#X connect 13 0 83 0;
#X connect 13 0 75 0;
#X connect 14 0 86 0;
#X connect 14 0 87 0;
#X connect 14 0 88 0;
#X connect 14 0 89 0;
#X connect 14 0 90 0;
#X connect 14 0 91 0;
#X connect 14 0 92 0;
#X connect 14 0 93 0;
#X connect 14 0 85 0;
#X connect 15 0 97 0;
#X connect 15 0 98 0;
#X connect 15 0 99 0;
#X connect 15 0 100 0;
#X connect 15 0 101 0;
#X connect 15 0 102 0;
#X connect 15 0 103 0;
#X connect 15 0 104 0;
#X connect 15 0 96 0;
#X connect 16 0 105 0;
#X connect 16 0 107 0;
#X connect 16 0 108 0;
#X connect 16 0 109 0;
#X connect 16 0 111 0;
#X connect 16 0 112 0;
#X connect 16 0 113 0;
#X connect 16 0 54 0;
#X connect 16 0 106 0;
#X connect 17 0 116 0;
#X connect 17 0 117 0;
#X connect 17 0 118 0;
#X connect 17 0 119 0;
#X connect 17 0 120 0;
#X connect 17 0 121 0;
#X connect 17 0 122 0;
#X connect 17 0 115 0;
#X connect 17 0 123 0;
#X connect 18 0 19 0;
#X connect 18 0 20 0;
#X connect 18 0 21 0;
#X connect 18 0 22 0;
#X connect 18 0 23 0;
#X connect 18 0 24 0;
#X connect 18 0 25 0;
#X connect 18 0 26 0;
#X connect 18 0 27 0;
#X connect 18 0 4 0;
#X connect 18 0 12 0;
#X connect 18 0 13 0;
#X connect 18 0 14 0;
#X connect 18 0 15 0;
#X connect 18 0 16 0;
#X connect 18 0 17 0;
#X connect 19 0 10 1;
#X connect 19 0 39 1;
#X connect 20 0 10 0;
#X connect 20 0 31 1;
#X connect 21 0 10 2;
#X connect 21 0 44 1;
#X connect 22 0 11 0;
#X connect 22 0 33 1;
#X connect 23 0 11 1;
#X connect 23 0 40 1;
#X connect 24 0 11 2;
#X connect 24 0 45 1;
#X connect 25 0 9 0;
#X connect 25 0 34 1;
#X connect 26 0 9 1;
#X connect 26 0 41 1;
#X connect 27 0 9 2;
#X connect 27 0 46 1;
#X connect 28 0 30 0;
#X connect 29 0 28 1;
#X connect 31 0 8 0;
#X connect 32 0 31 0;
#X connect 33 0 8 1;
#X connect 34 0 37 1;
#X connect 35 0 33 0;
#X connect 36 0 34 0;
#X connect 37 0 0 0;
#X connect 38 0 42 0;
#X connect 39 0 38 0;
#X connect 40 0 38 1;
#X connect 41 0 42 1;
#X connect 42 0 1 0;
#X connect 43 0 47 0;
#X connect 44 0 43 0;
#X connect 45 0 43 1;
#X connect 46 0 47 1;
#X connect 47 0 2 0;
#X connect 48 0 39 0;
#X connect 49 0 40 0;
#X connect 50 0 41 0;
#X connect 51 0 44 0;
#X connect 52 0 45 0;
#X connect 53 0 46 0;
#X connect 54 0 20 6;
#X connect 55 0 20 1;
#X connect 56 0 19 1;
#X connect 57 0 21 1;
#X connect 58 0 22 1;
#X connect 59 0 23 1;
#X connect 60 0 24 1;
#X connect 61 0 25 1;
#X connect 62 0 26 1;
#X connect 63 0 27 1;
#X connect 66 0 20 2;
#X connect 67 0 19 2;
#X connect 68 0 21 2;
#X connect 69 0 22 2;
#X connect 70 0 23 2;
#X connect 71 0 24 2;
#X connect 72 0 25 2;
#X connect 73 0 26 2;
#X connect 74 0 27 2;
#X connect 75 0 20 3;
#X connect 76 0 19 3;
#X connect 77 0 21 3;
#X connect 78 0 22 3;
#X connect 79 0 23 3;
#X connect 80 0 24 3;
#X connect 81 0 25 3;
#X connect 82 0 26 3;
#X connect 83 0 27 3;
#X connect 85 0 20 4;
#X connect 86 0 19 4;
#X connect 87 0 21 4;
#X connect 88 0 22 4;
#X connect 89 0 23 4;
#X connect 90 0 24 4;
#X connect 91 0 25 4;
#X connect 92 0 26 4;
#X connect 93 0 27 4;
#X connect 96 0 20 5;
#X connect 97 0 19 5;
#X connect 98 0 21 5;
#X connect 99 0 22 5;
#X connect 100 0 23 5;
#X connect 101 0 24 5;
#X connect 102 0 25 5;
#X connect 103 0 26 5;
#X connect 104 0 27 5;
#X connect 105 0 19 6;
#X connect 106 0 21 6;
#X connect 107 0 22 6;
#X connect 108 0 23 6;
#X connect 109 0 24 6;
#X connect 111 0 25 6;
#X connect 112 0 26 6;
#X connect 113 0 27 6;
#X connect 115 0 20 7;
#X connect 116 0 19 7;
#X connect 117 0 21 7;
#X connect 118 0 22 7;
#X connect 119 0 23 7;
#X connect 120 0 24 7;
#X connect 121 0 25 7;
#X connect 122 0 26 7;
#X connect 123 0 27 7;
#X restore 559 23 pd paletteInterpoaltion;
#X msg 559 44 send /color_spectrum \$1 \$2 \$3;
#X obj 405 -172 +;
#X msg 588 194 \; radius_vol_can label \$1;
#X obj 588 130 r brush_radius_vol_coef;
#X obj 588 155 *;
#X obj 567 91 loadbang;
#X obj 567 109 metro 1000;
#X obj 588 177 makefilename %.0f;
#X obj 559 61 s message;
#X connect 0 0 1 0;
#X connect 0 1 39 0;
#X connect 1 0 13 0;
#X connect 1 0 24 0;
#X connect 1 1 13 1;
#X connect 1 1 24 1;
#X connect 1 2 25 1;
#X connect 1 2 54 1;
#X connect 1 3 26 1;
#X connect 1 3 14 0;
#X connect 1 4 55 1;
#X connect 1 4 14 1;
#X connect 1 5 28 0;
#X connect 1 5 27 1;
#X connect 1 5 74 0;
#X connect 1 5 15 1;
#X connect 1 6 28 1;
#X connect 1 6 78 0;
#X connect 1 7 29 1;
#X connect 1 7 78 1;
#X connect 1 8 31 1;
#X connect 1 8 16 1;
#X connect 1 9 17 1;
#X connect 1 9 30 1;
#X connect 1 10 18 1;
#X connect 1 10 34 1;
#X connect 7 0 76 0;
#X connect 10 0 58 0;
#X connect 11 0 38 0;
#X connect 12 0 11 1;
#X connect 13 0 54 0;
#X connect 14 0 15 0;
#X connect 15 0 22 0;
#X connect 16 0 17 0;
#X connect 17 0 18 0;
#X connect 18 0 23 0;
#X connect 21 0 4 0;
#X connect 21 0 61 0;
#X connect 22 0 5 0;
#X connect 22 0 62 0;
#X connect 23 0 6 0;
#X connect 23 0 63 0;
#X connect 24 0 25 0;
#X connect 25 0 26 0;
#X connect 26 0 55 0;
#X connect 27 0 35 0;
#X connect 27 0 32 0;
#X connect 28 0 29 0;
#X connect 29 0 31 0;
#X connect 30 0 34 0;
#X connect 31 0 30 0;
#X connect 32 0 36 1;
#X connect 32 0 35 1;
#X connect 32 0 21 1;
#X connect 32 0 22 1;
#X connect 32 0 23 1;
#X connect 33 0 11 0;
#X connect 34 0 36 0;
#X connect 34 0 32 1;
#X connect 35 0 56 0;
#X connect 35 0 2 0;
#X connect 36 0 37 0;
#X connect 36 0 3 0;
#X connect 37 0 46 0;
#X connect 38 0 9 0;
#X connect 39 1 40 0;
#X connect 39 1 69 0;
#X connect 41 0 43 1;
#X connect 43 0 45 0;
#X connect 43 0 81 1;
#X connect 44 0 10 1;
#X connect 45 0 42 0;
#X connect 46 0 33 1;
#X connect 47 0 50 0;
#X connect 47 0 51 0;
#X connect 47 0 48 0;
#X connect 48 0 0 0;
#X connect 49 0 50 0;
#X connect 49 0 51 0;
#X connect 49 0 48 0;
#X connect 50 0 0 0;
#X connect 51 0 0 0;
#X connect 52 0 73 0;
#X connect 52 1 73 0;
#X connect 54 0 21 0;
#X connect 55 0 27 0;
#X connect 56 0 57 0;
#X connect 57 0 33 0;
#X connect 58 0 8 0;
#X connect 69 0 70 0;
#X connect 70 0 10 0;
#X connect 73 0 0 0;
#X connect 74 0 53 0;
#X connect 74 0 72 0;
#X connect 74 0 43 0;
#X connect 75 0 73 1;
#X connect 76 0 77 0;
#X connect 77 0 85 0;
#X connect 78 0 16 0;
#X connect 80 0 81 0;
#X connect 81 0 84 0;
#X connect 82 0 83 0;
#X connect 83 0 81 0;
#X connect 84 0 79 0;
#X restore -688 4 pd LYM_spectrum_v4;
#X obj -688 -56 tgl 15 0 empty empty empty 17 7 0 10 -262144 -1 -1
0 1;
#X obj -688 -41 tgl 15 0 empty empty empty 17 7 0 10 -262144 -1 -1
1 1;
#X obj -688 -26 tgl 15 0 empty empty empty 17 7 0 10 -262144 -1 -1
1 1;
#X obj -688 -11 tgl 15 0 empty empty empty 17 7 0 10 -262144 -1 -1
1 1;
#X text -686 -121 music control;
#X obj -689 -230 bng 15 250 50 0 empty empty empty 0 -6 0 8 -24198
-1 -1;
#X obj -632 -230 bng 15 250 50 0 empty empty empty 0 -6 0 8 -258699
-1 -1;
#X obj -689 -248 loadbang;
#X text -693 -265 UDP connection;
#X text -668 -56 1: xy-spectrum;
#X text -668 -40 2: color-spectrum;
#X obj -688 -87 bng 15 250 50 0 empty empty empty 17 7 0 10 -262144
-1 -1;
#X obj -688 -104 loadbang;
#X msg -688 -72 1;
#N canvas 329 214 1431 717 MIDIControl_Faders 0;
#X obj 27 -339 vsl 15 128 1 101 0 0 empty empty empty 0 -8 0 8 -162280
-1 -1 0 1;
#X obj 326 -378 bng 15 250 50 0 empty empty empty 17 7 0 10 -262144
-1 -1;
#X obj 326 -394 loadbang;
#X obj 11 -184 s message;
#X obj 823 -134 ctlin;
#X floatatom 796 -98 5 0 0 0 - - -;
#X floatatom 836 -98 5 0 0 0 - - -;
#X floatatom 875 -98 5 0 0 0 - - -;
#X obj 418 -240 / 127;
#X obj 419 -333 / 127;
#X obj 417 -289 / 127;
#X obj 54 -312 / 127;
#X obj 976 -384 bng 15 250 50 0 empty empty empty 0 -6 0 8 -262144
-1 -1;
#X obj 976 -351 vsl 15 128 0 2 0 0 0 empty empty 0 -8 0 8 -262144 -1
-1 0 1;
#X obj 1006 -351 vsl 15 128 0 100 0 0 0 empty empty 0 -8 0 8 -262144
-1 -1 0 1;
#X obj 991 -351 vsl 15 128 0 4 0 0 0 empty empty 0 -8 0 8 -262144 -1
-1 0 1;
#X msg 992 -369 0;
#X msg 1005 -369 0;
#X obj 977 -400 loadbang;
#X msg 976 -369 0;
#X text 972 -417 MUSIC CONTROL;
#X obj 10 31 vsl 15 128 0 0.05 0 0 empty empty empty 0 -8 0 8 -262144
-1 -1 0 1;
#X obj 10 -5 bng 15 250 50 0 empty empty empty 17 7 0 10 -262144 -1
-1;
#X obj 10 -24 loadbang;
#X msg 10 11 0;
#X obj 4 185 s message;
#X obj 11 -339 vsl 15 128 0 1 0 0 empty empty empty 0 -8 0 8 -162280
-1 -1 12700 1;
#X obj 12 -378 bng 15 250 50 0 empty empty empty 17 7 0 10 -262144
-1 -1;
#X obj 12 -394 loadbang;
#X obj 1073 -324 / 32;
#X obj 57 -269 ctlin 7 2;
#X obj 125 -313 + 1;
#X obj 92 -252 * -1;
#X obj 124 -252 + 1;
#X obj 913 30 vsl 15 128 1 300 0 0 empty empty empty 0 -8 0 8 -262144
-1 -1 104 1;
#X obj 913 -3 bng 15 250 50 0 empty empty empty 17 7 0 10 -262144 -1
-1;
#X obj 911 -20 loadbang;
#X msg 914 12 0;
#X obj 915 182 s message;
#X obj 966 -1 ctlin 7 3;
#X obj 54 -329 ctlin 7 1;
#X text 9 -414 LOCAL GRAY;
#X obj 1006 15 + 1;
#X obj 1050 19 vsl 15 128 1e-005 1 0 0 empty empty empty 0 -8 0 8 -262144
-1 -1 12700 1;
#X obj 1051 -14 bng 15 250 50 0 empty empty empty 17 7 0 10 -262144
-1 -1;
#X obj 1097 93 ctlin 7 4;
#X obj 1073 -340 ctlin 12 6;
#X obj 48 105 ctlin 7 7;
#X msg 32 -357 1;
#X obj 1235 -349 vsl 15 128 0 1 0 0 empty empty empty 0 -8 0 8 -262144
-1 -1 12700 1;
#X obj 1235 -382 bng 15 250 50 0 empty empty empty 17 7 0 10 -262144
-1 -1;
#X obj 1235 -398 loadbang;
#X obj 1235 -154 s message;
#X obj 1250 -349 vsl 15 128 0 1 0 0 empty empty empty 0 -8 0 8 -262144
-1 -1 12700 1;
#X obj 1294 -343 ctlin 13 8;
#X obj 1295 -279 ctlin 13 7;
#X msg 1219 -367 1;
#X msg 1250 -367 1;
#X obj 1295 -309 + 1;
#X obj 1295 -326 / -127;
#X obj 1295 -262 / -127;
#X obj 1295 -245 + 1;
#X obj 25 31 vsl 15 128 0 0.01 0 0 empty empty empty 0 -8 0 8 -262144
-1 -1 2200 1;
#X obj 49 62 ctlin 7 8;
#X text 1231 -416 WEIGHTINGS GOL/DRAWING;
#X obj 120 32 vsl 15 128 0 7 0 0 empty empty empty 0 -8 0 8 -262144
-1 -1 0 1;
#X obj 120 -1 bng 15 250 50 0 empty empty empty 17 7 0 10 -262144 -1
-1;
#X obj 120 -17 loadbang;
#X msg 120 14 0;
#X obj 119 255 s message;
#X obj 277 32 vsl 15 128 0 1 0 0 empty empty empty 0 -8 0 8 -262144
-1 -1 0 1;
#X obj 220 -6 bng 15 250 50 0 empty empty empty 17 7 0 10 -262144 -1
-1;
#X obj 220 -22 loadbang;
#X text 162 -413 TRANSPARENCY BLEND;
#X obj 1065 19 vsl 15 128 1e-005 1 0 0 empty empty empty 0 -8 0 8 -262144
-1 -1 12700 1;
#X obj 1065 212 s message;
#X msg 1065 195 send /echo \$1;
#X text 1083 -52 ECHO;
#X obj 1097 35 ctlin 7 5;
#X obj 1021 -350 vsl 15 128 0 0.4 0 0 0 empty empty 0 -8 0 8 -262144
-1 -1 0 1;
#X msg 1028 -369 0;
#X msg 913 165 send /brushRadius \$1;
#X obj 218 31 vsl 15 128 0 0.1 0 0 empty empty empty 0 -8 0 8 -262144
-1 -1 0 1;
#X obj 217 199 s message;
#X msg 218 11 0;
#X text 219 -41 PART ACCE;
#X text 116 -35 TEXTURES;
#X msg 120 238 send /particle_texture_ID \$1;
#X obj 344 28 vsl 15 128 0 7 0 0 empty empty empty 0 -8 0 8 -262144
-1 -1 0 1;
#X obj 344 -5 bng 15 250 50 0 empty empty empty 17 7 0 10 -262144 -1
-1;
#X obj 343 -21 loadbang;
#X msg 344 10 0;
#X obj 377 30 / 18;
#X text 335 -39 PALETTES;
#X obj 479 228 s message;
#X obj 582 43 vradio 15 1 0 3 empty empty empty 0 -8 0 10 -262144 -1
-1 0;
#X obj 582 -4 bng 15 250 50 0 empty empty empty 17 7 0 10 -262144 -1
-1;
#X obj 582 -20 loadbang;
#X msg 582 11 0;
#X obj 582 117 s message;
#X text 575 -38 PARTICLE MODES;
#X obj 618 26 / 42;
#X obj 5 225 s message;
#X text 46 -45 DRAWING DECAY;
#X obj 326 -63 s message;
#X obj 701 185 s input_volume;
#X obj 716 56 + 0.01;
#X obj 694 20 vsl 15 128 0.0201 1.01 0 0 empty empty empty 0 -9 0 10
-262144 -1 -1 0 1;
#X text 692 -37 INPUT VOLUME;
#X obj 144 74 / 18;
#X obj 709 -354 vsl 15 128 0 70 0 0 empty empty empty 0 -8 0 8 -262144
-1 -1 0 1;
#X obj 709 -387 bng 15 250 50 0 empty empty empty 17 7 0 10 -262144
-1 -1;
#X obj 709 -403 loadbang;
#X msg 709 -372 0;
#X obj 709 -142 s message;
#X msg 709 -159 send /flashPart_duration \$1;
#X obj 821 -388 bng 15 250 50 0 empty empty empty 17 7 0 10 -262144
-1 -1;
#X obj 821 -404 loadbang;
#X obj 746 -183 s message;
#X obj 742 -352 / 1.8;
#X obj 709 -176 int;
#X obj 464 42 vradio 15 1 0 9 empty empty empty 0 -8 0 10 -262144 -1
-1 0;
#X obj 464 -5 bng 15 250 50 0 empty empty empty 17 7 0 10 -262144 -1
-1;
#X obj 464 -21 loadbang;
#X msg 464 10 0;
#X obj 489 72 / 14;
#X obj 464 194 s message;
#X text 441 -51 CELL AUTOMATA TYPES;
#X msg 464 177 send /CAType \$1;
#X obj 1250 -195 s message;
#X obj 1070 -231 / 635;
#X msg 479 211 send /CASubType \$1;
#X text 442 -38 AND SUB-TYPES;
#X obj 483 111 ctlin 10 7;
#X obj 489 55 ctlin 12 7;
#X obj 1052 173 s message;
#X text 1025 -53 ECHO_NEG;
#X msg 1050 156 send /echoNeg \$1;
#X obj 1074 -369 / 32;
#X msg 11 -357 1;
#X obj 57 -252 / 127;
#X obj 326 -333 vradio 15 1 0 9 empty empty empty 0 -8 0 10 -262144
-1 -1 1;
#X obj 341 -323 vradio 15 1 0 9 empty empty empty 0 -8 0 10 -262144
-1 -1 1;
#X obj 356 -313 vradio 15 1 0 9 empty empty empty 0 -8 0 10 -262144
-1 -1 1;
#X obj 415 -197 / 127;
#X obj 371 -299 vradio 15 1 0 9 empty empty empty 0 -8 0 10 -262144
-1 -1 1;
#X text 341 -413 FLASH FREQUENCY;
#X text 684 -418 FLASH PART DURATION;
#X text 907 -40 BRUSH RADIUS;
#X obj 854 -348 / 127;
#X msg 821 -373 1;
#X obj 795 31 vradio 15 1 0 8 empty empty empty 0 -8 0 10 -262144 -1
-1 0;
#X obj 795 -9 bng 15 250 50 0 empty empty empty 17 7 0 10 -262144 -1
-1;
#X obj 795 -25 loadbang;
#X msg 795 6 0;
#X obj 794 169 s message;
#X text 792 -44 BRUSHES;
#X msg 795 152 send /brushID \$1;
#X obj 831 21 / 127;
#X obj 831 38 * 7;
#X obj 831 4 ctlin 10 8;
#X obj 238 51 ctlin 13 2;
#X obj 299 83 ctlin 12 2;
#X obj 144 58 ctlin 12 1;
#X obj 790 -317 route 0 1 2 3 4 5;
#X obj 893 -349 * 5;
#X obj 799 -332 hradio 15 1 0 6 empty empty empty 0 -8 0 10 -262144
-1 -1 1;
#X msg 746 -228 send /flashCA_number \$1;
#X msg 762 -208 send /flashTrack0_number \$1;
#X msg 777 -292 0;
#X msg 787 -282 1;
#X msg 797 -272 2;
#X msg 838 -274 1;
#X msg 874 -274 2;
#X obj 48 78 / 12700;
#X msg 1006 -181 send /brush_radius_vol_coef \$1;
#X obj 1021 -102 s message;
#X msg 976 -136 send /xy_spectrum_coef \$1;
#X msg 991 -159 send /color_spectrum_coef \$1;
#X msg 5 168 send /CAdecay \$1;
#X msg 5 208 send /trackdecay \$1;
#X msg 582 100 send /particleMode \$1;
#X msg 1250 -212 send /trackweight \$1;
#X msg 1235 -171 send /CAweight \$1;
#X obj 307 176 s message;
#X msg 307 159 send /RGBspectrum \$1;
#X obj 716 22 ctlin 13 6;
#X obj 528 -349 vsl 15 128 0 1 0 0 empty empty empty 0 -8 0 8 -262144
-1 -1 12700 1;
#X obj 528 -383 bng 15 250 50 0 empty empty empty 17 7 0 10 -262144
-1 -1;
#X obj 528 -401 loadbang;
#X obj 528 -192 s message;
#X text 525 -419 FLASH WEIGHT;
#X obj 543 -349 vsl 15 128 0 1 0 0 empty empty empty 0 -8 0 8 -262144
-1 -1 12700 1;
#X obj 543 -148 s message;
#X obj 558 -349 vsl 15 128 0 1 0 0 empty empty empty 0 -8 0 8 -262144
-1 -1 12700 1;
#X obj 557 -100 s message;
#X obj 618 -375 / 127;
#X msg 528 -368 1;
#X msg 558 -368 1;
#X msg 586 -368 1;
#X obj 652 -375 * -1;
#X obj 618 -357 + 1;
#X obj 617 -314 / 127;
#X obj 651 -314 * -1;
#X obj 617 -296 + 1;
#X obj 615 -256 / 127;
#X obj 649 -256 * -1;
#X obj 615 -238 + 1;
#X msg 543 -165 send /flashCA_coef \$1;
#X floatatom 640 175 5 0 0 0 - - -;
#X text 687 -23 Initial volume;
#X text 687 -14 is in header;
#X text 687 -4 of conf file;
#X obj 11 -147 s message;
#X obj 11 -109 s message;
#X msg 11 -201 send /local_color_r \$1;
#X msg 11 -164 send /local_color_g \$1;
#X msg 11 -126 send /local_color_b \$1;
#X obj 27 -66 s message;
#X obj 1097 126 + 1;
#X obj 1097 111 / -127;
#X obj 1097 67 + 1;
#X obj 1097 50 / -127;
#X msg 217 182 send /part_acc_factor \$1;
#X msg 1021 -208 send /part_acc_attack_coef \$1;
#X obj 239 66 / 1270;
#X obj 716 39 / 127;
#X obj 200 -306 / 127;
#X obj 176 -333 vsl 15 128 0 1 0 0 empty empty empty 0 -8 0 8 -162280
-1 -1 0 1;
#X obj 176 -366 bng 15 250 50 0 empty empty empty 17 7 0 10 -262144
-1 -1;
#X obj 176 -382 loadbang;
#X msg 176 -351 0;
#X obj 176 -185 s message;
#X obj 234 -305 * -1;
#X obj 262 -305 + 1;
#X obj 200 -322 ctlin 28 1;
#X msg 176 -202 send /blendTransp \$1;
#X msg 27 -83 send /scale \$1;
#X obj 89 -312 * 100;
#X msg 326 -352 1;
#X msg 342 -353 1;
#X msg 361 -352 1;
#X msg 377 -351 1;
#X obj 476 -332 + 1;
#X obj 473 -287 + 1;
#X obj 475 -238 + 1;
#X obj 472 -195 + 1;
#X obj 453 -333 * 7;
#X obj 452 -288 * 7;
#X obj 452 -240 * 7;
#X obj 449 -197 * 7;
#X msg 326 -161 send /flashBack_freq \$1;
#X msg 336 -136 send /flashCA_freq \$1;
#X msg 346 -110 send /flashTrack0_freq \$1;
#X msg 359 -86 send /flashPart_freq \$1;
#X msg 528 -208 send /flashBack_coef \$1;
#X msg 558 -117 send /flashTrack0_coef \$1;
#X text 807 -421 FLASH TRACK No;
#X obj 854 -365 ctlin 130 5;
#X obj 615 -273 ctlin 130 5;
#X obj 418 -256 ctlin 130 5;
#X obj 1193 -19 bng 15 250 50 0 empty empty empty 17 7 0 10 -262144
-1 -1;
#X obj 1193 -35 loadbang;
#X text 1183 -52 SETUP;
#X obj 1193 14 vsl 15 128 0 2 0 0 empty empty empty 0 -8 0 8 -262144
-1 -1 0 1;
#X msg 1051 1 1;
#X obj 1051 -30 loadbang;
#X text 9 -45 GOL &;
#X msg 1155 145 send /sample_setUp \$1;
#X obj 1155 162 s message;
#X obj 377 13 ctlin 12 8;
#X obj 618 9 ctlin 13 1;
#X obj 1519 -353 vradio 15 1 0 4 empty empty empty 0 -8 0 10 -262144
-1 -1 0;
#X obj 1519 -385 bng 15 250 50 0 empty empty empty 17 7 0 10 -262144
-1 -1;
#X obj 1519 -402 loadbang;
#X msg 1519 -370 0;
#X obj 1474 -275 s message;
#X text 1512 -420 SENSOR LAYOUTS;
#X msg 1474 -294 send /sensor_layout \$1;
#X obj 1555 -373 ctlin 10 1;
#X obj 1411 -351 vradio 15 1 0 6 empty empty empty 0 -8 0 10 -262144
-1 -1 0;
#X obj 1411 -383 bng 15 250 50 0 empty empty empty 17 7 0 10 -262144
-1 -1;
#X obj 1411 -399 loadbang;
#X msg 1411 -368 0;
#X obj 1364 -234 s message;
#X text 1404 -417 SENSOR ACTIVATION;
#X obj 1447 -370 ctlin 7 1;
#X obj 1447 -353 / 25;
#X msg 1364 -252 send /sensor_activation \$1;
#X obj 1555 -356 / 32;
#X obj 1229 11 / 63;
#X msg 1193 -4 0;
#X floatatom 1257 110 5 0 0 0 - - -;
#X floatatom 334 244 5 0 0 0 - - -;
#X floatatom 1054 230 5 0 0 0 - - -;
#X floatatom 996 202 5 0 0 0 - - -;
#X floatatom 68 250 5 0 0 0 - - -;
#X floatatom 6 248 5 0 0 0 - - -;
#X floatatom 427 207 5 0 0 0 - - -;
#X floatatom 427 231 5 0 0 0 - - -;
#X floatatom 911 234 5 0 0 0 - - -;
#X floatatom 1146 -113 5 0 0 0 - - -;
#X obj 1070 -280 / 1.27;
#X floatatom 378 213 5 0 0 0 - - -;
#X floatatom 940 -101 5 0 0 0 - - -;
#X obj 279 -4 bng 15 250 50 0 empty empty empty 17 7 0 10 -262144 -1
-1;
#X obj 279 -20 loadbang;
#X text 278 -39 PART ACCE;
#X obj 299 100 / 127;
#X obj 277 224 s message;
#X msg 277 207 send /volSC \$1;
#X msg 277 13 0.6;
#X obj 1342 13 vradio 15 1 0 5 empty empty empty 0 -8 0 10 -262144
-1 -1 0;
#X obj 1341 -19 bng 15 250 50 0 empty empty empty 17 7 0 10 -262144
-1 -1;
#X obj 1341 -35 loadbang;
#X msg 1341 -4 0;
#X obj 1239 277 s message;
#X obj 1342 88 route 0 1 2 3 4;
#X obj 1374 27 / 30;
#X msg 1342 117 0.5;
#X msg 1425 113 0.5;
#X msg 1356 142 0.5;
#X msg 1439 138 0.1;
#X msg 1365 168 0.5;
#X msg 1443 167 0.9;
#X msg 1453 194 0.5;
#X msg 1463 222 0.5;
#X msg 1376 194 0.1;
#X msg 1386 222 0.9;
#X text 1334 -53 PARTICLE ACC CENTER;
#X msg 1239 260 send /partAccCenter_0 \$1;
#X obj 1401 276 s message;
#X msg 1401 259 send /partAccCenter_1 \$1;
#X obj 1374 9 ctlin 13 3;
#X obj 1229 -6 ctlin 10 2;
#X obj 1652 -326 + 0.01;
#X obj 1630 -362 vsl 15 128 0.0201 1.01 0 0 empty empty empty 0 -9
0 10 -262144 -1 -1 275 1;
#X floatatom 1572 -261 5 0 0 0 - - -;
#X text 1623 -405 Initial volume;
#X text 1623 -396 is in header;
#X text 1623 -386 of conf file;
#X obj 1652 -343 / 127;
#X text 1628 -419 VIDEO THRESHOLD;
#X obj 1652 -360 ctlin 10 3;
#X obj 1550 -214 s message;
#X msg 1550 -231 send /videoThreshold \$1;
#X obj 967 15 / 12.7;
#X obj 483 144 int;
#X obj 483 128 / 6;
#X obj 618 -392 ctlin 100 5;
#X obj 617 -331 ctlin 120 5;
#X obj 1504 -5 vsl 15 128 0 1 0 0 empty empty empty 0 -8 0 8 -262144
-1 -1 0 1;
#X obj 1504 -39 bng 15 250 50 0 empty empty empty 17 7 0 10 -262144
-1 -1;
#X obj 1504 -57 loadbang;
#X obj 1519 -5 vsl 15 128 0 1 0 0 empty empty empty 0 -8 0 8 -262144
-1 -1 0 1;
#X obj 1534 -5 vsl 15 128 0 1 0 0 empty empty empty 0 -8 0 8 -262144
-1 -1 0 1;
#X obj 1513 207 s message;
#X obj 1573 20 / 127;
#X obj 1573 59 / 127;
#X obj 1571 98 / 127;
#X obj 742 -369 ctlin 130 5;
#X obj 418 -349 ctlin 10 5;
#X obj 417 -305 ctlin 12 5;
#X obj 415 -212 ctlin 13 5;
#X obj 1573 3 ctlin 10 4;
#X obj 1573 42 ctlin 12 4;
#X obj 1571 81 ctlin 13 4;
#X msg 1518 158 send /cancerProliferation \$1;
#X msg 1504 -24 0.75;
#X msg 1534 -24 0.9;
#X msg 1562 -24 0.85;
#X msg 1532 180 send /cellCancerRatio \$1;
#X msg 1504 136 send /cellProliferation \$1;
#X floatatom 163 217 5 0 0 0 - - -;
#X obj 48 120 / 2560;
#X floatatom 1269 -119 5 0 0 0 - - -;
#X floatatom 1587 243 5 0 0 0 - - -;
#X floatatom 1619 230 5 0 0 0 - - -;
#X obj 1070 -248 ctlin 70 6;
#X obj 1074 -385 ctlin 130 6;
#X obj 1773 -382 bng 15 250 50 0 empty empty empty 17 7 0 10 -262144
-1 -1;
#X obj 1773 -398 loadbang;
#X obj 1809 -330 int;
#X obj 1777 -345 vsl 15 128 0 10 0 0 empty empty empty 0 -8 0 8 -262144
-1 -1 0 1;
#X msg 1773 -367 1;
#X obj 1777 -195 s message;
#X obj 1809 -352 / 12.7;
#X msg 1777 -214 send /CAstep \$1;
#X obj 1070 -297 ctlin 100 6;
#X obj 1809 -369 ctlin 10 6;
#X obj 1692 -14 bng 15 250 50 0 empty empty empty 17 7 0 10 -262144
-1 -1;
#X obj 1692 -30 loadbang;
#X obj 1696 23 vsl 15 128 0 1 0 0 empty empty empty 0 -8 0 8 -262144
-1 -1 0 1;
#X obj 1696 173 s message;
#X text 1763 -415 CA Update Step;
#X text 1682 -47 CAPTURED FB WEIGHT;
#X obj 1728 16 / 127;
#X msg 1692 2 0;
#X obj 1728 -1 ctlin 7 6;
#X msg 1696 154 send /FBCaptureWeight \$1;
#X floatatom 226 218 5 0 0 0 - - -;
#X connect 0 0 237 0;
#X connect 1 0 239 0;
#X connect 1 0 240 0;
#X connect 1 0 241 0;
#X connect 1 0 242 0;
#X connect 2 0 1 0;
#X connect 4 0 5 0;
#X connect 4 1 6 0;
#X connect 4 2 7 0;
#X connect 8 0 249 0;
#X connect 9 0 247 0;
#X connect 10 0 248 0;
#X connect 11 0 238 0;
#X connect 12 0 19 0;
#X connect 12 0 16 0;
#X connect 12 0 17 0;
#X connect 12 0 80 0;
#X connect 15 0 178 0;
#X connect 16 0 15 0;
#X connect 17 0 14 0;
#X connect 18 0 12 0;
#X connect 19 0 13 0;
#X connect 21 0 179 0;
#X connect 21 0 297 0;
#X connect 22 0 24 0;
#X connect 23 0 22 0;
#X connect 24 0 21 0;
#X connect 24 0 62 0;
#X connect 26 0 215 0;
#X connect 26 0 216 0;
#X connect 26 0 217 0;
#X connect 27 0 139 0;
#X connect 27 0 48 0;
#X connect 28 0 27 0;
#X connect 29 0 15 0;
#X connect 30 0 140 0;
#X connect 32 0 33 0;
#X connect 33 0 26 0;
#X connect 34 0 81 0;
#X connect 34 0 300 0;
#X connect 35 0 37 0;
#X connect 36 0 35 0;
#X connect 37 0 34 0;
#X connect 39 0 346 0;
#X connect 40 0 11 0;
#X connect 42 0 34 0;
#X connect 43 0 137 0;
#X connect 43 0 295 0;
#X connect 44 0 265 0;
#X connect 45 0 220 0;
#X connect 46 0 29 0;
#X connect 47 0 374 0;
#X connect 48 0 0 0;
#X connect 49 0 183 0;
#X connect 49 0 375 0;
#X connect 50 0 57 0;
#X connect 50 0 56 0;
#X connect 51 0 50 0;
#X connect 53 0 182 0;
#X connect 54 0 59 0;
#X connect 55 0 60 0;
#X connect 56 0 49 0;
#X connect 57 0 53 0;
#X connect 58 0 53 0;
#X connect 59 0 58 0;
#X connect 60 0 61 0;
#X connect 61 0 49 0;
#X connect 62 0 180 0;
#X connect 62 0 296 0;
#X connect 63 0 174 0;
#X connect 65 0 87 0;
#X connect 65 0 373 0;
#X connect 66 0 68 0;
#X connect 67 0 66 0;
#X connect 68 0 65 0;
#X connect 70 0 310 0;
#X connect 70 0 293 0;
#X connect 71 0 84 0;
#X connect 72 0 71 0;
#X connect 74 0 76 0;
#X connect 74 0 294 0;
#X connect 76 0 75 0;
#X connect 78 0 222 0;
#X connect 80 0 79 0;
#X connect 81 0 38 0;
#X connect 82 0 223 0;
#X connect 82 0 400 0;
#X connect 84 0 82 0;
#X connect 87 0 69 0;
#X connect 88 0 185 0;
#X connect 88 0 303 0;
#X connect 89 0 91 0;
#X connect 90 0 89 0;
#X connect 91 0 88 0;
#X connect 92 0 88 0;
#X connect 95 0 181 0;
#X connect 96 0 98 0;
#X connect 97 0 96 0;
#X connect 98 0 95 0;
#X connect 101 0 95 0;
#X connect 106 0 107 0;
#X connect 107 0 105 0;
#X connect 107 0 209 0;
#X connect 109 0 65 0;
#X connect 110 0 120 0;
#X connect 111 0 113 0;
#X connect 112 0 111 0;
#X connect 113 0 110 0;
#X connect 115 0 114 0;
#X connect 116 0 150 0;
#X connect 117 0 116 0;
#X connect 120 0 115 0;
#X connect 121 0 128 0;
#X connect 121 0 298 0;
#X connect 122 0 124 0;
#X connect 123 0 122 0;
#X connect 124 0 121 0;
#X connect 125 0 121 0;
#X connect 128 0 126 0;
#X connect 131 0 94 0;
#X connect 133 0 348 0;
#X connect 134 0 125 0;
#X connect 137 0 135 0;
#X connect 139 0 26 0;
#X connect 140 0 32 0;
#X connect 141 0 251 0;
#X connect 142 0 252 0;
#X connect 143 0 253 0;
#X connect 144 0 250 0;
#X connect 145 0 254 0;
#X connect 149 0 165 0;
#X connect 150 0 166 0;
#X connect 151 0 157 0;
#X connect 152 0 154 0;
#X connect 153 0 152 0;
#X connect 154 0 151 0;
#X connect 157 0 155 0;
#X connect 158 0 159 0;
#X connect 159 0 151 0;
#X connect 160 0 158 0;
#X connect 161 0 225 0;
#X connect 162 0 308 0;
#X connect 163 0 109 0;
#X connect 164 0 169 0;
#X connect 164 0 172 0;
#X connect 164 1 170 0;
#X connect 164 1 172 0;
#X connect 164 2 171 0;
#X connect 164 2 172 0;
#X connect 164 3 169 0;
#X connect 164 3 173 0;
#X connect 164 4 170 0;
#X connect 164 4 173 0;
#X connect 164 5 171 0;
#X connect 164 5 173 0;
#X connect 165 0 166 0;
#X connect 166 0 164 0;
#X connect 167 0 118 0;
#X connect 168 0 118 0;
#X connect 169 0 167 0;
#X connect 170 0 167 0;
#X connect 171 0 167 0;
#X connect 172 0 168 0;
#X connect 173 0 168 0;
#X connect 174 0 62 0;
#X connect 175 0 176 0;
#X connect 177 0 176 0;
#X connect 178 0 176 0;
#X connect 179 0 25 0;
#X connect 180 0 102 0;
#X connect 181 0 99 0;
#X connect 182 0 129 0;
#X connect 183 0 52 0;
#X connect 185 0 184 0;
#X connect 186 0 226 0;
#X connect 187 0 255 0;
#X connect 188 0 197 0;
#X connect 188 0 198 0;
#X connect 188 0 199 0;
#X connect 189 0 188 0;
#X connect 192 0 208 0;
#X connect 194 0 256 0;
#X connect 196 0 200 0;
#X connect 197 0 187 0;
#X connect 198 0 192 0;
#X connect 199 0 194 0;
#X connect 200 0 201 0;
#X connect 202 0 203 0;
#X connect 203 0 204 0;
#X connect 205 0 206 0;
#X connect 206 0 207 0;
#X connect 208 0 193 0;
#X connect 215 0 3 0;
#X connect 216 0 213 0;
#X connect 217 0 214 0;
#X connect 219 0 43 0;
#X connect 220 0 219 0;
#X connect 221 0 74 0;
#X connect 222 0 221 0;
#X connect 223 0 83 0;
#X connect 224 0 176 0;
#X connect 225 0 82 0;
#X connect 226 0 106 0;
#X connect 227 0 233 0;
#X connect 228 0 236 0;
#X connect 229 0 231 0;
#X connect 230 0 229 0;
#X connect 231 0 228 0;
#X connect 233 0 234 0;
#X connect 234 0 228 0;
#X connect 235 0 227 0;
#X connect 236 0 232 0;
#X connect 237 0 218 0;
#X connect 238 0 31 0;
#X connect 239 0 141 0;
#X connect 240 0 142 0;
#X connect 241 0 143 0;
#X connect 242 0 145 0;
#X connect 243 0 141 0;
#X connect 244 0 142 0;
#X connect 245 0 143 0;
#X connect 246 0 145 0;
#X connect 247 0 243 0;
#X connect 248 0 244 0;
#X connect 249 0 245 0;
#X connect 250 0 246 0;
#X connect 251 0 104 0;
#X connect 252 0 104 0;
#X connect 253 0 104 0;
#X connect 254 0 104 0;
#X connect 255 0 190 0;
#X connect 256 0 195 0;
#X connect 258 0 149 0;
#X connect 259 0 205 0;
#X connect 260 0 8 0;
#X connect 261 0 291 0;
#X connect 262 0 261 0;
#X connect 264 0 268 0;
#X connect 264 0 292 0;
#X connect 265 0 43 0;
#X connect 265 0 74 0;
#X connect 266 0 44 0;
#X connect 268 0 269 0;
#X connect 270 0 92 0;
#X connect 271 0 101 0;
#X connect 272 0 278 0;
#X connect 273 0 275 0;
#X connect 274 0 273 0;
#X connect 275 0 272 0;
#X connect 278 0 276 0;
#X connect 279 0 289 0;
#X connect 280 0 288 0;
#X connect 281 0 283 0;
#X connect 282 0 281 0;
#X connect 283 0 280 0;
#X connect 286 0 287 0;
#X connect 287 0 280 0;
#X connect 288 0 284 0;
#X connect 289 0 272 0;
#X connect 290 0 264 0;
#X connect 291 0 264 0;
#X connect 305 0 311 0;
#X connect 306 0 305 0;
#X connect 308 0 70 0;
#X connect 310 0 309 0;
#X connect 311 0 70 0;
#X connect 312 0 317 0;
#X connect 313 0 315 0;
#X connect 314 0 313 0;
#X connect 315 0 312 0;
#X connect 317 0 319 0;
#X connect 317 0 320 0;
#X connect 317 1 322 0;
#X connect 317 1 321 0;
#X connect 317 2 323 0;
#X connect 317 2 324 0;
#X connect 317 3 327 0;
#X connect 317 3 325 0;
#X connect 317 4 328 0;
#X connect 317 4 326 0;
#X connect 318 0 312 0;
#X connect 319 0 330 0;
#X connect 320 0 332 0;
#X connect 321 0 330 0;
#X connect 322 0 332 0;
#X connect 323 0 330 0;
#X connect 324 0 332 0;
#X connect 325 0 332 0;
#X connect 326 0 332 0;
#X connect 327 0 330 0;
#X connect 328 0 330 0;
#X connect 330 0 316 0;
#X connect 332 0 331 0;
#X connect 333 0 318 0;
#X connect 334 0 290 0;
#X connect 335 0 336 0;
#X connect 336 0 337 0;
#X connect 336 0 345 0;
#X connect 341 0 335 0;
#X connect 343 0 341 0;
#X connect 345 0 344 0;
#X connect 346 0 42 0;
#X connect 347 0 131 0;
#X connect 348 0 347 0;
#X connect 349 0 196 0;
#X connect 350 0 202 0;
#X connect 351 0 372 0;
#X connect 351 0 376 0;
#X connect 352 0 368 0;
#X connect 352 0 369 0;
#X connect 352 0 370 0;
#X connect 353 0 352 0;
#X connect 354 0 367 0;
#X connect 354 0 377 0;
#X connect 355 0 371 0;
#X connect 357 0 351 0;
#X connect 358 0 354 0;
#X connect 359 0 355 0;
#X connect 360 0 119 0;
#X connect 361 0 9 0;
#X connect 362 0 10 0;
#X connect 363 0 144 0;
#X connect 364 0 357 0;
#X connect 365 0 358 0;
#X connect 366 0 359 0;
#X connect 367 0 356 0;
#X connect 368 0 351 0;
#X connect 369 0 354 0;
#X connect 370 0 355 0;
#X connect 371 0 356 0;
#X connect 372 0 356 0;
#X connect 374 0 21 0;
#X connect 378 0 130 0;
#X connect 379 0 138 0;
#X connect 380 0 384 0;
#X connect 381 0 380 0;
#X connect 382 0 383 0;
#X connect 383 0 387 0;
#X connect 384 0 383 0;
#X connect 386 0 382 0;
#X connect 387 0 385 0;
#X connect 388 0 302 0;
#X connect 389 0 386 0;
#X connect 390 0 397 0;
#X connect 391 0 390 0;
#X connect 392 0 399 0;
#X connect 396 0 392 0;
#X connect 397 0 392 0;
#X connect 398 0 396 0;
#X connect 399 0 393 0;
#X coords 0 0 10 10 0 0 0;
#X restore -505 -195 pd MIDIControl_Faders;
#N canvas 390 0 705 684 MIDIControl_Buttons 0;
#X obj 376 326 ctlin;
#X floatatom 351 358 5 0 0 0 - - -;
#X floatatom 390 359 5 0 0 0 - - -;
#X floatatom 430 360 5 0 0 0 - - -;
#X obj 21 251 vsl 15 10 0 1 0 0 empty empty empty 0 -8 0 8 -262144
-1 -1 0 1;
#X obj 21 217 bng 15 250 50 0 empty empty empty 17 7 0 10 -262144 -1
-1;
#X obj 21 198 loadbang;
#X msg 21 232 0;
#X obj 53 232 / 127;
#X obj 209 248 vsl 15 10 0 1 0 0 empty empty empty 0 -8 0 8 -262144
-1 -1 0 1;
#X obj 210 215 bng 15 250 50 0 empty empty empty 17 7 0 10 -262144
-1 -1;
#X obj 210 196 loadbang;
#X msg 210 230 0;
#X obj 242 230 / 127;
#X obj 209 376 vsl 15 10 0 1 0 0 empty empty empty 0 -8 0 8 -262144
-1 -1 0 1;
#X obj 210 343 bng 15 250 50 0 empty empty empty 17 7 0 10 -262144
-1 -1;
#X obj 210 324 loadbang;
#X msg 210 358 0;
#X obj 234 357 / 127;
#X obj 22 122 vsl 15 10 0 1 0 0 empty empty empty 0 -8 0 8 -262144
-1 -1 0 1;
#X obj 22 89 bng 15 250 50 0 empty empty empty 17 7 0 10 -262144 -1
-1;
#X obj 22 70 loadbang;
#X msg 22 104 0;
#X obj 46 103 / 127;
#X obj 212 123 vsl 15 10 0 1 0 0 empty empty empty 0 -8 0 8 -262144
-1 -1 0 1;
#X obj 212 90 bng 15 250 50 0 empty empty empty 17 7 0 10 -262144 -1
-1;
#X obj 212 71 loadbang;
#X msg 212 105 0;
#X obj 236 104 / 127;
#X obj 19 511 vsl 15 10 0 1 0 0 empty empty empty 0 -8 0 8 -262144
-1 -1 454 1;
#X obj 19 478 bng 15 250 50 0 empty empty empty 17 7 0 10 -262144 -1
-1;
#X obj 19 459 loadbang;
#X msg 19 493 0;
#X obj 208 551 s message;
#X obj 42 492 / 127;
#X obj 234 341 ctlin 18 1;
#X obj 21 -7 vsl 15 10 0 1 0 0 empty empty empty 0 -8 0 8 -262144 -1
-1 0 1;
#X obj 21 -40 bng 15 250 50 0 empty empty empty 17 7 0 10 -262144 -1
-1;
#X obj 21 -59 loadbang;
#X msg 21 -25 0;
#X obj 53 -25 / 127;
#X obj 52 -41 ctlin 19 1;
#X obj 214 -10 vsl 15 10 0 1 0 0 empty empty empty 0 -8 0 8 -262144
-1 -1 0 1;
#X obj 214 -43 bng 15 250 50 0 empty empty empty 17 7 0 10 -262144
-1 -1;
#X obj 214 -62 loadbang;
#X msg 214 -28 0;
#X obj 246 -28 / 127;
#X obj 245 -44 ctlin 20 1;
#X obj 208 511 vsl 15 10 0 1 0 0 empty empty empty 0 -8 0 8 -262144
-1 -1 454 1;
#X obj 208 478 bng 15 250 50 0 empty empty empty 17 7 0 10 -262144
-1 -1;
#X obj 208 460 loadbang;
#X msg 208 494 0;
#X obj 384 538 s message;
#X obj 231 493 / 127;
#X obj 575 506 vsl 15 10 0 1 0 0 empty empty empty 0 -8 0 8 -262144
-1 -1 900 1;
#X obj 575 473 bng 15 250 50 0 empty empty empty 17 7 0 10 -262144
-1 -1;
#X obj 575 454 loadbang;
#X msg 575 488 0;
#X obj 575 535 s message;
#X obj 598 487 / 127;
#X obj 385 508 vsl 15 10 0 1 0 0 empty empty empty 0 -8 0 8 -262144
-1 -1 0 1;
#X obj 385 475 bng 15 250 50 0 empty empty empty 17 7 0 10 -262144
-1 -1;
#X obj 385 456 loadbang;
#X msg 385 490 0;
#X obj 375 25 s message;
#X obj 408 489 / 127;
#X obj 41 476 ctlin 14 1;
#X obj 230 477 ctlin 15 1;
#X obj 375 -6 vsl 15 10 0 1 0 0 empty empty empty 0 -8 0 8 -262144
-1 -1 0 1;
#X obj 376 -39 bng 15 250 50 0 empty empty empty 17 7 0 10 -262144
-1 -1;
#X obj 376 -58 loadbang;
#X msg 376 -24 0;
#X obj 408 -24 / 127;
#X obj 407 -40 ctlin 21 1;
#X obj 371 123 vsl 15 10 0 1 0 0 empty empty empty 0 -8 0 8 -262144
-1 -1 900 1;
#X obj 372 90 bng 15 250 50 0 empty empty empty 17 7 0 10 -262144 -1
-1;
#X obj 372 71 loadbang;
#X msg 372 105 0;
#X obj 396 104 / 127;
#X obj 395 88 ctlin 24 1;
#X obj 369 248 vsl 15 10 0 1 0 0 empty empty empty 0 -8 0 8 -262144
-1 -1 900 1;
#X obj 369 212 bng 15 250 50 0 empty empty empty 17 7 0 10 -262144
-1 -1;
#X obj 369 195 loadbang;
#X msg 369 229 0;
#X obj 401 229 / 127;
#X obj 400 213 ctlin 27 1;
#X obj 407 473 ctlin 16 1;
#X obj 598 471 ctlin 17 1;
#X obj 45 87 ctlin 22 1;
#X obj 235 88 ctlin 23 1;
#X obj 52 216 ctlin 25 1;
#X obj 241 214 ctlin 26 1;
#X obj 214 21 s message;
#X obj 19 541 s message;
#X obj 20 27 s message;
#X obj 22 154 s message;
#X obj 370 151 s message;
#X obj 211 154 s message;
#X obj 210 277 s message;
#X obj 370 277 s message;
#X obj 21 281 s message;
#X obj 209 408 s message;
#X msg 19 526 send /drawing_on_off;
#X msg 214 6 send /CAdecay_sign;
#X msg 376 8 send /trackdecay_sign;
#X msg 471 327 send /setup_plus;
#X msg 21 9 send /flashPart_onOff \$1;
#X msg 22 137 send /flashCA_onOff_0 \$1;
#X msg 21 264 send /flashBack_onOff \$1;
#X text 23 -91 FLASH ON/OFF;
#X text 212 -83 DECAY SIGN CA;
#X text 370 -80 DECAY SIGN TRACK;
#X text 24 -76 FLASH PART;
#X text 17 52 FLASH CA;
#X text 19 179 FLASH BACK;
#X msg 409 389 send /setup_plus_and_keep_total_duration;
#X text 209 53 CA ON/OFF;
#X text 14 436 DRAWING ON OFF;
#X text 381 437 VIDEO IMG CAPTURE;
#X text 209 179 FRAMEBUFFER CAPTURE ON/OFF;
#X msg 209 261 send /FBCaptureOnOff;
#X msg 383 520 send /videoFBCapture;
#X text 381 178 VOID;
#X text 365 54 INVERT;
#X msg 369 262 send /initCA;
#X msg 207 529 send /currentBGCapture;
#X msg 574 519 send /initialBGCapture;
#X text 583 430 CINITIAL BG CAPTURE;
#X text 203 439 CURRENT VIDEO BG CAPTURE;
#X msg 209 391 send /initialBGSubtr_onOff;
#X text 209 306 INITIAL VS CURRENT BG SUBT;
#X msg 212 137 send /clearCA;
#X msg 370 136 send /clearAllLayers;
#X connect 0 0 1 0;
#X connect 0 1 2 0;
#X connect 0 2 3 0;
#X connect 4 0 108 0;
#X connect 5 0 7 0;
#X connect 6 0 5 0;
#X connect 7 0 4 0;
#X connect 8 0 4 0;
#X connect 9 0 120 0;
#X connect 10 0 12 0;
#X connect 11 0 10 0;
#X connect 12 0 9 0;
#X connect 13 0 9 0;
#X connect 14 0 129 0;
#X connect 15 0 17 0;
#X connect 16 0 15 0;
#X connect 17 0 14 0;
#X connect 18 0 14 0;
#X connect 19 0 107 0;
#X connect 20 0 22 0;
#X connect 21 0 20 0;
#X connect 22 0 19 0;
#X connect 23 0 19 0;
#X connect 24 0 131 0;
#X connect 25 0 27 0;
#X connect 26 0 25 0;
#X connect 27 0 24 0;
#X connect 28 0 24 0;
#X connect 29 0 102 0;
#X connect 30 0 32 0;
#X connect 31 0 30 0;
#X connect 32 0 29 0;
#X connect 34 0 29 0;
#X connect 35 0 18 0;
#X connect 36 0 106 0;
#X connect 37 0 39 0;
#X connect 38 0 37 0;
#X connect 39 0 36 0;
#X connect 40 0 36 0;
#X connect 41 0 40 0;
#X connect 42 0 103 0;
#X connect 43 0 45 0;
#X connect 44 0 43 0;
#X connect 45 0 42 0;
#X connect 46 0 42 0;
#X connect 47 0 46 0;
#X connect 48 0 125 0;
#X connect 49 0 51 0;
#X connect 50 0 49 0;
#X connect 51 0 48 0;
#X connect 53 0 48 0;
#X connect 54 0 126 0;
#X connect 55 0 57 0;
#X connect 56 0 55 0;
#X connect 57 0 54 0;
#X connect 59 0 54 0;
#X connect 60 0 121 0;
#X connect 61 0 63 0;
#X connect 62 0 61 0;
#X connect 63 0 60 0;
#X connect 65 0 60 0;
#X connect 66 0 34 0;
#X connect 67 0 53 0;
#X connect 68 0 104 0;
#X connect 69 0 71 0;
#X connect 70 0 69 0;
#X connect 71 0 68 0;
#X connect 72 0 68 0;
#X connect 73 0 72 0;
#X connect 74 0 132 0;
#X connect 75 0 77 0;
#X connect 76 0 75 0;
#X connect 77 0 74 0;
#X connect 78 0 74 0;
#X connect 79 0 78 0;
#X connect 80 0 124 0;
#X connect 81 0 83 0;
#X connect 82 0 81 0;
#X connect 83 0 80 0;
#X connect 84 0 80 0;
#X connect 85 0 84 0;
#X connect 86 0 65 0;
#X connect 87 0 59 0;
#X connect 88 0 23 0;
#X connect 89 0 28 0;
#X connect 90 0 8 0;
#X connect 91 0 13 0;
#X connect 102 0 93 0;
#X connect 103 0 92 0;
#X connect 104 0 64 0;
#X connect 106 0 94 0;
#X connect 107 0 95 0;
#X connect 108 0 100 0;
#X connect 120 0 98 0;
#X connect 121 0 52 0;
#X connect 124 0 99 0;
#X connect 125 0 33 0;
#X connect 126 0 58 0;
#X connect 129 0 101 0;
#X connect 131 0 97 0;
#X connect 132 0 96 0;
#X coords 0 0 10 10 0 0 0;
#X restore -505 -175 pd MIDIControl_Buttons;
#X text -588 -264 AUDIO ON;
#X obj -586 -247 loadbang;
#X msg -586 -231 \; pd dsp 1;
#X text -507 -210 USB Controller;
#X text -669 -25 3: brush radius;
#X text -669 -10 4: particle accel.;
#N canvas 162 67 1076 546 dumpVCMessages 0;
#X text -612 -5245 OSC message processing;
#X obj -630 -5031 s startclock;
#X obj -613 -4987 s restart;
#X obj -587 -4880 s message;
#X obj -587 -4913 pack s;
#X msg -587 -4897 send /return_message \$1;
#N canvas 0 50 1234 322 trackMessageDisplay 0;
#X obj 491 -309 inlet;
#X obj 184 -312 inlet;
#X obj 47 -310 inlet;
#X obj 520 -252 route 0 1;
#X obj 271 -231 route 0 1;
#X obj 172 -156 route 1 0;
#X msg 9 -221 \; track0decay color 11 16;
#X msg 12 -258 \; track0decay color 13 16;
#X msg 8 -181 \; track0decay color 11 16;
#X msg 6 -143 \; track0decay color 11 16;
#X obj 47 -289 route 0 1 2;
#X msg 858 -255 \; a_can label \$1;
#X obj 858 -272 makefilename A_%.2f;
#N canvas 4 135 288 272 colorRGB 0;
#X obj 16 27 inlet;
#X obj 93 28 inlet;
#X text 21 9 red;
#X text 93 11 green;
#X obj 159 75 t b f;
#X obj 93 112 +;
#X obj 93 137 t b f;
#X obj 93 168 +;
#X obj 16 52 * -65536;
#X obj 93 53 * -256;
#X obj 159 53 * -1;
#X obj 93 199 - 1;
#X obj 159 28 inlet;
#X obj 93 226 outlet;
#X text 161 11 blue;
#X connect 0 0 8 0;
#X connect 1 0 9 0;
#X connect 4 0 5 0;
#X connect 4 1 5 1;
#X connect 5 0 6 0;
#X connect 6 0 7 0;
#X connect 6 1 7 1;
#X connect 7 0 11 0;
#X connect 8 0 7 0;
#X connect 9 0 5 0;
#X connect 10 0 4 0;
#X connect 11 0 13 0;
#X connect 12 0 10 0;
#X restore 723 -148 pd colorRGB;
#X msg 723 -131 \; color_can color \$1;
#X obj 723 -215 * 255;
#X obj 723 -183 int;
#N canvas 4 135 288 291 colorRGB 0;
#X obj 16 27 inlet;
#X obj 93 28 inlet;
#X text 21 9 red;
#X text 93 11 green;
#X obj 159 75 t b f;
#X obj 93 112 +;
#X obj 93 137 t b f;
#X obj 93 168 +;
#X obj 16 52 * -65536;
#X obj 93 53 * -256;
#X obj 159 53 * -1;
#X obj 93 199 - 1;
#X obj 159 28 inlet;
#X obj 93 226 outlet;
#X text 161 11 blue;
#X connect 0 0 8 0;
#X connect 1 0 9 0;
#X connect 4 0 5 0;
#X connect 4 1 5 1;
#X connect 5 0 6 0;
#X connect 6 0 7 0;
#X connect 6 1 7 1;
#X connect 7 0 11 0;
#X connect 8 0 7 0;
#X connect 9 0 5 0;
#X connect 10 0 4 0;
#X connect 11 0 13 0;
#X connect 12 0 10 0;
#X restore 858 -150 pd colorRGB;
#X obj 858 -215 * 255;
#X obj 858 -185 int;
#X msg 858 -133 \; alpha_can color \$1;
#X obj 723 -300 inlet;
#X msg 723 -253 \; gray_can label \$1;
#X obj 723 -270 makefilename G_%.2f;
#X obj 507 -107 route 0 1;
#X msg 514 -224 \; track0replay_can color 17 12;
#X msg 521 -178 \; track0replay_can color 13 12;
#X msg 500 -79 \; track0replay_can label _;
#X msg 504 -39 \; track0replay_can label Ps;
#X obj 858 -301 inlet;
#X msg 265 -203 \; source_track_record_0_can color 17 12;
#X msg 150 -117 \; source_track_record_0_can label s;
#X msg 161 -77 \; source_track_record_0_can label _;
#X msg 273 -157 \; source_track_record_0_can color 13 12;
#X obj 489 -282 route 0;
#X obj 184 -197 route 0;
#X obj 307 -265 route 0;
#X obj 990 -272 pack f;
#X obj 986 -308 inlet;
#X obj 990 -255 s videoThreshold;
#X connect 0 0 34 0;
#X connect 1 0 35 0;
#X connect 1 0 36 0;
#X connect 2 0 10 0;
#X connect 3 0 25 0;
#X connect 3 1 26 0;
#X connect 4 0 30 0;
#X connect 4 1 33 0;
#X connect 5 0 31 0;
#X connect 5 1 32 0;
#X connect 10 0 7 0;
#X connect 10 1 6 0;
#X connect 10 2 8 0;
#X connect 10 3 9 0;
#X connect 12 0 11 0;
#X connect 13 0 14 0;
#X connect 15 0 16 0;
#X connect 16 0 13 0;
#X connect 16 0 13 1;
#X connect 16 0 13 2;
#X connect 17 0 20 0;
#X connect 18 0 19 0;
#X connect 19 0 17 0;
#X connect 19 0 17 1;
#X connect 19 0 17 2;
#X connect 21 0 23 0;
#X connect 21 0 15 0;
#X connect 23 0 22 0;
#X connect 24 0 27 0;
#X connect 24 1 28 0;
#X connect 29 0 12 0;
#X connect 29 0 18 0;
#X connect 34 0 3 0;
#X connect 34 0 24 0;
#X connect 35 0 5 0;
#X connect 36 0 4 0;
#X connect 37 0 39 0;
#X connect 38 0 37 0;
#X restore 115 -4816 pd trackMessageDisplay;
#N canvas 19 264 1364 634 environmentMessageDisplay 0;
#X msg 16 287 \; brush_can label Earth;
#X msg 14 54 \; brush_can label Circle;
#X obj 562 68 pack f;
#X obj 562 85 makefilename %d;
#X obj 363 8 route 0 1 2 3 4 5 6 7 8;
#X msg 365 30 \; CAType_can label GOL;
#X msg 482 334 \; CAType_can label CA5;
#X obj 37 -11 inlet;
#X obj 363 -14 inlet;
#X obj 222 -15 inlet;
#X obj 691 -15 inlet;
#X msg 624 208 \; drawing_can label X;
#X msg 625 246 \; drawing_can label Line;
#X obj 624 182 route 0 1 2 3;
#X obj 551 -16 inlet;
#X obj 828 164 route 0 1 2;
#X msg 805 192 \; particles_can label X;
#X msg 806 230 \; particles_can label Particles;
#X msg 805 275 \; particles_can label Firework;
#X obj 746 -14 inlet;
#X msg 806 21 \; radius_can label \$1;
#X msg 825 87 \; message_can label \$1;
#X obj 827 69 pack s;
#X obj 806 -17 inlet;
#X obj 859 -17 inlet;
#X msg 629 288 \; drawing_can label Dots;
#X msg 631 332 \; drawing_can label Bezier;
#X msg 550 34 \; CASubType_can label X;
#X msg 562 102 \; CASubType_can label \$1;
#X obj 934 -20 inlet;
#X obj 934 2 s echo;
#X obj 980 -21 inlet;
#X obj 980 2 s echoNeg;
#X obj 1030 -19 inlet;
#X obj 1082 -21 inlet;
#X obj 949 26 pack s;
#X msg 997 123 \; time_can color 13 12;
#X obj 997 95 route 0 1 2 3;
#X msg 996 245 \; time_can color 16 12;
#X msg 998 163 \; time_can color 14 12;
#X msg 996 203 \; time_can color 15 12;
#X msg 949 47 \; time_can label \$1;
#X msg 12 132 \; brush_can label FineGrain;
#X msg 15 174 \; brush_can label LargeGrain;
#X msg 16 211 \; brush_can label Ring;
#X msg 17 247 \; brush_can label Sun;
#X msg 15 327 \; brush_can label Moon;
#X msg 12 93 \; brush_can label Oval;
#X obj 37 12 route 0 1 2 3 4 5 6 7;
#X obj 1217 -20 inlet;
#X obj 1177 7 s input_volume;
#X obj 1330 -21 inlet;
#X obj 1177 37 route 1 0;
#X msg 1177 66 \; invert_can color 13 12;
#X msg 1178 101 \; invert_can color 16 12;
#X msg 195 61 \; texture_can label Circle;
#X msg 194 102 \; texture_can label Band;
#X msg 193 145 \; texture_can label Low_noise;
#X msg 195 185 \; texture_can label Med_noise;
#X msg 197 223 \; texture_can label High_noise;
#X msg 198 257 \; texture_can label Worms;
#X msg 197 293 \; texture_can label RandNoise;
#X obj 218 19 route 0 1 2 3 4 5 6 7;
#X msg 196 328 \; texture_can label Circle;
#X obj 34 383 expr if ($f1 < 0.5 \, 0 \, if($f1 < 1.5 \, 1 \, if($f1
< 2.5 \, 2 \, if($f1 < 3.5 \, 3 \, if($f1 < 4.5 \, 4 \, if($f1 < 5.5
\, 5 \, if($f1 < 6.5 \, 6 \, 7)))))));
#X obj 551 6 route 0;
#X msg 396 147 \; CAType_can label Gal_Moore;
#X msg 407 184 \; CAType_can label Gal_Neumann;
#X msg 374 68 \; CAType_can label Totalistic;
#X msg 387 107 \; CAType_can label Generation;
#X msg 460 296 \; CAType_can label Worm;
#X msg 426 223 \; CAType_can label Bin_Neumann;
#X obj 1140 -22 inlet;
#X obj 1140 222 makefilename %.0f;
#X msg 1140 239 \; brush_radius_pressure_coef_can label \$1;
#X msg 446 260 \; CAType_can label TumorCell;
#X obj 806 4 makefilename %.1f;
#X connect 2 0 3 0;
#X connect 3 0 28 0;
#X connect 4 0 5 0;
#X connect 4 1 68 0;
#X connect 4 2 69 0;
#X connect 4 3 66 0;
#X connect 4 4 67 0;
#X connect 4 5 71 0;
#X connect 4 6 75 0;
#X connect 4 7 70 0;
#X connect 4 8 6 0;
#X connect 7 0 48 0;
#X connect 8 0 4 0;
#X connect 9 0 64 0;
#X connect 10 0 13 0;
#X connect 13 0 11 0;
#X connect 13 1 12 0;
#X connect 13 2 25 0;
#X connect 13 3 26 0;
#X connect 14 0 65 0;
#X connect 15 0 16 0;
#X connect 15 1 17 0;
#X connect 15 2 18 0;
#X connect 19 0 15 0;
#X connect 22 0 21 0;
#X connect 23 0 76 0;
#X connect 24 0 22 0;
#X connect 29 0 30 0;
#X connect 31 0 32 0;
#X connect 33 0 35 0;
#X connect 34 0 37 0;
#X connect 35 0 41 0;
#X connect 37 0 36 0;
#X connect 37 1 39 0;
#X connect 37 2 40 0;
#X connect 37 3 38 0;
#X connect 48 0 1 0;
#X connect 48 1 47 0;
#X connect 48 2 42 0;
#X connect 48 3 43 0;
#X connect 48 4 44 0;
#X connect 48 5 45 0;
#X connect 48 6 0 0;
#X connect 48 7 46 0;
#X connect 49 0 50 0;
#X connect 51 0 52 0;
#X connect 52 0 53 0;
#X connect 52 1 54 0;
#X connect 62 0 55 0;
#X connect 62 1 56 0;
#X connect 62 2 57 0;
#X connect 62 3 58 0;
#X connect 62 4 59 0;
#X connect 62 5 60 0;
#X connect 62 6 61 0;
#X connect 62 7 63 0;
#X connect 64 0 62 0;
#X connect 65 0 27 0;
#X connect 65 1 2 0;
#X connect 72 0 73 0;
#X connect 73 0 74 0;
#X connect 76 0 20 0;
#X restore 115 -4905 pd environmentMessageDisplay;
#N canvas 96 142 1044 407 trackDecayMessages 0;
#X obj -870 -58 inlet;
#X obj -381 40 pack f;
#X obj -445 -31 pack f;
#X obj -390 -68 inlet;
#X obj -449 -67 inlet;
#X msg -679 43 \; track0decay_sign_can label +;
#X msg -673 87 \; track0decay_sign_can label -;
#X msg -658 136 \; track0decay_sign_can color 13 12;
#X msg -625 183 \; track0decay_sign_can color 17 12;
#X obj -381 58 s track0decay;
#X obj -445 -14 s CAdecay;
#X msg -893 47 \; CAdecay_sign_can label +;
#X msg -887 92 \; CAdecay_sign_can label -;
#X msg -872 141 \; CAdecay_sign_can color 13 12;
#X msg -845 182 \; CAdecay_sign_can color 17 12;
#X obj -526 -63 inlet;
#X obj -252 35 pack f;
#X obj -261 -73 inlet;
#X obj -252 53 s track0weight;
#X obj -110 -78 inlet;
#X obj -106 -49 route -1 1;
#X msg -104 -2 \; track0decay color 11 16;
#X msg -77 52 \; track0decay color 17 16;
#X obj -173 -39 pack f;
#X obj -177 -75 inlet;
#X obj -173 -20 s CAweight;
#X obj -870 3 route -1 1;
#X obj -656 1 route -1 1;
#X obj -525 -38 route 0;
#X obj -382 -43 route 0;
#X obj -253 -48 route 0;
#X connect 0 0 26 0;
#X connect 1 0 9 0;
#X connect 2 0 10 0;
#X connect 3 0 29 0;
#X connect 4 0 2 0;
#X connect 15 0 28 0;
#X connect 16 0 18 0;
#X connect 17 0 30 0;
#X connect 19 0 20 0;
#X connect 20 0 21 0;
#X connect 20 1 22 0;
#X connect 23 0 25 0;
#X connect 24 0 23 0;
#X connect 26 0 11 0;
#X connect 26 0 13 0;
#X connect 26 1 12 0;
#X connect 26 1 14 0;
#X connect 27 0 5 0;
#X connect 27 0 7 0;
#X connect 27 1 6 0;
#X connect 27 1 8 0;
#X connect 28 0 27 0;
#X connect 29 0 1 0;
#X connect 30 0 16 0;
#X restore 132 -4726 pd trackDecayMessages;
#X obj -624 -5009 s RGBspectrum;
#X obj 33 -4792 route /CAdecay_sign_can /trackdecay_sign_can /CAdecay_can
/trackdecay_can /trackweight_can /CAweight_can /lighttrack0_can;
#X msg -603 -4947 \; setup_can label \$1;
#X obj -603 -4965 pack s;
#X msg -474 -4949 \; color_spectrum_coef_can label \$1;
#X obj -237 -5030 s connect;
#X obj -611 -5228 netreceive 1979 1;
#X text -450 -5244 and processing messages from Porphyrograph;
#X obj -493 -5031 makefilename %.2f;
#X msg -493 -5014 \; part_acc_factor_can label \$1;
#X obj 369 -4926 print dump;
#X obj -474 -4966 makefilename %.0f;
#N canvas 374 53 1394 348 flashAndLoopMessageDisplay 0;
#X obj -547 -5000 makefilename %.0f;
#X obj -79 -4993 makefilename %.0f;
#X obj -546 -5027 inlet;
#X obj -79 -5037 inlet;
#X obj 181 -4985 makefilename %.0f;
#X msg 181 -4968 \; loop_beat_can label \$1;
#X obj 134 -4878 makefilename %.0f;
#X msg 134 -4861 \; flashPart_duration_can label \$1;
#X obj 181 -5049 inlet;
#X obj 260 -5055 inlet;
#X obj 409 -5049 inlet;
#X obj 468 -5047 inlet;
#X msg -76 -4976 \; flashBack_freq_can label \$1;
#X obj 353 -4980 s flashCA_coef;
#X obj 354 -4950 s flashBack_coef;
#X obj 521 -5049 inlet;
#X msg 354 -4899 \; auto_beat_can label \$1;
#X obj 354 -4916 makefilename %d;
#X obj -320 -5041 inlet;
#X obj -220 -4848 route 0 1;
#X obj -331 -4951 makefilename %d;
#X msg -331 -4934 \; flashCA_freq_0_can label \$1;
#X obj -184 -5036 inlet;
#X obj -554 -4924 route 0 1;
#X obj -444 -5033 inlet;
#X msg -560 -4896 \; flashPart_freq_can color 17 12;
#X msg -553 -4850 \; flashPart_freq_can color 13 12;
#X obj -77 -4930 route 0 1;
#X obj 33 -5039 inlet;
#X msg -83 -4902 \; flashBack_freq_can color 17 12;
#X msg -76 -4856 \; flashBack_freq_can color 13 12;
#X msg -548 -4982 \; flashPart_freq_can label \$1;
#X obj 358 -5014 route 0;
#X msg -226 -4820 \; flashCA_freq_0_can color 17 12;
#X msg -219 -4774 \; flashCA_freq_0_can color 13 12;
#X obj -324 -4986 route 0;
#X obj 513 -5008 route 0 1;
#X obj 604 -5047 inlet;
#X msg 512 -4913 \; initialBGSubtr_on_can color 17 12;
#X msg 512 -4878 \; initialBGSubtr_on_can color 13 12;
#X msg 565 -4844 \; initialBGSubtr_off_can color 17 12;
#X msg 553 -4808 \; initialBGSubtr_off_can color 13 12;
#X obj 619 -5009 route 0 1;
#X obj 708 -5045 inlet;
#X msg 612 -4987 \; is_webCamOn_can color 17 12;
#X msg 612 -4952 \; is_webCamOn_can color 13 12;
#X connect 0 0 31 0;
#X connect 1 0 12 0;
#X connect 2 0 0 0;
#X connect 3 0 1 0;
#X connect 4 0 5 0;
#X connect 6 0 7 0;
#X connect 8 0 4 0;
#X connect 9 0 6 0;
#X connect 10 0 32 0;
#X connect 11 0 14 0;
#X connect 15 0 17 0;
#X connect 17 0 16 0;
#X connect 18 0 35 0;
#X connect 19 0 33 0;
#X connect 19 1 34 0;
#X connect 20 0 21 0;
#X connect 22 0 19 0;
#X connect 23 0 25 0;
#X connect 23 1 26 0;
#X connect 24 0 23 0;
#X connect 27 0 29 0;
#X connect 27 1 30 0;
#X connect 28 0 27 0;
#X connect 32 0 13 0;
#X connect 35 0 20 0;
#X connect 36 0 38 0;
#X connect 36 0 41 0;
#X connect 36 1 39 0;
#X connect 36 1 40 0;
#X connect 37 0 36 0;
#X connect 42 0 44 0;
#X connect 42 1 45 0;
#X connect 43 0 42 0;
#X restore 108 -5042 pd flashAndLoopMessageDisplay;
#X obj -396 -4853 makefilename %d;
#X msg -396 -4836 \; sensor_activation_can label \$1;
#X obj -430 -4909 makefilename %.2f;
#X msg -431 -4892 \; sample_setUp_can label \$1;
#X msg -260 -4905 \; CAstep_can label \$1;
#X obj -260 -4922 makefilename %d;
#X obj 24 -5015 route /brushID_can /particle_texture_ID_can /CAType_can
/CASubType_can /drawing_can /particleMode_can /brushRadius_can /message_can
/echo_can /echoNeg_can /time_can /time_color_can /brush_radius_pressure_coef_can
/input_volume /invertAllLayers_can;
#X obj -253 -4997 makefilename %.2f;
#X msg -253 -4980 \; FBCaptureWeight_can label \$1;
#X obj -610 -5207 route /launch /RGBspectrum_can /restart /setup_can
/return_message /part_acc_factor_can /color_spectrum_coef_can /sample_setUp_can
/sensor_activation_can /CAstep_can /FBCaptureWeight_can /connect;
#X obj 24 -4880 route /currentTrack_can /source_track_record_can /track_replay_can
/local_color_r_can /local_color_a_can /videoThreshold_can;
#X obj 12 -5165 route /flashPart_freq_can /flashPart_onOff_can /flashCA_freq_can
/flashCA_onOff_0_can /flashBack_freq_can /flashBack_onOff_can /loop_beat_can
/flashPart_duration_can /flashCA_coef_can /flashBack_coef_can /auto_beat_can
/initialBGSubtr_onOff_can /is_webCamOn_can;
#X connect 4 0 5 0;
#X connect 5 0 3 0;
#X connect 10 0 8 0;
#X connect 10 1 8 1;
#X connect 10 2 8 2;
#X connect 10 3 8 3;
#X connect 10 4 8 4;
#X connect 10 5 8 5;
#X connect 10 6 8 6;
#X connect 12 0 11 0;
#X connect 15 0 31 0;
#X connect 17 0 18 0;
#X connect 20 0 13 0;
#X connect 22 0 23 0;
#X connect 24 0 25 0;
#X connect 27 0 26 0;
#X connect 28 0 7 0;
#X connect 28 1 7 1;
#X connect 28 2 7 2;
#X connect 28 3 7 3;
#X connect 28 4 7 4;
#X connect 28 5 7 5;
#X connect 28 6 7 6;
#X connect 28 7 7 7;
#X connect 28 8 7 8;
#X connect 28 9 7 9;
#X connect 28 10 7 10;
#X connect 28 11 7 11;
#X connect 28 12 7 12;
#X connect 28 13 7 13;
#X connect 28 14 7 14;
#X connect 28 15 32 0;
#X connect 29 0 30 0;
#X connect 31 0 1 0;
#X connect 31 1 9 0;
#X connect 31 2 2 0;
#X connect 31 3 12 0;
#X connect 31 4 4 0;
#X connect 31 5 17 0;
#X connect 31 6 20 0;
#X connect 31 7 24 0;
#X connect 31 8 22 0;
#X connect 31 9 27 0;
#X connect 31 10 29 0;
#X connect 31 12 33 0;
#X connect 32 0 6 0;
#X connect 32 1 6 1;
#X connect 32 2 6 2;
#X connect 32 3 6 3;
#X connect 32 4 6 4;
#X connect 32 5 6 5;
#X connect 32 6 10 0;
#X connect 33 0 21 0;
#X connect 33 1 21 1;
#X connect 33 2 21 2;
#X connect 33 3 21 3;
#X connect 33 4 21 4;
#X connect 33 5 21 5;
#X connect 33 6 21 6;
#X connect 33 7 21 7;
#X connect 33 8 21 8;
#X connect 33 9 21 9;
#X connect 33 10 21 10;
#X connect 33 11 21 11;
#X connect 33 12 21 12;
#X connect 33 13 28 0;
#X restore -505 -242 pd dumpVCMessages;
#X obj -609 -146 s connect;
#X obj -687 -145 s disconnect;
#X obj -687 -187 bng 15 250 50 0 empty empty empty 0 -6 0 8 -24198
-1 -1;
#X text -665 -188 Manual connection;
#X text -507 -258 OSC input messages;
#X obj -687 -165 delay 3000;
#X obj -609 -165 delay 3050;
#X msg -661 -72 0;
#X connect 2 0 1 0;
#X connect 3 0 1 1;
#X connect 4 0 1 2;
#X connect 5 0 1 3;
#X connect 7 0 0 0;
#X connect 8 0 0 1;
#X connect 9 0 7 0;
#X connect 13 0 15 0;
#X connect 13 0 32 0;
#X connect 14 0 13 0;
#X connect 15 0 3 0;
#X connect 15 0 4 0;
#X connect 15 0 5 0;
#X connect 19 0 20 0;
#X connect 27 0 30 0;
#X connect 27 0 31 0;
#X connect 30 0 26 0;
#X connect 31 0 25 0;
#X connect 32 0 2 0;
#X restore -694 -281 pd initial_board;
#X obj -528 77 vsl 15 128 0 0.01 0 0 empty track0decay BG 0 -9 0 14
-258699 -1 -24198 1270 1;
#X obj -561 78 vsl 15 128 0 0.05 0 0 empty CAdecay CA 0 -9 0 14 -162280
-1 -4034 0 1;
#X obj -566 246 cnv 15 60 25 empty empty PLAY 0 12 1 14 -1 -4034 0
;
#X obj -624 -59 cnv 15 20 25 empty empty / 0 12 1 14 -1 -4034 0;
#X obj -615 -59 cnv 15 60 25 empty CASubType_can 23 0 12 1 14 -1 -262144
0;
#X obj -529 213 cnv 15 20 25 empty track0decay_sign_can - 5 12 1 24
-44926 -33289 0;
#X obj -529 243 cnv 15 35 25 empty track0replay_can _ 5 12 1 24 -44926
-33289 0;
#X obj -530 272 cnv 15 35 25 empty source_track_record_0_can _ 5 12
1 24 -44926 -33289 0;
#X obj -513 78 vsl 8 128 0 1 0 0 empty track0weight empty 0 -9 0 10
-4032 -1 -1 12700 1;
#X obj -546 78 vsl 8 128 0 1 0 0 empty CAweight empty 0 -9 0 10 -4032
-1 -1 12700 1;
#X obj -512 -118 vsl 15 80 0 1 0 0 empty echoNeg empty 0 -9 0 14 -162280
-1 -4034 7900 1;
#X obj -720 17 cnv 15 50 25 empty a_can A_1.00 0 12 1 14 -262144 -66577
0;
#X obj -773 110 cnv 15 60 25 empty empty Freq_Particle: 0 12 1 12 -1
-4034 0;
#X obj -773 167 cnv 15 60 25 empty empty Freq_Back: 0 12 1 12 -1 -4034
0;
#X obj -776 41 cnv 15 50 25 empty color_can empty 20 12 0 14 -1 -262144
0;
#X obj -720 41 cnv 15 50 25 empty alpha_can empty 0 12 1 14 -262144
-262144 0;
#X obj -712 -178 cnv 15 130 25 empty brush_can Oval 0 12 1 14 -1 -262144
0;
#X obj -712 -158 cnv 15 130 25 empty radius_can 1.0 0 12 1 14 -1 -262144
0;
#X obj -541 -208 vsl 15 60 0 1.01 0 0 empty input_volume VOLUME 0 -9
0 14 -162280 -1 -4034 1577 1;
#X obj -655 109 cnv 15 15 25 empty empty X 0 12 1 12 -1 -4034 0;
#X obj -641 110 cnv 15 20 25 empty flashPart_duration_can 5 0 12 1
14 -1 -262144 0;
#X obj -648 -156 cnv 15 50 25 empty radius_vol_can 0 0 12 1 14 -1 -262144
0;
#X obj -776 17 cnv 15 50 25 empty gray_can G_0.00 0 12 1 14 -262144
-66577 0;
#X obj -666 -158 cnv 15 15 25 empty empty + 0 12 1 24 -1 -4034 0;
#X obj -775 -12 cnv 15 60 25 empty empty MUSIC 0 12 1 14 -1 -4034 0
;
#X obj -685 -11 cnv 15 60 25 empty color_spectrum_coef_can 1 0 12 1
14 -1 -262144 0;
#X obj -713 -12 cnv 15 20 25 empty empty Col 0 12 1 14 -1 -4034 0;
#X obj -518 317 cnv 15 40 25 empty FBCaptureWeight_can 0.00 0 12 1
14 -1 -262144 0;
#X obj -614 316 cnv 15 20 25 empty empty IMG_WEIGHT 0 12 1 14 -1 -4034
0;
#X obj -615 -166 cnv 20 30 25 empty invert_can Inv 5 12 1 12 -24198
-33289 0;
#X obj -649 -125 cnv 15 40 25 empty part_acc_factor_can 0.08 0 12 1
14 -1 -262144 0;
#X obj -604 -105 cnv 15 60 25 empty empty auto: 0 12 1 12 -1 -4034
0;
#X obj -566 -103 cnv 15 20 25 empty auto_beat_can 0 0 12 1 14 -1 -262144
0;
#X obj -615 -190 cnv 20 50 20 empty brush_radius_pressure_coef_can
8 5 12 1 12 -24198 -33289 0;
#X obj -618 -216 cnv 15 60 25 empty empty Tabl_Press 0 12 1 14 -1 -4034
0;
#X obj -604 -123 cnv 15 60 25 empty empty BEAT: 0 12 1 12 -1 -4034
0;
#X obj -565 -127 cnv 15 20 25 empty loop_beat_can 4 0 12 1 18 -1 -262144
0;
#X obj -536 -117 vsl 15 80 0 1.01 0 0 empty echo ECHO+- 0 -9 0 14 -162280
-1 -4034 7822 1;
#X obj -772 138 cnv 15 60 25 empty empty Freq_CA: 0 12 1 12 -1 -4034
0;
#X obj -696 132 cnv 15 35 25 empty flashCA_freq_0_can 4 5 12 1 24 -44926
-33289 0;
#X obj -698 165 cnv 15 50 25 empty flashBack_freq_can 1 5 12 1 24 -258699
-33289 0;
#X obj -695 101 cnv 15 35 25 empty flashPart_freq_can 1 5 12 1 24 -258699
-33289 0;
#X obj -566 270 cnv 15 25 25 empty empty REC 0 12 1 14 -1 -4034 0;
#X obj -776 -61 cnv 15 60 25 empty empty CA: 0 12 1 14 -1 -4034 0;
#X obj -717 -40 cnv 15 30 25 empty empty step 0 12 1 12 -1 -4034 0
;
#X obj -680 -40 cnv 15 60 25 empty CAstep_can 1 0 12 1 14 -1 -262144
0;
#X obj -774 79 cnv 15 60 25 empty empty BEAT 0 12 1 14 -1 -4034 0;
#X obj -645 184 cnv 15 60 25 empty empty video 0 12 1 14 -1 -4034 0
;
#X obj -774 295 cnv 15 60 25 empty empty CURRENT 0 12 1 14 -1 -4034
0;
#X obj -755 328 cnv 15 60 25 empty empty INITIAL 0 12 1 14 -1 -4034
0;
#X obj -701 220 cnv 15 35 25 empty is_webCamOn_can empty 5 12 1 24
-44926 -33289 0;
#X obj -700 327 cnv 15 35 25 empty initialBGSubtr_on_can empty 5 12
1 24 -44926 -33289 0;
#X obj -617 -10 cnv 15 60 25 empty empty SENSORS 0 12 1 14 -1 -4034
0;
#X obj -563 13 cnv 15 60 25 empty sample_setUp_can 0.10 0 12 1 14 -1
-262144 0;
#X obj -617 14 cnv 15 20 25 empty empty Setup 0 12 1 14 -1 -4034 0
;
#X obj -562 37 cnv 15 60 25 empty sensor_activation_can 4 0 12 1 14
-1 -262144 0;
#X obj -617 37 cnv 15 20 25 empty empty Activ 0 12 1 14 -1 -4034 0
;
#X obj -644 226 vsl 15 128 0 1 0 0 empty videoThreshold threshold 0
-9 0 14 -162280 -1 -4034 527 1;
#X obj -774 272 cnv 15 60 25 empty empty SUBTRACTION 0 12 1 14 -1 -4034
0;
#X obj -775 252 cnv 15 60 25 empty empty BACKGROUND 0 12 1 14 -1 -4034
0;
#X obj -774 221 cnv 15 60 25 empty empty CAM_ON 0 12 1 14 -1 -4034
0;
#X obj -700 293 cnv 15 35 25 empty initialBGSubtr_off_can empty 5 12
1 24 -258699 -33289 0;
#X connect 17 0 18 0;
#X connect 17 1 19 0;
#X connect 17 2 20 0;
