#N canvas 0 0 323 671 10;
#X obj 5 1 cnv 15 310 660 empty empty empty 20 18 0 14 -1 -66577 0
;
#X obj 9 11 cnv 15 80 30 empty time_can 11:51 0 15 1 32 -24198 -33289
0;
#X obj 16 120 cnv 15 60 25 empty empty BRUSH: 0 12 1 14 -1 -4034 0
;
#X obj 270 89 vsl 30 60 0 20 0 0 empty soundvolume empty 0 -12 1 20
-162280 -1 -262144 410 1;
#X obj 15 207 cnv 15 60 25 empty empty TEXT: 0 12 1 14 -1 -4034 0;
#X obj 80 208 cnv 15 130 25 empty texture_can High_noise 0 12 1 14
-1 -262144 0;
#X obj 231 509 cnv 15 20 25 empty CAdecay_sign_can - 5 12 1 24 -44926
-33289 0;
#X obj 78 238 cnv 15 60 25 empty CAType_can Gal_Moore 0 12 1 14 -1
-262144 0;
#X obj 15 171 cnv 15 60 25 empty empty PART: 0 12 1 14 -1 -4034 0;
#X obj 79 172 cnv 15 130 25 empty particles_can X 0 12 1 14 -1 -262144
0;
#X obj 16 101 cnv 15 60 25 empty empty STROKE: 0 12 1 14 -1 -4034 0
;
#X obj 81 101 cnv 15 130 25 empty drawing_can Line 0 12 1 14 -1 -262144
0;
#X obj 16 139 cnv 15 60 25 empty empty RADIUS: 0 12 1 14 -1 -4034 0
;
#X obj 14 45 cnv 15 140 25 empty message_can START 0 12 1 14 -1 -262144
0;
#X obj 95 16 cnv 15 105 20 empty empty empty 20 12 0 14 -233017 -66577
0;
#X obj 263 375 vsl 15 128 0 0.01 0 0 empty track0decay BG 0 -9 0 14
-258699 -24198 -24198 0 1;
#X obj 230 376 vsl 15 128 0 1 0 0 empty CAdecay CA 0 -9 0 14 -162280
-1 -4034 0 1;
#X obj 225 544 cnv 15 60 25 empty empty PLAY 0 12 1 14 -1 -4034 0;
#X obj 167 239 cnv 15 20 25 empty empty / 0 12 1 14 -1 -4034 0;
#X obj 176 239 cnv 15 60 25 empty CASubType_can 3 0 12 1 14 -1 -262144
0;
#X obj 262 511 cnv 15 20 25 empty track0decay_sign_can - 5 12 1 24
-44926 -33289 0;
#X obj 262 541 cnv 15 35 25 empty track0replay_can _ 5 12 1 24 -44926
-33289 0;
#X obj 261 570 cnv 15 35 25 empty source_track_record_0_can _ 5 12
1 24 -44926 -33289 0;
#X obj 278 376 vsl 8 128 0 1 0 0 empty track0weight empty 0 -9 0 10
-4032 -1 -1 0 1;
#X obj 245 376 vsl 8 128 0 1 0 0 empty CAweight empty 0 -9 0 10 -4032
-1 -1 0 1;
#X obj 279 180 vsl 15 80 0 1 0 0 empty echoNeg empty 0 -9 0 14 -162280
-1 -4034 0 1;
#X obj 71 315 cnv 15 50 25 empty a_can A_1.00 0 12 1 14 -262144 -66577
0;
#X obj 18 408 cnv 15 60 25 empty empty Freq_Particle: 0 12 1 12 -1
-4034 0;
#X obj 18 465 cnv 15 60 25 empty empty Freq_Back: 0 12 1 12 -1 -4034
0;
#X obj 15 339 cnv 15 50 25 empty color_can empty 20 12 0 14 -262144
-262144 0;
#X obj 71 339 cnv 15 50 25 empty alpha_can empty 0 12 1 14 -262144
-262144 0;
#X obj 79 120 cnv 15 130 25 empty brush_can Circle 0 12 1 14 -1 -262144
0;
#X obj 79 140 cnv 15 130 25 empty radius_can 1 0 12 1 14 -1 -262144
0;
#X obj 250 90 vsl 15 60 0 1.01 0 0 empty input_volume VOLUME 0 -9 0
14 -162280 -1 -4034 0 1;
#X obj 136 407 cnv 15 15 25 empty empty X 0 12 1 12 -1 -4034 0;
#X obj 150 408 cnv 15 20 25 empty flashPart_duration_can 0 0 12 1 14
-1 -262144 0;
#X obj 143 142 cnv 15 50 25 empty radius_vol_can 0 0 12 1 14 -1 -262144
0;
#X obj 15 315 cnv 15 50 25 empty gray_can G_1.00 0 12 1 14 -262144
-66577 0;
#X obj 125 140 cnv 15 15 25 empty empty + 0 12 1 24 -1 -4034 0;
#X obj 16 286 cnv 15 60 25 empty empty MUSIC 0 12 1 14 -1 -4034 0;
#X obj 106 287 cnv 15 60 25 empty color_spectrum_coef_can 0 0 12 1
14 -1 -262144 0;
#X obj 78 286 cnv 15 20 25 empty empty Col 0 12 1 14 -1 -4034 0;
#X obj 273 615 cnv 15 40 25 empty FBCaptureWeight_can 0 0 12 1 14 -1
-262144 0;
#X obj 177 614 cnv 15 20 25 empty empty IMG_WEIGHT 0 12 1 14 -1 -4034
0;
#X obj 176 132 cnv 20 30 25 empty invert_can Inv 5 12 1 12 -24198 -33289
0;
#X obj 142 173 cnv 15 40 25 empty part_acc_factor_can 0 0 12 1 14 -1
-262144 0;
#X obj 187 193 cnv 15 60 25 empty empty auto: 0 12 1 12 -1 -4034 0
;
#X obj 225 195 cnv 15 20 25 empty auto_beat_can 0 0 12 1 14 -1 -262144
0;
#X obj 176 108 cnv 20 50 20 empty brush_radius_pressure_coef_can 0
5 12 1 12 -24198 -33289 0;
#X obj 173 82 cnv 15 60 25 empty empty Tabl_Press 0 12 1 14 -1 -4034
0;
#X obj 187 175 cnv 15 60 25 empty empty BEAT: 0 12 1 12 -1 -4034 0
;
#X obj 226 171 cnv 15 20 25 empty loop_beat_can 2 0 12 1 18 -1 -262144
0;
#X obj 255 181 vsl 15 80 0 1.01 0 0 empty echo ECHO+- 0 -9 0 14 -162280
-1 -4034 0 1;
#X obj 19 436 cnv 15 60 25 empty empty Freq_CA: 0 12 1 12 -1 -4034
0;
#X obj 95 430 cnv 15 35 25 empty flashCA_freq_0_can 4 5 12 1 24 -258699
-33289 0;
#X obj 93 463 cnv 15 50 25 empty flashBack_freq_can 1 5 12 1 24 -44926
-33289 0;
#X obj 96 399 cnv 15 35 25 empty flashPart_freq_can 1 5 12 1 24 -44926
-33289 0;
#X obj 225 568 cnv 15 25 25 empty empty REC 0 12 1 14 -1 -4034 0;
#X obj 15 237 cnv 15 60 25 empty empty CA: 0 12 1 14 -1 -4034 0;
#X obj 74 258 cnv 15 30 25 empty empty step 0 12 1 12 -1 -4034 0;
#X obj 111 258 cnv 15 60 25 empty CAstep_can 10 0 12 1 14 -1 -262144
0;
#X obj 18 384 cnv 15 60 25 empty empty BEAT 0 12 1 14 -1 -4034 0;
#X obj 146 482 cnv 15 60 25 empty empty video 0 12 1 14 -1 -4034 0
;
#X obj 17 593 cnv 15 60 25 empty empty CURRENT 0 12 1 14 -1 -4034 0
;
#X obj 36 626 cnv 15 60 25 empty empty INITIAL 0 12 1 14 -1 -4034 0
;
#X obj 90 518 cnv 15 35 25 empty is_webCamOn_can empty 5 12 1 24 -44926
-33289 0;
#X obj 91 625 cnv 15 35 25 empty initialBGSubtr_on_can empty 5 12 1
24 -44926 -33289 0;
#X obj 159 264 cnv 15 60 25 empty empty SENSORS 0 12 1 14 -1 -4034
0;
#X obj 213 287 cnv 15 60 25 empty sample_setUp_can 0 0 12 1 14 -1 -262144
0;
#X obj 159 288 cnv 15 20 25 empty empty Setup 0 12 1 14 -1 -4034 0
;
#X obj 214 311 cnv 15 60 25 empty sensor_activation_can 5 0 12 1 14
-1 -262144 0;
#X obj 159 311 cnv 15 20 25 empty empty Activ 0 12 1 14 -1 -4034 0
;
#X obj 147 524 vsl 15 128 0 1 0 0 empty videoThreshold threshold 0
-9 0 14 -162280 -1 -4034 0 1;
#X obj 17 570 cnv 15 60 25 empty empty SUBTRACTION 0 12 1 14 -1 -4034
0;
#X obj 16 550 cnv 15 60 25 empty empty BACKGROUND 0 12 1 14 -1 -4034
0;
#X obj 17 519 cnv 15 60 25 empty empty CAM_ON 0 12 1 14 -1 -4034 0
;
#X obj 91 591 cnv 15 35 25 empty initialBGSubtr_off_can empty 5 12
1 24 -258699 -33289 0;
#X obj 211 335 cnv 15 60 25 empty sensor_vol_can 1 0 12 1 14 -1 -262144
0;
#X obj 157 335 cnv 15 20 25 empty empty Vol 0 12 1 14 -1 -4034 0;
#X floatatom 37 37 5 0 0 0 - - -, f 5;
#X obj 15 65 cnv 15 60 25 empty empty SCENE: 0 12 1 14 -1 -4034 0;
#X obj 82 64 cnv 15 130 25 empty setup_can S1_city 0 12 1 14 -1 -262144
0;
#X obj 203 9 cnv 15 100 60 empty empty empty 20 12 0 14 -233017 -66577
0;
#X obj 226 16 ctlin;
#X floatatom 206 43 5 0 0 0 - - -, f 5;
#X floatatom 237 43 5 0 0 0 - - -, f 5;
#X floatatom 269 43 5 0 0 0 - - -, f 5;
#N canvas 409 510 379 330 initial_board 0;
#N canvas 212 441 543 348 connect 0;
#X msg 150 81 disconnect;
#X text 14 25 OPEN UDP CONNECTION;
#X text 143 26 CLOSE UDP CONNECTION;
#X msg 74 137 connect 127.0.0.1 1978;
#X obj 127 163 r message;
#X obj 74 41 inlet;
#X obj 150 43 inlet;
#X floatatom 74 248 5 0 0 0 - - -, f 5;
#X obj 189 58 r disconnect;
#X obj 83 109 r connect;
#X obj 127 192 spigot;
#X text 161 108 Porphyrograph;
#X obj 74 226 netsend 1;
#X obj 237 251 print send;
#X connect 0 0 12 0;
#X connect 3 0 12 0;
#X connect 4 0 10 0;
#X connect 5 0 3 0;
#X connect 6 0 0 0;
#X connect 8 0 0 0;
#X connect 9 0 3 0;
#X connect 10 0 12 0;
#X connect 12 0 7 0;
#X connect 12 0 10 1;
#X coords 0 0 10 10 0 0 0;
#X restore 19 58 pd connect;
#N canvas 90 50 1209 631 LYM_spectrum_v4 0;
#X obj 211 105 bonk~;
#X obj 211 135 unpack f f f f f f f f f f f;
#X floatatom 511 334 5 0 0 0 - - -, f 5;
#X floatatom 546 334 5 0 0 0 - - -, f 5;
#X floatatom 612 334 5 0 0 0 - - -, f 5;
#X floatatom 648 334 5 0 0 0 - - -, f 5;
#X floatatom 684 334 5 0 0 0 - - -, f 5;
#X obj 568 24 inlet;
#X obj 924 475 s message;
#X obj 406 474 s message;
#X obj 924 435 spigot;
#X obj 406 434 spigot;
#X obj 439 24 inlet;
#X obj 347 186 +;
#X obj 381 187 +;
#X obj 381 209 +;
#X obj 414 208 +;
#X obj 414 229 +;
#X obj 414 251 +;
#X text 975 123 ATTACK OUTPUT;
#X text 347 167 Sum over 3 spectrum bands;
#X obj 347 317 /;
#X obj 380 317 /;
#X obj 414 317 /;
#X obj 211 184 +;
#X obj 211 205 +;
#X obj 211 226 +;
#X obj 211 268 +;
#X obj 256 185 +;
#X obj 256 206 +;
#X obj 256 248 +;
#X obj 256 228 +;
#X obj 313 285 +;
#X obj 211 417 pack f f;
#X obj 256 268 +;
#X obj 211 317 /;
#X obj 256 317 /;
#X obj 256 340 * 768;
#X msg 406 457 send /xy_spectrum \$1 \$2;
#X obj 890 122 unpack f f f;
#X floatatom 983 139 5 0 0 0 - - -, f 5;
#X obj 784 24 inlet;
#X obj 752 478 s message;
#X obj 751 436 spigot;
#X obj 957 24 inlet;
#X msg 751 457 send /brush_radius_vol \$1;
#X obj 256 358 - 384;
#X obj 292 25 loadbang;
#X msg 318 65 minvel 0.1;
#X obj 200 25 r startclock;
#X msg 233 64 thresh 6 50;
#X obj 171 65 metro 20;
#X obj 20 26 adc~ 1 2;
#X obj 764 244 s soundvolume;
#X obj 347 207 +;
#X obj 211 247 +;
#X obj 211 339 * 768;
#X obj 211 357 - 384;
#X msg 924 458 send /particle_acc_attack \$1;
#X text 762 226 LOUDNESS OUTPUT;
#X text 561 317 SPECTRUM OUTPUT;
#X obj 332 340 s band1;
#X obj 385 340 s band2;
#X obj 440 339 s band3;
#X text 966 234 Receives amplification coef;
#X text 967 248 either from slider in PD (USB control);
#X text 967 261 or from VirChor (keystroke control);
#X text 967 273 sends value to VC just for visual;
#X text 964 287 feedback;
#X obj 924 305 * 0.1024;
#X obj 924 327 - 0.0512;
#X text 188 168 Sum over 2 spectrum bands;
#X floatatom 712 230 5 0 0 0 - - -, f 5;
#X obj 65 71 *~ 1;
#X obj 751 152 + 1;
#X obj 86 25 r input_volume;
#N canvas 53 50 1287 692 paletteInterpoaltion 0;
#X obj 280 422 / 765;
#X obj 435 411 / 765;
#X obj 598 418 / 765;
#X obj 384 447 pack f f f;
#X obj -81 -288 bang;
#X msg -85 295 \; palette1_can color \$1;
#X msg 318 295 \; palette2_can color \$1;
#X msg 716 302 \; palette3_can color \$1;
#X obj 192 351 +;
#N canvas 4 105 288 291 colorRGB 0;
#X obj 16 27 inlet;
#X obj 93 28 inlet;
#X text 21 9 red;
#X text 93 11 green;
#X obj 159 107 t b f;
#X obj 93 144 +;
#X obj 93 169 t b f;
#X obj 93 200 +;
#X obj 16 84 * -65536;
#X obj 93 85 * -256;
#X obj 159 85 * -1;
#X obj 93 231 - 1;
#X obj 159 28 inlet;
#X obj 93 258 outlet;
#X text 161 11 blue;
#X obj 16 56 int;
#X obj 93 56 int;
#X obj 159 55 int;
#X connect 0 0 15 0;
#X connect 1 0 16 0;
#X connect 4 0 5 0;
#X connect 4 1 5 1;
#X connect 5 0 6 0;
#X connect 6 0 7 0;
#X connect 6 1 7 1;
#X connect 7 0 11 0;
#X connect 8 0 7 0;
#X connect 9 0 5 0;
#X connect 10 0 4 0;
#X connect 11 0 13 0;
#X connect 12 0 17 0;
#X connect 15 0 8 0;
#X connect 16 0 9 0;
#X connect 17 0 10 0;
#X restore 717 256 pd colorRGB;
#N canvas 177 329 288 291 colorRGB 0;
#X obj 16 27 inlet;
#X obj 93 28 inlet;
#X text 21 9 red;
#X text 93 11 green;
#X obj 159 107 t b f;
#X obj 93 144 +;
#X obj 93 169 t b f;
#X obj 93 200 +;
#X obj 16 84 * -65536;
#X obj 93 85 * -256;
#X obj 159 85 * -1;
#X obj 93 231 - 1;
#X obj 159 28 inlet;
#X obj 93 258 outlet;
#X text 161 11 blue;
#X obj 16 56 int;
#X obj 93 56 int;
#X obj 159 55 int;
#X connect 0 0 15 0;
#X connect 1 0 16 0;
#X connect 4 0 5 0;
#X connect 4 1 5 1;
#X connect 5 0 6 0;
#X connect 6 0 7 0;
#X connect 6 1 7 1;
#X connect 7 0 11 0;
#X connect 8 0 7 0;
#X connect 9 0 5 0;
#X connect 10 0 4 0;
#X connect 11 0 13 0;
#X connect 12 0 17 0;
#X connect 15 0 8 0;
#X connect 16 0 9 0;
#X connect 17 0 10 0;
#X restore -85 255 pd colorRGB;
#N canvas 4 105 288 291 colorRGB 0;
#X obj 16 27 inlet;
#X obj 93 28 inlet;
#X text 21 9 red;
#X text 93 11 green;
#X obj 159 107 t b f;
#X obj 93 144 +;
#X obj 93 169 t b f;
#X obj 93 200 +;
#X obj 16 84 * -65536;
#X obj 93 85 * -256;
#X obj 159 85 * -1;
#X obj 93 231 - 1;
#X obj 159 28 inlet;
#X obj 93 258 outlet;
#X text 161 11 blue;
#X obj 16 56 int;
#X obj 93 56 int;
#X obj 159 55 int;
#X connect 0 0 15 0;
#X connect 1 0 16 0;
#X connect 4 0 5 0;
#X connect 4 1 5 1;
#X connect 5 0 6 0;
#X connect 6 0 7 0;
#X connect 6 1 7 1;
#X connect 7 0 11 0;
#X connect 8 0 7 0;
#X connect 9 0 5 0;
#X connect 10 0 4 0;
#X connect 11 0 13 0;
#X connect 12 0 17 0;
#X connect 15 0 8 0;
#X connect 16 0 9 0;
#X connect 17 0 10 0;
#X restore 319 253 pd colorRGB;
#X obj -81 -255 bang;
#X obj -79 -222 bang;
#X obj -80 -190 bang;
#X obj -82 -159 bang;
#X obj -78 -132 bang;
#X obj -81 -105 bang;
#X obj -13 -313 r RGBspectrum;
#X obj -57 48 expr if ($f1 < 1 \, (1 - $f1) * $f2 + $f1 * $f3 \, if($f1
< 2 \, (2- $f1) * $f3 + ($f1 - 1) * $f4 \, if($f1 < 3 \, (3 - $f1)
* $f4 + ($f1 - 2) * $f5 \, if($f1 < 4 \, (4 - $f1) * $f5 + ($f1 - 3)
* $f6 \, if($f1 < 5 \, (5 - $f1) * $f6 + ($f1 - 4) * $f7 \, if($f1
< 6 \, (6 - $f1) * $f7 + ($f1 - 5) * $f8 \, (7 - $f1) * $f8 + ($f1
- 6) * $f2))))));
#X obj -85 -58 expr if ($f1 < 1 \, (1 - $f1) * $f2 + $f1 * $f3 \, if($f1
< 2 \, (2- $f1) * $f3 + ($f1 - 1) * $f4 \, if($f1 < 3 \, (3 - $f1)
* $f4 + ($f1 - 2) * $f5 \, if($f1 < 4 \, (4 - $f1) * $f5 + ($f1 - 3)
* $f6 \, if($f1 < 5 \, (5 - $f1) * $f6 + ($f1 - 4) * $f7 \, if($f1
< 6 \, (6 - $f1) * $f7 + ($f1 - 5) * $f8 \, (7 - $f1) * $f8 + ($f1
- 6) * $f2))))));
#X obj -44 158 expr if ($f1 < 1 \, (1 - $f1) * $f2 + $f1 * $f3 \, if($f1
< 2 \, (2- $f1) * $f3 + ($f1 - 1) * $f4 \, if($f1 < 3 \, (3 - $f1)
* $f4 + ($f1 - 2) * $f5 \, if($f1 < 4 \, (4 - $f1) * $f5 + ($f1 - 3)
* $f6 \, if($f1 < 5 \, (5 - $f1) * $f6 + ($f1 - 4) * $f7 \, if($f1
< 6 \, (6 - $f1) * $f7 + ($f1 - 5) * $f8 \, (7 - $f1) * $f8 + ($f1
- 6) * $f2))))));
#X obj 319 -59 expr if ($f1 < 1 \, (1 - $f1) * $f2 + $f1 * $f3 \, if($f1
< 2 \, (2- $f1) * $f3 + ($f1 - 1) * $f4 \, if($f1 < 3 \, (3 - $f1)
* $f4 + ($f1 - 2) * $f5 \, if($f1 < 4 \, (4 - $f1) * $f5 + ($f1 - 3)
* $f6 \, if($f1 < 5 \, (5 - $f1) * $f6 + ($f1 - 4) * $f7 \, if($f1
< 6 \, (6 - $f1) * $f7 + ($f1 - 5) * $f8 \, (7 - $f1) * $f8 + ($f1
- 6) * $f2))))));
#X obj 350 45 expr if ($f1 < 1 \, (1 - $f1) * $f2 + $f1 * $f3 \, if($f1
< 2 \, (2- $f1) * $f3 + ($f1 - 1) * $f4 \, if($f1 < 3 \, (3 - $f1)
* $f4 + ($f1 - 2) * $f5 \, if($f1 < 4 \, (4 - $f1) * $f5 + ($f1 - 3)
* $f6 \, if($f1 < 5 \, (5 - $f1) * $f6 + ($f1 - 4) * $f7 \, if($f1
< 6 \, (6 - $f1) * $f7 + ($f1 - 5) * $f8 \, (7 - $f1) * $f8 + ($f1
- 6) * $f2))))));
#X obj 359 155 expr if ($f1 < 1 \, (1 - $f1) * $f2 + $f1 * $f3 \, if($f1
< 2 \, (2- $f1) * $f3 + ($f1 - 1) * $f4 \, if($f1 < 3 \, (3 - $f1)
* $f4 + ($f1 - 2) * $f5 \, if($f1 < 4 \, (4 - $f1) * $f5 + ($f1 - 3)
* $f6 \, if($f1 < 5 \, (5 - $f1) * $f6 + ($f1 - 4) * $f7 \, if($f1
< 6 \, (6 - $f1) * $f7 + ($f1 - 5) * $f8 \, (7 - $f1) * $f8 + ($f1
- 6) * $f2))))));
#X obj 717 -57 expr if ($f1 < 1 \, (1 - $f1) * $f2 + $f1 * $f3 \, if($f1
< 2 \, (2- $f1) * $f3 + ($f1 - 1) * $f4 \, if($f1 < 3 \, (3 - $f1)
* $f4 + ($f1 - 2) * $f5 \, if($f1 < 4 \, (4 - $f1) * $f5 + ($f1 - 3)
* $f6 \, if($f1 < 5 \, (5 - $f1) * $f6 + ($f1 - 4) * $f7 \, if($f1
< 6 \, (6 - $f1) * $f7 + ($f1 - 5) * $f8 \, (7 - $f1) * $f8 + ($f1
- 6) * $f2))))));
#X obj 748 48 expr if ($f1 < 1 \, (1 - $f1) * $f2 + $f1 * $f3 \, if($f1
< 2 \, (2- $f1) * $f3 + ($f1 - 1) * $f4 \, if($f1 < 3 \, (3 - $f1)
* $f4 + ($f1 - 2) * $f5 \, if($f1 < 4 \, (4 - $f1) * $f5 + ($f1 - 3)
* $f6 \, if($f1 < 5 \, (5 - $f1) * $f6 + ($f1 - 4) * $f7 \, if($f1
< 6 \, (6 - $f1) * $f7 + ($f1 - 5) * $f8 \, (7 - $f1) * $f8 + ($f1
- 6) * $f2))))));
#X obj 783 154 expr if ($f1 < 1 \, (1 - $f1) * $f2 + $f1 * $f3 \, if($f1
< 2 \, (2- $f1) * $f3 + ($f1 - 1) * $f4 \, if($f1 < 3 \, (3 - $f1)
* $f4 + ($f1 - 2) * $f5 \, if($f1 < 4 \, (4 - $f1) * $f5 + ($f1 - 3)
* $f6 \, if($f1 < 5 \, (5 - $f1) * $f6 + ($f1 - 4) * $f7 \, if($f1
< 6 \, (6 - $f1) * $f7 + ($f1 - 5) * $f8 \, (7 - $f1) * $f8 + ($f1
- 6) * $f2))))));
#X obj 488 472 spigot;
#X obj 520 -313 inlet;
#X obj 488 494 outlet;
#X obj 168 327 *;
#X obj 142 304 r band1;
#X obj 229 330 *;
#X obj 300 333 *;
#X obj 223 308 r band2;
#X obj 281 309 r band3;
#X obj 248 383 +;
#X obj 494 362 +;
#X obj 470 338 *;
#X obj 538 341 *;
#X obj 602 344 *;
#X obj 550 394 +;
#X obj 703 363 +;
#X obj 679 339 *;
#X obj 747 342 *;
#X obj 811 345 *;
#X obj 759 401 +;
#X obj 447 315 r band1;
#X obj 528 319 r band2;
#X obj 586 320 r band3;
#X obj 657 317 r band1;
#X obj 738 321 r band2;
#X obj 796 322 r band3;
#X msg -7 -115 0;
#X msg -3 -271 247;
#X msg 30 -271 93;
#X msg 65 -271 57;
#X msg 297 -271 205;
#X msg 331 -271 42;
#X msg 362 -271 23;
#X msg 688 -271 232;
#X msg 724 -271 91;
#X msg 757 -271 107;
#X text 820 -273 red grenade fruit;
#X text 817 -239 blue abyss;
#X msg -3 -238 21;
#X msg 30 -238 37;
#X msg 66 -238 159;
#X msg 299 -238 87;
#X msg 332 -238 66;
#X msg 364 -238 167;
#X msg 690 -238 4;
#X msg 725 -238 134;
#X msg 759 -238 132;
#X msg -2 -205 81;
#X msg 32 -205 200;
#X msg 67 -205 12;
#X msg 300 -205 161;
#X msg 332 -205 217;
#X msg 365 -205 45;
#X msg 691 -205 249;
#X msg 727 -205 160;
#X msg 761 -205 32;
#X text 817 -204 green leaves;
#X msg -3 -173 237;
#X msg 31 -173 222;
#X msg 65 -173 16;
#X msg 298 -173 247;
#X msg 331 -173 78;
#X msg 363 -173 9;
#X msg 689 -173 222;
#X msg 723 -173 80;
#X msg 759 -173 103;
#X text 817 -174 autumn colors;
#X text 819 -142 hokusai;
#X msg -5 -142 32;
#X msg 28 -142 75;
#X msg 63 -142 128;
#X msg 296 -142 74;
#X msg 329 -142 119;
#X msg 361 -142 88;
#X msg 687 -142 235;
#X msg 722 -142 63;
#X msg 757 -142 41;
#X msg 27 -115 84;
#X msg 67 -115 157;
#X msg 294 -115 209;
#X msg 327 -115 160;
#X msg 358 -115 41;
#X text 820 -115 van gogh;
#X msg 685 -115 117;
#X msg 720 -115 52;
#X msg 755 -115 22;
#X text 821 -88 matisse;
#X msg -4 -88 218;
#X msg 29 -88 10;
#X msg 64 -88 26;
#X msg 297 -88 228;
#X msg 330 -88 104;
#X msg 361 -88 41;
#X msg 688 -88 99;
#X msg 723 -88 69;
#X msg 757 -88 167;
#X connect 0 0 3 0;
#X connect 1 0 3 1;
#X connect 2 0 3 2;
#X connect 3 0 28 0;
#X connect 4 0 56 0;
#X connect 4 0 57 0;
#X connect 4 0 58 0;
#X connect 4 0 59 0;
#X connect 4 0 60 0;
#X connect 4 0 61 0;
#X connect 4 0 62 0;
#X connect 4 0 63 0;
#X connect 4 0 55 0;
#X connect 8 0 37 0;
#X connect 12 0 69 0;
#X connect 12 0 70 0;
#X connect 12 0 71 0;
#X connect 12 0 72 0;
#X connect 12 0 73 0;
#X connect 12 0 74 0;
#X connect 12 0 66 0;
#X connect 12 0 68 0;
#X connect 12 0 67 0;
#X connect 13 0 76 0;
#X connect 13 0 77 0;
#X connect 13 0 78 0;
#X connect 13 0 79 0;
#X connect 13 0 80 0;
#X connect 13 0 81 0;
#X connect 13 0 82 0;
#X connect 13 0 83 0;
#X connect 13 0 75 0;
#X connect 14 0 86 0;
#X connect 14 0 87 0;
#X connect 14 0 88 0;
#X connect 14 0 89 0;
#X connect 14 0 90 0;
#X connect 14 0 91 0;
#X connect 14 0 92 0;
#X connect 14 0 93 0;
#X connect 14 0 85 0;
#X connect 15 0 97 0;
#X connect 15 0 98 0;
#X connect 15 0 99 0;
#X connect 15 0 100 0;
#X connect 15 0 101 0;
#X connect 15 0 102 0;
#X connect 15 0 103 0;
#X connect 15 0 104 0;
#X connect 15 0 96 0;
#X connect 16 0 105 0;
#X connect 16 0 107 0;
#X connect 16 0 108 0;
#X connect 16 0 109 0;
#X connect 16 0 111 0;
#X connect 16 0 112 0;
#X connect 16 0 113 0;
#X connect 16 0 54 0;
#X connect 16 0 106 0;
#X connect 17 0 116 0;
#X connect 17 0 117 0;
#X connect 17 0 118 0;
#X connect 17 0 119 0;
#X connect 17 0 120 0;
#X connect 17 0 121 0;
#X connect 17 0 122 0;
#X connect 17 0 115 0;
#X connect 17 0 123 0;
#X connect 18 0 19 0;
#X connect 18 0 20 0;
#X connect 18 0 21 0;
#X connect 18 0 22 0;
#X connect 18 0 23 0;
#X connect 18 0 24 0;
#X connect 18 0 25 0;
#X connect 18 0 26 0;
#X connect 18 0 27 0;
#X connect 18 0 4 0;
#X connect 18 0 12 0;
#X connect 18 0 13 0;
#X connect 18 0 14 0;
#X connect 18 0 15 0;
#X connect 18 0 16 0;
#X connect 18 0 17 0;
#X connect 19 0 10 1;
#X connect 19 0 39 1;
#X connect 20 0 10 0;
#X connect 20 0 31 1;
#X connect 21 0 10 2;
#X connect 21 0 44 1;
#X connect 22 0 11 0;
#X connect 22 0 33 1;
#X connect 23 0 11 1;
#X connect 23 0 40 1;
#X connect 24 0 11 2;
#X connect 24 0 45 1;
#X connect 25 0 9 0;
#X connect 25 0 34 1;
#X connect 26 0 9 1;
#X connect 26 0 41 1;
#X connect 27 0 9 2;
#X connect 27 0 46 1;
#X connect 28 0 30 0;
#X connect 29 0 28 1;
#X connect 31 0 8 0;
#X connect 32 0 31 0;
#X connect 33 0 8 1;
#X connect 34 0 37 1;
#X connect 35 0 33 0;
#X connect 36 0 34 0;
#X connect 37 0 0 0;
#X connect 38 0 42 0;
#X connect 39 0 38 0;
#X connect 40 0 38 1;
#X connect 41 0 42 1;
#X connect 42 0 1 0;
#X connect 43 0 47 0;
#X connect 44 0 43 0;
#X connect 45 0 43 1;
#X connect 46 0 47 1;
#X connect 47 0 2 0;
#X connect 48 0 39 0;
#X connect 49 0 40 0;
#X connect 50 0 41 0;
#X connect 51 0 44 0;
#X connect 52 0 45 0;
#X connect 53 0 46 0;
#X connect 54 0 20 6;
#X connect 55 0 20 1;
#X connect 56 0 19 1;
#X connect 57 0 21 1;
#X connect 58 0 22 1;
#X connect 59 0 23 1;
#X connect 60 0 24 1;
#X connect 61 0 25 1;
#X connect 62 0 26 1;
#X connect 63 0 27 1;
#X connect 66 0 20 2;
#X connect 67 0 19 2;
#X connect 68 0 21 2;
#X connect 69 0 22 2;
#X connect 70 0 23 2;
#X connect 71 0 24 2;
#X connect 72 0 25 2;
#X connect 73 0 26 2;
#X connect 74 0 27 2;
#X connect 75 0 20 3;
#X connect 76 0 19 3;
#X connect 77 0 21 3;
#X connect 78 0 22 3;
#X connect 79 0 23 3;
#X connect 80 0 24 3;
#X connect 81 0 25 3;
#X connect 82 0 26 3;
#X connect 83 0 27 3;
#X connect 85 0 20 4;
#X connect 86 0 19 4;
#X connect 87 0 21 4;
#X connect 88 0 22 4;
#X connect 89 0 23 4;
#X connect 90 0 24 4;
#X connect 91 0 25 4;
#X connect 92 0 26 4;
#X connect 93 0 27 4;
#X connect 96 0 20 5;
#X connect 97 0 19 5;
#X connect 98 0 21 5;
#X connect 99 0 22 5;
#X connect 100 0 23 5;
#X connect 101 0 24 5;
#X connect 102 0 25 5;
#X connect 103 0 26 5;
#X connect 104 0 27 5;
#X connect 105 0 19 6;
#X connect 106 0 21 6;
#X connect 107 0 22 6;
#X connect 108 0 23 6;
#X connect 109 0 24 6;
#X connect 111 0 25 6;
#X connect 112 0 26 6;
#X connect 113 0 27 6;
#X connect 115 0 20 7;
#X connect 116 0 19 7;
#X connect 117 0 21 7;
#X connect 118 0 22 7;
#X connect 119 0 23 7;
#X connect 120 0 24 7;
#X connect 121 0 25 7;
#X connect 122 0 26 7;
#X connect 123 0 27 7;
#X restore 568 382 pd paletteInterpoaltion;
#X msg 568 403 send /color_spectrum \$1 \$2 \$3;
#X obj 414 187 +;
#X msg 597 553 \; radius_vol_can label \$1;
#X obj 597 489 r brush_radius_vol_coef;
#X obj 597 514 *;
#X obj 576 450 loadbang;
#X obj 576 468 metro 1000;
#X obj 597 536 makefilename %.0f;
#X obj 568 420 s message;
#X connect 0 0 1 0;
#X connect 0 1 39 0;
#X connect 1 0 13 0;
#X connect 1 0 24 0;
#X connect 1 1 13 1;
#X connect 1 1 24 1;
#X connect 1 2 25 1;
#X connect 1 2 54 1;
#X connect 1 3 26 1;
#X connect 1 3 14 0;
#X connect 1 4 55 1;
#X connect 1 4 14 1;
#X connect 1 5 28 0;
#X connect 1 5 27 1;
#X connect 1 5 74 0;
#X connect 1 5 15 1;
#X connect 1 6 28 1;
#X connect 1 6 78 0;
#X connect 1 7 29 1;
#X connect 1 7 78 1;
#X connect 1 8 31 1;
#X connect 1 8 16 1;
#X connect 1 9 17 1;
#X connect 1 9 30 1;
#X connect 1 10 18 1;
#X connect 1 10 34 1;
#X connect 7 0 76 0;
#X connect 10 0 58 0;
#X connect 11 0 38 0;
#X connect 12 0 11 1;
#X connect 13 0 54 0;
#X connect 14 0 15 0;
#X connect 15 0 22 0;
#X connect 16 0 17 0;
#X connect 17 0 18 0;
#X connect 18 0 23 0;
#X connect 21 0 4 0;
#X connect 21 0 61 0;
#X connect 22 0 5 0;
#X connect 22 0 62 0;
#X connect 23 0 6 0;
#X connect 23 0 63 0;
#X connect 24 0 25 0;
#X connect 25 0 26 0;
#X connect 26 0 55 0;
#X connect 27 0 35 0;
#X connect 27 0 32 0;
#X connect 28 0 29 0;
#X connect 29 0 31 0;
#X connect 30 0 34 0;
#X connect 31 0 30 0;
#X connect 32 0 36 1;
#X connect 32 0 35 1;
#X connect 32 0 21 1;
#X connect 32 0 22 1;
#X connect 32 0 23 1;
#X connect 33 0 11 0;
#X connect 34 0 36 0;
#X connect 34 0 32 1;
#X connect 35 0 56 0;
#X connect 35 0 2 0;
#X connect 36 0 37 0;
#X connect 36 0 3 0;
#X connect 37 0 46 0;
#X connect 38 0 9 0;
#X connect 39 1 40 0;
#X connect 39 1 69 0;
#X connect 41 0 43 1;
#X connect 43 0 45 0;
#X connect 43 0 81 1;
#X connect 44 0 10 1;
#X connect 45 0 42 0;
#X connect 46 0 33 1;
#X connect 47 0 50 0;
#X connect 47 0 51 0;
#X connect 47 0 48 0;
#X connect 48 0 0 0;
#X connect 49 0 50 0;
#X connect 49 0 51 0;
#X connect 49 0 48 0;
#X connect 50 0 0 0;
#X connect 51 0 0 0;
#X connect 52 0 73 0;
#X connect 52 1 73 0;
#X connect 54 0 21 0;
#X connect 55 0 27 0;
#X connect 56 0 57 0;
#X connect 57 0 33 0;
#X connect 58 0 8 0;
#X connect 69 0 70 0;
#X connect 70 0 10 0;
#X connect 73 0 0 0;
#X connect 74 0 53 0;
#X connect 74 0 72 0;
#X connect 74 0 43 0;
#X connect 75 0 73 1;
#X connect 76 0 77 0;
#X connect 77 0 85 0;
#X connect 78 0 16 0;
#X connect 80 0 81 0;
#X connect 81 0 84 0;
#X connect 82 0 83 0;
#X connect 83 0 81 0;
#X connect 84 0 79 0;
#X restore 20 275 pd LYM_spectrum_v4;
#X obj 20 215 tgl 15 0 empty empty empty 17 7 0 10 -262144 -1 -1 0
1;
#X obj 20 230 tgl 15 0 empty empty empty 17 7 0 10 -262144 -1 -1 1
1;
#X obj 20 245 tgl 15 0 empty empty empty 17 7 0 10 -262144 -1 -1 1
1;
#X obj 20 260 tgl 15 0 empty empty empty 17 7 0 10 -262144 -1 -1 1
1;
#X text 22 150 music control;
#X obj 19 41 bng 15 250 50 0 empty empty empty 0 -6 0 8 -24198 -1 -1
;
#X obj 76 41 bng 15 250 50 0 empty empty empty 0 -6 0 8 -258699 -1
-1;
#X obj 19 23 loadbang;
#X text 15 6 UDP connection;
#X text 40 215 1: xy-spectrum;
#X text 40 231 2: color-spectrum;
#X obj 20 184 bng 15 250 50 0 empty empty empty 17 7 0 10 -262144 -1
-1;
#X obj 20 167 loadbang;
#X msg 20 199 1;
#X text 120 7 AUDIO ON;
#X obj 122 24 loadbang;
#X msg 122 40 \; pd dsp 1;
#X text 201 61 USB Controller;
#X text 39 246 3: brush radius;
#X text 39 261 4: particle accel.;
#N canvas 162 67 1042 602 dumpVCMessages 0;
#X text 17 10 OSC message processing;
#X obj -1 224 s startclock;
#X obj 16 268 s restart;
#X obj 42 375 s message;
#X obj 42 342 pack s;
#X msg 42 358 send /return_message \$1;
#N canvas 0 50 1234 366 trackMessageDisplay 0;
#X obj 511 23 inlet;
#X obj 204 20 inlet;
#X obj 67 22 inlet;
#X obj 540 80 route 0 1;
#X obj 291 101 route 0 1;
#X obj 192 176 route 1 0;
#X msg 29 111 \; track0decay color 11 16;
#X msg 32 74 \; track0decay color 13 16;
#X msg 28 151 \; track0decay color 11 16;
#X msg 26 189 \; track0decay color 11 16;
#X obj 67 43 route 0 1 2;
#X msg 878 77 \; a_can label \$1;
#X obj 878 60 makefilename A_%.2f;
#N canvas 4 135 288 272 colorRGB 0;
#X obj 16 27 inlet;
#X obj 93 28 inlet;
#X text 21 9 red;
#X text 93 11 green;
#X obj 159 75 t b f;
#X obj 93 112 +;
#X obj 93 137 t b f;
#X obj 93 168 +;
#X obj 16 52 * -65536;
#X obj 93 53 * -256;
#X obj 159 53 * -1;
#X obj 93 199 - 1;
#X obj 159 28 inlet;
#X obj 93 226 outlet;
#X text 161 11 blue;
#X connect 0 0 8 0;
#X connect 1 0 9 0;
#X connect 4 0 5 0;
#X connect 4 1 5 1;
#X connect 5 0 6 0;
#X connect 6 0 7 0;
#X connect 6 1 7 1;
#X connect 7 0 11 0;
#X connect 8 0 7 0;
#X connect 9 0 5 0;
#X connect 10 0 4 0;
#X connect 11 0 13 0;
#X connect 12 0 10 0;
#X restore 743 184 pd colorRGB;
#X msg 743 201 \; color_can color \$1;
#X obj 743 117 * 255;
#X obj 743 149 int;
#N canvas 4 135 288 291 colorRGB 0;
#X obj 16 27 inlet;
#X obj 93 28 inlet;
#X text 21 9 red;
#X text 93 11 green;
#X obj 159 75 t b f;
#X obj 93 112 +;
#X obj 93 137 t b f;
#X obj 93 168 +;
#X obj 16 52 * -65536;
#X obj 93 53 * -256;
#X obj 159 53 * -1;
#X obj 93 199 - 1;
#X obj 159 28 inlet;
#X obj 93 226 outlet;
#X text 161 11 blue;
#X connect 0 0 8 0;
#X connect 1 0 9 0;
#X connect 4 0 5 0;
#X connect 4 1 5 1;
#X connect 5 0 6 0;
#X connect 6 0 7 0;
#X connect 6 1 7 1;
#X connect 7 0 11 0;
#X connect 8 0 7 0;
#X connect 9 0 5 0;
#X connect 10 0 4 0;
#X connect 11 0 13 0;
#X connect 12 0 10 0;
#X restore 878 182 pd colorRGB;
#X obj 878 117 * 255;
#X obj 878 147 int;
#X msg 878 199 \; alpha_can color \$1;
#X obj 743 32 inlet;
#X msg 743 79 \; gray_can label \$1;
#X obj 743 62 makefilename G_%.2f;
#X obj 527 225 route 0 1;
#X msg 534 108 \; track0replay_can color 17 12;
#X msg 541 154 \; track0replay_can color 13 12;
#X msg 520 253 \; track0replay_can label _;
#X msg 524 293 \; track0replay_can label Ps;
#X obj 878 31 inlet;
#X msg 285 129 \; source_track_record_0_can color 17 12;
#X msg 170 215 \; source_track_record_0_can label s;
#X msg 181 255 \; source_track_record_0_can label _;
#X msg 293 175 \; source_track_record_0_can color 13 12;
#X obj 509 50 route 0;
#X obj 204 135 route 0;
#X obj 327 67 route 0;
#X obj 1041 43 pack f;
#X obj 1038 24 inlet;
#X obj 1041 63 s videoThreshold;
#X connect 0 0 34 0;
#X connect 1 0 35 0;
#X connect 1 0 36 0;
#X connect 2 0 10 0;
#X connect 3 0 25 0;
#X connect 3 1 26 0;
#X connect 4 0 30 0;
#X connect 4 1 33 0;
#X connect 5 0 31 0;
#X connect 5 1 32 0;
#X connect 10 0 7 0;
#X connect 10 1 6 0;
#X connect 10 2 8 0;
#X connect 10 3 9 0;
#X connect 12 0 11 0;
#X connect 13 0 14 0;
#X connect 15 0 16 0;
#X connect 16 0 13 0;
#X connect 16 0 13 1;
#X connect 16 0 13 2;
#X connect 17 0 20 0;
#X connect 18 0 19 0;
#X connect 19 0 17 0;
#X connect 19 0 17 1;
#X connect 19 0 17 2;
#X connect 21 0 23 0;
#X connect 21 0 15 0;
#X connect 23 0 22 0;
#X connect 24 0 27 0;
#X connect 24 1 28 0;
#X connect 29 0 12 0;
#X connect 29 0 18 0;
#X connect 34 0 3 0;
#X connect 34 0 24 0;
#X connect 35 0 5 0;
#X connect 36 0 4 0;
#X connect 37 0 39 0;
#X connect 38 0 37 0;
#X restore 684 452 pd trackMessageDisplay;
#N canvas 19 264 1364 634 environmentMessageDisplay 0;
#X msg 16 287 \; brush_can label Earth;
#X msg 14 54 \; brush_can label Circle;
#X obj 562 68 pack f;
#X obj 562 85 makefilename %d;
#X obj 363 8 route 0 1 2 3 4 5 6 7 8;
#X msg 365 30 \; CAType_can label GOL;
#X msg 482 334 \; CAType_can label CA5;
#X obj 37 -11 inlet;
#X obj 363 -14 inlet;
#X obj 222 -15 inlet;
#X obj 691 -15 inlet;
#X msg 624 208 \; drawing_can label X;
#X msg 625 246 \; drawing_can label Line;
#X obj 624 182 route 0 1 2 3;
#X obj 551 -16 inlet;
#X obj 828 164 route 0 1 2;
#X msg 805 192 \; particles_can label X;
#X msg 806 230 \; particles_can label Particles;
#X msg 805 275 \; particles_can label Firework;
#X obj 746 -14 inlet;
#X msg 806 21 \; radius_can label \$1;
#X msg 825 87 \; message_can label \$1;
#X obj 827 69 pack s;
#X obj 806 -17 inlet;
#X obj 859 -17 inlet;
#X msg 629 288 \; drawing_can label Dots;
#X msg 631 332 \; drawing_can label Bezier;
#X msg 550 34 \; CASubType_can label X;
#X msg 562 102 \; CASubType_can label \$1;
#X obj 934 -20 inlet;
#X obj 934 2 s echo;
#X obj 980 -21 inlet;
#X obj 980 2 s echoNeg;
#X obj 1030 -19 inlet;
#X obj 1082 -21 inlet;
#X obj 949 26 pack s;
#X msg 997 123 \; time_can color 13 12;
#X obj 997 95 route 0 1 2 3;
#X msg 996 245 \; time_can color 16 12;
#X msg 998 163 \; time_can color 14 12;
#X msg 996 203 \; time_can color 15 12;
#X msg 949 47 \; time_can label \$1;
#X msg 12 132 \; brush_can label FineGrain;
#X msg 15 174 \; brush_can label LargeGrain;
#X msg 16 211 \; brush_can label Ring;
#X msg 17 247 \; brush_can label Sun;
#X msg 15 327 \; brush_can label Moon;
#X msg 12 93 \; brush_can label Oval;
#X obj 37 12 route 0 1 2 3 4 5 6 7;
#X obj 1217 -20 inlet;
#X obj 1177 7 s input_volume;
#X obj 1330 -21 inlet;
#X obj 1177 37 route 1 0;
#X msg 1177 66 \; invert_can color 13 12;
#X msg 1178 101 \; invert_can color 16 12;
#X msg 195 61 \; texture_can label Circle;
#X msg 194 102 \; texture_can label Band;
#X msg 193 145 \; texture_can label Low_noise;
#X msg 195 185 \; texture_can label Med_noise;
#X msg 197 223 \; texture_can label High_noise;
#X msg 198 257 \; texture_can label Worms;
#X msg 197 293 \; texture_can label RandNoise;
#X obj 218 19 route 0 1 2 3 4 5 6 7;
#X msg 196 328 \; texture_can label Circle;
#X obj 34 383 expr if ($f1 < 0.5 \, 0 \, if($f1 < 1.5 \, 1 \, if($f1
< 2.5 \, 2 \, if($f1 < 3.5 \, 3 \, if($f1 < 4.5 \, 4 \, if($f1 < 5.5
\, 5 \, if($f1 < 6.5 \, 6 \, 7)))))));
#X obj 551 6 route 0;
#X msg 396 147 \; CAType_can label Gal_Moore;
#X msg 407 184 \; CAType_can label Gal_Neumann;
#X msg 374 68 \; CAType_can label Totalistic;
#X msg 387 107 \; CAType_can label Generation;
#X msg 460 296 \; CAType_can label Worm;
#X msg 426 223 \; CAType_can label Bin_Neumann;
#X obj 1140 -22 inlet;
#X obj 1140 222 makefilename %.0f;
#X msg 1140 239 \; brush_radius_pressure_coef_can label \$1;
#X msg 446 260 \; CAType_can label TumorCell;
#X obj 806 4 makefilename %.1f;
#X floatatom 738 59 5 0 0 0 - - -, f 5;
#X connect 2 0 3 0;
#X connect 3 0 28 0;
#X connect 4 0 5 0;
#X connect 4 1 68 0;
#X connect 4 2 69 0;
#X connect 4 3 66 0;
#X connect 4 4 67 0;
#X connect 4 5 71 0;
#X connect 4 6 75 0;
#X connect 4 7 70 0;
#X connect 4 8 6 0;
#X connect 7 0 48 0;
#X connect 8 0 4 0;
#X connect 9 0 64 0;
#X connect 10 0 13 0;
#X connect 13 0 11 0;
#X connect 13 1 12 0;
#X connect 13 2 25 0;
#X connect 13 3 26 0;
#X connect 14 0 65 0;
#X connect 15 0 16 0;
#X connect 15 1 17 0;
#X connect 15 2 18 0;
#X connect 19 0 15 0;
#X connect 22 0 21 0;
#X connect 23 0 76 0;
#X connect 23 0 77 0;
#X connect 24 0 22 0;
#X connect 29 0 30 0;
#X connect 31 0 32 0;
#X connect 33 0 35 0;
#X connect 34 0 37 0;
#X connect 35 0 41 0;
#X connect 37 0 36 0;
#X connect 37 1 39 0;
#X connect 37 2 40 0;
#X connect 37 3 38 0;
#X connect 48 0 1 0;
#X connect 48 1 47 0;
#X connect 48 2 42 0;
#X connect 48 3 43 0;
#X connect 48 4 44 0;
#X connect 48 5 45 0;
#X connect 48 6 0 0;
#X connect 48 7 46 0;
#X connect 49 0 50 0;
#X connect 51 0 52 0;
#X connect 52 0 53 0;
#X connect 52 1 54 0;
#X connect 62 0 55 0;
#X connect 62 1 56 0;
#X connect 62 2 57 0;
#X connect 62 3 58 0;
#X connect 62 4 59 0;
#X connect 62 5 60 0;
#X connect 62 6 61 0;
#X connect 62 7 63 0;
#X connect 64 0 62 0;
#X connect 65 0 27 0;
#X connect 65 1 2 0;
#X connect 72 0 73 0;
#X connect 73 0 74 0;
#X connect 76 0 20 0;
#X restore 684 363 pd environmentMessageDisplay;
#N canvas 96 142 1044 407 trackDecayMessages 0;
#X obj -870 -58 inlet;
#X obj -381 40 pack f;
#X obj -445 -31 pack f;
#X obj -390 -68 inlet;
#X obj -449 -67 inlet;
#X msg -679 43 \; track0decay_sign_can label +;
#X msg -673 87 \; track0decay_sign_can label -;
#X msg -658 136 \; track0decay_sign_can color 13 12;
#X msg -625 183 \; track0decay_sign_can color 17 12;
#X obj -381 58 s track0decay;
#X obj -445 -14 s CAdecay;
#X msg -893 47 \; CAdecay_sign_can label +;
#X msg -887 92 \; CAdecay_sign_can label -;
#X msg -872 141 \; CAdecay_sign_can color 13 12;
#X msg -845 182 \; CAdecay_sign_can color 17 12;
#X obj -526 -63 inlet;
#X obj -252 35 pack f;
#X obj -261 -73 inlet;
#X obj -252 53 s track0weight;
#X obj -110 -78 inlet;
#X obj -106 -49 route -1 1;
#X msg -104 -2 \; track0decay color 11 16;
#X msg -77 52 \; track0decay color 17 16;
#X obj -173 -39 pack f;
#X obj -177 -75 inlet;
#X obj -173 -20 s CAweight;
#X obj -870 3 route -1 1;
#X obj -656 1 route -1 1;
#X obj -525 -38 route 0;
#X obj -382 -43 route 0;
#X obj -253 -48 route 0;
#X connect 0 0 26 0;
#X connect 1 0 9 0;
#X connect 2 0 10 0;
#X connect 3 0 29 0;
#X connect 4 0 2 0;
#X connect 15 0 28 0;
#X connect 16 0 18 0;
#X connect 17 0 30 0;
#X connect 19 0 20 0;
#X connect 20 0 21 0;
#X connect 20 1 22 0;
#X connect 23 0 25 0;
#X connect 24 0 23 0;
#X connect 26 0 11 0;
#X connect 26 0 13 0;
#X connect 26 1 12 0;
#X connect 26 1 14 0;
#X connect 27 0 5 0;
#X connect 27 0 7 0;
#X connect 27 1 6 0;
#X connect 27 1 8 0;
#X connect 28 0 27 0;
#X connect 29 0 1 0;
#X connect 30 0 16 0;
#X restore 701 542 pd trackDecayMessages;
#X obj 5 246 s RGBspectrum;
#X obj 602 476 route /CAdecay_sign_can /trackdecay_sign_can /CAdecay_can
/trackdecay_can /trackweight_can /CAweight_can /lighttrack0_can;
#X msg 26 308 \; setup_can label \$1;
#X obj 26 290 pack s;
#X msg 155 306 \; color_spectrum_coef_can label \$1;
#X obj 392 225 s connect;
#X obj 18 27 netreceive 1979 1;
#X text 179 11 and processing messages from Porphyrograph;
#X obj 136 224 makefilename %.2f;
#X msg 136 241 \; part_acc_factor_can label \$1;
#X obj 938 342 print dump;
#X obj 155 289 makefilename %.0f;
#N canvas 374 53 1394 348 flashAndLoopMessageDisplay 0;
#X obj -547 -5000 makefilename %.0f;
#X obj -79 -4993 makefilename %.0f;
#X obj -546 -5027 inlet;
#X obj -79 -5037 inlet;
#X obj 181 -4985 makefilename %.0f;
#X msg 181 -4968 \; loop_beat_can label \$1;
#X obj 134 -4878 makefilename %.0f;
#X msg 134 -4861 \; flashPart_duration_can label \$1;
#X obj 181 -5049 inlet;
#X obj 260 -5055 inlet;
#X obj 409 -5049 inlet;
#X obj 468 -5047 inlet;
#X msg -76 -4976 \; flashBack_freq_can label \$1;
#X obj 353 -4980 s flashCA_coef;
#X obj 354 -4950 s flashBack_coef;
#X obj 521 -5049 inlet;
#X msg 354 -4899 \; auto_beat_can label \$1;
#X obj 354 -4916 makefilename %d;
#X obj -320 -5041 inlet;
#X obj -220 -4848 route 0 1;
#X obj -331 -4951 makefilename %d;
#X msg -331 -4934 \; flashCA_freq_0_can label \$1;
#X obj -184 -5036 inlet;
#X obj -554 -4924 route 0 1;
#X obj -444 -5033 inlet;
#X msg -560 -4896 \; flashPart_freq_can color 17 12;
#X msg -553 -4850 \; flashPart_freq_can color 13 12;
#X obj -77 -4930 route 0 1;
#X obj 33 -5039 inlet;
#X msg -83 -4902 \; flashBack_freq_can color 17 12;
#X msg -76 -4856 \; flashBack_freq_can color 13 12;
#X msg -548 -4982 \; flashPart_freq_can label \$1;
#X obj 358 -5014 route 0;
#X msg -226 -4820 \; flashCA_freq_0_can color 17 12;
#X msg -219 -4774 \; flashCA_freq_0_can color 13 12;
#X obj -324 -4986 route 0;
#X obj 513 -5008 route 0 1;
#X obj 604 -5047 inlet;
#X msg 512 -4913 \; initialBGSubtr_on_can color 17 12;
#X msg 512 -4878 \; initialBGSubtr_on_can color 13 12;
#X msg 565 -4844 \; initialBGSubtr_off_can color 17 12;
#X msg 553 -4808 \; initialBGSubtr_off_can color 13 12;
#X obj 619 -5009 route 0 1;
#X obj 708 -5045 inlet;
#X msg 612 -4987 \; is_webCamOn_can color 17 12;
#X msg 612 -4952 \; is_webCamOn_can color 13 12;
#X connect 0 0 31 0;
#X connect 1 0 12 0;
#X connect 2 0 0 0;
#X connect 3 0 1 0;
#X connect 4 0 5 0;
#X connect 6 0 7 0;
#X connect 8 0 4 0;
#X connect 9 0 6 0;
#X connect 10 0 32 0;
#X connect 11 0 14 0;
#X connect 15 0 17 0;
#X connect 17 0 16 0;
#X connect 18 0 35 0;
#X connect 19 0 33 0;
#X connect 19 1 34 0;
#X connect 20 0 21 0;
#X connect 22 0 19 0;
#X connect 23 0 25 0;
#X connect 23 1 26 0;
#X connect 24 0 23 0;
#X connect 27 0 29 0;
#X connect 27 1 30 0;
#X connect 28 0 27 0;
#X connect 32 0 13 0;
#X connect 35 0 20 0;
#X connect 36 0 38 0;
#X connect 36 0 41 0;
#X connect 36 1 39 0;
#X connect 36 1 40 0;
#X connect 37 0 36 0;
#X connect 42 0 44 0;
#X connect 42 1 45 0;
#X connect 43 0 42 0;
#X restore 677 226 pd flashAndLoopMessageDisplay;
#X obj 233 402 makefilename %d;
#X msg 233 419 \; sensor_activation_can label \$1;
#X obj 199 346 makefilename %.2f;
#X msg 198 363 \; sample_setUp_can label \$1;
#X msg 369 350 \; CAstep_can label \$1;
#X obj 369 333 makefilename %d;
#X obj 593 253 route /brushID_can /particle_texture_ID_can /CAType_can
/CASubType_can /drawing_can /particleMode_can /brushRadius_can /message_can
/echo_can /echoNeg_can /time_can /time_color_can /brush_radius_pressure_coef_can
/input_volume /invertAllLayers_can;
#X obj 376 258 makefilename %.2f;
#X msg 376 275 \; FBCaptureWeight_can label \$1;
#X obj 593 388 route /currentTrack_can /source_track_record_can /track_replay_can
/local_color_r_can /local_color_a_can /videoThreshold_can;
#X obj 581 103 route /flashPart_freq_can /flashPart_onOff_can /flashCA_freq_can
/flashCA_onOff_0_can /flashBack_freq_can /flashBack_onOff_can /loop_beat_can
/flashPart_duration_can /flashCA_coef_can /flashBack_coef_can /auto_beat_can
/initialBGSubtr_onOff_can /is_webCamOn_can;
#X obj 414 171 makefilename %.2f;
#X msg 413 188 \; sensor_vol_can label \$1;
#X obj 19 48 route /launch /RGBspectrum_can /restart /setup_can /return_message
/part_acc_factor_can /color_spectrum_coef_can /sample_setUp_can /sensor_activation_can
/CAstep_can /FBCaptureWeight_can /connect /sensor_vol_can;
#X connect 4 0 5 0;
#X connect 5 0 3 0;
#X connect 10 0 8 0;
#X connect 10 1 8 1;
#X connect 10 2 8 2;
#X connect 10 3 8 3;
#X connect 10 4 8 4;
#X connect 10 5 8 5;
#X connect 10 6 8 6;
#X connect 12 0 11 0;
#X connect 15 0 35 0;
#X connect 17 0 18 0;
#X connect 20 0 13 0;
#X connect 22 0 23 0;
#X connect 24 0 25 0;
#X connect 27 0 26 0;
#X connect 28 0 7 0;
#X connect 28 1 7 1;
#X connect 28 2 7 2;
#X connect 28 3 7 3;
#X connect 28 4 7 4;
#X connect 28 5 7 5;
#X connect 28 6 7 6;
#X connect 28 7 7 7;
#X connect 28 8 7 8;
#X connect 28 9 7 9;
#X connect 28 10 7 10;
#X connect 28 11 7 11;
#X connect 28 12 7 12;
#X connect 28 13 7 13;
#X connect 28 14 7 14;
#X connect 28 15 31 0;
#X connect 29 0 30 0;
#X connect 31 0 6 0;
#X connect 31 1 6 1;
#X connect 31 2 6 2;
#X connect 31 3 6 3;
#X connect 31 4 6 4;
#X connect 31 5 6 5;
#X connect 31 6 10 0;
#X connect 32 0 21 0;
#X connect 32 1 21 1;
#X connect 32 2 21 2;
#X connect 32 3 21 3;
#X connect 32 4 21 4;
#X connect 32 5 21 5;
#X connect 32 6 21 6;
#X connect 32 7 21 7;
#X connect 32 8 21 8;
#X connect 32 9 21 9;
#X connect 32 10 21 10;
#X connect 32 11 21 11;
#X connect 32 12 21 12;
#X connect 32 13 28 0;
#X connect 33 0 34 0;
#X connect 35 0 1 0;
#X connect 35 1 9 0;
#X connect 35 2 2 0;
#X connect 35 3 12 0;
#X connect 35 4 4 0;
#X connect 35 5 17 0;
#X connect 35 6 20 0;
#X connect 35 7 24 0;
#X connect 35 8 22 0;
#X connect 35 9 27 0;
#X connect 35 10 29 0;
#X connect 35 11 14 0;
#X connect 35 12 33 0;
#X connect 35 13 32 0;
#X restore 203 29 pd dumpVCMessages;
#X obj 113 125 s connect;
#X obj 21 126 s disconnect;
#X obj 21 84 bng 15 250 50 0 empty empty empty 0 -6 0 8 -24198 -1 -1
;
#X text 43 83 Manual connection;
#X text 201 13 OSC input messages;
#X obj 21 106 delay 3000;
#X obj 113 106 delay 3050;
#X msg 47 199 0;
#N canvas 610 0 1258 691 controls 0;
#X obj 18 47 vsl 15 50 0 1 0 0 empty empty empty 0 -9 0 10 -262144
-1 -1 0 1;
#X obj 18 28 / 127;
#X obj 19 192 vsl 15 50 0 1 0 0 empty empty empty 0 -9 0 10 -262144
-1 -1 0 1;
#X obj 19 173 / 127;
#X obj 19 308 / 127;
#X obj 17 477 vsl 15 50 0 1 0 0 empty empty empty 0 -9 0 10 -262144
-1 -1 0 1;
#X obj 17 458 / 127;
#X obj 98 47 vsl 15 50 0 1 0 0 empty empty empty 0 -9 0 10 -262144
-1 -1 0 1;
#X obj 98 28 / 127;
#X obj 99 192 vsl 15 50 0 1 0 0 empty empty empty 0 -9 0 10 -262144
-1 -1 0 1;
#X obj 99 173 / 127;
#X obj 99 308 / 127;
#X obj 97 477 vsl 15 50 0 1 0 0 empty empty empty 0 -9 0 10 -262144
-1 -1 0 1;
#X obj 97 458 / 127;
#X obj 179 46 vsl 15 50 0 1 0 0 empty empty empty 0 -9 0 10 -262144
-1 -1 0 1;
#X obj 179 27 / 127;
#X obj 180 191 vsl 15 50 0 1 0 0 empty empty empty 0 -9 0 10 -262144
-1 -1 0 1;
#X obj 180 172 / 127;
#X obj 180 326 vsl 15 50 0 1 0 0 empty empty empty 0 -9 0 10 -262144
-1 -1 0 1;
#X obj 180 307 / 127;
#X obj 178 476 vsl 15 50 0 1 0 0 empty empty empty 0 -9 0 10 -262144
-1 -1 0 1;
#X obj 178 457 / 127;
#X obj 255 46 vsl 15 50 0 1 0 0 empty empty empty 0 -9 0 10 -262144
-1 -1 0 1;
#X obj 255 27 / 127;
#X obj 256 191 vsl 15 50 0 1 0 0 empty empty empty 0 -9 0 10 -262144
-1 -1 0 1;
#X obj 256 172 / 127;
#X obj 256 326 vsl 15 50 0 1 0 0 empty empty empty 0 -9 0 10 -262144
-1 -1 0 1;
#X obj 256 307 / 127;
#X obj 254 474 vsl 15 50 0 1 0 0 empty empty empty 0 -9 0 10 -262144
-1 -1 0 1;
#X obj 254 455 / 127;
#X obj 330 46 vsl 15 50 0 1 0 0 empty empty empty 0 -9 0 10 -262144
-1 -1 0 1;
#X obj 330 27 / 127;
#X obj 331 191 vsl 15 50 0 1 0 0 empty empty empty 0 -9 0 10 -262144
-1 -1 0 1;
#X obj 331 172 / 127;
#X obj 331 326 vsl 15 50 0 1 0 0 empty empty empty 0 -9 0 10 -262144
-1 -1 0 1;
#X obj 331 307 / 127;
#X obj 329 474 vsl 15 50 0 1 0 0 empty empty empty 0 -9 0 10 -262144
-1 -1 0 1;
#X obj 329 455 / 127;
#X obj 409 45 vsl 15 50 0 1 0 0 empty empty empty 0 -9 0 10 -262144
-1 -1 0 1;
#X obj 409 26 / 127;
#X obj 410 190 vsl 15 50 0 1 0 0 empty empty empty 0 -9 0 10 -262144
-1 -1 0 1;
#X obj 410 171 / 127;
#X obj 410 325 vsl 15 50 0 1 0 0 empty empty empty 0 -9 0 10 -262144
-1 -1 0 1;
#X obj 410 306 / 127;
#X obj 408 473 vsl 15 50 0 1 0 0 empty empty empty 0 -9 0 10 -262144
-1 -1 0 1;
#X obj 408 454 / 127;
#X obj 495 45 vsl 15 50 0 1 0 0 empty empty empty 0 -9 0 10 -262144
-1 -1 0 1;
#X obj 495 26 / 127;
#X obj 496 190 vsl 15 50 0 1 0 0 empty empty empty 0 -9 0 10 -262144
-1 -1 0 1;
#X obj 496 171 / 127;
#X obj 496 325 vsl 15 50 0 1 0 0 empty empty empty 0 -9 0 10 -262144
-1 -1 0 1;
#X obj 496 306 / 127;
#X obj 494 473 vsl 15 50 0 1 0 0 empty empty empty 0 -9 0 10 -262144
-1 -1 0 1;
#X obj 494 454 / 127;
#X obj 571 44 vsl 15 50 0 1 0 0 empty empty empty 0 -9 0 10 -262144
-1 -1 0 1;
#X obj 571 25 / 127;
#X obj 572 189 vsl 15 50 0 1 0 0 empty empty empty 0 -9 0 10 -262144
-1 -1 0 1;
#X obj 572 170 / 127;
#X obj 572 324 vsl 15 50 0 1 0 0 empty empty empty 0 -9 0 10 -262144
-1 -1 0 1;
#X obj 572 305 / 127;
#X obj 570 472 vsl 15 50 0 1 0 0 empty empty empty 0 -9 0 10 -262144
-1 -1 0 1;
#X obj 570 453 / 127;
#X obj 649 471 vsl 15 50 0 1 0 0 empty empty empty 0 -9 0 10 -262144
-1 -1 0 1;
#X obj 649 452 / 127;
#X obj 18 11 ctlin 13 1;
#X obj 19 291 ctlin 10 1;
#X obj 17 441 ctlin 7 1;
#X obj 649 435 ctlin 28 1;
#X obj 98 11 ctlin 13 2;
#X obj 99 291 ctlin 10 2;
#X obj 97 441 ctlin 7 2;
#X obj 179 10 ctlin 13 3;
#X obj 255 10 ctlin 13 4;
#X obj 331 10 ctlin 13 5;
#X obj 495 9 ctlin 13 7;
#X obj 571 8 ctlin 13 8;
#X obj 180 155 ctlin 12 3;
#X obj 180 290 ctlin 10 3;
#X obj 178 440 ctlin 7 3;
#X obj 256 155 ctlin 12 4;
#X obj 256 290 ctlin 10 4;
#X obj 254 438 ctlin 7 4;
#X obj 331 155 ctlin 12 5;
#X obj 331 290 ctlin 10 5;
#X obj 328 438 ctlin 7 5;
#X obj 409 9 ctlin 13 6;
#X obj 410 154 ctlin 12 6;
#X obj 410 289 ctlin 10 6;
#X obj 408 437 ctlin 7 6;
#X obj 496 154 ctlin 12 7;
#X obj 496 290 ctlin 10 7;
#X obj 499 439 ctlin 7 7;
#X obj 572 153 ctlin 12 8;
#X obj 572 288 ctlin 10 8;
#X obj 570 436 ctlin 7 8;
#X obj 855 62 s message;
#X obj 1047 62 s message;
#X obj 856 202 s message;
#X obj 1048 202 s message;
#X obj 855 275 s message;
#X obj 1047 275 s message;
#X obj 858 354 s message;
#X obj 729 428 s message;
#X obj 843 446 s message;
#X obj 987 428 s message;
#X obj 1100 447 s message;
#X obj 99 156 ctlin 12 2;
#X obj 19 156 ctlin 12 1;
#N canvas 221 50 450 300 particleMode 0;
#X obj 67 -341 int;
#X obj 67 -307 s message;
#X msg 67 -324 send /particleMode \$1;
#X obj 67 -382 inlet;
#X obj 67 -358 * 2.99;
#X connect 0 0 2 0;
#X connect 2 0 1 0;
#X connect 3 0 4 0;
#X connect 4 0 0 0;
#X restore 18 101 pd particleMode;
#N canvas 269 50 450 300 part_acc_factor 0;
#X obj 42 97 s message;
#X msg 42 80 send /part_acc_factor \$1;
#X obj 42 18 inlet;
#X obj 42 50 / 10;
#X connect 1 0 0 0;
#X connect 2 0 3 0;
#X connect 3 0 1 0;
#X restore 99 121 pd part_acc_factor;
#N canvas 469 50 450 300 partAccCenter 0;
#X obj 63 278 s message;
#X obj 166 89 route 0 1 2 3 4;
#X msg 166 118 0.5;
#X msg 249 114 0.5;
#X msg 180 143 0.5;
#X msg 263 139 0.1;
#X msg 189 169 0.5;
#X msg 267 168 0.9;
#X msg 277 195 0.5;
#X msg 287 223 0.5;
#X msg 200 195 0.1;
#X msg 210 223 0.9;
#X msg 63 261 send /partAccCenter_0 \$1;
#X obj 253 277 s message;
#X msg 253 260 send /partAccCenter_1 \$1;
#X obj 166 16 inlet;
#X obj 166 63 int;
#X obj 166 38 * 4.99;
#X floatatom 21 203 5 0 0 0 - - -, f 5;
#X floatatom 372 194 5 0 0 0 - - -, f 5;
#X connect 1 0 2 0;
#X connect 1 0 3 0;
#X connect 1 1 5 0;
#X connect 1 1 4 0;
#X connect 1 2 6 0;
#X connect 1 2 7 0;
#X connect 1 3 10 0;
#X connect 1 3 8 0;
#X connect 1 4 11 0;
#X connect 1 4 9 0;
#X connect 2 0 12 0;
#X connect 2 0 18 0;
#X connect 3 0 14 0;
#X connect 3 0 19 0;
#X connect 4 0 12 0;
#X connect 4 0 18 0;
#X connect 5 0 14 0;
#X connect 5 0 19 0;
#X connect 6 0 12 0;
#X connect 6 0 18 0;
#X connect 7 0 14 0;
#X connect 7 0 19 0;
#X connect 8 0 14 0;
#X connect 8 0 19 0;
#X connect 9 0 14 0;
#X connect 9 0 19 0;
#X connect 10 0 12 0;
#X connect 10 0 18 0;
#X connect 11 0 12 0;
#X connect 11 0 18 0;
#X connect 12 0 0 0;
#X connect 14 0 13 0;
#X connect 15 0 17 0;
#X connect 16 0 1 0;
#X connect 17 0 16 0;
#X restore 179 100 pd partAccCenter;
#N canvas 490 50 450 300 texture 0;
#X obj 68 76 * 8;
#X obj 68 121 s message;
#X msg 68 104 send /particle_texture_ID \$1;
#X obj 68 45 inlet;
#X connect 0 0 2 0;
#X connect 2 0 1 0;
#X connect 3 0 0 0;
#X restore 19 245 pd texture;
#N canvas 532 50 450 300 flashPartFrequency 0;
#X obj 109 -318 inlet;
#X msg 109 -253 send /flashPart_freq \$1;
#X obj 109 -236 s message;
#X obj 109 -270 int;
#X obj 109 -287 * 9.99;
#X connect 0 0 4 0;
#X connect 1 0 2 0;
#X connect 3 0 1 0;
#X connect 4 0 3 0;
#X restore 330 99 pd flashPartFrequency;
#N canvas 532 50 450 300 flashTrack0_freq 0;
#X obj 86 -306 inlet;
#X obj 86 -224 s message;
#X obj 86 -258 int;
#X msg 86 -241 send /flashTrack0_freq \$1;
#X obj 86 -275 * 9.99;
#X connect 0 0 4 0;
#X connect 2 0 3 0;
#X connect 3 0 1 0;
#X connect 4 0 2 0;
#X restore 261 425 pd flashTrack0_freq;
#N canvas 532 50 450 300 flashCA_freq 0;
#X obj 86 -306 inlet;
#X obj 86 -224 s message;
#X obj 86 -258 int;
#X msg 86 -241 send /flashCA_freq \$1;
#X obj 86 -275 * 9.99;
#X connect 0 0 4 0;
#X connect 2 0 3 0;
#X connect 3 0 1 0;
#X connect 4 0 2 0;
#X restore 331 245 pd flashCA_freq;
#N canvas 532 50 450 300 flashBack_freq 0;
#X obj 86 -306 inlet;
#X obj 86 -224 s message;
#X obj 86 -258 int;
#X msg 86 -241 send /flashBack_freq \$1;
#X obj 86 -275 * 9.99;
#X connect 0 0 4 0;
#X connect 2 0 3 0;
#X connect 3 0 1 0;
#X connect 4 0 2 0;
#X restore 331 379 pd flashBack_freq;
#X obj 99 327 vsl 15 50 0 1 0 0 empty empty empty 0 -9 0 10 -262144
-1 -1 0 1;
#X obj 18 327 vsl 15 50 0 1 0 0 empty empty empty 0 -9 0 10 -262144
-1 -1 0 1;
#N canvas 684 50 450 300 input_volume 0;
#X obj 61 48 s input_volume;
#X obj 61 0 inlet;
#X obj 61 31 + 0.01;
#X connect 1 0 2 0;
#X connect 2 0 0 0;
#X restore 409 120 pd input_volume;
#N canvas 221 50 450 300 CAType 0;
#X obj 67 -341 int;
#X obj 67 -307 s message;
#X obj 67 -382 inlet;
#X msg 67 -324 send /CAType \$1;
#X obj 67 -358 * 8.99;
#X connect 0 0 3 0;
#X connect 2 0 4 0;
#X connect 3 0 1 0;
#X connect 4 0 0 0;
#X restore 496 243 pd CAType;
#N canvas 221 50 450 300 CASubType 0;
#X obj 67 -341 int;
#X obj 67 -307 s message;
#X obj 67 -382 inlet;
#X msg 67 -324 send /CASubType \$1;
#X obj 67 -358 * 20.99;
#X connect 0 0 3 0;
#X connect 2 0 4 0;
#X connect 3 0 1 0;
#X connect 4 0 0 0;
#X restore 496 378 pd CASubType;
#N canvas 630 194 450 300 RGBpalette 0;
#X obj 67 -295 s message;
#X obj 67 -382 inlet;
#X obj 67 -358 * 7;
#X msg 67 -312 send /RGBspectrum \$1;
#X connect 1 0 2 0;
#X connect 2 0 3 0;
#X connect 3 0 0 0;
#X restore 572 264 pd RGBpalette;
#N canvas 412 394 450 300 brushID 0;
#X obj 67 -307 s message;
#X obj 67 -382 inlet;
#X obj 67 -341 int;
#X obj 67 -358 * 7.99;
#X msg 67 -324 send /brushID \$1;
#X connect 1 0 3 0;
#X connect 2 0 4 0;
#X connect 3 0 2 0;
#X connect 4 0 0 0;
#X restore 572 400 pd brushID;
#N canvas 221 50 450 300 videoThreshold 0;
#X obj 41 99 s message;
#X obj 41 12 inlet;
#X obj 41 36 + 0.01;
#X msg 41 82 send /videoThreshold \$1;
#X floatatom 193 149 5 0 0 0 - - -, f 5;
#X connect 1 0 2 0;
#X connect 2 0 3 0;
#X connect 2 0 4 0;
#X connect 3 0 0 0;
#X restore 180 380 pd videoThreshold;
#N canvas 299 142 450 300 gray 0;
#X obj 91 20 s message;
#X msg 85 -56 send /local_color_r \$1;
#X msg 74 -33 send /local_color_g \$1;
#X msg 62 -10 send /local_color_b \$1;
#X obj 62 -178 inlet;
#X obj 62 -119 + 1;
#X obj 62 -149 * -1;
#X connect 1 0 0 0;
#X connect 2 0 0 0;
#X connect 3 0 0 0;
#X connect 4 0 6 0;
#X connect 5 0 3 0;
#X connect 5 0 2 0;
#X connect 5 0 1 0;
#X connect 6 0 5 0;
#X restore 97 548 pd gray;
#N canvas 221 50 450 300 brushRadius 0;
#X obj 36 108 s message;
#X obj 36 21 inlet;
#X msg 36 91 send /brushRadius \$1;
#X obj 36 67 + 1;
#X obj 36 45 * 10;
#X connect 1 0 4 0;
#X connect 2 0 0 0;
#X connect 3 0 2 0;
#X connect 4 0 3 0;
#X restore 179 532 pd brushRadius;
#N canvas 221 50 450 300 echoNeg 0;
#X obj 67 -295 s message;
#X obj 67 -382 inlet;
#X obj 67 -336 + 1;
#X msg 67 -312 send /echoNeg \$1;
#X obj 67 -358 * -1;
#X connect 1 0 4 0;
#X connect 2 0 3 0;
#X connect 3 0 0 0;
#X connect 4 0 2 0;
#X restore 255 547 pd echoNeg;
#N canvas 299 142 450 300 echo 0;
#X obj 77 -285 s message;
#X obj 77 -372 inlet;
#X obj 77 -326 + 1;
#X obj 77 -348 * -1;
#X msg 77 -302 send /echo \$1;
#X connect 1 0 3 0;
#X connect 2 0 4 0;
#X connect 3 0 2 0;
#X connect 4 0 0 0;
#X restore 329 528 pd echo;
#N canvas 20 740 240 164 CAdecay 0;
#X obj 46 113 s message;
#X obj 46 26 inlet;
#X msg 46 96 send /CAdecay \$1;
#X floatatom 145 80 5 0 0 0 - - -, f 5;
#X connect 1 0 3 0;
#X connect 1 0 2 0;
#X connect 2 0 0 0;
#X restore 494 526 pd CAdecay;
#N canvas 221 50 450 300 trackdecay 0;
#X obj 67 -295 s message;
#X obj 67 -382 inlet;
#X msg 67 -312 send /trackdecay \$1;
#X obj 67 -358 * 0.01;
#X connect 1 0 3 0;
#X connect 2 0 0 0;
#X connect 3 0 2 0;
#X restore 570 543 pd trackdecay;
#N canvas 221 50 450 300 blendTransp 0;
#X obj 79 -124 s message;
#X obj 79 -223 inlet;
#X obj 79 -167 + 1;
#X obj 79 -191 * -1;
#X msg 79 -141 send /blendTransp \$1;
#X connect 1 0 3 0;
#X connect 2 0 4 0;
#X connect 3 0 2 0;
#X connect 4 0 0 0;
#X restore 649 527 pd blendTransp;
#X obj 855 28 ctlin 20 1;
#X obj 1047 28 ctlin 21 1;
#X obj 856 168 ctlin 23 1;
#X obj 1048 168 ctlin 24 1;
#X obj 855 241 ctlin 26 1;
#X obj 1047 241 ctlin 27 1;
#X obj 858 319 ctlin 18 1;
#X obj 729 394 ctlin 14 1;
#X obj 843 394 ctlin 15 1;
#X obj 987 394 ctlin 16 1;
#X obj 1100 394 ctlin 17 1;
#X obj 1094 325 ctlin;
#X floatatom 1069 357 5 0 0 0 - - -, f 5;
#X floatatom 1108 358 5 0 0 0 - - -, f 5;
#X floatatom 1148 358 5 0 0 0 - - -, f 5;
#N canvas 91 731 450 300 sensor_activation 0;
#X obj 67 -295 s message;
#X obj 67 -382 inlet;
#X msg 67 -312 send /sensor_activation \$1;
#X obj 67 -335 int;
#X obj 67 -358 * 4.99;
#X connect 1 0 4 0;
#X connect 2 0 0 0;
#X connect 3 0 2 0;
#X connect 4 0 3 0;
#X restore 18 531 pd sensor_activation;
#N canvas 221 50 450 300 sensor_layout 0;
#X obj 67 -295 s message;
#X obj 67 -382 inlet;
#X obj 67 -335 int;
#X msg 67 -312 send /sensor_layout \$1;
#X obj 67 -358 * 3.99;
#X connect 1 0 4 0;
#X connect 2 0 3 0;
#X connect 3 0 0 0;
#X connect 4 0 2 0;
#X restore 18 380 pd sensor_layout;
#X msg 856 185 send /clearCA;
#X msg 1048 185 send /clearAllLayers;
#X msg 855 258 send /FBCaptureOnOff;
#X msg 858 337 send /initialBGSubtr_onOff;
#X msg 843 429 send /currentBGCapture;
#X msg 987 411 send /videoFBCapture;
#X msg 729 411 send /drawing_on_off;
#X obj 685 240 loadbang;
#X msg 685 257 0;
#X obj 756 257 / 127;
#X obj 686 150 loadbang;
#X msg 686 167 0;
#X obj 758 167 / 127;
#X obj 685 33 loadbang;
#X msg 685 50 0;
#X obj 753 51 / 127;
#X obj 752 35 ctlin 19 1;
#X obj 757 151 ctlin 22 1;
#X obj 755 241 ctlin 25 1;
#X obj 684 86 s message;
#X obj 686 201 s message;
#X obj 685 291 s message;
#X msg 685 68 send /flashPart_onOff \$1;
#N canvas 784 94 450 300 sample_setUp 0;
#X obj 52 -286 s message;
#X obj 52 -362 inlet;
#X msg 52 -303 send /sample_setUp \$1;
#X obj 52 -331 * 2;
#X connect 1 0 3 0;
#X connect 2 0 0 0;
#X connect 3 0 2 0;
#X restore 99 397 pd sample_setUp;
#N canvas 1152 50 450 300 trackweight 0;
#X obj 87 -275 s message;
#X obj 87 -362 inlet;
#X obj 87 -316 + 1;
#X obj 87 -338 * -1;
#X msg 86 -292 send /trackweight \$1;
#X connect 1 0 3 0;
#X connect 2 0 4 0;
#X connect 3 0 2 0;
#X connect 4 0 0 0;
#X restore 571 115 pd trackweight;
#N canvas 1152 50 450 300 CAweight 0;
#X obj 87 -275 s message;
#X obj 87 -362 inlet;
#X obj 87 -316 + 1;
#X obj 87 -338 * -1;
#X msg 86 -292 send /CAweight \$1;
#X connect 1 0 3 0;
#X connect 2 0 4 0;
#X connect 3 0 2 0;
#X connect 4 0 0 0;
#X restore 495 99 pd CAweight;
#N canvas 1152 50 450 300 FBCaptureWeight 0;
#X obj 88 -297 s message;
#X obj 87 -362 inlet;
#X msg 87 -314 send /FBCaptureWeight \$1;
#X connect 1 0 2 0;
#X connect 2 0 0 0;
#X restore 408 549 pd FBCaptureWeight;
#N canvas 532 50 450 300 CAstep 0;
#X obj 86 -306 inlet;
#X obj 86 -177 s message;
#X obj 86 -258 int;
#X msg 86 -194 send /CAstep \$1;
#X obj 86 -223 + 1;
#X obj 86 -276 * 10.99;
#X connect 0 0 5 0;
#X connect 2 0 4 0;
#X connect 3 0 1 0;
#X connect 4 0 3 0;
#X connect 5 0 2 0;
#X restore 410 400 pd CAstep;
#N canvas 1152 50 450 300 cellProliferation 0;
#X obj 88 -297 s message;
#X obj 87 -362 inlet;
#X msg 87 -314 send /cellProliferation \$1;
#X connect 1 0 2 0;
#X connect 2 0 0 0;
#X restore 255 120 pd cellProliferation;
#N canvas 1152 50 450 300 cancerProliferation 0;
#X obj 88 -297 s message;
#X obj 87 -362 inlet;
#X msg 87 -314 send /cancerProliferation \$1;
#X connect 1 0 2 0;
#X connect 2 0 0 0;
#X restore 256 267 pd cancerProliferation;
#N canvas 1152 50 450 300 cellCancerRatio 0;
#X obj 88 -297 s message;
#X obj 87 -362 inlet;
#X msg 87 -314 send /cellCancerRatio \$1;
#X connect 1 0 2 0;
#X connect 2 0 0 0;
#X restore 256 397 pd cellCancerRatio;
#N canvas 684 50 450 300 color_spectrum_coef 0;
#X obj 61 -83 inlet;
#X obj 61 -19 s message;
#X obj 61 -52 * 4;
#X msg 61 -35 send /color_spectrum_coef \$1;
#X connect 0 0 2 0;
#X connect 2 0 3 0;
#X connect 3 0 1 0;
#X restore 410 265 pd color_spectrum_coef;
#X obj 14 633 s message;
#X obj 142 650 s message;
#X obj 315 633 s message;
#X obj 14 727 s message;
#X obj 142 744 s message;
#X obj 547 631 s message;
#X obj 615 648 s message;
#X obj 421 650 s message;
#X obj 549 725 s message;
#X obj 784 631 s message;
#X obj 845 646 s message;
#X obj 315 727 s message;
#X obj 498 691 spigot;
#X obj 733 597 spigot;
#X obj 845 595 spigot;
#X obj 496 597 spigot;
#X obj 615 597 spigot;
#X obj 421 599 spigot;
#X obj 14 693 spigot;
#X obj 142 693 spigot;
#X obj 264 693 spigot;
#X obj 142 599 spigot;
#X obj 264 599 spigot;
#X obj 14 599 spigot;
#X obj 419 691 spigot;
#X obj 615 690 spigot;
#X obj 738 691 spigot;
#X obj 847 686 spigot;
#X obj 419 742 s message;
#X obj 615 741 s message;
#X obj 789 725 s message;
#X obj 847 737 s message;
#X obj 14 582 ctlin 9 1;
#X obj 142 582 ctlin 9 2;
#X obj 264 582 ctlin 9 3;
#X obj 421 582 ctlin 9 4;
#X obj 496 580 ctlin 9 5;
#X obj 615 580 ctlin 9 6;
#X obj 733 580 ctlin 9 7;
#X obj 845 578 ctlin 9 8;
#X obj 14 676 ctlin 8 1;
#X obj 142 676 ctlin 8 2;
#X obj 264 676 ctlin 8 3;
#X obj 419 674 ctlin 8 4;
#X obj 498 674 ctlin 8 5;
#X obj 615 673 ctlin 8 6;
#X obj 847 669 ctlin 8 8;
#X obj 738 674 ctlin 8 7;
#X msg 419 725 send;
#X msg 14 616 send /flashPart_onOff \$1;
#X msg 686 184 send;
#X msg 14 710 send /flashCA_onOff_0 \$1;
#X msg 855 45 send;
#X msg 142 633 send /CAdecay_sign;
#X msg 1047 45 send;
#X msg 264 616 send /trackdecay_sign;
#X msg 685 274 send /flashBack_onOff \$1;
#X msg 467 708 send /flashBack_onOff \$1;
#X msg 496 614 send /drawing_on_off;
#X msg 615 631 send /currentBGCapture;
#X msg 733 614 send /videoFBCapture;
#X msg 1100 430 send;
#X msg 845 629 send /initialBGCapture;
#X msg 142 727 send /clearCA;
#X msg 264 710 send /clearAllLayers;
#X msg 615 724 send /FBCaptureOnOff;
#X msg 1047 258 send;
#X msg 738 708 send /initCA;
#X msg 847 720 send /initialBGSubtr_onOff;
#X obj 75 582 loadbang;
#X msg 75 599 0;
#X obj 76 676 loadbang;
#X msg 76 693 0;
#X obj 556 674 loadbang;
#X msg 556 691 0;
#N canvas 221 50 450 300 sensor_vol 0;
#X obj 74 134 s message;
#X obj 74 47 inlet;
#X msg 74 117 send /sensor_vol \$1;
#X connect 1 0 2 0;
#X connect 2 0 0 0;
#X restore 99 268 pd sensor_vol;
#X msg 421 632 send /is_webCamOn;
#X connect 0 0 108 0;
#X connect 1 0 0 0;
#X connect 2 0 111 0;
#X connect 3 0 2 0;
#X connect 4 0 117 0;
#X connect 5 0 146 0;
#X connect 6 0 5 0;
#X connect 7 0 109 0;
#X connect 8 0 7 0;
#X connect 9 0 255 0;
#X connect 10 0 9 0;
#X connect 11 0 116 0;
#X connect 12 0 124 0;
#X connect 13 0 12 0;
#X connect 14 0 110 0;
#X connect 15 0 14 0;
#X connect 17 0 16 0;
#X connect 18 0 123 0;
#X connect 19 0 18 0;
#X connect 20 0 125 0;
#X connect 21 0 20 0;
#X connect 22 0 176 0;
#X connect 23 0 22 0;
#X connect 24 0 177 0;
#X connect 25 0 24 0;
#X connect 26 0 178 0;
#X connect 27 0 26 0;
#X connect 28 0 126 0;
#X connect 29 0 28 0;
#X connect 30 0 112 0;
#X connect 31 0 30 0;
#X connect 32 0 114 0;
#X connect 33 0 32 0;
#X connect 34 0 115 0;
#X connect 35 0 34 0;
#X connect 36 0 127 0;
#X connect 37 0 36 0;
#X connect 38 0 118 0;
#X connect 39 0 38 0;
#X connect 40 0 179 0;
#X connect 41 0 40 0;
#X connect 42 0 175 0;
#X connect 43 0 42 0;
#X connect 44 0 174 0;
#X connect 45 0 44 0;
#X connect 46 0 173 0;
#X connect 47 0 46 0;
#X connect 48 0 119 0;
#X connect 49 0 48 0;
#X connect 50 0 120 0;
#X connect 51 0 50 0;
#X connect 52 0 128 0;
#X connect 53 0 52 0;
#X connect 54 0 172 0;
#X connect 55 0 54 0;
#X connect 56 0 121 0;
#X connect 57 0 56 0;
#X connect 58 0 122 0;
#X connect 59 0 58 0;
#X connect 60 0 129 0;
#X connect 61 0 60 0;
#X connect 62 0 130 0;
#X connect 63 0 62 0;
#X connect 64 0 1 0;
#X connect 65 0 4 0;
#X connect 66 0 6 0;
#X connect 67 0 63 0;
#X connect 68 0 8 0;
#X connect 69 0 11 0;
#X connect 70 0 13 0;
#X connect 71 0 15 0;
#X connect 72 0 23 0;
#X connect 73 0 31 0;
#X connect 74 0 47 0;
#X connect 75 0 55 0;
#X connect 76 0 17 0;
#X connect 77 0 19 0;
#X connect 78 0 21 0;
#X connect 79 0 25 0;
#X connect 80 0 27 0;
#X connect 81 0 29 0;
#X connect 82 0 33 0;
#X connect 83 0 35 0;
#X connect 84 0 37 0;
#X connect 85 0 39 0;
#X connect 86 0 41 0;
#X connect 87 0 43 0;
#X connect 88 0 45 0;
#X connect 89 0 49 0;
#X connect 90 0 51 0;
#X connect 91 0 53 0;
#X connect 92 0 57 0;
#X connect 93 0 59 0;
#X connect 94 0 61 0;
#X connect 106 0 10 0;
#X connect 107 0 3 0;
#X connect 116 0 171 0;
#X connect 117 0 147 0;
#X connect 131 0 232 0;
#X connect 132 0 234 0;
#X connect 133 0 148 0;
#X connect 134 0 149 0;
#X connect 135 0 150 0;
#X connect 136 0 246 0;
#X connect 137 0 151 0;
#X connect 138 0 154 0;
#X connect 139 0 152 0;
#X connect 140 0 153 0;
#X connect 141 0 241 0;
#X connect 142 0 143 0;
#X connect 142 1 144 0;
#X connect 142 2 145 0;
#X connect 148 0 97 0;
#X connect 149 0 98 0;
#X connect 150 0 99 0;
#X connect 151 0 101 0;
#X connect 152 0 103 0;
#X connect 153 0 104 0;
#X connect 154 0 102 0;
#X connect 155 0 156 0;
#X connect 156 0 236 0;
#X connect 157 0 236 0;
#X connect 158 0 159 0;
#X connect 159 0 230 0;
#X connect 160 0 230 0;
#X connect 161 0 162 0;
#X connect 162 0 170 0;
#X connect 163 0 170 0;
#X connect 164 0 163 0;
#X connect 165 0 160 0;
#X connect 166 0 157 0;
#X connect 170 0 167 0;
#X connect 192 0 237 0;
#X connect 193 0 240 0;
#X connect 194 0 242 0;
#X connect 195 0 238 0;
#X connect 196 0 239 0;
#X connect 197 0 256 0;
#X connect 198 0 231 0;
#X connect 199 0 243 0;
#X connect 200 0 244 0;
#X connect 201 0 233 0;
#X connect 202 0 235 0;
#X connect 203 0 229 0;
#X connect 204 0 228 0;
#X connect 205 0 245 0;
#X connect 206 0 247 0;
#X connect 207 0 248 0;
#X connect 212 0 203 0;
#X connect 212 0 203 1;
#X connect 213 0 201 0;
#X connect 213 0 201 1;
#X connect 214 0 202 0;
#X connect 214 0 202 1;
#X connect 215 0 197 0;
#X connect 215 0 197 1;
#X connect 216 0 195 0;
#X connect 216 0 195 1;
#X connect 217 0 196 0;
#X connect 217 0 196 1;
#X connect 218 0 193 0;
#X connect 218 0 193 1;
#X connect 219 0 194 0;
#X connect 219 0 194 1;
#X connect 220 0 198 0;
#X connect 220 0 198 1;
#X connect 221 0 199 0;
#X connect 221 0 199 1;
#X connect 222 0 200 0;
#X connect 222 0 200 1;
#X connect 223 0 204 0;
#X connect 223 0 204 1;
#X connect 224 0 192 1;
#X connect 224 0 192 0;
#X connect 225 0 205 0;
#X connect 225 0 205 1;
#X connect 226 0 207 0;
#X connect 226 0 207 1;
#X connect 227 0 206 0;
#X connect 227 0 206 1;
#X connect 228 0 208 0;
#X connect 229 0 180 0;
#X connect 230 0 168 0;
#X connect 231 0 183 0;
#X connect 232 0 95 0;
#X connect 233 0 181 0;
#X connect 234 0 96 0;
#X connect 235 0 182 0;
#X connect 236 0 169 0;
#X connect 237 0 188 0;
#X connect 238 0 185 0;
#X connect 239 0 186 0;
#X connect 240 0 189 0;
#X connect 241 0 105 0;
#X connect 242 0 190 0;
#X connect 243 0 184 0;
#X connect 244 0 191 0;
#X connect 245 0 209 0;
#X connect 246 0 100 0;
#X connect 247 0 210 0;
#X connect 248 0 211 0;
#X connect 249 0 250 0;
#X connect 250 0 229 0;
#X connect 251 0 252 0;
#X connect 252 0 231 0;
#X connect 253 0 254 0;
#X connect 254 0 237 0;
#X connect 256 0 187 0;
#X restore 205 81 pd controls;
#X connect 2 0 1 0;
#X connect 3 0 1 1;
#X connect 4 0 1 2;
#X connect 5 0 1 3;
#X connect 7 0 0 0;
#X connect 8 0 0 1;
#X connect 9 0 7 0;
#X connect 13 0 15 0;
#X connect 13 0 30 0;
#X connect 14 0 13 0;
#X connect 15 0 3 0;
#X connect 15 0 4 0;
#X connect 15 0 5 0;
#X connect 17 0 18 0;
#X connect 25 0 28 0;
#X connect 25 0 29 0;
#X connect 28 0 24 0;
#X connect 29 0 23 0;
#X connect 30 0 2 0;
#X restore 97 17 pd initial_board;
#X connect 83 0 84 0;
#X connect 83 1 85 0;
#X connect 83 2 86 0;
