#N canvas 0 50 266 138 10;
#X obj -478 -3784 adc~;
#X floatatom -477 -3705 5 0 0 0 - - -, f 5;
#N canvas 355 55 441 499 normalized_env 0;
#X obj -375 -3717 env~;
#X obj -275 -3678 moses 0;
#X floatatom -229 -3651 5 0 0 0 - - -, f 5;
#X obj -205 -3677 f;
#X text -271 -3635 VAL;
#X text -223 -3621 MAX_VAL;
#X text -212 -3722 reset;
#X msg -205 -3702 0;
#X obj -375 -3485 -;
#X obj -229 -3601 s sound_max;
#X obj -357 -3507 r sound_min;
#X obj -375 -3439 /;
#X floatatom -450 -3405 5 0 0 0 - - -, f 5;
#X text -223 -3636 HIGHEST VALUE;
#X obj -375 -3773 inlet~;
#X floatatom -275 -3652 5 0 0 0 - - -, f 5;
#X text -94 -3792 reset;
#X floatatom -201 -3502 5 0 0 0 - - -, f 5;
#X obj -178 -3552 f;
#X obj -275 -3574 * -1;
#X obj -275 -3552 moses -1000;
#X obj -201 -3527 * -1;
#X msg -179 -3573 -1000;
#X text -196 -3485 LOWEST VALUE;
#X text -194 -3469 MIN_VAL;
#X obj -201 -3452 s sound_min;
#X obj -339 -3460 -;
#X obj -310 -3483 r sound_max;
#X obj -375 -3352 outlet;
#X obj -97 -3767 inlet;
#X text -371 -3797 signal;
#X connect 0 0 1 0;
#X connect 0 0 8 0;
#X connect 1 0 15 0;
#X connect 1 0 19 0;
#X connect 1 1 2 0;
#X connect 1 1 3 0;
#X connect 1 1 9 0;
#X connect 3 0 1 1;
#X connect 7 0 3 0;
#X connect 8 0 11 0;
#X connect 10 0 8 1;
#X connect 10 0 26 1;
#X connect 11 0 12 0;
#X connect 11 0 28 0;
#X connect 14 0 0 0;
#X connect 17 0 25 0;
#X connect 18 0 20 1;
#X connect 19 0 20 0;
#X connect 20 1 18 0;
#X connect 20 1 21 0;
#X connect 21 0 17 0;
#X connect 22 0 18 0;
#X connect 26 0 11 1;
#X connect 27 0 26 0;
#X connect 29 0 7 0;
#X connect 29 0 22 0;
#X restore -477 -3746 pd normalized_env;
#X obj -361 -3773 bng 15 250 50 0 empty empty empty 17 7 0 10 -262144
-1 -1;
#X connect 0 0 2 0;
#X connect 0 1 2 0;
#X connect 2 0 1 0;
#X connect 3 0 2 1;
