#N canvas 150 21 1047 613 10;
#X msg -905 394 disconnect;
#X obj -964 346 bng 50 250 50 0 empty empty empty 0 -6 0 8 -24198 -1
-1;
#X obj -898 345 bng 50 250 50 0 empty empty empty 0 -6 0 8 -258699
-1 -1;
#X text -970 325 OPEN UDP CONNECTION;
#X obj -987 396 send reset;
#X obj 318 225 ctlin;
#X floatatom 271 265 5 0 0 0 - - -;
#X floatatom 323 270 5 0 0 0 - - -;
#X floatatom 362 260 5 0 0 0 - - -;
#X obj -607 0 bng 15 250 50 0 empty empty empty 0 -6 0 8 -262144 -1
-1;
#X obj -574 43 vsl 15 128 0 1 0 0 0 empty empty 0 -8 0 8 -257985 -1
-1 2010 1;
#X obj -558 42 vsl 15 128 0 1 0 0 0 empty empty 0 -8 0 8 -257985 -1
-1 2454 1;
#X obj -542 43 vsl 15 128 0 1 0 0 0 empty empty 0 -8 0 8 -257985 -1
-1 1710 1;
#X obj -504 179 bng 15 250 50 0 empty empty empty 0 -6 0 8 -262144
-1 -1;
#X obj -586 -3 r reset;
#X msg -608 20 0.3;
#X msg -579 20 0.02;
#X msg -545 21 0.3;
#X obj -497 35 / 127;
#X obj -502 75 / 127;
#X obj -501 121 / 127;
#X obj -585 217 send oscOut;
#X obj -494 15 ctlin 10 3;
#X obj -502 59 ctlin 12 3;
#X obj -501 98 ctlin 13 3;
#X obj 580 -15 bng 15 250 50 0 empty empty empty 0 -6 0 8 -262144 -1
-1;
#X obj 622 34 vsl 15 128 0 1 0 0 0 empty empty 0 -8 0 8 -4160 -1 -1
3810 1;
#X obj 639 35 vsl 15 128 0 1 0 0 0 empty empty 0 -8 0 8 -4160 -1 -1
254 1;
#X obj 657 34 vsl 15 128 0 1 0 0 0 empty empty 0 -8 0 8 -4160 -1 -1
3810 1;
#X obj 660 176 bng 15 250 50 0 empty empty empty 0 -6 0 8 -262144 -1
-1;
#X obj 607 -15 r reset;
#X msg 588 12 0.3;
#X msg 615 12 0.02;
#X msg 642 10 0.3;
#X obj 696 14 / 127;
#X obj 695 57 / 127;
#X obj 694 102 / 127;
#X obj 662 220 send oscOut;
#X obj -367 -18 bng 15 250 50 0 empty empty empty 0 -6 0 8 -262144
-1 -1;
#X obj -338 23 vsl 15 128 0 1 0 0 0 empty empty 0 -8 0 8 -4034 -1 -1
1510 1;
#X obj -323 23 vsl 15 128 0 1 0 0 0 empty empty 0 -8 0 8 -4034 -1 -1
10854 1;
#X obj -309 23 vsl 15 128 0 1 0 0 0 empty empty 0 -8 0 8 -4034 -1 -1
11610 1;
#X obj -253 156 bng 15 250 50 0 empty empty empty 0 -6 0 8 -262144
-1 -1;
#X obj -347 -19 r reset;
#X msg -369 1 0.3;
#X msg -344 2 0.02;
#X msg -312 1 0.3;
#X obj -268 21 / 127;
#X obj -273 65 / 127;
#X obj -276 100 / 127;
#X obj -338 200 send oscOut;
#X obj -268 0 ctlin 10 4;
#X obj -275 44 ctlin 12 4;
#X obj -276 80 ctlin 13 4;
#X obj 695 35 ctlin 10 6;
#X obj 696 79 ctlin 12 6;
#X obj 692 119 ctlin 13 6;
#X obj -505 160 / 127;
#X obj -526 43 vsl 15 128 0 1 0 0 0 empty empty 0 -8 0 8 -257985 -1
-1 1600 1;
#X obj -586 179 pack f f f f;
#X obj -504 139 ctlin 7 3;
#X obj -294 23 vsl 15 128 0 1 0 0 0 empty empty 0 -8 0 8 -4034 -1 -1
10910 1;
#X obj -272 137 / 127;
#X obj -338 157 pack f f f f;
#X obj -275 117 ctlin 7 4;
#X obj 674 41 vsl 15 128 0 1 0 0 0 empty empty 0 -8 0 8 -4160 -1 -1
0 1;
#X obj -1032 352 loadbang;
#X obj -477 530 bng 15 250 50 0 empty empty empty 17 7 0 10 -232576
-1 -1;
#X obj -478 583 send oscOut;
#X obj -613 527 bng 15 250 50 0 empty empty empty 17 7 0 10 -232576
-1 -1;
#X obj -616 583 send oscOut;
#X obj -616 500 ctlin 22 1;
#X obj -478 500 ctlin 15 1;
#X msg -518 21 0;
#X msg 665 10 0;
#X obj 680 177 pack f;
#X msg 664 198 send /PDbt_vol \$1;
#X obj 543 192 send oscOut;
#X msg 533 172 send /PDdraw_vol \$1;
#X msg -288 2 0.3;
#X floatatom 619 226 5 0 0 0 - - -;
#X obj 671 -9 - 3;
#X obj 701 139 / 124;
#X msg -478 553 send /testUDP_fromPD;
#X obj -616 252 key;
#X floatatom -586 252 5 0 0 0 - - -;
#X obj -618 273 select 97;
#X msg -622 61 0.7;
#X msg -613 116 0.7;
#X msg -613 151 0.4;
#X obj -519 251 key;
#X floatatom -489 251 5 0 0 0 - - -;
#X obj -521 272 select 111;
#X msg -619 212 0;
#X text 609 226 comment;
#X obj -149 -24 bng 15 250 50 0 empty empty empty 0 -6 0 8 -262144
-1 -1;
#X obj -120 17 vsl 15 128 0 1 0 0 0 empty empty 0 -8 0 8 -4034 -1 -1
2810 1;
#X obj -105 17 vsl 15 128 0 1 0 0 0 empty empty 0 -8 0 8 -4034 -1 -1
3054 1;
#X obj -91 17 vsl 15 128 0 1 0 0 0 empty empty 0 -8 0 8 -4034 -1 -1
2810 1;
#X obj -35 150 bng 15 250 50 0 empty empty empty 0 -6 0 8 -262144 -1
-1;
#X obj -129 -25 r reset;
#X msg -151 -5 0.3;
#X msg -126 -4 0.02;
#X msg -94 -5 0.3;
#X obj -38 11 / 127;
#X obj -50 58 / 127;
#X obj -58 94 / 127;
#X obj -120 194 send oscOut;
#X obj -76 17 vsl 15 128 0 1 0 0 0 empty empty 0 -8 0 8 -4034 -1 -1
3010 1;
#X obj -54 131 / 127;
#X obj -120 151 pack f f f f;
#X msg -70 -4 0.3;
#X obj -14 -28 ctlin 10 5;
#X obj -57 38 ctlin 12 5;
#X obj -58 74 ctlin 13 5;
#X obj -57 111 ctlin 7 5;
#X obj 99 -28 bng 15 250 50 0 empty empty empty 0 -6 0 8 -262144 -1
-1;
#X obj 128 13 vsl 15 128 0 1 0 0 0 empty empty 0 -8 0 8 -4034 -1 -1
3810 1;
#X obj 143 13 vsl 15 128 0 1 0 0 0 empty empty 0 -8 0 8 -4034 -1 -1
254 1;
#X obj 157 13 vsl 15 128 0 1 0 0 0 empty empty 0 -8 0 8 -4034 -1 -1
3810 1;
#X obj 213 146 bng 15 250 50 0 empty empty empty 0 -6 0 8 -262144 -1
-1;
#X obj 119 -29 r reset;
#X msg 97 -9 0.3;
#X msg 122 -8 0.02;
#X msg 154 -9 0.3;
#X obj 210 7 / 127;
#X obj 198 54 / 127;
#X obj 190 90 / 127;
#X obj 128 190 send oscOut;
#X obj 172 13 vsl 15 128 0 1 0 0 0 empty empty 0 -8 0 8 -4034 -1 -1
3810 1;
#X obj 194 127 / 127;
#X obj 128 147 pack f f f f;
#X msg 178 -8 0.3;
#X obj 322 -33 bng 15 250 50 0 empty empty empty 0 -6 0 8 -262144 -1
-1;
#X obj 351 8 vsl 15 128 0 1 0 0 0 empty empty 0 -8 0 8 -4034 -1 -1
3810 1;
#X obj 366 8 vsl 15 128 0 1 0 0 0 empty empty 0 -8 0 8 -4034 -1 -1
254 1;
#X obj 380 8 vsl 15 128 0 1 0 0 0 empty empty 0 -8 0 8 -4034 -1 -1
3810 1;
#X obj 290 199 bng 15 250 50 0 empty empty empty 0 -6 0 8 -262144 -1
-1;
#X obj 342 -34 r reset;
#X msg 320 -14 0.3;
#X msg 345 -13 0.02;
#X msg 377 -14 0.3;
#X obj 433 2 / 127;
#X obj 421 49 / 127;
#X obj 413 85 / 127;
#X obj 421 222 send oscOut;
#X obj 395 8 vsl 15 128 0 1 0 0 0 empty empty 0 -8 0 8 -4034 -1 -1
3810 1;
#X obj 417 122 / 127;
#X obj 369 163 pack f f f f;
#X msg 401 -13 0.3;
#X obj 191 107 ctlin 7 6;
#X obj 190 70 ctlin 13 6;
#X obj 191 34 ctlin 12 6;
#X obj 234 -32 ctlin 10 6;
#X obj 457 -37 ctlin 10 7;
#X obj 414 29 ctlin 12 7;
#X obj 413 65 ctlin 13 7;
#X obj 414 102 ctlin 7 7;
#X obj 695 159 ctlin 28 1;
#X floatatom -315 245 5 0 0 0 - - -;
#X msg -616 552 send /PDbt1_on;
#N canvas 519 262 450 409 clock 0;
#X obj 177 210 / 60;
#X obj 177 238 int;
#X obj 264 286 -;
#X obj 279 254 * 60;
#X obj 177 111 timer;
#X obj 177 135 / 1000;
#X obj 204 84 metro 1000;
#X obj 177 69 bng 15 250 50 0 empty empty empty 17 7 0 10 -262144 -1
-1;
#X obj 177 167 int;
#X obj 177 44 inlet;
#X text 175 21 launch msg reception;
#X text 202 67 start of the elapsed time count;
#X text 184 348 DISPLAY IN LIVE SCORE;
#X text 184 336 MN/SEC ELAPSED TIME;
#X floatatom 280 204 5 0 0 0 - - -;
#X obj 33 263 makefilename %d;
#X msg 33 280 \; mn_can label \$1;
#X obj 314 285 makefilename %d;
#X msg 314 303 \; sec_can label \$1;
#X obj 81 102 r startclock;
#X connect 0 0 1 0;
#X connect 1 0 3 0;
#X connect 1 0 15 0;
#X connect 2 0 17 0;
#X connect 3 0 2 1;
#X connect 4 0 5 0;
#X connect 5 0 8 0;
#X connect 6 0 4 1;
#X connect 7 0 4 0;
#X connect 7 0 6 0;
#X connect 8 0 0 0;
#X connect 8 0 2 0;
#X connect 8 0 14 0;
#X connect 9 0 7 0;
#X connect 15 0 16 0;
#X connect 17 0 18 0;
#X connect 19 0 7 0;
#X restore 44 500 pd clock;
#X obj 12 338 cnv 15 120 120 empty mn_can 3 0 50 1 96 -241291 -33289
0;
#X obj 139 339 cnv 15 120 120 empty sec_can 40 0 50 1 96 -4034 -33289
0;
#X obj -699 547 s startclock;
#N canvas 345 154 628 451 connect 0;
#X obj 122 9 inlet;
#X obj 69 197 print;
#X obj 152 71 receive reset;
#X msg 152 96 connect 127.0.0.1 57120;
#X text 108 50 messages for the SC OSC server;
#X floatatom 151 232 5 0 0 0 - - -;
#X obj 39 143 receive oscOut;
#X obj 151 208 sendOSC;
#X obj -194 201 print;
#X obj -111 75 receive reset;
#X text -155 54 messages for the SC OSC server;
#X floatatom -112 236 5 0 0 0 - - -;
#X obj -224 147 receive porphyrographOut;
#X obj -151 82 bng 15 250 50 0 empty empty empty 17 7 0 10 -262144
-1 -1;
#X msg -111 99 connect 127.0.0.1 1978;
#X obj -112 212 netsend 1;
#X connect 0 0 7 0;
#X connect 0 0 15 0;
#X connect 2 0 3 0;
#X connect 3 0 7 0;
#X connect 6 0 1 0;
#X connect 6 0 7 0;
#X connect 7 0 5 0;
#X connect 9 0 14 0;
#X connect 12 0 8 0;
#X connect 12 0 15 0;
#X connect 13 0 14 0;
#X connect 14 0 15 0;
#X connect 15 0 11 0;
#X restore -905 424 pd connect;
#X msg -584 197 send /RhythmA \$1 \$2 \$3 \$4;
#X msg -124 170 send /RhythmC \$1 \$2 \$3 \$4;
#X msg 114 168 send /RhythmD \$1 \$2 \$3 \$4;
#X msg 354 196 send /RhythmE \$1 \$2 \$3 \$4;
#X msg -342 175 send /RhythmB \$1 \$2 \$3 \$4;
#X text -587 -22;
#X text -347 -41;
#X text -129 -47;
#X text 119 -51;
#X text 342 -56;
#X text 621 -38;
#X text -615 236;
#X text -517 235;
#X text -608 471;
#X connect 0 0 165 0;
#X connect 1 0 4 0;
#X connect 2 0 0 0;
#X connect 5 0 6 0;
#X connect 5 1 7 0;
#X connect 5 2 8 0;
#X connect 9 0 15 0;
#X connect 9 0 16 0;
#X connect 9 0 17 0;
#X connect 9 0 73 0;
#X connect 10 0 59 0;
#X connect 11 0 13 0;
#X connect 11 0 59 1;
#X connect 12 0 13 0;
#X connect 12 0 59 2;
#X connect 13 0 59 0;
#X connect 14 0 9 0;
#X connect 15 0 10 0;
#X connect 16 0 11 0;
#X connect 17 0 12 0;
#X connect 18 0 10 0;
#X connect 19 0 11 0;
#X connect 20 0 12 0;
#X connect 22 0 18 0;
#X connect 23 0 19 0;
#X connect 24 0 20 0;
#X connect 25 0 31 0;
#X connect 25 0 32 0;
#X connect 25 0 33 0;
#X connect 25 0 74 0;
#X connect 26 0 29 0;
#X connect 26 0 78 0;
#X connect 27 0 29 0;
#X connect 28 0 29 0;
#X connect 30 0 25 0;
#X connect 31 0 26 0;
#X connect 32 0 27 0;
#X connect 33 0 28 0;
#X connect 34 0 26 0;
#X connect 35 0 27 0;
#X connect 36 0 28 0;
#X connect 38 0 44 0;
#X connect 38 0 45 0;
#X connect 38 0 46 0;
#X connect 38 0 79 0;
#X connect 39 0 63 0;
#X connect 40 0 42 0;
#X connect 40 0 63 1;
#X connect 41 0 42 0;
#X connect 41 0 63 2;
#X connect 41 0 159 0;
#X connect 42 0 63 0;
#X connect 43 0 38 0;
#X connect 44 0 39 0;
#X connect 45 0 40 0;
#X connect 46 0 41 0;
#X connect 47 0 39 0;
#X connect 48 0 40 0;
#X connect 49 0 41 0;
#X connect 51 0 47 0;
#X connect 52 0 48 0;
#X connect 53 0 49 0;
#X connect 54 0 34 0;
#X connect 55 0 35 0;
#X connect 56 0 36 0;
#X connect 57 0 58 0;
#X connect 58 0 59 3;
#X connect 58 0 13 0;
#X connect 59 0 166 0;
#X connect 60 0 57 0;
#X connect 61 0 63 3;
#X connect 61 0 42 0;
#X connect 62 0 61 0;
#X connect 63 0 170 0;
#X connect 64 0 62 0;
#X connect 65 0 29 0;
#X connect 65 0 75 0;
#X connect 65 0 80 0;
#X connect 66 0 4 0;
#X connect 67 0 83 0;
#X connect 69 0 160 0;
#X connect 69 0 164 0;
#X connect 71 0 69 0;
#X connect 72 0 67 0;
#X connect 73 0 58 0;
#X connect 74 0 65 0;
#X connect 75 0 76 0;
#X connect 76 0 37 0;
#X connect 78 0 77 0;
#X connect 79 0 61 0;
#X connect 81 0 82 0;
#X connect 82 0 65 0;
#X connect 83 0 68 0;
#X connect 84 0 85 0;
#X connect 84 0 86 0;
#X connect 86 0 87 0;
#X connect 86 0 88 0;
#X connect 86 0 89 0;
#X connect 87 0 11 0;
#X connect 88 0 58 0;
#X connect 89 0 10 0;
#X connect 90 0 91 0;
#X connect 90 0 92 0;
#X connect 92 0 93 0;
#X connect 93 0 10 0;
#X connect 95 0 101 0;
#X connect 95 0 102 0;
#X connect 95 0 103 0;
#X connect 95 0 111 0;
#X connect 96 0 110 0;
#X connect 97 0 99 0;
#X connect 97 0 110 1;
#X connect 98 0 99 0;
#X connect 98 0 110 2;
#X connect 99 0 110 0;
#X connect 100 0 95 0;
#X connect 101 0 96 0;
#X connect 102 0 97 0;
#X connect 103 0 98 0;
#X connect 104 0 96 0;
#X connect 105 0 97 0;
#X connect 106 0 98 0;
#X connect 108 0 110 3;
#X connect 108 0 99 0;
#X connect 109 0 108 0;
#X connect 110 0 167 0;
#X connect 111 0 108 0;
#X connect 112 0 104 0;
#X connect 113 0 105 0;
#X connect 114 0 106 0;
#X connect 115 0 109 0;
#X connect 116 0 122 0;
#X connect 116 0 123 0;
#X connect 116 0 124 0;
#X connect 116 0 132 0;
#X connect 117 0 131 0;
#X connect 118 0 120 0;
#X connect 118 0 131 1;
#X connect 119 0 120 0;
#X connect 119 0 131 2;
#X connect 120 0 131 0;
#X connect 121 0 116 0;
#X connect 122 0 117 0;
#X connect 123 0 118 0;
#X connect 124 0 119 0;
#X connect 125 0 117 0;
#X connect 126 0 118 0;
#X connect 127 0 119 0;
#X connect 129 0 131 3;
#X connect 129 0 120 0;
#X connect 130 0 129 0;
#X connect 131 0 168 0;
#X connect 132 0 129 0;
#X connect 133 0 139 0;
#X connect 133 0 140 0;
#X connect 133 0 141 0;
#X connect 133 0 149 0;
#X connect 134 0 148 0;
#X connect 135 0 137 0;
#X connect 135 0 148 1;
#X connect 136 0 137 0;
#X connect 136 0 148 2;
#X connect 137 0 148 0;
#X connect 138 0 133 0;
#X connect 139 0 134 0;
#X connect 140 0 135 0;
#X connect 141 0 136 0;
#X connect 142 0 134 0;
#X connect 143 0 135 0;
#X connect 144 0 136 0;
#X connect 146 0 148 3;
#X connect 146 0 137 0;
#X connect 147 0 146 0;
#X connect 148 0 169 0;
#X connect 149 0 146 0;
#X connect 150 0 130 0;
#X connect 151 0 127 0;
#X connect 152 0 126 0;
#X connect 153 0 125 0;
#X connect 154 0 142 0;
#X connect 155 0 143 0;
#X connect 156 0 144 0;
#X connect 157 0 147 0;
#X connect 158 0 81 0;
#X connect 160 0 70 0;
#X connect 166 0 21 0;
#X connect 167 0 107 0;
#X connect 168 0 128 0;
#X connect 169 0 145 0;
#X connect 170 0 50 0;
