#N canvas 1 0 332 665 10;
#X obj -936 -22491 cnv 15 310 660 empty empty empty 20 12 0 14 -1 -66577
0;
#X obj -928 -22483 cnv 15 50 25 empty time_can 99:26 0 12 1 14 -24198
-33289 0;
#X obj -925 -22372 cnv 15 60 25 empty empty BRUSH: 0 12 1 14 -1 -4034
0;
#X obj -671 -22403 vsl 30 60 0 10 0 0 empty soundvolume empty 0 -12
1 20 -162280 -1 -262144 1796 1;
#X obj -926 -22302 cnv 15 60 25 empty empty TEXT: 0 12 1 14 -1 -4034
0;
#X obj -861 -22301 cnv 15 130 25 empty texture_can High_noise 0 12
1 14 -1 -262144 0;
#X obj -924 -22274 cnv 15 60 25 empty empty CA: 0 12 1 14 -1 -4034
0;
#X obj -863 -22274 cnv 15 60 25 empty CAType_can Protocells 0 12 1
14 -1 -262144 0;
#X obj -926 -22321 cnv 15 60 25 empty empty PART: 0 12 1 14 -1 -4034
0;
#X obj -862 -22320 cnv 15 130 25 empty particles_can P 0 12 1 14 -1
-262144 0;
#X obj -925 -22391 cnv 15 60 25 empty empty STROKE: 0 12 1 14 -1 -4034
0;
#X obj -860 -22391 cnv 15 130 25 empty drawing_can Line 0 12 1 14 -1
-262144 0;
#X obj -925 -22353 cnv 15 60 25 empty empty RADIUS: 0 12 1 14 -1 -4034
0;
#X obj -875 -22220 cnv 15 20 50 empty palette1_can empty 0 12 1 14
-205632 -262144 0;
#X obj -854 -22220 cnv 15 20 50 empty palette2_can empty 0 12 1 14
-98613 -262144 0;
#X obj -926 -22421 cnv 15 60 25 empty empty SCENE: 0 12 1 14 -1 -4034
0;
#X obj -859 -22422 cnv 15 130 25 empty setup_can CA_backflash_weight0
0 12 1 14 -1 -262144 0;
#X obj -927 -22447 cnv 15 140 25 empty message_can copy_track_1_2 0
12 1 14 -1 -262144 0;
#X obj -738 -22483 cnv 15 100 60 empty empty empty 20 12 0 14 -233017
-66577 0;
#X obj -715 -22476 ctlin;
#X floatatom -735 -22449 5 0 0 0 - - -;
#X floatatom -704 -22449 5 0 0 0 - - -;
#X floatatom -672 -22449 5 0 0 0 - - -;
#X obj -862 -22482 cnv 15 105 20 empty empty empty 20 12 0 14 -233017
-66577 0;
#N canvas 376 50 406 319 initial_board 0;
#N canvas 146 367 447 279 connect 0;
#X msg 26 -14 disconnect;
#X text -110 -70 OPEN UDP CONNECTION;
#X text 19 -69 CLOSE UDP CONNECTION;
#X msg -50 42 connect 127.0.0.1 1978;
#X obj 3 68 r message;
#X obj -50 -54 inlet;
#X obj 26 -52 inlet;
#X obj 150 68 r message_SC;
#X floatatom 115 145 5 0 0 0 - - -;
#X floatatom -50 153 5 0 0 0 - - -;
#X text 197 15 SUPERCOLLIDER / sclang;
#X obj 65 -37 r disconnect;
#X obj -41 14 r connect;
#X msg 115 42 connect 192.168.0.3 57120;
#X obj 130 16 r connect;
#X obj 150 96 spigot;
#X obj 3 97 spigot;
#X text 20 13 Porphyrograph;
#X obj -50 131 netsend 1;
#X obj 115 122 netsend 1;
#X connect 0 0 18 0;
#X connect 0 0 19 0;
#X connect 3 0 18 0;
#X connect 4 0 16 0;
#X connect 5 0 3 0;
#X connect 6 0 0 0;
#X connect 7 0 15 0;
#X connect 11 0 0 0;
#X connect 12 0 3 0;
#X connect 13 0 19 0;
#X connect 15 0 19 0;
#X connect 16 0 18 0;
#X connect 18 0 9 0;
#X connect 18 0 16 1;
#X connect 19 0 8 0;
#X connect 19 0 15 1;
#X coords 0 0 10 10 0 0 0;
#X restore -731 -214 pd connect;
#N canvas 67 55 1430 629 LYM_spectrum_v4 0;
#X obj 202 -254 bonk~;
#X obj 202 -224 unpack f f f f f f f f f f f;
#X floatatom 502 -25 5 0 0 0 - - -;
#X floatatom 537 -25 5 0 0 0 - - -;
#X floatatom 603 -25 5 0 0 0 - - -;
#X floatatom 639 -25 5 0 0 0 - - -;
#X floatatom 675 -25 5 0 0 0 - - -;
#X obj 559 -335 inlet;
#X obj 915 157 s message;
#X obj 397 115 s message;
#X obj 915 76 spigot;
#X obj 397 75 spigot;
#X obj 430 -335 inlet;
#X obj 338 -173 +;
#X obj 372 -172 +;
#X obj 372 -150 +;
#X obj 405 -151 +;
#X obj 405 -130 +;
#X obj 405 -108 +;
#X text 966 -236 ATTACK OUTPUT;
#X text 338 -192 Sum over 3 spectrum bands;
#X obj 338 -42 /;
#X obj 371 -42 /;
#X obj 405 -42 /;
#X obj 202 -175 +;
#X obj 202 -154 +;
#X obj 202 -133 +;
#X obj 202 -91 +;
#X obj 247 -174 +;
#X obj 247 -153 +;
#X obj 247 -111 +;
#X obj 247 -131 +;
#X obj 304 -74 +;
#X obj 202 58 pack f f;
#X obj 247 -91 +;
#X obj 202 -42 /;
#X obj 247 -42 /;
#X obj 247 -19 * 768;
#X msg 397 98 send /xy_spectrum \$1 \$2;
#X obj 881 -237 unpack f f f;
#X floatatom 974 -220 5 0 0 0 - - -;
#X obj 775 -335 inlet;
#X obj 743 119 s message;
#X obj 742 77 spigot;
#X obj 948 -335 inlet;
#X msg 742 98 send /brush_radius_vol \$1;
#X obj 247 -1 - 384;
#X obj 283 -334 loadbang;
#X msg 309 -294 minvel 0.1;
#X obj 191 -334 r startclock;
#X msg 224 -295 thresh 6 50;
#X obj 162 -294 metro 20;
#X obj 11 -333 adc~ 1 2;
#X obj 755 -115 s soundvolume;
#X obj 338 -152 +;
#X obj 202 -112 +;
#X obj 202 -20 * 768;
#X obj 202 -2 - 384;
#X msg 915 140 send /particle_acc_attack \$1;
#X text 753 -133 LOUDNESS OUTPUT;
#X text 552 -42 SPECTRUM OUTPUT;
#X obj 323 -19 s band1;
#X obj 376 -19 s band2;
#X obj 431 -20 s band3;
#X text 957 -125 Receives amplification coef;
#X text 958 -111 either from slider in PD (USB control);
#X text 958 -98 or from VirChor (keystroke control);
#X text 958 -86 sends value to VC just for visual;
#X text 955 -72 feedback;
#X obj 915 -54 * 0.1024;
#X obj 915 -32 - 0.0512;
#X text 179 -191 Sum over 2 spectrum bands;
#X floatatom 703 -129 5 0 0 0 - - -;
#X obj 56 -288 *~ 1;
#X obj 77 -334 r input_volume;
#N canvas 209 50 1051 933 paletteInterpoaltion 0;
#X obj 378 834 / 765;
#X obj 533 823 / 765;
#X obj 696 830 / 765;
#X obj 482 859 pack f f f;
#X obj 17 124 bang;
#X msg 13 687 \; palette1_can color \$1;
#X msg 416 689 \; palette2_can color \$1;
#X msg 814 689 \; palette3_can color \$1;
#X obj 290 763 +;
#N canvas 4 105 288 291 colorRGB 0;
#X obj 16 27 inlet;
#X obj 93 28 inlet;
#X text 21 9 red;
#X text 93 11 green;
#X obj 159 107 t b f;
#X obj 93 144 +;
#X obj 93 169 t b f;
#X obj 93 200 +;
#X obj 16 84 * -65536;
#X obj 93 85 * -256;
#X obj 159 85 * -1;
#X obj 93 231 - 1;
#X obj 159 28 inlet;
#X obj 93 258 outlet;
#X text 161 11 blue;
#X obj 16 56 int;
#X obj 93 56 int;
#X obj 159 55 int;
#X connect 0 0 15 0;
#X connect 1 0 16 0;
#X connect 4 0 5 0;
#X connect 4 1 5 1;
#X connect 5 0 6 0;
#X connect 6 0 7 0;
#X connect 6 1 7 1;
#X connect 7 0 11 0;
#X connect 8 0 7 0;
#X connect 9 0 5 0;
#X connect 10 0 4 0;
#X connect 11 0 13 0;
#X connect 12 0 17 0;
#X connect 15 0 8 0;
#X connect 16 0 9 0;
#X connect 17 0 10 0;
#X restore 815 668 pd colorRGB;
#N canvas 177 329 288 291 colorRGB 0;
#X obj 16 27 inlet;
#X obj 93 28 inlet;
#X text 21 9 red;
#X text 93 11 green;
#X obj 159 107 t b f;
#X obj 93 144 +;
#X obj 93 169 t b f;
#X obj 93 200 +;
#X obj 16 84 * -65536;
#X obj 93 85 * -256;
#X obj 159 85 * -1;
#X obj 93 231 - 1;
#X obj 159 28 inlet;
#X obj 93 258 outlet;
#X text 161 11 blue;
#X obj 16 56 int;
#X obj 93 56 int;
#X obj 159 55 int;
#X connect 0 0 15 0;
#X connect 1 0 16 0;
#X connect 4 0 5 0;
#X connect 4 1 5 1;
#X connect 5 0 6 0;
#X connect 6 0 7 0;
#X connect 6 1 7 1;
#X connect 7 0 11 0;
#X connect 8 0 7 0;
#X connect 9 0 5 0;
#X connect 10 0 4 0;
#X connect 11 0 13 0;
#X connect 12 0 17 0;
#X connect 15 0 8 0;
#X connect 16 0 9 0;
#X connect 17 0 10 0;
#X restore 13 667 pd colorRGB;
#N canvas 4 105 288 291 colorRGB 0;
#X obj 16 27 inlet;
#X obj 93 28 inlet;
#X text 21 9 red;
#X text 93 11 green;
#X obj 159 107 t b f;
#X obj 93 144 +;
#X obj 93 169 t b f;
#X obj 93 200 +;
#X obj 16 84 * -65536;
#X obj 93 85 * -256;
#X obj 159 85 * -1;
#X obj 93 231 - 1;
#X obj 159 28 inlet;
#X obj 93 258 outlet;
#X text 161 11 blue;
#X obj 16 56 int;
#X obj 93 56 int;
#X obj 159 55 int;
#X connect 0 0 15 0;
#X connect 1 0 16 0;
#X connect 4 0 5 0;
#X connect 4 1 5 1;
#X connect 5 0 6 0;
#X connect 6 0 7 0;
#X connect 6 1 7 1;
#X connect 7 0 11 0;
#X connect 8 0 7 0;
#X connect 9 0 5 0;
#X connect 10 0 4 0;
#X connect 11 0 13 0;
#X connect 12 0 17 0;
#X connect 15 0 8 0;
#X connect 16 0 9 0;
#X connect 17 0 10 0;
#X restore 417 665 pd colorRGB;
#X obj 17 157 bang;
#X obj 19 190 bang;
#X obj 18 222 bang;
#X obj 16 253 bang;
#X obj 20 280 bang;
#X obj 17 307 bang;
#X obj 41 460 expr if ($f1 < 1 \, (1 - $f1) * $f2 + $f1 * $f3 \, if($f1
< 2 \, (2- $f1) * $f3 + ($f1 - 1) * $f4 \, if($f1 < 3 \, (3 - $f1)
* $f4 + ($f1 - 2) * $f5 \, if($f1 < 4 \, (4 - $f1) * $f5 + ($f1 - 3)
* $f6 \, if($f1 < 5 \, (5 - $f1) * $f6 + ($f1 - 4) * $f7 \, if($f1
< 6 \, (6 - $f1) * $f7 + ($f1 - 5) * $f8 \, (7 - $f1) * $f8 + ($f1
- 6) * $f2))))));
#X obj 13 354 expr if ($f1 < 1 \, (1 - $f1) * $f2 + $f1 * $f3 \, if($f1
< 2 \, (2- $f1) * $f3 + ($f1 - 1) * $f4 \, if($f1 < 3 \, (3 - $f1)
* $f4 + ($f1 - 2) * $f5 \, if($f1 < 4 \, (4 - $f1) * $f5 + ($f1 - 3)
* $f6 \, if($f1 < 5 \, (5 - $f1) * $f6 + ($f1 - 4) * $f7 \, if($f1
< 6 \, (6 - $f1) * $f7 + ($f1 - 5) * $f8 \, (7 - $f1) * $f8 + ($f1
- 6) * $f2))))));
#X obj 54 570 expr if ($f1 < 1 \, (1 - $f1) * $f2 + $f1 * $f3 \, if($f1
< 2 \, (2- $f1) * $f3 + ($f1 - 1) * $f4 \, if($f1 < 3 \, (3 - $f1)
* $f4 + ($f1 - 2) * $f5 \, if($f1 < 4 \, (4 - $f1) * $f5 + ($f1 - 3)
* $f6 \, if($f1 < 5 \, (5 - $f1) * $f6 + ($f1 - 4) * $f7 \, if($f1
< 6 \, (6 - $f1) * $f7 + ($f1 - 5) * $f8 \, (7 - $f1) * $f8 + ($f1
- 6) * $f2))))));
#X obj 417 353 expr if ($f1 < 1 \, (1 - $f1) * $f2 + $f1 * $f3 \, if($f1
< 2 \, (2- $f1) * $f3 + ($f1 - 1) * $f4 \, if($f1 < 3 \, (3 - $f1)
* $f4 + ($f1 - 2) * $f5 \, if($f1 < 4 \, (4 - $f1) * $f5 + ($f1 - 3)
* $f6 \, if($f1 < 5 \, (5 - $f1) * $f6 + ($f1 - 4) * $f7 \, if($f1
< 6 \, (6 - $f1) * $f7 + ($f1 - 5) * $f8 \, (7 - $f1) * $f8 + ($f1
- 6) * $f2))))));
#X obj 448 457 expr if ($f1 < 1 \, (1 - $f1) * $f2 + $f1 * $f3 \, if($f1
< 2 \, (2- $f1) * $f3 + ($f1 - 1) * $f4 \, if($f1 < 3 \, (3 - $f1)
* $f4 + ($f1 - 2) * $f5 \, if($f1 < 4 \, (4 - $f1) * $f5 + ($f1 - 3)
* $f6 \, if($f1 < 5 \, (5 - $f1) * $f6 + ($f1 - 4) * $f7 \, if($f1
< 6 \, (6 - $f1) * $f7 + ($f1 - 5) * $f8 \, (7 - $f1) * $f8 + ($f1
- 6) * $f2))))));
#X obj 457 567 expr if ($f1 < 1 \, (1 - $f1) * $f2 + $f1 * $f3 \, if($f1
< 2 \, (2- $f1) * $f3 + ($f1 - 1) * $f4 \, if($f1 < 3 \, (3 - $f1)
* $f4 + ($f1 - 2) * $f5 \, if($f1 < 4 \, (4 - $f1) * $f5 + ($f1 - 3)
* $f6 \, if($f1 < 5 \, (5 - $f1) * $f6 + ($f1 - 4) * $f7 \, if($f1
< 6 \, (6 - $f1) * $f7 + ($f1 - 5) * $f8 \, (7 - $f1) * $f8 + ($f1
- 6) * $f2))))));
#X obj 815 355 expr if ($f1 < 1 \, (1 - $f1) * $f2 + $f1 * $f3 \, if($f1
< 2 \, (2- $f1) * $f3 + ($f1 - 1) * $f4 \, if($f1 < 3 \, (3 - $f1)
* $f4 + ($f1 - 2) * $f5 \, if($f1 < 4 \, (4 - $f1) * $f5 + ($f1 - 3)
* $f6 \, if($f1 < 5 \, (5 - $f1) * $f6 + ($f1 - 4) * $f7 \, if($f1
< 6 \, (6 - $f1) * $f7 + ($f1 - 5) * $f8 \, (7 - $f1) * $f8 + ($f1
- 6) * $f2))))));
#X obj 846 460 expr if ($f1 < 1 \, (1 - $f1) * $f2 + $f1 * $f3 \, if($f1
< 2 \, (2- $f1) * $f3 + ($f1 - 1) * $f4 \, if($f1 < 3 \, (3 - $f1)
* $f4 + ($f1 - 2) * $f5 \, if($f1 < 4 \, (4 - $f1) * $f5 + ($f1 - 3)
* $f6 \, if($f1 < 5 \, (5 - $f1) * $f6 + ($f1 - 4) * $f7 \, if($f1
< 6 \, (6 - $f1) * $f7 + ($f1 - 5) * $f8 \, (7 - $f1) * $f8 + ($f1
- 6) * $f2))))));
#X obj 881 566 expr if ($f1 < 1 \, (1 - $f1) * $f2 + $f1 * $f3 \, if($f1
< 2 \, (2- $f1) * $f3 + ($f1 - 1) * $f4 \, if($f1 < 3 \, (3 - $f1)
* $f4 + ($f1 - 2) * $f5 \, if($f1 < 4 \, (4 - $f1) * $f5 + ($f1 - 3)
* $f6 \, if($f1 < 5 \, (5 - $f1) * $f6 + ($f1 - 4) * $f7 \, if($f1
< 6 \, (6 - $f1) * $f7 + ($f1 - 5) * $f8 \, (7 - $f1) * $f8 + ($f1
- 6) * $f2))))));
#X obj 586 884 spigot;
#X obj 618 99 inlet;
#X obj 586 906 outlet;
#X obj 266 739 *;
#X obj 240 716 r band1;
#X obj 327 742 *;
#X obj 398 745 *;
#X obj 321 720 r band2;
#X obj 379 721 r band3;
#X obj 346 795 +;
#X obj 592 774 +;
#X obj 568 750 *;
#X obj 636 753 *;
#X obj 700 756 *;
#X obj 648 806 +;
#X obj 801 775 +;
#X obj 777 751 *;
#X obj 845 754 *;
#X obj 909 757 *;
#X obj 857 813 +;
#X obj 545 727 r band1;
#X obj 626 731 r band2;
#X obj 684 732 r band3;
#X obj 755 729 r band1;
#X obj 836 733 r band2;
#X obj 894 734 r band3;
#X msg 95 141 247;
#X msg 128 141 93;
#X msg 163 141 57;
#X msg 395 141 205;
#X msg 429 141 42;
#X msg 460 141 23;
#X msg 786 141 232;
#X msg 822 141 91;
#X msg 855 141 107;
#X text 918 139 red grenade fruit;
#X msg 96 207 81;
#X msg 130 207 200;
#X msg 165 207 12;
#X msg 398 207 161;
#X msg 430 207 217;
#X msg 463 207 45;
#X msg 789 207 249;
#X msg 825 207 160;
#X msg 859 207 32;
#X text 916 208 green leaves;
#X msg 786 324 4;
#X msg 821 324 134;
#X msg 855 324 132;
#X text 920 323 blue abyss;
#X text 914 173 sun;
#X msg 788 174 222;
#X msg 823 174 80;
#X msg 857 174 103;
#X msg 394 324 87;
#X msg 428 324 66;
#X msg 459 324 167;
#X msg 162 324 159;
#X msg 127 324 37;
#X msg 94 324 21;
#X msg 94 174 237;
#X msg 128 174 222;
#X msg 164 174 16;
#X msg 397 174 247;
#X msg 430 174 78;
#X msg 462 174 9;
#X text 915 238 purples;
#X msg 96 239 200;
#X msg 132 239 51;
#X msg 163 239 255;
#X msg 396 239 98;
#X msg 429 239 17;
#X msg 461 239 209;
#X msg 787 239 183;
#X msg 821 239 47;
#X msg 858 239 66;
#X text 917 270 oranges;
#X msg 93 270 255;
#X msg 127 270 85;
#X msg 161 270 33;
#X msg 394 270 255;
#X msg 427 270 52;
#X msg 459 270 19;
#X msg 785 270 218;
#X msg 820 270 0;
#X msg 855 270 77;
#X text 918 297 greens;
#X msg 91 297 11;
#X msg 127 297 255;
#X msg 165 297 123;
#X msg 392 297 0;
#X msg 425 297 176;
#X msg 456 297 119;
#X msg 783 297 64;
#X msg 818 297 218;
#X msg 853 297 255;
#X obj 85 49 + 0;
#X obj 85 99 +;
#X obj 85 74 expr if($f1 >= 8 \, $f1 - 8 \, $f1 );
#X obj 85 20 r RGBpalette;
#X floatatom 236 49 5 0 0 0 - - -;
#X obj 184 20 r RGBpalette_hue_vol;
#X connect 0 0 3 0;
#X connect 1 0 3 1;
#X connect 2 0 3 2;
#X connect 3 0 27 0;
#X connect 4 0 54 0;
#X connect 4 0 55 0;
#X connect 4 0 56 0;
#X connect 4 0 57 0;
#X connect 4 0 58 0;
#X connect 4 0 59 0;
#X connect 4 0 60 0;
#X connect 4 0 61 0;
#X connect 4 0 53 0;
#X connect 8 0 36 0;
#X connect 9 0 7 0;
#X connect 10 0 5 0;
#X connect 11 0 6 0;
#X connect 12 0 90 0;
#X connect 12 0 92 0;
#X connect 12 0 78 0;
#X connect 12 0 79 0;
#X connect 12 0 80 0;
#X connect 12 0 87 0;
#X connect 12 0 89 0;
#X connect 12 0 88 0;
#X connect 12 0 91 0;
#X connect 13 0 64 0;
#X connect 13 0 65 0;
#X connect 13 0 66 0;
#X connect 13 0 67 0;
#X connect 13 0 68 0;
#X connect 13 0 69 0;
#X connect 13 0 70 0;
#X connect 13 0 71 0;
#X connect 13 0 63 0;
#X connect 14 0 95 0;
#X connect 14 0 96 0;
#X connect 14 0 97 0;
#X connect 14 0 98 0;
#X connect 14 0 99 0;
#X connect 14 0 100 0;
#X connect 14 0 101 0;
#X connect 14 0 102 0;
#X connect 14 0 94 0;
#X connect 15 0 105 0;
#X connect 15 0 106 0;
#X connect 15 0 107 0;
#X connect 15 0 108 0;
#X connect 15 0 109 0;
#X connect 15 0 110 0;
#X connect 15 0 111 0;
#X connect 15 0 112 0;
#X connect 15 0 104 0;
#X connect 16 0 115 0;
#X connect 16 0 117 0;
#X connect 16 0 118 0;
#X connect 16 0 119 0;
#X connect 16 0 120 0;
#X connect 16 0 121 0;
#X connect 16 0 122 0;
#X connect 16 0 114 0;
#X connect 16 0 116 0;
#X connect 17 0 85 0;
#X connect 17 0 84 0;
#X connect 17 0 81 0;
#X connect 17 0 82 0;
#X connect 17 0 83 0;
#X connect 17 0 73 0;
#X connect 17 0 74 0;
#X connect 17 0 86 0;
#X connect 17 0 75 0;
#X connect 18 0 10 1;
#X connect 18 0 38 1;
#X connect 19 0 10 0;
#X connect 19 0 30 1;
#X connect 20 0 10 2;
#X connect 20 0 43 1;
#X connect 21 0 11 0;
#X connect 21 0 32 1;
#X connect 22 0 11 1;
#X connect 22 0 39 1;
#X connect 23 0 11 2;
#X connect 23 0 44 1;
#X connect 24 0 9 0;
#X connect 24 0 33 1;
#X connect 25 0 9 1;
#X connect 25 0 40 1;
#X connect 26 0 9 2;
#X connect 26 0 45 1;
#X connect 27 0 29 0;
#X connect 28 0 27 1;
#X connect 30 0 8 0;
#X connect 31 0 30 0;
#X connect 32 0 8 1;
#X connect 33 0 36 1;
#X connect 34 0 32 0;
#X connect 35 0 33 0;
#X connect 36 0 0 0;
#X connect 37 0 41 0;
#X connect 38 0 37 0;
#X connect 39 0 37 1;
#X connect 40 0 41 1;
#X connect 41 0 1 0;
#X connect 42 0 46 0;
#X connect 43 0 42 0;
#X connect 44 0 42 1;
#X connect 45 0 46 1;
#X connect 46 0 2 0;
#X connect 47 0 38 0;
#X connect 48 0 39 0;
#X connect 49 0 40 0;
#X connect 50 0 43 0;
#X connect 51 0 44 0;
#X connect 52 0 45 0;
#X connect 53 0 19 1;
#X connect 54 0 18 1;
#X connect 55 0 20 1;
#X connect 56 0 21 1;
#X connect 57 0 22 1;
#X connect 58 0 23 1;
#X connect 59 0 24 1;
#X connect 60 0 25 1;
#X connect 61 0 26 1;
#X connect 63 0 19 3;
#X connect 64 0 18 3;
#X connect 65 0 20 3;
#X connect 66 0 21 3;
#X connect 67 0 22 3;
#X connect 68 0 23 3;
#X connect 69 0 24 3;
#X connect 70 0 25 3;
#X connect 71 0 26 3;
#X connect 73 0 24 7;
#X connect 74 0 25 7;
#X connect 75 0 26 7;
#X connect 78 0 24 2;
#X connect 79 0 25 2;
#X connect 80 0 26 2;
#X connect 81 0 21 7;
#X connect 82 0 22 7;
#X connect 83 0 23 7;
#X connect 84 0 20 7;
#X connect 85 0 18 7;
#X connect 86 0 19 7;
#X connect 87 0 19 2;
#X connect 88 0 18 2;
#X connect 89 0 20 2;
#X connect 90 0 21 2;
#X connect 91 0 22 2;
#X connect 92 0 23 2;
#X connect 94 0 19 4;
#X connect 95 0 18 4;
#X connect 96 0 20 4;
#X connect 97 0 21 4;
#X connect 98 0 22 4;
#X connect 99 0 23 4;
#X connect 100 0 24 4;
#X connect 101 0 25 4;
#X connect 102 0 26 4;
#X connect 104 0 19 5;
#X connect 105 0 18 5;
#X connect 106 0 20 5;
#X connect 107 0 21 5;
#X connect 108 0 22 5;
#X connect 109 0 23 5;
#X connect 110 0 24 5;
#X connect 111 0 25 5;
#X connect 112 0 26 5;
#X connect 114 0 19 6;
#X connect 115 0 18 6;
#X connect 116 0 20 6;
#X connect 117 0 21 6;
#X connect 118 0 22 6;
#X connect 119 0 23 6;
#X connect 120 0 24 6;
#X connect 121 0 25 6;
#X connect 122 0 26 6;
#X connect 123 0 125 0;
#X connect 124 0 18 0;
#X connect 124 0 19 0;
#X connect 124 0 20 0;
#X connect 124 0 21 0;
#X connect 124 0 22 0;
#X connect 124 0 23 0;
#X connect 124 0 24 0;
#X connect 124 0 25 0;
#X connect 124 0 26 0;
#X connect 124 0 4 0;
#X connect 124 0 12 0;
#X connect 124 0 13 0;
#X connect 124 0 14 0;
#X connect 124 0 15 0;
#X connect 124 0 16 0;
#X connect 124 0 17 0;
#X connect 125 0 124 0;
#X connect 126 0 123 0;
#X connect 128 0 123 1;
#X connect 128 0 127 0;
#X restore 559 23 pd paletteInterpoaltion;
#X obj 559 61 s message;
#X obj 405 -172 +;
#X msg 585 209 \; radius_vol_can label \$1;
#X obj 588 141 r brush_radius_vol_coef;
#X obj 588 166 *;
#X obj 567 102 loadbang;
#X obj 567 120 metro 1000;
#X obj 588 188 makefilename %.0f;
#X floatatom 100 -206 5 0 0 0 - - -;
#X obj 703 -207 + 0;
#X obj 1153 -335 inlet;
#X obj 1120 77 spigot;
#X obj 1120 97 * 0;
#X msg 560 44 send /RGBspectrum \$1 \$2 \$3;
#X obj 1227 49 r RGBpalette_hue_coef;
#X obj 1120 119 s RGBpalette_hue_vol;
#X obj 915 120 * 0;
#X obj 949 98 r particle_acc_attack_coef;
#X floatatom 959 119 5 0 0 0 - - -;
#X connect 0 0 1 0;
#X connect 0 1 39 0;
#X connect 1 0 13 0;
#X connect 1 0 24 0;
#X connect 1 1 13 1;
#X connect 1 1 24 1;
#X connect 1 2 25 1;
#X connect 1 2 54 1;
#X connect 1 3 26 1;
#X connect 1 3 14 0;
#X connect 1 4 55 1;
#X connect 1 4 14 1;
#X connect 1 5 28 0;
#X connect 1 5 27 1;
#X connect 1 5 15 1;
#X connect 1 5 85 0;
#X connect 1 6 28 1;
#X connect 1 6 77 0;
#X connect 1 7 29 1;
#X connect 1 7 77 1;
#X connect 1 8 31 1;
#X connect 1 8 16 1;
#X connect 1 9 17 1;
#X connect 1 9 30 1;
#X connect 1 10 18 1;
#X connect 1 10 34 1;
#X connect 7 0 75 0;
#X connect 10 0 92 0;
#X connect 11 0 38 0;
#X connect 12 0 11 1;
#X connect 13 0 54 0;
#X connect 14 0 15 0;
#X connect 15 0 22 0;
#X connect 16 0 17 0;
#X connect 17 0 18 0;
#X connect 18 0 23 0;
#X connect 21 0 4 0;
#X connect 21 0 61 0;
#X connect 22 0 5 0;
#X connect 22 0 62 0;
#X connect 23 0 6 0;
#X connect 23 0 63 0;
#X connect 24 0 25 0;
#X connect 25 0 26 0;
#X connect 26 0 55 0;
#X connect 27 0 35 0;
#X connect 27 0 32 0;
#X connect 28 0 29 0;
#X connect 29 0 31 0;
#X connect 30 0 34 0;
#X connect 31 0 30 0;
#X connect 32 0 36 1;
#X connect 32 0 35 1;
#X connect 32 0 21 1;
#X connect 32 0 22 1;
#X connect 32 0 23 1;
#X connect 33 0 11 0;
#X connect 34 0 36 0;
#X connect 34 0 32 1;
#X connect 35 0 56 0;
#X connect 35 0 2 0;
#X connect 36 0 37 0;
#X connect 36 0 3 0;
#X connect 37 0 46 0;
#X connect 38 0 9 0;
#X connect 39 1 40 0;
#X connect 39 1 69 0;
#X connect 41 0 43 1;
#X connect 43 0 45 0;
#X connect 43 0 80 1;
#X connect 44 0 10 1;
#X connect 45 0 42 0;
#X connect 46 0 33 1;
#X connect 47 0 50 0;
#X connect 47 0 51 0;
#X connect 47 0 48 0;
#X connect 48 0 0 0;
#X connect 49 0 50 0;
#X connect 49 0 51 0;
#X connect 49 0 48 0;
#X connect 50 0 0 0;
#X connect 51 0 0 0;
#X connect 52 0 73 0;
#X connect 52 1 73 0;
#X connect 54 0 21 0;
#X connect 55 0 27 0;
#X connect 56 0 57 0;
#X connect 57 0 33 0;
#X connect 58 0 8 0;
#X connect 69 0 70 0;
#X connect 70 0 10 0;
#X connect 73 0 0 0;
#X connect 74 0 73 1;
#X connect 74 0 84 0;
#X connect 75 0 89 0;
#X connect 77 0 16 0;
#X connect 79 0 80 0;
#X connect 80 0 83 0;
#X connect 81 0 82 0;
#X connect 82 0 80 0;
#X connect 83 0 78 0;
#X connect 85 0 53 0;
#X connect 85 0 72 0;
#X connect 85 0 43 0;
#X connect 85 0 87 0;
#X connect 86 0 87 1;
#X connect 87 0 88 0;
#X connect 88 0 91 0;
#X connect 89 0 76 0;
#X connect 90 0 88 1;
#X connect 92 0 58 0;
#X connect 93 0 92 1;
#X connect 93 0 94 0;
#X restore -730 20 pd LYM_spectrum_v4;
#X obj -730 -57 tgl 15 0 empty empty empty 17 7 0 10 -262144 -1 -1
0 1;
#X obj -730 -42 tgl 15 0 empty empty empty 17 7 0 10 -262144 -1 -1
1 1;
#X obj -729 -27 tgl 15 0 empty empty empty 17 7 0 10 -262144 -1 -1
1 1;
#X obj -730 -12 tgl 15 0 empty empty empty 17 7 0 10 -262144 -1 -1
1 1;
#X text -728 -122 music control;
#X obj -731 -231 bng 15 250 50 0 empty empty empty 0 -6 0 8 -24198
-1 -1;
#X obj -674 -231 bng 15 250 50 0 empty empty empty 0 -6 0 8 -258699
-1 -1;
#X obj -731 -249 loadbang;
#X text -735 -266 UDP connection;
#X text -710 -57 1: xy-spectrum;
#X obj -730 -88 bng 15 250 50 0 empty empty empty 17 7 0 10 -262144
-1 -1;
#X obj -730 -105 loadbang;
#X msg -702 -73 1;
#X text -630 -265 AUDIO ON;
#X obj -628 -248 loadbang;
#X msg -628 -232 \; pd dsp 1;
#X text -564 -132 USB Controller;
#X obj -560 -247 bng 15 250 50 0 empty empty empty 17 7 0 10 -4034
-1 -1;
#X obj -561 -212 bng 15 250 50 0 empty empty empty 17 7 0 10 -258113
-1 -1;
#X obj -546 -212 s stopsoundtrack;
#X text -554 -230 STOP SOUNDTRACK;
#X text -559 -265 START SOUNDTRACK;
#X obj -545 -247 s startsoundtrack;
#X text -711 -26 3: brush radius;
#X text -711 -11 4: particle accel.;
#X obj -651 -147 s connect;
#X obj -729 -146 s disconnect;
#X obj -729 -188 bng 15 250 50 0 empty empty empty 0 -6 0 8 -24198
-1 -1;
#X text -707 -189 Manual connection;
#X text -565 -180 OSC input messages;
#X obj -729 -166 delay 3000;
#X obj -651 -166 delay 3050;
#X msg -730 -73 0;
#N canvas 764 107 850 485 dumpMessages 0;
#X text -614 -5195 OSC message processing;
#X obj -605 -5178 netreceive 1979 1;
#X text -452 -5194 and processing messages from Porphyrograph;
#X obj -239 -5140 print dump;
#X obj -602 -4838 route /brushID_can /particle_texture_ID_can /CAType_can
/CASubType_can /drawing_can /particleMode_can /brushRadius_can /message_can
/echo_can /echoNeg_can /time_can /time_color_can /brush_radius_pressure_coef_can
/input_volume_can /invertAllLayers_can;
#N canvas 96 142 1508 660 trackDecayAndWeightMessages 0;
#X msg -851 188 \; track2decay_sign_can label +;
#X msg -845 232 \; track2decay_sign_can label -;
#X msg -657 187 \; track2decay_sign_can color 13 12;
#X msg -650 233 \; track2decay_sign_can color 17 12;
#X msg -852 68 \; track1decay_sign_can label +;
#X msg -846 110 \; track1decay_sign_can label -;
#X msg -658 65 \; track1decay_sign_can color 13 12;
#X msg -651 111 \; track1decay_sign_can color 17 12;
#X obj -855 -245 inlet;
#X obj -335 -145 pack f;
#X obj -337 -104 pack f;
#X obj -336 -61 pack f;
#X obj -336 -83 s track1decay;
#X obj -335 -40 s track2decay;
#X obj -399 -216 pack f;
#X obj -344 -253 inlet;
#X obj -403 -252 inlet;
#X msg -664 -144 \; track0decay_sign_can label +;
#X msg -658 -100 \; track0decay_sign_can label -;
#X msg -625 -53 \; track0decay_sign_can color 13 12;
#X msg -610 -4 \; track0decay_sign_can color 17 12;
#X obj -335 -127 s track0decay;
#X obj -399 -199 s CAdecay;
#X msg -878 -140 \; CAdecay_sign_can label +;
#X msg -872 -95 \; CAdecay_sign_can label -;
#X msg -857 -46 \; CAdecay_sign_can color 13 12;
#X msg -830 -5 \; CAdecay_sign_can color 17 12;
#X obj -511 -250 inlet;
#X obj -341 27 pack f;
#X obj -343 68 pack f;
#X obj -342 111 pack f;
#X obj -239 -258 inlet;
#X obj 63 -253 inlet;
#X obj 59 -225 route -1 1;
#X msg 39 -197 \; track0decay color 11 16;
#X msg 43 -157 \; track0decay color 17 16;
#X obj -510 -225 route 0 1 2;
#X obj -336 -228 route 0 1 2;
#X obj -238 -229 route 0 1 2;
#X obj -341 183 pack f;
#X obj -140 -255 inlet;
#X obj -855 -184 route -1 1;
#X obj -641 -186 route -1 1;
#X obj -827 48 route -1 1;
#X obj -827 157 route -1 1;
#X obj 259 -252 inlet;
#X obj 277 -233 inlet;
#X obj 293 -213 inlet;
#X obj 309 -194 inlet;
#X obj 328 -175 inlet;
#X obj 348 -157 inlet;
#X obj 362 -139 inlet;
#X msg 168 162 \; CAParams7_can label \$1;
#X msg 159 131 \; CAParams6_can label \$1;
#X msg 144 101 \; CAParams5_can label \$1;
#X msg 130 71 \; CAParams4_can label \$1;
#X msg 115 43 \; CAParams3_can label \$1;
#X msg 94 15 \; CAParams2_can label \$1;
#X msg 79 -16 \; CAParams1_can label \$1;
#X obj 208 -119 makefilename %.3f;
#X obj 217 -105 makefilename %.3f;
#X obj 227 -88 makefilename %.3f;
#X obj 238 -71 makefilename %.3f;
#X obj 248 -54 makefilename %.3f;
#X obj 257 -37 makefilename %.3f;
#X obj 267 -20 makefilename %.3f;
#X obj 442 -253 inlet;
#X msg 478 -93 \; CAcolorSpread_can label fast;
#X msg 482 -52 \; CAcolorSpread_can label slow;
#X msg 448 -177 \; CAcolorSpread_can color 13 12;
#X msg 452 -137 \; CAcolorSpread_can color 17 12;
#X obj 447 -224 route 1 0;
#X obj -130 28 pack f;
#X obj -132 69 pack f;
#X obj -131 112 pack f;
#X obj -86 -256 inlet;
#X obj -85 -227 route 0 1 2;
#X obj -130 184 pack f;
#X obj 13 -253 inlet;
#X obj -341 45 s trackCompositionWeight_0;
#X obj -342 89 s trackCompositionWeight_1;
#X obj -343 132 s trackCompositionWeight_2;
#X obj -130 46 s trackFinalWeight_0;
#X obj -131 90 s trackFinalWeight_1;
#X obj -132 133 s trackFinalWeight_2;
#X obj -130 203 s CAFinalWeight;
#X obj -341 202 s CACompositionWeight;
#X connect 8 0 41 0;
#X connect 9 0 21 0;
#X connect 10 0 12 0;
#X connect 11 0 13 0;
#X connect 14 0 22 0;
#X connect 15 0 37 0;
#X connect 16 0 14 0;
#X connect 27 0 36 0;
#X connect 28 0 79 0;
#X connect 29 0 80 0;
#X connect 30 0 81 0;
#X connect 31 0 38 0;
#X connect 32 0 33 0;
#X connect 33 0 34 0;
#X connect 33 1 35 0;
#X connect 36 0 42 0;
#X connect 36 1 43 0;
#X connect 36 2 44 0;
#X connect 37 0 9 0;
#X connect 37 1 10 0;
#X connect 37 2 11 0;
#X connect 38 0 28 0;
#X connect 38 1 29 0;
#X connect 38 2 30 0;
#X connect 39 0 86 0;
#X connect 40 0 39 0;
#X connect 41 0 23 0;
#X connect 41 0 25 0;
#X connect 41 1 24 0;
#X connect 41 1 26 0;
#X connect 42 0 17 0;
#X connect 42 0 19 0;
#X connect 42 1 18 0;
#X connect 42 1 20 0;
#X connect 43 0 4 0;
#X connect 43 0 6 0;
#X connect 43 1 5 0;
#X connect 43 1 7 0;
#X connect 44 0 0 0;
#X connect 44 0 2 0;
#X connect 44 1 1 0;
#X connect 44 1 3 0;
#X connect 45 0 59 0;
#X connect 46 0 60 0;
#X connect 47 0 61 0;
#X connect 48 0 62 0;
#X connect 49 0 63 0;
#X connect 50 0 64 0;
#X connect 51 0 65 0;
#X connect 59 0 58 0;
#X connect 60 0 57 0;
#X connect 61 0 56 0;
#X connect 62 0 55 0;
#X connect 63 0 54 0;
#X connect 64 0 53 0;
#X connect 65 0 52 0;
#X connect 66 0 71 0;
#X connect 71 0 69 0;
#X connect 71 0 67 0;
#X connect 71 1 70 0;
#X connect 71 1 68 0;
#X connect 72 0 82 0;
#X connect 73 0 83 0;
#X connect 74 0 84 0;
#X connect 75 0 76 0;
#X connect 76 0 72 0;
#X connect 76 1 73 0;
#X connect 76 2 74 0;
#X connect 77 0 85 0;
#X connect 78 0 77 0;
#X restore -47 -4929 pd trackDecayAndWeightMessages;
#X obj -603 -4983 route /flashPart_freq_can /flashCA_freq_can /flashTrack0_freq_can
/flashBack_freq_can /loop_beat_can /flashTrack0_number_can /flashCA_number_can
/flashPart_duration_can /auto_beat_can /beat_duration_can;
#X obj -605 -5155 route /launch /RGBpalette_can /restart /setup_can
/return_message /part_acc_factor_can /RGBpalette_val_coef_can /RGBpalette_hue_coef_can
/part_acc_attack_coef_can /videoThreshold_can /RGBpalette_replay_coef_can
/brush_radius_vol_coef /brush_radius_vol_replay_coef_can /connect;
#X obj -147 -5164 route /currentDrawingTrack_can /source_track_record_can
/target_track_record_can /track_replay_can /currentVideoTrack_can /is_videoOn_can
/local_color_r_can /interfaceMode_can /BGSubtr_can /repopulatingCA_can
/repopulatingBG_can /radiusParticle_can;
#X obj -153 -5055 route /CAdecay_sign_can /trackdecay_sign_can /CAdecay_can
/trackdecay_can /trackCompositionWeight_can /CACompositionWeight_can
/trackFinalWeight_can /CAFinalWeight_can /lighttrack0_can /CAParams1_can
/CAParams2_can /CAParams3_can /CAParams4_can /CAParams5_can /CAParams6_can
/CAParams7_can /CAcolorSpread_can;
#N canvas 371 65 1278 911 tracksMessages 0;
#X obj 645 -319 inlet;
#X obj 184 -312 inlet;
#X obj 47 -310 inlet;
#X obj 646 -262 route 0 1;
#X obj 835 -268 route 0 1;
#X obj 644 -147 route 0 1;
#X obj 193 123 route 0 1;
#X obj 199 236 route 0 1;
#X obj 201 353 route 0 1;
#X obj 172 -224 route 1 0;
#X obj 234 -223 route 1 0;
#X obj 295 -223 route 1 0;
#X msg 9 76 \; track1decay color 13 16;
#X msg 5 -34 \; track2decay color 13 16;
#X msg 5 -72 \; track1decay color 11 16;
#X msg 9 114 \; track2decay color 11 16;
#X msg 10 -223 \; track1decay color 11 16;
#X msg 11 -185 \; track2decay color 11 16;
#X msg 5 226 \; track1decay color 11 16;
#X msg 5 264 \; track2decay color 11 16;
#X msg 10 41 \; track0decay color 11 16;
#X msg 12 -258 \; track0decay color 13 16;
#X msg 6 -107 \; track0decay color 11 16;
#X msg 6 191 \; track0decay color 11 16;
#X obj 229 89 route 0 1 2;
#X obj 184 -265 route 0 1 2;
#X obj 47 -289 route 0 1 2;
#X obj 643 -292 route 0 1 2;
#N canvas 4 135 288 272 colorRGB 0;
#X obj 16 27 inlet;
#X obj 93 28 inlet;
#X text 21 9 red;
#X text 93 11 green;
#X obj 159 75 t b f;
#X obj 93 112 +;
#X obj 93 137 t b f;
#X obj 93 168 +;
#X obj 16 52 * -65536;
#X obj 93 53 * -256;
#X obj 159 53 * -1;
#X obj 93 199 - 1;
#X obj 159 28 inlet;
#X obj 93 226 outlet;
#X text 161 11 blue;
#X connect 0 0 8 0;
#X connect 1 0 9 0;
#X connect 4 0 5 0;
#X connect 4 1 5 1;
#X connect 5 0 6 0;
#X connect 6 0 7 0;
#X connect 6 1 7 1;
#X connect 7 0 11 0;
#X connect 8 0 7 0;
#X connect 9 0 5 0;
#X connect 10 0 4 0;
#X connect 11 0 13 0;
#X connect 12 0 10 0;
#X restore 1035 -158 pd colorRGB;
#X msg 1035 -141 \; color_can color \$1;
#X obj 1035 -225 * 255;
#X obj 1035 -193 int;
#X obj 1035 -310 inlet;
#X msg 1035 -263 \; gray_can label \$1;
#X obj 1035 -280 makefilename G_%.2f;
#X obj 660 -17 route 0 1;
#X obj 849 -23 route 0 1;
#X obj 848 -148 route 0 1;
#X msg 640 -234 \; track0replay_can color 17 12;
#X msg 647 -188 \; track0replay_can color 13 12;
#X msg 638 -119 \; track2replay_can color 17 12;
#X msg 645 -73 \; track2replay_can color 13 12;
#X msg 850 51 \; track1replay_can label Ps;
#X msg 843 5 \; track1replay_can label _;
#X msg 849 -73 \; track2replay_can label Ps;
#X msg 842 -121 \; track2replay_can label _;
#X msg 836 -194 \; track1replay_can color 13 12;
#X msg 829 -240 \; track1replay_can color 17 12;
#X msg 187 151 \; source_track_record_0_can color 17 12;
#X msg 200 310 \; source_track_record_1_can color 13 12;
#X msg 193 264 \; source_track_record_1_can color 17 12;
#X msg 195 381 \; source_track_record_2_can color 17 12;
#X msg 202 427 \; source_track_record_2_can color 13 12;
#X msg 167 -169 \; source_track_record_0_can label s;
#X msg 171 -131 \; source_track_record_1_can label s;
#X msg 174 -89 \; source_track_record_2_can label s;
#X msg 175 -43 \; source_track_record_0_can label _;
#X msg 177 -3 \; source_track_record_1_can label _;
#X msg 179 40 \; source_track_record_2_can label _;
#X obj 428 -314 inlet;
#X obj 437 121 route 0 1;
#X obj 443 234 route 0 1;
#X obj 445 351 route 0 1;
#X obj 416 -226 route 1 0;
#X obj 478 -225 route 1 0;
#X obj 539 -225 route 1 0;
#X obj 473 87 route 0 1 2;
#X obj 428 -267 route 0 1 2;
#X msg 419 -44 \; target_track_record_0_can label _;
#X msg 421 -5 \; target_track_record_1_can label _;
#X msg 423 37 \; target_track_record_2_can label _;
#X msg 431 149 \; target_track_record_0_can color 17 12;
#X msg 437 262 \; target_track_record_1_can color 17 12;
#X msg 444 308 \; target_track_record_1_can color 13 12;
#X msg 439 378 \; target_track_record_2_can color 17 12;
#X msg 446 425 \; target_track_record_2_can color 13 12;
#X msg 438 195 \; target_track_record_0_can color 13 12;
#X msg 195 197 \; source_track_record_0_can color 13 12;
#X msg 415 -171 \; target_track_record_0_can label t;
#X msg 415 -133 \; target_track_record_1_can label t;
#X msg 418 -91 \; target_track_record_2_can label t;
#X obj 1185 -308 inlet;
#X msg 1185 -159 \; interfaceMode_can color 17 12;
#X msg 1211 -114 \; interfaceMode_can color 13 12;
#X msg 1185 -242 \; interfaceMode_can label Normal;
#X msg 1210 -196 \; interfaceMode_can label Tracks;
#X obj 1265 -277 s mode;
#X obj 1185 -278 route 0 1;
#X obj 933 -311 inlet;
#X msg 653 11 \; track1replay_can label _;
#X msg 657 51 \; track1replay_can label Ps;
#X obj 747 103 route 0 1 2;
#X msg 703 217 \; track0video_can color 17 12;
#X msg 709 263 \; track0video_can color 13 12;
#X msg 898 215 \; track1video_can color 17 12;
#X msg 905 261 \; track1video_can color 13 12;
#X msg 1112 206 \; track2video_can color 17 12;
#X msg 1119 253 \; track2video_can color 13 12;
#X obj 987 -310 inlet;
#X obj 1255 -4 route 0 1;
#X msg 1249 24 \; is_VideoOn_can color 17 12;
#X msg 1259 131 \; is_VideoOn_can color 13 12;
#X msg 1261 165 \; is_VideoOn_can label +;
#X msg 1250 59 \; is_VideoOn_can label -;
#X obj 1390 -306 inlet;
#X msg 1106 409 \; initialBGSubtr_can color 17 12;
#X msg 1115 453 \; initialBGSubtr_can color 13 12;
#X msg 1345 405 \; currentBGSubtr_can color 17 12;
#X msg 1350 451 \; currentBGSubtr_can color 13 12;
#X obj 1439 -308 inlet;
#X obj 1436 -245 makefilename %.1f;
#X obj 1446 -101 makefilename %.1f;
#X msg 1436 -228 \; repopulatingCA_can label \$1;
#X msg 1445 -83 \; repopulatingBG_can label \$1;
#X msg 1443 -51 \; repopulatingBG_can color 17 12;
#X msg 1441 -22 \; repopulatingBG_can color 13 12;
#X obj 1499 -125 route 0;
#X obj 1501 -306 inlet;
#X obj 1491 -270 route 0;
#X msg 1435 -196 \; repopulatingCA_can color 17 12;
#X msg 1433 -167 \; repopulatingCA_can color 13 12;
#X obj 1194 293 route 0 1 2;
#X obj 1455 23 makefilename %.1f;
#X obj 1551 -308 inlet;
#X msg 1454 41 \; radiusParticle_can label \$1;
#X connect 0 0 27 0;
#X connect 1 0 24 0;
#X connect 1 0 25 0;
#X connect 2 0 26 0;
#X connect 3 0 38 0;
#X connect 3 1 39 0;
#X connect 4 0 47 0;
#X connect 4 1 46 0;
#X connect 5 0 40 0;
#X connect 5 1 41 0;
#X connect 6 0 48 0;
#X connect 6 1 77 0;
#X connect 7 0 50 0;
#X connect 7 1 49 0;
#X connect 8 0 51 0;
#X connect 8 1 52 0;
#X connect 9 0 53 0;
#X connect 9 1 56 0;
#X connect 10 0 54 0;
#X connect 10 1 57 0;
#X connect 11 0 55 0;
#X connect 11 1 58 0;
#X connect 24 0 6 0;
#X connect 24 1 7 0;
#X connect 24 2 8 0;
#X connect 25 0 9 0;
#X connect 25 1 10 0;
#X connect 25 2 11 0;
#X connect 26 0 21 0;
#X connect 26 0 16 0;
#X connect 26 0 17 0;
#X connect 26 1 12 0;
#X connect 26 1 15 0;
#X connect 26 1 20 0;
#X connect 26 2 22 0;
#X connect 26 2 14 0;
#X connect 26 2 13 0;
#X connect 26 3 23 0;
#X connect 26 3 18 0;
#X connect 26 3 19 0;
#X connect 27 0 3 0;
#X connect 27 0 35 0;
#X connect 27 1 4 0;
#X connect 27 1 36 0;
#X connect 27 2 5 0;
#X connect 27 2 37 0;
#X connect 28 0 29 0;
#X connect 30 0 31 0;
#X connect 31 0 28 0;
#X connect 31 0 28 1;
#X connect 31 0 28 2;
#X connect 32 0 34 0;
#X connect 32 0 30 0;
#X connect 34 0 33 0;
#X connect 35 0 89 0;
#X connect 35 1 90 0;
#X connect 36 0 43 0;
#X connect 36 1 42 0;
#X connect 37 0 45 0;
#X connect 37 1 44 0;
#X connect 59 0 66 0;
#X connect 59 0 67 0;
#X connect 60 0 71 0;
#X connect 60 1 76 0;
#X connect 61 0 72 0;
#X connect 61 1 73 0;
#X connect 62 0 74 0;
#X connect 62 1 75 0;
#X connect 63 0 78 0;
#X connect 63 1 68 0;
#X connect 64 0 79 0;
#X connect 64 1 69 0;
#X connect 65 0 80 0;
#X connect 65 1 70 0;
#X connect 66 0 60 0;
#X connect 66 1 61 0;
#X connect 66 2 62 0;
#X connect 67 0 63 0;
#X connect 67 1 64 0;
#X connect 67 2 65 0;
#X connect 81 0 86 0;
#X connect 81 0 87 0;
#X connect 87 0 84 0;
#X connect 87 0 82 0;
#X connect 87 1 85 0;
#X connect 87 1 83 0;
#X connect 88 0 91 0;
#X connect 91 0 93 0;
#X connect 91 0 94 0;
#X connect 91 0 96 0;
#X connect 91 1 92 0;
#X connect 91 1 95 0;
#X connect 91 1 96 0;
#X connect 91 2 92 0;
#X connect 91 2 94 0;
#X connect 91 2 97 0;
#X connect 98 0 99 0;
#X connect 99 0 100 0;
#X connect 99 0 103 0;
#X connect 99 1 101 0;
#X connect 99 1 102 0;
#X connect 104 0 121 0;
#X connect 109 0 110 0;
#X connect 109 0 118 0;
#X connect 110 0 112 0;
#X connect 111 0 113 0;
#X connect 116 0 114 0;
#X connect 116 1 115 0;
#X connect 117 0 111 0;
#X connect 117 0 116 0;
#X connect 118 0 119 0;
#X connect 118 1 120 0;
#X connect 121 0 105 0;
#X connect 121 0 107 0;
#X connect 121 1 106 0;
#X connect 121 1 107 0;
#X connect 121 2 105 0;
#X connect 121 2 108 0;
#X connect 122 0 124 0;
#X connect 123 0 122 0;
#X restore -56 -5080 pd tracksMessages;
#N canvas 115 399 1364 634 environmentMessages 0;
#X msg 16 287 \; brush_can label Earth;
#X msg 14 54 \; brush_can label Circle;
#X obj 562 68 pack f;
#X obj 562 85 makefilename %d;
#X obj 363 8 route 0 1 2 3 4 5 6 7 8;
#X obj 37 -11 inlet;
#X obj 363 -14 inlet;
#X obj 222 -15 inlet;
#X obj 691 -15 inlet;
#X msg 624 208 \; drawing_can label X;
#X msg 625 246 \; drawing_can label Line;
#X obj 624 182 route 0 1 2 3;
#X obj 551 -16 inlet;
#X obj 828 164 route 0 1 2;
#X msg 805 192 \; particles_can label X;
#X obj 746 -14 inlet;
#X msg 806 21 \; radius_can label \$1;
#X msg 825 87 \; message_can label \$1;
#X obj 827 69 pack s;
#X obj 806 -17 inlet;
#X obj 859 -17 inlet;
#X msg 629 288 \; drawing_can label Dots;
#X msg 631 332 \; drawing_can label Bezier;
#X msg 550 34 \; CASubType_can label X;
#X msg 562 102 \; CASubType_can label \$1;
#X obj 934 -20 inlet;
#X obj 934 2 s echo;
#X obj 980 -21 inlet;
#X obj 980 2 s echoNeg;
#X obj 1030 -19 inlet;
#X obj 1082 -21 inlet;
#X obj 949 26 pack s;
#X msg 997 123 \; time_can color 13 12;
#X obj 997 95 route 0 1 2 3;
#X msg 996 245 \; time_can color 16 12;
#X msg 998 163 \; time_can color 14 12;
#X msg 996 203 \; time_can color 15 12;
#X msg 949 47 \; time_can label \$1;
#X msg 12 132 \; brush_can label FineGrain;
#X msg 15 174 \; brush_can label LargeGrain;
#X msg 16 211 \; brush_can label Ring;
#X msg 17 247 \; brush_can label Sun;
#X msg 15 327 \; brush_can label Moon;
#X msg 12 93 \; brush_can label Oval;
#X obj 37 12 route 0 1 2 3 4 5 6 7;
#X obj 1159 -20 inlet;
#X obj 1213 -20 inlet;
#X obj 1213 30 s input_volume;
#X obj 1326 -13 inlet;
#X obj 1155 144 route 1 0;
#X msg 1155 173 \; invert_can color 13 12;
#X msg 1156 208 \; invert_can color 16 12;
#X msg 195 61 \; texture_can label Circle;
#X msg 194 102 \; texture_can label Band;
#X msg 193 145 \; texture_can label Low_noise;
#X msg 195 185 \; texture_can label Med_noise;
#X msg 197 223 \; texture_can label High_noise;
#X msg 198 257 \; texture_can label Worms;
#X msg 197 293 \; texture_can label RandNoise;
#X obj 218 19 route 0 1 2 3 4 5 6 7;
#X msg 196 328 \; texture_can label Circle;
#X obj 216 432 expr if ($f1 < 0.5 \, 0 \, if($f1 < 1.5 \, 1 \, if($f1
< 2.5 \, 2 \, if($f1 < 3.5 \, 3 \, if($f1 < 4.5 \, 4 \, if($f1 < 5.5
\, 5 \, if($f1 < 6.5 \, 6 \, 7)))))));
#X obj 551 6 route 0;
#X msg 1136 83 \; tabletPressure_can label \$1;
#X obj 1137 57 makefilename %.0f;
#X obj 806 4 makefilename %.0f;
#X msg 365 30 \; CAType_can label Prey;
#X msg 374 68 \; CAType_can label Dislocation;
#X msg 426 223 \; CAType_can label XXXXXXX;
#X msg 446 260 \; CAType_can label XXXXXXX;
#X msg 460 296 \; CAType_can label XXXXXXX;
#X msg 482 334 \; CAType_can label XXXXXXX;
#X msg 387 106 \; CAType_can label Protocells;
#X msg 396 147 \; CAType_can label Socio_PD;
#X obj 15 369 makefilename %d;
#X msg 14 395 \; brush_can label \$1;
#X msg 806 230 \; particles_can label P;
#X msg 805 275 \; particles_can label F;
#X msg 408 184 \; CAType_can label XXXXXXX;
#X connect 2 0 3 0;
#X connect 3 0 24 0;
#X connect 4 0 66 0;
#X connect 4 1 67 0;
#X connect 4 2 72 0;
#X connect 4 3 73 0;
#X connect 4 4 78 0;
#X connect 4 5 68 0;
#X connect 4 6 69 0;
#X connect 4 7 70 0;
#X connect 4 8 71 0;
#X connect 5 0 44 0;
#X connect 6 0 4 0;
#X connect 7 0 61 0;
#X connect 8 0 11 0;
#X connect 11 0 9 0;
#X connect 11 1 10 0;
#X connect 11 2 21 0;
#X connect 11 3 22 0;
#X connect 12 0 62 0;
#X connect 13 0 14 0;
#X connect 13 1 76 0;
#X connect 13 2 77 0;
#X connect 15 0 13 0;
#X connect 18 0 17 0;
#X connect 19 0 65 0;
#X connect 20 0 18 0;
#X connect 25 0 26 0;
#X connect 27 0 28 0;
#X connect 29 0 31 0;
#X connect 30 0 33 0;
#X connect 31 0 37 0;
#X connect 33 0 32 0;
#X connect 33 1 35 0;
#X connect 33 2 36 0;
#X connect 33 3 34 0;
#X connect 44 0 1 0;
#X connect 44 1 43 0;
#X connect 44 2 38 0;
#X connect 44 3 39 0;
#X connect 44 4 40 0;
#X connect 44 5 41 0;
#X connect 44 6 0 0;
#X connect 44 7 42 0;
#X connect 44 8 74 0;
#X connect 45 0 64 0;
#X connect 46 0 47 0;
#X connect 48 0 49 0;
#X connect 49 0 50 0;
#X connect 49 1 51 0;
#X connect 59 0 52 0;
#X connect 59 1 53 0;
#X connect 59 2 54 0;
#X connect 59 3 55 0;
#X connect 59 4 56 0;
#X connect 59 5 57 0;
#X connect 59 6 58 0;
#X connect 59 7 60 0;
#X connect 61 0 59 0;
#X connect 62 0 23 0;
#X connect 62 1 2 0;
#X connect 64 0 63 0;
#X connect 65 0 16 0;
#X connect 74 0 75 0;
#X restore -510 -4728 pd environmentMessages;
#N canvas 179 310 1376 595 flashAndLoopMessages 0;
#X obj -531 -5021 makefilename %.0f;
#X obj 160 -5010 makefilename %.0f;
#X obj -531 -5048 inlet;
#X obj 160 -5054 inlet;
#X obj 159 -4778 makefilename %.0f;
#X msg 159 -4761 \; loop_beat_can label \$1;
#X obj 401 -5004 makefilename %.0f;
#X obj 401 -4889 makefilename %.0f;
#X msg 401 -4872 \; flashPart_duration_can label \$1;
#X obj 401 -4948 makefilename %.0f;
#X msg 401 -4987 \; flashTrack0_number_can label \$1;
#X msg 401 -4931 \; flashCA_number_can label \$1;
#X obj 316 -5062 inlet;
#X obj 401 -5066 inlet;
#X obj 462 -5065 inlet;
#X obj 527 -5066 inlet;
#X msg 163 -4993 \; flashBack_freq_can label \$1;
#X obj 620 -5067 inlet;
#X msg 620 -5020 \; auto_beat_can label \$1;
#X obj 620 -5037 makefilename %d;
#X obj -305 -5062 inlet;
#X obj -305 -5015 route 0 1 2;
#X obj -316 -4972 makefilename %d;
#X obj -318 -4916 makefilename %d;
#X obj -315 -4859 makefilename %d;
#X msg -315 -4839 \; flashCA_freq_2_can label \$1;
#X msg -318 -4899 \; flashCA_freq_1_can label \$1;
#X msg -316 -4955 \; flashCA_freq_0_can label \$1;
#X msg -391 -4777 \; flashCA_freq_0_can color 17 12;
#X msg -391 -4740 \; flashCA_freq_0_can color 13 12;
#X msg -388 -4671 \; flashCA_freq_1_can color 17 12;
#X msg -389 -4632 \; flashCA_freq_1_can color 13 12;
#X msg -390 -4556 \; flashCA_freq_2_can color 17 12;
#X msg -389 -4518 \; flashCA_freq_2_can color 13 12;
#X obj -67 -5057 inlet;
#X obj -78 -4967 makefilename %d;
#X obj -80 -4911 makefilename %d;
#X obj -67 -5010 route 1 2;
#X msg -78 -4949 \; flashTrack0_freq_1_can label \$1;
#X msg -80 -4894 \; flashTrack0_freq_2_can label \$1;
#X msg -150 -4778 \; flashTrack0_freq_1_can color 17 12;
#X msg -150 -4742 \; flashTrack0_freq_1_can color 13 12;
#X msg -151 -4679 \; flashTrack0_freq_2_can color 17 12;
#X msg -152 -4643 \; flashTrack0_freq_2_can color 13 12;
#X msg -545 -4924 \; flashPart_freq_can color 17 12;
#X msg -545 -4882 \; flashPart_freq_can color 13 12;
#X msg 162 -4908 \; flashBack_freq_can color 17 12;
#X msg 163 -4873 \; flashBack_freq_can color 13 12;
#X msg -532 -5004 \; flashPart_freq_can label \$1;
#X obj 160 -4939 route 0;
#X obj -149 -4802 route 0;
#X obj -151 -4704 route 0;
#X obj -389 -4696 route 0;
#X obj -389 -4804 route 0;
#X obj -390 -4581 route 0;
#X obj -531 -4952 route 0;
#X obj 697 -5065 inlet;
#X obj 620 -4974 makefilename %.2f;
#X msg 620 -4957 \; beat_duration_can label \$1;
#X connect 0 0 48 0;
#X connect 1 0 16 0;
#X connect 2 0 0 0;
#X connect 2 0 55 0;
#X connect 3 0 1 0;
#X connect 3 0 49 0;
#X connect 4 0 5 0;
#X connect 6 0 10 0;
#X connect 7 0 8 0;
#X connect 9 0 11 0;
#X connect 12 0 4 0;
#X connect 13 0 6 0;
#X connect 14 0 9 0;
#X connect 15 0 7 0;
#X connect 17 0 19 0;
#X connect 19 0 18 0;
#X connect 20 0 21 0;
#X connect 21 0 22 0;
#X connect 21 0 53 0;
#X connect 21 1 23 0;
#X connect 21 1 52 0;
#X connect 21 2 24 0;
#X connect 21 2 54 0;
#X connect 22 0 27 0;
#X connect 23 0 26 0;
#X connect 24 0 25 0;
#X connect 34 0 37 0;
#X connect 35 0 38 0;
#X connect 36 0 39 0;
#X connect 37 0 35 0;
#X connect 37 0 50 0;
#X connect 37 1 36 0;
#X connect 37 1 51 0;
#X connect 49 0 46 0;
#X connect 49 1 47 0;
#X connect 50 0 40 0;
#X connect 50 1 41 0;
#X connect 51 0 42 0;
#X connect 51 1 43 0;
#X connect 52 0 30 0;
#X connect 52 1 31 0;
#X connect 53 0 28 0;
#X connect 53 1 29 0;
#X connect 54 0 32 0;
#X connect 54 1 33 0;
#X connect 55 0 44 0;
#X connect 55 1 45 0;
#X connect 56 0 57 0;
#X connect 57 0 58 0;
#X restore -532 -4900 pd flashAndLoopMessages;
#N canvas 210 486 921 341 paletteRadiusMessages 0;
#X obj -178 -4994 s startclock;
#X obj -178 -4932 s restart;
#X obj -1 -4957 s message;
#X obj -1 -4990 pack s;
#X msg -1 -4974 send /return_message \$1;
#X msg -177 -4887 \; setup_can label \$1;
#X obj -177 -4905 pack s;
#X msg 447 -4975 \; brush_radius_vol_replay_coef_can label \$1;
#X obj 455 -4901 s connect;
#X msg 213 -4973 \; part_acc_attack_coef_can label \$1;
#X obj 447 -4992 makefilename %.0f;
#X obj 224 -4858 makefilename %.0f;
#X msg -4 -4911 \; part_acc_factor_can label \$1;
#X obj 222 -4925 makefilename %.2f;
#X msg 222 -4908 \; videoThreshold label \$1;
#X obj -177 -4965 s RGBpalette;
#X msg 224 -4839 \; RGBpalette_replay_coef_can label \$1;
#X msg -3 -4853 \; RGBpalette_val_coef_can label \$1;
#X msg 2 -4793 \; RGBpalette_hue_coef_can label \$1;
#X obj -4 -4870 makefilename %.1f;
#X obj 1 -4810 makefilename %.1f;
#X msg 240 -4787 \; brush_radius_vol_coef_can label \$1;
#X obj 244 -4749 s brush_radius_vol_coef;
#X obj 239 -4805 makefilename %.0f;
#X obj -4 -4928 makefilename %.2f;
#X obj 213 -4990 makefilename %.2f;
#X obj -178 -5027 inlet;
#X obj -136 -5029 inlet;
#X obj -90 -5027 inlet;
#X obj -46 -5024 inlet;
#X obj -2 -5025 inlet;
#X obj 45 -5024 inlet;
#X obj 94 -5025 inlet;
#X obj 146 -5026 inlet;
#X obj 216 -5027 inlet;
#X obj 270 -5024 inlet;
#X obj 313 -5025 inlet;
#X obj 455 -5041 inlet;
#X obj 511 -5041 inlet;
#X obj 388 -5033 inlet;
#X connect 3 0 4 0;
#X connect 4 0 2 0;
#X connect 6 0 5 0;
#X connect 10 0 7 0;
#X connect 11 0 16 0;
#X connect 13 0 14 0;
#X connect 19 0 17 0;
#X connect 20 0 18 0;
#X connect 24 0 12 0;
#X connect 25 0 9 0;
#X connect 26 0 0 0;
#X connect 27 0 15 0;
#X connect 28 0 1 0;
#X connect 29 0 6 0;
#X connect 30 0 3 0;
#X connect 31 0 24 0;
#X connect 32 0 19 0;
#X connect 33 0 20 0;
#X connect 34 0 25 0;
#X connect 35 0 13 0;
#X connect 36 0 11 0;
#X connect 37 0 10 0;
#X connect 38 0 8 0;
#X connect 39 0 23 0;
#X connect 39 0 22 0;
#X restore -539 -5023 pd paletteRadiusMessages;
#X connect 1 0 7 0;
#X connect 4 0 11 0;
#X connect 4 1 11 1;
#X connect 4 2 11 2;
#X connect 4 3 11 3;
#X connect 4 4 11 4;
#X connect 4 5 11 5;
#X connect 4 6 11 6;
#X connect 4 7 11 7;
#X connect 4 8 11 8;
#X connect 4 9 11 9;
#X connect 4 10 11 10;
#X connect 4 11 11 11;
#X connect 4 12 11 12;
#X connect 4 13 11 13;
#X connect 4 14 11 14;
#X connect 4 15 8 0;
#X connect 6 0 12 0;
#X connect 6 1 12 1;
#X connect 6 2 12 2;
#X connect 6 3 12 3;
#X connect 6 4 12 4;
#X connect 6 5 12 5;
#X connect 6 6 12 6;
#X connect 6 7 12 7;
#X connect 6 8 12 8;
#X connect 6 9 12 9;
#X connect 6 10 4 0;
#X connect 7 0 13 0;
#X connect 7 1 13 1;
#X connect 7 2 13 2;
#X connect 7 3 13 3;
#X connect 7 4 13 4;
#X connect 7 5 13 5;
#X connect 7 6 13 6;
#X connect 7 7 13 7;
#X connect 7 8 13 8;
#X connect 7 9 13 9;
#X connect 7 10 13 10;
#X connect 7 11 13 11;
#X connect 7 12 13 12;
#X connect 7 13 13 13;
#X connect 7 14 6 0;
#X connect 8 0 10 0;
#X connect 8 1 10 1;
#X connect 8 2 10 2;
#X connect 8 3 10 3;
#X connect 8 4 10 4;
#X connect 8 5 10 5;
#X connect 8 6 10 6;
#X connect 8 7 10 7;
#X connect 8 8 10 8;
#X connect 8 9 10 9;
#X connect 8 10 10 10;
#X connect 8 11 10 11;
#X connect 8 12 9 0;
#X connect 9 0 5 0;
#X connect 9 1 5 1;
#X connect 9 2 5 2;
#X connect 9 3 5 3;
#X connect 9 4 5 4;
#X connect 9 5 5 5;
#X connect 9 6 5 6;
#X connect 9 7 5 7;
#X connect 9 8 5 8;
#X connect 9 9 5 9;
#X connect 9 10 5 10;
#X connect 9 11 5 11;
#X connect 9 12 5 12;
#X connect 9 13 5 13;
#X connect 9 14 5 14;
#X connect 9 15 5 15;
#X connect 9 16 5 16;
#X restore -563 -164 pd dumpMessages;
#X obj -730 3 tgl 15 0 empty empty empty 17 7 0 10 -262144 -1 -1 1
1;
#X text -710 -41 2: color-value;
#X text -712 4 5: color_hue;
#N canvas 246 247 1316 630 controls 0;
#X obj 24 -399 vsl 15 50 0 1 0 0 empty empty empty 0 -9 0 10 -262144
-1 -1 0 1;
#X obj 24 -418 / 127;
#X obj 25 -254 vsl 15 50 0 1 0 0 empty empty empty 0 -9 0 10 -262144
-1 -1 0 1;
#X obj 25 -273 / 127;
#X obj 25 -138 / 127;
#X obj 23 31 vsl 15 50 0 1 0 0 empty empty empty 0 -9 0 10 -262144
-1 -1 0 1;
#X obj 23 12 / 127;
#X obj 104 -399 vsl 15 50 0 1 0 0 empty empty empty 0 -9 0 10 -262144
-1 -1 0 1;
#X obj 104 -418 / 127;
#X obj 105 -254 vsl 15 50 0 1 0 0 empty empty empty 0 -9 0 10 -262144
-1 -1 0 1;
#X obj 105 -273 / 127;
#X obj 105 -138 / 127;
#X obj 103 31 vsl 15 50 0 1 0 0 empty empty empty 0 -9 0 10 -262144
-1 -1 0 1;
#X obj 103 12 / 127;
#X obj 185 -400 vsl 15 50 0 1 0 0 empty empty empty 0 -9 0 10 -262144
-1 -1 0 1;
#X obj 185 -419 / 127;
#X obj 186 -255 vsl 15 50 0 1 0 0 empty empty empty 0 -9 0 10 -262144
-1 -1 0 1;
#X obj 186 -274 / 127;
#X obj 186 -120 vsl 15 50 0 1 0 0 empty empty empty 0 -9 0 10 -262144
-1 -1 0 1;
#X obj 186 -139 / 127;
#X obj 184 30 vsl 15 50 0 1 0 0 empty empty empty 0 -9 0 10 -262144
-1 -1 0 1;
#X obj 184 11 / 127;
#X obj 261 -400 vsl 15 50 0 1 0 0 empty empty empty 0 -9 0 10 -262144
-1 -1 0 1;
#X obj 261 -419 / 127;
#X obj 262 -255 vsl 15 50 0 1 0 0 empty empty empty 0 -9 0 10 -262144
-1 -1 0 1;
#X obj 262 -274 / 127;
#X obj 262 -120 vsl 15 50 0 1 0 0 empty empty empty 0 -9 0 10 -262144
-1 -1 0 1;
#X obj 262 -139 / 127;
#X obj 260 28 vsl 15 50 0 1 0 0 empty empty empty 0 -9 0 10 -262144
-1 -1 0 1;
#X obj 260 9 / 127;
#X obj 336 -400 vsl 15 50 0 1 0 0 empty empty empty 0 -9 0 10 -262144
-1 -1 0 1;
#X obj 336 -419 / 127;
#X obj 337 -255 vsl 15 50 0 1 0 0 empty empty empty 0 -9 0 10 -262144
-1 -1 0 1;
#X obj 337 -274 / 127;
#X obj 337 -120 vsl 15 50 0 1 0 0 empty empty empty 0 -9 0 10 -262144
-1 -1 0 1;
#X obj 337 -139 / 127;
#X obj 335 28 vsl 15 50 0 1 0 0 empty empty empty 0 -9 0 10 -262144
-1 -1 0 1;
#X obj 335 9 / 127;
#X obj 415 -401 vsl 15 50 0 1 0 0 empty empty empty 0 -9 0 10 -262144
-1 -1 0 1;
#X obj 415 -420 / 127;
#X obj 416 -256 vsl 15 50 0 1 0 0 empty empty empty 0 -9 0 10 -262144
-1 -1 0 1;
#X obj 416 -275 / 127;
#X obj 416 -121 vsl 15 50 0 1 0 0 empty empty empty 0 -9 0 10 -262144
-1 -1 0 1;
#X obj 416 -140 / 127;
#X obj 414 27 vsl 15 50 0 1 0 0 empty empty empty 0 -9 0 10 -262144
-1 -1 0 1;
#X obj 414 8 / 127;
#X obj 501 -401 vsl 15 50 0 1 0 0 empty empty empty 0 -9 0 10 -262144
-1 -1 0 1;
#X obj 501 -420 / 127;
#X obj 502 -256 vsl 15 50 0 1 0 0 empty empty empty 0 -9 0 10 -262144
-1 -1 0 1;
#X obj 502 -275 / 127;
#X obj 502 -121 vsl 15 50 0 1 0 0 empty empty empty 0 -9 0 10 -262144
-1 -1 0 1;
#X obj 502 -140 / 127;
#X obj 500 27 vsl 15 50 0 1 0 0 empty empty empty 0 -9 0 10 -262144
-1 -1 0 1;
#X obj 500 8 / 127;
#X obj 577 -402 vsl 15 50 0 1 0 0 empty empty empty 0 -9 0 10 -262144
-1 -1 0 1;
#X obj 577 -421 / 127;
#X obj 578 -257 vsl 15 50 0 1 0 0 empty empty empty 0 -9 0 10 -262144
-1 -1 0 1;
#X obj 578 -276 / 127;
#X obj 578 -122 vsl 15 50 0 1 0 0 empty empty empty 0 -9 0 10 -262144
-1 -1 0 1;
#X obj 578 -141 / 127;
#X obj 576 26 vsl 15 50 0 1 0 0 empty empty empty 0 -9 0 10 -262144
-1 -1 0 1;
#X obj 576 7 / 127;
#X obj 655 25 vsl 15 50 0 1 0 0 empty empty empty 0 -9 0 10 -262144
-1 -1 0 1;
#X obj 655 6 / 127;
#X obj 24 -435 ctlin 13 1;
#X obj 25 -155 ctlin 10 1;
#X obj 23 -5 ctlin 7 1;
#X obj 655 -11 ctlin 28 1;
#X obj 104 -435 ctlin 13 2;
#X obj 105 -155 ctlin 10 2;
#X obj 103 -5 ctlin 7 2;
#X obj 185 -436 ctlin 13 3;
#X obj 261 -436 ctlin 13 4;
#X obj 337 -436 ctlin 13 5;
#X obj 501 -437 ctlin 13 7;
#X obj 577 -438 ctlin 13 8;
#X obj 186 -291 ctlin 12 3;
#X obj 186 -156 ctlin 10 3;
#X obj 184 -6 ctlin 7 3;
#X obj 262 -291 ctlin 12 4;
#X obj 262 -156 ctlin 10 4;
#X obj 260 -8 ctlin 7 4;
#X obj 337 -291 ctlin 12 5;
#X obj 337 -156 ctlin 10 5;
#X obj 334 -8 ctlin 7 5;
#X obj 415 -437 ctlin 13 6;
#X obj 416 -292 ctlin 12 6;
#X obj 416 -157 ctlin 10 6;
#X obj 414 -9 ctlin 7 6;
#X obj 502 -292 ctlin 12 7;
#X obj 502 -156 ctlin 10 7;
#X obj 505 -7 ctlin 7 7;
#X obj 578 -293 ctlin 12 8;
#X obj 578 -158 ctlin 10 8;
#X obj 576 -10 ctlin 7 8;
#X obj 673 -435 ctlin 19 1;
#X obj 673 -384 s message;
#N canvas 533 145 312 246 modal 0;
#X obj 80 111 spigot;
#X obj 213 56 r mode;
#X obj 174 114 spigot;
#X obj 80 35 inlet;
#X obj 80 165 outlet;
#X obj 174 165 outlet;
#X obj 119 73 - 1;
#X text 81 5 MODE 0 / 1 switch;
#X obj 8 35 loadbang;
#X connect 0 0 4 0;
#X connect 1 0 2 1;
#X connect 1 0 6 0;
#X connect 2 0 5 0;
#X connect 3 0 0 0;
#X connect 3 0 2 0;
#X connect 6 0 0 1;
#X connect 8 0 4 0;
#X restore 673 -418 pd modal;
#X obj 861 -367 s message;
#N canvas 533 145 312 246 modal 0;
#X obj 80 111 spigot;
#X obj 213 56 r mode;
#X obj 174 114 spigot;
#X obj 80 35 inlet;
#X obj 80 165 outlet;
#X obj 174 165 outlet;
#X obj 119 73 - 1;
#X text 81 5 MODE 0 / 1 switch;
#X obj 8 35 loadbang;
#X connect 0 0 4 0;
#X connect 1 0 2 1;
#X connect 1 0 6 0;
#X connect 2 0 5 0;
#X connect 3 0 0 0;
#X connect 3 0 2 0;
#X connect 6 0 0 1;
#X connect 8 0 4 0;
#X restore 861 -418 pd modal;
#X obj 1053 -349 s message;
#N canvas 533 145 312 246 modal 0;
#X obj 80 111 spigot;
#X obj 213 56 r mode;
#X obj 174 114 spigot;
#X obj 80 35 inlet;
#X obj 80 165 outlet;
#X obj 174 165 outlet;
#X obj 119 73 - 1;
#X text 81 5 MODE 0 / 1 switch;
#X obj 8 35 loadbang;
#X connect 0 0 4 0;
#X connect 1 0 2 1;
#X connect 1 0 6 0;
#X connect 2 0 5 0;
#X connect 3 0 0 0;
#X connect 3 0 2 0;
#X connect 6 0 0 1;
#X connect 8 0 4 0;
#X restore 1053 -418 pd modal;
#X obj 674 -262 s message;
#N canvas 533 145 312 246 modal 0;
#X obj 80 111 spigot;
#X obj 213 56 r mode;
#X obj 174 114 spigot;
#X obj 80 35 inlet;
#X obj 80 165 outlet;
#X obj 174 165 outlet;
#X obj 119 73 - 1;
#X text 81 5 MODE 0 / 1 switch;
#X obj 8 35 loadbang;
#X connect 0 0 4 0;
#X connect 1 0 2 1;
#X connect 1 0 6 0;
#X connect 2 0 5 0;
#X connect 3 0 0 0;
#X connect 3 0 2 0;
#X connect 6 0 0 1;
#X connect 8 0 4 0;
#X restore 674 -296 pd modal;
#X obj 862 -262 s message;
#N canvas 533 145 312 246 modal 0;
#X obj 80 111 spigot;
#X obj 213 56 r mode;
#X obj 174 114 spigot;
#X obj 80 35 inlet;
#X obj 80 165 outlet;
#X obj 174 165 outlet;
#X obj 119 73 - 1;
#X text 81 5 MODE 0 / 1 switch;
#X obj 8 35 loadbang;
#X connect 0 0 4 0;
#X connect 1 0 2 1;
#X connect 1 0 6 0;
#X connect 2 0 5 0;
#X connect 3 0 0 0;
#X connect 3 0 2 0;
#X connect 6 0 0 1;
#X connect 8 0 4 0;
#X restore 862 -296 pd modal;
#X obj 1054 -262 s message;
#N canvas 533 145 312 246 modal 0;
#X obj 80 111 spigot;
#X obj 213 56 r mode;
#X obj 174 114 spigot;
#X obj 80 35 inlet;
#X obj 80 165 outlet;
#X obj 174 165 outlet;
#X obj 119 73 - 1;
#X text 81 5 MODE 0 / 1 switch;
#X obj 8 35 loadbang;
#X connect 0 0 4 0;
#X connect 1 0 2 1;
#X connect 1 0 6 0;
#X connect 2 0 5 0;
#X connect 3 0 0 0;
#X connect 3 0 2 0;
#X connect 6 0 0 1;
#X connect 8 0 4 0;
#X restore 1054 -296 pd modal;
#X obj 673 -172 s message;
#N canvas 533 145 312 246 modal 0;
#X obj 80 111 spigot;
#X obj 213 56 r mode;
#X obj 174 114 spigot;
#X obj 80 35 inlet;
#X obj 80 165 outlet;
#X obj 174 165 outlet;
#X obj 119 73 - 1;
#X text 81 5 MODE 0 / 1 switch;
#X obj 8 35 loadbang;
#X connect 0 0 4 0;
#X connect 1 0 2 1;
#X connect 1 0 6 0;
#X connect 2 0 5 0;
#X connect 3 0 0 0;
#X connect 3 0 2 0;
#X connect 6 0 0 1;
#X connect 8 0 4 0;
#X restore 673 -206 pd modal;
#X obj 861 -172 s message;
#N canvas 533 145 312 246 modal 0;
#X obj 80 111 spigot;
#X obj 213 56 r mode;
#X obj 174 114 spigot;
#X obj 80 35 inlet;
#X obj 80 165 outlet;
#X obj 174 165 outlet;
#X obj 119 73 - 1;
#X text 81 5 MODE 0 / 1 switch;
#X obj 8 35 loadbang;
#X connect 0 0 4 0;
#X connect 1 0 2 1;
#X connect 1 0 6 0;
#X connect 2 0 5 0;
#X connect 3 0 0 0;
#X connect 3 0 2 0;
#X connect 6 0 0 1;
#X connect 8 0 4 0;
#X restore 861 -206 pd modal;
#X obj 1053 -189 s message;
#X obj 864 -67 s message;
#N canvas 533 145 312 246 modal 0;
#X obj 80 111 spigot;
#X obj 213 56 r mode;
#X obj 174 114 spigot;
#X obj 80 35 inlet;
#X obj 80 165 outlet;
#X obj 174 165 outlet;
#X obj 119 73 - 1;
#X text 81 5 MODE 0 / 1 switch;
#X obj 8 35 loadbang;
#X connect 0 0 4 0;
#X connect 1 0 2 1;
#X connect 1 0 6 0;
#X connect 2 0 5 0;
#X connect 3 0 0 0;
#X connect 3 0 2 0;
#X connect 6 0 0 1;
#X connect 8 0 4 0;
#X restore 864 -101 pd modal;
#X obj 735 50 s message;
#N canvas 533 145 312 246 modal 0;
#X obj 80 111 spigot;
#X obj 213 56 r mode;
#X obj 174 114 spigot;
#X obj 80 35 inlet;
#X obj 80 165 outlet;
#X obj 174 165 outlet;
#X obj 119 73 - 1;
#X text 81 5 MODE 0 / 1 switch;
#X obj 8 35 loadbang;
#X connect 0 0 4 0;
#X connect 1 0 2 1;
#X connect 1 0 6 0;
#X connect 2 0 5 0;
#X connect 3 0 0 0;
#X connect 3 0 2 0;
#X connect 6 0 0 1;
#X connect 8 0 4 0;
#X restore 735 -1 pd modal;
#X obj 849 50 s message;
#N canvas 533 145 312 246 modal 0;
#X obj 80 111 spigot;
#X obj 213 56 r mode;
#X obj 174 114 spigot;
#X obj 80 35 inlet;
#X obj 80 165 outlet;
#X obj 174 165 outlet;
#X obj 119 73 - 1;
#X text 81 5 MODE 0 / 1 switch;
#X obj 8 35 loadbang;
#X connect 0 0 4 0;
#X connect 1 0 2 1;
#X connect 1 0 6 0;
#X connect 2 0 5 0;
#X connect 3 0 0 0;
#X connect 3 0 2 0;
#X connect 6 0 0 1;
#X connect 8 0 4 0;
#X restore 849 -1 pd modal;
#X obj 964 50 s message;
#N canvas 533 145 312 246 modal 0;
#X obj 80 111 spigot;
#X obj 213 56 r mode;
#X obj 174 114 spigot;
#X obj 80 35 inlet;
#X obj 80 165 outlet;
#X obj 174 165 outlet;
#X obj 119 73 - 1;
#X text 81 5 MODE 0 / 1 switch;
#X obj 8 35 loadbang;
#X connect 0 0 4 0;
#X connect 1 0 2 1;
#X connect 1 0 6 0;
#X connect 2 0 5 0;
#X connect 3 0 0 0;
#X connect 3 0 2 0;
#X connect 6 0 0 1;
#X connect 8 0 4 0;
#X restore 964 -1 pd modal;
#X obj 1077 50 s message;
#N canvas 533 145 312 246 modal 0;
#X obj 80 111 spigot;
#X obj 213 56 r mode;
#X obj 174 114 spigot;
#X obj 80 35 inlet;
#X obj 80 165 outlet;
#X obj 174 165 outlet;
#X obj 119 73 - 1;
#X text 81 5 MODE 0 / 1 switch;
#X obj 8 35 loadbang;
#X connect 0 0 4 0;
#X connect 1 0 2 1;
#X connect 1 0 6 0;
#X connect 2 0 5 0;
#X connect 3 0 0 0;
#X connect 3 0 2 0;
#X connect 6 0 0 1;
#X connect 8 0 4 0;
#X restore 1077 -1 pd modal;
#X obj 105 -290 ctlin 12 2;
#X obj 25 -290 ctlin 12 1;
#N canvas 221 0 450 300 particleMode 0;
#X obj 67 -341 int;
#X obj 67 -307 s message;
#X msg 67 -324 send /particleMode \$1;
#X obj 67 -382 inlet;
#X obj 67 -358 * 2.99;
#X connect 0 0 2 0;
#X connect 2 0 1 0;
#X connect 3 0 4 0;
#X connect 4 0 0 0;
#X restore 24 -345 pd particleMode;
#N canvas 269 0 450 300 part_acc_factor 0;
#X obj 42 68 s message;
#X msg 42 51 send /part_acc_factor \$1;
#X obj 42 18 inlet;
#X connect 1 0 0 0;
#X connect 2 0 1 0;
#X restore 105 -325 pd part_acc_factor;
#N canvas 469 0 450 300 partAccCenter 0;
#X obj -3732 -73 s message;
#X obj -3629 -262 route 0 1 2 3 4;
#X msg -3629 -233 0.5;
#X msg -3546 -237 0.5;
#X msg -3615 -208 0.5;
#X msg -3532 -212 0.1;
#X msg -3606 -182 0.5;
#X msg -3528 -183 0.9;
#X msg -3518 -156 0.5;
#X msg -3508 -128 0.5;
#X msg -3595 -156 0.1;
#X msg -3585 -128 0.9;
#X msg -3732 -90 send /partAccCenter_0 \$1;
#X obj -3570 -74 s message;
#X msg -3570 -91 send /partAccCenter_1 \$1;
#X obj -3629 -335 inlet;
#X obj -3629 -288 int;
#X obj -3629 -313 * 4.99;
#X connect 1 0 2 0;
#X connect 1 0 3 0;
#X connect 1 1 5 0;
#X connect 1 1 4 0;
#X connect 1 2 6 0;
#X connect 1 2 7 0;
#X connect 1 3 10 0;
#X connect 1 3 8 0;
#X connect 1 4 11 0;
#X connect 1 4 9 0;
#X connect 2 0 12 0;
#X connect 3 0 14 0;
#X connect 4 0 12 0;
#X connect 5 0 14 0;
#X connect 6 0 12 0;
#X connect 7 0 14 0;
#X connect 8 0 14 0;
#X connect 9 0 14 0;
#X connect 10 0 12 0;
#X connect 11 0 12 0;
#X connect 12 0 0 0;
#X connect 14 0 13 0;
#X connect 15 0 17 0;
#X connect 16 0 1 0;
#X connect 17 0 16 0;
#X restore 185 -346 pd partAccCenter;
#N canvas 490 0 450 300 texture 0;
#X obj 41 -341 * 8;
#X obj 41 -296 s message;
#X msg 41 -313 send /particle_texture_ID \$1;
#X obj 41 -372 inlet;
#X connect 0 0 2 0;
#X connect 2 0 1 0;
#X connect 3 0 0 0;
#X restore 261 -326 pd texture;
#N canvas 532 0 450 300 flashPartFrequency 0;
#X obj 109 -318 inlet;
#X msg 109 -253 send /flashPart_freq \$1;
#X obj 109 -236 s message;
#X obj 109 -270 int;
#X obj 109 -287 * 9.99;
#X connect 0 0 4 0;
#X connect 1 0 2 0;
#X connect 3 0 1 0;
#X connect 4 0 3 0;
#X restore 336 -347 pd flashPartFrequency;
#N canvas 532 0 450 300 flashTrack0_freq 0;
#X obj 86 -306 inlet;
#X obj 86 -224 s message;
#X obj 86 -258 int;
#X msg 86 -241 send /flashTrack0_freq \$1;
#X obj 86 -275 * 9.99;
#X connect 0 0 4 0;
#X connect 2 0 3 0;
#X connect 3 0 1 0;
#X connect 4 0 2 0;
#X restore 337 -202 pd flashTrack0_freq;
#N canvas 532 0 450 300 flashCA_freq 0;
#X obj 86 -306 inlet;
#X obj 86 -224 s message;
#X obj 86 -258 int;
#X msg 86 -241 send /flashCA_freq \$1;
#X obj 86 -275 * 9.99;
#X connect 0 0 4 0;
#X connect 2 0 3 0;
#X connect 3 0 1 0;
#X connect 4 0 2 0;
#X restore 337 -67 pd flashCA_freq;
#N canvas 532 0 450 300 flashBack_freq 0;
#X obj 86 -306 inlet;
#X obj 86 -224 s message;
#X obj 86 -258 int;
#X msg 86 -241 send /flashBack_freq \$1;
#X obj 86 -275 * 9.99;
#X connect 0 0 4 0;
#X connect 2 0 3 0;
#X connect 3 0 1 0;
#X connect 4 0 2 0;
#X restore 262 -45 pd flashBack_freq;
#X obj 105 -119 vsl 15 50 0 1 0 0 empty empty empty 0 -9 0 10 -262144
-1 -1 0 1;
#X obj 24 -119 vsl 15 50 0 1 0 0 empty empty empty 0 -9 0 10 -262144
-1 -1 0 1;
#N canvas 254 0 450 300 CAParams1-4 0;
#X obj 149 -54 s message;
#X msg 149 -160 send /CAParams4 \$1;
#X msg 134 -136 send /CAParams3 \$1;
#X msg 119 -111 send /CAParams2 \$1;
#X msg 103 -88 send /CAParams1 \$1;
#X obj 83 -211 inlet;
#X obj 141 -210 inlet;
#X obj 194 -209 inlet;
#X obj 258 -211 inlet;
#X connect 1 0 0 0;
#X connect 2 0 0 0;
#X connect 3 0 0 0;
#X connect 4 0 0 0;
#X connect 5 0 4 0;
#X connect 6 0 3 0;
#X connect 7 0 2 0;
#X connect 8 0 1 0;
#X restore 106 -194 pd CAParams1-4;
#N canvas 254 0 450 300 CAParams5-7 0;
#X obj 149 -54 s message;
#X obj 83 -211 inlet;
#X obj 141 -210 inlet;
#X obj 194 -209 inlet;
#X msg 134 -136 send /CAParams7 \$1;
#X msg 119 -111 send /CAParams6 \$1;
#X msg 103 -88 send /CAParams5 \$1;
#X connect 1 0 6 0;
#X connect 2 0 5 0;
#X connect 3 0 4 0;
#X connect 4 0 0 0;
#X connect 5 0 0 0;
#X connect 6 0 0 0;
#X restore 66 -57 pd CAParams5-7;
#N canvas 684 0 450 300 input_volume 0;
#X obj 61 48 s input_volume;
#X obj 61 31 * 100;
#X obj 61 0 inlet;
#X connect 1 0 0 0;
#X connect 2 0 1 0;
#X restore 415 -326 pd input_volume;
#N canvas 684 0 450 300 RGBpalette_val_coef 0;
#X obj 61 -83 inlet;
#X msg 61 -35 send /RGBpalette_val_coef \$1;
#X obj 61 -19 s message;
#X obj 61 -52 * 4;
#X connect 0 0 3 0;
#X connect 1 0 2 0;
#X connect 3 0 1 0;
#X restore 416 -181 pd RGBpalette_val_coef;
#N canvas 532 0 450 300 flashPart_duration 0;
#X obj 86 -306 inlet;
#X obj 86 -224 s message;
#X obj 86 -258 int;
#X msg 86 -241 send /flashPart_duration \$1;
#X obj 86 -275 * 70.99;
#X connect 0 0 4 0;
#X connect 2 0 3 0;
#X connect 3 0 1 0;
#X connect 4 0 2 0;
#X restore 416 -46 pd flashPart_duration;
#N canvas 221 0 450 300 CAType 0;
#X obj 67 -341 int;
#X obj 67 -307 s message;
#X obj 67 -382 inlet;
#X msg 67 -324 send /CAType \$1;
#X obj 67 -358 * 8.99;
#X connect 0 0 3 0;
#X connect 2 0 4 0;
#X connect 3 0 1 0;
#X connect 4 0 0 0;
#X restore 502 -203 pd CAType;
#N canvas 221 0 450 300 CASubType 0;
#X obj 67 -341 int;
#X obj 67 -307 s message;
#X obj 67 -382 inlet;
#X obj 67 -358 * 8.99;
#X msg 67 -324 send /CASubType \$1;
#X connect 0 0 4 0;
#X connect 2 0 3 0;
#X connect 3 0 0 0;
#X connect 4 0 1 0;
#X restore 502 -68 pd CASubType;
#N canvas 533 145 312 246 modal 0;
#X obj 80 111 spigot;
#X obj 213 56 r mode;
#X obj 174 114 spigot;
#X obj 80 35 inlet;
#X obj 80 165 outlet;
#X obj 174 165 outlet;
#X obj 119 73 - 1;
#X text 81 5 MODE 0 / 1 switch;
#X obj 8 35 loadbang;
#X connect 0 0 4 0;
#X connect 1 0 2 1;
#X connect 1 0 6 0;
#X connect 2 0 5 0;
#X connect 3 0 0 0;
#X connect 3 0 2 0;
#X connect 6 0 0 1;
#X connect 8 0 4 0;
#X restore 23 84 pd modal;
#N canvas 533 145 312 246 modal 0;
#X obj 80 111 spigot;
#X obj 213 56 r mode;
#X obj 174 114 spigot;
#X obj 80 35 inlet;
#X obj 80 165 outlet;
#X obj 174 165 outlet;
#X obj 119 73 - 1;
#X text 81 5 MODE 0 / 1 switch;
#X obj 8 35 loadbang;
#X connect 0 0 4 0;
#X connect 1 0 2 1;
#X connect 1 0 6 0;
#X connect 2 0 5 0;
#X connect 3 0 0 0;
#X connect 3 0 2 0;
#X connect 6 0 0 1;
#X connect 8 0 4 0;
#X restore 103 84 pd modal;
#N canvas 533 145 312 246 modal 0;
#X obj 80 111 spigot;
#X obj 213 56 r mode;
#X obj 174 114 spigot;
#X obj 80 35 inlet;
#X obj 80 165 outlet;
#X obj 174 165 outlet;
#X obj 119 73 - 1;
#X text 81 5 MODE 0 / 1 switch;
#X obj 8 35 loadbang;
#X connect 0 0 4 0;
#X connect 1 0 2 1;
#X connect 1 0 6 0;
#X connect 2 0 5 0;
#X connect 3 0 0 0;
#X connect 3 0 2 0;
#X connect 6 0 0 1;
#X connect 8 0 4 0;
#X restore 184 83 pd modal;
#N canvas 533 145 312 246 modal 0;
#X obj 80 111 spigot;
#X obj 213 56 r mode;
#X obj 174 114 spigot;
#X obj 80 35 inlet;
#X obj 80 165 outlet;
#X obj 174 165 outlet;
#X obj 119 73 - 1;
#X text 81 5 MODE 0 / 1 switch;
#X obj 8 35 loadbang;
#X connect 0 0 4 0;
#X connect 1 0 2 1;
#X connect 1 0 6 0;
#X connect 2 0 5 0;
#X connect 3 0 0 0;
#X connect 3 0 2 0;
#X connect 6 0 0 1;
#X connect 8 0 4 0;
#X restore 260 81 pd modal;
#N canvas 533 145 312 246 modal 0;
#X obj 80 111 spigot;
#X obj 213 56 r mode;
#X obj 174 114 spigot;
#X obj 80 35 inlet;
#X obj 80 165 outlet;
#X obj 174 165 outlet;
#X obj 119 73 - 1;
#X text 81 5 MODE 0 / 1 switch;
#X obj 8 35 loadbang;
#X connect 0 0 4 0;
#X connect 1 0 2 1;
#X connect 1 0 6 0;
#X connect 2 0 5 0;
#X connect 3 0 0 0;
#X connect 3 0 2 0;
#X connect 6 0 0 1;
#X connect 8 0 4 0;
#X restore 335 81 pd modal;
#N canvas 533 145 312 246 modal 0;
#X obj 80 111 spigot;
#X obj 213 56 r mode;
#X obj 174 114 spigot;
#X obj 80 35 inlet;
#X obj 80 165 outlet;
#X obj 174 165 outlet;
#X obj 119 73 - 1;
#X text 81 5 MODE 0 / 1 switch;
#X obj 8 35 loadbang;
#X connect 0 0 4 0;
#X connect 1 0 2 1;
#X connect 1 0 6 0;
#X connect 2 0 5 0;
#X connect 3 0 0 0;
#X connect 3 0 2 0;
#X connect 6 0 0 1;
#X connect 8 0 4 0;
#X restore 414 80 pd modal;
#N canvas 533 145 312 246 modal 0;
#X obj 80 111 spigot;
#X obj 213 56 r mode;
#X obj 174 114 spigot;
#X obj 80 35 inlet;
#X obj 80 165 outlet;
#X obj 174 165 outlet;
#X obj 119 73 - 1;
#X text 81 5 MODE 0 / 1 switch;
#X obj 8 35 loadbang;
#X connect 0 0 4 0;
#X connect 1 0 2 1;
#X connect 1 0 6 0;
#X connect 2 0 5 0;
#X connect 3 0 0 0;
#X connect 3 0 2 0;
#X connect 6 0 0 1;
#X connect 8 0 4 0;
#X restore 500 80 pd modal;
#N canvas 533 145 312 227 modal 0;
#X obj 80 111 spigot;
#X obj 213 56 r mode;
#X obj 174 114 spigot;
#X obj 80 35 inlet;
#X obj 80 165 outlet;
#X obj 174 165 outlet;
#X obj 119 73 - 1;
#X text 81 5 MODE 0 / 1 switch;
#X obj 8 35 loadbang;
#X connect 0 0 4 0;
#X connect 1 0 2 1;
#X connect 1 0 6 0;
#X connect 2 0 5 0;
#X connect 3 0 0 0;
#X connect 3 0 2 0;
#X connect 6 0 0 1;
#X connect 8 0 4 0;
#X restore 576 79 pd modal;
#N canvas 533 145 312 246 modal 0;
#X obj 80 111 spigot;
#X obj 213 56 r mode;
#X obj 174 114 spigot;
#X obj 80 35 inlet;
#X obj 80 165 outlet;
#X obj 174 165 outlet;
#X obj 119 73 - 1;
#X text 81 5 MODE 0 / 1 switch;
#X obj 8 35 loadbang;
#X connect 0 0 4 0;
#X connect 1 0 2 1;
#X connect 1 0 6 0;
#X connect 2 0 5 0;
#X connect 3 0 0 0;
#X connect 3 0 2 0;
#X connect 6 0 0 1;
#X connect 8 0 4 0;
#X restore 655 78 pd modal;
#N canvas 221 0 450 300 RGBpalette 0;
#X obj 67 -295 s message;
#X obj 67 -382 inlet;
#X msg 67 -312 send /RGBpalette \$1;
#X obj 67 -358 * 7;
#X connect 1 0 3 0;
#X connect 2 0 0 0;
#X connect 3 0 2 0;
#X restore 578 -182 pd RGBpalette;
#N canvas 221 0 450 300 brushID 0;
#X obj 67 -307 s message;
#X obj 67 -382 inlet;
#X obj 67 -358 * 15.99;
#X obj 67 -341 int;
#X msg 67 -324 send /brushID \$1;
#X connect 1 0 2 0;
#X connect 2 0 3 0;
#X connect 3 0 4 0;
#X connect 4 0 0 0;
#X restore 578 -46 pd brushID;
#N canvas 221 0 450 300 videoThreshold 0;
#X obj 67 -295 s message;
#X obj 67 -382 inlet;
#X msg 67 -312 send /videoThreshold \$1;
#X obj 67 -358 + 0.01;
#X connect 1 0 3 0;
#X connect 2 0 0 0;
#X connect 3 0 2 0;
#X restore 23 101 pd videoThreshold;
#N canvas 299 142 450 300 gray 0;
#X obj 91 20 s message;
#X msg 85 -56 send /local_color_r \$1;
#X msg 74 -33 send /local_color_g \$1;
#X msg 62 -10 send /local_color_b \$1;
#X obj 62 -178 inlet;
#X obj 62 -119 + 1;
#X obj 62 -149 * -1;
#X connect 1 0 0 0;
#X connect 2 0 0 0;
#X connect 3 0 0 0;
#X connect 4 0 6 0;
#X connect 5 0 3 0;
#X connect 5 0 2 0;
#X connect 5 0 1 0;
#X connect 6 0 5 0;
#X restore 103 141 pd gray;
#N canvas 221 0 450 300 brushRadius 0;
#X obj 67 -295 s message;
#X obj 67 -382 inlet;
#X msg 67 -312 send /brushRadius \$1;
#X obj 67 -358 * 100;
#X obj 67 -336 + 1;
#X connect 1 0 3 0;
#X connect 2 0 0 0;
#X connect 3 0 4 0;
#X connect 4 0 2 0;
#X restore 183 98 pd brushRadius;
#N canvas 299 142 450 300 radiusParticle 0;
#X obj 63 -141 s message;
#X obj 63 -190 inlet;
#X msg 63 -165 send /radiusParticle \$1;
#X connect 1 0 2 0;
#X connect 2 0 0 0;
#X restore 229 115 pd radiusParticle;
#N canvas 221 0 450 300 echoNeg 0;
#X obj 67 -295 s message;
#X obj 67 -382 inlet;
#X obj 67 -336 + 1;
#X msg 67 -312 send /echoNeg \$1;
#X obj 67 -358 * -1;
#X connect 1 0 4 0;
#X connect 2 0 3 0;
#X connect 3 0 0 0;
#X connect 4 0 2 0;
#X restore 260 136 pd echoNeg;
#N canvas 299 142 450 300 echo 0;
#X obj 77 -285 s message;
#X obj 77 -372 inlet;
#X obj 77 -326 + 1;
#X obj 77 -348 * -1;
#X msg 77 -302 send /echo \$1;
#X connect 1 0 3 0;
#X connect 2 0 4 0;
#X connect 3 0 2 0;
#X connect 4 0 0 0;
#X restore 335 98 pd echo;
#N canvas 299 142 450 300 repopulatingCA 0;
#X obj 77 -285 s message;
#X obj 77 -372 inlet;
#X msg 77 -303 send /repopulatingCA \$1;
#X connect 1 0 2 0;
#X connect 2 0 0 0;
#X restore 305 153 pd repopulatingCA;
#N canvas 299 142 450 300 repopulatingBG 0;
#X obj 63 -141 s message;
#X obj 63 -190 inlet;
#X msg 63 -165 send /repopulatingBG \$1;
#X connect 1 0 2 0;
#X connect 2 0 0 0;
#X restore 380 115 pd repopulatingBG;
#N canvas 221 0 450 300 RGBpalette_hue_coef 0;
#X obj 67 -295 s message;
#X obj 67 -382 inlet;
#X msg 67 -312 send /RGBpalette_hue_coef \$1;
#X obj 67 -358 * 3;
#X connect 1 0 3 0;
#X connect 2 0 0 0;
#X connect 3 0 2 0;
#X restore 414 136 pd RGBpalette_hue_coef;
#N canvas 299 142 450 300 brush_radius_vol_coef 0;
#X obj 63 -118 s message;
#X obj 63 -190 inlet;
#X msg 63 -135 send /brush_radius_vol_coef \$1;
#X obj 63 -163 * 100;
#X connect 1 0 3 0;
#X connect 2 0 0 0;
#X connect 3 0 2 0;
#X restore 460 153 pd brush_radius_vol_coef;
#N canvas 221 0 450 300 CAdecay 0;
#X obj 67 -295 s message;
#X obj 67 -382 inlet;
#X msg 67 -312 send /CAdecay \$1;
#X obj 67 -347 * 0.05;
#X connect 1 0 3 0;
#X connect 2 0 0 0;
#X connect 3 0 2 0;
#X restore 500 97 pd CAdecay;
#N canvas 221 0 450 300 trackdecay 0;
#X obj 67 -295 s message;
#X obj 67 -382 inlet;
#X msg 67 -312 send /trackdecay \$1;
#X obj 67 -358 * 0.01;
#X connect 1 0 3 0;
#X connect 2 0 0 0;
#X connect 3 0 2 0;
#X restore 575 134 pd trackdecay;
#N canvas 299 142 450 300 part_acc_attack_coef 0;
#X obj 75 -178 inlet;
#X obj 60 -95 s message;
#X msg 60 -112 send /part_acc_attack_coef \$1;
#X obj 164 -92 s part_acc_attack_coef;
#X obj 75 -150 * 0.3;
#X connect 0 0 4 0;
#X connect 2 0 1 0;
#X connect 4 0 2 0;
#X connect 4 0 3 0;
#X restore 546 114 pd part_acc_attack_coef;
#N canvas 299 142 450 300 beat_duration 0;
#X obj 63 -141 s message;
#X obj 63 -190 inlet;
#X msg 63 -165 send /beat_duration \$1;
#X connect 1 0 2 0;
#X connect 2 0 0 0;
#X restore 621 151 pd beat_duration;
#N canvas 221 0 450 300 blendTransp 0;
#X obj 79 -124 s message;
#X obj 79 -223 inlet;
#X obj 79 -167 + 1;
#X obj 79 -191 * -1;
#X msg 79 -141 send /blendTransp \$1;
#X connect 1 0 3 0;
#X connect 2 0 4 0;
#X connect 3 0 2 0;
#X connect 4 0 0 0;
#X restore 655 95 pd blendTransp;
#X msg 673 -401 send /currentDrawingTrack_plus;
#X msg 674 -279 send /currentVideoTrack_plus;
#X msg 861 -401 send /CAdecay_sign;
#X msg 907 -384 send /CASwapCompositionFinalWeights;
#X msg 1053 -401 send /trackdecay_sign;
#X msg 1099 -366 send /trackSwapCompositionFinalWeights;
#X msg 862 -279 send /is_videoOn;
#X msg 1053 -206 send /interfaceMode;
#X msg 864 -84 send /BGSubtr_plus;
#X msg 735 16 send /drawingOnOff;
#X msg 849 16 send /currentBGCapture;
#X msg 895 33 send /clearCA;
#X msg 964 16 send /videoFBCapture;
#X msg 1010 33 send /clearLayer;
#X msg 1077 16 send /initialBGCapture;
#X msg 1123 33 send /clearAllLayers;
#X obj 674 -313 ctlin 22 1;
#X obj 673 -223 ctlin 25 1;
#X obj 861 -435 ctlin 20 1;
#X obj 1053 -435 ctlin 21 1;
#X obj 862 -313 ctlin 23 1;
#X obj 1054 -313 ctlin 24 1;
#X obj 861 -223 ctlin 26 1;
#X obj 1053 -223 ctlin 27 1;
#X obj 864 -118 ctlin 18 1;
#X obj 735 -18 ctlin 14 1;
#X obj 849 -18 ctlin 15 1;
#X obj 964 -18 ctlin 16 1;
#X obj 1077 -18 ctlin 17 1;
#X obj 1100 -112 ctlin;
#X floatatom 1075 -80 5 0 0 0 - - -;
#X floatatom 1114 -79 5 0 0 0 - - -;
#X floatatom 1154 -78 5 0 0 0 - - -;
#X msg 1054 -279 send /invertAllLayers;
#X msg 861 -189 send /track_replay;
#X msg 673 -189 send /source_track_record;
#N canvas 91 731 450 300 sensor_activation 0;
#X obj 67 -295 s message;
#X obj 67 -382 inlet;
#X msg 67 -312 send /sensor_activation \$1;
#X obj 67 -335 int;
#X obj 67 -358 * 4.99;
#X connect 1 0 4 0;
#X connect 2 0 0 0;
#X connect 3 0 2 0;
#X connect 4 0 3 0;
#X restore 68 117 pd sensor_activation;
#N canvas 221 0 450 300 sensor_layout 0;
#X obj 67 -295 s message;
#X obj 67 -382 inlet;
#X obj 67 -335 int;
#X msg 67 -312 send /sensor_layout \$1;
#X obj 67 -358 * 3.99;
#X connect 1 0 4 0;
#X connect 2 0 3 0;
#X connect 3 0 0 0;
#X connect 4 0 2 0;
#X restore 148 158 pd sensor_layout;
#N canvas 533 145 312 246 modal 0;
#X obj 80 111 spigot;
#X obj 213 56 r mode;
#X obj 174 114 spigot;
#X obj 80 35 inlet;
#X obj 80 165 outlet;
#X obj 174 165 outlet;
#X obj 119 73 - 1;
#X text 81 5 MODE 0 / 1 switch;
#X obj 8 35 loadbang;
#X connect 0 0 4 0;
#X connect 1 0 2 1;
#X connect 1 0 6 0;
#X connect 2 0 5 0;
#X connect 3 0 0 0;
#X connect 3 0 2 0;
#X connect 6 0 0 1;
#X connect 8 0 4 0;
#X restore 577 -348 pd modal;
#N canvas 533 145 312 227 modal 0;
#X obj 80 111 spigot;
#X obj 213 56 r mode;
#X obj 174 114 spigot;
#X obj 80 35 inlet;
#X obj 80 165 outlet;
#X obj 174 165 outlet;
#X obj 119 73 - 1;
#X text 81 5 MODE 0 / 1 switch;
#X obj 8 35 loadbang;
#X connect 0 0 4 0;
#X connect 1 0 2 1;
#X connect 1 0 6 0;
#X connect 2 0 5 0;
#X connect 3 0 0 0;
#X connect 3 0 2 0;
#X connect 6 0 0 1;
#X connect 8 0 4 0;
#X restore 501 -348 pd modal;
#N canvas 1152 42 450 300 CACompositionWeight 0;
#X obj 87 -275 s message;
#X obj 87 -362 inlet;
#X obj 87 -316 + 1;
#X obj 87 -338 * -1;
#X msg 86 -292 send /CACompositionWeight \$1;
#X connect 1 0 3 0;
#X connect 2 0 4 0;
#X connect 3 0 2 0;
#X connect 4 0 0 0;
#X restore 501 -331 pd CACompositionWeight;
#N canvas 1152 42 450 300 trackCompositionWeight 0;
#X obj 87 -275 s message;
#X obj 87 -362 inlet;
#X obj 87 -316 + 1;
#X obj 87 -338 * -1;
#X msg 86 -292 send /trackCompositionWeight \$1;
#X connect 1 0 3 0;
#X connect 2 0 4 0;
#X connect 3 0 2 0;
#X connect 4 0 0 0;
#X restore 648 -331 pd trackCompositionWeight;
#N canvas 1152 42 450 300 CAFinalWeight 0;
#X obj 87 -275 s message;
#X obj 87 -362 inlet;
#X obj 87 -316 + 1;
#X obj 87 -338 * -1;
#X msg 86 -292 send /CAFinalWeight \$1;
#X connect 1 0 3 0;
#X connect 2 0 4 0;
#X connect 3 0 2 0;
#X connect 4 0 0 0;
#X restore 546 -314 pd CAFinalWeight;
#N canvas 1152 42 450 300 trackFinalWeight 0;
#X obj 87 -275 s message;
#X obj 87 -362 inlet;
#X obj 87 -316 + 1;
#X obj 87 -338 * -1;
#X msg 87 -292 send /trackFinalWeight \$1;
#X connect 1 0 3 0;
#X connect 2 0 4 0;
#X connect 3 0 2 0;
#X connect 4 0 0 0;
#X restore 647 -348 pd trackFinalWeight;
#X connect 0 0 125 0;
#X connect 1 0 0 0;
#X connect 2 0 135 0;
#X connect 3 0 2 0;
#X connect 4 0 134 0;
#X connect 5 0 142 0;
#X connect 6 0 5 0;
#X connect 7 0 126 0;
#X connect 8 0 7 0;
#X connect 9 0 135 1;
#X connect 10 0 9 0;
#X connect 11 0 133 0;
#X connect 12 0 143 0;
#X connect 13 0 12 0;
#X connect 14 0 127 0;
#X connect 15 0 14 0;
#X connect 16 0 135 2;
#X connect 17 0 16 0;
#X connect 18 0 136 2;
#X connect 19 0 18 0;
#X connect 20 0 144 0;
#X connect 21 0 20 0;
#X connect 22 0 128 0;
#X connect 23 0 22 0;
#X connect 24 0 135 3;
#X connect 25 0 24 0;
#X connect 26 0 132 0;
#X connect 27 0 26 0;
#X connect 28 0 145 0;
#X connect 29 0 28 0;
#X connect 30 0 129 0;
#X connect 31 0 30 0;
#X connect 32 0 130 0;
#X connect 33 0 32 0;
#X connect 34 0 131 0;
#X connect 35 0 34 0;
#X connect 36 0 146 0;
#X connect 37 0 36 0;
#X connect 38 0 137 0;
#X connect 39 0 38 0;
#X connect 40 0 138 0;
#X connect 41 0 40 0;
#X connect 42 0 139 0;
#X connect 43 0 42 0;
#X connect 44 0 147 0;
#X connect 45 0 44 0;
#X connect 46 0 207 0;
#X connect 47 0 46 0;
#X connect 48 0 140 0;
#X connect 49 0 48 0;
#X connect 50 0 141 0;
#X connect 51 0 50 0;
#X connect 52 0 148 0;
#X connect 53 0 52 0;
#X connect 54 0 206 0;
#X connect 55 0 54 0;
#X connect 56 0 151 0;
#X connect 57 0 56 0;
#X connect 58 0 152 0;
#X connect 59 0 58 0;
#X connect 60 0 149 0;
#X connect 61 0 60 0;
#X connect 62 0 150 0;
#X connect 63 0 62 0;
#X connect 64 0 1 0;
#X connect 65 0 4 0;
#X connect 66 0 6 0;
#X connect 67 0 63 0;
#X connect 68 0 8 0;
#X connect 69 0 11 0;
#X connect 70 0 13 0;
#X connect 71 0 15 0;
#X connect 72 0 23 0;
#X connect 73 0 31 0;
#X connect 74 0 47 0;
#X connect 75 0 55 0;
#X connect 76 0 17 0;
#X connect 77 0 19 0;
#X connect 78 0 21 0;
#X connect 79 0 25 0;
#X connect 80 0 27 0;
#X connect 81 0 29 0;
#X connect 82 0 33 0;
#X connect 83 0 35 0;
#X connect 84 0 37 0;
#X connect 85 0 39 0;
#X connect 86 0 41 0;
#X connect 87 0 43 0;
#X connect 88 0 45 0;
#X connect 89 0 49 0;
#X connect 90 0 51 0;
#X connect 91 0 53 0;
#X connect 92 0 57 0;
#X connect 93 0 59 0;
#X connect 94 0 61 0;
#X connect 95 0 97 0;
#X connect 97 0 168 0;
#X connect 97 1 168 0;
#X connect 99 0 170 0;
#X connect 99 1 171 0;
#X connect 101 0 172 0;
#X connect 101 1 173 0;
#X connect 103 0 169 0;
#X connect 103 1 169 0;
#X connect 105 0 174 0;
#X connect 105 1 174 0;
#X connect 107 0 201 0;
#X connect 107 1 201 0;
#X connect 109 0 203 0;
#X connect 109 1 203 0;
#X connect 111 0 202 0;
#X connect 111 1 202 0;
#X connect 114 0 176 0;
#X connect 114 1 176 0;
#X connect 116 0 177 0;
#X connect 116 1 177 0;
#X connect 118 0 178 0;
#X connect 118 1 179 0;
#X connect 120 0 180 0;
#X connect 120 1 181 0;
#X connect 122 0 182 0;
#X connect 122 1 183 0;
#X connect 123 0 10 0;
#X connect 124 0 3 0;
#X connect 133 0 136 1;
#X connect 134 0 136 0;
#X connect 142 0 153 0;
#X connect 142 1 204 0;
#X connect 143 0 154 0;
#X connect 143 1 205 0;
#X connect 144 0 155 0;
#X connect 144 1 156 0;
#X connect 145 0 157 0;
#X connect 145 1 159 0;
#X connect 146 0 158 0;
#X connect 146 1 160 0;
#X connect 147 0 161 0;
#X connect 147 1 162 0;
#X connect 148 0 163 0;
#X connect 148 1 165 0;
#X connect 149 0 164 0;
#X connect 149 1 166 0;
#X connect 150 0 167 0;
#X connect 150 1 167 0;
#X connect 168 0 96 0;
#X connect 169 0 102 0;
#X connect 170 0 98 0;
#X connect 171 0 98 0;
#X connect 172 0 100 0;
#X connect 173 0 100 0;
#X connect 174 0 104 0;
#X connect 175 0 112 0;
#X connect 176 0 113 0;
#X connect 177 0 115 0;
#X connect 178 0 117 0;
#X connect 179 0 117 0;
#X connect 180 0 119 0;
#X connect 181 0 119 0;
#X connect 182 0 121 0;
#X connect 183 0 121 0;
#X connect 184 0 103 0;
#X connect 185 0 109 0;
#X connect 186 0 99 0;
#X connect 187 0 101 0;
#X connect 188 0 105 0;
#X connect 189 0 107 0;
#X connect 190 0 111 0;
#X connect 191 0 175 0;
#X connect 192 0 114 0;
#X connect 193 0 116 0;
#X connect 194 0 118 0;
#X connect 195 0 120 0;
#X connect 196 0 122 0;
#X connect 197 0 198 0;
#X connect 197 1 199 0;
#X connect 197 2 200 0;
#X connect 201 0 106 0;
#X connect 202 0 110 0;
#X connect 203 0 108 0;
#X connect 206 0 209 0;
#X connect 206 1 211 0;
#X connect 207 0 208 0;
#X connect 207 1 210 0;
#X restore -562 -115 pd controls;
#X connect 2 0 1 0;
#X connect 3 0 1 1;
#X connect 4 0 1 2;
#X connect 5 0 1 3;
#X connect 7 0 0 0;
#X connect 8 0 0 1;
#X connect 9 0 7 0;
#X connect 12 0 14 0;
#X connect 12 0 34 0;
#X connect 13 0 12 0;
#X connect 14 0 3 0;
#X connect 14 0 4 0;
#X connect 14 0 5 0;
#X connect 14 0 36 0;
#X connect 16 0 17 0;
#X connect 19 0 24 0;
#X connect 20 0 21 0;
#X connect 29 0 32 0;
#X connect 29 0 33 0;
#X connect 32 0 28 0;
#X connect 33 0 27 0;
#X connect 34 0 2 0;
#X connect 36 0 1 4;
#X restore -860 -22481 pd initial_board;
#X obj -706 -22012 cnv 15 35 25 empty track1video_can V 5 12 1 24 -44926
-33289 0;
#X obj -666 -22012 cnv 15 35 25 empty track2video_can V 5 12 1 24 -258699
-33289 0;
#X obj -750 -22181 vsl 15 128 0 0.01 0 0 empty track0decay BG 0 -9
0 14 -128992 -1 -24198 0 1;
#X obj -791 -22180 vsl 15 128 0 0.01 0 0 empty CAdecay CA 0 -9 0 14
-162280 -1 -4034 0 1;
#X obj -701 -22180 vsl 15 128 0 0.01 0 0 empty track1decay 1 0 -9 0
14 -258699 -1 -24198 0 1;
#X obj -659 -22181 vsl 15 128 0 0.01 0 0 empty track2decay 2 0 -9 0
14 -128992 -1 -24198 0 1;
#X obj -706 -21981 cnv 15 35 25 empty track1replay_can _ 5 12 1 24
-44926 -33289 0;
#X obj -666 -21981 cnv 15 35 25 empty track2replay_can _ 5 12 1 24
-44926 -33289 0;
#X obj -841 -22043 cnv 15 60 25 empty empty DECAY 0 12 1 14 -1 -4034
0;
#X obj -774 -22273 cnv 15 20 25 empty empty / 0 12 1 14 -1 -4034 0
;
#X obj -764 -22273 cnv 15 60 25 empty CASubType_can 1 0 12 1 14 -1
-262144 0;
#X obj -760 -22010 cnv 15 35 25 empty track0video_can V 5 12 1 24 -44926
-33289 0;
#X obj -735 -22181 vsl 8 128 0 1 0 0 empty trackCompositionWeight_0
empty 0 -9 0 10 -4032 -1 -1 0 1;
#X obj -687 -22180 vsl 8 128 0 1 0 0 empty trackCompositionWeight_1
empty 0 -9 0 10 -4032 -1 -1 0 1;
#X obj -644 -22181 vsl 8 128 0 1 0 0 empty trackCompositionWeight_2
empty 0 -9 0 10 -4032 -1 -1 0 1;
#X obj -776 -22180 vsl 8 128 0 1 0 0 empty CACompositionWeight empty
0 -9 0 10 -4032 -1 -1 0 1;
#X obj -833 -22220 cnv 15 20 50 empty palette3_can empty 0 12 1 14
-185041 -262144 0;
#X obj -926 -22195 cnv 15 50 25 empty color_can empty 20 12 0 14 -1
-262144 0;
#X obj -862 -22372 cnv 15 130 25 empty brush_can Circle 0 12 1 14 -1
-262144 0;
#X obj -862 -22352 cnv 15 130 25 empty radius_can 3 0 12 1 14 -1 -262144
0;
#X obj -691 -22402 vsl 15 60 0 100 0 0 empty input_volume VOLUME 0
-9 0 14 -162280 -1 -4034 0 1;
#X obj -798 -22351 cnv 15 50 25 empty radius_vol_can 0 0 12 1 14 -1
-262144 0;
#X obj -926 -22220 cnv 15 50 25 empty gray_can G_0.00 0 12 1 14 -262144
-66577 0;
#X obj -816 -22352 cnv 15 15 25 empty empty + 0 12 1 24 -1 -4034 0
;
#X obj -923 -22248 cnv 15 60 25 empty empty MUSIC 0 12 1 14 -1 -4034
0;
#X obj -805 -22245 cnv 15 60 25 empty RGBpalette_val_coef_can 3 0 12
1 14 -1 -262144 0;
#X obj -875 -22247 cnv 15 20 25 empty empty Col_(V_H) 0 12 1 14 -1
-4034 0;
#X obj -717 -22245 cnv 15 50 25 empty part_acc_attack_coef_can 0.2
0 12 1 14 -1 -262144 0;
#X obj -747 -22246 cnv 15 20 25 empty empty Part 0 12 1 14 -1 -4034
0;
#X obj -765 -22373 cnv 20 50 20 empty tabletPressure_can 0 5 12 1 12
-24198 -33289 0;
#X obj -765 -22350 cnv 20 30 25 empty invert_can Inv 5 12 1 12 -24198
-33289 0;
#X obj -843 -22321 cnv 15 40 25 empty part_acc_factor_can 0.01 0 12
1 14 -1 -262144 0;
#X obj -768 -22399 cnv 15 60 25 empty empty Tabl_Press 0 12 1 14 -1
-4034 0;
#X obj -791 -22224 cnv 15 60 25 empty empty BEAT: 0 12 1 12 -1 -4034
0;
#X obj -754 -22225 cnv 15 20 25 empty loop_beat_can 6 0 12 1 18 -1
-262144 0;
#X obj -707 -21951 cnv 15 17 25 empty source_track_record_1_can _ 5
12 1 24 -44926 -33289 0;
#X obj -667 -21951 cnv 15 17 25 empty source_track_record_2_can _ 5
12 1 24 -44926 -33289 0;
#X obj -792 -21952 cnv 15 60 25 empty empty REC 0 12 1 14 -1 -4034
0;
#X obj -760 -21950 cnv 15 17 25 empty source_track_record_0_can _ 5
12 1 24 -44926 -33289 0;
#X obj -740 -21950 cnv 15 17 25 empty target_track_record_0_can _ 5
12 1 24 -44926 -33289 0;
#X obj -688 -21951 cnv 15 17 25 empty target_track_record_1_can _ 5
12 1 24 -44926 -33289 0;
#X obj -647 -21951 cnv 15 17 25 empty target_track_record_2_can _ 5
12 1 24 -44926 -33289 0;
#X obj -932 -21944 cnv 15 60 25 empty empty FLASHES 0 12 1 14 -1 -4034
0;
#X obj -932 -21916 cnv 15 60 25 empty empty Freq_Part: 0 12 1 12 -1
-4034 0;
#X obj -933 -21889 cnv 15 60 25 empty empty Freq_Back: 0 12 1 12 -1
-4034 0;
#X obj -830 -21916 cnv 15 15 25 empty empty X 0 12 1 12 -1 -4034 0
;
#X obj -816 -21916 cnv 15 20 25 empty flashPart_duration_can 0 0 12
1 14 -1 -262144 0;
#X obj -764 -21920 cnv 15 60 25 empty empty Freq_Bgd: 0 12 1 12 -1
-4034 0;
#X obj -665 -21921 cnv 15 35 25 empty flashTrack0_freq_2_can 0 5 12
1 24 -44926 -33289 0;
#X obj -706 -21890 cnv 15 35 25 empty flashCA_freq_1_can 1 5 12 1 24
-258699 -33289 0;
#X obj -665 -21890 cnv 15 35 25 empty flashCA_freq_2_can 0 5 12 1 24
-44926 -33289 0;
#X obj -819 -21889 cnv 15 60 25 empty empty Freq_CA: 0 12 1 12 -1 -4034
0;
#X obj -765 -21890 cnv 15 35 25 empty flashCA_freq_0_can 0 5 12 1 24
-44926 -33289 0;
#X obj -872 -21893 cnv 15 35 25 empty flashBack_freq_can 9 5 12 1 24
-258699 -33289 0;
#X obj -871 -21924 cnv 15 35 25 empty flashPart_freq_can 0 5 12 1 24
-44926 -33289 0;
#X obj -924 -22016 cnv 15 80 25 empty interfaceMode_can Normal 5 12
1 24 -44926 -33289 0;
#X obj -922 -22167 cnv 15 60 25 empty empty CA_PARAMS 0 12 1 14 -1
-4034 0;
#X obj -924 -22043 cnv 15 60 25 empty empty MODE 0 12 1 14 -1 -4034
0;
#X obj -920 -22145 cnv 15 40 25 empty CAParams1_can 0.755 0 12 1 14
-1 -262144 0;
#X obj -920 -22127 cnv 15 40 25 empty CAParams2_can 0.598 0 12 1 14
-1 -262144 0;
#X obj -920 -22109 cnv 15 40 25 empty CAParams3_can 0.598 0 12 1 14
-1 -262144 0;
#X obj -920 -22092 cnv 15 40 25 empty CAParams4_can 0.606 0 12 1 14
-1 -262144 0;
#X obj -863 -22146 cnv 15 40 25 empty CAParams5_can 0.669 0 12 1 14
-1 -262144 0;
#X obj -771 -22296 cnv 15 45 25 empty empty thrshld 0 12 1 14 -1 -4034
0;
#X obj -718 -22296 cnv 15 40 25 empty videoThreshold 0 0 12 1 14 -1
-262144 0;
#X obj -662 -22318 vsl 15 80 0 1 0 0 empty echoNeg empty 0 -9 0 14
-162280 -1 -4034 0 1;
#X obj -686 -22317 vsl 15 80 0 1.01 0 0 empty echo ECHO+- 0 -9 0 14
-162280 -1 -4034 0 1;
#X obj -790 -22043 cnv 15 20 25 empty CAdecay_sign_can - 5 12 1 24
-44926 -33289 0;
#X obj -700 -22044 cnv 15 20 25 empty track1decay_sign_can - 5 12 1
24 -44926 -33289 0;
#X obj -659 -22044 cnv 15 20 25 empty track2decay_sign_can - 5 12 1
24 -44926 -33289 0;
#X obj -751 -22041 cnv 15 20 25 empty track0decay_sign_can - 5 12 1
24 -44926 -33289 0;
#X obj -797 -21977 cnv 15 60 25 empty empty PLAY 0 12 1 14 -1 -4034
0;
#X obj -760 -21979 cnv 15 35 25 empty track0replay_can _ 5 12 1 24
-44926 -33289 0;
#X obj -833 -22009 cnv 15 45 25 empty empty VIDEO 0 12 1 14 -1 -4034
0;
#X obj -786 -22011 cnv 15 15 25 empty is_VideoOn_can - 5 12 1 24 -44926
-33289 0;
#X obj -933 -21971 cnv 15 60 25 empty empty BG_sub 0 12 1 14 -1 -4034
0;
#X obj -876 -21974 cnv 15 35 25 empty initialBGSubtr_can Init 5 12
1 18 -44926 -33289 0;
#X obj -926 -22070 cnv 15 60 25 empty empty CA_spread 0 12 1 14 -1
-4034 0;
#X obj -843 -22070 cnv 15 40 25 empty CAcolorSpread_can fast 5 12 1
18 -258699 -33289 0;
#X obj -840 -21974 cnv 15 35 25 empty currentBGSubtr_can Cur 5 12 1
18 -44926 -33289 0;
#X obj -873 -21858 cnv 15 60 25 empty empty REPOPUL: 0 12 1 12 -1 -4034
0;
#X obj -766 -21861 cnv 15 35 25 empty repopulatingBG_can 0 5 12 1 18
-44926 -33289 0;
#X obj -806 -21861 cnv 15 35 25 empty repopulatingCA_can 0 5 12 1 18
-44926 -33289 0;
#X obj -768 -22180 vsl 8 128 0 1 0 0 empty CAFinalWeight empty 0 -9
0 10 -4032 -1 -1 0 1;
#X obj -727 -22181 vsl 8 128 0 1 0 0 empty trackFinalWeight_0 empty
0 -9 0 10 -4032 -1 -1 0 1;
#X obj -679 -22180 vsl 8 128 0 1 0 0 empty trackFinalWeight_1 empty
0 -9 0 10 -4032 -1 -1 0 1;
#X obj -636 -22181 vsl 8 128 0 1 0 0 empty trackFinalWeight_2 empty
0 -9 0 10 -4032 -1 -1 0 1;
#X obj -735 -22224 cnv 15 30 25 empty empty dur: 0 12 1 12 -1 -4034
0;
#X obj -713 -22226 cnv 15 30 25 empty beat_duration_can 0.5 0 12 1
18 -1 -262144 0;
#X obj -676 -22224 cnv 15 30 25 empty empty auto: 0 12 1 12 -1 -4034
0;
#X obj -645 -22226 cnv 15 7 25 empty auto_beat_can 1 0 12 1 18 -1 -262144
0;
#X obj -776 -22245 cnv 15 25 25 empty RGBpalette_hue_coef_can 3 0 12
1 14 -1 -262144 0;
#X obj -865 -22126 cnv 15 40 25 empty CAParams6_can 0.464 0 12 1 14
-1 -262144 0;
#X obj -865 -22105 cnv 15 40 25 empty CAParams7_can 0.236 0 12 1 14
-1 -262144 0;
#X obj -800 -22321 cnv 15 40 25 empty radiusParticle_can 0 0 12 1 14
-1 -262144 0;
#X obj -770 -22315 cnv 15 45 25 empty empty VIDEO 0 12 1 14 -1 -4034
0;
#X obj -706 -21921 cnv 15 35 25 empty flashTrack0_freq_1_can 0 5 12
1 24 -44926 -33289 0;
#X connect 19 0 20 0;
#X connect 19 1 21 0;
#X connect 19 2 22 0;
