#N canvas 0 50 336 680 10;
#X obj 8 6 cnv 15 310 660 empty empty empty 0 0 0 10 -1 -66577 0;
#X obj 13 12 cnv 15 90 38 empty time_can 0:51 0 19 1 48 -24198 -33289
0;
#X obj 12 137 cnv 15 60 25 empty empty BRUSH: 0 12 1 14 -1 -4034 0
;
#X obj 263 134 vsl 30 60 0 20 0 0 empty soundvolume empty 0 -12 1 20
-261682 -1 -262144 579 1;
#X obj 11 223 cnv 15 60 25 empty empty TEXT: 0 12 1 24 -1 -4034 0;
#X obj 89 224 cnv 15 130 25 empty texture_can Low_noise 0 12 1 24 -1
-262144 0;
#X obj 153 535 cnv 15 20 25 empty CAdecay_sign_can - 5 12 1 24 -44926
-33289 0;
#X obj 12 256 cnv 15 60 25 empty empty CA: 0 12 1 14 -1 -4034 0;
#X obj 74 258 cnv 15 60 25 empty CAType_can GOL 0 12 1 14 -1 -262144
0;
#X obj 11 194 cnv 15 60 25 empty empty PART: 0 12 1 24 -1 -4034 0;
#X obj 89 195 cnv 15 130 25 empty particles_can Particles 0 12 1 24
-1 -262144 0;
#X obj 11 110 cnv 15 60 25 empty empty STROKE: 0 12 1 24 -1 -4034 0
;
#X obj 120 111 cnv 15 130 25 empty drawing_can Line 0 12 1 24 -1 -262144
0;
#X obj 12 166 cnv 15 60 25 empty empty RADIUS: 0 12 1 24 -1 -4034 0
;
#X obj 127 333 cnv 15 20 50 empty palette1_can empty 0 12 1 14 -258049
-262144 0;
#X obj 148 333 cnv 15 20 50 empty palette2_can empty 0 12 1 14 -260097
-262144 0;
#X obj 11 83 cnv 15 60 25 empty empty SCENE: 0 12 1 24 -1 -4034 0;
#X obj 109 80 cnv 15 130 25 empty setup_can Bef_DanseMacabre 0 12 1
24 -1 -262144 0;
#X obj 14 57 cnv 15 140 25 empty message_can START 0 12 1 24 -1 -262144
0;
#X obj 215 12 cnv 15 100 40 empty empty empty 20 12 0 14 -233017 -66577
0;
#X obj 239 14 ctlin;
#X floatatom 219 31 5 0 0 0 - - -, f 5;
#X floatatom 250 31 5 0 0 0 - - -, f 5;
#X floatatom 282 31 5 0 0 0 - - -, f 5;
#X obj 107 12 cnv 15 105 20 empty empty empty 20 12 0 14 -233017 -66577
0;
#N canvas 421 114 380 343 initial_board 0;
#N canvas 32 579 447 279 connect 0;
#X msg 26 -14 disconnect;
#X text -110 -70 OPEN UDP CONNECTION;
#X text 19 -69 CLOSE UDP CONNECTION;
#X msg -50 42 connect 127.0.0.1 1978;
#X obj 3 68 r message;
#X obj -50 -54 inlet;
#X obj 26 -52 inlet;
#X obj 150 68 r message_SC;
#X floatatom 115 145 5 0 0 0 - - -, f 5;
#X floatatom -50 153 5 0 0 0 - - -, f 5;
#X text 197 15 SUPERCOLLIDER / sclang;
#X obj 65 -37 r disconnect;
#X obj -41 14 r connect;
#X msg 115 42 connect 192.168.0.3 57120;
#X obj 130 16 r connect;
#X obj 150 96 spigot;
#X obj 3 97 spigot;
#X text 20 13 Porphyrograph;
#X obj -50 131 netsend 1;
#X obj 115 122 netsend 1;
#X connect 0 0 18 0;
#X connect 0 0 19 0;
#X connect 3 0 18 0;
#X connect 4 0 16 0;
#X connect 5 0 3 0;
#X connect 6 0 0 0;
#X connect 7 0 15 0;
#X connect 11 0 0 0;
#X connect 12 0 3 0;
#X connect 13 0 19 0;
#X connect 15 0 19 0;
#X connect 16 0 18 0;
#X connect 18 0 9 0;
#X connect 18 0 16 1;
#X connect 19 0 8 0;
#X connect 19 0 15 1;
#X coords 0 0 10 10 0 0 0;
#X restore 32 64 pd connect;
#N canvas 0 50 1209 495 LYM_spectrum_v4 0;
#X obj 202 -254 bonk~;
#X obj 202 -224 unpack f f f f f f f f f f f;
#X floatatom 502 -25 5 0 0 0 - - -, f 5;
#X floatatom 537 -25 5 0 0 0 - - -, f 5;
#X floatatom 603 -25 5 0 0 0 - - -, f 5;
#X floatatom 639 -25 5 0 0 0 - - -, f 5;
#X floatatom 675 -25 5 0 0 0 - - -, f 5;
#X obj 559 -335 inlet;
#X obj 915 116 s message;
#X obj 397 115 s message;
#X obj 915 76 spigot;
#X obj 397 75 spigot;
#X obj 430 -335 inlet;
#X obj 338 -173 +;
#X obj 372 -172 +;
#X obj 372 -150 +;
#X obj 405 -151 +;
#X obj 405 -130 +;
#X obj 405 -108 +;
#X text 966 -236 ATTACK OUTPUT;
#X text 338 -192 Sum over 3 spectrum bands;
#X obj 338 -42 /;
#X obj 371 -42 /;
#X obj 405 -42 /;
#X obj 202 -175 +;
#X obj 202 -154 +;
#X obj 202 -133 +;
#X obj 202 -91 +;
#X obj 247 -174 +;
#X obj 247 -153 +;
#X obj 247 -111 +;
#X obj 247 -131 +;
#X obj 304 -74 +;
#X obj 202 58 pack f f;
#X obj 247 -91 +;
#X obj 202 -42 /;
#X obj 247 -42 /;
#X obj 247 -19 * 768;
#X msg 397 98 send /xy_spectrum \$1 \$2;
#X obj 881 -237 unpack f f f;
#X floatatom 974 -220 5 0 0 0 - - -, f 5;
#X obj 775 -335 inlet;
#X obj 743 119 s message;
#X obj 742 77 spigot;
#X obj 948 -335 inlet;
#X msg 742 98 send /brush_radius_vol \$1;
#X obj 247 -1 - 384;
#X obj 283 -334 loadbang;
#X msg 309 -294 minvel 0.1;
#X obj 191 -334 r startclock;
#X msg 224 -295 thresh 6 50;
#X obj 162 -294 metro 20;
#X obj 11 -333 adc~ 1 2;
#X obj 755 -115 s soundvolume;
#X obj 338 -152 +;
#X obj 202 -112 +;
#X obj 202 -20 * 768;
#X obj 202 -2 - 384;
#X msg 915 99 send /particle_acc_attack \$1;
#X text 753 -133 LOUDNESS OUTPUT;
#X text 552 -42 SPECTRUM OUTPUT;
#X obj 323 -19 s band1;
#X obj 376 -19 s band2;
#X obj 431 -20 s band3;
#X text 957 -125 Receives amplification coef;
#X text 958 -111 either from slider in PD (USB control);
#X text 958 -98 or from VirChor (keystroke control);
#X text 958 -86 sends value to VC just for visual;
#X text 955 -72 feedback;
#X obj 915 -54 * 0.1024;
#X obj 915 -32 - 0.0512;
#X text 179 -191 Sum over 2 spectrum bands;
#X floatatom 703 -129 5 0 0 0 - - -, f 5;
#X obj 56 -288 *~ 1;
#X obj 580 94 makefilename %.2f;
#X obj 742 -207 + 1;
#X obj 77 -334 r input_volume;
#N canvas 51 60 1559 883 paletteInterpoaltion 0;
#X msg 57 -215 0;
#X msg -11 -215 255;
#X obj 270 412 / 765;
#X obj 425 401 / 765;
#X obj 588 408 / 765;
#X obj 374 437 pack f f f;
#X obj -91 -298 bang;
#X msg -13 -281 255;
#X msg 321 -281 255;
#X msg 748 -281 255;
#X msg -95 265 \; palette1_can color \$1;
#X msg 308 267 \; palette2_can color \$1;
#X msg 706 267 \; palette3_can color \$1;
#X msg 749 -248 255;
#X obj 182 341 +;
#N canvas 4 105 288 291 colorRGB 0;
#X obj 16 27 inlet;
#X obj 93 28 inlet;
#X text 21 9 red;
#X text 93 11 green;
#X obj 159 107 t b f;
#X obj 93 144 +;
#X obj 93 169 t b f;
#X obj 93 200 +;
#X obj 16 84 * -65536;
#X obj 93 85 * -256;
#X obj 159 85 * -1;
#X obj 93 231 - 1;
#X obj 159 28 inlet;
#X obj 93 258 outlet;
#X text 161 11 blue;
#X obj 16 56 int;
#X obj 93 56 int;
#X obj 159 55 int;
#X connect 0 0 15 0;
#X connect 1 0 16 0;
#X connect 4 0 5 0;
#X connect 4 1 5 1;
#X connect 5 0 6 0;
#X connect 6 0 7 0;
#X connect 6 1 7 1;
#X connect 7 0 11 0;
#X connect 8 0 7 0;
#X connect 9 0 5 0;
#X connect 10 0 4 0;
#X connect 11 0 13 0;
#X connect 12 0 17 0;
#X connect 15 0 8 0;
#X connect 16 0 9 0;
#X connect 17 0 10 0;
#X restore 707 246 pd colorRGB;
#N canvas 177 329 288 291 colorRGB 0;
#X obj 16 27 inlet;
#X obj 93 28 inlet;
#X text 21 9 red;
#X text 93 11 green;
#X obj 159 107 t b f;
#X obj 93 144 +;
#X obj 93 169 t b f;
#X obj 93 200 +;
#X obj 16 84 * -65536;
#X obj 93 85 * -256;
#X obj 159 85 * -1;
#X obj 93 231 - 1;
#X obj 159 28 inlet;
#X obj 93 258 outlet;
#X text 161 11 blue;
#X obj 16 56 int;
#X obj 93 56 int;
#X obj 159 55 int;
#X connect 0 0 15 0;
#X connect 1 0 16 0;
#X connect 4 0 5 0;
#X connect 4 1 5 1;
#X connect 5 0 6 0;
#X connect 6 0 7 0;
#X connect 6 1 7 1;
#X connect 7 0 11 0;
#X connect 8 0 7 0;
#X connect 9 0 5 0;
#X connect 10 0 4 0;
#X connect 11 0 13 0;
#X connect 12 0 17 0;
#X connect 15 0 8 0;
#X connect 16 0 9 0;
#X connect 17 0 10 0;
#X restore -95 245 pd colorRGB;
#N canvas 4 105 288 291 colorRGB 0;
#X obj 16 27 inlet;
#X obj 93 28 inlet;
#X text 21 9 red;
#X text 93 11 green;
#X obj 159 107 t b f;
#X obj 93 144 +;
#X obj 93 169 t b f;
#X obj 93 200 +;
#X obj 16 84 * -65536;
#X obj 93 85 * -256;
#X obj 159 85 * -1;
#X obj 93 231 - 1;
#X obj 159 28 inlet;
#X obj 93 258 outlet;
#X text 161 11 blue;
#X obj 16 56 int;
#X obj 93 56 int;
#X obj 159 55 int;
#X connect 0 0 15 0;
#X connect 1 0 16 0;
#X connect 4 0 5 0;
#X connect 4 1 5 1;
#X connect 5 0 6 0;
#X connect 6 0 7 0;
#X connect 6 1 7 1;
#X connect 7 0 11 0;
#X connect 8 0 7 0;
#X connect 9 0 5 0;
#X connect 10 0 4 0;
#X connect 11 0 13 0;
#X connect 12 0 17 0;
#X connect 15 0 8 0;
#X connect 16 0 9 0;
#X connect 17 0 10 0;
#X restore 309 243 pd colorRGB;
#X obj -91 -265 bang;
#X obj -89 -232 bang;
#X obj -90 -200 bang;
#X obj -92 -169 bang;
#X obj -88 -142 bang;
#X obj -91 -115 bang;
#X obj -23 -323 r RGBspectrum;
#X obj -67 38 expr if ($f1 < 1 \, (1 - $f1) * $f2 + $f1 * $f3 \, if($f1
< 2 \, (2- $f1) * $f3 + ($f1 - 1) * $f4 \, if($f1 < 3 \, (3 - $f1)
* $f4 + ($f1 - 2) * $f5 \, if($f1 < 4 \, (4 - $f1) * $f5 + ($f1 - 3)
* $f6 \, if($f1 < 5 \, (5 - $f1) * $f6 + ($f1 - 4) * $f7 \, if($f1
< 6 \, (6 - $f1) * $f7 + ($f1 - 5) * $f8 \, (7 - $f1) * $f8 + ($f1
- 6) * $f2))))));
#X obj -95 -68 expr if ($f1 < 1 \, (1 - $f1) * $f2 + $f1 * $f3 \, if($f1
< 2 \, (2- $f1) * $f3 + ($f1 - 1) * $f4 \, if($f1 < 3 \, (3 - $f1)
* $f4 + ($f1 - 2) * $f5 \, if($f1 < 4 \, (4 - $f1) * $f5 + ($f1 - 3)
* $f6 \, if($f1 < 5 \, (5 - $f1) * $f6 + ($f1 - 4) * $f7 \, if($f1
< 6 \, (6 - $f1) * $f7 + ($f1 - 5) * $f8 \, (7 - $f1) * $f8 + ($f1
- 6) * $f2))))));
#X obj -54 148 expr if ($f1 < 1 \, (1 - $f1) * $f2 + $f1 * $f3 \, if($f1
< 2 \, (2- $f1) * $f3 + ($f1 - 1) * $f4 \, if($f1 < 3 \, (3 - $f1)
* $f4 + ($f1 - 2) * $f5 \, if($f1 < 4 \, (4 - $f1) * $f5 + ($f1 - 3)
* $f6 \, if($f1 < 5 \, (5 - $f1) * $f6 + ($f1 - 4) * $f7 \, if($f1
< 6 \, (6 - $f1) * $f7 + ($f1 - 5) * $f8 \, (7 - $f1) * $f8 + ($f1
- 6) * $f2))))));
#X obj 309 -69 expr if ($f1 < 1 \, (1 - $f1) * $f2 + $f1 * $f3 \, if($f1
< 2 \, (2- $f1) * $f3 + ($f1 - 1) * $f4 \, if($f1 < 3 \, (3 - $f1)
* $f4 + ($f1 - 2) * $f5 \, if($f1 < 4 \, (4 - $f1) * $f5 + ($f1 - 3)
* $f6 \, if($f1 < 5 \, (5 - $f1) * $f6 + ($f1 - 4) * $f7 \, if($f1
< 6 \, (6 - $f1) * $f7 + ($f1 - 5) * $f8 \, (7 - $f1) * $f8 + ($f1
- 6) * $f2))))));
#X obj 340 35 expr if ($f1 < 1 \, (1 - $f1) * $f2 + $f1 * $f3 \, if($f1
< 2 \, (2- $f1) * $f3 + ($f1 - 1) * $f4 \, if($f1 < 3 \, (3 - $f1)
* $f4 + ($f1 - 2) * $f5 \, if($f1 < 4 \, (4 - $f1) * $f5 + ($f1 - 3)
* $f6 \, if($f1 < 5 \, (5 - $f1) * $f6 + ($f1 - 4) * $f7 \, if($f1
< 6 \, (6 - $f1) * $f7 + ($f1 - 5) * $f8 \, (7 - $f1) * $f8 + ($f1
- 6) * $f2))))));
#X obj 349 145 expr if ($f1 < 1 \, (1 - $f1) * $f2 + $f1 * $f3 \, if($f1
< 2 \, (2- $f1) * $f3 + ($f1 - 1) * $f4 \, if($f1 < 3 \, (3 - $f1)
* $f4 + ($f1 - 2) * $f5 \, if($f1 < 4 \, (4 - $f1) * $f5 + ($f1 - 3)
* $f6 \, if($f1 < 5 \, (5 - $f1) * $f6 + ($f1 - 4) * $f7 \, if($f1
< 6 \, (6 - $f1) * $f7 + ($f1 - 5) * $f8 \, (7 - $f1) * $f8 + ($f1
- 6) * $f2))))));
#X obj 707 -67 expr if ($f1 < 1 \, (1 - $f1) * $f2 + $f1 * $f3 \, if($f1
< 2 \, (2- $f1) * $f3 + ($f1 - 1) * $f4 \, if($f1 < 3 \, (3 - $f1)
* $f4 + ($f1 - 2) * $f5 \, if($f1 < 4 \, (4 - $f1) * $f5 + ($f1 - 3)
* $f6 \, if($f1 < 5 \, (5 - $f1) * $f6 + ($f1 - 4) * $f7 \, if($f1
< 6 \, (6 - $f1) * $f7 + ($f1 - 5) * $f8 \, (7 - $f1) * $f8 + ($f1
- 6) * $f2))))));
#X obj 738 38 expr if ($f1 < 1 \, (1 - $f1) * $f2 + $f1 * $f3 \, if($f1
< 2 \, (2- $f1) * $f3 + ($f1 - 1) * $f4 \, if($f1 < 3 \, (3 - $f1)
* $f4 + ($f1 - 2) * $f5 \, if($f1 < 4 \, (4 - $f1) * $f5 + ($f1 - 3)
* $f6 \, if($f1 < 5 \, (5 - $f1) * $f6 + ($f1 - 4) * $f7 \, if($f1
< 6 \, (6 - $f1) * $f7 + ($f1 - 5) * $f8 \, (7 - $f1) * $f8 + ($f1
- 6) * $f2))))));
#X obj 773 144 expr if ($f1 < 1 \, (1 - $f1) * $f2 + $f1 * $f3 \, if($f1
< 2 \, (2- $f1) * $f3 + ($f1 - 1) * $f4 \, if($f1 < 3 \, (3 - $f1)
* $f4 + ($f1 - 2) * $f5 \, if($f1 < 4 \, (4 - $f1) * $f5 + ($f1 - 3)
* $f6 \, if($f1 < 5 \, (5 - $f1) * $f6 + ($f1 - 4) * $f7 \, if($f1
< 6 \, (6 - $f1) * $f7 + ($f1 - 5) * $f8 \, (7 - $f1) * $f8 + ($f1
- 6) * $f2))))));
#X obj 478 462 spigot;
#X obj 510 -323 inlet;
#X obj 478 484 outlet;
#X obj 158 317 *;
#X obj 132 294 r band1;
#X obj 219 320 *;
#X obj 290 323 *;
#X obj 213 298 r band2;
#X obj 271 299 r band3;
#X obj 238 373 +;
#X obj 484 352 +;
#X obj 460 328 *;
#X obj 528 331 *;
#X obj 592 334 *;
#X obj 540 384 +;
#X obj 693 353 +;
#X obj 669 329 *;
#X obj 737 332 *;
#X obj 801 335 *;
#X obj 749 391 +;
#X obj 437 305 r band1;
#X obj 518 309 r band2;
#X obj 576 310 r band3;
#X obj 647 307 r band1;
#X obj 728 311 r band2;
#X obj 786 312 r band3;
#X msg 20 -281 0;
#X msg 55 -281 0;
#X msg 288 -281 0;
#X msg 352 -281 0;
#X msg 679 -281 0;
#X msg 714 -281 0;
#X msg -13 -248 255;
#X msg 21 -248 0;
#X msg 56 -248 255;
#X msg 289 -248 0;
#X msg 322 -248 0;
#X msg 354 -248 255;
#X msg 680 -248 0;
#X msg 715 -248 255;
#X msg 22 -215 0;
#X msg 355 -215 0;
#X msg 717 -215 255;
#X msg 751 -215 0;
#X msg 681 -215 255;
#X msg 322 -215 128;
#X msg 290 -215 255;
#X msg -13 -183 2;
#X msg 21 -183 132;
#X msg 55 -183 130;
#X msg 288 -183 122;
#X msg 321 -183 186;
#X msg 353 -183 122;
#X msg 679 -183 183;
#X msg 713 -183 110;
#X msg 747 -98 184;
#X msg 749 -183 184;
#X msg -15 -152 255;
#X msg 18 -152 0;
#X msg 286 -152 255;
#X msg 53 -152 255;
#X msg 319 -152 0;
#X msg 351 -152 0;
#X msg 677 -152 255;
#X msg 712 -152 255;
#X msg 747 -152 0;
#X msg -17 -125 0;
#X msg 17 -125 255;
#X msg 51 -125 255;
#X text 810 -283 R G B;
#X text 808 -214 fire: red orange yellow;
#X text 807 -249 water: magenta blue cyan;
#X text 809 -151 reddish: magenta red yellow;
#X text 810 -124 C M J;
#X msg 51 -125 255;
#X msg 284 -125 255;
#X msg 317 -125 0;
#X msg 348 -125 255;
#X msg 675 -125 255;
#X msg 710 -125 255;
#X msg 745 -125 0;
#X msg -14 -98 128;
#X msg 19 -98 128;
#X msg 54 -98 255;
#X msg 287 -98 255;
#X msg 320 -98 255;
#X msg 351 -98 255;
#X msg 678 -98 0;
#X msg 713 -98 0;
#X msg 747 -98 255;
#X text 807 -184 angel: slate green purple;
#X text 812 -99 air: light blue white blue;
#X connect 0 0 27 3;
#X connect 1 0 26 3;
#X connect 2 0 5 0;
#X connect 3 0 5 1;
#X connect 4 0 5 2;
#X connect 5 0 34 0;
#X connect 6 0 60 0;
#X connect 6 0 61 0;
#X connect 6 0 62 0;
#X connect 6 0 8 0;
#X connect 6 0 63 0;
#X connect 6 0 64 0;
#X connect 6 0 65 0;
#X connect 6 0 9 0;
#X connect 6 0 7 0;
#X connect 7 0 26 1;
#X connect 8 0 29 1;
#X connect 9 0 33 1;
#X connect 13 0 33 2;
#X connect 14 0 43 0;
#X connect 15 0 12 0;
#X connect 16 0 10 0;
#X connect 17 0 11 0;
#X connect 18 0 69 0;
#X connect 18 0 70 0;
#X connect 18 0 71 0;
#X connect 18 0 72 0;
#X connect 18 0 73 0;
#X connect 18 0 13 0;
#X connect 18 0 66 0;
#X connect 18 0 68 0;
#X connect 18 0 67 0;
#X connect 19 0 74 0;
#X connect 19 0 0 0;
#X connect 19 0 80 0;
#X connect 19 0 79 0;
#X connect 19 0 75 0;
#X connect 19 0 78 0;
#X connect 19 0 76 0;
#X connect 19 0 77 0;
#X connect 19 0 1 0;
#X connect 20 0 82 0;
#X connect 20 0 83 0;
#X connect 20 0 84 0;
#X connect 20 0 85 0;
#X connect 20 0 86 0;
#X connect 20 0 87 0;
#X connect 20 0 88 0;
#X connect 20 0 90 0;
#X connect 20 0 81 0;
#X connect 21 0 92 0;
#X connect 21 0 94 0;
#X connect 21 0 93 0;
#X connect 21 0 95 0;
#X connect 21 0 96 0;
#X connect 21 0 97 0;
#X connect 21 0 98 0;
#X connect 21 0 99 0;
#X connect 21 0 91 0;
#X connect 22 0 101 0;
#X connect 22 0 102 0;
#X connect 22 0 109 0;
#X connect 22 0 110 0;
#X connect 22 0 111 0;
#X connect 22 0 112 0;
#X connect 22 0 113 0;
#X connect 22 0 114 0;
#X connect 22 0 100 0;
#X connect 23 0 116 0;
#X connect 23 0 117 0;
#X connect 23 0 118 0;
#X connect 23 0 119 0;
#X connect 23 0 120 0;
#X connect 23 0 121 0;
#X connect 23 0 122 0;
#X connect 23 0 123 0;
#X connect 23 0 115 0;
#X connect 24 0 25 0;
#X connect 24 0 26 0;
#X connect 24 0 27 0;
#X connect 24 0 28 0;
#X connect 24 0 29 0;
#X connect 24 0 30 0;
#X connect 24 0 31 0;
#X connect 24 0 32 0;
#X connect 24 0 33 0;
#X connect 24 0 6 0;
#X connect 24 0 18 0;
#X connect 24 0 19 0;
#X connect 24 0 20 0;
#X connect 24 0 21 0;
#X connect 24 0 22 0;
#X connect 24 0 23 0;
#X connect 25 0 16 1;
#X connect 25 0 45 1;
#X connect 26 0 16 0;
#X connect 26 0 37 1;
#X connect 27 0 16 2;
#X connect 27 0 50 1;
#X connect 28 0 17 0;
#X connect 28 0 39 1;
#X connect 29 0 17 1;
#X connect 29 0 46 1;
#X connect 30 0 17 2;
#X connect 30 0 51 1;
#X connect 31 0 15 0;
#X connect 31 0 40 1;
#X connect 32 0 15 1;
#X connect 32 0 47 1;
#X connect 33 0 15 2;
#X connect 33 0 52 1;
#X connect 34 0 36 0;
#X connect 35 0 34 1;
#X connect 37 0 14 0;
#X connect 38 0 37 0;
#X connect 39 0 14 1;
#X connect 40 0 43 1;
#X connect 41 0 39 0;
#X connect 42 0 40 0;
#X connect 43 0 2 0;
#X connect 44 0 48 0;
#X connect 45 0 44 0;
#X connect 46 0 44 1;
#X connect 47 0 48 1;
#X connect 48 0 3 0;
#X connect 49 0 53 0;
#X connect 50 0 49 0;
#X connect 51 0 49 1;
#X connect 52 0 53 1;
#X connect 53 0 4 0;
#X connect 54 0 45 0;
#X connect 55 0 46 0;
#X connect 56 0 47 0;
#X connect 57 0 50 0;
#X connect 58 0 51 0;
#X connect 59 0 52 0;
#X connect 60 0 25 1;
#X connect 61 0 27 1;
#X connect 62 0 28 1;
#X connect 63 0 30 1;
#X connect 64 0 31 1;
#X connect 65 0 32 1;
#X connect 66 0 26 2;
#X connect 67 0 25 2;
#X connect 68 0 27 2;
#X connect 69 0 28 2;
#X connect 70 0 29 2;
#X connect 71 0 30 2;
#X connect 72 0 31 2;
#X connect 73 0 32 2;
#X connect 74 0 25 3;
#X connect 75 0 30 3;
#X connect 76 0 32 3;
#X connect 77 0 33 3;
#X connect 78 0 31 3;
#X connect 79 0 29 3;
#X connect 80 0 28 3;
#X connect 81 0 26 4;
#X connect 82 0 25 4;
#X connect 83 0 27 4;
#X connect 84 0 28 4;
#X connect 85 0 29 4;
#X connect 86 0 30 4;
#X connect 87 0 31 4;
#X connect 88 0 32 4;
#X connect 90 0 33 4;
#X connect 91 0 26 5;
#X connect 92 0 25 5;
#X connect 93 0 28 5;
#X connect 94 0 27 5;
#X connect 95 0 29 5;
#X connect 96 0 30 5;
#X connect 97 0 31 5;
#X connect 98 0 32 5;
#X connect 99 0 33 5;
#X connect 100 0 26 6;
#X connect 101 0 25 6;
#X connect 102 0 27 6;
#X connect 109 0 28 6;
#X connect 110 0 29 6;
#X connect 111 0 30 6;
#X connect 112 0 31 6;
#X connect 113 0 32 6;
#X connect 114 0 33 6;
#X connect 115 0 26 7;
#X connect 116 0 25 7;
#X connect 117 0 27 7;
#X connect 118 0 28 7;
#X connect 119 0 29 7;
#X connect 120 0 30 7;
#X connect 121 0 31 7;
#X connect 122 0 32 7;
#X connect 123 0 33 7;
#X restore 559 23 pd paletteInterpoaltion;
#X obj 559 61 s message;
#X msg 559 44 send /color_spectrum \$1 \$2 \$3;
#X obj 405 -172 +;
#X msg 580 111 \; radius_vol_can label \$1;
#X connect 0 0 1 0;
#X connect 0 1 39 0;
#X connect 1 0 13 0;
#X connect 1 0 24 0;
#X connect 1 1 13 1;
#X connect 1 1 24 1;
#X connect 1 2 25 1;
#X connect 1 2 54 1;
#X connect 1 3 26 1;
#X connect 1 3 14 0;
#X connect 1 4 55 1;
#X connect 1 4 14 1;
#X connect 1 5 28 0;
#X connect 1 5 27 1;
#X connect 1 5 75 0;
#X connect 1 5 15 1;
#X connect 1 6 28 1;
#X connect 1 6 80 0;
#X connect 1 7 29 1;
#X connect 1 7 80 1;
#X connect 1 8 31 1;
#X connect 1 8 16 1;
#X connect 1 9 17 1;
#X connect 1 9 30 1;
#X connect 1 10 18 1;
#X connect 1 10 34 1;
#X connect 7 0 77 0;
#X connect 10 0 58 0;
#X connect 11 0 38 0;
#X connect 12 0 11 1;
#X connect 13 0 54 0;
#X connect 14 0 15 0;
#X connect 15 0 22 0;
#X connect 16 0 17 0;
#X connect 17 0 18 0;
#X connect 18 0 23 0;
#X connect 21 0 4 0;
#X connect 21 0 61 0;
#X connect 22 0 5 0;
#X connect 22 0 62 0;
#X connect 23 0 6 0;
#X connect 23 0 63 0;
#X connect 24 0 25 0;
#X connect 25 0 26 0;
#X connect 26 0 55 0;
#X connect 27 0 35 0;
#X connect 27 0 32 0;
#X connect 28 0 29 0;
#X connect 29 0 31 0;
#X connect 30 0 34 0;
#X connect 31 0 30 0;
#X connect 32 0 36 1;
#X connect 32 0 35 1;
#X connect 32 0 21 1;
#X connect 32 0 22 1;
#X connect 32 0 23 1;
#X connect 33 0 11 0;
#X connect 34 0 36 0;
#X connect 34 0 32 1;
#X connect 35 0 56 0;
#X connect 35 0 2 0;
#X connect 36 0 37 0;
#X connect 36 0 3 0;
#X connect 37 0 46 0;
#X connect 38 0 9 0;
#X connect 39 1 40 0;
#X connect 39 1 69 0;
#X connect 41 0 43 1;
#X connect 43 0 45 0;
#X connect 43 0 74 0;
#X connect 44 0 10 1;
#X connect 45 0 42 0;
#X connect 46 0 33 1;
#X connect 47 0 50 0;
#X connect 47 0 51 0;
#X connect 47 0 48 0;
#X connect 48 0 0 0;
#X connect 49 0 50 0;
#X connect 49 0 51 0;
#X connect 49 0 48 0;
#X connect 50 0 0 0;
#X connect 51 0 0 0;
#X connect 52 0 73 0;
#X connect 52 1 73 0;
#X connect 54 0 21 0;
#X connect 55 0 27 0;
#X connect 56 0 57 0;
#X connect 57 0 33 0;
#X connect 58 0 8 0;
#X connect 69 0 70 0;
#X connect 70 0 10 0;
#X connect 73 0 0 0;
#X connect 74 0 81 0;
#X connect 75 0 53 0;
#X connect 75 0 72 0;
#X connect 75 0 43 0;
#X connect 76 0 73 1;
#X connect 77 0 79 0;
#X connect 79 0 78 0;
#X connect 80 0 16 0;
#X restore 33 281 pd LYM_spectrum_v4;
#X obj 33 221 tgl 15 0 empty empty empty 17 7 0 10 -262144 -1 -1 0
1;
#X obj 33 236 tgl 15 0 empty empty empty 17 7 0 10 -262144 -1 -1 1
1;
#X obj 33 251 tgl 15 0 empty empty empty 17 7 0 10 -262144 -1 -1 1
1;
#X obj 33 266 tgl 15 0 empty empty empty 17 7 0 10 -262144 -1 -1 1
1;
#X text 35 156 music control;
#X obj 32 47 bng 15 250 50 0 empty empty empty 0 -6 0 8 -24198 -1 -1
;
#X obj 89 47 bng 15 250 50 0 empty empty empty 0 -6 0 8 -258699 -1
-1;
#X obj 32 29 loadbang;
#X text 28 12 UDP connection;
#X text 53 221 1: xy-spectrum;
#X text 53 237 2: color-spectrum;
#X obj 33 190 bng 15 250 50 0 empty empty empty 17 7 0 10 -262144 -1
-1;
#X obj 33 173 loadbang;
#X msg 33 205 1;
#N canvas 383 124 1445 704 MIDIControl_Faders 0;
#X obj 27 -339 vsl 15 128 0 1 0 0 empty empty empty 0 -8 0 8 -162280
-1 -1 12700 1;
#X obj 326 -378 bng 15 250 50 0 empty empty empty 17 7 0 10 -262144
-1 -1;
#X obj 326 -394 loadbang;
#X obj 11 -184 s message;
#X obj 823 -124 ctlin;
#X floatatom 796 -98 5 0 0 0 - - -, f 5;
#X floatatom 836 -98 5 0 0 0 - - -, f 5;
#X floatatom 875 -98 5 0 0 0 - - -, f 5;
#X obj 418 -240 / 127;
#X obj 419 -333 / 127;
#X obj 417 -289 / 127;
#X obj 54 -312 / 127;
#X obj 976 -384 bng 15 250 50 0 empty empty empty 0 -6 0 8 -262144
-1 -1;
#X obj 976 -351 vsl 15 128 0 2 0 0 0 empty empty 0 -8 0 8 -262144 -1
-1 0 1;
#X obj 1006 -351 vsl 15 128 0 50 0 0 0 empty empty 0 -8 0 8 -262144
-1 -1 0 1;
#X obj 991 -351 vsl 15 128 0 4 0 0 0 empty empty 0 -8 0 8 -262144 -1
-1 0 1;
#X msg 992 -369 0;
#X msg 1005 -369 0;
#X obj 977 -400 loadbang;
#X msg 976 -369 0;
#X text 972 -417 MUSIC CONTROL;
#X obj 1561 -7 bng 15 250 50 0 empty empty empty 17 7 0 10 -262144
-1 -1;
#X obj 1561 -23 loadbang;
#X msg 1561 8 0;
#X obj 1561 188 s message;
#X obj 10 31 vsl 15 128 0 0.01 0 0 empty empty empty 0 -8 0 8 -262144
-1 -1 0 1;
#X obj 10 -5 bng 15 250 50 0 empty empty empty 17 7 0 10 -262144 -1
-1;
#X obj 10 -24 loadbang;
#X msg 10 11 0;
#X obj 9 179 s message;
#X obj 1589 30 ctlin 13 3;
#X obj 11 -339 vsl 15 128 0 1 0 0 empty empty empty 0 -8 0 8 -162280
-1 -1 12700 1;
#X obj 12 -378 bng 15 250 50 0 empty empty empty 17 7 0 10 -262144
-1 -1;
#X obj 12 -394 loadbang;
#X obj 1073 -324 / 32;
#X obj 57 -269 ctlin 7 2;
#X obj 88 -312 * -1;
#X obj 55 -295 + 1;
#X obj 92 -252 * -1;
#X obj 124 -252 + 1;
#X obj 1222 25 vsl 15 128 1 100 0 0 empty empty empty 0 -8 0 8 -262144
-1 -1 0 1;
#X obj 1222 -8 bng 15 250 50 0 empty empty empty 17 7 0 10 -262144
-1 -1;
#X obj 1220 -25 loadbang;
#X msg 1223 7 0;
#X obj 1224 177 s message;
#X obj 1253 20 ctlin 7 3;
#X obj 54 -329 ctlin 7 1;
#X text 9 -414 LOCAL GRAY;
#X obj 1350 28 vsl 15 128 1e-005 1 0 0 empty empty empty 0 -8 0 8 -262144
-1 -1 12700 1;
#X obj 1351 -5 bng 15 250 50 0 empty empty empty 17 7 0 10 -262144
-1 -1;
#X obj 1351 -21 loadbang;
#X obj 1394 35 ctlin 7 4;
#X obj 1074 -385 ctlin 13 6;
#X obj 1073 -340 ctlin 12 6;
#X obj 1070 -297 ctlin 10 6;
#X obj 40 58 ctlin 7 7;
#X msg 32 -357 1;
#X obj 1235 -349 vsl 15 128 0 1 0 0 empty empty empty 0 -8 0 8 -262144
-1 -1 12700 1;
#X obj 1235 -382 bng 15 250 50 0 empty empty empty 17 7 0 10 -262144
-1 -1;
#X obj 1235 -398 loadbang;
#X obj 1235 -154 s message;
#X obj 1250 -349 vsl 15 128 0 1 0 0 empty empty empty 0 -8 0 8 -262144
-1 -1 12700 1;
#X obj 1294 -343 ctlin 13 8;
#X obj 1295 -279 ctlin 13 7;
#X msg 1219 -367 1;
#X msg 1250 -367 1;
#X obj 1295 -309 + 1;
#X obj 1295 -326 / -127;
#X obj 1295 -262 / -127;
#X obj 1295 -245 + 1;
#X obj 115 29 vsl 15 128 0 0.01 0 0 empty empty empty 0 -8 0 8 -262144
-1 -1 0 1;
#X obj 141 57 ctlin 7 8;
#X text 1231 -416 WEIGHTINGS GOL/DRAWING;
#X obj 217 23 vsl 15 128 0 7 0 0 empty empty empty 0 -8 0 8 -262144
-1 -1 0 1;
#X obj 217 -10 bng 15 250 50 0 empty empty empty 17 7 0 10 -262144
-1 -1;
#X obj 217 -26 loadbang;
#X msg 217 5 0;
#X obj 133 171 s message;
#X obj 330 29 vsl 15 128 0 0.1 0 0 empty empty empty 0 -8 0 8 -262144
-1 -1 0 1;
#X obj 318 -8 bng 15 250 50 0 empty empty empty 17 7 0 10 -262144 -1
-1;
#X obj 318 -24 loadbang;
#X obj 190 -316 / 127;
#X obj 166 -343 vsl 15 128 0 1 0 0 empty empty empty 0 -8 0 8 -162280
-1 -1 0 1;
#X obj 166 -376 bng 15 250 50 0 empty empty empty 17 7 0 10 -262144
-1 -1;
#X obj 166 -392 loadbang;
#X msg 166 -361 0;
#X obj 166 -195 s message;
#X obj 224 -315 * -1;
#X obj 252 -315 + 1;
#X text 162 -413 TRANSPARENCY BLEND;
#X obj 190 -332 ctlin 28 1;
#X obj 1460 26 vsl 15 128 1e-005 1 0 0 empty empty empty 0 -8 0 8 -262144
-1 -1 12700 1;
#X obj 1460 -7 bng 15 250 50 0 empty empty empty 17 7 0 10 -262144
-1 -1;
#X obj 1460 -25 loadbang;
#X obj 1460 174 s message;
#X msg 1460 157 send /echo \$1;
#X text 1457 -43 ECHO;
#X obj 1492 42 ctlin 7 5;
#X msg 330 9 0;
#X obj 1021 -350 vsl 15 128 0 0.4 0 0 0 empty empty 0 -8 0 8 -262144
-1 -1 0 1;
#X msg 1028 -369 0;
#X obj 1070 -248 ctlin 7 6;
#X msg 1222 160 send /brushRadius \$1;
#X obj 316 29 vsl 15 128 0 0.1 0 0 empty empty empty 0 -8 0 8 -262144
-1 -1 0 1;
#X obj 261 212 s message;
#X msg 316 9 0;
#X obj 316 178 -;
#X text 317 -43 PART ACCE;
#X obj 1070 -280 / 2.54;
#X text 213 -44 TEXTURES;
#X msg 134 154 send /particle_texture_ID \$1;
#X obj 442 26 vsl 15 128 0 7 0 0 empty empty empty 0 -8 0 8 -262144
-1 -1 0 1;
#X obj 442 -7 bng 15 250 50 0 empty empty empty 17 7 0 10 -262144 -1
-1;
#X obj 441 -23 loadbang;
#X msg 442 8 0;
#X obj 475 28 / 18;
#X text 433 -41 PALETTES;
#X obj 783 38 vradio 15 1 0 3 empty empty empty 0 -8 0 10 -262144 -1
-1 0;
#X obj 783 -9 bng 15 250 50 0 empty empty empty 17 7 0 10 -262144 -1
-1;
#X obj 783 -25 loadbang;
#X msg 783 6 0;
#X obj 671 39 vradio 15 1 0 9 empty empty empty 0 -8 0 10 -262144 -1
-1 0;
#X obj 671 -8 bng 15 250 50 0 empty empty empty 17 7 0 10 -262144 -1
-1;
#X obj 671 -24 loadbang;
#X msg 671 7 0;
#X text 776 -43 DRAWING MODES;
#X obj 783 142 s message;
#X obj 707 22 / 14;
#X obj 671 191 s message;
#X obj 891 38 vradio 15 1 0 3 empty empty empty 0 -8 0 10 -262144 -1
-1 0;
#X obj 891 -9 bng 15 250 50 0 empty empty empty 17 7 0 10 -262144 -1
-1;
#X obj 891 -25 loadbang;
#X msg 891 6 0;
#X obj 842 100 s message;
#X text 884 -43 PARTICLE MODES;
#X obj 927 21 / 42;
#X text 1561 -50 TRACK INTERP SPEED;
#X msg 115 10 0;
#X obj 115 -4 bng 15 250 50 0 empty empty empty 17 7 0 10 -262144 -1
-1;
#X obj 115 -23 loadbang;
#X obj 81 211 s message;
#X text 9 -45 GOL DECAY;
#X text 110 -44 DRAWING DECAY;
#X obj 326 -63 s message;
#X msg 1561 168 send /track_interp_size \$1;
#X obj 1561 26 vsl 15 128 1 100 1 0 empty empty empty 0 -8 0 8 -262144
-1 -1 0 1;
#X obj 1589 63 + 100;
#X obj 1589 46 / -1.27;
#X obj 1668 -7 bng 15 250 50 0 empty empty empty 17 7 0 10 -262144
-1 -1;
#X obj 1668 -23 loadbang;
#X msg 1668 8 0;
#X obj 1668 26 vsl 15 128 1 20 0 0 empty empty empty 0 -8 0 8 -262144
-1 -1 0 1;
#X text 1606 -37 TRACK REPLAY SPEED SCALE;
#X obj 1694 42 ctlin 12 3;
#X msg 1558 223 send /track_replay_speed_scale \$1;
#X obj 1694 59 / 6.03;
#X obj 1010 180 s input_volume;
#X obj 1003 15 vsl 15 128 0.005 1.005 0 0 empty empty empty 0 -9 0
10 -262144 -1 -1 0 1;
#X text 1001 -42 INPUT VOLUME;
#X obj 1668 240 s message;
#X obj 241 65 / 18;
#X obj 709 -354 vsl 15 128 0 70 0 0 empty empty empty 0 -8 0 8 -262144
-1 -1 0 1;
#X obj 709 -387 bng 15 250 50 0 empty empty empty 17 7 0 10 -262144
-1 -1;
#X obj 709 -403 loadbang;
#X msg 709 -372 0;
#X obj 709 -142 s message;
#X msg 709 -159 send /flashPart_duration \$1;
#X obj 821 -388 bng 15 250 50 0 empty empty empty 17 7 0 10 -262144
-1 -1;
#X obj 821 -404 loadbang;
#X obj 746 -183 s message;
#X text 723 -422 FLASH TRACK NUMBER;
#X obj 742 -352 / 1.8;
#X obj 709 -176 int;
#X obj 562 40 vradio 15 1 0 9 empty empty empty 0 -8 0 10 -262144 -1
-1 0;
#X obj 562 -7 bng 15 250 50 0 empty empty empty 17 7 0 10 -262144 -1
-1;
#X obj 562 -23 loadbang;
#X msg 562 8 0;
#X obj 598 23 / 14;
#X obj 562 192 s message;
#X text 539 -41 CELL AUTOMATA TYPES;
#X msg 562 175 send /CAType \$1;
#X obj 819 21 / 42;
#X obj 330 161 t b f;
#X obj 1250 -195 s message;
#X obj 1070 -231 / 635;
#X msg 671 174 send /CASubType \$1;
#X text 661 -41 AND SUB-TYPES;
#X obj 819 4 ctlin 12 8;
#X obj 707 5 ctlin 10 7;
#X obj 598 6 ctlin 12 7;
#X obj 1352 182 s message;
#X text 1346 -42 ECHO_NEG;
#X msg 1350 165 send /echoNeg \$1;
#X obj 1445 -350 vradio 15 1 0 5 empty empty empty 0 -8 0 10 -262144
-1 -1 0;
#X obj 1444 -382 bng 15 250 50 0 empty empty empty 17 7 0 10 -262144
-1 -1;
#X obj 1444 -398 loadbang;
#X msg 1444 -367 0;
#X obj 1342 -86 s message;
#X obj 1477 -354 ctlin 10 2;
#X obj 1445 -275 route 0 1 2 3 4;
#X obj 1477 -336 / 30;
#X msg 1445 -246 0.5;
#X msg 1528 -250 0.5;
#X msg 1459 -221 0.5;
#X msg 1542 -225 0.1;
#X msg 1468 -195 0.5;
#X msg 1546 -196 0.9;
#X msg 1556 -169 0.5;
#X msg 1566 -141 0.5;
#X msg 1479 -169 0.1;
#X msg 1489 -141 0.9;
#X obj 1074 -369 / 32;
#X msg 11 -357 1;
#X obj 57 -252 / 127;
#X obj 326 -333 vradio 15 1 0 9 empty empty empty 0 -8 0 10 -262144
-1 -1 0;
#X obj 341 -323 vradio 15 1 0 9 empty empty empty 0 -8 0 10 -262144
-1 -1 0;
#X obj 356 -313 vradio 15 1 0 9 empty empty empty 0 -8 0 10 -262144
-1 -1 0;
#X obj 415 -197 / 127;
#X obj 371 -299 vradio 15 1 0 9 empty empty empty 0 -8 0 10 -262144
-1 -1 0;
#X text 341 -413 FLASH FREQUENCY;
#X text 602 -422 FLASH PART DURATION;
#X text 1216 -45 BRUSH RADIUS;
#X text 1437 -416 PARTICLE ACC CENTER;
#X obj 452 -240 * 8;
#X obj 453 -333 * 8;
#X obj 451 -288 * 8;
#X obj 449 -197 * 8;
#X msg 326 -352 0;
#X msg 342 -353 0;
#X msg 361 -352 0;
#X msg 377 -351 0;
#X obj 854 -348 / 127;
#X msg 821 -373 1;
#X obj 1104 26 vradio 15 1 0 8 empty empty empty 0 -8 0 10 -262144
-1 -1 0;
#X obj 1104 -14 bng 15 250 50 0 empty empty empty 17 7 0 10 -262144
-1 -1;
#X obj 1104 -30 loadbang;
#X msg 1104 1 0;
#X obj 1103 164 s message;
#X text 1101 -49 BRUSHES;
#X msg 1104 147 send /brushID \$1;
#X obj 1140 16 / 127;
#X obj 1140 33 * 7;
#X obj 1140 -1 ctlin 10 8;
#X obj 418 -256 ctlin 13 5;
#X obj 418 -349 ctlin 12 5;
#X obj 417 -305 ctlin 10 5;
#X obj 353 42 ctlin 13 2;
#X obj 356 92 ctlin 12 2;
#X obj 241 49 ctlin 12 1;
#X obj 475 11 ctlin 13 1;
#X obj 927 4 ctlin 10 1;
#X obj 790 -317 route 0 1 2 3 4 5;
#X obj 888 -349 * 5;
#X obj 799 -332 hradio 15 1 0 6 empty empty empty 0 -8 0 10 -262144
-1 -1 1;
#X msg 746 -228 send /flashCA_number \$1;
#X msg 762 -208 send /flashTrack0_number \$1;
#X msg 777 -292 0;
#X msg 787 -282 1;
#X msg 797 -272 2;
#X msg 838 -274 1;
#X msg 874 -274 2;
#X obj 140 73 / 12700;
#X msg 1006 -181 send /brush_radius_vol_coef \$1;
#X obj 1021 -102 s message;
#X msg 976 -136 send /xy_spectrum_coef \$1;
#X msg 991 -159 send /color_spectrum_coef \$1;
#X msg 10 162 send /CAdecay \$1;
#X msg 81 194 send /trackdecay \$1;
#X msg 842 83 send /particleMode \$1;
#X msg 166 -212 send /blendTransp \$1;
#X msg 1250 -212 send /trackweight \$1;
#X msg 1235 -171 send /CAweight \$1;
#X obj 405 174 s message;
#X msg 405 157 send /RGBspectrum \$1;
#X obj 1025 17 ctlin 13 6;
#X obj 415 -213 ctlin 13 3;
#X obj 742 -369 ctlin 12 3;
#X obj 854 -366 ctlin 10 3;
#X obj 528 -349 vsl 15 128 0 1 0 0 empty empty empty 0 -8 0 8 -262144
-1 -1 12700 1;
#X obj 528 -383 bng 15 250 50 0 empty empty empty 17 7 0 10 -262144
-1 -1;
#X obj 528 -401 loadbang;
#X obj 528 -192 s message;
#X text 525 -419 FLASH WEIGHT;
#X obj 543 -349 vsl 15 128 0 1 0 0 empty empty empty 0 -8 0 8 -262144
-1 -1 12700 1;
#X obj 558 -148 s message;
#X obj 558 -349 vsl 15 128 0 1 0 0 empty empty empty 0 -8 0 8 -262144
-1 -1 12700 1;
#X obj 586 -100 s message;
#X obj 618 -375 / 127;
#X obj 618 -392 ctlin 13 4;
#X msg 528 -368 1;
#X msg 558 -368 1;
#X msg 586 -368 1;
#X obj 652 -375 * -1;
#X obj 618 -358 + 1;
#X obj 617 -314 / 127;
#X obj 651 -314 * -1;
#X obj 617 -297 + 1;
#X obj 615 -256 / 127;
#X obj 649 -256 * -1;
#X obj 615 -239 + 1;
#X obj 617 -331 ctlin 12 4;
#X obj 615 -273 ctlin 10 4;
#X msg 528 -208 send /flashTrack0_coef \$1;
#X msg 558 -165 send /flashCA_coef \$1;
#X msg 586 -117 send /flashBack_coef \$1;
#X msg 275 -158 send /flashCA_freq \$1;
#X msg 303 -135 send /flashBack_freq \$1;
#X msg 346 -110 send /flashPart_freq \$1;
#X msg 359 -86 send /flashTrack0_freq \$1;
#X floatatom 949 170 5 0 0 0 - - -, f 5;
#X text 996 -28 Initial volume;
#X text 996 -19 is in header;
#X text 996 -9 of conf file;
#X msg 783 125 send /currentDrawingStroke \$1;
#X obj 11 -147 s message;
#X obj 11 -109 s message;
#X msg 11 -201 send /local_color_r \$1;
#X msg 11 -164 send /local_color_g \$1;
#X msg 11 -126 send /local_color_b \$1;
#X obj 27 -66 s message;
#X msg 27 -83 send /local_color_a \$1;
#X msg 1342 -103 send /partAccCenter_0 \$1;
#X obj 1504 -87 s message;
#X msg 1504 -104 send /partAccCenter_1 \$1;
#X obj 1394 68 + 1;
#X obj 1394 53 / -127;
#X msg 1351 10 1;
#X msg 1460 8 1;
#X obj 1492 74 + 1;
#X obj 1492 57 / -127;
#X msg 261 195 send /part_acc_factor \$1;
#X msg 1021 -208 send /part_acc_attack_coef \$1;
#X obj 354 57 / 1270;
#X obj 356 109 / 1270;
#X obj 39 230 print;
#X floatatom 169 236 5 0 0 0 - - -, f 5;
#X obj 40 74 / 12700;
#X obj 1293 36 + 2;
#X obj 1254 36 / 12.7;
#X floatatom 359 231 5 0 0 0 - - -, f 5;
#X floatatom 1304 227 5 0 0 0 - - -, f 5;
#X floatatom 1422 225 5 0 0 0 - - -, f 5;
#X obj 1025 51 + 0.005;
#X obj 1026 35 / 128;
#X connect 0 0 320 0;
#X connect 1 0 227 0;
#X connect 1 0 228 0;
#X connect 1 0 229 0;
#X connect 1 0 230 0;
#X connect 2 0 1 0;
#X connect 4 0 5 0;
#X connect 4 1 6 0;
#X connect 4 2 7 0;
#X connect 8 0 223 0;
#X connect 9 0 224 0;
#X connect 10 0 225 0;
#X connect 11 0 36 0;
#X connect 12 0 19 0;
#X connect 12 0 16 0;
#X connect 12 0 17 0;
#X connect 12 0 100 0;
#X connect 14 0 262 0;
#X connect 15 0 265 0;
#X connect 16 0 15 0;
#X connect 17 0 14 0;
#X connect 18 0 12 0;
#X connect 19 0 13 0;
#X connect 21 0 23 0;
#X connect 22 0 21 0;
#X connect 23 0 145 0;
#X connect 25 0 266 0;
#X connect 26 0 28 0;
#X connect 27 0 26 0;
#X connect 28 0 25 0;
#X connect 30 0 147 0;
#X connect 31 0 316 0;
#X connect 31 0 317 0;
#X connect 31 0 318 0;
#X connect 32 0 212 0;
#X connect 32 0 56 0;
#X connect 33 0 32 0;
#X connect 34 0 15 0;
#X connect 35 0 213 0;
#X connect 36 0 37 0;
#X connect 37 0 0 0;
#X connect 38 0 39 0;
#X connect 39 0 31 0;
#X connect 40 0 102 0;
#X connect 41 0 43 0;
#X connect 42 0 41 0;
#X connect 43 0 40 0;
#X connect 45 0 338 0;
#X connect 46 0 11 0;
#X connect 48 0 192 0;
#X connect 48 0 340 0;
#X connect 49 0 326 0;
#X connect 50 0 49 0;
#X connect 51 0 325 0;
#X connect 52 0 211 0;
#X connect 53 0 34 0;
#X connect 54 0 108 0;
#X connect 55 0 336 0;
#X connect 56 0 0 0;
#X connect 57 0 271 0;
#X connect 58 0 65 0;
#X connect 58 0 64 0;
#X connect 59 0 58 0;
#X connect 61 0 270 0;
#X connect 62 0 67 0;
#X connect 63 0 68 0;
#X connect 64 0 57 0;
#X connect 65 0 61 0;
#X connect 66 0 61 0;
#X connect 67 0 66 0;
#X connect 68 0 69 0;
#X connect 69 0 57 0;
#X connect 70 0 267 0;
#X connect 71 0 261 0;
#X connect 73 0 110 0;
#X connect 74 0 76 0;
#X connect 75 0 74 0;
#X connect 76 0 73 0;
#X connect 78 0 182 0;
#X connect 79 0 98 0;
#X connect 79 0 105 0;
#X connect 80 0 79 0;
#X connect 81 0 87 0;
#X connect 82 0 269 0;
#X connect 83 0 85 0;
#X connect 84 0 83 0;
#X connect 85 0 82 0;
#X connect 87 0 88 0;
#X connect 88 0 82 0;
#X connect 90 0 81 0;
#X connect 91 0 95 0;
#X connect 91 0 341 0;
#X connect 92 0 327 0;
#X connect 93 0 92 0;
#X connect 95 0 94 0;
#X connect 97 0 329 0;
#X connect 98 0 78 0;
#X connect 99 0 331 0;
#X connect 100 0 99 0;
#X connect 101 0 184 0;
#X connect 102 0 44 0;
#X connect 103 0 106 0;
#X connect 103 0 339 0;
#X connect 105 0 103 0;
#X connect 106 0 330 0;
#X connect 108 0 14 0;
#X connect 110 0 77 0;
#X connect 111 0 273 0;
#X connect 112 0 114 0;
#X connect 113 0 112 0;
#X connect 114 0 111 0;
#X connect 115 0 111 0;
#X connect 117 0 313 0;
#X connect 118 0 120 0;
#X connect 119 0 118 0;
#X connect 120 0 117 0;
#X connect 121 0 185 0;
#X connect 122 0 124 0;
#X connect 123 0 122 0;
#X connect 124 0 121 0;
#X connect 127 0 121 0;
#X connect 129 0 268 0;
#X connect 130 0 132 0;
#X connect 131 0 130 0;
#X connect 132 0 129 0;
#X connect 135 0 129 0;
#X connect 137 0 70 0;
#X connect 138 0 137 0;
#X connect 139 0 138 0;
#X connect 144 0 24 0;
#X connect 147 0 146 0;
#X connect 148 0 150 0;
#X connect 149 0 148 0;
#X connect 150 0 151 0;
#X connect 153 0 155 0;
#X connect 154 0 159 0;
#X connect 157 0 156 0;
#X connect 157 0 309 0;
#X connect 160 0 73 0;
#X connect 161 0 172 0;
#X connect 162 0 164 0;
#X connect 163 0 162 0;
#X connect 164 0 161 0;
#X connect 166 0 165 0;
#X connect 167 0 232 0;
#X connect 168 0 167 0;
#X connect 171 0 161 0;
#X connect 172 0 166 0;
#X connect 173 0 180 0;
#X connect 174 0 176 0;
#X connect 175 0 174 0;
#X connect 176 0 173 0;
#X connect 177 0 173 0;
#X connect 180 0 178 0;
#X connect 181 0 117 0;
#X connect 182 0 106 0;
#X connect 182 1 106 1;
#X connect 184 0 99 0;
#X connect 185 0 128 0;
#X connect 187 0 181 0;
#X connect 188 0 127 0;
#X connect 189 0 177 0;
#X connect 192 0 190 0;
#X connect 193 0 199 0;
#X connect 194 0 196 0;
#X connect 195 0 194 0;
#X connect 196 0 193 0;
#X connect 198 0 200 0;
#X connect 199 0 201 0;
#X connect 199 0 202 0;
#X connect 199 1 204 0;
#X connect 199 1 203 0;
#X connect 199 2 205 0;
#X connect 199 2 206 0;
#X connect 199 3 209 0;
#X connect 199 3 207 0;
#X connect 199 4 210 0;
#X connect 199 4 208 0;
#X connect 200 0 193 0;
#X connect 201 0 321 0;
#X connect 202 0 323 0;
#X connect 203 0 321 0;
#X connect 204 0 323 0;
#X connect 205 0 321 0;
#X connect 206 0 323 0;
#X connect 207 0 323 0;
#X connect 208 0 323 0;
#X connect 209 0 321 0;
#X connect 210 0 321 0;
#X connect 212 0 31 0;
#X connect 213 0 38 0;
#X connect 214 0 305 0;
#X connect 215 0 306 0;
#X connect 216 0 307 0;
#X connect 217 0 226 0;
#X connect 218 0 308 0;
#X connect 223 0 218 0;
#X connect 224 0 214 0;
#X connect 225 0 215 0;
#X connect 226 0 216 0;
#X connect 227 0 214 0;
#X connect 228 0 215 0;
#X connect 229 0 216 0;
#X connect 230 0 218 0;
#X connect 231 0 252 0;
#X connect 232 0 253 0;
#X connect 233 0 239 0;
#X connect 234 0 236 0;
#X connect 235 0 234 0;
#X connect 236 0 233 0;
#X connect 239 0 237 0;
#X connect 240 0 241 0;
#X connect 241 0 233 0;
#X connect 242 0 240 0;
#X connect 243 0 8 0;
#X connect 244 0 9 0;
#X connect 245 0 10 0;
#X connect 246 0 332 0;
#X connect 247 0 333 0;
#X connect 248 0 160 0;
#X connect 249 0 115 0;
#X connect 250 0 135 0;
#X connect 251 0 256 0;
#X connect 251 0 259 0;
#X connect 251 1 257 0;
#X connect 251 1 259 0;
#X connect 251 2 258 0;
#X connect 251 2 259 0;
#X connect 251 3 256 0;
#X connect 251 3 260 0;
#X connect 251 4 257 0;
#X connect 251 4 260 0;
#X connect 251 5 258 0;
#X connect 251 5 260 0;
#X connect 252 0 253 0;
#X connect 253 0 251 0;
#X connect 254 0 169 0;
#X connect 255 0 169 0;
#X connect 256 0 254 0;
#X connect 257 0 254 0;
#X connect 258 0 254 0;
#X connect 259 0 255 0;
#X connect 260 0 255 0;
#X connect 261 0 70 0;
#X connect 262 0 263 0;
#X connect 264 0 263 0;
#X connect 265 0 263 0;
#X connect 266 0 29 0;
#X connect 267 0 140 0;
#X connect 268 0 133 0;
#X connect 269 0 86 0;
#X connect 270 0 183 0;
#X connect 271 0 60 0;
#X connect 273 0 272 0;
#X connect 274 0 343 0;
#X connect 275 0 217 0;
#X connect 276 0 171 0;
#X connect 277 0 231 0;
#X connect 278 0 302 0;
#X connect 279 0 289 0;
#X connect 279 0 290 0;
#X connect 279 0 291 0;
#X connect 280 0 279 0;
#X connect 283 0 303 0;
#X connect 285 0 304 0;
#X connect 287 0 292 0;
#X connect 288 0 287 0;
#X connect 289 0 278 0;
#X connect 290 0 283 0;
#X connect 291 0 285 0;
#X connect 292 0 293 0;
#X connect 293 0 278 0;
#X connect 294 0 295 0;
#X connect 295 0 296 0;
#X connect 296 0 283 0;
#X connect 297 0 298 0;
#X connect 298 0 299 0;
#X connect 299 0 285 0;
#X connect 300 0 294 0;
#X connect 301 0 297 0;
#X connect 302 0 281 0;
#X connect 303 0 284 0;
#X connect 304 0 286 0;
#X connect 305 0 143 0;
#X connect 306 0 143 0;
#X connect 307 0 143 0;
#X connect 308 0 143 0;
#X connect 313 0 126 0;
#X connect 316 0 3 0;
#X connect 317 0 314 0;
#X connect 318 0 315 0;
#X connect 320 0 319 0;
#X connect 321 0 197 0;
#X connect 323 0 322 0;
#X connect 324 0 48 0;
#X connect 325 0 324 0;
#X connect 326 0 48 0;
#X connect 327 0 91 0;
#X connect 328 0 91 0;
#X connect 329 0 328 0;
#X connect 330 0 104 0;
#X connect 331 0 263 0;
#X connect 332 0 103 0;
#X connect 333 0 78 0;
#X connect 336 0 25 0;
#X connect 337 0 40 0;
#X connect 338 0 337 0;
#X connect 342 0 157 0;
#X connect 343 0 342 0;
#X coords 0 0 10 10 0 0 0;
#X restore 200 161 pd MIDIControl_Faders;
#N canvas 492 153 784 674 MIDIControl_Buttons 0;
#X obj 366 316 ctlin;
#X floatatom 341 348 5 0 0 0 - - -, f 5;
#X floatatom 380 349 5 0 0 0 - - -, f 5;
#X floatatom 420 350 5 0 0 0 - - -, f 5;
#X obj 11 241 vsl 15 10 0 1 0 0 empty empty empty 0 -8 0 8 -262144
-1 -1 0 1;
#X obj 11 207 bng 15 250 50 0 empty empty empty 17 7 0 10 -262144 -1
-1;
#X obj 11 188 loadbang;
#X msg 11 222 0;
#X obj 43 222 / 127;
#X obj 199 238 vsl 15 10 0 1 0 0 empty empty empty 0 -8 0 8 -262144
-1 -1 0 1;
#X obj 200 205 bng 15 250 50 0 empty empty empty 17 7 0 10 -262144
-1 -1;
#X obj 200 186 loadbang;
#X msg 200 220 0;
#X obj 232 220 / 127;
#X obj 199 366 vsl 15 10 0 1 0 0 empty empty empty 0 -8 0 8 -262144
-1 -1 0 1;
#X obj 200 333 bng 15 250 50 0 empty empty empty 17 7 0 10 -262144
-1 -1;
#X obj 200 314 loadbang;
#X msg 200 348 0;
#X obj 224 347 / 127;
#X obj 12 112 vsl 15 10 0 1 0 0 empty empty empty 0 -8 0 8 -262144
-1 -1 0 1;
#X obj 12 79 bng 15 250 50 0 empty empty empty 17 7 0 10 -262144 -1
-1;
#X obj 12 60 loadbang;
#X msg 12 94 0;
#X obj 36 93 / 127;
#X obj 202 113 vsl 15 10 0 1 0 0 empty empty empty 0 -8 0 8 -262144
-1 -1 0 1;
#X obj 202 80 bng 15 250 50 0 empty empty empty 17 7 0 10 -262144 -1
-1;
#X obj 202 61 loadbang;
#X msg 202 95 0;
#X obj 226 94 / 127;
#X obj 9 501 vsl 15 10 0 1 0 0 empty empty empty 0 -8 0 8 -262144 -1
-1 0 1;
#X obj 9 468 bng 15 250 50 0 empty empty empty 17 7 0 10 -262144 -1
-1;
#X obj 9 449 loadbang;
#X msg 9 483 0;
#X obj 569 381 s message;
#X obj 32 482 / 127;
#X obj 224 331 ctlin 18 1;
#X obj 11 -17 vsl 15 10 0 1 0 0 empty empty empty 0 -8 0 8 -262144
-1 -1 0 1;
#X obj 11 -50 bng 15 250 50 0 empty empty empty 17 7 0 10 -262144 -1
-1;
#X obj 11 -69 loadbang;
#X msg 11 -35 0;
#X obj 43 -35 / 127;
#X obj 42 -51 ctlin 19 1;
#X obj 204 -20 vsl 15 10 0 1 0 0 empty empty empty 0 -8 0 8 -262144
-1 -1 0 1;
#X obj 204 -53 bng 15 250 50 0 empty empty empty 17 7 0 10 -262144
-1 -1;
#X obj 204 -72 loadbang;
#X msg 204 -38 0;
#X obj 236 -38 / 127;
#X obj 235 -54 ctlin 20 1;
#X obj 198 501 vsl 15 10 0 1 0 0 empty empty empty 0 -8 0 8 -262144
-1 -1 0 1;
#X obj 198 468 bng 15 250 50 0 empty empty empty 17 7 0 10 -262144
-1 -1;
#X obj 198 450 loadbang;
#X msg 198 484 0;
#X obj 221 483 / 127;
#X obj 487 498 vsl 15 10 0 1 0 0 empty empty empty 0 -8 0 8 -262144
-1 -1 0 1;
#X obj 487 465 bng 15 250 50 0 empty empty empty 17 7 0 10 -262144
-1 -1;
#X obj 487 446 loadbang;
#X msg 487 480 0;
#X obj 487 527 s message;
#X obj 510 479 / 127;
#X obj 343 499 vsl 15 10 0 1 0 0 empty empty empty 0 -8 0 8 -262144
-1 -1 0 1;
#X obj 343 466 bng 15 250 50 0 empty empty empty 17 7 0 10 -262144
-1 -1;
#X obj 343 447 loadbang;
#X msg 343 481 0;
#X obj 365 15 s message;
#X obj 366 480 / 127;
#X obj 31 466 ctlin 14 1;
#X obj 220 467 ctlin 15 1;
#X obj 365 -16 vsl 15 10 0 1 0 0 empty empty empty 0 -8 0 8 -262144
-1 -1 0 1;
#X obj 366 -49 bng 15 250 50 0 empty empty empty 17 7 0 10 -262144
-1 -1;
#X obj 366 -68 loadbang;
#X msg 366 -34 0;
#X obj 398 -34 / 127;
#X obj 397 -50 ctlin 21 1;
#X obj 361 113 vsl 15 10 0 1 0 0 empty empty empty 0 -8 0 8 -262144
-1 -1 0 1;
#X obj 362 80 bng 15 250 50 0 empty empty empty 17 7 0 10 -262144 -1
-1;
#X obj 362 61 loadbang;
#X msg 362 95 0;
#X obj 386 94 / 127;
#X obj 385 78 ctlin 24 1;
#X obj 359 238 vsl 15 10 0 1 0 0 empty empty empty 0 -8 0 8 -262144
-1 -1 0 1;
#X obj 359 202 bng 15 250 50 0 empty empty empty 17 7 0 10 -262144
-1 -1;
#X obj 359 185 loadbang;
#X msg 359 219 0;
#X obj 391 219 / 127;
#X obj 390 203 ctlin 27 1;
#X obj 365 464 ctlin 16 1;
#X obj 510 463 ctlin 17 1;
#X obj 35 77 ctlin 22 1;
#X obj 225 78 ctlin 23 1;
#X obj 42 206 ctlin 25 1;
#X obj 231 204 ctlin 26 1;
#X obj 204 11 s message;
#X obj 9 531 s message;
#X obj 11 13 s message;
#X obj 12 142 s message;
#X obj 565 298 s message;
#X obj 567 337 s message;
#X obj 564 218 s message;
#X obj 199 396 s message;
#X msg 9 516 send /drawing_on_off;
#X text 199 296 SMOOTH/STEP INTERPOLATION;
#X msg 564 174 send /track_interp_on_off;
#X msg 204 -4 send /CAdecay_sign;
#X msg 366 -2 send /trackdecay_sign;
#X msg 487 510 send /setup_plus_and_keep_total_duration;
#X msg 569 364 send /invertAllLayers;
#X msg 567 322 send /target_track_record;
#X msg 564 201 send /withTabletPressureRadius;
#X obj 564 256 s message;
#X msg 564 239 send /withTabletAngleRadius;
#X msg 11 -4 send /currentTrack_plus;
#X msg 199 379 send /clearAllLayers;
#X msg 12 125 send /track_replay;
#X obj 11 271 s message;
#X msg 11 255 send /source_track_record;
#X text 11 44 LIGHT TRACK SRC READ ON/OFF;
#X text 8 168 TRACK SRC REC ON/OFF;
#X text 199 169 VOID;
#X text 199 42 VOID;
#X text 355 44 VOID;
#X text 356 170 VOID;
#X msg 566 283 send /source_track_display;
#X text 6 427 DRAWING ON/OFF;
#X text 194 429 VOID;
#X text 342 424 VOID;
#X text 486 428 VOID;
#X text 12 -87 TRACK NO;
#X text 205 -93 CA DECAY SIGN;
#X text 359 -89 TRACK DECAY SIGN;
#X connect 0 0 1 0;
#X connect 0 1 2 0;
#X connect 0 2 3 0;
#X connect 4 0 114 0;
#X connect 5 0 7 0;
#X connect 6 0 5 0;
#X connect 7 0 4 0;
#X connect 8 0 4 0;
#X connect 10 0 12 0;
#X connect 11 0 10 0;
#X connect 12 0 9 0;
#X connect 13 0 9 0;
#X connect 14 0 111 0;
#X connect 15 0 17 0;
#X connect 16 0 15 0;
#X connect 17 0 14 0;
#X connect 18 0 14 0;
#X connect 19 0 112 0;
#X connect 20 0 22 0;
#X connect 21 0 20 0;
#X connect 22 0 19 0;
#X connect 23 0 19 0;
#X connect 25 0 27 0;
#X connect 26 0 25 0;
#X connect 27 0 24 0;
#X connect 28 0 24 0;
#X connect 29 0 99 0;
#X connect 30 0 32 0;
#X connect 31 0 30 0;
#X connect 32 0 29 0;
#X connect 34 0 29 0;
#X connect 35 0 18 0;
#X connect 36 0 110 0;
#X connect 37 0 39 0;
#X connect 38 0 37 0;
#X connect 39 0 36 0;
#X connect 40 0 36 0;
#X connect 41 0 40 0;
#X connect 42 0 102 0;
#X connect 43 0 45 0;
#X connect 44 0 43 0;
#X connect 45 0 42 0;
#X connect 46 0 42 0;
#X connect 47 0 46 0;
#X connect 49 0 51 0;
#X connect 50 0 49 0;
#X connect 51 0 48 0;
#X connect 52 0 48 0;
#X connect 53 0 104 0;
#X connect 54 0 56 0;
#X connect 55 0 54 0;
#X connect 56 0 53 0;
#X connect 58 0 53 0;
#X connect 60 0 62 0;
#X connect 61 0 60 0;
#X connect 62 0 59 0;
#X connect 64 0 59 0;
#X connect 65 0 34 0;
#X connect 66 0 52 0;
#X connect 67 0 103 0;
#X connect 68 0 70 0;
#X connect 69 0 68 0;
#X connect 70 0 67 0;
#X connect 71 0 67 0;
#X connect 72 0 71 0;
#X connect 74 0 76 0;
#X connect 75 0 74 0;
#X connect 76 0 73 0;
#X connect 77 0 73 0;
#X connect 78 0 77 0;
#X connect 80 0 82 0;
#X connect 81 0 80 0;
#X connect 82 0 79 0;
#X connect 83 0 79 0;
#X connect 84 0 83 0;
#X connect 85 0 64 0;
#X connect 86 0 58 0;
#X connect 87 0 23 0;
#X connect 88 0 28 0;
#X connect 89 0 8 0;
#X connect 90 0 13 0;
#X connect 99 0 92 0;
#X connect 102 0 91 0;
#X connect 103 0 63 0;
#X connect 104 0 57 0;
#X connect 105 0 33 0;
#X connect 106 0 96 0;
#X connect 107 0 97 0;
#X connect 109 0 108 0;
#X connect 110 0 93 0;
#X connect 111 0 98 0;
#X connect 112 0 94 0;
#X connect 114 0 113 0;
#X connect 121 0 95 0;
#X coords 0 0 10 10 0 0 0;
#X restore 200 181 pd MIDIControl_Buttons;
#X text 133 13 AUDIO ON;
#X obj 135 30 loadbang;
#X msg 135 46 \; pd dsp 1;
#X text 198 146 USB Controller;
#X obj 203 31 bng 15 250 50 0 empty empty empty 17 7 0 10 -4034 -1
-1;
#X obj 202 66 bng 15 250 50 0 empty empty empty 17 7 0 10 -258113 -1
-1;
#X obj 217 66 s stopsoundtrack;
#X text 209 48 STOP SOUNDTRACK;
#X text 204 13 START SOUNDTRACK;
#X text 52 252 3: brush radius;
#X text 52 267 4: particle accel.;
#N canvas 32 127 986 515 dumpVCMessages 0;
#X text 33 10 OSC message processing;
#X obj 5 311 s startclock;
#X obj 22 355 s restart;
#X obj 48 462 s message;
#X obj 48 429 pack s;
#X msg 48 445 send /return_message \$1;
#N canvas 335 50 1569 696 trackMessageDisplay 0;
#X obj 645 -319 inlet;
#X obj 184 -312 inlet;
#X obj 47 -310 inlet;
#X obj 646 -262 route 0 1;
#X obj 835 -268 route 0 1;
#X obj 644 -147 route 0 1;
#X obj 193 123 route 0 1;
#X obj 199 236 route 0 1;
#X obj 201 353 route 0 1;
#X obj 172 -224 route 1 0;
#X obj 234 -223 route 1 0;
#X obj 295 -223 route 1 0;
#X msg 9 76 \; track1decay color 13 16;
#X msg 5 -34 \; track2decay color 13 16;
#X msg 5 -72 \; track1decay color 11 16;
#X msg 9 114 \; track2decay color 11 16;
#X msg 10 -223 \; track1decay color 11 16;
#X msg 11 -185 \; track2decay color 11 16;
#X msg 5 226 \; track1decay color 11 16;
#X msg 5 264 \; track2decay color 11 16;
#X obj 1018 -257 route 0 1;
#X obj 1207 -263 route 0 1;
#X obj 1016 -142 route 0 1;
#X obj 1034 16 route 0 1;
#X obj 1185 23 route 0 1;
#X obj 1032 131 route 0 1;
#X obj 1082 -318 inlet;
#X msg 1009 -114 \; track2step_can color 17 12;
#X msg 1017 -68 \; track2step_can color 13 12;
#X msg 1201 -235 \; track1step_can color 17 12;
#X msg 1208 -189 \; track1step_can color 13 12;
#X msg 1012 -229 \; track0step_can color 17 12;
#X msg 1019 -183 \; track0step_can color 13 12;
#X msg 10 41 \; track0decay color 11 16;
#X msg 12 -258 \; track0decay color 13 16;
#X msg 6 -107 \; track0decay color 11 16;
#X msg 6 191 \; track0decay color 11 16;
#X obj 229 89 route 0 1 2;
#X obj 184 -265 route 0 1 2;
#X obj 47 -289 route 0 1 2;
#X obj 643 -292 route 0 1 2;
#X obj 1041 -293 route 0 1 2;
#X obj 1037 -13 route 0 1 2;
#X msg 1531 -268 \; a_can label \$1;
#X obj 1531 -285 makefilename A_%.2f;
#N canvas 4 135 288 272 colorRGB 0;
#X obj 16 27 inlet;
#X obj 93 28 inlet;
#X text 21 9 red;
#X text 93 11 green;
#X obj 159 75 t b f;
#X obj 93 112 +;
#X obj 93 137 t b f;
#X obj 93 168 +;
#X obj 16 52 * -65536;
#X obj 93 53 * -256;
#X obj 159 53 * -1;
#X obj 93 199 - 1;
#X obj 159 28 inlet;
#X obj 93 226 outlet;
#X text 161 11 blue;
#X connect 0 0 8 0;
#X connect 1 0 9 0;
#X connect 4 0 5 0;
#X connect 4 1 5 1;
#X connect 5 0 6 0;
#X connect 6 0 7 0;
#X connect 6 1 7 1;
#X connect 7 0 11 0;
#X connect 8 0 7 0;
#X connect 9 0 5 0;
#X connect 10 0 4 0;
#X connect 11 0 13 0;
#X connect 12 0 10 0;
#X restore 1396 -161 pd colorRGB;
#X msg 1396 -144 \; color_can color \$1;
#X obj 1396 -228 * 255;
#X obj 1396 -196 int;
#N canvas 4 135 288 291 colorRGB 0;
#X obj 16 27 inlet;
#X obj 93 28 inlet;
#X text 21 9 red;
#X text 93 11 green;
#X obj 159 75 t b f;
#X obj 93 112 +;
#X obj 93 137 t b f;
#X obj 93 168 +;
#X obj 16 52 * -65536;
#X obj 93 53 * -256;
#X obj 159 53 * -1;
#X obj 93 199 - 1;
#X obj 159 28 inlet;
#X obj 93 226 outlet;
#X text 161 11 blue;
#X connect 0 0 8 0;
#X connect 1 0 9 0;
#X connect 4 0 5 0;
#X connect 4 1 5 1;
#X connect 5 0 6 0;
#X connect 6 0 7 0;
#X connect 6 1 7 1;
#X connect 7 0 11 0;
#X connect 8 0 7 0;
#X connect 9 0 5 0;
#X connect 10 0 4 0;
#X connect 11 0 13 0;
#X connect 12 0 10 0;
#X restore 1531 -163 pd colorRGB;
#X obj 1531 -228 * 255;
#X obj 1531 -198 int;
#X msg 1531 -146 \; alpha_can color \$1;
#X obj 1396 -313 inlet;
#X msg 1396 -266 \; gray_can label \$1;
#X obj 1396 -283 makefilename G_%.2f;
#X obj 660 -17 route 0 1;
#X obj 849 -23 route 0 1;
#X obj 848 -148 route 0 1;
#X msg 1028 44 \; track0step_can label _;
#X msg 1030 83 \; track0step_can label I;
#X msg 1036 157 \; track2step_can label _;
#X msg 1045 201 \; track2step_can labelI;
#X msg 1186 98 \; track1step_can label I;
#X msg 1178 52 \; track1step_can label _;
#X msg 640 -234 \; track0replay_can color 17 12;
#X msg 647 -188 \; track0replay_can color 13 12;
#X msg 638 -119 \; track2replay_can color 17 12;
#X msg 645 -73 \; track2replay_can color 13 12;
#X msg 653 11 \; track0replay_can label _;
#X msg 657 51 \; track0replay_can label Ps;
#X msg 850 51 \; track1replay_can label Ps;
#X msg 843 5 \; track1replay_can label _;
#X msg 849 -73 \; track2replay_can label Ps;
#X msg 842 -121 \; track2replay_can label _;
#X msg 836 -194 \; track1replay_can color 13 12;
#X msg 829 -240 \; track1replay_can color 17 12;
#X obj 1531 -314 inlet;
#X msg 187 151 \; source_track_record_0_can color 17 12;
#X msg 200 310 \; source_track_record_1_can color 13 12;
#X msg 193 264 \; source_track_record_1_can color 17 12;
#X msg 195 381 \; source_track_record_2_can color 17 12;
#X msg 202 427 \; source_track_record_2_can color 13 12;
#X msg 167 -169 \; source_track_record_0_can label s;
#X msg 171 -131 \; source_track_record_1_can label s;
#X msg 174 -89 \; source_track_record_2_can label s;
#X msg 175 -43 \; source_track_record_0_can label _;
#X msg 177 -3 \; source_track_record_1_can label _;
#X msg 179 40 \; source_track_record_2_can label _;
#X obj 428 -314 inlet;
#X obj 437 121 route 0 1;
#X obj 443 234 route 0 1;
#X obj 445 351 route 0 1;
#X obj 416 -226 route 1 0;
#X obj 478 -225 route 1 0;
#X obj 539 -225 route 1 0;
#X obj 473 87 route 0 1 2;
#X obj 428 -267 route 0 1 2;
#X msg 419 -44 \; target_track_record_0_can label _;
#X msg 421 -5 \; target_track_record_1_can label _;
#X msg 423 37 \; target_track_record_2_can label _;
#X msg 431 149 \; target_track_record_0_can color 17 12;
#X msg 437 262 \; target_track_record_1_can color 17 12;
#X msg 444 308 \; target_track_record_1_can color 13 12;
#X msg 439 378 \; target_track_record_2_can color 17 12;
#X msg 446 425 \; target_track_record_2_can color 13 12;
#X msg 438 195 \; target_track_record_0_can color 13 12;
#X msg 195 197 \; source_track_record_0_can color 13 12;
#X msg 415 -171 \; target_track_record_0_can label t;
#X msg 415 -133 \; target_track_record_1_can label t;
#X msg 418 -91 \; target_track_record_2_can label t;
#X connect 0 0 40 0;
#X connect 1 0 37 0;
#X connect 1 0 38 0;
#X connect 2 0 39 0;
#X connect 3 0 65 0;
#X connect 3 1 66 0;
#X connect 4 0 76 0;
#X connect 4 1 75 0;
#X connect 5 0 67 0;
#X connect 5 1 68 0;
#X connect 6 0 78 0;
#X connect 6 1 107 0;
#X connect 7 0 80 0;
#X connect 7 1 79 0;
#X connect 8 0 81 0;
#X connect 8 1 82 0;
#X connect 9 0 83 0;
#X connect 9 1 86 0;
#X connect 10 0 84 0;
#X connect 10 1 87 0;
#X connect 11 0 85 0;
#X connect 11 1 88 0;
#X connect 20 0 31 0;
#X connect 20 1 32 0;
#X connect 21 0 29 0;
#X connect 21 1 30 0;
#X connect 22 0 27 0;
#X connect 22 1 28 0;
#X connect 23 0 59 0;
#X connect 23 1 60 0;
#X connect 24 0 64 0;
#X connect 24 1 63 0;
#X connect 25 0 61 0;
#X connect 25 1 62 0;
#X connect 26 0 41 0;
#X connect 26 0 42 0;
#X connect 37 0 6 0;
#X connect 37 1 7 0;
#X connect 37 2 8 0;
#X connect 38 0 9 0;
#X connect 38 1 10 0;
#X connect 38 2 11 0;
#X connect 39 0 34 0;
#X connect 39 0 16 0;
#X connect 39 0 17 0;
#X connect 39 1 12 0;
#X connect 39 1 15 0;
#X connect 39 1 33 0;
#X connect 39 2 35 0;
#X connect 39 2 14 0;
#X connect 39 2 13 0;
#X connect 39 3 36 0;
#X connect 39 3 18 0;
#X connect 39 3 19 0;
#X connect 40 0 3 0;
#X connect 40 0 56 0;
#X connect 40 1 4 0;
#X connect 40 1 57 0;
#X connect 40 2 5 0;
#X connect 40 2 58 0;
#X connect 41 0 20 0;
#X connect 41 1 21 0;
#X connect 41 2 22 0;
#X connect 42 0 23 0;
#X connect 42 1 24 0;
#X connect 42 2 25 0;
#X connect 44 0 43 0;
#X connect 45 0 46 0;
#X connect 47 0 48 0;
#X connect 48 0 45 0;
#X connect 48 0 45 1;
#X connect 48 0 45 2;
#X connect 49 0 52 0;
#X connect 50 0 51 0;
#X connect 51 0 49 0;
#X connect 51 0 49 1;
#X connect 51 0 49 2;
#X connect 53 0 55 0;
#X connect 53 0 47 0;
#X connect 55 0 54 0;
#X connect 56 0 69 0;
#X connect 56 1 70 0;
#X connect 57 0 72 0;
#X connect 57 1 71 0;
#X connect 58 0 74 0;
#X connect 58 1 73 0;
#X connect 77 0 44 0;
#X connect 77 0 50 0;
#X connect 89 0 96 0;
#X connect 89 0 97 0;
#X connect 90 0 101 0;
#X connect 90 1 106 0;
#X connect 91 0 102 0;
#X connect 91 1 103 0;
#X connect 92 0 104 0;
#X connect 92 1 105 0;
#X connect 93 0 108 0;
#X connect 93 1 98 0;
#X connect 94 0 109 0;
#X connect 94 1 99 0;
#X connect 95 0 110 0;
#X connect 95 1 100 0;
#X connect 96 0 90 0;
#X connect 96 1 91 0;
#X connect 96 2 92 0;
#X connect 97 0 93 0;
#X connect 97 1 94 0;
#X connect 97 2 95 0;
#X restore 682 390 pd trackMessageDisplay;
#N canvas 281 234 1535 634 environmentMessageDisplay 0;
#X msg 16 287 \; brush_can label Earth;
#X msg 14 54 \; brush_can label Circle;
#X obj 551 110 pack f;
#X obj 551 6 route 0 1;
#X obj 551 127 makefilename %d;
#X obj 363 8 route 0 1 2 3 4 5 6 7 8;
#X msg 364 30 \; CAType_can label GOL;
#X msg 424 180 \; CAType_can label CA4;
#X msg 446 218 \; CAType_can label CA5;
#X msg 460 252 \; CAType_can label CA6;
#X msg 473 292 \; CAType_can label CA7;
#X msg 484 331 \; CAType_can label CA8;
#X obj 37 -11 inlet;
#X obj 363 -14 inlet;
#X obj 222 -15 inlet;
#X obj 691 -15 inlet;
#X msg 624 208 \; drawing_can label X;
#X msg 625 246 \; drawing_can label Line;
#X obj 624 182 route 0 1 2 3;
#X obj 551 -16 inlet;
#X obj 828 164 route 0 1 2;
#X msg 805 192 \; particles_can label X;
#X msg 806 230 \; particles_can label Particles;
#X msg 805 275 \; particles_can label Firework;
#X obj 746 -14 inlet;
#X msg 806 21 \; radius_can label \$1;
#X msg 825 87 \; message_can label \$1;
#X obj 827 69 pack s;
#X obj 806 -17 inlet;
#X obj 859 -17 inlet;
#X msg 629 288 \; drawing_can label Dots;
#X msg 631 332 \; drawing_can label Bezier;
#X msg 550 34 \; CASubType_can label X;
#X msg 551 73 \; CASubType_can label Basic;
#X msg 551 144 \; CASubType_can label \$1;
#X msg 374 68 \; CAType_can label BRAIN;
#X msg 388 107 \; CAType_can label TUNNEL;
#X msg 410 144 \; CAType_can label WORM;
#X obj 934 -20 inlet;
#X obj 934 2 s echo;
#X obj 980 -21 inlet;
#X obj 980 2 s echoNeg;
#X obj 1030 -19 inlet;
#X obj 1082 -21 inlet;
#X obj 949 26 pack s;
#X msg 997 123 \; time_can color 13 12;
#X obj 997 95 route 0 1 2 3;
#X msg 996 245 \; time_can color 16 12;
#X msg 998 163 \; time_can color 14 12;
#X msg 996 203 \; time_can color 15 12;
#X msg 949 47 \; time_can label \$1;
#X msg 12 132 \; brush_can label FineGrain;
#X msg 15 174 \; brush_can label LargeGrain;
#X msg 16 211 \; brush_can label Ring;
#X msg 17 247 \; brush_can label Sun;
#X msg 15 327 \; brush_can label Moon;
#X msg 12 93 \; brush_can label Oval;
#X obj 37 12 route 0 1 2 3 4 5 6 7;
#X obj 1128 -21 inlet;
#X obj 1148 95 route 1 0;
#X obj 1173 -20 inlet;
#X obj 1149 208 route 1 0;
#X msg 1148 124 \; tabletAngle_can color 13 12;
#X msg 1149 159 \; tabletAngle_can color 16 12;
#X msg 1149 237 \; tabletPressure_can color 13 12;
#X msg 1150 272 \; tabletPressure_can color 16 12;
#X obj 1227 -20 inlet;
#X obj 1187 7 s input_volume;
#X obj 1340 -13 inlet;
#X obj 1360 103 route 1 0;
#X msg 1360 132 \; invert_can color 13 12;
#X msg 1361 167 \; invert_can color 16 12;
#X msg 195 61 \; texture_can label Circle;
#X msg 194 102 \; texture_can label Band;
#X msg 193 145 \; texture_can label Low_noise;
#X msg 195 185 \; texture_can label Med_noise;
#X msg 197 223 \; texture_can label High_noise;
#X msg 198 257 \; texture_can label Worms;
#X msg 197 293 \; texture_can label RandNoise;
#X obj 218 19 route 0 1 2 3 4 5 6 7;
#X msg 196 328 \; texture_can label Circle;
#X obj 34 383 expr if ($f1 < 0.5 \, 0 \, if($f1 < 1.5 \, 1 \, if($f1
< 2.5 \, 2 \, if($f1 < 3.5 \, 3 \, if($f1 < 4.5 \, 4 \, if($f1 < 5.5
\, 5 \, if($f1 < 6.5 \, 6 \, 7)))))));
#X obj 516 418 print CAType \$1;
#X obj 806 4 makefilename %.1f;
#X connect 2 0 4 0;
#X connect 3 0 32 0;
#X connect 3 1 33 0;
#X connect 3 2 2 0;
#X connect 4 0 34 0;
#X connect 5 0 6 0;
#X connect 5 1 35 0;
#X connect 5 2 36 0;
#X connect 5 3 37 0;
#X connect 5 4 7 0;
#X connect 5 5 8 0;
#X connect 5 6 9 0;
#X connect 5 7 10 0;
#X connect 5 8 11 0;
#X connect 12 0 57 0;
#X connect 13 0 5 0;
#X connect 14 0 81 0;
#X connect 15 0 18 0;
#X connect 18 0 16 0;
#X connect 18 1 17 0;
#X connect 18 2 30 0;
#X connect 18 3 31 0;
#X connect 19 0 3 0;
#X connect 20 0 21 0;
#X connect 20 1 22 0;
#X connect 20 2 23 0;
#X connect 24 0 20 0;
#X connect 27 0 26 0;
#X connect 28 0 83 0;
#X connect 29 0 27 0;
#X connect 38 0 39 0;
#X connect 40 0 41 0;
#X connect 42 0 44 0;
#X connect 43 0 46 0;
#X connect 44 0 50 0;
#X connect 46 0 45 0;
#X connect 46 1 48 0;
#X connect 46 2 49 0;
#X connect 46 3 47 0;
#X connect 57 0 1 0;
#X connect 57 1 56 0;
#X connect 57 2 51 0;
#X connect 57 3 52 0;
#X connect 57 4 53 0;
#X connect 57 5 54 0;
#X connect 57 6 0 0;
#X connect 57 7 55 0;
#X connect 58 0 59 0;
#X connect 59 0 62 0;
#X connect 59 1 63 0;
#X connect 60 0 61 0;
#X connect 61 0 64 0;
#X connect 61 1 65 0;
#X connect 66 0 67 0;
#X connect 68 0 69 0;
#X connect 69 0 70 0;
#X connect 69 1 71 0;
#X connect 79 0 72 0;
#X connect 79 1 73 0;
#X connect 79 2 74 0;
#X connect 79 3 75 0;
#X connect 79 4 76 0;
#X connect 79 5 77 0;
#X connect 79 6 78 0;
#X connect 79 7 80 0;
#X connect 81 0 79 0;
#X connect 83 0 25 0;
#X restore 682 301 pd environmentMessageDisplay;
#N canvas 96 142 1508 407 trackDecayMessages 0;
#X msg -401 139 \; track2decay_sign_can label +;
#X msg -395 183 \; track2decay_sign_can label -;
#X msg -207 138 \; track2decay_sign_can color 13 12;
#X msg -200 184 \; track2decay_sign_can color 17 12;
#X msg -402 19 \; track1decay_sign_can label +;
#X msg -396 61 \; track1decay_sign_can label -;
#X msg -208 16 \; track1decay_sign_can color 13 12;
#X msg -201 62 \; track1decay_sign_can color 17 12;
#X obj -870 -58 inlet;
#X obj 70 64 pack f;
#X obj 68 105 pack f;
#X obj 69 148 pack f;
#X obj 69 126 s track1decay;
#X obj 70 169 s track2decay;
#X obj 6 -7 pack f;
#X obj 61 -44 inlet;
#X obj 2 -43 inlet;
#X msg -679 43 \; track0decay_sign_can label +;
#X msg -673 87 \; track0decay_sign_can label -;
#X msg -658 136 \; track0decay_sign_can color 13 12;
#X msg -625 183 \; track0decay_sign_can color 17 12;
#X obj 70 82 s track0decay;
#X obj 6 10 s CAdecay;
#X msg -893 47 \; CAdecay_sign_can label +;
#X msg -887 92 \; CAdecay_sign_can label -;
#X msg -872 141 \; CAdecay_sign_can color 13 12;
#X msg -845 182 \; CAdecay_sign_can color 17 12;
#X obj -526 -63 inlet;
#X obj 199 59 pack f;
#X obj 197 100 pack f;
#X obj 198 143 pack f;
#X obj 190 -49 inlet;
#X obj 199 77 s track0weight;
#X obj 198 121 s track1weight;
#X obj 197 164 s track2weight;
#X obj 341 -54 inlet;
#X obj 345 -25 route -1 1;
#X msg 347 22 \; track0decay color 11 16;
#X msg 374 76 \; track0decay color 17 16;
#X obj -525 -38 route 0 1 2;
#X obj 69 -19 route 0 1 2;
#X obj 198 -24 route 0 1 2;
#X obj 278 -15 pack f;
#X obj 274 -51 inlet;
#X obj 278 4 s CAweight;
#X obj -870 3 route -1 1;
#X obj -656 1 route -1 1;
#X obj -377 -1 route -1 1;
#X obj -377 108 route -1 1;
#X connect 8 0 45 0;
#X connect 9 0 21 0;
#X connect 10 0 12 0;
#X connect 11 0 13 0;
#X connect 14 0 22 0;
#X connect 15 0 40 0;
#X connect 16 0 14 0;
#X connect 27 0 39 0;
#X connect 28 0 32 0;
#X connect 29 0 33 0;
#X connect 30 0 34 0;
#X connect 31 0 41 0;
#X connect 35 0 36 0;
#X connect 36 0 37 0;
#X connect 36 1 38 0;
#X connect 39 0 46 0;
#X connect 39 1 47 0;
#X connect 39 2 48 0;
#X connect 40 0 9 0;
#X connect 40 1 10 0;
#X connect 40 2 11 0;
#X connect 41 0 28 0;
#X connect 41 1 29 0;
#X connect 41 2 30 0;
#X connect 42 0 44 0;
#X connect 43 0 42 0;
#X connect 45 0 23 0;
#X connect 45 0 25 0;
#X connect 45 1 24 0;
#X connect 45 1 26 0;
#X connect 46 0 17 0;
#X connect 46 0 19 0;
#X connect 46 1 18 0;
#X connect 46 1 20 0;
#X connect 47 0 4 0;
#X connect 47 0 6 0;
#X connect 47 1 5 0;
#X connect 47 1 7 0;
#X connect 48 0 0 0;
#X connect 48 0 2 0;
#X connect 48 1 1 0;
#X connect 48 1 3 0;
#X restore 699 480 pd trackDecayMessages;
#X obj 11 333 s RGBspectrum;
#X obj 600 414 route /CAdecay_sign_can /trackdecay_sign_can /CAdecay_can
/trackdecay_can /trackweight_can /CAweight_can /lighttrack0_can;
#X msg 32 395 \; setup_can label \$1;
#X obj 32 377 pack s;
#X obj 263 402 makefilename %.2f;
#X msg 263 419 \; brush_radius_vol_coef_can label \$1;
#X obj 277 348 makefilename %.2f;
#X obj 248 456 makefilename %.2f;
#X msg 248 473 \; color_spectrum_coef_can label \$1;
#X obj 311 234 makefilename %.2f;
#X obj 296 288 makefilename %.2f;
#X msg 311 251 \; brush_radius_vol_replay_coef_can label \$1;
#X msg 296 305 \; color_spectrum_replay_coef_can label \$1;
#X obj 332 207 s connect;
#X obj 34 27 netreceive 1979 1;
#X text 195 11 and processing messages from Porphyrograph;
#N canvas 111 67 948 318 flashMessageDisplay 0;
#X obj -535 -4921 makefilename %.0f;
#X obj -536 -4865 makefilename %.0f;
#X obj -536 -4807 makefilename %.0f;
#X obj -537 -4748 makefilename %.0f;
#X obj -547 -4972 inlet;
#X obj -486 -4972 inlet;
#X obj -423 -4971 inlet;
#X obj -364 -4970 inlet;
#X obj -297 -4910 makefilename %.0f;
#X msg -297 -4893 \; loop_beat_can label \$1;
#X obj -123 -4909 makefilename %.0f;
#X obj -123 -4794 makefilename %.0f;
#X msg -123 -4777 \; flashPart_duration_can label \$1;
#X obj -123 -4853 makefilename %.0f;
#X msg -123 -4892 \; flashTrack0_number_can label \$1;
#X msg -123 -4836 \; flashCA_number_can label \$1;
#X obj -297 -4974 inlet;
#X obj -123 -4971 inlet;
#X obj -62 -4970 inlet;
#X obj 3 -4971 inlet;
#X obj 113 -4970 inlet;
#X obj 170 -4969 inlet;
#X obj 229 -4967 inlet;
#X msg -535 -4904 \; flashPart_freq_can label \$1;
#X msg -536 -4848 \; flashCA_freq_can label \$1;
#X msg -537 -4790 \; flashTrack0_freq_can label \$1;
#X msg -534 -4731 \; flashBack_freq_can label \$1;
#X obj 113 -4929 s flashTrack0_coef;
#X obj 114 -4900 s flashCA_coef;
#X obj 115 -4870 s flashBack_coef;
#X obj 282 -4969 inlet;
#X msg 115 -4819 \; auto_beat_can label \$1;
#X obj 115 -4836 makefilename %d;
#X obj 274 -4911 print auto_beat;
#X obj -262 -4842 print;
#X connect 0 0 23 0;
#X connect 1 0 24 0;
#X connect 2 0 25 0;
#X connect 3 0 26 0;
#X connect 4 0 0 0;
#X connect 5 0 1 0;
#X connect 6 0 2 0;
#X connect 7 0 3 0;
#X connect 8 0 9 0;
#X connect 10 0 14 0;
#X connect 11 0 12 0;
#X connect 13 0 15 0;
#X connect 16 0 8 0;
#X connect 17 0 10 0;
#X connect 18 0 13 0;
#X connect 19 0 11 0;
#X connect 20 0 27 0;
#X connect 21 0 28 0;
#X connect 22 0 29 0;
#X connect 30 0 32 0;
#X connect 32 0 31 0;
#X restore 675 164 pd flashMessageDisplay;
#X msg 277 365 \; part_acc_attack_coef_can label \$1;
#X obj 109 261 makefilename %.2f;
#X msg 109 278 \; part_acc_factor_can label \$1;
#X obj 590 191 route /brushID_can /particle_texture_ID_can /CAType_can
/CASubType_can /drawing_can /particleMode_can /brushRadius_can /message_can
/echo_can /echoNeg_can /time_can /time_color_can /withTabletAngleRadius_can
/withTabletPressureRadius_can /input_volume_can /invertAllLayers_can
;
#X obj 591 325 route /currentTrack_can /source_track_record_can /target_track_record_can
/track_replay_can /trackinterp_can /local_color_r_can /local_color_a_can
;
#X obj 408 65 print dump;
#X obj 585 68 route /flashPart_freq_can /flashCA_freq_can /flashTrack0_freq_can
/flashBack_freq_can /loop_beat_can /flashTrack0_number_can /flashCA_number_can
/flashPart_duration_can /flashTrack0_coef_can /flashCA_coef_can /flashBack_coef_can
/auto_beat_can;
#X obj 34 50 route /launch /RGBspectrum_can /restart /setup_can /return_message
/part_acc_factor_can /color_spectrum_coef_can /brush_radius_vol_coef_can
/part_acc_attack_coef_can /color_spectrum_replay_coef_can /brush_radius_vol_replay_coef_can
/connect /startsoundtrack /stopsoundtrack;
#X obj 352 179 s startsoundtrack;
#X obj 365 150 s stopsoundtrack;
#X connect 4 0 5 0;
#X connect 5 0 3 0;
#X connect 10 0 8 0;
#X connect 10 1 8 1;
#X connect 10 2 8 2;
#X connect 10 3 8 3;
#X connect 10 4 8 4;
#X connect 10 5 8 5;
#X connect 10 6 8 6;
#X connect 12 0 11 0;
#X connect 13 0 14 0;
#X connect 15 0 26 0;
#X connect 16 0 17 0;
#X connect 18 0 20 0;
#X connect 19 0 21 0;
#X connect 23 0 33 0;
#X connect 27 0 28 0;
#X connect 29 0 7 0;
#X connect 29 1 7 1;
#X connect 29 2 7 2;
#X connect 29 3 7 3;
#X connect 29 4 7 4;
#X connect 29 5 7 5;
#X connect 29 6 7 6;
#X connect 29 7 7 7;
#X connect 29 8 7 8;
#X connect 29 9 7 9;
#X connect 29 10 7 10;
#X connect 29 11 7 11;
#X connect 29 12 7 12;
#X connect 29 13 7 13;
#X connect 29 14 7 14;
#X connect 29 15 7 15;
#X connect 29 16 30 0;
#X connect 30 0 6 0;
#X connect 30 1 6 1;
#X connect 30 2 6 2;
#X connect 30 3 6 3;
#X connect 30 4 6 4;
#X connect 30 5 6 5;
#X connect 30 6 6 6;
#X connect 30 7 10 0;
#X connect 32 0 25 0;
#X connect 32 1 25 1;
#X connect 32 2 25 2;
#X connect 32 3 25 3;
#X connect 32 4 25 4;
#X connect 32 5 25 5;
#X connect 32 6 25 6;
#X connect 32 7 25 7;
#X connect 32 8 25 8;
#X connect 32 9 25 9;
#X connect 32 10 25 10;
#X connect 32 11 25 11;
#X connect 32 12 29 0;
#X connect 33 0 1 0;
#X connect 33 1 9 0;
#X connect 33 2 2 0;
#X connect 33 3 12 0;
#X connect 33 4 4 0;
#X connect 33 5 27 0;
#X connect 33 6 16 0;
#X connect 33 7 13 0;
#X connect 33 8 15 0;
#X connect 33 9 19 0;
#X connect 33 10 18 0;
#X connect 33 11 22 0;
#X connect 33 12 34 0;
#X connect 33 13 35 0;
#X connect 33 14 32 0;
#X restore 200 114 pd dumpVCMessages;
#X obj 112 131 s connect;
#X obj 34 132 s disconnect;
#X obj 34 90 bng 15 250 50 0 empty empty empty 0 -6 0 8 -24198 -1 -1
;
#X text 56 89 Manual connection;
#X text 198 98 OSC input messages;
#X obj 34 112 delay 3000;
#X obj 112 112 delay 3050;
#X msg 60 205 0;
#N canvas 241 394 505 260 playsoundtrack 0;
#X obj 32 226 dac~ 1 2;
#X obj 32 178 readsf~ 2;
#X obj 101 145 env~ 16384;
#X floatatom 97 166 0 0 0 0 - - -;
#X obj 195 144 env~ 16384;
#X floatatom 195 163 0 0 0 0 - - -;
#X obj 178 32 r startclock;
#X msg 281 54 0;
#X obj 281 34 r stopsoundtrack;
#X obj 32 34 r startsoundtrack;
#X msg 32 66 1;
#X obj 70 67 delay 1;
#X msg 45 150 1;
#X msg 32 99 open D:/VideoRushs/LYM-videos/LYM_alKemi_DVD/alkemi_exp_finalmix_june2016.wav
;
#X connect 1 0 0 0;
#X connect 1 1 0 1;
#X connect 2 0 3 0;
#X connect 4 0 5 0;
#X connect 7 0 13 0;
#X connect 8 0 7 0;
#X connect 9 0 10 0;
#X connect 10 0 13 0;
#X connect 10 0 11 0;
#X connect 11 0 12 0;
#X connect 12 0 1 0;
#X connect 13 0 1 0;
#X restore 203 226 pd playsoundtrack;
#X text 206 209 Soundtrack playing;
#X obj 218 31 s startsoundtrack;
#X connect 2 0 1 0;
#X connect 3 0 1 1;
#X connect 4 0 1 2;
#X connect 5 0 1 3;
#X connect 7 0 0 0;
#X connect 8 0 0 1;
#X connect 9 0 7 0;
#X connect 13 0 15 0;
#X connect 13 0 37 0;
#X connect 14 0 13 0;
#X connect 15 0 3 0;
#X connect 15 0 4 0;
#X connect 15 0 5 0;
#X connect 19 0 20 0;
#X connect 22 0 40 0;
#X connect 23 0 24 0;
#X connect 32 0 35 0;
#X connect 32 0 36 0;
#X connect 35 0 31 0;
#X connect 36 0 30 0;
#X connect 37 0 2 0;
#X restore 111 14 pd initial_board;
#X obj 246 534 cnv 15 20 25 empty track1decay_sign_can - 5 12 1 24
-44926 -33289 0;
#X obj 280 533 cnv 15 20 25 empty track2decay_sign_can - 5 12 1 24
-44926 -33289 0;
#X obj 186 397 vsl 15 128 0 0.01 0 0 empty track0decay BG 0 -9 0 14
-258699 -1 -24198 0 1;
#X obj 153 398 vsl 15 128 0 0.01 0 0 empty CAdecay CA 0 -9 0 14 -162280
-1 -4034 0 1;
#X obj 246 398 vsl 15 128 0 0.01 0 0 empty track1decay 1 0 -9 0 14
-128992 -1 -24198 0 1;
#X obj 280 397 vsl 15 128 0 0.01 0 0 empty track2decay 2 0 -9 0 14
-128992 -1 -24198 0 1;
#X obj 233 567 cnv 15 35 25 empty track1replay_can _ 5 12 1 24 -44926
-33289 0;
#X obj 273 567 cnv 15 35 25 empty track2replay_can _ 5 12 1 24 -44926
-33289 0;
#X obj 234 604 cnv 15 17 25 empty source_track_record_1_can _ 5 12
1 24 -44926 -33289 0;
#X obj 274 604 cnv 15 17 25 empty source_track_record_2_can _ 5 12
1 24 -44926 -33289 0;
#X obj 142 566 cnv 15 60 25 empty empty PLAY 0 12 1 14 -1 -4034 0;
#X obj 149 603 cnv 15 60 25 empty empty REC 0 12 1 14 -1 -4034 0;
#X obj 17 493 cnv 15 60 25 empty empty Freq_CA: 0 12 1 12 -1 -4034
0;
#X obj 99 492 cnv 15 20 25 empty flashCA_freq_can 0 0 12 1 14 -1 -262144
0;
#X obj 18 398 cnv 15 60 25 empty empty BEAT: 0 12 1 24 -1 -4034 0;
#X obj 97 399 cnv 15 20 25 empty loop_beat_can 0 0 12 1 24 -1 -262144
0;
#X obj 235 322 cnv 15 60 25 empty empty SYNC: 0 12 1 12 -1 -4034 0
;
#X obj 283 321 cnv 15 20 25 empty tracksSync_can - 5 12 1 24 -44926
-33289 0;
#X obj 141 634 cnv 15 60 25 empty empty STEP 0 12 1 14 -1 -4034 0;
#X obj 243 633 cnv 15 20 25 empty track1step_can _ 5 12 1 24 -44926
-33289 0;
#X obj 274 633 cnv 15 20 25 empty track2step_can _ 5 12 1 24 -44926
-33289 0;
#X obj 137 259 cnv 15 20 25 empty empty / 0 12 1 14 -1 -4034 0;
#X obj 149 258 cnv 15 60 25 empty CASubType_can X 0 12 1 14 -1 -262144
0;
#X obj 236 344 cnv 15 40 25 empty empty LOCK: 0 12 1 12 -1 -4034 0
;
#X obj 283 347 cnv 15 20 25 empty tracksLock_can - 5 12 1 24 -44926
-33289 0;
#X obj 184 535 cnv 15 20 25 empty track0decay_sign_can - 5 12 1 24
-44926 -33289 0;
#X obj 180 569 cnv 15 35 25 empty track0replay_can _ 5 12 1 24 -44926
-33289 0;
#X obj 181 605 cnv 15 17 25 empty source_track_record_0_can _ 5 12
1 24 -44926 -33289 0;
#X obj 180 634 cnv 15 20 25 empty track0step_can _ 5 12 1 24 -44926
-33289 0;
#X obj 201 397 vsl 8 128 0 1 0 0 empty track0weight empty 0 -9 0 10
-4032 -1 -1 0 1;
#X obj 260 398 vsl 8 128 0 1 0 0 empty track1weight empty 0 -9 0 10
-4032 -1 -1 0 1;
#X obj 295 397 vsl 8 128 0 1 0 0 empty track2weight empty 0 -9 0 10
-4032 -1 -1 0 1;
#X obj 168 398 vsl 8 128 0 1 0 0 empty CAweight empty 0 -9 0 10 -4032
-1 -1 0 1;
#X obj 275 223 vsl 15 80 0 1 0 0 empty echoNeg empty 0 -9 0 14 -162280
-1 -4034 0 1;
#X obj 251 224 vsl 15 80 0 1.01 0 0 empty echo ECHO+- 0 -9 0 14 -162280
-1 -4034 0 1;
#X obj 69 333 cnv 15 50 25 empty a_can A_1.00 0 12 1 14 -262144 -66577
0;
#X obj 16 541 cnv 15 60 25 empty empty Freq_Particle: 0 12 1 12 -1
-4034 0;
#X obj 17 472 cnv 15 60 25 empty empty Freq_Bgd: 0 12 1 12 -1 -4034
0;
#X obj 169 333 cnv 15 20 50 empty palette3_can empty 0 12 1 14 -262081
-262144 0;
#X obj 98 540 cnv 15 20 25 empty flashPart_freq_can 0 0 12 1 14 -1
-262144 0;
#X obj 100 472 cnv 15 20 25 empty flashTrack0_freq_can 0 0 12 1 14
-1 -262144 0;
#X obj 15 518 cnv 15 60 25 empty empty Freq_Back: 0 12 1 12 -1 -4034
0;
#X obj 99 519 cnv 15 20 25 empty flashBack_freq_can 0 0 12 1 14 -1
-262144 0;
#X obj 13 358 cnv 15 50 25 empty color_can empty 20 12 0 14 -1 -262144
0;
#X obj 69 358 cnv 15 50 25 empty alpha_can empty 0 12 1 14 -262144
-262144 0;
#X obj 75 137 cnv 15 130 25 empty brush_can Sun 0 12 1 14 -1 -262144
0;
#X obj 113 168 cnv 15 130 25 empty radius_can 6.5 0 12 1 24 -1 -262144
0;
#X obj 243 135 vsl 15 60 0 1.005 0 0 empty input_volume VOL. 0 -14
0 24 -261682 -1 -4034 0 1;
#X obj 111 470 cnv 15 15 25 empty empty @ 0 12 1 12 -1 -4034 0;
#X obj 128 472 cnv 15 20 25 empty flashTrack0_number_can 0 0 12 1 14
-1 -262144 0;
#X obj 113 540 cnv 15 15 25 empty empty X 0 12 1 12 -1 -4034 0;
#X obj 127 540 cnv 15 20 25 empty flashPart_duration_can 0 0 12 1 14
-1 -262144 0;
#X obj 13 333 cnv 15 50 25 empty gray_can G_0.00 0 12 1 14 -262144
-66577 0;
#X obj 15 284 cnv 15 60 25 empty empty MUSIC 0 12 1 16 -1 -4034 0;
#X obj 100 283 cnv 15 60 25 empty color_spectrum_coef_can 1.87 0 12
1 14 -1 -262144 0;
#X obj 72 283 cnv 15 20 25 empty empty Col 0 12 1 14 -1 -4034 0;
#X obj 187 283 cnv 15 60 25 empty brush_radius_vol_coef_can 0 0 12
1 14 -1 -262144 0;
#X obj 157 283 cnv 15 20 25 empty empty Rad 0 12 1 14 -1 -4034 0;
#X obj 48 304 cnv 15 30 25 empty part_acc_attack_coef_can 0 0 12 1
14 -1 -262144 0;
#X obj 16 303 cnv 15 20 25 empty empty Part 0 12 1 14 -1 -4034 0;
#X obj 110 491 cnv 15 15 25 empty empty @ 0 12 1 12 -1 -4034 0;
#X obj 127 493 cnv 15 20 25 empty flashCA_number_can 0 0 12 1 14 -1
-262144 0;
#X obj 16 452 cnv 15 60 25 empty empty FLASHES 0 12 1 16 -1 -4034 0
;
#X obj 198 137 cnv 20 30 25 empty tabletPressure_can Pres 5 12 1 12
-24198 -33289 0;
#X obj 167 137 cnv 20 30 25 empty tabletAngle_can Ang 5 12 1 12 -24198
-33289 0;
#X obj 125 304 cnv 15 60 25 empty color_spectrum_replay_coef_can 0
0 12 1 14 -1 -262144 0;
#X obj 79 304 cnv 15 20 25 empty empty R_Col 0 12 1 14 -1 -4034 0;
#X obj 211 304 cnv 15 60 25 empty brush_radius_vol_replay_coef_can
0 0 12 1 14 -1 -262144 0;
#X obj 162 304 cnv 15 20 25 empty empty R_Rad 0 12 1 14 -1 -4034 0
;
#X obj 15 615 cnv 15 60 25 empty empty W_CA: 0 12 1 12 -1 -4034 0;
#X obj 15 594 cnv 15 60 25 empty empty W_Track: 0 12 1 12 -1 -4034
0;
#X obj 14 636 cnv 15 60 25 empty empty W_Back: 0 12 1 12 -1 -4034 0
;
#X obj 73 600 hsl 60 15 0 1 0 0 empty flashTrack0_coef empty -2 -8
0 10 -262144 -1 -1 0 1;
#X obj 72 645 hsl 60 15 0 1 0 0 empty flashBack_coef empty -2 -8 0
10 -262144 -1 -1 0 1;
#X obj 72 621 hsl 60 15 0 1 0 0 empty flashCA_coef empty -2 -8 0 10
-262144 -1 -1 0 1;
#X obj 73 575 cnv 15 60 25 empty empty 0_____1 0 12 1 14 -1 -4034 0
;
#X obj 15 566 cnv 20 30 25 empty invert_can Inv 5 12 1 12 -24198 -33289
0;
#X obj 194 195 cnv 15 40 25 empty part_acc_factor_can 0.01 0 12 1 24
-1 -262144 0;
#X obj 201 605 cnv 15 17 25 empty target_track_record_0_can _ 5 12
1 24 -44926 -33289 0;
#X obj 253 604 cnv 15 17 25 empty target_track_record_1_can _ 5 12
1 24 -44926 -33289 0;
#X obj 294 604 cnv 15 17 25 empty target_track_record_2_can _ 5 12
1 24 -44926 -33289 0;
#X obj 19 422 cnv 15 60 25 empty empty auto: 0 12 1 24 -1 -4034 0;
#X obj 78 423 cnv 15 20 25 empty auto_beat_can 1 0 12 1 24 -1 -262144
0;
#N canvas 2 753 320 209 display_clock 0;
#N canvas 305 474 450 409 clock 0;
#X obj 177 210 / 60;
#X obj 177 238 int;
#X obj 264 286 -;
#X obj 279 254 * 60;
#X obj 177 111 timer;
#X obj 177 135 / 1000;
#X obj 204 84 metro 1000;
#X obj 177 69 bng 15 250 50 0 empty empty empty 17 7 0 10 -262144 -1
-1;
#X obj 177 167 int;
#X obj 177 44 inlet;
#X text 175 21 launch msg reception;
#X text 202 67 start of the elapsed time count;
#X text 184 348 DISPLAY IN LIVE SCORE;
#X text 184 336 MN/SEC ELAPSED TIME;
#X floatatom 280 204 5 0 0 0 - - -, f 5;
#X obj 33 263 makefilename %d;
#X msg 33 280 \; mn_can label \$1;
#X obj 314 285 makefilename %d;
#X msg 314 303 \; sec_can label \$1;
#X connect 0 0 1 0;
#X connect 1 0 3 0;
#X connect 1 0 15 0;
#X connect 2 0 17 0;
#X connect 3 0 2 1;
#X connect 4 0 5 0;
#X connect 5 0 8 0;
#X connect 6 0 4 1;
#X connect 7 0 4 0;
#X connect 7 0 6 0;
#X connect 8 0 0 0;
#X connect 8 0 2 0;
#X connect 8 0 14 0;
#X connect 9 0 7 0;
#X connect 15 0 16 0;
#X connect 17 0 18 0;
#X restore -721 -292 pd clock;
#X obj -753 -454 cnv 15 120 120 empty mn_can 3 0 50 1 96 -241291 -33289
0;
#X obj -626 -453 cnv 15 120 120 empty sec_can 28 0 50 1 96 -4034 -33289
0;
#X obj -721 -310 r startclock;
#X connect 3 0 0 0;
#X restore 107 35 pd display_clock;
#X obj 184 167 cnv 15 20 25 empty empty + 0 12 1 14 -1 -4034 0;
#X obj 198 168 cnv 15 30 25 empty radius_vol_can 1.96 1 12 1 14 -1
-262144 0;
#X connect 20 0 21 0;
#X connect 20 1 22 0;
#X connect 20 2 23 0;
