#N canvas 1034 315 633 383 10;
#X declare -lib mrpeach;
#X obj 23 45 bng 100 250 50 0 empty empty empty 0 -6 0 8 -24198 -1
-1;
#X obj 123 105 bng 40 250 50 0 empty empty empty 0 -6 0 8 -258699 -1
-1;
#X obj 23 28 loadbang;
#X text 16 12 UDP connection;
#X text 124 14 AUDIO ON;
#X obj 123 30 loadbang;
#X msg 123 46 \; pd dsp 1;
#N canvas 928 219 871 355 UDPinOut 1;
#X msg 194 64 disconnect;
#X text 58 8 OPEN UDP CONNECTION;
#X text 200 8 CLOSE UDP CONNECTION;
#X obj 171 146 r message;
#X obj 118 24 inlet;
#X obj 194 26 inlet;
#X floatatom 118 231 5 0 0 0 - - -;
#X obj 233 41 r disconnect;
#X obj 127 92 r connect;
#X obj 171 175 spigot;
#X text 204 99 Porphyrograph;
#X text 361 11 OSC message processing;
#X text 523 12 from Porphyrograph;
#X obj 14 29 import mrpeach;
#X obj 372 69 unpackOSC;
#X msg 118 120 connect 127.0.0.1 8001;
#X obj 370 130 print level/band;
#X obj 371 32 udpreceive 9001;
#X obj 118 209 udpsend;
#X obj 373 98 routeOSC /fftLevel10;
#X connect 0 0 18 0;
#X connect 3 0 9 0;
#X connect 4 0 15 0;
#X connect 5 0 0 0;
#X connect 7 0 0 0;
#X connect 8 0 15 0;
#X connect 9 0 18 0;
#X connect 14 0 19 0;
#X connect 15 0 18 0;
#X connect 17 0 14 0;
#X connect 18 0 6 0;
#X connect 18 0 9 1;
#X connect 19 0 16 0;
#X coords 0 0 10 10 0 0 0;
#X restore 23 145 pd UDPinOut;
#N canvas 417 50 1089 271 play_soundtrack 0;
#X msg 61 109 open \$1;
#X obj 60 179 readsf~ 2;
#X obj 36 135 delay 1;
#X msg 36 152 1;
#X obj 36 116 bng 15 250 50 0 empty empty empty 17 7 0 10 -262144 -1
-1;
#X obj 166 166 bng 15 250 50 0 empty empty empty 17 7 0 10 -262144
-1 -1;
#X text 185 166 Loop at the end of the track;
#X obj 61 51 pack s;
#X text 14 7 TRACK NAME SENT BY PORPHROGRAPH THRU /playsoundtrack MSG
;
#X obj 21 211 s~ channel1;
#X obj 115 211 s~ channel2;
#X obj 42 27 r soundtrack_fileName;
#X obj 65 238 dac~ 1 2;
#X floatatom 302 52 5 0 0 0 - - -;
#X obj 295 26 r soundtrack_onOff;
#X obj 166 108 moses 0.5;
#X obj 450 22 inlet;
#X msg 450 52 0;
#X symbolatom 61 82 60 0 0 0 - - -;
#X msg 545 8 open D:/sync.com/Sync/LYM-projects/SoundData/soundYN-Criton-data/20180513_WanderSteps_Prise4_MixV1.wav
;
#X msg 438 153 1;
#X msg 449 183 0;
#X msg 546 58 open D:/sync.com/Sync/LYM-projects/SoundData/soundYN-Criton-data/note10000.wav
;
#X connect 0 0 1 0;
#X connect 1 0 9 0;
#X connect 1 0 12 0;
#X connect 1 1 10 0;
#X connect 1 1 12 1;
#X connect 1 2 5 0;
#X connect 2 0 3 0;
#X connect 3 0 1 0;
#X connect 4 0 2 0;
#X connect 5 0 2 0;
#X connect 5 0 18 0;
#X connect 7 0 18 0;
#X connect 11 0 4 0;
#X connect 11 0 7 0;
#X connect 14 0 13 0;
#X connect 14 0 15 0;
#X connect 15 0 1 0;
#X connect 15 1 5 0;
#X connect 16 0 17 0;
#X connect 17 0 1 0;
#X connect 18 0 0 0;
#X connect 19 0 1 0;
#X connect 20 0 1 0;
#X connect 21 0 1 0;
#X connect 22 0 1 0;
#X restore 208 53 pd play_soundtrack;
#X text 207 35 SOUNDTRACKS;
#X obj 280 13 bng 40 250 50 0 empty empty empty 0 -6 0 8 -258699 -1
-1;
#X obj 41 287 packOSC;
#X obj 41 315 s message;
#X obj 372 230 dac~ 1;
#X text 369 247 audio output;
#X msg 210 155 start;
#X msg 212 177 stop;
#X msg 213 200 print;
#X obj 272 201 writesf~ 2;
#X msg 221 106 open -bytes 4 -rate 48000 D:/sync.com/Sync/LYM-projects/SoundData/soundYN-Criton-data/note1000.wav
;
#X obj 348 153 osc~ 904.395;
#X msg 149 328 send /sound_open "D:/sync.com/Sync/LYM-projects/SoundData/soundYN-Criton-data/note1000.wav"
;
#X msg 148 278 send /sound_open "D:/sync.com/Sync/LYM-projects/SoundData/soundYN-Criton-data/20180513_WanderSteps_Prise4_MixV1.wav"
;
#X msg 94 256 send /sound_exit;
#X msg 79 228 send /sound_play;
#X msg 59 203 send /sound_loop;
#X msg 42 176 send /sound_stop;
#X connect 0 0 7 0;
#X connect 1 0 7 1;
#X connect 2 0 0 0;
#X connect 5 0 6 0;
#X connect 10 0 8 0;
#X connect 11 0 12 0;
#X connect 15 0 18 0;
#X connect 16 0 18 0;
#X connect 17 0 18 0;
#X connect 19 0 18 0;
#X connect 20 0 18 0;
#X connect 20 0 18 1;
#X connect 21 0 11 0;
#X connect 22 0 11 0;
#X connect 23 0 11 0;
#X connect 24 0 11 0;
#X connect 25 0 11 0;
#X connect 26 0 11 0;
