#N canvas 1044 71 310 659 10;
#X obj -753 -297 cnv 15 300 650 empty empty empty 20 12 0 14 -1 -66577
0;
#X obj -740 139 cnv 15 70 25 empty r_can R_0.00 0 12 1 14 -261234 -66577
0;
#X obj -690 139 cnv 15 70 25 empty g_can G_0.00 0 12 1 14 -204786 -66577
0;
#X obj -640 139 cnv 15 70 25 empty b_can B_0.00 0 12 1 14 -203904 -66577
0;
#X obj -591 139 cnv 15 50 25 empty a_can A_1.00 0 12 1 14 -233017 -66577
0;
#X obj -745 -289 cnv 15 30 25 empty mn_can 163: 0 12 1 14 -24198 -33289
0;
#X obj -725 -289 cnv 15 20 25 empty sec_can 43 0 12 1 14 -24198 -33289
0;
#X obj -743 -40 cnv 15 60 25 empty empty BRUSH: 0 12 1 14 -1 -4034
0;
#X obj -666 -41 cnv 15 130 25 empty brush_can Circle 0 12 1 14 -1 -262144
0;
#X obj -519 -216 vsl 60 60 0 20 0 0 empty empty empty 0 -12 1 20 -162280
-1 -262144 295 1;
#X obj -541 -239 r soundvolume;
#X obj -743 -175 cnv 15 60 25 empty empty TEXTURE: 0 12 1 14 -1 -4034
0;
#X obj -666 -175 cnv 15 130 25 empty texture_can Neuron 0 12 1 14 -1
-262144 0;
#X obj -743 -146 cnv 15 100 25 empty empty DECAY_GOL: 0 12 1 14 -1
-4034 0;
#X obj -649 -146 cnv 15 20 25 empty GOLdecay_sign_can - 5 12 1 24 -44926
-33289 0;
#X obj -620 -146 cnv 15 70 25 empty empty DRAWING: 0 12 1 14 -1 -4034
0;
#X obj -546 -146 cnv 15 20 25 empty drawingdecay_sign_can + 5 12 1
24 -258699 -33289 0;
#X obj -742 5 cnv 15 60 25 empty empty GOL: 0 12 1 14 -1 -4034 0;
#X obj -650 4 cnv 15 130 25 empty GOL_can X 0 12 1 14 -1 -262144 0
;
#X obj -742 32 cnv 15 60 25 empty empty PARTICLES: 0 12 1 14 -1 -4034
0;
#X obj -650 32 cnv 15 130 25 empty particles_can X 0 12 1 14 -1 -262144
0;
#X obj -743 -89 cnv 15 60 25 empty empty DRAWING: 0 12 1 14 -1 -4034
0;
#X obj -666 -89 cnv 15 130 25 empty drawing_can Line 0 12 1 14 -1 -262144
0;
#X obj -742 -65 cnv 15 60 25 empty empty RADIUS: 0 12 1 14 -1 -4034
0;
#X obj -739 101 cnv 15 60 25 empty empty PALETTE: 0 12 1 14 -1 -4034
0;
#X obj -666 -65 cnv 15 130 25 empty radius_can 10.99 0 12 1 14 -1 -262144
0;
#X obj -664 101 cnv 15 40 25 empty palette1_can empty 0 12 1 14 -3265
-262144 0;
#X obj -621 101 cnv 15 40 25 empty palette2_can empty 0 12 1 14 -260481
-262144 0;
#X obj -578 101 cnv 15 40 25 empty palette3_can empty 0 12 1 14 -39
-262144 0;
#X obj -743 -227 cnv 15 60 25 empty empty SCENE: 0 12 1 14 -1 -4034
0;
#X obj -674 -228 cnv 15 130 25 empty setup_can X 0 12 1 14 -1 -262144
0;
#X obj -744 -253 cnv 15 140 25 empty message_can 10.9921 0 12 1 14
-1 -262144 0;
#X obj -559 -289 cnv 15 100 60 empty empty empty 20 12 0 14 -233017
-66577 0;
#X obj -537 -281 ctlin;
#X floatatom -557 -254 5 0 0 0 - - -;
#X floatatom -526 -254 5 0 0 0 - - -;
#X floatatom -494 -254 5 0 0 0 - - -;
#X obj -743 319 cnv 15 105 20 empty empty empty 20 12 0 14 -233017
-66577 0;
#N canvas 678 91 330 666 initial_board 0;
#N canvas 631 194 447 359 connect 0;
#X msg 26 -14 disconnect;
#X text -110 -70 OPEN UDP CONNECTION;
#X text 19 -69 CLOSE UDP CONNECTION;
#X msg -50 42 connect 127.0.0.1 1978;
#X obj 3 68 r message;
#X obj -50 -54 inlet;
#X obj 26 -52 inlet;
#X text 24 20 VIRCHOR;
#X obj 167 64 r message_SC;
#X floatatom 88 216 5 0 0 0 - - -;
#X floatatom -69 216 5 0 0 0 - - -;
#X text 182 8 SUPERCOLLIDER / sclang;
#X obj 3 119 packOSC;
#X obj 167 118 packOSC;
#X obj 65 -37 r disconnect;
#X obj -41 14 r connect;
#X obj 97 169 sendOSC;
#X obj -52 177 sendOSC;
#X msg 100 35 connect 192.168.0.3 57120;
#X obj 115 9 r connect;
#X connect 0 0 17 0;
#X connect 3 0 17 0;
#X connect 4 0 17 0;
#X connect 5 0 3 0;
#X connect 6 0 0 0;
#X connect 8 0 16 0;
#X connect 14 0 0 0;
#X connect 15 0 3 0;
#X connect 16 0 9 0;
#X connect 17 0 10 0;
#X connect 18 0 16 0;
#X coords 0 0 10 10 0 0 0;
#X restore -689 -213 pd connect;
#N canvas 2 63 1328 683 LYM_spectrum_v4 0;
#X obj 248 -213 bonk~;
#X obj 248 -177 unpack f f f f f f f f f f f;
#X floatatom 548 16 5 0 0 0 - - -;
#X floatatom 583 16 5 0 0 0 - - -;
#X floatatom 649 16 5 0 0 0 - - -;
#X floatatom 685 16 5 0 0 0 - - -;
#X floatatom 721 16 5 0 0 0 - - -;
#X obj 602 622 s message;
#X obj 601 580 spigot;
#X obj 634 -338 inlet;
#X msg 601 604 send /color_spectrum \$1 \$2 \$3;
#X obj 961 263 s message;
#X obj 443 157 s message;
#X obj 961 222 spigot;
#X obj 443 116 spigot;
#X obj 476 -338 inlet;
#X obj 384 -132 +;
#X obj 384 -89 +;
#X obj 417 -132 +;
#X obj 417 -111 +;
#X obj 451 -132 +;
#X obj 451 -111 +;
#X obj 417 -89 +;
#X obj 451 -89 +;
#X text 1012 -195 ATTACK OUTPUT;
#X text 384 -151 Sum over 3 spectrum bands;
#X obj 384 -1 /;
#X obj 417 -1 /;
#X obj 451 -1 /;
#X obj 248 -134 +;
#X obj 248 -113 +;
#X obj 248 -92 +;
#X obj 248 -50 +;
#X obj 293 -133 +;
#X obj 293 -112 +;
#X obj 293 -70 +;
#X obj 293 -90 +;
#X obj 350 -33 +;
#X obj 248 99 pack f f;
#X obj 293 -50 +;
#X obj 248 -1 /;
#X obj 293 -1 /;
#X obj 293 22 * 768;
#X msg 443 139 send /xy_spectrum \$1 \$2;
#X obj 927 -196 unpack f f f;
#X floatatom 1020 -179 5 0 0 0 - - -;
#X obj 821 -338 inlet;
#X obj 789 265 s message;
#X obj 788 223 spigot;
#X obj 994 -338 inlet;
#X msg 788 244 send /brush_radius_vol \$1;
#X obj 293 40 - 384;
#X obj 329 -337 loadbang;
#X msg 355 -280 minvel 0.1;
#X obj 237 -337 r startclock;
#X msg 270 -281 thresh 6 50;
#X obj 208 -280 metro 20;
#X obj 57 -342 adc~ 1 2;
#X obj 801 -68 s soundvolume;
#X obj 384 -111 +;
#X obj 248 -71 +;
#X obj 248 21 * 768;
#X obj 248 39 - 384;
#X msg 961 245 send /particle_acc_attack \$1;
#X text 799 -86 LOUDNESS OUTPUT;
#X text 598 -1 SPECTRUM OUTPUT;
#X obj 268 478 +;
#X obj 268 500 +;
#X obj 471 478 +;
#X obj 472 499 +;
#X obj 529 476 +;
#X obj 530 497 +;
#X obj 268 524 *;
#X obj 473 522 *;
#X obj 531 521 *;
#X obj 210 199 bang;
#X obj 246 199 bang;
#X msg 287 216 0;
#X msg 320 216 204;
#X msg 355 216 0;
#X msg 399 216 255;
#X msg 432 216 153;
#X msg 464 216 0;
#X msg 520 216 0;
#X msg 555 216 0;
#X msg 589 216 153;
#X obj 211 232 bang;
#X obj 247 232 bang;
#X msg 356 249 0;
#X msg 288 249 255;
#X msg 321 249 153;
#X msg 400 249 204;
#X msg 433 249 51;
#X msg 465 249 51;
#X msg 521 249 255;
#X msg 556 249 204;
#X msg 591 249 0;
#X obj 209 264 bang;
#X obj 245 264 bang;
#X obj 207 295 bang;
#X obj 243 295 bang;
#X obj 205 322 bang;
#X obj 241 322 bang;
#X msg 286 281 249;
#X msg 319 281 187;
#X msg 354 281 78;
#X msg 398 281 70;
#X msg 431 281 162;
#X msg 463 281 141;
#X msg 519 281 220;
#X msg 554 281 112;
#X msg 589 281 100;
#X msg 284 312 247;
#X msg 317 312 238;
#X msg 352 312 181;
#X msg 396 312 229;
#X msg 429 312 115;
#X msg 461 312 148;
#X msg 517 312 147;
#X msg 552 312 189;
#X msg 587 312 201;
#X msg 282 339 237;
#X msg 316 339 232;
#X msg 350 339 239;
#X msg 394 339 210;
#X msg 427 339 124;
#X msg 459 339 89;
#X msg 515 339 101;
#X msg 550 339 180;
#X msg 585 339 29;
#X obj 269 577 / 765;
#X obj 475 575 / 765;
#X obj 532 574 / 765;
#X obj 433 599 pack f f f;
#X obj 333 473 r color_spectrum_coef;
#X obj 347 67 r xy_spectrum_coef;
#X obj 248 76 *;
#X obj 293 75 *;
#X obj 788 138 *;
#X obj 840 81 r brush_radius_vol_coef;
#X obj 961 34 *;
#X obj 1025 32 r particle_acc_attack_coef;
#X obj 369 22 s band1;
#X obj 422 22 s band2;
#X obj 477 21 s band3;
#X obj 268 550 *;
#X obj 473 548 *;
#X obj 531 547 *;
#X obj 321 517 r band1;
#X obj 393 517 r band2;
#X obj 569 514 r band3;
#X obj 51 -177 r RGBspectrum;
#X obj 73 -140 loadbang;
#X floatatom 130 -42 5 0 0 0 - - -;
#X obj 74 -8 +;
#X msg 51 -66 1;
#X msg 43 523 send /color_spectrum_coef \$1;
#X obj 43 545 s message;
#X floatatom 301 626 5 0 0 0 - - -;
#X floatatom 337 626 5 0 0 0 - - -;
#X floatatom 373 626 5 0 0 0 - - -;
#X msg 840 105 send /brush_radius_vol_coef \$1;
#X obj 841 127 s message;
#X obj 839 59 r brush_radius_vol_coefVC;
#X obj 347 47 r xy_spectrum_coefVC;
#X obj 348 112 s message;
#X msg 347 90 send /xy_spectrum_coef \$1;
#X obj 1025 74 s message;
#X msg 1025 54 send /particle_acc_attack_coef \$1;
#X text 1011 -60 Receives amplification coef;
#X text 1012 -46 either from slider in PD (USB control);
#X text 1012 -33 or from VirChor (keystroke control);
#X text 1012 -21 sends value to VC just for visual;
#X text 1009 -7 feedback;
#X obj 1025 12 r particle_acc_attack_coefVC;
#X floatatom 1102 139 5 0 0 0 - - -;
#X obj 961 -13 * 0.1024;
#X obj 961 9 - 0.0512;
#X obj -38 -145 r startclock;
#X obj 154 129 route 0 1 2 3 4 5 6;
#X msg 285 366 2;
#X msg 353 366 130;
#X msg 397 366 122;
#X msg 430 366 186;
#X msg 461 366 122;
#X msg 518 366 183;
#X msg 553 366 110;
#X msg 587 366 184;
#X msg 318 366 132;
#X obj 208 349 bang;
#X obj 244 349 bang;
#X obj 209 166 bang;
#X obj 245 166 bang;
#X msg 286 183 255;
#X msg 319 183 255;
#X msg 354 183 255;
#X msg 398 183 255;
#X msg 431 183 255;
#X msg 462 183 255;
#X msg 519 183 255;
#X msg 554 183 255;
#X msg 588 183 255;
#X obj 77 46 % 7;
#X floatatom 339 563 5 0 0 0 - - -;
#X obj -78 -18 r color_spectrum_coef;
#X obj -79 4 bng 15 250 50 0 empty empty empty 17 7 0 10 -262144 -1
-1;
#X text 225 -150 Sum over 2 spectrum bands;
#X text 94 -64 Palette incrementation;
#X msg 8 -64 -1;
#X floatatom 78 18 5 0 0 0 - - -;
#X obj 142 -119 - 1;
#X obj 141 -142 r RGBspectrumVC;
#X obj 91 -102 bng 15 250 50 0 empty empty empty 17 7 0 10 -262144
-1 -1;
#X floatatom 749 -82 5 0 0 0 - - -;
#X obj 102 -274 *~ 1;
#X msg 788 367 \; radius_can label \$1;
#X obj 821 293 > 0;
#X obj 788 321 spigot;
#N canvas 1 80 288 291 colorRGB 0;
#X obj 16 27 inlet;
#X obj 93 28 inlet;
#X text 21 9 red;
#X text 93 11 green;
#X obj 159 75 t b f;
#X obj 93 112 +;
#X obj 93 137 t b f;
#X obj 93 168 +;
#X obj 16 52 * -65536;
#X obj 93 53 * -256;
#X obj 159 53 * -1;
#X obj 93 199 - 1;
#X obj 159 28 inlet;
#X obj 93 226 outlet;
#X text 161 11 blue;
#X connect 0 0 8 0;
#X connect 1 0 9 0;
#X connect 4 0 5 0;
#X connect 4 1 5 1;
#X connect 5 0 6 0;
#X connect 6 0 7 0;
#X connect 6 1 7 1;
#X connect 7 0 11 0;
#X connect 8 0 7 0;
#X connect 9 0 5 0;
#X connect 10 0 4 0;
#X connect 11 0 13 0;
#X connect 12 0 10 0;
#X restore -42 336 pd colorRGB;
#X msg -42 353 \; palette1_can color \$1;
#N canvas 1 80 288 291 colorRGB 0;
#X obj 16 27 inlet;
#X obj 93 28 inlet;
#X text 21 9 red;
#X text 93 11 green;
#X obj 159 75 t b f;
#X obj 93 112 +;
#X obj 93 137 t b f;
#X obj 93 168 +;
#X obj 16 52 * -65536;
#X obj 93 53 * -256;
#X obj 159 53 * -1;
#X obj 93 199 - 1;
#X obj 159 28 inlet;
#X obj 93 226 outlet;
#X text 161 11 blue;
#X connect 0 0 8 0;
#X connect 1 0 9 0;
#X connect 4 0 5 0;
#X connect 4 1 5 1;
#X connect 5 0 6 0;
#X connect 6 0 7 0;
#X connect 6 1 7 1;
#X connect 7 0 11 0;
#X connect 8 0 7 0;
#X connect 9 0 5 0;
#X connect 10 0 4 0;
#X connect 11 0 13 0;
#X connect 12 0 10 0;
#X restore -40 442 pd colorRGB;
#N canvas 1 80 288 291 colorRGB 0;
#X obj 16 27 inlet;
#X obj 93 28 inlet;
#X text 21 9 red;
#X text 93 11 green;
#X obj 159 75 t b f;
#X obj 93 112 +;
#X obj 93 137 t b f;
#X obj 93 168 +;
#X obj 16 52 * -65536;
#X obj 93 53 * -256;
#X obj 159 53 * -1;
#X obj 93 199 - 1;
#X obj 159 28 inlet;
#X obj 93 226 outlet;
#X text 161 11 blue;
#X connect 0 0 8 0;
#X connect 1 0 9 0;
#X connect 4 0 5 0;
#X connect 4 1 5 1;
#X connect 5 0 6 0;
#X connect 6 0 7 0;
#X connect 6 1 7 1;
#X connect 7 0 11 0;
#X connect 8 0 7 0;
#X connect 9 0 5 0;
#X connect 10 0 4 0;
#X connect 11 0 13 0;
#X connect 12 0 10 0;
#X restore 664 462 pd colorRGB;
#X msg -40 459 \; palette2_can color \$1;
#X msg 664 479 \; palette3_can color \$1;
#X obj 788 350 makefilename %.2f;
#X obj 821 -201 r input_volume;
#X obj 788 -160 + 1;
#X obj 129 -302 r input_volume;
#X connect 0 0 1 0;
#X connect 0 1 44 0;
#X connect 1 0 16 0;
#X connect 1 0 29 0;
#X connect 1 1 16 1;
#X connect 1 1 29 1;
#X connect 1 2 30 1;
#X connect 1 2 59 1;
#X connect 1 3 18 0;
#X connect 1 3 31 1;
#X connect 1 3 17 1;
#X connect 1 4 18 1;
#X connect 1 4 60 1;
#X connect 1 5 19 1;
#X connect 1 5 33 0;
#X connect 1 5 32 1;
#X connect 1 5 226 0;
#X connect 1 6 22 1;
#X connect 1 6 33 1;
#X connect 1 7 20 0;
#X connect 1 7 34 1;
#X connect 1 8 20 1;
#X connect 1 8 36 1;
#X connect 1 9 21 1;
#X connect 1 9 35 1;
#X connect 1 10 23 1;
#X connect 1 10 39 1;
#X connect 8 0 10 0;
#X connect 9 0 8 1;
#X connect 10 0 7 0;
#X connect 13 0 63 0;
#X connect 14 0 43 0;
#X connect 15 0 14 1;
#X connect 16 0 59 0;
#X connect 17 0 26 0;
#X connect 18 0 19 0;
#X connect 19 0 22 0;
#X connect 20 0 21 0;
#X connect 21 0 23 0;
#X connect 22 0 27 0;
#X connect 23 0 28 0;
#X connect 26 0 4 0;
#X connect 26 0 142 0;
#X connect 27 0 5 0;
#X connect 27 0 143 0;
#X connect 28 0 6 0;
#X connect 28 0 144 0;
#X connect 29 0 30 0;
#X connect 30 0 31 0;
#X connect 31 0 60 0;
#X connect 32 0 40 0;
#X connect 32 0 37 0;
#X connect 33 0 34 0;
#X connect 34 0 36 0;
#X connect 35 0 39 0;
#X connect 36 0 35 0;
#X connect 37 0 41 1;
#X connect 37 0 40 1;
#X connect 37 0 26 1;
#X connect 37 0 27 1;
#X connect 37 0 28 1;
#X connect 38 0 14 0;
#X connect 39 0 41 0;
#X connect 39 0 37 1;
#X connect 40 0 61 0;
#X connect 40 0 2 0;
#X connect 41 0 42 0;
#X connect 41 0 3 0;
#X connect 42 0 51 0;
#X connect 43 0 12 0;
#X connect 44 1 45 0;
#X connect 44 1 176 0;
#X connect 46 0 48 1;
#X connect 48 0 50 0;
#X connect 48 0 216 0;
#X connect 48 0 217 0;
#X connect 49 0 13 1;
#X connect 50 0 47 0;
#X connect 51 0 137 0;
#X connect 52 0 55 0;
#X connect 52 0 56 0;
#X connect 52 0 53 0;
#X connect 53 0 0 0;
#X connect 54 0 55 0;
#X connect 54 0 56 0;
#X connect 54 0 53 0;
#X connect 55 0 0 0;
#X connect 56 0 0 0;
#X connect 57 0 214 0;
#X connect 57 1 214 0;
#X connect 59 0 17 0;
#X connect 60 0 32 0;
#X connect 61 0 62 0;
#X connect 62 0 136 0;
#X connect 63 0 11 0;
#X connect 66 0 67 0;
#X connect 67 0 72 0;
#X connect 68 0 69 0;
#X connect 69 0 73 0;
#X connect 70 0 71 0;
#X connect 71 0 74 0;
#X connect 72 0 145 1;
#X connect 72 0 203 0;
#X connect 73 0 146 1;
#X connect 74 0 147 1;
#X connect 75 0 78 0;
#X connect 75 0 79 0;
#X connect 75 0 80 0;
#X connect 75 0 81 0;
#X connect 75 0 82 0;
#X connect 75 0 83 0;
#X connect 75 0 84 0;
#X connect 75 0 85 0;
#X connect 75 0 77 0;
#X connect 76 0 75 0;
#X connect 77 0 66 0;
#X connect 77 0 218 0;
#X connect 78 0 68 0;
#X connect 78 0 218 1;
#X connect 79 0 70 0;
#X connect 79 0 218 2;
#X connect 80 0 66 1;
#X connect 80 0 220 0;
#X connect 81 0 68 1;
#X connect 81 0 220 1;
#X connect 82 0 70 1;
#X connect 82 0 220 2;
#X connect 83 0 67 1;
#X connect 83 0 221 0;
#X connect 84 0 69 1;
#X connect 84 0 221 1;
#X connect 85 0 71 1;
#X connect 85 0 221 2;
#X connect 86 0 90 0;
#X connect 86 0 88 0;
#X connect 86 0 91 0;
#X connect 86 0 92 0;
#X connect 86 0 93 0;
#X connect 86 0 94 0;
#X connect 86 0 95 0;
#X connect 86 0 96 0;
#X connect 86 0 89 0;
#X connect 87 0 86 0;
#X connect 88 0 70 0;
#X connect 88 0 218 2;
#X connect 89 0 66 0;
#X connect 89 0 218 0;
#X connect 90 0 68 0;
#X connect 90 0 218 1;
#X connect 91 0 66 1;
#X connect 91 0 220 0;
#X connect 92 0 68 1;
#X connect 92 0 220 1;
#X connect 93 0 70 1;
#X connect 93 0 220 2;
#X connect 94 0 67 1;
#X connect 94 0 221 0;
#X connect 95 0 69 1;
#X connect 95 0 221 1;
#X connect 96 0 71 1;
#X connect 96 0 221 2;
#X connect 97 0 104 0;
#X connect 97 0 105 0;
#X connect 97 0 106 0;
#X connect 97 0 107 0;
#X connect 97 0 108 0;
#X connect 97 0 109 0;
#X connect 97 0 110 0;
#X connect 97 0 111 0;
#X connect 97 0 103 0;
#X connect 98 0 97 0;
#X connect 99 0 113 0;
#X connect 99 0 114 0;
#X connect 99 0 115 0;
#X connect 99 0 116 0;
#X connect 99 0 117 0;
#X connect 99 0 118 0;
#X connect 99 0 119 0;
#X connect 99 0 120 0;
#X connect 99 0 112 0;
#X connect 100 0 99 0;
#X connect 101 0 122 0;
#X connect 101 0 123 0;
#X connect 101 0 124 0;
#X connect 101 0 125 0;
#X connect 101 0 126 0;
#X connect 101 0 127 0;
#X connect 101 0 128 0;
#X connect 101 0 129 0;
#X connect 101 0 121 0;
#X connect 102 0 101 0;
#X connect 103 0 66 0;
#X connect 103 0 218 0;
#X connect 104 0 68 0;
#X connect 104 0 218 1;
#X connect 105 0 70 0;
#X connect 105 0 218 2;
#X connect 106 0 66 1;
#X connect 106 0 220 0;
#X connect 107 0 68 1;
#X connect 107 0 220 1;
#X connect 108 0 70 1;
#X connect 108 0 220 2;
#X connect 109 0 67 1;
#X connect 109 0 221 0;
#X connect 110 0 69 1;
#X connect 110 0 221 1;
#X connect 111 0 71 1;
#X connect 111 0 221 2;
#X connect 112 0 66 0;
#X connect 112 0 218 0;
#X connect 113 0 68 0;
#X connect 113 0 218 1;
#X connect 114 0 70 0;
#X connect 114 0 218 2;
#X connect 115 0 66 1;
#X connect 115 0 220 0;
#X connect 116 0 68 1;
#X connect 116 0 220 1;
#X connect 117 0 70 1;
#X connect 117 0 220 2;
#X connect 118 0 67 1;
#X connect 118 0 221 0;
#X connect 119 0 69 1;
#X connect 119 0 221 1;
#X connect 120 0 71 1;
#X connect 120 0 221 2;
#X connect 121 0 66 0;
#X connect 121 0 218 0;
#X connect 122 0 68 0;
#X connect 122 0 218 1;
#X connect 123 0 70 0;
#X connect 123 0 218 2;
#X connect 124 0 66 1;
#X connect 124 0 220 0;
#X connect 125 0 68 1;
#X connect 125 0 220 1;
#X connect 126 0 70 1;
#X connect 126 0 220 2;
#X connect 127 0 67 1;
#X connect 127 0 221 0;
#X connect 128 0 69 1;
#X connect 128 0 221 1;
#X connect 129 0 71 1;
#X connect 129 0 221 2;
#X connect 130 0 133 0;
#X connect 130 0 158 0;
#X connect 131 0 133 1;
#X connect 131 0 159 0;
#X connect 132 0 133 2;
#X connect 132 0 160 0;
#X connect 133 0 8 0;
#X connect 134 0 72 1;
#X connect 134 0 73 1;
#X connect 134 0 74 1;
#X connect 134 0 156 0;
#X connect 135 0 136 1;
#X connect 135 0 137 1;
#X connect 135 0 166 0;
#X connect 136 0 38 0;
#X connect 137 0 38 1;
#X connect 138 0 48 0;
#X connect 139 0 138 1;
#X connect 139 0 161 0;
#X connect 140 0 13 0;
#X connect 140 0 175 0;
#X connect 141 0 140 1;
#X connect 141 0 168 0;
#X connect 145 0 130 0;
#X connect 146 0 131 0;
#X connect 147 0 132 0;
#X connect 148 0 145 0;
#X connect 149 0 146 0;
#X connect 150 0 147 0;
#X connect 151 0 155 0;
#X connect 152 0 208 0;
#X connect 152 0 155 0;
#X connect 153 0 154 1;
#X connect 154 0 209 0;
#X connect 155 0 154 0;
#X connect 156 0 157 0;
#X connect 161 0 162 0;
#X connect 163 0 138 1;
#X connect 163 0 161 0;
#X connect 164 0 136 1;
#X connect 164 0 137 1;
#X connect 164 0 166 0;
#X connect 166 0 165 0;
#X connect 168 0 167 0;
#X connect 174 0 140 1;
#X connect 174 0 168 0;
#X connect 176 0 177 0;
#X connect 177 0 140 0;
#X connect 178 0 155 0;
#X connect 178 0 208 0;
#X connect 179 0 191 0;
#X connect 179 0 192 0;
#X connect 179 1 75 0;
#X connect 179 1 76 0;
#X connect 179 2 86 0;
#X connect 179 2 87 0;
#X connect 179 3 97 0;
#X connect 179 3 98 0;
#X connect 179 4 99 0;
#X connect 179 4 100 0;
#X connect 179 5 101 0;
#X connect 179 5 102 0;
#X connect 179 6 189 0;
#X connect 179 6 190 0;
#X connect 180 0 66 0;
#X connect 180 0 218 0;
#X connect 181 0 70 0;
#X connect 181 0 218 2;
#X connect 182 0 66 1;
#X connect 182 0 220 0;
#X connect 183 0 68 1;
#X connect 183 0 220 1;
#X connect 184 0 70 1;
#X connect 184 0 220 2;
#X connect 185 0 67 1;
#X connect 185 0 221 0;
#X connect 186 0 69 1;
#X connect 186 0 221 1;
#X connect 187 0 71 1;
#X connect 187 0 221 2;
#X connect 188 0 68 0;
#X connect 188 0 218 1;
#X connect 189 0 188 0;
#X connect 189 0 181 0;
#X connect 189 0 182 0;
#X connect 189 0 183 0;
#X connect 189 0 184 0;
#X connect 189 0 185 0;
#X connect 189 0 186 0;
#X connect 189 0 187 0;
#X connect 189 0 180 0;
#X connect 190 0 189 0;
#X connect 191 0 194 0;
#X connect 191 0 195 0;
#X connect 191 0 196 0;
#X connect 191 0 197 0;
#X connect 191 0 198 0;
#X connect 191 0 199 0;
#X connect 191 0 200 0;
#X connect 191 0 201 0;
#X connect 191 0 193 0;
#X connect 192 0 191 0;
#X connect 193 0 66 0;
#X connect 193 0 218 0;
#X connect 194 0 68 0;
#X connect 194 0 218 1;
#X connect 195 0 70 0;
#X connect 195 0 218 2;
#X connect 196 0 66 1;
#X connect 196 0 220 0;
#X connect 197 0 68 1;
#X connect 197 0 220 1;
#X connect 198 0 70 1;
#X connect 198 0 220 2;
#X connect 199 0 67 1;
#X connect 199 0 221 0;
#X connect 200 0 69 1;
#X connect 200 0 221 1;
#X connect 201 0 71 1;
#X connect 201 0 221 2;
#X connect 202 0 153 0;
#X connect 202 0 179 0;
#X connect 204 0 205 0;
#X connect 205 0 209 0;
#X connect 208 0 154 1;
#X connect 209 0 202 0;
#X connect 210 0 153 0;
#X connect 210 0 212 0;
#X connect 211 0 210 0;
#X connect 212 0 154 0;
#X connect 214 0 0 0;
#X connect 216 0 217 1;
#X connect 217 0 224 0;
#X connect 218 0 219 0;
#X connect 220 0 222 0;
#X connect 221 0 223 0;
#X connect 224 0 215 0;
#X connect 226 0 138 0;
#X connect 226 0 58 0;
#X connect 226 0 213 0;
#X connect 227 0 214 1;
#X restore -688 4 pd LYM_spectrum_v4;
#X obj -688 -56 tgl 15 0 empty empty empty 17 7 0 10 -262144 -1 -1
1 1;
#X obj -688 -41 tgl 15 0 empty empty empty 17 7 0 10 -262144 -1 -1
1 1;
#X obj -688 -26 tgl 15 0 empty empty empty 17 7 0 10 -262144 -1 -1
1 1;
#X obj -688 -11 tgl 15 0 empty empty empty 17 7 0 10 -262144 -1 -1
1 1;
#X text -686 -121 music control;
#X obj -689 -230 bng 15 250 50 0 empty empty empty 0 -6 0 8 -24198
-1 -1;
#X obj -632 -230 bng 15 250 50 0 empty empty empty 0 -6 0 8 -258699
-1 -1;
#X obj -689 -248 loadbang;
#X text -693 -265 UDP connection;
#X text -668 -56 1: xy-spectrum;
#X text -668 -40 2: color-spectrum;
#X obj -688 -87 bng 15 250 50 0 empty empty empty 17 7 0 10 -262144
-1 -1;
#X obj -688 -104 loadbang;
#X msg -688 -72 1;
#N canvas 2 55 1345 683 MIDIControl_Faders 0;
#X obj 17 -4 vsl 15 128 0 1 0 0 empty empty empty 0 -8 0 8 -258113
-1 -1 12700 1;
#X obj 32 -4 vsl 15 128 0 1 0 0 empty empty empty 0 -8 0 8 -4034 -1
-1 12700 1;
#X obj 62 -4 vsl 15 128 0 1 0 0 empty empty empty 0 -8 0 8 -162280
-1 -1 12700 1;
#X obj 47 -4 vsl 15 128 0 1 0 0 empty empty empty 0 -8 0 8 -4160 -1
-1 12700 1;
#X obj 17 -48 bng 15 250 50 0 empty empty empty 17 7 0 10 -262144 -1
-1;
#X obj 17 -64 loadbang;
#X obj 17 169 pack f f f f;
#X msg 17 186 send /local_color \$1 \$2 \$3 \$4;
#X obj 17 203 s message;
#X obj 509 187 ctlin;
#X floatatom 482 213 5 0 0 0 - - -;
#X floatatom 522 213 5 0 0 0 - - -;
#X floatatom 561 213 5 0 0 0 - - -;
#X obj 120 -38 ctlin 13 1;
#X obj 120 -22 / 127;
#X obj 117 20 / 127;
#X obj 118 63 / 127;
#X obj 116 106 / 127;
#X obj 117 4 ctlin 12 1;
#X obj 118 47 ctlin 10 1;
#X obj 658 -48 bng 15 250 50 0 empty empty empty 0 -6 0 8 -262144 -1
-1;
#X obj 658 -1 vsl 15 128 0 2 0 0 0 empty empty 0 -8 0 8 -262144 -1
-1 0 1;
#X obj 688 -1 vsl 15 128 0 50 0 0 0 empty empty 0 -8 0 8 -262144 -1
-1 0 1;
#X obj 673 -1 vsl 15 128 0 4 0 0 0 empty empty 0 -8 0 8 -262144 -1
-1 0 1;
#X msg 674 -19 0;
#X msg 687 -19 0;
#X obj 659 -64 loadbang;
#X msg 658 -19 0;
#X text 654 -81 MUSIC CONTROL;
#X obj 496 -8 vsl 15 128 0 400 0 0 empty empty empty 0 -8 0 8 -262144
-1 -1 0 1;
#X obj 497 -41 bng 15 250 50 0 empty empty empty 17 7 0 10 -262144
-1 -1;
#X obj 497 -57 loadbang;
#X msg 497 -26 0;
#X obj 498 144 s message;
#X obj 354 -8 vsl 15 128 0 100 0 0 empty empty empty 0 -8 0 8 -262144
-1 -1 0 1;
#X obj 354 -41 bng 15 250 50 0 empty empty empty 17 7 0 10 -262144
-1 -1;
#X obj 354 -57 loadbang;
#X msg 354 -26 0;
#X obj 356 146 s message;
#X obj 325 489 vsl 15 128 0 1 0 0 empty empty empty 0 -8 0 8 -262144
-1 -1 0 1;
#X obj 325 445 bng 15 250 50 0 empty empty empty 17 7 0 10 -262144
-1 -1;
#X obj 325 426 loadbang;
#X msg 325 460 0;
#X obj 325 706 s message;
#X obj 376 -1 ctlin 13 3;
#X msg 354 128 send /dot_frequency \$1;
#X obj 247 24 / 127;
#X obj 223 -3 vsl 15 128 0 1 0 0 empty empty empty 0 -8 0 8 -162280
-1 -1 0 1;
#X obj 223 -36 bng 15 250 50 0 empty empty empty 17 7 0 10 -262144
-1 -1;
#X obj 223 -52 loadbang;
#X msg 223 -21 0;
#X obj 223 144 s message;
#X obj 755 26 / 32;
#X obj 247 8 ctlin 7 2;
#X obj 154 -22 * -1;
#X obj 182 -22 + 1;
#X obj 151 20 * -1;
#X obj 179 20 + 1;
#X obj 152 63 * -1;
#X obj 180 63 + 1;
#X obj 150 106 * -1;
#X obj 178 106 + 1;
#X obj 281 24 * -1;
#X obj 309 24 + 1;
#X obj 376 15 / 1.27;
#X obj 1093 -9 vsl 15 128 0 1111 0 0 empty empty empty 0 -8 0 8 -262144
-1 -1 0 1;
#X obj 1094 -42 bng 15 250 50 0 empty empty empty 17 7 0 10 -262144
-1 -1;
#X obj 1094 -58 loadbang;
#X msg 1094 -27 0;
#X obj 1095 143 s message;
#X obj 1138 -14 ctlin 7 3;
#X obj 518 -1 ctlin 12 3;
#X obj 118 89 ctlin 7 1;
#X text 17 -82 LOCAL COLOR;
#X text 380 -78 DOT FREQ / RADIUS;
#X text 219 -73 LOCAL GRAY;
#X text 321 406 DECAY;
#X obj 22 442 bng 15 250 50 0 empty empty empty 0 -6 0 8 -262144 -1
-1;
#X obj 19 491 vsl 15 128 0 20 0 0 0 empty empty 0 -8 0 8 -262144 -1
-1 6350 1;
#X obj 23 426 loadbang;
#X obj 518 33 + 1;
#X obj 1139 2 / 12.7;
#X obj 1178 2 + 1;
#X obj 1234 -9 vsl 15 128 1 101 0 0 empty empty empty 0 -8 0 8 -262144
-1 -1 0 1;
#X obj 1235 -42 bng 15 250 50 0 empty empty empty 17 7 0 10 -262144
-1 -1;
#X obj 1235 -58 loadbang;
#X msg 1235 -27 0;
#X text 1145 -81 WIDE RANGE RADIUS;
#X msg 223 128 send /local_gray \$1;
#X obj 1256 -2 ctlin 7 4;
#X obj 756 -35 ctlin 13 6;
#X obj 755 10 ctlin 12 6;
#X obj 752 53 ctlin 10 6;
#X obj 363 491 ctlin 7 7;
#X obj 1129 64 *;
#X obj 1204 26 bng 15 250 50 0 empty empty empty 17 7 0 10 -262144
-1 -1;
#X msg 17 -22 1;
#X msg 33 -23 1;
#X msg 52 -21 1;
#X msg 68 -20 1;
#X obj 33 136 t b f;
#X obj 83 137 t b f;
#X obj 131 139 t b f;
#X obj 893 -18 vsl 15 128 0 1 0 0 empty empty empty 0 -8 0 8 -262144
-1 -1 12700 1;
#X obj 893 -51 bng 15 250 50 0 empty empty empty 17 7 0 10 -262144
-1 -1;
#X obj 893 -67 loadbang;
#X obj 893 188 s message;
#X obj 364 507 / 127;
#X obj 63 502 ctlin 12 7;
#X obj 908 -18 vsl 15 128 0 1 0 0 empty empty empty 0 -8 0 8 -262144
-1 -1 12700 1;
#X obj 952 -15 ctlin 13 8;
#X obj 893 155 pack f f;
#X obj 919 121 t b f;
#X obj 953 66 ctlin 13 7;
#X msg 877 -36 1;
#X msg 908 -36 1;
#X obj 953 22 + 1;
#X obj 953 2 / -127;
#X obj 953 83 / -127;
#X obj 953 103 + 1;
#X obj 345 490 vsl 15 128 0 1 0 0 empty empty empty 0 -8 0 8 -262144
-1 -1 0 1;
#X obj 377 579 / 127;
#X obj 376 563 ctlin 7 8;
#X obj 344 637 t b f;
#X obj 325 668 pack f f;
#X text 889 -81 WEIGHTINGS GOL/DRAWING;
#X text 24 405 EXTENDED GOL RADIUS;
#X obj 18 642 s message;
#X floatatom 97 581 5 0 0 0 - - -;
#X obj 155 443 bng 15 250 50 0 empty empty empty 0 -6 0 8 -262144 -1
-1;
#X obj 152 492 vsl 15 128 0 8.9 0 0 0 empty empty 0 -8 0 8 -262144
-1 -1 0 1;
#X obj 156 427 loadbang;
#X obj 151 643 s message;
#X text 157 406 NB EXT GOL NEIGHBORS;
#X obj 196 503 ctlin 10 7;
#X msg 153 465 0;
#X obj 507 515 vradio 15 1 0 5 empty empty empty 0 -8 0 10 -262144
-1 -1 0;
#X obj 486 476 vsl 15 128 0 5 0 0 empty empty empty 0 -8 0 8 -262144
-1 -1 0 1;
#X obj 486 443 bng 15 250 50 0 empty empty empty 17 7 0 10 -262144
-1 -1;
#X obj 486 427 loadbang;
#X msg 486 458 0;
#X text 477 408 SCALE STEPS;
#X obj 486 652 s message;
#X msg 486 636 send /scale \$1;
#X obj 546 518 / 25.4;
#X msg 20 464 10;
#X obj 546 502 ctlin 10 5;
#X obj 634 472 vsl 15 128 0 0.01 0 0 empty empty empty 0 -8 0 8 -262144
-1 -1 0 1;
#X obj 622 435 bng 15 250 50 0 empty empty empty 17 7 0 10 -262144
-1 -1;
#X obj 622 419 loadbang;
#X obj 776 497 / 127;
#X obj 752 470 vsl 15 128 0 1 0 0 empty empty empty 0 -8 0 8 -162280
-1 -1 0 1;
#X obj 752 437 bng 15 250 50 0 empty empty empty 17 7 0 10 -262144
-1 -1;
#X obj 752 421 loadbang;
#X msg 752 452 0;
#X obj 752 617 s message;
#X obj 810 497 * -1;
#X obj 838 497 + 1;
#X text 748 400 TRANSPARENCY BLEND;
#X msg 752 601 send /blend \$1;
#X obj 776 481 ctlin 28 1;
#X obj 1226 457 vsl 15 128 0.009999 0.9999 1 0 empty empty empty 0
-8 0 8 -262144 -1 -1 0 1;
#X obj 1226 424 bng 15 250 50 0 empty empty empty 17 7 0 10 -262144
-1 -1;
#X obj 1226 406 loadbang;
#X obj 1225 682 s message;
#X msg 1225 666 send /echo \$1;
#X msg 1226 439 0;
#X obj 1226 601 -;
#X msg 1280 579 1;
#X obj 1282 538 bng 15 250 50 0 empty empty empty 17 7 0 10 -262144
-1 -1;
#X obj 1258 488 / 127;
#X obj 1225 645 + 0.0001;
#X obj 1226 624 pow 10;
#X text 1223 388 ECHO;
#X obj 1258 473 ctlin 7 5;
#X msg 852 -73 0;
#X msg 634 452 0;
#X obj 673 192 s color_spectrum_coef;
#X obj 658 215 s xy_spectrum_coef;
#X obj 688 170 s brush_radius_vol_coef;
#X obj 703 0 vsl 15 128 0 0.03 0 0 0 empty empty 0 -8 0 8 -262144 -1
-1 0 1;
#X msg 710 -19 0;
#X obj 703 147 s particle_acc_attack_coef;
#X obj 752 102 ctlin 7 6;
#X obj 63 518 / -21.17;
#X obj 63 538 + 13;
#X obj 196 522 / 63.5;
#X floatatom 522 610 5 0 0 0 - - -;
#X msg 1093 126 send /brushRadius \$1;
#X obj 518 16 / 12.7;
#X text 13 378 VALUES SENT TO LYM_spectrum;
#X obj 620 472 vsl 15 128 0 0.01 0 0 empty empty empty 0 -8 0 8 -262144
-1 -1 0 1;
#X obj 620 682 s message;
#X msg 620 452 0;
#X msg 620 660 send /particle_acceleration \$1;
#X obj 620 637 -;
#X floatatom 577 676 5 0 0 0 - - -;
#X obj 630 611 t b f;
#X text 621 400 PART ACCE;
#X obj 658 485 ctlin 13 4;
#X obj 660 535 ctlin 12 4;
#X obj 887 466 vsl 15 128 0 1 0 0 empty empty empty 0 -8 0 8 -262144
-1 -1 0 1;
#X obj 887 433 bng 15 250 50 0 empty empty empty 17 7 0 10 -262144
-1 -1;
#X obj 887 417 loadbang;
#X msg 887 448 0;
#X obj 889 620 s message;
#X text 884 395 CURSOR SIZE;
#X obj 909 473 ctlin 10 2;
#X obj 909 489 / 127;
#X msg 887 602 send /cursor_size \$1;
#X obj 752 70 / 2.54;
#X msg 893 172 send /dcONT_drawing_weight \$1 \$2;
#X msg 18 626 send /dcONT_radius \$1;
#X msg 151 627 send /dcONT_nb_ext_neigh \$1;
#X msg 496 127 send /dcONTFreq \$1;
#X msg 325 689 send /dcONT_drawing_decay \$1 \$2;
#X msg 17 273 \; r_can label \$1;
#X msg 146 272 \; g_can label \$1;
#X msg 17 329 \; b_can label \$1;
#X msg 144 329 \; a_can label \$1;
#X obj 17 256 makefilename R_%.2f;
#X obj 146 255 makefilename G_%.2f;
#X obj 17 312 makefilename B_%.2f;
#X obj 144 312 makefilename A_%.2f;
#X obj 17 230 unpack f f f f;
#X obj 1046 454 vsl 15 128 0 1 0 0 empty empty empty 0 -8 0 8 -262144
-1 -1 0 1;
#X obj 1046 421 bng 15 250 50 0 empty empty empty 17 7 0 10 -262144
-1 -1;
#X obj 1046 405 loadbang;
#X obj 1046 683 s message;
#X obj 1061 454 vsl 15 128 0 1 0 0 empty empty empty 0 -8 0 8 -262144
-1 -1 0 1;
#X obj 1046 627 pack f f;
#X obj 1072 593 t b f;
#X msg 1005 399 0;
#X text 1042 391 WEIGHTINGS TEXTURE1/2;
#X msg 1046 644 send /texture_weights \$1 \$2;
#X obj 1099 480 / 127;
#X obj 1105 551 / 127;
#X obj 1099 464 ctlin 10 8;
#X obj 1105 535 ctlin 12 8;
#X msg 1061 436 0;
#X msg 1031 436 0;
#N canvas 2 110 288 291 colorRGB 0;
#X obj 16 27 inlet;
#X obj 93 28 inlet;
#X text 21 9 red;
#X text 93 11 green;
#X obj 159 75 t b f;
#X obj 93 112 +;
#X obj 93 137 t b f;
#X obj 93 168 +;
#X obj 16 52 * -65536;
#X obj 93 53 * -256;
#X obj 159 53 * -1;
#X obj 93 199 - 1;
#X obj 159 28 inlet;
#X obj 93 226 outlet;
#X text 161 11 blue;
#X connect 0 0 8 0;
#X connect 1 0 9 0;
#X connect 4 0 5 0;
#X connect 4 1 5 1;
#X connect 5 0 6 0;
#X connect 6 0 7 0;
#X connect 6 1 7 1;
#X connect 7 0 11 0;
#X connect 8 0 7 0;
#X connect 9 0 5 0;
#X connect 10 0 4 0;
#X connect 11 0 13 0;
#X connect 12 0 10 0;
#X restore 303 314 pd colorRGB;
#X msg 303 357 \; color_can color \$1;
#X obj 303 247 * 255;
#X obj 345 247 * 255;
#X obj 389 247 * 255;
#X obj 303 279 int;
#X obj 345 279 int;
#X obj 389 279 int;
#X obj 880 271 > 0;
#X obj 847 289 spigot;
#X obj 955 229 == 0;
#X obj 922 246 spigot;
#X msg 922 263 \; particle_music_acc_can color 16 12;
#X msg 847 306 \; particle_music_acc_can color 13 12;
#X obj 756 -19 / 63.5;
#X obj 658 500 / 12700;
#X obj 660 551 / 12700;
#X obj 752 119 / 4200;
#X obj 1257 14 / 1.27;
#X obj 1257 61 + 1;
#X floatatom 1194 206 5 0 0 0 - - -;
#X connect 0 0 6 0;
#X connect 1 0 100 0;
#X connect 2 0 102 0;
#X connect 3 0 101 0;
#X connect 4 0 96 0;
#X connect 4 0 97 0;
#X connect 4 0 98 0;
#X connect 4 0 99 0;
#X connect 5 0 4 0;
#X connect 6 0 7 0;
#X connect 6 0 224 0;
#X connect 7 0 8 0;
#X connect 9 0 10 0;
#X connect 9 1 11 0;
#X connect 9 2 12 0;
#X connect 13 0 14 0;
#X connect 14 0 54 0;
#X connect 15 0 56 0;
#X connect 16 0 58 0;
#X connect 17 0 60 0;
#X connect 18 0 15 0;
#X connect 19 0 16 0;
#X connect 20 0 27 0;
#X connect 20 0 24 0;
#X connect 20 0 25 0;
#X connect 20 0 181 0;
#X connect 21 0 178 0;
#X connect 22 0 179 0;
#X connect 23 0 177 0;
#X connect 24 0 23 0;
#X connect 25 0 22 0;
#X connect 26 0 20 0;
#X connect 27 0 21 0;
#X connect 29 0 214 0;
#X connect 30 0 32 0;
#X connect 31 0 30 0;
#X connect 32 0 29 0;
#X connect 34 0 45 0;
#X connect 35 0 37 0;
#X connect 36 0 35 0;
#X connect 37 0 34 0;
#X connect 39 0 124 0;
#X connect 40 0 42 0;
#X connect 41 0 40 0;
#X connect 42 0 39 0;
#X connect 42 0 120 0;
#X connect 44 0 64 0;
#X connect 45 0 38 0;
#X connect 46 0 62 0;
#X connect 47 0 88 0;
#X connect 47 0 220 0;
#X connect 47 0 221 0;
#X connect 47 0 222 0;
#X connect 47 0 243 0;
#X connect 47 0 244 0;
#X connect 47 0 245 0;
#X connect 48 0 50 0;
#X connect 49 0 48 0;
#X connect 50 0 47 0;
#X connect 52 0 23 0;
#X connect 53 0 46 0;
#X connect 54 0 55 0;
#X connect 55 0 0 0;
#X connect 56 0 57 0;
#X connect 57 0 1 0;
#X connect 58 0 59 0;
#X connect 59 0 3 0;
#X connect 60 0 61 0;
#X connect 61 0 2 0;
#X connect 62 0 63 0;
#X connect 63 0 47 0;
#X connect 64 0 34 0;
#X connect 65 0 188 0;
#X connect 66 0 68 0;
#X connect 67 0 66 0;
#X connect 68 0 65 0;
#X connect 70 0 81 0;
#X connect 71 0 189 0;
#X connect 72 0 17 0;
#X connect 77 0 145 0;
#X connect 78 0 212 0;
#X connect 79 0 77 0;
#X connect 80 0 29 0;
#X connect 81 0 82 0;
#X connect 82 0 94 0;
#X connect 83 0 94 1;
#X connect 84 0 86 0;
#X connect 85 0 84 0;
#X connect 86 0 83 0;
#X connect 88 0 51 0;
#X connect 89 0 259 0;
#X connect 90 0 255 0;
#X connect 91 0 52 0;
#X connect 92 0 210 0;
#X connect 93 0 107 0;
#X connect 94 0 65 0;
#X connect 94 0 261 0;
#X connect 95 0 94 0;
#X connect 96 0 0 0;
#X connect 97 0 1 0;
#X connect 98 0 3 0;
#X connect 99 0 2 0;
#X connect 100 0 6 0;
#X connect 100 1 6 1;
#X connect 101 0 6 0;
#X connect 101 1 6 2;
#X connect 102 0 6 0;
#X connect 102 1 6 3;
#X connect 103 0 111 0;
#X connect 104 0 115 0;
#X connect 104 0 114 0;
#X connect 105 0 104 0;
#X connect 107 0 39 0;
#X connect 108 0 184 0;
#X connect 109 0 112 0;
#X connect 110 0 117 0;
#X connect 111 0 211 0;
#X connect 112 0 111 0;
#X connect 112 1 111 1;
#X connect 113 0 118 0;
#X connect 114 0 103 0;
#X connect 115 0 109 0;
#X connect 116 0 109 0;
#X connect 117 0 116 0;
#X connect 118 0 119 0;
#X connect 119 0 103 0;
#X connect 120 0 123 0;
#X connect 121 0 120 0;
#X connect 122 0 121 0;
#X connect 123 0 124 0;
#X connect 123 1 124 1;
#X connect 124 0 215 0;
#X connect 129 0 135 0;
#X connect 130 0 213 0;
#X connect 131 0 129 0;
#X connect 134 0 186 0;
#X connect 135 0 130 0;
#X connect 136 0 187 0;
#X connect 137 0 136 0;
#X connect 138 0 140 0;
#X connect 139 0 138 0;
#X connect 140 0 137 0;
#X connect 143 0 142 0;
#X connect 144 0 137 0;
#X connect 145 0 78 0;
#X connect 146 0 144 0;
#X connect 147 0 197 0;
#X connect 148 0 176 0;
#X connect 148 0 193 0;
#X connect 149 0 148 0;
#X connect 150 0 156 0;
#X connect 151 0 159 0;
#X connect 152 0 154 0;
#X connect 153 0 152 0;
#X connect 154 0 151 0;
#X connect 156 0 157 0;
#X connect 157 0 151 0;
#X connect 159 0 155 0;
#X connect 160 0 150 0;
#X connect 161 0 169 0;
#X connect 161 0 167 1;
#X connect 162 0 166 0;
#X connect 163 0 162 0;
#X connect 165 0 164 0;
#X connect 166 0 161 0;
#X connect 167 0 172 0;
#X connect 168 0 167 0;
#X connect 169 0 168 0;
#X connect 170 0 161 0;
#X connect 171 0 165 0;
#X connect 172 0 171 0;
#X connect 174 0 170 0;
#X connect 175 0 109 0;
#X connect 176 0 147 0;
#X connect 180 0 182 0;
#X connect 180 0 250 0;
#X connect 180 0 249 0;
#X connect 180 0 251 0;
#X connect 180 0 252 0;
#X connect 181 0 180 0;
#X connect 183 0 258 0;
#X connect 184 0 128 0;
#X connect 184 0 185 0;
#X connect 185 0 78 0;
#X connect 186 0 130 0;
#X connect 188 0 69 0;
#X connect 189 0 80 0;
#X connect 191 0 195 0;
#X connect 193 0 191 0;
#X connect 194 0 192 0;
#X connect 195 0 194 0;
#X connect 195 0 196 0;
#X connect 197 0 195 0;
#X connect 197 1 195 1;
#X connect 199 0 256 0;
#X connect 200 0 257 0;
#X connect 201 0 209 0;
#X connect 202 0 204 0;
#X connect 203 0 202 0;
#X connect 204 0 201 0;
#X connect 207 0 208 0;
#X connect 208 0 201 0;
#X connect 209 0 205 0;
#X connect 210 0 22 0;
#X connect 211 0 106 0;
#X connect 212 0 127 0;
#X connect 213 0 132 0;
#X connect 214 0 33 0;
#X connect 215 0 43 0;
#X connect 220 0 216 0;
#X connect 221 0 217 0;
#X connect 222 0 218 0;
#X connect 223 0 219 0;
#X connect 224 0 220 0;
#X connect 224 0 243 0;
#X connect 224 1 221 0;
#X connect 224 1 244 0;
#X connect 224 2 222 0;
#X connect 224 2 245 0;
#X connect 224 3 223 0;
#X connect 225 0 230 0;
#X connect 226 0 239 0;
#X connect 226 0 240 0;
#X connect 227 0 226 0;
#X connect 229 0 231 0;
#X connect 230 0 234 0;
#X connect 231 0 230 0;
#X connect 231 1 230 1;
#X connect 232 0 229 0;
#X connect 235 0 229 0;
#X connect 236 0 225 0;
#X connect 237 0 235 0;
#X connect 238 0 236 0;
#X connect 239 0 229 0;
#X connect 240 0 225 0;
#X connect 241 0 242 0;
#X connect 243 0 246 0;
#X connect 244 0 247 0;
#X connect 245 0 248 0;
#X connect 246 0 241 0;
#X connect 247 0 241 1;
#X connect 248 0 241 2;
#X connect 249 0 250 1;
#X connect 250 0 254 0;
#X connect 251 0 252 1;
#X connect 252 0 253 0;
#X connect 255 0 21 0;
#X connect 256 0 191 0;
#X connect 257 0 147 0;
#X connect 258 0 180 0;
#X connect 259 0 260 0;
#X connect 260 0 83 0;
#X connect 260 0 95 0;
#X coords 0 0 10 10 0 0 0;
#X restore -540 -61 pd MIDIControl_Faders;
#N canvas 463 55 895 683 MIDIControl_Buttons 0;
#X obj 577 525 ctlin;
#X floatatom 552 557 5 0 0 0 - - -;
#X floatatom 591 558 5 0 0 0 - - -;
#X floatatom 631 559 5 0 0 0 - - -;
#X obj 403 -18 vsl 15 128 0 1 0 0 empty empty empty 0 -8 0 8 -262144
-1 -1 0 1;
#X obj 404 -51 bng 15 250 50 0 empty empty empty 17 7 0 10 -262144
-1 -1;
#X obj 404 -70 loadbang;
#X msg 404 -36 0;
#X obj 428 29 / 127;
#X obj 541 -20 vsl 15 128 0 1 0 0 empty empty empty 0 -8 0 8 -262144
-1 -1 0 1;
#X obj 542 -53 bng 15 250 50 0 empty empty empty 17 7 0 10 -262144
-1 -1;
#X obj 542 -72 loadbang;
#X msg 542 -38 0;
#X obj 566 27 / 127;
#X obj 535 225 vsl 15 128 0 1 0 0 empty empty empty 0 -8 0 8 -262144
-1 -1 0 1;
#X obj 536 192 bng 15 250 50 0 empty empty empty 17 7 0 10 -262144
-1 -1;
#X obj 536 173 loadbang;
#X msg 536 207 0;
#X obj 560 272 / 127;
#X obj 12 228 vsl 15 128 0 1 0 0 empty empty empty 0 -8 0 8 -262144
-1 -1 0 1;
#X obj 12 195 bng 15 250 50 0 empty empty empty 17 7 0 10 -262144 -1
-1;
#X obj 12 176 loadbang;
#X msg 12 210 0;
#X obj 36 275 / 127;
#X obj 126 229 vsl 15 128 0 1 0 0 empty empty empty 0 -8 0 8 -262144
-1 -1 0 1;
#X obj 126 196 bng 15 250 50 0 empty empty empty 17 7 0 10 -262144
-1 -1;
#X obj 126 177 loadbang;
#X msg 126 211 0;
#X obj 150 276 / 127;
#X obj 9 518 vsl 15 128 0 1 0 0 empty empty empty 0 -8 0 8 -262144
-1 -1 0 1;
#X obj 9 485 bng 15 250 50 0 empty empty empty 17 7 0 10 -262144 -1
-1;
#X obj 9 466 loadbang;
#X msg 9 500 0;
#X obj 9 666 s message;
#X obj 32 557 / 127;
#X obj 560 256 ctlin 18 1;
#X obj 11 -17 vsl 15 128 0 1 0 0 empty empty empty 0 -8 0 8 -262144
-1 -1 0 1;
#X obj 11 -50 bng 15 250 50 0 empty empty empty 17 7 0 10 -262144 -1
-1;
#X obj 11 -69 loadbang;
#X msg 11 -35 0;
#X obj 35 30 / 127;
#X obj 34 14 ctlin 19 1;
#X obj 128 -20 vsl 15 128 0 1 0 0 empty empty empty 0 -8 0 8 -262144
-1 -1 0 1;
#X obj 128 -53 bng 15 250 50 0 empty empty empty 17 7 0 10 -262144
-1 -1;
#X obj 128 -72 loadbang;
#X msg 128 -38 0;
#X obj 152 27 / 127;
#X obj 151 11 ctlin 20 1;
#X obj 138 519 vsl 15 128 0 1 0 0 empty empty empty 0 -8 0 8 -262144
-1 -1 0 1;
#X obj 138 486 bng 15 250 50 0 empty empty empty 17 7 0 10 -262144
-1 -1;
#X obj 138 467 loadbang;
#X msg 138 501 0;
#X obj 138 670 s message;
#X obj 161 558 / 127;
#X obj 381 515 vsl 15 128 0 1 0 0 empty empty empty 0 -8 0 8 -262144
-1 -1 0 1;
#X obj 381 482 bng 15 250 50 0 empty empty empty 17 7 0 10 -262144
-1 -1;
#X obj 381 463 loadbang;
#X msg 381 497 0;
#X obj 381 663 s message;
#X obj 404 554 / 127;
#X obj 245 516 vsl 15 128 0 1 0 0 empty empty empty 0 -8 0 8 -262144
-1 -1 0 1;
#X obj 245 483 bng 15 250 50 0 empty empty empty 17 7 0 10 -262144
-1 -1;
#X obj 245 464 loadbang;
#X msg 245 498 0;
#X obj 257 142 s message;
#X obj 268 555 / 127;
#X obj 31 541 ctlin 14 1;
#X obj 160 542 ctlin 15 1;
#X obj 250 -19 vsl 15 128 0 1 0 0 empty empty empty 0 -8 0 8 -262144
-1 -1 0 1;
#X obj 250 -52 bng 15 250 50 0 empty empty empty 17 7 0 10 -262144
-1 -1;
#X obj 250 -71 loadbang;
#X msg 250 -37 0;
#X obj 274 28 / 127;
#X obj 273 12 ctlin 21 1;
#X obj 243 226 vsl 15 128 0 1 0 0 empty empty empty 0 -8 0 8 -262144
-1 -1 0 1;
#X obj 244 193 bng 15 250 50 0 empty empty empty 17 7 0 10 -262144
-1 -1;
#X obj 244 174 loadbang;
#X msg 244 208 0;
#X obj 268 273 / 127;
#X obj 267 257 ctlin 24 1;
#X obj 678 -24 vsl 15 128 0 1 0 0 empty empty empty 0 -8 0 8 -262144
-1 -1 0 1;
#X obj 678 -57 bng 15 250 50 0 empty empty empty 17 7 0 10 -262144
-1 -1;
#X obj 678 -76 loadbang;
#X msg 678 -42 0;
#X obj 702 23 / 127;
#X obj 701 7 ctlin 27 1;
#X obj 267 539 ctlin 16 1;
#X obj 404 538 ctlin 17 1;
#X obj 35 259 ctlin 22 1;
#X obj 149 260 ctlin 23 1;
#X obj 427 13 ctlin 25 1;
#X obj 565 11 ctlin 26 1;
#X obj 535 358 s RGBspectrum;
#X text 535 155 PALETTE;
#X text 11 160 FLASH - BACKFLASH - BRUSH;
#X text 401 -90 GOL AND DRAW WEIGHT SIGNS - PARTICLE TEXTURE;
#X text 5 447 GOL MODE - PARTICLE ON/OFF - FREEZE;
#X text 18 -87 DRAW AND FLASH Contamination MODES - DRAWING MODE;
#X obj 130 141 s message;
#X obj 245 665 s message;
#X msg 130 126 send /drawContmode;
#X obj 12 135 s message;
#X msg 381 647 send /drawing_mode;
#X obj 11 380 s message;
#X obj 243 375 s message;
#X obj 125 379 s message;
#X msg 126 363 send /flash;
#X msg 244 359 send /backFlash;
#X msg 11 364 send /brush;
#X obj 544 131 s message;
#X obj 680 128 s message;
#X obj 402 133 s message;
#X msg 680 112 send /drawingdecay_sign;
#X msg 402 116 send /particle_texture;
#X msg 245 650 send /setup;
#X msg 139 652 send /particle;
#X msg 257 126 send /freeze_on_off;
#X msg 11 116 send /drawing_on_off;
#X msg 544 115 send /GOLdecay_sign;
#X msg 9 650 send /GOL_plus;
#X connect 0 0 1 0;
#X connect 0 1 2 0;
#X connect 0 2 3 0;
#X connect 4 0 113 0;
#X connect 5 0 7 0;
#X connect 6 0 5 0;
#X connect 7 0 4 0;
#X connect 8 0 4 0;
#X connect 9 0 118 0;
#X connect 10 0 12 0;
#X connect 11 0 10 0;
#X connect 12 0 9 0;
#X connect 13 0 9 0;
#X connect 14 0 92 0;
#X connect 15 0 17 0;
#X connect 16 0 15 0;
#X connect 17 0 14 0;
#X connect 18 0 14 0;
#X connect 19 0 108 0;
#X connect 20 0 22 0;
#X connect 21 0 20 0;
#X connect 22 0 19 0;
#X connect 23 0 19 0;
#X connect 24 0 106 0;
#X connect 25 0 27 0;
#X connect 26 0 25 0;
#X connect 27 0 24 0;
#X connect 28 0 24 0;
#X connect 29 0 119 0;
#X connect 30 0 32 0;
#X connect 31 0 30 0;
#X connect 32 0 29 0;
#X connect 34 0 29 0;
#X connect 35 0 18 0;
#X connect 36 0 117 0;
#X connect 37 0 39 0;
#X connect 38 0 37 0;
#X connect 39 0 36 0;
#X connect 40 0 36 0;
#X connect 41 0 40 0;
#X connect 42 0 117 0;
#X connect 43 0 45 0;
#X connect 44 0 43 0;
#X connect 45 0 42 0;
#X connect 46 0 42 0;
#X connect 47 0 46 0;
#X connect 48 0 115 0;
#X connect 49 0 51 0;
#X connect 50 0 49 0;
#X connect 51 0 48 0;
#X connect 53 0 48 0;
#X connect 54 0 102 0;
#X connect 55 0 57 0;
#X connect 56 0 55 0;
#X connect 57 0 54 0;
#X connect 59 0 54 0;
#X connect 60 0 114 0;
#X connect 61 0 63 0;
#X connect 62 0 61 0;
#X connect 63 0 60 0;
#X connect 65 0 60 0;
#X connect 66 0 34 0;
#X connect 67 0 53 0;
#X connect 69 0 71 0;
#X connect 70 0 69 0;
#X connect 71 0 68 0;
#X connect 72 0 68 0;
#X connect 73 0 72 0;
#X connect 74 0 107 0;
#X connect 75 0 77 0;
#X connect 76 0 75 0;
#X connect 77 0 74 0;
#X connect 78 0 74 0;
#X connect 79 0 78 0;
#X connect 80 0 112 0;
#X connect 81 0 83 0;
#X connect 82 0 81 0;
#X connect 83 0 80 0;
#X connect 84 0 80 0;
#X connect 85 0 84 0;
#X connect 86 0 65 0;
#X connect 87 0 59 0;
#X connect 88 0 23 0;
#X connect 89 0 28 0;
#X connect 90 0 8 0;
#X connect 91 0 13 0;
#X connect 100 0 98 0;
#X connect 102 0 58 0;
#X connect 106 0 105 0;
#X connect 107 0 104 0;
#X connect 108 0 103 0;
#X connect 112 0 110 0;
#X connect 113 0 111 0;
#X connect 114 0 99 0;
#X connect 115 0 52 0;
#X connect 116 0 64 0;
#X connect 117 0 101 0;
#X connect 118 0 109 0;
#X connect 119 0 33 0;
#X coords 0 0 10 10 0 0 0;
#X restore -540 -41 pd MIDIControl_Buttons;
#N canvas 371 51 960 708 myclock 0;
#X obj -30 74 / 60;
#X obj -30 102 int;
#X obj 57 150 -;
#X obj 72 119 * 60;
#X obj -30 -27 timer;
#X obj -30 -3 / 1000;
#X obj -3 -54 metro 1000;
#X obj -30 -69 bng 15 250 50 0 empty empty empty 17 7 0 10 -262144
-1 -1;
#X obj -30 31 int;
#X obj -30 -94 inlet;
#X obj -30 181 outlet;
#X obj 57 180 outlet;
#X obj 147 522 s startcountdown;
#X text -32 -117 launch msg reception;
#X text -5 -71 start of the elapsed time count;
#X text -23 212 DISPLAY IN LIVE SCORE;
#X text -23 200 MN/SEC ELAPSED TIME;
#X text 52 547 sends scene duration;
#X text 52 560 for countdown display;
#X text 52 573 in livescore;
#X floatatom 73 68 5 0 0 0 - - -;
#X obj 89 14 +;
#X obj 104 -95 inlet;
#X text 104 -118 offset;
#X msg 174 124 210;
#X msg 225 187 275;
#X msg 493 132 1;
#X msg 494 155 2;
#X msg 496 180 3;
#X msg 497 205 4;
#X msg 497 231 5;
#X msg 498 256 6;
#X msg 499 282 7;
#X msg 502 308 8;
#X msg 502 334 9;
#X msg 504 358 10;
#X msg 503 388 11;
#X msg 506 418 12;
#X msg 507 447 13;
#X obj 724 485 s message;
#X msg 724 463 send /setupID \$1;
#X text 542 -65 8'30: F1 weaving;
#X text 542 -106 0: M1 matches;
#X text 540 19 17'52: P2 start of rythm in Petri;
#X text 541 -26 14'35: F3 Brush on GOL -> Petri;
#X text 539 -3 16'00: P1 Fur effect (cell phone);
#X text 542 -87 5'00: M2 Russian theme/Enretard;
#X text 540 -46 10'00: F2 Ligeti: drawing;
#X text 540 40 22'1: Imprint1: digital imprint;
#X text 542 60 23'1: Imprint2: pen drawing black on white / DinoStep
;
#X text 540 80 24'1: Imprint3: pen drawing white on black / Drawing
sound;
#X text 540 123 32'38: Cell 2: wood cracks;
#X text 540 143 33'56: Cell 3: Dust;
#X text 540 163 36'50: end;
#X msg 506 477 14;
#X msg 200 154 90;
#X msg 251 219 85;
#X msg 277 257 112;
#X msg 305 284 249;
#X msg 327 316 60;
#X msg 348 346 60;
#X msg 413 448 78;
#X msg 438 479 174;
#X msg 370 380 339;
#X msg 391 417 178;
#X text 541 103 29'40: (28'44 -> start AlvaNoto) Cell 1: black hole
;
#X obj 148 48 route 0 240 450 540 815 900 1012 1261 1321 1381 1720
1898 1976 2150;
#X msg 147 97 240;
#X msg 465 505 10000;
#X msg 717 314 send /stardust;
#X obj 717 336 s message_SC;
#X obj 717 290 bng 15 250 50 0 empty empty empty 17 7 0 10 -262144
-1 -1;
#X text 745 272 SuperCollider message;
#X text 743 291 start Stardust for Petri2;
#X connect 0 0 1 0;
#X connect 1 0 3 0;
#X connect 1 0 10 0;
#X connect 2 0 11 0;
#X connect 3 0 2 1;
#X connect 4 0 5 0;
#X connect 5 0 21 0;
#X connect 6 0 4 1;
#X connect 7 0 4 0;
#X connect 7 0 6 0;
#X connect 8 0 0 0;
#X connect 8 0 2 0;
#X connect 8 0 20 0;
#X connect 8 0 66 0;
#X connect 9 0 7 0;
#X connect 21 0 8 0;
#X connect 22 0 21 1;
#X connect 24 0 12 0;
#X connect 25 0 12 0;
#X connect 26 0 40 0;
#X connect 27 0 40 0;
#X connect 28 0 40 0;
#X connect 29 0 40 0;
#X connect 30 0 40 0;
#X connect 31 0 40 0;
#X connect 32 0 40 0;
#X connect 33 0 40 0;
#X connect 34 0 40 0;
#X connect 35 0 40 0;
#X connect 36 0 40 0;
#X connect 37 0 40 0;
#X connect 38 0 40 0;
#X connect 40 0 39 0;
#X connect 54 0 40 0;
#X connect 55 0 12 0;
#X connect 56 0 12 0;
#X connect 57 0 12 0;
#X connect 58 0 12 0;
#X connect 59 0 12 0;
#X connect 60 0 12 0;
#X connect 61 0 12 0;
#X connect 62 0 12 0;
#X connect 63 0 12 0;
#X connect 64 0 12 0;
#X connect 66 0 67 0;
#X connect 66 0 26 0;
#X connect 66 1 24 0;
#X connect 66 1 27 0;
#X connect 66 2 55 0;
#X connect 66 2 28 0;
#X connect 66 3 25 0;
#X connect 66 3 29 0;
#X connect 66 4 56 0;
#X connect 66 4 30 0;
#X connect 66 5 57 0;
#X connect 66 5 31 0;
#X connect 66 6 58 0;
#X connect 66 6 32 0;
#X connect 66 6 69 0;
#X connect 66 7 59 0;
#X connect 66 7 33 0;
#X connect 66 8 34 0;
#X connect 66 8 60 0;
#X connect 66 9 35 0;
#X connect 66 9 63 0;
#X connect 66 10 36 0;
#X connect 66 10 64 0;
#X connect 66 11 37 0;
#X connect 66 11 61 0;
#X connect 66 12 38 0;
#X connect 66 12 62 0;
#X connect 66 13 54 0;
#X connect 66 13 68 0;
#X connect 67 0 12 0;
#X connect 68 0 12 0;
#X connect 69 0 70 0;
#X connect 71 0 69 0;
#X restore -688 155 pd myclock;
#X obj -688 78 r startclock;
#N canvas 790 122 585 649 mycountdown 0;
#X obj -266 258 / 60;
#X obj -266 286 int;
#X obj -241 391 -;
#X obj -226 359 * 60;
#X obj -251 120 timer;
#X obj -251 144 / 1000;
#X obj -224 93 metro 1000;
#X obj -251 78 bng 15 250 50 0 empty empty empty 17 7 0 10 -262144
-1 -1;
#X obj -251 172 int;
#X obj -250 52 inlet;
#X floatatom -312 165 5 0 0 0 - - -;
#X obj -266 219 -;
#X obj -266 195 bng 15 250 50 0 empty empty empty 17 7 0 10 -262144
-1 -1;
#X text -289 14 receives scene durations;
#X text -288 27 and makes count down to be displayed in live score
;
#X text -138 213 WARNING COLOR DISPLAY IN LIVE SCORE;
#X floatatom -179 204 5 0 0 0 - - -;
#X msg -49 262 send /timer 1;
#X msg -24 304 send /timer 2;
#X msg 1 345 send /timer 0;
#X floatatom -49 190 5 0 0 0 - - -;
#X obj -266 533 makefilename %d:;
#X msg -240 442 \; sec_can label \$1;
#X obj -241 419 makefilename %d;
#X msg -265 555 \; mn_can label \$1;
#X msg 80 379 \; sec_can color 13 12;
#X msg 87 416 \; mn_can color 13 12;
#X msg 34 460 \; sec_can color 14 12;
#X msg 41 497 \; mn_can color 14 12;
#X msg -28 526 \; sec_can color 15 12;
#X msg -21 563 \; mn_can color 15 12;
#X msg 88 297 \; sec_can color 16 12;
#X msg 95 334 \; mn_can color 16 12;
#X text -256 484 MN/SEC COUNTDOWN DISPLAY IN LIVE SCORE;
#X text -254 498 DISPLAY IN LIVE SCORE;
#X obj -49 234 route 30 20 10 0;
#X connect 0 0 1 0;
#X connect 1 0 3 0;
#X connect 1 0 21 0;
#X connect 2 0 23 0;
#X connect 3 0 2 1;
#X connect 4 0 5 0;
#X connect 5 0 8 0;
#X connect 6 0 4 1;
#X connect 7 0 4 0;
#X connect 7 0 6 0;
#X connect 8 0 11 1;
#X connect 8 0 12 0;
#X connect 8 0 16 0;
#X connect 9 0 7 0;
#X connect 9 0 10 0;
#X connect 10 0 11 0;
#X connect 11 0 0 0;
#X connect 11 0 2 0;
#X connect 11 0 35 0;
#X connect 12 0 11 0;
#X connect 17 0 29 0;
#X connect 17 0 30 0;
#X connect 18 0 27 0;
#X connect 18 0 28 0;
#X connect 19 0 25 0;
#X connect 19 0 26 0;
#X connect 20 0 35 0;
#X connect 21 0 24 0;
#X connect 23 0 22 0;
#X connect 35 0 17 0;
#X connect 35 1 18 0;
#X connect 35 2 19 0;
#X connect 35 3 31 0;
#X connect 35 3 32 0;
#X restore -688 247 pd mycountdown;
#X obj -688 225 r startcountdown;
#X obj -688 178 s elapsedmn;
#X obj -631 200 s elapsedsec;
#X text -588 -264 AUDIO ON;
#X obj -586 -247 loadbang;
#X msg -586 -231 \; pd dsp 1;
#X text -542 -76 USB Controller;
#X obj -664 104 loadbang;
#X msg -664 123 0;
#X obj -563 72 bng 15 250 50 0 empty empty empty 17 7 0 10 -4034 -1
-1;
#X obj -517 -245 bng 15 250 50 0 empty empty empty 17 7 0 10 -4034
-1 -1;
#X obj -514 -211 bng 15 250 50 0 empty empty empty 17 7 0 10 -258113
-1 -1;
#X obj -498 -211 s stopsoundtrack;
#X text -512 -229 STOP SOUNDTRACK;
#X text -517 -264 START SOUNDTRACK;
#X obj -503 -246 s startsoundtrack;
#X obj -688 286 loadbang;
#X obj -688 320 s input_volume;
#X text -669 -25 3: brush radius;
#X text -669 -10 4: particle accel.;
#N canvas 2 63 1087 677 dumpVCMessages 0;
#X text 88 7 OSC message processing;
#X obj 89 131 s startclock;
#X text 222 7 for clock launching;
#X text 88 19 and processing messages from VirChor;
#X obj 90 40 dumpOSC 1979;
#X obj 148 177 s RGBspectrumVC;
#X obj 207 222 s restart;
#X obj 295 144 route 0 1 2 3 4 5;
#X msg 277 266 \; brush_can label FineGrain;
#X msg 277 303 \; brush_can label Imprint;
#X msg 278 339 \; brush_can label EnRetard;
#X msg 291 377 \; brush_can label Earth;
#X msg 273 224 \; brush_can label LargeGrain;
#X msg 272 186 \; brush_can label Circle;
#X msg 443 222 \; texture_can label Neuron;
#X msg 442 265 \; texture_can label ContinuousNoise;
#X msg 444 305 \; texture_can label RandomNoise;
#X msg 445 343 \; texture_can label Dcont;
#X obj 467 139 route 0 1 2 3 4;
#X msg 444 181 \; texture_can label Tree;
#X obj 663 138 route -1 1;
#X obj 666 270 route -1 1;
#X msg 640 180 \; drawingdecay_sign_can label +;
#X msg 646 224 \; drawingdecay_sign_can label -;
#X msg 643 313 \; GOLdecay_sign_can label +;
#X msg 649 358 \; GOLdecay_sign_can label -;
#X msg 834 178 \; drawingdecay_sign_can color 13 12;
#X msg 811 314 \; GOLdecay_sign_can color 13 12;
#X msg 841 225 \; drawingdecay_sign_can color 17 12;
#X msg 818 351 \; GOLdecay_sign_can color 17 12;
#X obj 114 436 route 0 1 2;
#X msg 91 464 \; particles_can label X;
#X msg 92 502 \; particles_can label Particles;
#X msg 91 547 \; particles_can label Firework;
#X msg 281 460 \; GOL_can label X;
#X msg 427 462 \; drawing_can label X;
#X msg 428 500 \; drawing_can label Line;
#X obj 450 434 route 0 1 2 3;
#X msg 282 498 \; GOL_can label GOL_Basic;
#X msg 88 615 \; radius_can label \$1;
#X msg 282 570 \; GOL_can label \$1;
#X obj 282 536 pack f;
#X obj 282 553 makefilename GOL_%d;
#X obj 340 431 route 0 1;
#X obj 88 598 makefilename %.2f;
#X obj 558 93 print;
#X msg 612 491 \; message_can label \$1;
#X obj 612 474 pack s;
#N canvas 4 54 1039 965 manage_setup_display 0;
#X obj 40 10 inlet;
#X msg 17 64 \; setup_can label Matches;
#X msg 18 102 \; setup_can label En_Retard;
#X msg 31 274 \; setup_can label Fur;
#X msg 38 314 \; setup_can label Petri;
#X obj 16 34 route 1 2 3 4 5 6 7 8 9 10 11 12 13;
#X msg 274 314 \; setup_can label X;
#X msg 226 59 \; setup_can label Imprint_1_(Finger);
#X msg 234 99 \; setup_can label Imprint_2_(Face_sketch);
#X msg 241 141 \; setup_can label Imprint_3_(Face_draw);
#X msg 249 184 \; setup_can label Cell_1_(Alva_Noto);
#X msg 256 226 \; setup_can label Cell_2_(Decont);
#X msg 266 271 \; setup_can label Cell_3_(Earth);
#X msg 24 189 \; setup_can label Forest_2_(Drawing);
#X msg 22 145 \; setup_can label Forest_1_(Sketch);
#X msg 25 234 \; setup_can label Forest_3_(Powder);
#X msg 77 365 \; hint1_can label gray_black;
#X obj 51 350 bng 15 250 50 0 empty empty empty 17 7 0 10 -262144 -1
-1;
#X msg 75 401 \; hint2_can label draw_decay_+1;
#X msg 74 441 \; hint3_can label gol_decay_-1;
#X msg 72 480 \; hint4_can label music_xy_0.5;
#X msg 71 519 \; hint5_can label radius_5;
#X obj 273 349 bng 15 250 50 0 empty empty empty 17 7 0 10 -262144
-1 -1;
#X obj 482 345 bng 15 250 50 0 empty empty empty 17 7 0 10 -262144
-1 -1;
#X obj 696 342 bng 15 250 50 0 empty empty empty 17 7 0 10 -262144
-1 -1;
#X obj 44 557 bng 15 250 50 0 empty empty empty 17 7 0 10 -262144 -1
-1;
#X obj 266 556 bng 15 250 50 0 empty empty empty 17 7 0 10 -262144
-1 -1;
#X obj 475 552 bng 15 250 50 0 empty empty empty 17 7 0 10 -262144
-1 -1;
#X obj 689 549 bng 15 250 50 0 empty empty empty 17 7 0 10 -262144
-1 -1;
#X obj 41 761 bng 15 250 50 0 empty empty empty 17 7 0 10 -262144 -1
-1;
#X obj 263 760 bng 15 250 50 0 empty empty empty 17 7 0 10 -262144
-1 -1;
#X obj 472 756 bng 15 250 50 0 empty empty empty 17 7 0 10 -262144
-1 -1;
#X obj 686 753 bng 15 250 50 0 empty empty empty 17 7 0 10 -262144
-1 -1;
#X obj 41 968 bng 15 250 50 0 empty empty empty 17 7 0 10 -262144 -1
-1;
#X msg 64 1059 \; hint3_can label gol_decay_-1;
#X obj 263 967 bng 15 250 50 0 empty empty empty 17 7 0 10 -262144
-1 -1;
#X msg 299 364 \; hint1_can label radius_5;
#X msg 297 400 \; hint2_can label music_xy_0;
#X msg 296 440 \; hint3_can label;
#X msg 294 479 \; hint4_can label;
#X msg 297 523 \; hint5_can label;
#X msg 508 360 \; hint1_can label radius_5;
#X msg 506 396 \; hint2_can label music_color_0;
#X msg 505 436 \; hint3_can label gray_black;
#X msg 503 475 \; hint4_can label;
#X msg 502 514 \; hint5_can label;
#X msg 722 357 \; hint1_can label gray_white;
#X msg 720 393 \; hint2_can label draw_decay_0;
#X msg 719 433 \; hint3_can label gol_decay_0;
#X msg 717 472 \; hint4_can label;
#X msg 716 511 \; hint5_can label;
#X msg 70 572 \; hint1_can label particle_acc_0;
#X msg 68 608 \; hint2_can label gray_black;
#X msg 67 648 \; hint3_can label music_xy_1;
#X msg 65 687 \; hint4_can label;
#X msg 64 727 \; hint5_can label;
#X msg 292 571 \; hint1_can label music_xy_0;
#X msg 290 608 \; hint2_can label;
#X msg 289 647 \; hint3_can label;
#X msg 287 686 \; hint4_can label;
#X msg 286 725 \; hint5_can label;
#X msg 501 567 \; hint1_can label gol_decay_-1;
#X msg 499 603 \; hint2_can label draw_decay_+1;
#X msg 498 643 \; hint3_can label;
#X msg 496 682 \; hint4_can label;
#X msg 495 721 \; hint5_can label;
#X msg 715 564 \; hint1_can label radius_30;
#X msg 713 600 \; hint2_can label frequency_0.1;
#X msg 712 640 \; hint3_can label gray_black;
#X msg 710 679 \; hint4_can label;
#X msg 709 718 \; hint5_can label;
#X msg 67 776 \; hint1_can label radius_3;
#X msg 65 812 \; hint2_can label gray_white;
#X msg 64 852 \; hint3_can label;
#X msg 62 891 \; hint4_can label;
#X msg 61 930 \; hint5_can label;
#X msg 289 775 \; hint1_can label draw_decay_0;
#X msg 287 811 \; hint2_can label;
#X msg 286 851 \; hint3_can label;
#X msg 284 890 \; hint4_can label;
#X msg 283 929 \; hint5_can label;
#X msg 498 771 \; hint1_can label drawing_weight_0;
#X msg 496 807 \; hint2_can label;
#X msg 495 847 \; hint3_can label;
#X msg 493 886 \; hint4_can label;
#X msg 492 925 \; hint5_can label;
#X msg 712 768 \; hint1_can label music_xy_0;
#X msg 710 804 \; hint2_can label music_particles_0.1;
#X msg 709 844 \; hint3_can label drawing_weight_1;
#X msg 707 883 \; hint4_can label gray_white;
#X msg 706 922 \; hint5_can label;
#X msg 67 983 \; hint1_can label music_particle_0;
#X msg 65 1019 \; hint2_can label draw_decay_-1;
#X msg 62 1098 \; hint4_can label particle_acc_0.5;
#X msg 61 1137 \; hint5_can label freq_dot_0;
#X msg 289 982 \; hint1_can label radius_0;
#X msg 287 1018 \; hint2_can label gol_decay_+1;
#X msg 286 1058 \; hint3_can label;
#X msg 284 1097 \; hint4_can label;
#X msg 283 1136 \; hint5_can label;
#X connect 0 0 5 0;
#X connect 5 0 1 0;
#X connect 5 0 22 0;
#X connect 5 1 2 0;
#X connect 5 1 23 0;
#X connect 5 2 14 0;
#X connect 5 2 24 0;
#X connect 5 3 13 0;
#X connect 5 3 25 0;
#X connect 5 4 15 0;
#X connect 5 4 26 0;
#X connect 5 5 3 0;
#X connect 5 5 27 0;
#X connect 5 6 4 0;
#X connect 5 6 28 0;
#X connect 5 7 7 0;
#X connect 5 7 29 0;
#X connect 5 8 8 0;
#X connect 5 8 30 0;
#X connect 5 9 9 0;
#X connect 5 9 31 0;
#X connect 5 10 10 0;
#X connect 5 10 32 0;
#X connect 5 11 11 0;
#X connect 5 11 33 0;
#X connect 5 12 12 0;
#X connect 5 12 35 0;
#X connect 5 13 6 0;
#X connect 5 13 17 0;
#X connect 17 0 16 0;
#X connect 17 0 18 0;
#X connect 17 0 19 0;
#X connect 17 0 20 0;
#X connect 17 0 21 0;
#X connect 22 0 36 0;
#X connect 22 0 37 0;
#X connect 22 0 38 0;
#X connect 22 0 39 0;
#X connect 22 0 40 0;
#X connect 23 0 41 0;
#X connect 23 0 42 0;
#X connect 23 0 43 0;
#X connect 23 0 44 0;
#X connect 23 0 45 0;
#X connect 24 0 46 0;
#X connect 24 0 47 0;
#X connect 24 0 48 0;
#X connect 24 0 49 0;
#X connect 24 0 50 0;
#X connect 25 0 51 0;
#X connect 25 0 52 0;
#X connect 25 0 53 0;
#X connect 25 0 54 0;
#X connect 25 0 55 0;
#X connect 26 0 56 0;
#X connect 26 0 57 0;
#X connect 26 0 58 0;
#X connect 26 0 59 0;
#X connect 26 0 60 0;
#X connect 27 0 61 0;
#X connect 27 0 62 0;
#X connect 27 0 63 0;
#X connect 27 0 64 0;
#X connect 27 0 65 0;
#X connect 28 0 66 0;
#X connect 28 0 68 0;
#X connect 28 0 69 0;
#X connect 28 0 70 0;
#X connect 28 0 67 0;
#X connect 29 0 71 0;
#X connect 29 0 72 0;
#X connect 29 0 73 0;
#X connect 29 0 74 0;
#X connect 29 0 75 0;
#X connect 30 0 76 0;
#X connect 30 0 77 0;
#X connect 30 0 78 0;
#X connect 30 0 79 0;
#X connect 30 0 80 0;
#X connect 31 0 81 0;
#X connect 31 0 82 0;
#X connect 31 0 83 0;
#X connect 31 0 84 0;
#X connect 31 0 85 0;
#X connect 32 0 86 0;
#X connect 32 0 87 0;
#X connect 32 0 88 0;
#X connect 32 0 89 0;
#X connect 32 0 90 0;
#X connect 33 0 91 0;
#X connect 33 0 92 0;
#X connect 33 0 34 0;
#X connect 33 0 93 0;
#X connect 33 0 94 0;
#X connect 35 0 95 0;
#X connect 35 0 96 0;
#X connect 35 0 97 0;
#X connect 35 0 98 0;
#X connect 35 0 99 0;
#X restore 557 38 pd manage_setup_display;
#X msg 432 543 \; drawing_can label Bezier;
#X msg 434 587 \; drawing_can label Dots;
#X obj 90 63 route /launch /RGBspectrum /restart /brush_can /texture_can
/drawingdecay_sign_can /GOLdecay_sign_can /particles_can /GOL_can /drawing_can
/radius_can /setup_can /message_can /return_message;
#X obj 782 474 s message;
#X obj 782 440 pack s;
#X msg 782 457 send /return_message \$1;
#X connect 4 0 51 0;
#X connect 7 0 13 0;
#X connect 7 1 12 0;
#X connect 7 2 8 0;
#X connect 7 3 9 0;
#X connect 7 4 10 0;
#X connect 7 5 11 0;
#X connect 18 0 19 0;
#X connect 18 1 14 0;
#X connect 18 2 15 0;
#X connect 18 3 16 0;
#X connect 18 4 17 0;
#X connect 20 0 22 0;
#X connect 20 0 26 0;
#X connect 20 1 23 0;
#X connect 20 1 28 0;
#X connect 21 0 24 0;
#X connect 21 0 27 0;
#X connect 21 1 25 0;
#X connect 21 1 29 0;
#X connect 30 0 31 0;
#X connect 30 1 32 0;
#X connect 30 2 33 0;
#X connect 37 0 35 0;
#X connect 37 1 36 0;
#X connect 37 2 49 0;
#X connect 37 3 50 0;
#X connect 41 0 42 0;
#X connect 42 0 40 0;
#X connect 43 0 34 0;
#X connect 43 1 38 0;
#X connect 43 2 41 0;
#X connect 44 0 39 0;
#X connect 47 0 46 0;
#X connect 51 0 1 0;
#X connect 51 1 5 0;
#X connect 51 2 6 0;
#X connect 51 3 7 0;
#X connect 51 4 18 0;
#X connect 51 5 20 0;
#X connect 51 6 21 0;
#X connect 51 7 30 0;
#X connect 51 8 43 0;
#X connect 51 9 37 0;
#X connect 51 10 44 0;
#X connect 51 11 48 0;
#X connect 51 12 47 0;
#X connect 51 13 53 0;
#X connect 53 0 54 0;
#X connect 54 0 52 0;
#X restore -540 -101 pd dumpVCMessages;
#X obj -609 -146 s connect;
#X obj -687 -145 s disconnect;
#X obj -687 -187 bng 15 250 50 0 empty empty empty 0 -6 0 8 -24198
-1 -1;
#X text -665 -188 Manual connection;
#X floatatom -584 320 5 0 0 0 - - -;
#X text -545 72 1;
#X msg -524 93 211;
#X msg -524 121 438;
#X msg -524 147 872;
#X msg -522 172 1266;
#X msg -522 202 1724;
#X msg -482 91 1;
#X msg -483 119 2;
#X msg -484 146 5;
#X msg -484 171 8;
#X msg -483 202 11;
#X obj -527 255 s message;
#X msg -527 233 send /setupID \$1;
#X obj -563 97 bng 15 250 50 0 empty empty empty 17 7 0 10 -4034 -1
-1;
#X obj -562 122 bng 15 250 50 0 empty empty empty 17 7 0 10 -4034 -1
-1;
#X obj -562 148 bng 15 250 50 0 empty empty empty 17 7 0 10 -4034 -1
-1;
#X obj -562 173 bng 15 250 50 0 empty empty empty 17 7 0 10 -4034 -1
-1;
#X text -545 97 2;
#X text -544 122 3;
#X text -544 148 4;
#X text -544 176 5;
#X obj -563 29 r restart;
#X obj -562 46 int;
#X obj -540 46 route 1 2 3 4 5;
#X text -691 63 time count;
#X text -691 50 start of the elapsed;
#X text -542 -117 OSC input messages;
#X obj -687 -165 delay 3000;
#X obj -609 -165 delay 3050;
#X obj -688 337 s ref_volume;
#X floatatom -515 280 5 0 0 0 - - -;
#X obj -631 302 / 127;
#X obj -584 303 + 0.01;
#X msg -688 302 0.501;
#X obj -630 286 ctlin 13 5;
#X connect 2 0 1 0;
#X connect 3 0 1 1;
#X connect 4 0 1 2;
#X connect 5 0 1 3;
#X connect 7 0 0 0;
#X connect 8 0 0 1;
#X connect 9 0 7 0;
#X connect 13 0 15 0;
#X connect 14 0 13 0;
#X connect 15 0 2 0;
#X connect 15 0 3 0;
#X connect 15 0 4 0;
#X connect 15 0 5 0;
#X connect 18 0 22 0;
#X connect 18 1 23 0;
#X connect 19 0 18 0;
#X connect 21 0 20 0;
#X connect 25 0 26 0;
#X connect 28 0 29 0;
#X connect 29 0 18 1;
#X connect 30 0 18 0;
#X connect 30 0 48 0;
#X connect 30 0 53 0;
#X connect 31 0 36 0;
#X connect 32 0 33 0;
#X connect 37 0 80 0;
#X connect 44 0 74 0;
#X connect 44 0 75 0;
#X connect 48 0 18 1;
#X connect 49 0 18 1;
#X connect 50 0 18 1;
#X connect 51 0 18 1;
#X connect 52 0 18 1;
#X connect 53 0 59 0;
#X connect 54 0 59 0;
#X connect 55 0 59 0;
#X connect 56 0 59 0;
#X connect 57 0 59 0;
#X connect 59 0 58 0;
#X connect 60 0 18 0;
#X connect 60 0 49 0;
#X connect 60 0 54 0;
#X connect 61 0 18 0;
#X connect 61 0 50 0;
#X connect 61 0 55 0;
#X connect 62 0 18 0;
#X connect 62 0 51 0;
#X connect 62 0 56 0;
#X connect 63 0 18 0;
#X connect 63 0 52 0;
#X connect 63 0 57 0;
#X connect 68 0 69 0;
#X connect 69 0 70 0;
#X connect 70 0 30 0;
#X connect 70 1 60 0;
#X connect 70 2 61 0;
#X connect 70 3 62 0;
#X connect 70 4 63 0;
#X connect 74 0 43 0;
#X connect 75 0 42 0;
#X connect 78 0 79 0;
#X connect 79 0 38 0;
#X connect 79 0 46 0;
#X connect 80 0 38 0;
#X connect 80 0 76 0;
#X connect 81 0 78 0;
#X connect 81 0 77 0;
#X restore -740 321 pd initial_board;
#X obj -740 165 cnv 15 150 25 empty color_can empty 20 12 0 14 -1 -262144
0;
#X obj -745 199 cnv 15 150 20 empty hint1_can gray_black 20 12 0 12
-1 -262144 0;
#X obj -745 222 cnv 15 150 20 empty hint2_can draw_decay_+1 20 12 0
12 -1 -262144 0;
#X obj -745 246 cnv 15 150 20 empty hint3_can gol_decay_-1 20 12 0
12 -1 -262144 0;
#X obj -745 268 cnv 15 150 20 empty hint4_can music_xy_0.5 20 12 0
12 -1 -262144 0;
#X obj -746 290 cnv 15 150 20 empty hint5_can radius_5 20 12 0 12 -1
-262144 0;
#X obj -513 -114 vsl 15 128 0 1.01 0 0 empty input_volume VOL 0 -9
0 14 -162280 -1 -4034 6759 1;
#X obj -486 -114 vsl 15 128 0 1.01 0 0 empty ref_volume REF 0 -9 0
14 -162280 -1 -4034 6300 1;
#X obj -742 59 cnv 15 60 25 empty empty MUSIC_PART_OFF: 0 12 1 14 -1
-4034 0;
#X obj -606 58 cnv 15 20 20 empty particle_music_acc_can empty 0 12
1 14 -24198 -33289 0;
#X obj -539 26 cnv 15 80 20 empty empty empty 20 12 0 14 -233017 -66577
0;
#X floatatom -535 29 5 0 0 0 - - -;
#X floatatom -494 29 5 0 0 0 - - -;
#X connect 10 0 9 0;
#X connect 33 0 34 0;
#X connect 33 1 35 0;
#X connect 33 2 36 0;
#X connect 45 0 50 0;
#X connect 46 0 51 0;
